<?xml version="1.0" encoding="UTF-8"?>
<!DOCTYPE xmeml>
<xmeml version="4">
    <sequence id="sequence-5" TL.SQAudioVisibleBase="0" TL.SQVideoVisibleBase="0" TL.SQVisibleBaseTime="0"
              TL.SQAVDividerPosition="0.5" TL.SQHideShyTracks="0" TL.SQHeaderWidth="236"
              Monitor.ProgramZoomOut="180012576744000" Monitor.ProgramZoomIn="0" TL.SQTimePerPixel="0.96723303153486084"
              MZ.EditLine="0" MZ.Sequence.PreviewFrameSizeHeight="1072" MZ.Sequence.PreviewFrameSizeWidth="1912"
              MZ.Sequence.AudioTimeDisplayFormat="200" MZ.Sequence.PreviewRenderingClassID="1297106761"
              MZ.Sequence.PreviewRenderingPresetCodec="1297107278"
              MZ.Sequence.PreviewRenderingPresetPath="EncoderPresets\SequencePreview\9678af98-a7b7-4bdb-b477-7ac9c8df4a4e\I-Frame Only MPEG.epr"
              MZ.Sequence.PreviewUseMaxRenderQuality="false" MZ.Sequence.PreviewUseMaxBitDepth="false"
              MZ.Sequence.EditingModeGUID="9678af98-a7b7-4bdb-b477-7ac9c8df4a4e"
              MZ.Sequence.VideoTimeDisplayFormat="110" MZ.WorkOutPoint="180012576744000" MZ.WorkInPoint="0"
              explodedTracks="true">
        <uuid>06d746c8-382b-42e5-8688-20d8e434a31b</uuid>
        <duration>16991</duration>
        <rate>
            <timebase>24</timebase>
            <ntsc>TRUE</ntsc>
        </rate>
        <name>S02E06.Hard.Boiled.Eggy</name>
        <media>
            <video>
                <format>
                    <samplecharacteristics>
                        <rate>
                            <timebase>24</timebase>
                            <ntsc>TRUE</ntsc>
                        </rate>
                        <codec>
                            <name>Apple ProRes 422</name>
                            <appspecificdata>
                                <appname>Final Cut Pro</appname>
                                <appmanufacturer>Apple Inc.</appmanufacturer>
                                <appversion>7.0</appversion>
                                <data>
                                    <qtcodec>
                                        <codecname>Apple ProRes 422</codecname>
                                        <codectypename>Apple ProRes 422</codectypename>
                                        <codectypecode>apcn</codectypecode>
                                        <codecvendorcode>appl</codecvendorcode>
                                        <spatialquality>1024</spatialquality>
                                        <temporalquality>0</temporalquality>
                                        <keyframerate>0</keyframerate>
                                        <datarate>0</datarate>
                                    </qtcodec>
                                </data>
                            </appspecificdata>
                        </codec>
                        <width>1912</width>
                        <height>1072</height>
                        <anamorphic>FALSE</anamorphic>
                        <pixelaspectratio>square</pixelaspectratio>
                        <fielddominance>none</fielddominance>
                        <colordepth>24</colordepth>
                    </samplecharacteristics>
                </format>
                <track TL.SQTrackShy="0" TL.SQTrackExpandedHeight="25" TL.SQTrackExpanded="0" MZ.TrackTargeted="1">
                    <clipitem id="clipitem-22">
                        <masterclipid>masterclip-8</masterclipid>
                        <name>S02E06.Hard.Boiled.Eggy.mkv</name>
                        <enabled>TRUE</enabled>
                        <duration>16991</duration>
                        <rate>
                            <timebase>24</timebase>
                            <ntsc>TRUE</ntsc>
                        </rate>
                         <start>1</start>
                        <end>27</end>
                        <in>1737</in>
                        <out>1763</out>
                        <alphatype>none</alphatype>
                        <pixelaspectratio>square</pixelaspectratio>
                        <anamorphic>FALSE</anamorphic>
                        <file id="file-8">
                            <name>S02E06.Hard.Boiled.Eggy.mkv</name>
                            <pathurl>file://localhost/F%3a/xunleiyunpan/S02E06.Hard.Boiled.Eggy.mkv</pathurl>
                            <rate>
                                <timebase>24</timebase>
                                <ntsc>TRUE</ntsc>
                            </rate>
                            <duration>16991</duration>
                            <timecode>
                                <rate>
                                    <timebase>24</timebase>
                                    <ntsc>TRUE</ntsc>
                                </rate>
                                <string>00:00:00:00</string>
                                <frame>0</frame>
                                <displayformat>NDF</displayformat>
                            </timecode>
                            <media>
                                <video>
                                    <samplecharacteristics>
                                        <rate>
                                            <timebase>24</timebase>
                                            <ntsc>TRUE</ntsc>
                                        </rate>
                                        <width>1912</width>
                                        <height>1072</height>
                                        <anamorphic>FALSE</anamorphic>
                                        <pixelaspectratio>square</pixelaspectratio>
                                        <fielddominance>none</fielddominance>
                                    </samplecharacteristics>
                                </video>
                                <audio>
                                    <samplecharacteristics>
                                        <depth>16</depth>
                                        <samplerate>48000</samplerate>
                                    </samplecharacteristics>
                                    <channelcount>2</channelcount>
                                </audio>
                            </media>
                        </file>
                        <labels>
                            <label2>Iris</label2>
                        </labels>
                    </clipitem>
                    <clipitem id="d149dc49-b6e4-4599-8246-4a7a5418aa2f" premiereChannelType="stereo">
                        <masterclipid>masterclip-8</masterclipid>
                        <name>S02E06.Hard.Boiled.Eggy.mkv</name>
                        <enabled>TRUE</enabled>
                        <duration>17716</duration>
                        <rate>
                            <timebase>24</timebase>
                            <ntsc>FALSE</ntsc>
                        </rate>
                        <start>27</start>
                        <end>38</end>
                        <in>1764</in>
                        <out>1775</out>
                        <file id="file-8"/>
                        <labels>
                            <label2>Iris</label2>
                        </labels>
                    </clipitem>
                    <clipitem id="93cd9242-042d-41dd-8fde-47631a57db76" premiereChannelType="stereo">
                        <masterclipid>masterclip-8</masterclipid>
                        <name>S02E06.Hard.Boiled.Eggy.mkv</name>
                        <enabled>TRUE</enabled>
                        <duration>17716</duration>
                        <rate>
                            <timebase>24</timebase>
                            <ntsc>FALSE</ntsc>
                        </rate>
                        <start>38</start>
                        <end>100</end>
                        <in>2108</in>
                        <out>2170</out>
                        <file id="file-8"/>
                        <labels>
                            <label2>Iris</label2>
                        </labels>
                    </clipitem>
                    <clipitem id="8d69e4c2-8028-4613-8070-58ab69eadbf2" premiereChannelType="stereo">
                        <masterclipid>masterclip-8</masterclipid>
                        <name>S02E06.Hard.Boiled.Eggy.mkv</name>
                        <enabled>TRUE</enabled>
                        <duration>17716</duration>
                        <rate>
                            <timebase>24</timebase>
                            <ntsc>FALSE</ntsc>
                        </rate>
                        <start>100</start>
                        <end>148</end>
                        <in>2140</in>
                        <out>2188</out>
                        <file id="file-8"/>
                        <labels>
                            <label2>Iris</label2>
                        </labels>
                    </clipitem>
                    <clipitem id="2ade5e74-370c-43cc-aee6-ba2a0a94ea40" premiereChannelType="stereo">
                        <masterclipid>masterclip-8</masterclipid>
                        <name>S02E06.Hard.Boiled.Eggy.mkv</name>
                        <enabled>TRUE</enabled>
                        <duration>17716</duration>
                        <rate>
                            <timebase>24</timebase>
                            <ntsc>FALSE</ntsc>
                        </rate>
                        <start>148</start>
                        <end>159</end>
                        <in>2190</in>
                        <out>2201</out>
                        <file id="file-8"/>
                        <labels>
                            <label2>Iris</label2>
                        </labels>
                    </clipitem>
                    <clipitem id="2e96f342-8a0e-40b5-a842-57fba198c85a" premiereChannelType="stereo">
                        <masterclipid>masterclip-8</masterclipid>
                        <name>S02E06.Hard.Boiled.Eggy.mkv</name>
                        <enabled>TRUE</enabled>
                        <duration>17716</duration>
                        <rate>
                            <timebase>24</timebase>
                            <ntsc>FALSE</ntsc>
                        </rate>
                        <start>159</start>
                        <end>171</end>
                        <in>2306</in>
                        <out>2318</out>
                        <file id="file-8"/>
                        <labels>
                            <label2>Iris</label2>
                        </labels>
                    </clipitem>
                    <clipitem id="6b783e9c-185c-42bf-a17c-0b464f07f6a2" premiereChannelType="stereo">
                        <masterclipid>masterclip-8</masterclipid>
                        <name>S02E06.Hard.Boiled.Eggy.mkv</name>
                        <enabled>TRUE</enabled>
                        <duration>17716</duration>
                        <rate>
                            <timebase>24</timebase>
                            <ntsc>FALSE</ntsc>
                        </rate>
                        <start>171</start>
                        <end>190</end>
                        <in>2318</in>
                        <out>2337</out>
                        <file id="file-8"/>
                        <labels>
                            <label2>Iris</label2>
                        </labels>
                    </clipitem>
                    <clipitem id="1c8a4cbf-4362-4768-998d-0ec64056057c" premiereChannelType="stereo">
                        <masterclipid>masterclip-8</masterclipid>
                        <name>S02E06.Hard.Boiled.Eggy.mkv</name>
                        <enabled>TRUE</enabled>
                        <duration>17716</duration>
                        <rate>
                            <timebase>24</timebase>
                            <ntsc>FALSE</ntsc>
                        </rate>
                        <start>190</start>
                        <end>236</end>
                        <in>2448</in>
                        <out>2494</out>
                        <file id="file-8"/>
                        <labels>
                            <label2>Iris</label2>
                        </labels>
                    </clipitem>
                    <clipitem id="5a2ad070-c4a1-419d-8866-701aa9893eb3" premiereChannelType="stereo">
                        <masterclipid>masterclip-8</masterclipid>
                        <name>S02E06.Hard.Boiled.Eggy.mkv</name>
                        <enabled>TRUE</enabled>
                        <duration>17716</duration>
                        <rate>
                            <timebase>24</timebase>
                            <ntsc>FALSE</ntsc>
                        </rate>
                        <start>236</start>
                        <end>259</end>
                        <in>2518</in>
                        <out>2541</out>
                        <file id="file-8"/>
                        <labels>
                            <label2>Iris</label2>
                        </labels>
                    </clipitem>
                    <clipitem id="a65f923a-0390-4214-9988-1a03da06cd6e" premiereChannelType="stereo">
                        <masterclipid>masterclip-8</masterclipid>
                        <name>S02E06.Hard.Boiled.Eggy.mkv</name>
                        <enabled>TRUE</enabled>
                        <duration>17716</duration>
                        <rate>
                            <timebase>24</timebase>
                            <ntsc>FALSE</ntsc>
                        </rate>
                        <start>259</start>
                        <end>285</end>
                        <in>2546</in>
                        <out>2572</out>
                        <file id="file-8"/>
                        <labels>
                            <label2>Iris</label2>
                        </labels>
                    </clipitem>
                    <clipitem id="d4e420bc-d8ae-438f-ab24-2cfed9778b59" premiereChannelType="stereo">
                        <masterclipid>masterclip-8</masterclipid>
                        <name>S02E06.Hard.Boiled.Eggy.mkv</name>
                        <enabled>TRUE</enabled>
                        <duration>17716</duration>
                        <rate>
                            <timebase>24</timebase>
                            <ntsc>FALSE</ntsc>
                        </rate>
                        <start>285</start>
                        <end>316</end>
                        <in>2584</in>
                        <out>2615</out>
                        <file id="file-8"/>
                        <labels>
                            <label2>Iris</label2>
                        </labels>
                    </clipitem>
                    <clipitem id="11812c3b-130d-41d2-a857-4bfd297f2605" premiereChannelType="stereo">
                        <masterclipid>masterclip-8</masterclipid>
                        <name>S02E06.Hard.Boiled.Eggy.mkv</name>
                        <enabled>TRUE</enabled>
                        <duration>17716</duration>
                        <rate>
                            <timebase>24</timebase>
                            <ntsc>FALSE</ntsc>
                        </rate>
                        <start>316</start>
                        <end>327</end>
                        <in>2619</in>
                        <out>2630</out>
                        <file id="file-8"/>
                        <labels>
                            <label2>Iris</label2>
                        </labels>
                    </clipitem>
                    <clipitem id="b86b456c-8070-4e18-beef-9ab8b3bf8883" premiereChannelType="stereo">
                        <masterclipid>masterclip-8</masterclipid>
                        <name>S02E06.Hard.Boiled.Eggy.mkv</name>
                        <enabled>TRUE</enabled>
                        <duration>17716</duration>
                        <rate>
                            <timebase>24</timebase>
                            <ntsc>FALSE</ntsc>
                        </rate>
                        <start>327</start>
                        <end>339</end>
                        <in>3137</in>
                        <out>3149</out>
                        <file id="file-8"/>
                        <labels>
                            <label2>Iris</label2>
                        </labels>
                    </clipitem>
                    <clipitem id="e39a3bd9-7d8f-4011-a97b-e586e93636db" premiereChannelType="stereo">
                        <masterclipid>masterclip-8</masterclipid>
                        <name>S02E06.Hard.Boiled.Eggy.mkv</name>
                        <enabled>TRUE</enabled>
                        <duration>17716</duration>
                        <rate>
                            <timebase>24</timebase>
                            <ntsc>FALSE</ntsc>
                        </rate>
                        <start>339</start>
                        <end>412</end>
                        <in>3150</in>
                        <out>3223</out>
                        <file id="file-8"/>
                        <labels>
                            <label2>Iris</label2>
                        </labels>
                    </clipitem>
                    <clipitem id="f7b9c121-d665-43d6-92de-fd662385bb63" premiereChannelType="stereo">
                        <masterclipid>masterclip-8</masterclipid>
                        <name>S02E06.Hard.Boiled.Eggy.mkv</name>
                        <enabled>TRUE</enabled>
                        <duration>17716</duration>
                        <rate>
                            <timebase>24</timebase>
                            <ntsc>FALSE</ntsc>
                        </rate>
                        <start>412</start>
                        <end>465</end>
                        <in>3226</in>
                        <out>3279</out>
                        <file id="file-8"/>
                        <labels>
                            <label2>Iris</label2>
                        </labels>
                    </clipitem>
                    <clipitem id="2e5685f7-de62-4938-91dc-0d0d941330d6" premiereChannelType="stereo">
                        <masterclipid>masterclip-8</masterclipid>
                        <name>S02E06.Hard.Boiled.Eggy.mkv</name>
                        <enabled>TRUE</enabled>
                        <duration>17716</duration>
                        <rate>
                            <timebase>24</timebase>
                            <ntsc>FALSE</ntsc>
                        </rate>
                        <start>465</start>
                        <end>521</end>
                        <in>3450</in>
                        <out>3506</out>
                        <file id="file-8"/>
                        <labels>
                            <label2>Iris</label2>
                        </labels>
                    </clipitem>
                    <clipitem id="4e7effa5-c590-44f3-8820-67929f2c1a0e" premiereChannelType="stereo">
                        <masterclipid>masterclip-8</masterclipid>
                        <name>S02E06.Hard.Boiled.Eggy.mkv</name>
                        <enabled>TRUE</enabled>
                        <duration>17716</duration>
                        <rate>
                            <timebase>24</timebase>
                            <ntsc>FALSE</ntsc>
                        </rate>
                        <start>521</start>
                        <end>544</end>
                        <in>3394</in>
                        <out>3417</out>
                        <file id="file-8"/>
                        <labels>
                            <label2>Iris</label2>
                        </labels>
                    </clipitem>
                    <clipitem id="f2d0ea77-eb16-4ee5-9b0c-96079aff4376" premiereChannelType="stereo">
                        <masterclipid>masterclip-8</masterclipid>
                        <name>S02E06.Hard.Boiled.Eggy.mkv</name>
                        <enabled>TRUE</enabled>
                        <duration>17716</duration>
                        <rate>
                            <timebase>24</timebase>
                            <ntsc>FALSE</ntsc>
                        </rate>
                        <start>544</start>
                        <end>555</end>
                        <in>3433</in>
                        <out>3444</out>
                        <file id="file-8"/>
                        <labels>
                            <label2>Iris</label2>
                        </labels>
                    </clipitem>
                    <clipitem id="ba5f0abd-5d86-49a4-b452-b88af64a402f" premiereChannelType="stereo">
                        <masterclipid>masterclip-8</masterclipid>
                        <name>S02E06.Hard.Boiled.Eggy.mkv</name>
                        <enabled>TRUE</enabled>
                        <duration>17716</duration>
                        <rate>
                            <timebase>24</timebase>
                            <ntsc>FALSE</ntsc>
                        </rate>
                        <start>555</start>
                        <end>567</end>
                        <in>3518</in>
                        <out>3530</out>
                        <file id="file-8"/>
                        <labels>
                            <label2>Iris</label2>
                        </labels>
                    </clipitem>
                    <clipitem id="cd71ec23-c871-4953-9a7b-9cd0a02ef94f" premiereChannelType="stereo">
                        <masterclipid>masterclip-8</masterclipid>
                        <name>S02E06.Hard.Boiled.Eggy.mkv</name>
                        <enabled>TRUE</enabled>
                        <duration>17716</duration>
                        <rate>
                            <timebase>24</timebase>
                            <ntsc>FALSE</ntsc>
                        </rate>
                        <start>567</start>
                        <end>578</end>
                        <in>3530</in>
                        <out>3541</out>
                        <file id="file-8"/>
                        <labels>
                            <label2>Iris</label2>
                        </labels>
                    </clipitem>
                    <clipitem id="dd93151f-f0fb-4d6d-b20a-5d37e6725741" premiereChannelType="stereo">
                        <masterclipid>masterclip-8</masterclipid>
                        <name>S02E06.Hard.Boiled.Eggy.mkv</name>
                        <enabled>TRUE</enabled>
                        <duration>17716</duration>
                        <rate>
                            <timebase>24</timebase>
                            <ntsc>FALSE</ntsc>
                        </rate>
                        <start>578</start>
                        <end>589</end>
                        <in>3542</in>
                        <out>3553</out>
                        <file id="file-8"/>
                        <labels>
                            <label2>Iris</label2>
                        </labels>
                    </clipitem>
                    <clipitem id="9104e77f-7fe0-4ca1-9c5a-854bf7d10deb" premiereChannelType="stereo">
                        <masterclipid>masterclip-8</masterclipid>
                        <name>S02E06.Hard.Boiled.Eggy.mkv</name>
                        <enabled>TRUE</enabled>
                        <duration>17716</duration>
                        <rate>
                            <timebase>24</timebase>
                            <ntsc>FALSE</ntsc>
                        </rate>
                        <start>589</start>
                        <end>600</end>
                        <in>3553</in>
                        <out>3564</out>
                        <file id="file-8"/>
                        <labels>
                            <label2>Iris</label2>
                        </labels>
                    </clipitem>
                    <clipitem id="d1c05b4c-7c6b-457a-ad91-217b3664171a" premiereChannelType="stereo">
                        <masterclipid>masterclip-8</masterclipid>
                        <name>S02E06.Hard.Boiled.Eggy.mkv</name>
                        <enabled>TRUE</enabled>
                        <duration>17716</duration>
                        <rate>
                            <timebase>24</timebase>
                            <ntsc>FALSE</ntsc>
                        </rate>
                        <start>600</start>
                        <end>623</end>
                        <in>3564</in>
                        <out>3587</out>
                        <file id="file-8"/>
                        <labels>
                            <label2>Iris</label2>
                        </labels>
                    </clipitem>
                    <clipitem id="5327dda2-2e71-4111-b51b-429b49cd3d01" premiereChannelType="stereo">
                        <masterclipid>masterclip-8</masterclipid>
                        <name>S02E06.Hard.Boiled.Eggy.mkv</name>
                        <enabled>TRUE</enabled>
                        <duration>17716</duration>
                        <rate>
                            <timebase>24</timebase>
                            <ntsc>FALSE</ntsc>
                        </rate>
                        <start>623</start>
                        <end>660</end>
                        <in>3677</in>
                        <out>3714</out>
                        <file id="file-8"/>
                        <labels>
                            <label2>Iris</label2>
                        </labels>
                    </clipitem>
                    <clipitem id="9dae2b12-7479-4613-965a-9665525cf441" premiereChannelType="stereo">
                        <masterclipid>masterclip-8</masterclipid>
                        <name>S02E06.Hard.Boiled.Eggy.mkv</name>
                        <enabled>TRUE</enabled>
                        <duration>17716</duration>
                        <rate>
                            <timebase>24</timebase>
                            <ntsc>FALSE</ntsc>
                        </rate>
                        <start>660</start>
                        <end>700</end>
                        <in>3716</in>
                        <out>3756</out>
                        <file id="file-8"/>
                        <labels>
                            <label2>Iris</label2>
                        </labels>
                    </clipitem>
                    <clipitem id="316a715b-0003-4aac-9455-0b11565eef5b" premiereChannelType="stereo">
                        <masterclipid>masterclip-8</masterclipid>
                        <name>S02E06.Hard.Boiled.Eggy.mkv</name>
                        <enabled>TRUE</enabled>
                        <duration>17716</duration>
                        <rate>
                            <timebase>24</timebase>
                            <ntsc>FALSE</ntsc>
                        </rate>
                        <start>700</start>
                        <end>711</end>
                        <in>3758</in>
                        <out>3769</out>
                        <file id="file-8"/>
                        <labels>
                            <label2>Iris</label2>
                        </labels>
                    </clipitem>
                    <clipitem id="9c5c6839-6988-4590-9129-6878042b8440" premiereChannelType="stereo">
                        <masterclipid>masterclip-8</masterclipid>
                        <name>S02E06.Hard.Boiled.Eggy.mkv</name>
                        <enabled>TRUE</enabled>
                        <duration>17716</duration>
                        <rate>
                            <timebase>24</timebase>
                            <ntsc>FALSE</ntsc>
                        </rate>
                        <start>711</start>
                        <end>832</end>
                        <in>3769</in>
                        <out>3890</out>
                        <file id="file-8"/>
                        <labels>
                            <label2>Iris</label2>
                        </labels>
                    </clipitem>
                    <clipitem id="fd46ea5f-8132-457e-a9a7-5d271447d2ee" premiereChannelType="stereo">
                        <masterclipid>masterclip-8</masterclipid>
                        <name>S02E06.Hard.Boiled.Eggy.mkv</name>
                        <enabled>TRUE</enabled>
                        <duration>17716</duration>
                        <rate>
                            <timebase>24</timebase>
                            <ntsc>FALSE</ntsc>
                        </rate>
                        <start>832</start>
                        <end>844</end>
                        <in>3900</in>
                        <out>3912</out>
                        <file id="file-8"/>
                        <labels>
                            <label2>Iris</label2>
                        </labels>
                    </clipitem>
                    <clipitem id="6e228f9a-4e5d-425c-bc69-c609916274af" premiereChannelType="stereo">
                        <masterclipid>masterclip-8</masterclipid>
                        <name>S02E06.Hard.Boiled.Eggy.mkv</name>
                        <enabled>TRUE</enabled>
                        <duration>17716</duration>
                        <rate>
                            <timebase>24</timebase>
                            <ntsc>FALSE</ntsc>
                        </rate>
                        <start>844</start>
                        <end>855</end>
                        <in>3908</in>
                        <out>3919</out>
                        <file id="file-8"/>
                        <labels>
                            <label2>Iris</label2>
                        </labels>
                    </clipitem>
                    <clipitem id="3c12d776-74a2-4b28-85e7-ada098080da7" premiereChannelType="stereo">
                        <masterclipid>masterclip-8</masterclipid>
                        <name>S02E06.Hard.Boiled.Eggy.mkv</name>
                        <enabled>TRUE</enabled>
                        <duration>17716</duration>
                        <rate>
                            <timebase>24</timebase>
                            <ntsc>FALSE</ntsc>
                        </rate>
                        <start>855</start>
                        <end>906</end>
                        <in>3919</in>
                        <out>3970</out>
                        <file id="file-8"/>
                        <labels>
                            <label2>Iris</label2>
                        </labels>
                    </clipitem>
                    <clipitem id="3df6033b-5c63-40c7-b018-44655098e922" premiereChannelType="stereo">
                        <masterclipid>masterclip-8</masterclipid>
                        <name>S02E06.Hard.Boiled.Eggy.mkv</name>
                        <enabled>TRUE</enabled>
                        <duration>17716</duration>
                        <rate>
                            <timebase>24</timebase>
                            <ntsc>FALSE</ntsc>
                        </rate>
                        <start>906</start>
                        <end>924</end>
                        <in>3974</in>
                        <out>3992</out>
                        <file id="file-8"/>
                        <labels>
                            <label2>Iris</label2>
                        </labels>
                    </clipitem>
                    <clipitem id="a6af5af6-98d0-4c7f-b7c4-ce7513042130" premiereChannelType="stereo">
                        <masterclipid>masterclip-8</masterclipid>
                        <name>S02E06.Hard.Boiled.Eggy.mkv</name>
                        <enabled>TRUE</enabled>
                        <duration>17716</duration>
                        <rate>
                            <timebase>24</timebase>
                            <ntsc>FALSE</ntsc>
                        </rate>
                        <start>924</start>
                        <end>952</end>
                        <in>4036</in>
                        <out>4064</out>
                        <file id="file-8"/>
                        <labels>
                            <label2>Iris</label2>
                        </labels>
                    </clipitem>
                    <clipitem id="e4f2ddd5-3d96-46ae-8a84-2e119606f71a" premiereChannelType="stereo">
                        <masterclipid>masterclip-8</masterclipid>
                        <name>S02E06.Hard.Boiled.Eggy.mkv</name>
                        <enabled>TRUE</enabled>
                        <duration>17716</duration>
                        <rate>
                            <timebase>24</timebase>
                            <ntsc>FALSE</ntsc>
                        </rate>
                        <start>952</start>
                        <end>987</end>
                        <in>4296</in>
                        <out>4331</out>
                        <file id="file-8"/>
                        <labels>
                            <label2>Iris</label2>
                        </labels>
                    </clipitem>
                    <clipitem id="804b4301-150d-4031-b755-da1d6558b952" premiereChannelType="stereo">
                        <masterclipid>masterclip-8</masterclipid>
                        <name>S02E06.Hard.Boiled.Eggy.mkv</name>
                        <enabled>TRUE</enabled>
                        <duration>17716</duration>
                        <rate>
                            <timebase>24</timebase>
                            <ntsc>FALSE</ntsc>
                        </rate>
                        <start>987</start>
                        <end>1025</end>
                        <in>4373</in>
                        <out>4411</out>
                        <file id="file-8"/>
                        <labels>
                            <label2>Iris</label2>
                        </labels>
                    </clipitem>
                    <clipitem id="8e5ba9ea-64c7-434a-9139-81c6d9840be8" premiereChannelType="stereo">
                        <masterclipid>masterclip-8</masterclipid>
                        <name>S02E06.Hard.Boiled.Eggy.mkv</name>
                        <enabled>TRUE</enabled>
                        <duration>17716</duration>
                        <rate>
                            <timebase>24</timebase>
                            <ntsc>FALSE</ntsc>
                        </rate>
                        <start>1025</start>
                        <end>1068</end>
                        <in>4506</in>
                        <out>4549</out>
                        <file id="file-8"/>
                        <labels>
                            <label2>Iris</label2>
                        </labels>
                    </clipitem>
                    <clipitem id="ce76fd35-d834-4105-adc8-31c8380b3c7e" premiereChannelType="stereo">
                        <masterclipid>masterclip-8</masterclipid>
                        <name>S02E06.Hard.Boiled.Eggy.mkv</name>
                        <enabled>TRUE</enabled>
                        <duration>17716</duration>
                        <rate>
                            <timebase>24</timebase>
                            <ntsc>FALSE</ntsc>
                        </rate>
                        <start>1068</start>
                        <end>1079</end>
                        <in>4556</in>
                        <out>4567</out>
                        <file id="file-8"/>
                        <labels>
                            <label2>Iris</label2>
                        </labels>
                    </clipitem>
                    <clipitem id="f4355322-33b1-4e0c-82ee-cb5fd19c954d" premiereChannelType="stereo">
                        <masterclipid>masterclip-8</masterclipid>
                        <name>S02E06.Hard.Boiled.Eggy.mkv</name>
                        <enabled>TRUE</enabled>
                        <duration>17716</duration>
                        <rate>
                            <timebase>24</timebase>
                            <ntsc>FALSE</ntsc>
                        </rate>
                        <start>1079</start>
                        <end>1108</end>
                        <in>4562</in>
                        <out>4591</out>
                        <file id="file-8"/>
                        <labels>
                            <label2>Iris</label2>
                        </labels>
                    </clipitem>
                    <clipitem id="c3621631-af0b-4f21-8cf5-2ee4a778d645" premiereChannelType="stereo">
                        <masterclipid>masterclip-8</masterclipid>
                        <name>S02E06.Hard.Boiled.Eggy.mkv</name>
                        <enabled>TRUE</enabled>
                        <duration>17716</duration>
                        <rate>
                            <timebase>24</timebase>
                            <ntsc>FALSE</ntsc>
                        </rate>
                        <start>1108</start>
                        <end>1180</end>
                        <in>4593</in>
                        <out>4665</out>
                        <file id="file-8"/>
                        <labels>
                            <label2>Iris</label2>
                        </labels>
                    </clipitem>
                    <clipitem id="0bf75b66-85ee-4550-bd65-b8449cb50034" premiereChannelType="stereo">
                        <masterclipid>masterclip-8</masterclipid>
                        <name>S02E06.Hard.Boiled.Eggy.mkv</name>
                        <enabled>TRUE</enabled>
                        <duration>17716</duration>
                        <rate>
                            <timebase>24</timebase>
                            <ntsc>FALSE</ntsc>
                        </rate>
                        <start>1180</start>
                        <end>1239</end>
                        <in>4668</in>
                        <out>4727</out>
                        <file id="file-8"/>
                        <labels>
                            <label2>Iris</label2>
                        </labels>
                    </clipitem>
                    <clipitem id="dea340d1-c486-4c9a-821b-15dd4ce6807e" premiereChannelType="stereo">
                        <masterclipid>masterclip-8</masterclipid>
                        <name>S02E06.Hard.Boiled.Eggy.mkv</name>
                        <enabled>TRUE</enabled>
                        <duration>17716</duration>
                        <rate>
                            <timebase>24</timebase>
                            <ntsc>FALSE</ntsc>
                        </rate>
                        <start>1239</start>
                        <end>1278</end>
                        <in>4731</in>
                        <out>4770</out>
                        <file id="file-8"/>
                        <labels>
                            <label2>Iris</label2>
                        </labels>
                    </clipitem>
                    <clipitem id="5958f658-a132-44e8-a347-80331956b674" premiereChannelType="stereo">
                        <masterclipid>masterclip-8</masterclipid>
                        <name>S02E06.Hard.Boiled.Eggy.mkv</name>
                        <enabled>TRUE</enabled>
                        <duration>17716</duration>
                        <rate>
                            <timebase>24</timebase>
                            <ntsc>FALSE</ntsc>
                        </rate>
                        <start>1278</start>
                        <end>1289</end>
                        <in>4772</in>
                        <out>4783</out>
                        <file id="file-8"/>
                        <labels>
                            <label2>Iris</label2>
                        </labels>
                    </clipitem>
                    <clipitem id="ad98043b-6fa3-4f42-a2f7-3e01ddcb3fc6" premiereChannelType="stereo">
                        <masterclipid>masterclip-8</masterclipid>
                        <name>S02E06.Hard.Boiled.Eggy.mkv</name>
                        <enabled>TRUE</enabled>
                        <duration>17716</duration>
                        <rate>
                            <timebase>24</timebase>
                            <ntsc>FALSE</ntsc>
                        </rate>
                        <start>1289</start>
                        <end>1319</end>
                        <in>4822</in>
                        <out>4852</out>
                        <file id="file-8"/>
                        <labels>
                            <label2>Iris</label2>
                        </labels>
                    </clipitem>
                    <clipitem id="b2cdafb0-9baf-4eac-9f10-a2e6fde6d83b" premiereChannelType="stereo">
                        <masterclipid>masterclip-8</masterclipid>
                        <name>S02E06.Hard.Boiled.Eggy.mkv</name>
                        <enabled>TRUE</enabled>
                        <duration>17716</duration>
                        <rate>
                            <timebase>24</timebase>
                            <ntsc>FALSE</ntsc>
                        </rate>
                        <start>1319</start>
                        <end>1353</end>
                        <in>4869</in>
                        <out>4903</out>
                        <file id="file-8"/>
                        <labels>
                            <label2>Iris</label2>
                        </labels>
                    </clipitem>
                    <clipitem id="56fcd761-4290-4564-9d9e-53523960ea6b" premiereChannelType="stereo">
                        <masterclipid>masterclip-8</masterclipid>
                        <name>S02E06.Hard.Boiled.Eggy.mkv</name>
                        <enabled>TRUE</enabled>
                        <duration>17716</duration>
                        <rate>
                            <timebase>24</timebase>
                            <ntsc>FALSE</ntsc>
                        </rate>
                        <start>1353</start>
                        <end>1400</end>
                        <in>4989</in>
                        <out>5036</out>
                        <file id="file-8"/>
                        <labels>
                            <label2>Iris</label2>
                        </labels>
                    </clipitem>
                    <clipitem id="16e2fc8c-ee3b-4754-abe1-246b2f07c73c" premiereChannelType="stereo">
                        <masterclipid>masterclip-8</masterclipid>
                        <name>S02E06.Hard.Boiled.Eggy.mkv</name>
                        <enabled>TRUE</enabled>
                        <duration>17716</duration>
                        <rate>
                            <timebase>24</timebase>
                            <ntsc>FALSE</ntsc>
                        </rate>
                        <start>1400</start>
                        <end>1423</end>
                        <in>5036</in>
                        <out>5059</out>
                        <file id="file-8"/>
                        <labels>
                            <label2>Iris</label2>
                        </labels>
                    </clipitem>
                    <clipitem id="3c61f1fb-63b5-46ff-918a-3888b14b15dc" premiereChannelType="stereo">
                        <masterclipid>masterclip-8</masterclipid>
                        <name>S02E06.Hard.Boiled.Eggy.mkv</name>
                        <enabled>TRUE</enabled>
                        <duration>17716</duration>
                        <rate>
                            <timebase>24</timebase>
                            <ntsc>FALSE</ntsc>
                        </rate>
                        <start>1423</start>
                        <end>1436</end>
                        <in>5062</in>
                        <out>5075</out>
                        <file id="file-8"/>
                        <labels>
                            <label2>Iris</label2>
                        </labels>
                    </clipitem>
                    <clipitem id="bcc2e5e3-2dfa-4a4e-b995-6cd38b3a4800" premiereChannelType="stereo">
                        <masterclipid>masterclip-8</masterclipid>
                        <name>S02E06.Hard.Boiled.Eggy.mkv</name>
                        <enabled>TRUE</enabled>
                        <duration>17716</duration>
                        <rate>
                            <timebase>24</timebase>
                            <ntsc>FALSE</ntsc>
                        </rate>
                        <start>1436</start>
                        <end>1458</end>
                        <in>5075</in>
                        <out>5097</out>
                        <file id="file-8"/>
                        <labels>
                            <label2>Iris</label2>
                        </labels>
                    </clipitem>
                    <clipitem id="99bd109c-3071-40ea-b5c2-fd3b7273a1e4" premiereChannelType="stereo">
                        <masterclipid>masterclip-8</masterclipid>
                        <name>S02E06.Hard.Boiled.Eggy.mkv</name>
                        <enabled>TRUE</enabled>
                        <duration>17716</duration>
                        <rate>
                            <timebase>24</timebase>
                            <ntsc>FALSE</ntsc>
                        </rate>
                        <start>1458</start>
                        <end>1492</end>
                        <in>5113</in>
                        <out>5147</out>
                        <file id="file-8"/>
                        <labels>
                            <label2>Iris</label2>
                        </labels>
                    </clipitem>
                    <clipitem id="cd3c997b-c712-4ec6-b0a5-e06489cc7735" premiereChannelType="stereo">
                        <masterclipid>masterclip-8</masterclipid>
                        <name>S02E06.Hard.Boiled.Eggy.mkv</name>
                        <enabled>TRUE</enabled>
                        <duration>17716</duration>
                        <rate>
                            <timebase>24</timebase>
                            <ntsc>FALSE</ntsc>
                        </rate>
                        <start>1492</start>
                        <end>1503</end>
                        <in>5149</in>
                        <out>5160</out>
                        <file id="file-8"/>
                        <labels>
                            <label2>Iris</label2>
                        </labels>
                    </clipitem>
                    <clipitem id="0b381b83-f55c-4cc1-a9df-d41162332fff" premiereChannelType="stereo">
                        <masterclipid>masterclip-8</masterclipid>
                        <name>S02E06.Hard.Boiled.Eggy.mkv</name>
                        <enabled>TRUE</enabled>
                        <duration>17716</duration>
                        <rate>
                            <timebase>24</timebase>
                            <ntsc>FALSE</ntsc>
                        </rate>
                        <start>1503</start>
                        <end>1538</end>
                        <in>5191</in>
                        <out>5226</out>
                        <file id="file-8"/>
                        <labels>
                            <label2>Iris</label2>
                        </labels>
                    </clipitem>
                    <clipitem id="c67821ca-9df8-4a68-8153-74e94b09745b" premiereChannelType="stereo">
                        <masterclipid>masterclip-8</masterclipid>
                        <name>S02E06.Hard.Boiled.Eggy.mkv</name>
                        <enabled>TRUE</enabled>
                        <duration>17716</duration>
                        <rate>
                            <timebase>24</timebase>
                            <ntsc>FALSE</ntsc>
                        </rate>
                        <start>1538</start>
                        <end>1588</end>
                        <in>5513</in>
                        <out>5563</out>
                        <file id="file-8"/>
                        <labels>
                            <label2>Iris</label2>
                        </labels>
                    </clipitem>
                    <clipitem id="ddd078f7-32ce-4563-8c4b-e5b4306dd3bd" premiereChannelType="stereo">
                        <masterclipid>masterclip-8</masterclipid>
                        <name>S02E06.Hard.Boiled.Eggy.mkv</name>
                        <enabled>TRUE</enabled>
                        <duration>17716</duration>
                        <rate>
                            <timebase>24</timebase>
                            <ntsc>FALSE</ntsc>
                        </rate>
                        <start>1588</start>
                        <end>1615</end>
                        <in>5248</in>
                        <out>5275</out>
                        <file id="file-8"/>
                        <labels>
                            <label2>Iris</label2>
                        </labels>
                    </clipitem>
                    <clipitem id="b4985cfc-bb7e-4e89-8ccf-4f4cc5d4a57e" premiereChannelType="stereo">
                        <masterclipid>masterclip-8</masterclipid>
                        <name>S02E06.Hard.Boiled.Eggy.mkv</name>
                        <enabled>TRUE</enabled>
                        <duration>17716</duration>
                        <rate>
                            <timebase>24</timebase>
                            <ntsc>FALSE</ntsc>
                        </rate>
                        <start>1615</start>
                        <end>1648</end>
                        <in>5574</in>
                        <out>5607</out>
                        <file id="file-8"/>
                        <labels>
                            <label2>Iris</label2>
                        </labels>
                    </clipitem>
                    <clipitem id="da53c4a5-7b02-432d-98bb-53d4505bf7e7" premiereChannelType="stereo">
                        <masterclipid>masterclip-8</masterclipid>
                        <name>S02E06.Hard.Boiled.Eggy.mkv</name>
                        <enabled>TRUE</enabled>
                        <duration>17716</duration>
                        <rate>
                            <timebase>24</timebase>
                            <ntsc>FALSE</ntsc>
                        </rate>
                        <start>1648</start>
                        <end>1659</end>
                        <in>5711</in>
                        <out>5722</out>
                        <file id="file-8"/>
                        <labels>
                            <label2>Iris</label2>
                        </labels>
                    </clipitem>
                    <clipitem id="612fbe9f-8eb6-4273-a75e-37faa37ca986" premiereChannelType="stereo">
                        <masterclipid>masterclip-8</masterclipid>
                        <name>S02E06.Hard.Boiled.Eggy.mkv</name>
                        <enabled>TRUE</enabled>
                        <duration>17716</duration>
                        <rate>
                            <timebase>24</timebase>
                            <ntsc>FALSE</ntsc>
                        </rate>
                        <start>1659</start>
                        <end>1670</end>
                        <in>5723</in>
                        <out>5734</out>
                        <file id="file-8"/>
                        <labels>
                            <label2>Iris</label2>
                        </labels>
                    </clipitem>
                    <clipitem id="64834f2c-8c1d-403c-a243-38c38cd64681" premiereChannelType="stereo">
                        <masterclipid>masterclip-8</masterclipid>
                        <name>S02E06.Hard.Boiled.Eggy.mkv</name>
                        <enabled>TRUE</enabled>
                        <duration>17716</duration>
                        <rate>
                            <timebase>24</timebase>
                            <ntsc>FALSE</ntsc>
                        </rate>
                        <start>1670</start>
                        <end>1693</end>
                        <in>5740</in>
                        <out>5763</out>
                        <file id="file-8"/>
                        <labels>
                            <label2>Iris</label2>
                        </labels>
                    </clipitem>
                    <clipitem id="4b8cdba7-5805-4c8e-ac42-e174b7bd1049" premiereChannelType="stereo">
                        <masterclipid>masterclip-8</masterclipid>
                        <name>S02E06.Hard.Boiled.Eggy.mkv</name>
                        <enabled>TRUE</enabled>
                        <duration>17716</duration>
                        <rate>
                            <timebase>24</timebase>
                            <ntsc>FALSE</ntsc>
                        </rate>
                        <start>1693</start>
                        <end>1738</end>
                        <in>5764</in>
                        <out>5809</out>
                        <file id="file-8"/>
                        <labels>
                            <label2>Iris</label2>
                        </labels>
                    </clipitem>
                    <clipitem id="9c06f316-627b-4963-ab7e-134816467dae" premiereChannelType="stereo">
                        <masterclipid>masterclip-8</masterclipid>
                        <name>S02E06.Hard.Boiled.Eggy.mkv</name>
                        <enabled>TRUE</enabled>
                        <duration>17716</duration>
                        <rate>
                            <timebase>24</timebase>
                            <ntsc>FALSE</ntsc>
                        </rate>
                        <start>1738</start>
                        <end>1821</end>
                        <in>5811</in>
                        <out>5894</out>
                        <file id="file-8"/>
                        <labels>
                            <label2>Iris</label2>
                        </labels>
                    </clipitem>
                    <clipitem id="dbfd8533-a62e-4344-9d06-8c46242094c6" premiereChannelType="stereo">
                        <masterclipid>masterclip-8</masterclipid>
                        <name>S02E06.Hard.Boiled.Eggy.mkv</name>
                        <enabled>TRUE</enabled>
                        <duration>17716</duration>
                        <rate>
                            <timebase>24</timebase>
                            <ntsc>FALSE</ntsc>
                        </rate>
                        <start>1821</start>
                        <end>1872</end>
                        <in>5897</in>
                        <out>5948</out>
                        <file id="file-8"/>
                        <labels>
                            <label2>Iris</label2>
                        </labels>
                    </clipitem>
                    <clipitem id="ede9e173-78b8-48a3-8867-b0c37ec68f1f" premiereChannelType="stereo">
                        <masterclipid>masterclip-8</masterclipid>
                        <name>S02E06.Hard.Boiled.Eggy.mkv</name>
                        <enabled>TRUE</enabled>
                        <duration>17716</duration>
                        <rate>
                            <timebase>24</timebase>
                            <ntsc>FALSE</ntsc>
                        </rate>
                        <start>1872</start>
                        <end>1900</end>
                        <in>5951</in>
                        <out>5979</out>
                        <file id="file-8"/>
                        <labels>
                            <label2>Iris</label2>
                        </labels>
                    </clipitem>
                    <clipitem id="db56a200-9288-43c2-8eda-6f3c245315b3" premiereChannelType="stereo">
                        <masterclipid>masterclip-8</masterclipid>
                        <name>S02E06.Hard.Boiled.Eggy.mkv</name>
                        <enabled>TRUE</enabled>
                        <duration>17716</duration>
                        <rate>
                            <timebase>24</timebase>
                            <ntsc>FALSE</ntsc>
                        </rate>
                        <start>1900</start>
                        <end>1947</end>
                        <in>5981</in>
                        <out>6028</out>
                        <file id="file-8"/>
                        <labels>
                            <label2>Iris</label2>
                        </labels>
                    </clipitem>
                    <clipitem id="36b1b240-ca03-412a-ad25-5f71d431f240" premiereChannelType="stereo">
                        <masterclipid>masterclip-8</masterclipid>
                        <name>S02E06.Hard.Boiled.Eggy.mkv</name>
                        <enabled>TRUE</enabled>
                        <duration>17716</duration>
                        <rate>
                            <timebase>24</timebase>
                            <ntsc>FALSE</ntsc>
                        </rate>
                        <start>1947</start>
                        <end>1985</end>
                        <in>6058</in>
                        <out>6096</out>
                        <file id="file-8"/>
                        <labels>
                            <label2>Iris</label2>
                        </labels>
                    </clipitem>
                    <clipitem id="2e9c6f74-b413-49b2-8530-5e91c771dd4a" premiereChannelType="stereo">
                        <masterclipid>masterclip-8</masterclipid>
                        <name>S02E06.Hard.Boiled.Eggy.mkv</name>
                        <enabled>TRUE</enabled>
                        <duration>17716</duration>
                        <rate>
                            <timebase>24</timebase>
                            <ntsc>FALSE</ntsc>
                        </rate>
                        <start>1985</start>
                        <end>2003</end>
                        <in>6120</in>
                        <out>6138</out>
                        <file id="file-8"/>
                        <labels>
                            <label2>Iris</label2>
                        </labels>
                    </clipitem>
                    <clipitem id="2572500d-1f07-42b5-aeb7-d8f5146233d1" premiereChannelType="stereo">
                        <masterclipid>masterclip-8</masterclipid>
                        <name>S02E06.Hard.Boiled.Eggy.mkv</name>
                        <enabled>TRUE</enabled>
                        <duration>17716</duration>
                        <rate>
                            <timebase>24</timebase>
                            <ntsc>FALSE</ntsc>
                        </rate>
                        <start>2003</start>
                        <end>2053</end>
                        <in>6139</in>
                        <out>6189</out>
                        <file id="file-8"/>
                        <labels>
                            <label2>Iris</label2>
                        </labels>
                    </clipitem>
                    <clipitem id="90e4aa6c-13b5-4a5c-9c34-0e6d7c0c0196" premiereChannelType="stereo">
                        <masterclipid>masterclip-8</masterclipid>
                        <name>S02E06.Hard.Boiled.Eggy.mkv</name>
                        <enabled>TRUE</enabled>
                        <duration>17716</duration>
                        <rate>
                            <timebase>24</timebase>
                            <ntsc>FALSE</ntsc>
                        </rate>
                        <start>2053</start>
                        <end>2070</end>
                        <in>6191</in>
                        <out>6208</out>
                        <file id="file-8"/>
                        <labels>
                            <label2>Iris</label2>
                        </labels>
                    </clipitem>
                    <clipitem id="16161e12-e986-4838-b683-9519e6a156c7" premiereChannelType="stereo">
                        <masterclipid>masterclip-8</masterclipid>
                        <name>S02E06.Hard.Boiled.Eggy.mkv</name>
                        <enabled>TRUE</enabled>
                        <duration>17716</duration>
                        <rate>
                            <timebase>24</timebase>
                            <ntsc>FALSE</ntsc>
                        </rate>
                        <start>2070</start>
                        <end>2158</end>
                        <in>6216</in>
                        <out>6304</out>
                        <file id="file-8"/>
                        <labels>
                            <label2>Iris</label2>
                        </labels>
                    </clipitem>
                    <clipitem id="adc6477b-d3d4-423b-a734-4fce1960b38c" premiereChannelType="stereo">
                        <masterclipid>masterclip-8</masterclipid>
                        <name>S02E06.Hard.Boiled.Eggy.mkv</name>
                        <enabled>TRUE</enabled>
                        <duration>17716</duration>
                        <rate>
                            <timebase>24</timebase>
                            <ntsc>FALSE</ntsc>
                        </rate>
                        <start>2158</start>
                        <end>2237</end>
                        <in>6307</in>
                        <out>6386</out>
                        <file id="file-8"/>
                        <labels>
                            <label2>Iris</label2>
                        </labels>
                    </clipitem>
                    <clipitem id="776dccdf-44c7-427b-a62a-b3591903d147" premiereChannelType="stereo">
                        <masterclipid>masterclip-8</masterclipid>
                        <name>S02E06.Hard.Boiled.Eggy.mkv</name>
                        <enabled>TRUE</enabled>
                        <duration>17716</duration>
                        <rate>
                            <timebase>24</timebase>
                            <ntsc>FALSE</ntsc>
                        </rate>
                        <start>2237</start>
                        <end>2276</end>
                        <in>6401</in>
                        <out>6440</out>
                        <file id="file-8"/>
                        <labels>
                            <label2>Iris</label2>
                        </labels>
                    </clipitem>
                    <clipitem id="d353a54a-7190-4a2d-bc25-91ab49b1b372" premiereChannelType="stereo">
                        <masterclipid>masterclip-8</masterclipid>
                        <name>S02E06.Hard.Boiled.Eggy.mkv</name>
                        <enabled>TRUE</enabled>
                        <duration>17716</duration>
                        <rate>
                            <timebase>24</timebase>
                            <ntsc>FALSE</ntsc>
                        </rate>
                        <start>2276</start>
                        <end>2329</end>
                        <in>6334</in>
                        <out>6387</out>
                        <file id="file-8"/>
                        <labels>
                            <label2>Iris</label2>
                        </labels>
                    </clipitem>
                    <clipitem id="8a3b5c29-c95c-44a9-ab7b-d2072dc9324a" premiereChannelType="stereo">
                        <masterclipid>masterclip-8</masterclipid>
                        <name>S02E06.Hard.Boiled.Eggy.mkv</name>
                        <enabled>TRUE</enabled>
                        <duration>17716</duration>
                        <rate>
                            <timebase>24</timebase>
                            <ntsc>FALSE</ntsc>
                        </rate>
                        <start>2329</start>
                        <end>2372</end>
                        <in>6413</in>
                        <out>6456</out>
                        <file id="file-8"/>
                        <labels>
                            <label2>Iris</label2>
                        </labels>
                    </clipitem>
                    <clipitem id="ba2de275-1555-40b8-8dd4-b8510f97814f" premiereChannelType="stereo">
                        <masterclipid>masterclip-8</masterclipid>
                        <name>S02E06.Hard.Boiled.Eggy.mkv</name>
                        <enabled>TRUE</enabled>
                        <duration>17716</duration>
                        <rate>
                            <timebase>24</timebase>
                            <ntsc>FALSE</ntsc>
                        </rate>
                        <start>2372</start>
                        <end>2417</end>
                        <in>6581</in>
                        <out>6626</out>
                        <file id="file-8"/>
                        <labels>
                            <label2>Iris</label2>
                        </labels>
                    </clipitem>
                    <clipitem id="a08ce1e5-5d55-46ad-8ccd-deb0367d6593" premiereChannelType="stereo">
                        <masterclipid>masterclip-8</masterclipid>
                        <name>S02E06.Hard.Boiled.Eggy.mkv</name>
                        <enabled>TRUE</enabled>
                        <duration>17716</duration>
                        <rate>
                            <timebase>24</timebase>
                            <ntsc>FALSE</ntsc>
                        </rate>
                        <start>2417</start>
                        <end>2428</end>
                        <in>6628</in>
                        <out>6639</out>
                        <file id="file-8"/>
                        <labels>
                            <label2>Iris</label2>
                        </labels>
                    </clipitem>
                    <clipitem id="7e6e56dd-4575-4a7e-8eba-0c0b36b4658b" premiereChannelType="stereo">
                        <masterclipid>masterclip-8</masterclipid>
                        <name>S02E06.Hard.Boiled.Eggy.mkv</name>
                        <enabled>TRUE</enabled>
                        <duration>17716</duration>
                        <rate>
                            <timebase>24</timebase>
                            <ntsc>FALSE</ntsc>
                        </rate>
                        <start>2428</start>
                        <end>2469</end>
                        <in>6690</in>
                        <out>6731</out>
                        <file id="file-8"/>
                        <labels>
                            <label2>Iris</label2>
                        </labels>
                    </clipitem>
                    <clipitem id="d4cefe62-1cc4-4e46-817d-ea2c4ecca3b4" premiereChannelType="stereo">
                        <masterclipid>masterclip-8</masterclipid>
                        <name>S02E06.Hard.Boiled.Eggy.mkv</name>
                        <enabled>TRUE</enabled>
                        <duration>17716</duration>
                        <rate>
                            <timebase>24</timebase>
                            <ntsc>FALSE</ntsc>
                        </rate>
                        <start>2469</start>
                        <end>2490</end>
                        <in>6920</in>
                        <out>6941</out>
                        <file id="file-8"/>
                        <labels>
                            <label2>Iris</label2>
                        </labels>
                    </clipitem>
                    <clipitem id="b910b6c7-a2f7-48c9-b6e5-be8715904138" premiereChannelType="stereo">
                        <masterclipid>masterclip-8</masterclipid>
                        <name>S02E06.Hard.Boiled.Eggy.mkv</name>
                        <enabled>TRUE</enabled>
                        <duration>17716</duration>
                        <rate>
                            <timebase>24</timebase>
                            <ntsc>FALSE</ntsc>
                        </rate>
                        <start>2490</start>
                        <end>2509</end>
                        <in>6996</in>
                        <out>7015</out>
                        <file id="file-8"/>
                        <labels>
                            <label2>Iris</label2>
                        </labels>
                    </clipitem>
                    <clipitem id="60150763-a912-45d6-9b9d-c78878fc140e" premiereChannelType="stereo">
                        <masterclipid>masterclip-8</masterclipid>
                        <name>S02E06.Hard.Boiled.Eggy.mkv</name>
                        <enabled>TRUE</enabled>
                        <duration>17716</duration>
                        <rate>
                            <timebase>24</timebase>
                            <ntsc>FALSE</ntsc>
                        </rate>
                        <start>2509</start>
                        <end>2529</end>
                        <in>7353</in>
                        <out>7373</out>
                        <file id="file-8"/>
                        <labels>
                            <label2>Iris</label2>
                        </labels>
                    </clipitem>
                    <clipitem id="2610b2ea-f91a-4984-a36d-381f933aaec2" premiereChannelType="stereo">
                        <masterclipid>masterclip-8</masterclipid>
                        <name>S02E06.Hard.Boiled.Eggy.mkv</name>
                        <enabled>TRUE</enabled>
                        <duration>17716</duration>
                        <rate>
                            <timebase>24</timebase>
                            <ntsc>FALSE</ntsc>
                        </rate>
                        <start>2529</start>
                        <end>2540</end>
                        <in>7521</in>
                        <out>7532</out>
                        <file id="file-8"/>
                        <labels>
                            <label2>Iris</label2>
                        </labels>
                    </clipitem>
                    <clipitem id="239b31ee-faf6-4e68-abed-744d07008931" premiereChannelType="stereo">
                        <masterclipid>masterclip-8</masterclipid>
                        <name>S02E06.Hard.Boiled.Eggy.mkv</name>
                        <enabled>TRUE</enabled>
                        <duration>17716</duration>
                        <rate>
                            <timebase>24</timebase>
                            <ntsc>FALSE</ntsc>
                        </rate>
                        <start>2540</start>
                        <end>2566</end>
                        <in>7532</in>
                        <out>7558</out>
                        <file id="file-8"/>
                        <labels>
                            <label2>Iris</label2>
                        </labels>
                    </clipitem>
                    <clipitem id="8ffcce22-c37a-427f-98f9-f16196fbf8a9" premiereChannelType="stereo">
                        <masterclipid>masterclip-8</masterclipid>
                        <name>S02E06.Hard.Boiled.Eggy.mkv</name>
                        <enabled>TRUE</enabled>
                        <duration>17716</duration>
                        <rate>
                            <timebase>24</timebase>
                            <ntsc>FALSE</ntsc>
                        </rate>
                        <start>2566</start>
                        <end>2627</end>
                        <in>7720</in>
                        <out>7781</out>
                        <file id="file-8"/>
                        <labels>
                            <label2>Iris</label2>
                        </labels>
                    </clipitem>
                    <clipitem id="b7697ff5-f61c-479a-b3ff-81c4de4b6117" premiereChannelType="stereo">
                        <masterclipid>masterclip-8</masterclipid>
                        <name>S02E06.Hard.Boiled.Eggy.mkv</name>
                        <enabled>TRUE</enabled>
                        <duration>17716</duration>
                        <rate>
                            <timebase>24</timebase>
                            <ntsc>FALSE</ntsc>
                        </rate>
                        <start>2627</start>
                        <end>2645</end>
                        <in>7806</in>
                        <out>7824</out>
                        <file id="file-8"/>
                        <labels>
                            <label2>Iris</label2>
                        </labels>
                    </clipitem>
                    <clipitem id="6ac4fdd4-80d8-4176-9556-c0ee19e52ad2" premiereChannelType="stereo">
                        <masterclipid>masterclip-8</masterclipid>
                        <name>S02E06.Hard.Boiled.Eggy.mkv</name>
                        <enabled>TRUE</enabled>
                        <duration>17716</duration>
                        <rate>
                            <timebase>24</timebase>
                            <ntsc>FALSE</ntsc>
                        </rate>
                        <start>2645</start>
                        <end>2673</end>
                        <in>7829</in>
                        <out>7857</out>
                        <file id="file-8"/>
                        <labels>
                            <label2>Iris</label2>
                        </labels>
                    </clipitem>
                    <clipitem id="cd9ea4a4-b0ef-40bf-b8bf-8b58a9487acc" premiereChannelType="stereo">
                        <masterclipid>masterclip-8</masterclipid>
                        <name>S02E06.Hard.Boiled.Eggy.mkv</name>
                        <enabled>TRUE</enabled>
                        <duration>17716</duration>
                        <rate>
                            <timebase>24</timebase>
                            <ntsc>FALSE</ntsc>
                        </rate>
                        <start>2673</start>
                        <end>2728</end>
                        <in>7864</in>
                        <out>7919</out>
                        <file id="file-8"/>
                        <labels>
                            <label2>Iris</label2>
                        </labels>
                    </clipitem>
                    <clipitem id="feec9af2-d2e8-4c9d-9ead-acc4ffa6648a" premiereChannelType="stereo">
                        <masterclipid>masterclip-8</masterclipid>
                        <name>S02E06.Hard.Boiled.Eggy.mkv</name>
                        <enabled>TRUE</enabled>
                        <duration>17716</duration>
                        <rate>
                            <timebase>24</timebase>
                            <ntsc>FALSE</ntsc>
                        </rate>
                        <start>2728</start>
                        <end>2747</end>
                        <in>7922</in>
                        <out>7941</out>
                        <file id="file-8"/>
                        <labels>
                            <label2>Iris</label2>
                        </labels>
                    </clipitem>
                    <clipitem id="39f37475-c81f-40c5-a284-8d00a73726e6" premiereChannelType="stereo">
                        <masterclipid>masterclip-8</masterclipid>
                        <name>S02E06.Hard.Boiled.Eggy.mkv</name>
                        <enabled>TRUE</enabled>
                        <duration>17716</duration>
                        <rate>
                            <timebase>24</timebase>
                            <ntsc>FALSE</ntsc>
                        </rate>
                        <start>2747</start>
                        <end>2790</end>
                        <in>7952</in>
                        <out>7995</out>
                        <file id="file-8"/>
                        <labels>
                            <label2>Iris</label2>
                        </labels>
                    </clipitem>
                    <clipitem id="39b6a60c-01b1-495d-b9a3-94018593649e" premiereChannelType="stereo">
                        <masterclipid>masterclip-8</masterclipid>
                        <name>S02E06.Hard.Boiled.Eggy.mkv</name>
                        <enabled>TRUE</enabled>
                        <duration>17716</duration>
                        <rate>
                            <timebase>24</timebase>
                            <ntsc>FALSE</ntsc>
                        </rate>
                        <start>2790</start>
                        <end>2807</end>
                        <in>7997</in>
                        <out>8014</out>
                        <file id="file-8"/>
                        <labels>
                            <label2>Iris</label2>
                        </labels>
                    </clipitem>
                    <clipitem id="47b323bd-0620-433d-adac-91315adc8eee" premiereChannelType="stereo">
                        <masterclipid>masterclip-8</masterclipid>
                        <name>S02E06.Hard.Boiled.Eggy.mkv</name>
                        <enabled>TRUE</enabled>
                        <duration>17716</duration>
                        <rate>
                            <timebase>24</timebase>
                            <ntsc>FALSE</ntsc>
                        </rate>
                        <start>2807</start>
                        <end>2854</end>
                        <in>8014</in>
                        <out>8061</out>
                        <file id="file-8"/>
                        <labels>
                            <label2>Iris</label2>
                        </labels>
                    </clipitem>
                    <clipitem id="3a211555-1407-4bf3-b723-aa33f6e36391" premiereChannelType="stereo">
                        <masterclipid>masterclip-8</masterclipid>
                        <name>S02E06.Hard.Boiled.Eggy.mkv</name>
                        <enabled>TRUE</enabled>
                        <duration>17716</duration>
                        <rate>
                            <timebase>24</timebase>
                            <ntsc>FALSE</ntsc>
                        </rate>
                        <start>2854</start>
                        <end>2882</end>
                        <in>8063</in>
                        <out>8091</out>
                        <file id="file-8"/>
                        <labels>
                            <label2>Iris</label2>
                        </labels>
                    </clipitem>
                    <clipitem id="d5721f88-e001-4763-bf72-3397bdfde42e" premiereChannelType="stereo">
                        <masterclipid>masterclip-8</masterclipid>
                        <name>S02E06.Hard.Boiled.Eggy.mkv</name>
                        <enabled>TRUE</enabled>
                        <duration>17716</duration>
                        <rate>
                            <timebase>24</timebase>
                            <ntsc>FALSE</ntsc>
                        </rate>
                        <start>2882</start>
                        <end>2909</end>
                        <in>8036</in>
                        <out>8063</out>
                        <file id="file-8"/>
                        <labels>
                            <label2>Iris</label2>
                        </labels>
                    </clipitem>
                    <clipitem id="5ed9debd-5e75-47c8-a573-8482ab8830a8" premiereChannelType="stereo">
                        <masterclipid>masterclip-8</masterclipid>
                        <name>S02E06.Hard.Boiled.Eggy.mkv</name>
                        <enabled>TRUE</enabled>
                        <duration>17716</duration>
                        <rate>
                            <timebase>24</timebase>
                            <ntsc>FALSE</ntsc>
                        </rate>
                        <start>2909</start>
                        <end>2921</end>
                        <in>8065</in>
                        <out>8077</out>
                        <file id="file-8"/>
                        <labels>
                            <label2>Iris</label2>
                        </labels>
                    </clipitem>
                    <clipitem id="a22036e7-4bcb-4597-ace6-eaaca73c07be" premiereChannelType="stereo">
                        <masterclipid>masterclip-8</masterclipid>
                        <name>S02E06.Hard.Boiled.Eggy.mkv</name>
                        <enabled>TRUE</enabled>
                        <duration>17716</duration>
                        <rate>
                            <timebase>24</timebase>
                            <ntsc>FALSE</ntsc>
                        </rate>
                        <start>2921</start>
                        <end>2932</end>
                        <in>8077</in>
                        <out>8088</out>
                        <file id="file-8"/>
                        <labels>
                            <label2>Iris</label2>
                        </labels>
                    </clipitem>
                    <clipitem id="91dd162d-887e-40e4-9fc5-663a4ad95fc4" premiereChannelType="stereo">
                        <masterclipid>masterclip-8</masterclipid>
                        <name>S02E06.Hard.Boiled.Eggy.mkv</name>
                        <enabled>TRUE</enabled>
                        <duration>17716</duration>
                        <rate>
                            <timebase>24</timebase>
                            <ntsc>FALSE</ntsc>
                        </rate>
                        <start>2932</start>
                        <end>2944</end>
                        <in>8173</in>
                        <out>8185</out>
                        <file id="file-8"/>
                        <labels>
                            <label2>Iris</label2>
                        </labels>
                    </clipitem>
                    <clipitem id="1025d8c2-e757-4886-9779-a6af389cada1" premiereChannelType="stereo">
                        <masterclipid>masterclip-8</masterclipid>
                        <name>S02E06.Hard.Boiled.Eggy.mkv</name>
                        <enabled>TRUE</enabled>
                        <duration>17716</duration>
                        <rate>
                            <timebase>24</timebase>
                            <ntsc>FALSE</ntsc>
                        </rate>
                        <start>2944</start>
                        <end>2955</end>
                        <in>8185</in>
                        <out>8196</out>
                        <file id="file-8"/>
                        <labels>
                            <label2>Iris</label2>
                        </labels>
                    </clipitem>
                    <clipitem id="0244fac6-cc5a-49e2-9cea-3ea957d860ff" premiereChannelType="stereo">
                        <masterclipid>masterclip-8</masterclipid>
                        <name>S02E06.Hard.Boiled.Eggy.mkv</name>
                        <enabled>TRUE</enabled>
                        <duration>17716</duration>
                        <rate>
                            <timebase>24</timebase>
                            <ntsc>FALSE</ntsc>
                        </rate>
                        <start>2955</start>
                        <end>2969</end>
                        <in>8247</in>
                        <out>8261</out>
                        <file id="file-8"/>
                        <labels>
                            <label2>Iris</label2>
                        </labels>
                    </clipitem>
                    <clipitem id="42e931df-eccc-4cc1-b1b0-1a085e1f90f8" premiereChannelType="stereo">
                        <masterclipid>masterclip-8</masterclipid>
                        <name>S02E06.Hard.Boiled.Eggy.mkv</name>
                        <enabled>TRUE</enabled>
                        <duration>17716</duration>
                        <rate>
                            <timebase>24</timebase>
                            <ntsc>FALSE</ntsc>
                        </rate>
                        <start>2969</start>
                        <end>3033</end>
                        <in>8261</in>
                        <out>8325</out>
                        <file id="file-8"/>
                        <labels>
                            <label2>Iris</label2>
                        </labels>
                    </clipitem>
                    <clipitem id="901bb086-da08-4b07-bcd2-aa6ce5d464a2" premiereChannelType="stereo">
                        <masterclipid>masterclip-8</masterclipid>
                        <name>S02E06.Hard.Boiled.Eggy.mkv</name>
                        <enabled>TRUE</enabled>
                        <duration>17716</duration>
                        <rate>
                            <timebase>24</timebase>
                            <ntsc>FALSE</ntsc>
                        </rate>
                        <start>3033</start>
                        <end>3060</end>
                        <in>8296</in>
                        <out>8323</out>
                        <file id="file-8"/>
                        <labels>
                            <label2>Iris</label2>
                        </labels>
                    </clipitem>
                    <clipitem id="4f6543e3-f86a-4690-865c-c1cb28d0ce76" premiereChannelType="stereo">
                        <masterclipid>masterclip-8</masterclipid>
                        <name>S02E06.Hard.Boiled.Eggy.mkv</name>
                        <enabled>TRUE</enabled>
                        <duration>17716</duration>
                        <rate>
                            <timebase>24</timebase>
                            <ntsc>FALSE</ntsc>
                        </rate>
                        <start>3060</start>
                        <end>3089</end>
                        <in>8799</in>
                        <out>8828</out>
                        <file id="file-8"/>
                        <labels>
                            <label2>Iris</label2>
                        </labels>
                    </clipitem>
                    <clipitem id="488166e4-7578-4e4d-ba4b-b6f11365b004" premiereChannelType="stereo">
                        <masterclipid>masterclip-8</masterclipid>
                        <name>S02E06.Hard.Boiled.Eggy.mkv</name>
                        <enabled>TRUE</enabled>
                        <duration>17716</duration>
                        <rate>
                            <timebase>24</timebase>
                            <ntsc>FALSE</ntsc>
                        </rate>
                        <start>3089</start>
                        <end>3120</end>
                        <in>8965</in>
                        <out>8996</out>
                        <file id="file-8"/>
                        <labels>
                            <label2>Iris</label2>
                        </labels>
                    </clipitem>
                    <clipitem id="cadebb50-a046-4eaa-838d-78c21a5a0ef2" premiereChannelType="stereo">
                        <masterclipid>masterclip-8</masterclipid>
                        <name>S02E06.Hard.Boiled.Eggy.mkv</name>
                        <enabled>TRUE</enabled>
                        <duration>17716</duration>
                        <rate>
                            <timebase>24</timebase>
                            <ntsc>FALSE</ntsc>
                        </rate>
                        <start>3120</start>
                        <end>3146</end>
                        <in>9015</in>
                        <out>9041</out>
                        <file id="file-8"/>
                        <labels>
                            <label2>Iris</label2>
                        </labels>
                    </clipitem>
                    <clipitem id="80d0362f-36f1-49bf-abb3-2694e8eeee8a" premiereChannelType="stereo">
                        <masterclipid>masterclip-8</masterclipid>
                        <name>S02E06.Hard.Boiled.Eggy.mkv</name>
                        <enabled>TRUE</enabled>
                        <duration>17716</duration>
                        <rate>
                            <timebase>24</timebase>
                            <ntsc>FALSE</ntsc>
                        </rate>
                        <start>3146</start>
                        <end>3183</end>
                        <in>9306</in>
                        <out>9343</out>
                        <file id="file-8"/>
                        <labels>
                            <label2>Iris</label2>
                        </labels>
                    </clipitem>
                    <clipitem id="cbda0efe-d5a3-48d5-91f4-e39f499e8dd7" premiereChannelType="stereo">
                        <masterclipid>masterclip-8</masterclipid>
                        <name>S02E06.Hard.Boiled.Eggy.mkv</name>
                        <enabled>TRUE</enabled>
                        <duration>17716</duration>
                        <rate>
                            <timebase>24</timebase>
                            <ntsc>FALSE</ntsc>
                        </rate>
                        <start>3183</start>
                        <end>3208</end>
                        <in>9459</in>
                        <out>9484</out>
                        <file id="file-8"/>
                        <labels>
                            <label2>Iris</label2>
                        </labels>
                    </clipitem>
                    <clipitem id="45f1adc7-a51b-45e0-b6c7-8003beedbd96" premiereChannelType="stereo">
                        <masterclipid>masterclip-8</masterclipid>
                        <name>S02E06.Hard.Boiled.Eggy.mkv</name>
                        <enabled>TRUE</enabled>
                        <duration>17716</duration>
                        <rate>
                            <timebase>24</timebase>
                            <ntsc>FALSE</ntsc>
                        </rate>
                        <start>3208</start>
                        <end>3220</end>
                        <in>9458</in>
                        <out>9470</out>
                        <file id="file-8"/>
                        <labels>
                            <label2>Iris</label2>
                        </labels>
                    </clipitem>
                    <clipitem id="c3f32ce9-a198-4589-9c2e-e0ea076a8f9c" premiereChannelType="stereo">
                        <masterclipid>masterclip-8</masterclipid>
                        <name>S02E06.Hard.Boiled.Eggy.mkv</name>
                        <enabled>TRUE</enabled>
                        <duration>17716</duration>
                        <rate>
                            <timebase>24</timebase>
                            <ntsc>FALSE</ntsc>
                        </rate>
                        <start>3220</start>
                        <end>3231</end>
                        <in>9498</in>
                        <out>9509</out>
                        <file id="file-8"/>
                        <labels>
                            <label2>Iris</label2>
                        </labels>
                    </clipitem>
                    <clipitem id="e2646af2-09e2-4ac9-b253-a4023a136925" premiereChannelType="stereo">
                        <masterclipid>masterclip-8</masterclipid>
                        <name>S02E06.Hard.Boiled.Eggy.mkv</name>
                        <enabled>TRUE</enabled>
                        <duration>17716</duration>
                        <rate>
                            <timebase>24</timebase>
                            <ntsc>FALSE</ntsc>
                        </rate>
                        <start>3231</start>
                        <end>3277</end>
                        <in>9509</in>
                        <out>9555</out>
                        <file id="file-8"/>
                        <labels>
                            <label2>Iris</label2>
                        </labels>
                    </clipitem>
                    <clipitem id="3a6f29fa-5c67-47e3-8b4a-a42c6299f1e1" premiereChannelType="stereo">
                        <masterclipid>masterclip-8</masterclipid>
                        <name>S02E06.Hard.Boiled.Eggy.mkv</name>
                        <enabled>TRUE</enabled>
                        <duration>17716</duration>
                        <rate>
                            <timebase>24</timebase>
                            <ntsc>FALSE</ntsc>
                        </rate>
                        <start>3277</start>
                        <end>3290</end>
                        <in>9627</in>
                        <out>9640</out>
                        <file id="file-8"/>
                        <labels>
                            <label2>Iris</label2>
                        </labels>
                    </clipitem>
                    <clipitem id="2a447a2b-6a2d-47d5-9bed-bef84426053e" premiereChannelType="stereo">
                        <masterclipid>masterclip-8</masterclipid>
                        <name>S02E06.Hard.Boiled.Eggy.mkv</name>
                        <enabled>TRUE</enabled>
                        <duration>17716</duration>
                        <rate>
                            <timebase>24</timebase>
                            <ntsc>FALSE</ntsc>
                        </rate>
                        <start>3290</start>
                        <end>3321</end>
                        <in>9640</in>
                        <out>9671</out>
                        <file id="file-8"/>
                        <labels>
                            <label2>Iris</label2>
                        </labels>
                    </clipitem>
                    <clipitem id="f81af4e7-01e4-4a67-9dd0-fa81bd720fd8" premiereChannelType="stereo">
                        <masterclipid>masterclip-8</masterclipid>
                        <name>S02E06.Hard.Boiled.Eggy.mkv</name>
                        <enabled>TRUE</enabled>
                        <duration>17716</duration>
                        <rate>
                            <timebase>24</timebase>
                            <ntsc>FALSE</ntsc>
                        </rate>
                        <start>3321</start>
                        <end>3347</end>
                        <in>9693</in>
                        <out>9719</out>
                        <file id="file-8"/>
                        <labels>
                            <label2>Iris</label2>
                        </labels>
                    </clipitem>
                    <clipitem id="49a7b9ec-68e0-45cb-8cfc-b2cfbf8b4b72" premiereChannelType="stereo">
                        <masterclipid>masterclip-8</masterclipid>
                        <name>S02E06.Hard.Boiled.Eggy.mkv</name>
                        <enabled>TRUE</enabled>
                        <duration>17716</duration>
                        <rate>
                            <timebase>24</timebase>
                            <ntsc>FALSE</ntsc>
                        </rate>
                        <start>3347</start>
                        <end>3384</end>
                        <in>9561</in>
                        <out>9598</out>
                        <file id="file-8"/>
                        <labels>
                            <label2>Iris</label2>
                        </labels>
                    </clipitem>
                    <clipitem id="3cbf7618-86eb-4e02-92ca-e95709001dfa" premiereChannelType="stereo">
                        <masterclipid>masterclip-8</masterclipid>
                        <name>S02E06.Hard.Boiled.Eggy.mkv</name>
                        <enabled>TRUE</enabled>
                        <duration>17716</duration>
                        <rate>
                            <timebase>24</timebase>
                            <ntsc>FALSE</ntsc>
                        </rate>
                        <start>3384</start>
                        <end>3445</end>
                        <in>9715</in>
                        <out>9776</out>
                        <file id="file-8"/>
                        <labels>
                            <label2>Iris</label2>
                        </labels>
                    </clipitem>
                    <clipitem id="e7a86220-a074-436d-b38f-bf300205ce1e" premiereChannelType="stereo">
                        <masterclipid>masterclip-8</masterclipid>
                        <name>S02E06.Hard.Boiled.Eggy.mkv</name>
                        <enabled>TRUE</enabled>
                        <duration>17716</duration>
                        <rate>
                            <timebase>24</timebase>
                            <ntsc>FALSE</ntsc>
                        </rate>
                        <start>3445</start>
                        <end>3479</end>
                        <in>9877</in>
                        <out>9911</out>
                        <file id="file-8"/>
                        <labels>
                            <label2>Iris</label2>
                        </labels>
                    </clipitem>
                    <clipitem id="84546b6e-7505-45ef-9396-5c23e652f182" premiereChannelType="stereo">
                        <masterclipid>masterclip-8</masterclipid>
                        <name>S02E06.Hard.Boiled.Eggy.mkv</name>
                        <enabled>TRUE</enabled>
                        <duration>17716</duration>
                        <rate>
                            <timebase>24</timebase>
                            <ntsc>FALSE</ntsc>
                        </rate>
                        <start>3479</start>
                        <end>3553</end>
                        <in>10199</in>
                        <out>10273</out>
                        <file id="file-8"/>
                        <labels>
                            <label2>Iris</label2>
                        </labels>
                    </clipitem>
                    <clipitem id="99dd4e5f-517a-4ef7-81c4-93e9e9d8dbfc" premiereChannelType="stereo">
                        <masterclipid>masterclip-8</masterclipid>
                        <name>S02E06.Hard.Boiled.Eggy.mkv</name>
                        <enabled>TRUE</enabled>
                        <duration>17716</duration>
                        <rate>
                            <timebase>24</timebase>
                            <ntsc>FALSE</ntsc>
                        </rate>
                        <start>3553</start>
                        <end>3632</end>
                        <in>10313</in>
                        <out>10392</out>
                        <file id="file-8"/>
                        <labels>
                            <label2>Iris</label2>
                        </labels>
                    </clipitem>
                    <clipitem id="d8c093d7-bde6-4608-8fd9-e6c41020a648" premiereChannelType="stereo">
                        <masterclipid>masterclip-8</masterclipid>
                        <name>S02E06.Hard.Boiled.Eggy.mkv</name>
                        <enabled>TRUE</enabled>
                        <duration>17716</duration>
                        <rate>
                            <timebase>24</timebase>
                            <ntsc>FALSE</ntsc>
                        </rate>
                        <start>3632</start>
                        <end>3687</end>
                        <in>10396</in>
                        <out>10451</out>
                        <file id="file-8"/>
                        <labels>
                            <label2>Iris</label2>
                        </labels>
                    </clipitem>
                    <clipitem id="5a89ed4d-70dd-464b-90cb-fc9ab94ed76c" premiereChannelType="stereo">
                        <masterclipid>masterclip-8</masterclipid>
                        <name>S02E06.Hard.Boiled.Eggy.mkv</name>
                        <enabled>TRUE</enabled>
                        <duration>17716</duration>
                        <rate>
                            <timebase>24</timebase>
                            <ntsc>FALSE</ntsc>
                        </rate>
                        <start>3687</start>
                        <end>3698</end>
                        <in>10664</in>
                        <out>10675</out>
                        <file id="file-8"/>
                        <labels>
                            <label2>Iris</label2>
                        </labels>
                    </clipitem>
                    <clipitem id="b4cadfa6-14de-4af8-aef2-241d00385eb4" premiereChannelType="stereo">
                        <masterclipid>masterclip-8</masterclipid>
                        <name>S02E06.Hard.Boiled.Eggy.mkv</name>
                        <enabled>TRUE</enabled>
                        <duration>17716</duration>
                        <rate>
                            <timebase>24</timebase>
                            <ntsc>FALSE</ntsc>
                        </rate>
                        <start>3698</start>
                        <end>3731</end>
                        <in>10675</in>
                        <out>10708</out>
                        <file id="file-8"/>
                        <labels>
                            <label2>Iris</label2>
                        </labels>
                    </clipitem>
                    <clipitem id="dcbdb6b9-feea-4dd2-b38a-351b02e432d4" premiereChannelType="stereo">
                        <masterclipid>masterclip-8</masterclipid>
                        <name>S02E06.Hard.Boiled.Eggy.mkv</name>
                        <enabled>TRUE</enabled>
                        <duration>17716</duration>
                        <rate>
                            <timebase>24</timebase>
                            <ntsc>FALSE</ntsc>
                        </rate>
                        <start>3731</start>
                        <end>3744</end>
                        <in>10709</in>
                        <out>10722</out>
                        <file id="file-8"/>
                        <labels>
                            <label2>Iris</label2>
                        </labels>
                    </clipitem>
                    <clipitem id="b7037c60-cede-426d-96fa-d22fdbf2650d" premiereChannelType="stereo">
                        <masterclipid>masterclip-8</masterclipid>
                        <name>S02E06.Hard.Boiled.Eggy.mkv</name>
                        <enabled>TRUE</enabled>
                        <duration>17716</duration>
                        <rate>
                            <timebase>24</timebase>
                            <ntsc>FALSE</ntsc>
                        </rate>
                        <start>3744</start>
                        <end>3768</end>
                        <in>10723</in>
                        <out>10747</out>
                        <file id="file-8"/>
                        <labels>
                            <label2>Iris</label2>
                        </labels>
                    </clipitem>
                    <clipitem id="5a63a00d-1e69-4287-8abb-3a26e18f4f64" premiereChannelType="stereo">
                        <masterclipid>masterclip-8</masterclipid>
                        <name>S02E06.Hard.Boiled.Eggy.mkv</name>
                        <enabled>TRUE</enabled>
                        <duration>17716</duration>
                        <rate>
                            <timebase>24</timebase>
                            <ntsc>FALSE</ntsc>
                        </rate>
                        <start>3768</start>
                        <end>3789</end>
                        <in>10776</in>
                        <out>10797</out>
                        <file id="file-8"/>
                        <labels>
                            <label2>Iris</label2>
                        </labels>
                    </clipitem>
                    <clipitem id="ea42196d-5a98-492f-ac9b-0c467e7f4a09" premiereChannelType="stereo">
                        <masterclipid>masterclip-8</masterclipid>
                        <name>S02E06.Hard.Boiled.Eggy.mkv</name>
                        <enabled>TRUE</enabled>
                        <duration>17716</duration>
                        <rate>
                            <timebase>24</timebase>
                            <ntsc>FALSE</ntsc>
                        </rate>
                        <start>3789</start>
                        <end>3800</end>
                        <in>10798</in>
                        <out>10809</out>
                        <file id="file-8"/>
                        <labels>
                            <label2>Iris</label2>
                        </labels>
                    </clipitem>
                    <clipitem id="9f4b69ca-d6d4-4dc9-83e0-9fb8dc4ba7f3" premiereChannelType="stereo">
                        <masterclipid>masterclip-8</masterclipid>
                        <name>S02E06.Hard.Boiled.Eggy.mkv</name>
                        <enabled>TRUE</enabled>
                        <duration>17716</duration>
                        <rate>
                            <timebase>24</timebase>
                            <ntsc>FALSE</ntsc>
                        </rate>
                        <start>3800</start>
                        <end>3842</end>
                        <in>10870</in>
                        <out>10912</out>
                        <file id="file-8"/>
                        <labels>
                            <label2>Iris</label2>
                        </labels>
                    </clipitem>
                    <clipitem id="9134681c-19b4-4d0d-8f29-cf63fcf0ddb5" premiereChannelType="stereo">
                        <masterclipid>masterclip-8</masterclipid>
                        <name>S02E06.Hard.Boiled.Eggy.mkv</name>
                        <enabled>TRUE</enabled>
                        <duration>17716</duration>
                        <rate>
                            <timebase>24</timebase>
                            <ntsc>FALSE</ntsc>
                        </rate>
                        <start>3842</start>
                        <end>3856</end>
                        <in>11058</in>
                        <out>11072</out>
                        <file id="file-8"/>
                        <labels>
                            <label2>Iris</label2>
                        </labels>
                    </clipitem>
                    <clipitem id="7f1478f9-e480-4524-9682-7ac0d67ae4c6" premiereChannelType="stereo">
                        <masterclipid>masterclip-8</masterclipid>
                        <name>S02E06.Hard.Boiled.Eggy.mkv</name>
                        <enabled>TRUE</enabled>
                        <duration>17716</duration>
                        <rate>
                            <timebase>24</timebase>
                            <ntsc>FALSE</ntsc>
                        </rate>
                        <start>3856</start>
                        <end>3867</end>
                        <in>11072</in>
                        <out>11083</out>
                        <file id="file-8"/>
                        <labels>
                            <label2>Iris</label2>
                        </labels>
                    </clipitem>
                    <clipitem id="795e5275-8dfa-44fc-94d1-d1873e890e4a" premiereChannelType="stereo">
                        <masterclipid>masterclip-8</masterclipid>
                        <name>S02E06.Hard.Boiled.Eggy.mkv</name>
                        <enabled>TRUE</enabled>
                        <duration>17716</duration>
                        <rate>
                            <timebase>24</timebase>
                            <ntsc>FALSE</ntsc>
                        </rate>
                        <start>3867</start>
                        <end>3894</end>
                        <in>11084</in>
                        <out>11111</out>
                        <file id="file-8"/>
                        <labels>
                            <label2>Iris</label2>
                        </labels>
                    </clipitem>
                    <clipitem id="de6cc7a5-35f9-4a9c-866b-899287e900e7" premiereChannelType="stereo">
                        <masterclipid>masterclip-8</masterclipid>
                        <name>S02E06.Hard.Boiled.Eggy.mkv</name>
                        <enabled>TRUE</enabled>
                        <duration>17716</duration>
                        <rate>
                            <timebase>24</timebase>
                            <ntsc>FALSE</ntsc>
                        </rate>
                        <start>3894</start>
                        <end>3908</end>
                        <in>11328</in>
                        <out>11342</out>
                        <file id="file-8"/>
                        <labels>
                            <label2>Iris</label2>
                        </labels>
                    </clipitem>
                    <clipitem id="e901eb37-91a6-4679-8536-d590e0f3f23a" premiereChannelType="stereo">
                        <masterclipid>masterclip-8</masterclipid>
                        <name>S02E06.Hard.Boiled.Eggy.mkv</name>
                        <enabled>TRUE</enabled>
                        <duration>17716</duration>
                        <rate>
                            <timebase>24</timebase>
                            <ntsc>FALSE</ntsc>
                        </rate>
                        <start>3908</start>
                        <end>3921</end>
                        <in>11345</in>
                        <out>11358</out>
                        <file id="file-8"/>
                        <labels>
                            <label2>Iris</label2>
                        </labels>
                    </clipitem>
                    <clipitem id="e97178e6-b1d0-4008-8eef-898eb8737280" premiereChannelType="stereo">
                        <masterclipid>masterclip-8</masterclipid>
                        <name>S02E06.Hard.Boiled.Eggy.mkv</name>
                        <enabled>TRUE</enabled>
                        <duration>17716</duration>
                        <rate>
                            <timebase>24</timebase>
                            <ntsc>FALSE</ntsc>
                        </rate>
                        <start>3921</start>
                        <end>3934</end>
                        <in>11458</in>
                        <out>11471</out>
                        <file id="file-8"/>
                        <labels>
                            <label2>Iris</label2>
                        </labels>
                    </clipitem>
                    <clipitem id="3e9089c1-43d1-4be7-be36-ccd59426b6de" premiereChannelType="stereo">
                        <masterclipid>masterclip-8</masterclipid>
                        <name>S02E06.Hard.Boiled.Eggy.mkv</name>
                        <enabled>TRUE</enabled>
                        <duration>17716</duration>
                        <rate>
                            <timebase>24</timebase>
                            <ntsc>FALSE</ntsc>
                        </rate>
                        <start>3934</start>
                        <end>3959</end>
                        <in>11471</in>
                        <out>11496</out>
                        <file id="file-8"/>
                        <labels>
                            <label2>Iris</label2>
                        </labels>
                    </clipitem>
                    <clipitem id="dbd09654-8bc0-4298-9116-a1aa17a69636" premiereChannelType="stereo">
                        <masterclipid>masterclip-8</masterclipid>
                        <name>S02E06.Hard.Boiled.Eggy.mkv</name>
                        <enabled>TRUE</enabled>
                        <duration>17716</duration>
                        <rate>
                            <timebase>24</timebase>
                            <ntsc>FALSE</ntsc>
                        </rate>
                        <start>3959</start>
                        <end>3973</end>
                        <in>11564</in>
                        <out>11578</out>
                        <file id="file-8"/>
                        <labels>
                            <label2>Iris</label2>
                        </labels>
                    </clipitem>
                    <clipitem id="1f5239fe-2a07-4a46-b07f-6bb1b54305e2" premiereChannelType="stereo">
                        <masterclipid>masterclip-8</masterclipid>
                        <name>S02E06.Hard.Boiled.Eggy.mkv</name>
                        <enabled>TRUE</enabled>
                        <duration>17716</duration>
                        <rate>
                            <timebase>24</timebase>
                            <ntsc>FALSE</ntsc>
                        </rate>
                        <start>3976</start>
                        <end>3996</end>
                        <in>11583</in>
                        <out>11603</out>
                        <file id="file-8"/>
                        <labels>
                            <label2>Iris</label2>
                        </labels>
                    </clipitem>
                    <clipitem id="8a73bd4c-f5d2-4d4c-a99c-2ebcca7462b8" premiereChannelType="stereo">
                        <masterclipid>masterclip-8</masterclipid>
                        <name>S02E06.Hard.Boiled.Eggy.mkv</name>
                        <enabled>TRUE</enabled>
                        <duration>17716</duration>
                        <rate>
                            <timebase>24</timebase>
                            <ntsc>FALSE</ntsc>
                        </rate>
                        <start>3996</start>
                        <end>4030</end>
                        <in>11801</in>
                        <out>11835</out>
                        <file id="file-8"/>
                        <labels>
                            <label2>Iris</label2>
                        </labels>
                    </clipitem>
                    <clipitem id="cf9e2429-b912-4561-9005-207ed8c399e9" premiereChannelType="stereo">
                        <masterclipid>masterclip-8</masterclipid>
                        <name>S02E06.Hard.Boiled.Eggy.mkv</name>
                        <enabled>TRUE</enabled>
                        <duration>17716</duration>
                        <rate>
                            <timebase>24</timebase>
                            <ntsc>FALSE</ntsc>
                        </rate>
                        <start>4030</start>
                        <end>4061</end>
                        <in>11894</in>
                        <out>11925</out>
                        <file id="file-8"/>
                        <labels>
                            <label2>Iris</label2>
                        </labels>
                    </clipitem>
                    <clipitem id="aba214f0-8d74-451f-8c59-02fdd5e2bd9d" premiereChannelType="stereo">
                        <masterclipid>masterclip-8</masterclipid>
                        <name>S02E06.Hard.Boiled.Eggy.mkv</name>
                        <enabled>TRUE</enabled>
                        <duration>17716</duration>
                        <rate>
                            <timebase>24</timebase>
                            <ntsc>FALSE</ntsc>
                        </rate>
                        <start>4061</start>
                        <end>4115</end>
                        <in>11972</in>
                        <out>12026</out>
                        <file id="file-8"/>
                        <labels>
                            <label2>Iris</label2>
                        </labels>
                    </clipitem>
                    <clipitem id="15206262-3377-4835-9caa-8149e5f00068" premiereChannelType="stereo">
                        <masterclipid>masterclip-8</masterclipid>
                        <name>S02E06.Hard.Boiled.Eggy.mkv</name>
                        <enabled>TRUE</enabled>
                        <duration>17716</duration>
                        <rate>
                            <timebase>24</timebase>
                            <ntsc>FALSE</ntsc>
                        </rate>
                        <start>4115</start>
                        <end>4141</end>
                        <in>12026</in>
                        <out>12052</out>
                        <file id="file-8"/>
                        <labels>
                            <label2>Iris</label2>
                        </labels>
                    </clipitem>
                    <clipitem id="4120135a-25aa-4257-a8ca-6ba80acf5c56" premiereChannelType="stereo">
                        <masterclipid>masterclip-8</masterclipid>
                        <name>S02E06.Hard.Boiled.Eggy.mkv</name>
                        <enabled>TRUE</enabled>
                        <duration>17716</duration>
                        <rate>
                            <timebase>24</timebase>
                            <ntsc>FALSE</ntsc>
                        </rate>
                        <start>4141</start>
                        <end>4156</end>
                        <in>12055</in>
                        <out>12070</out>
                        <file id="file-8"/>
                        <labels>
                            <label2>Iris</label2>
                        </labels>
                    </clipitem>
                    <clipitem id="5d795085-a7ee-4f92-991f-6ed2b782160e" premiereChannelType="stereo">
                        <masterclipid>masterclip-8</masterclipid>
                        <name>S02E06.Hard.Boiled.Eggy.mkv</name>
                        <enabled>TRUE</enabled>
                        <duration>17716</duration>
                        <rate>
                            <timebase>24</timebase>
                            <ntsc>FALSE</ntsc>
                        </rate>
                        <start>4156</start>
                        <end>4177</end>
                        <in>12071</in>
                        <out>12092</out>
                        <file id="file-8"/>
                        <labels>
                            <label2>Iris</label2>
                        </labels>
                    </clipitem>
                    <clipitem id="d82766aa-91ab-4a6d-b061-afcc942c4c6d" premiereChannelType="stereo">
                        <masterclipid>masterclip-8</masterclipid>
                        <name>S02E06.Hard.Boiled.Eggy.mkv</name>
                        <enabled>TRUE</enabled>
                        <duration>17716</duration>
                        <rate>
                            <timebase>24</timebase>
                            <ntsc>FALSE</ntsc>
                        </rate>
                        <start>4177</start>
                        <end>4209</end>
                        <in>12092</in>
                        <out>12124</out>
                        <file id="file-8"/>
                        <labels>
                            <label2>Iris</label2>
                        </labels>
                    </clipitem>
                    <clipitem id="365c8fcf-9659-497b-8ceb-65671086d77c" premiereChannelType="stereo">
                        <masterclipid>masterclip-8</masterclipid>
                        <name>S02E06.Hard.Boiled.Eggy.mkv</name>
                        <enabled>TRUE</enabled>
                        <duration>17716</duration>
                        <rate>
                            <timebase>24</timebase>
                            <ntsc>FALSE</ntsc>
                        </rate>
                        <start>4209</start>
                        <end>4266</end>
                        <in>12126</in>
                        <out>12183</out>
                        <file id="file-8"/>
                        <labels>
                            <label2>Iris</label2>
                        </labels>
                    </clipitem>
                    <clipitem id="3811ff8e-ff08-4aa3-90fc-f11b298dc65a" premiereChannelType="stereo">
                        <masterclipid>masterclip-8</masterclipid>
                        <name>S02E06.Hard.Boiled.Eggy.mkv</name>
                        <enabled>TRUE</enabled>
                        <duration>17716</duration>
                        <rate>
                            <timebase>24</timebase>
                            <ntsc>FALSE</ntsc>
                        </rate>
                        <start>4266</start>
                        <end>4288</end>
                        <in>12200</in>
                        <out>12222</out>
                        <file id="file-8"/>
                        <labels>
                            <label2>Iris</label2>
                        </labels>
                    </clipitem>
                    <clipitem id="186d101b-9b38-4da0-afca-b4a454b1ff7f" premiereChannelType="stereo">
                        <masterclipid>masterclip-8</masterclipid>
                        <name>S02E06.Hard.Boiled.Eggy.mkv</name>
                        <enabled>TRUE</enabled>
                        <duration>17716</duration>
                        <rate>
                            <timebase>24</timebase>
                            <ntsc>FALSE</ntsc>
                        </rate>
                        <start>4288</start>
                        <end>4299</end>
                        <in>12258</in>
                        <out>12269</out>
                        <file id="file-8"/>
                        <labels>
                            <label2>Iris</label2>
                        </labels>
                    </clipitem>
                    <clipitem id="050c7869-27bf-4c1c-b840-9af80108cb66" premiereChannelType="stereo">
                        <masterclipid>masterclip-8</masterclipid>
                        <name>S02E06.Hard.Boiled.Eggy.mkv</name>
                        <enabled>TRUE</enabled>
                        <duration>17716</duration>
                        <rate>
                            <timebase>24</timebase>
                            <ntsc>FALSE</ntsc>
                        </rate>
                        <start>4299</start>
                        <end>4310</end>
                        <in>12270</in>
                        <out>12281</out>
                        <file id="file-8"/>
                        <labels>
                            <label2>Iris</label2>
                        </labels>
                    </clipitem>
                    <clipitem id="562392a2-d257-4c08-bb4e-bc3f43d7b545" premiereChannelType="stereo">
                        <masterclipid>masterclip-8</masterclipid>
                        <name>S02E06.Hard.Boiled.Eggy.mkv</name>
                        <enabled>TRUE</enabled>
                        <duration>17716</duration>
                        <rate>
                            <timebase>24</timebase>
                            <ntsc>FALSE</ntsc>
                        </rate>
                        <start>4310</start>
                        <end>4345</end>
                        <in>12548</in>
                        <out>12583</out>
                        <file id="file-8"/>
                        <labels>
                            <label2>Iris</label2>
                        </labels>
                    </clipitem>
                    <clipitem id="8dcd76ad-e6c5-430d-b473-2926a1839e1f" premiereChannelType="stereo">
                        <masterclipid>masterclip-8</masterclipid>
                        <name>S02E06.Hard.Boiled.Eggy.mkv</name>
                        <enabled>TRUE</enabled>
                        <duration>17716</duration>
                        <rate>
                            <timebase>24</timebase>
                            <ntsc>FALSE</ntsc>
                        </rate>
                        <start>4345</start>
                        <end>4373</end>
                        <in>12742</in>
                        <out>12770</out>
                        <file id="file-8"/>
                        <labels>
                            <label2>Iris</label2>
                        </labels>
                    </clipitem>
                    <clipitem id="b89aa7eb-d743-4078-9abd-31b5f00398ce" premiereChannelType="stereo">
                        <masterclipid>masterclip-8</masterclipid>
                        <name>S02E06.Hard.Boiled.Eggy.mkv</name>
                        <enabled>TRUE</enabled>
                        <duration>17716</duration>
                        <rate>
                            <timebase>24</timebase>
                            <ntsc>FALSE</ntsc>
                        </rate>
                        <start>4373</start>
                        <end>4412</end>
                        <in>12808</in>
                        <out>12847</out>
                        <file id="file-8"/>
                        <labels>
                            <label2>Iris</label2>
                        </labels>
                    </clipitem>
                    <clipitem id="5c545311-b282-4165-a177-4d09f40b6ce1" premiereChannelType="stereo">
                        <masterclipid>masterclip-8</masterclipid>
                        <name>S02E06.Hard.Boiled.Eggy.mkv</name>
                        <enabled>TRUE</enabled>
                        <duration>17716</duration>
                        <rate>
                            <timebase>24</timebase>
                            <ntsc>FALSE</ntsc>
                        </rate>
                        <start>4412</start>
                        <end>4445</end>
                        <in>13033</in>
                        <out>13066</out>
                        <file id="file-8"/>
                        <labels>
                            <label2>Iris</label2>
                        </labels>
                    </clipitem>
                    <clipitem id="5d0d83a7-daf7-4a3c-ad1a-1dad808bf958" premiereChannelType="stereo">
                        <masterclipid>masterclip-8</masterclipid>
                        <name>S02E06.Hard.Boiled.Eggy.mkv</name>
                        <enabled>TRUE</enabled>
                        <duration>17716</duration>
                        <rate>
                            <timebase>24</timebase>
                            <ntsc>FALSE</ntsc>
                        </rate>
                        <start>4445</start>
                        <end>4460</end>
                        <in>13068</in>
                        <out>13083</out>
                        <file id="file-8"/>
                        <labels>
                            <label2>Iris</label2>
                        </labels>
                    </clipitem>
                    <clipitem id="a2652929-777a-4123-a1a9-ca45d04346bd" premiereChannelType="stereo">
                        <masterclipid>masterclip-8</masterclipid>
                        <name>S02E06.Hard.Boiled.Eggy.mkv</name>
                        <enabled>TRUE</enabled>
                        <duration>17716</duration>
                        <rate>
                            <timebase>24</timebase>
                            <ntsc>FALSE</ntsc>
                        </rate>
                        <start>4460</start>
                        <end>4493</end>
                        <in>13193</in>
                        <out>13226</out>
                        <file id="file-8"/>
                        <labels>
                            <label2>Iris</label2>
                        </labels>
                    </clipitem>
                    <clipitem id="0a934319-0c3b-404f-aa73-f154aaae94c8" premiereChannelType="stereo">
                        <masterclipid>masterclip-8</masterclipid>
                        <name>S02E06.Hard.Boiled.Eggy.mkv</name>
                        <enabled>TRUE</enabled>
                        <duration>17716</duration>
                        <rate>
                            <timebase>24</timebase>
                            <ntsc>FALSE</ntsc>
                        </rate>
                        <start>4493</start>
                        <end>4504</end>
                        <in>13424</in>
                        <out>13435</out>
                        <file id="file-8"/>
                        <labels>
                            <label2>Iris</label2>
                        </labels>
                    </clipitem>
                    <clipitem id="ca5b9162-dbb6-4d88-863b-3a405ff637b9" premiereChannelType="stereo">
                        <masterclipid>masterclip-8</masterclipid>
                        <name>S02E06.Hard.Boiled.Eggy.mkv</name>
                        <enabled>TRUE</enabled>
                        <duration>17716</duration>
                        <rate>
                            <timebase>24</timebase>
                            <ntsc>FALSE</ntsc>
                        </rate>
                        <start>4504</start>
                        <end>4515</end>
                        <in>13435</in>
                        <out>13446</out>
                        <file id="file-8"/>
                        <labels>
                            <label2>Iris</label2>
                        </labels>
                    </clipitem>
                    <clipitem id="642548a1-cc13-4258-bfc6-d06f81464270" premiereChannelType="stereo">
                        <masterclipid>masterclip-8</masterclipid>
                        <name>S02E06.Hard.Boiled.Eggy.mkv</name>
                        <enabled>TRUE</enabled>
                        <duration>17716</duration>
                        <rate>
                            <timebase>24</timebase>
                            <ntsc>FALSE</ntsc>
                        </rate>
                        <start>4515</start>
                        <end>4535</end>
                        <in>13447</in>
                        <out>13467</out>
                        <file id="file-8"/>
                        <labels>
                            <label2>Iris</label2>
                        </labels>
                    </clipitem>
                    <clipitem id="a7280f89-b654-45cd-b2c2-2411658ef70e" premiereChannelType="stereo">
                        <masterclipid>masterclip-8</masterclipid>
                        <name>S02E06.Hard.Boiled.Eggy.mkv</name>
                        <enabled>TRUE</enabled>
                        <duration>17716</duration>
                        <rate>
                            <timebase>24</timebase>
                            <ntsc>FALSE</ntsc>
                        </rate>
                        <start>4535</start>
                        <end>4555</end>
                        <in>13467</in>
                        <out>13487</out>
                        <file id="file-8"/>
                        <labels>
                            <label2>Iris</label2>
                        </labels>
                    </clipitem>
                    <clipitem id="f54d2f06-1950-4822-8540-0f7bd3cfb58a" premiereChannelType="stereo">
                        <masterclipid>masterclip-8</masterclipid>
                        <name>S02E06.Hard.Boiled.Eggy.mkv</name>
                        <enabled>TRUE</enabled>
                        <duration>17716</duration>
                        <rate>
                            <timebase>24</timebase>
                            <ntsc>FALSE</ntsc>
                        </rate>
                        <start>4555</start>
                        <end>4576</end>
                        <in>13789</in>
                        <out>13810</out>
                        <file id="file-8"/>
                        <labels>
                            <label2>Iris</label2>
                        </labels>
                    </clipitem>
                    <clipitem id="fde7eab0-b6b7-4aa6-86bf-302864522b9b" premiereChannelType="stereo">
                        <masterclipid>masterclip-8</masterclipid>
                        <name>S02E06.Hard.Boiled.Eggy.mkv</name>
                        <enabled>TRUE</enabled>
                        <duration>17716</duration>
                        <rate>
                            <timebase>24</timebase>
                            <ntsc>FALSE</ntsc>
                        </rate>
                        <start>4576</start>
                        <end>4589</end>
                        <in>13811</in>
                        <out>13824</out>
                        <file id="file-8"/>
                        <labels>
                            <label2>Iris</label2>
                        </labels>
                    </clipitem>
                    <clipitem id="a202323d-19a7-4e4e-a428-f86c0fb7cf53" premiereChannelType="stereo">
                        <masterclipid>masterclip-8</masterclipid>
                        <name>S02E06.Hard.Boiled.Eggy.mkv</name>
                        <enabled>TRUE</enabled>
                        <duration>17716</duration>
                        <rate>
                            <timebase>24</timebase>
                            <ntsc>FALSE</ntsc>
                        </rate>
                        <start>4589</start>
                        <end>4684</end>
                        <in>13949</in>
                        <out>14044</out>
                        <file id="file-8"/>
                        <labels>
                            <label2>Iris</label2>
                        </labels>
                    </clipitem>
                    <clipitem id="d995ace4-58b9-4580-906f-83374fdab0d4" premiereChannelType="stereo">
                        <masterclipid>masterclip-8</masterclipid>
                        <name>S02E06.Hard.Boiled.Eggy.mkv</name>
                        <enabled>TRUE</enabled>
                        <duration>17716</duration>
                        <rate>
                            <timebase>24</timebase>
                            <ntsc>FALSE</ntsc>
                        </rate>
                        <start>4684</start>
                        <end>4699</end>
                        <in>14051</in>
                        <out>14066</out>
                        <file id="file-8"/>
                        <labels>
                            <label2>Iris</label2>
                        </labels>
                    </clipitem>
                    <clipitem id="e5dd3596-edf5-4532-bd4c-7226e3ed3080" premiereChannelType="stereo">
                        <masterclipid>masterclip-8</masterclipid>
                        <name>S02E06.Hard.Boiled.Eggy.mkv</name>
                        <enabled>TRUE</enabled>
                        <duration>17716</duration>
                        <rate>
                            <timebase>24</timebase>
                            <ntsc>FALSE</ntsc>
                        </rate>
                        <start>4699</start>
                        <end>4749</end>
                        <in>14066</in>
                        <out>14116</out>
                        <file id="file-8"/>
                        <labels>
                            <label2>Iris</label2>
                        </labels>
                    </clipitem>
                    <clipitem id="f8fe7340-2894-4491-bca7-933df16ecbd8" premiereChannelType="stereo">
                        <masterclipid>masterclip-8</masterclipid>
                        <name>S02E06.Hard.Boiled.Eggy.mkv</name>
                        <enabled>TRUE</enabled>
                        <duration>17716</duration>
                        <rate>
                            <timebase>24</timebase>
                            <ntsc>FALSE</ntsc>
                        </rate>
                        <start>4749</start>
                        <end>4781</end>
                        <in>14118</in>
                        <out>14150</out>
                        <file id="file-8"/>
                        <labels>
                            <label2>Iris</label2>
                        </labels>
                    </clipitem>
                    <clipitem id="c0cecccb-37e1-447d-84cc-6c4b3c4b95fa" premiereChannelType="stereo">
                        <masterclipid>masterclip-8</masterclipid>
                        <name>S02E06.Hard.Boiled.Eggy.mkv</name>
                        <enabled>TRUE</enabled>
                        <duration>17716</duration>
                        <rate>
                            <timebase>24</timebase>
                            <ntsc>FALSE</ntsc>
                        </rate>
                        <start>4781</start>
                        <end>4796</end>
                        <in>14152</in>
                        <out>14167</out>
                        <file id="file-8"/>
                        <labels>
                            <label2>Iris</label2>
                        </labels>
                    </clipitem>
                    <clipitem id="743547e9-d41b-4664-b013-fa7d1325dfec" premiereChannelType="stereo">
                        <masterclipid>masterclip-8</masterclipid>
                        <name>S02E06.Hard.Boiled.Eggy.mkv</name>
                        <enabled>TRUE</enabled>
                        <duration>17716</duration>
                        <rate>
                            <timebase>24</timebase>
                            <ntsc>FALSE</ntsc>
                        </rate>
                        <start>4796</start>
                        <end>4829</end>
                        <in>14186</in>
                        <out>14219</out>
                        <file id="file-8"/>
                        <labels>
                            <label2>Iris</label2>
                        </labels>
                    </clipitem>
                    <clipitem id="d1f94c05-c10f-4707-87de-35a0eba9f17b" premiereChannelType="stereo">
                        <masterclipid>masterclip-8</masterclipid>
                        <name>S02E06.Hard.Boiled.Eggy.mkv</name>
                        <enabled>TRUE</enabled>
                        <duration>17716</duration>
                        <rate>
                            <timebase>24</timebase>
                            <ntsc>FALSE</ntsc>
                        </rate>
                        <start>4829</start>
                        <end>4848</end>
                        <in>14278</in>
                        <out>14297</out>
                        <file id="file-8"/>
                        <labels>
                            <label2>Iris</label2>
                        </labels>
                    </clipitem>
                    <clipitem id="e3476be9-ac1a-4a3e-a6d5-0f97d33f60da" premiereChannelType="stereo">
                        <masterclipid>masterclip-8</masterclipid>
                        <name>S02E06.Hard.Boiled.Eggy.mkv</name>
                        <enabled>TRUE</enabled>
                        <duration>17716</duration>
                        <rate>
                            <timebase>24</timebase>
                            <ntsc>FALSE</ntsc>
                        </rate>
                        <start>4848</start>
                        <end>4878</end>
                        <in>14297</in>
                        <out>14327</out>
                        <file id="file-8"/>
                        <labels>
                            <label2>Iris</label2>
                        </labels>
                    </clipitem>
                    <clipitem id="9cf71887-526d-49a5-94e3-4533edf4a472" premiereChannelType="stereo">
                        <masterclipid>masterclip-8</masterclipid>
                        <name>S02E06.Hard.Boiled.Eggy.mkv</name>
                        <enabled>TRUE</enabled>
                        <duration>17716</duration>
                        <rate>
                            <timebase>24</timebase>
                            <ntsc>FALSE</ntsc>
                        </rate>
                        <start>4878</start>
                        <end>4896</end>
                        <in>14329</in>
                        <out>14347</out>
                        <file id="file-8"/>
                        <labels>
                            <label2>Iris</label2>
                        </labels>
                    </clipitem>
                    <clipitem id="e9356fb7-a460-448c-8dec-35ddc6446b23" premiereChannelType="stereo">
                        <masterclipid>masterclip-8</masterclipid>
                        <name>S02E06.Hard.Boiled.Eggy.mkv</name>
                        <enabled>TRUE</enabled>
                        <duration>17716</duration>
                        <rate>
                            <timebase>24</timebase>
                            <ntsc>FALSE</ntsc>
                        </rate>
                        <start>4896</start>
                        <end>4908</end>
                        <in>14363</in>
                        <out>14375</out>
                        <file id="file-8"/>
                        <labels>
                            <label2>Iris</label2>
                        </labels>
                    </clipitem>
                    <clipitem id="7ec8bd8f-59d0-4764-85e5-996ecab471d1" premiereChannelType="stereo">
                        <masterclipid>masterclip-8</masterclipid>
                        <name>S02E06.Hard.Boiled.Eggy.mkv</name>
                        <enabled>TRUE</enabled>
                        <duration>17716</duration>
                        <rate>
                            <timebase>24</timebase>
                            <ntsc>FALSE</ntsc>
                        </rate>
                        <start>4908</start>
                        <end>4929</end>
                        <in>14376</in>
                        <out>14397</out>
                        <file id="file-8"/>
                        <labels>
                            <label2>Iris</label2>
                        </labels>
                    </clipitem>
                    <clipitem id="c27d045c-e323-4f20-93b0-acd84e70df68" premiereChannelType="stereo">
                        <masterclipid>masterclip-8</masterclipid>
                        <name>S02E06.Hard.Boiled.Eggy.mkv</name>
                        <enabled>TRUE</enabled>
                        <duration>17716</duration>
                        <rate>
                            <timebase>24</timebase>
                            <ntsc>FALSE</ntsc>
                        </rate>
                        <start>4929</start>
                        <end>4944</end>
                        <in>14752</in>
                        <out>14767</out>
                        <file id="file-8"/>
                        <labels>
                            <label2>Iris</label2>
                        </labels>
                    </clipitem>
                    <clipitem id="859a3aa5-a53a-47c8-a4d5-5abac9998346" premiereChannelType="stereo">
                        <masterclipid>masterclip-8</masterclipid>
                        <name>S02E06.Hard.Boiled.Eggy.mkv</name>
                        <enabled>TRUE</enabled>
                        <duration>17716</duration>
                        <rate>
                            <timebase>24</timebase>
                            <ntsc>FALSE</ntsc>
                        </rate>
                        <start>4944</start>
                        <end>4969</end>
                        <in>14767</in>
                        <out>14792</out>
                        <file id="file-8"/>
                        <labels>
                            <label2>Iris</label2>
                        </labels>
                    </clipitem>
                    <clipitem id="75ae224e-2803-47c8-8664-81747bcba887" premiereChannelType="stereo">
                        <masterclipid>masterclip-8</masterclipid>
                        <name>S02E06.Hard.Boiled.Eggy.mkv</name>
                        <enabled>TRUE</enabled>
                        <duration>17716</duration>
                        <rate>
                            <timebase>24</timebase>
                            <ntsc>FALSE</ntsc>
                        </rate>
                        <start>4969</start>
                        <end>5034</end>
                        <in>14820</in>
                        <out>14885</out>
                        <file id="file-8"/>
                        <labels>
                            <label2>Iris</label2>
                        </labels>
                    </clipitem>
                    <clipitem id="9567df30-6ec9-4362-b5bb-2d9dfa00dde0" premiereChannelType="stereo">
                        <masterclipid>masterclip-8</masterclipid>
                        <name>S02E06.Hard.Boiled.Eggy.mkv</name>
                        <enabled>TRUE</enabled>
                        <duration>17716</duration>
                        <rate>
                            <timebase>24</timebase>
                            <ntsc>FALSE</ntsc>
                        </rate>
                        <start>5034</start>
                        <end>5093</end>
                        <in>14887</in>
                        <out>14946</out>
                        <file id="file-8"/>
                        <labels>
                            <label2>Iris</label2>
                        </labels>
                    </clipitem>
                    <clipitem id="64be4399-4714-4460-87ee-3d44bfb8a0f1" premiereChannelType="stereo">
                        <masterclipid>masterclip-8</masterclipid>
                        <name>S02E06.Hard.Boiled.Eggy.mkv</name>
                        <enabled>TRUE</enabled>
                        <duration>17716</duration>
                        <rate>
                            <timebase>24</timebase>
                            <ntsc>FALSE</ntsc>
                        </rate>
                        <start>5093</start>
                        <end>5175</end>
                        <in>14949</in>
                        <out>15031</out>
                        <file id="file-8"/>
                        <labels>
                            <label2>Iris</label2>
                        </labels>
                    </clipitem>
                    <clipitem id="5c9b00b2-3309-44a0-bf00-fc6252b25a18" premiereChannelType="stereo">
                        <masterclipid>masterclip-8</masterclipid>
                        <name>S02E06.Hard.Boiled.Eggy.mkv</name>
                        <enabled>TRUE</enabled>
                        <duration>17716</duration>
                        <rate>
                            <timebase>24</timebase>
                            <ntsc>FALSE</ntsc>
                        </rate>
                        <start>5175</start>
                        <end>5187</end>
                        <in>15035</in>
                        <out>15047</out>
                        <file id="file-8"/>
                        <labels>
                            <label2>Iris</label2>
                        </labels>
                    </clipitem>
                    <clipitem id="1874d656-75f9-4f3d-83c3-1446a17cad08" premiereChannelType="stereo">
                        <masterclipid>masterclip-8</masterclipid>
                        <name>S02E06.Hard.Boiled.Eggy.mkv</name>
                        <enabled>TRUE</enabled>
                        <duration>17716</duration>
                        <rate>
                            <timebase>24</timebase>
                            <ntsc>FALSE</ntsc>
                        </rate>
                        <start>5187</start>
                        <end>5202</end>
                        <in>15046</in>
                        <out>15061</out>
                        <file id="file-8"/>
                        <labels>
                            <label2>Iris</label2>
                        </labels>
                    </clipitem>
                    <clipitem id="1f2a53ce-000b-4f48-b532-d88382a26fe0" premiereChannelType="stereo">
                        <masterclipid>masterclip-8</masterclipid>
                        <name>S02E06.Hard.Boiled.Eggy.mkv</name>
                        <enabled>TRUE</enabled>
                        <duration>17716</duration>
                        <rate>
                            <timebase>24</timebase>
                            <ntsc>FALSE</ntsc>
                        </rate>
                        <start>5202</start>
                        <end>5216</end>
                        <in>15068</in>
                        <out>15082</out>
                        <file id="file-8"/>
                        <labels>
                            <label2>Iris</label2>
                        </labels>
                    </clipitem>
                    <clipitem id="c4369d35-8c68-40af-a0fb-6b1afcdb46c9" premiereChannelType="stereo">
                        <masterclipid>masterclip-8</masterclipid>
                        <name>S02E06.Hard.Boiled.Eggy.mkv</name>
                        <enabled>TRUE</enabled>
                        <duration>17716</duration>
                        <rate>
                            <timebase>24</timebase>
                            <ntsc>FALSE</ntsc>
                        </rate>
                        <start>5216</start>
                        <end>5250</end>
                        <in>15300</in>
                        <out>15334</out>
                        <file id="file-8"/>
                        <labels>
                            <label2>Iris</label2>
                        </labels>
                    </clipitem>
                    <clipitem id="f5142416-fae2-4a6f-a95b-bb767925e8b3" premiereChannelType="stereo">
                        <masterclipid>masterclip-8</masterclipid>
                        <name>S02E06.Hard.Boiled.Eggy.mkv</name>
                        <enabled>TRUE</enabled>
                        <duration>17716</duration>
                        <rate>
                            <timebase>24</timebase>
                            <ntsc>FALSE</ntsc>
                        </rate>
                        <start>5250</start>
                        <end>5288</end>
                        <in>15518</in>
                        <out>15556</out>
                        <file id="file-8"/>
                        <labels>
                            <label2>Iris</label2>
                        </labels>
                    </clipitem>
                    <clipitem id="f7c9ebde-db93-4445-a248-6b1903c72cce" premiereChannelType="stereo">
                        <masterclipid>masterclip-8</masterclipid>
                        <name>S02E06.Hard.Boiled.Eggy.mkv</name>
                        <enabled>TRUE</enabled>
                        <duration>17716</duration>
                        <rate>
                            <timebase>24</timebase>
                            <ntsc>FALSE</ntsc>
                        </rate>
                        <start>5288</start>
                        <end>5360</end>
                        <in>15558</in>
                        <out>15630</out>
                        <file id="file-8"/>
                        <labels>
                            <label2>Iris</label2>
                        </labels>
                    </clipitem>
                    <clipitem id="8d670a53-adec-4725-a230-19f8b2e7d344" premiereChannelType="stereo">
                        <masterclipid>masterclip-8</masterclipid>
                        <name>S02E06.Hard.Boiled.Eggy.mkv</name>
                        <enabled>TRUE</enabled>
                        <duration>17716</duration>
                        <rate>
                            <timebase>24</timebase>
                            <ntsc>FALSE</ntsc>
                        </rate>
                        <start>5360</start>
                        <end>5371</end>
                        <in>15633</in>
                        <out>15644</out>
                        <file id="file-8"/>
                        <labels>
                            <label2>Iris</label2>
                        </labels>
                    </clipitem>
                    <clipitem id="6f25ece5-95e8-4169-b2ab-a4d37522143b" premiereChannelType="stereo">
                        <masterclipid>masterclip-8</masterclipid>
                        <name>S02E06.Hard.Boiled.Eggy.mkv</name>
                        <enabled>TRUE</enabled>
                        <duration>17716</duration>
                        <rate>
                            <timebase>24</timebase>
                            <ntsc>FALSE</ntsc>
                        </rate>
                        <start>5371</start>
                        <end>5410</end>
                        <in>15644</in>
                        <out>15683</out>
                        <file id="file-8"/>
                        <labels>
                            <label2>Iris</label2>
                        </labels>
                    </clipitem>


                    <enabled>TRUE</enabled>
                    <locked>FALSE</locked>
                </track>
                <track TL.SQTrackShy="0" TL.SQTrackExpandedHeight="25" TL.SQTrackExpanded="0" MZ.TrackTargeted="0">
                    <enabled>TRUE</enabled>
                    <locked>FALSE</locked>
                </track>
                <track TL.SQTrackShy="0" TL.SQTrackExpandedHeight="25" TL.SQTrackExpanded="0" MZ.TrackTargeted="0">
                    <enabled>TRUE</enabled>
                    <locked>FALSE</locked>
                </track>
            </video>
            <audio>
                <numOutputChannels>2</numOutputChannels>
                <format>
                    <samplecharacteristics>
                        <depth>16</depth>
                        <samplerate>48000</samplerate>
                    </samplecharacteristics>
                </format>
                <outputs>
                    <group>
                        <index>1</index>
                        <numchannels>1</numchannels>
                        <downmix>0</downmix>
                        <channel>
                            <index>1</index>
                        </channel>
                    </group>
                    <group>
                        <index>2</index>
                        <numchannels>1</numchannels>
                        <downmix>0</downmix>
                        <channel>
                            <index>2</index>
                        </channel>
                    </group>
                </outputs>
                <track TL.SQTrackAudioKeyframeStyle="0" TL.SQTrackShy="0" TL.SQTrackExpandedHeight="25"
                       TL.SQTrackExpanded="0" MZ.TrackTargeted="1" PannerCurrentValue="0.5" PannerIsInverted="true"
                       PannerStartKeyframe="-91445760000000000,0.5,0,0,0,0,0,0" PannerName="平衡"
                       currentExplodedTrackIndex="0" totalExplodedTrackCount="2" premiereTrackType="Stereo">
                    <clipitem id="clipitem-23" premiereChannelType="stereo">
                        <masterclipid>masterclip-8</masterclipid>
                        <name>S02E06.Hard.Boiled.Eggy.mkv</name>
                        <enabled>TRUE</enabled>
                        <duration>16991</duration>
                        <rate>
                            <timebase>24</timebase>
                            <ntsc>TRUE</ntsc>
                        </rate>
                        <start>0</start>
                        <end>16991</end>
                        <in>0</in>
                        <out>16991</out>
                        <pproTicksIn>0</pproTicksIn>
                        <pproTicksOut>180012576744000</pproTicksOut>
                        <file id="file-8"/>
                        <sourcetrack>
                            <mediatype>audio</mediatype>
                            <trackindex>1</trackindex>
                        </sourcetrack>
                        <link>
                            <linkclipref>clipitem-22</linkclipref>
                            <mediatype>video</mediatype>
                            <trackindex>1</trackindex>
                            <clipindex>1</clipindex>
                        </link>
                        <link>
                            <linkclipref>clipitem-23</linkclipref>
                            <mediatype>audio</mediatype>
                            <trackindex>1</trackindex>
                            <clipindex>1</clipindex>
                            <groupindex>1</groupindex>
                        </link>
                        <link>
                            <linkclipref>clipitem-24</linkclipref>
                            <mediatype>audio</mediatype>
                            <trackindex>2</trackindex>
                            <clipindex>1</clipindex>
                            <groupindex>1</groupindex>
                        </link>
                        <logginginfo>
                            <description></description>
                            <scene></scene>
                            <shottake></shottake>
                            <lognote></lognote>
                            <good></good>
                            <originalvideofilename></originalvideofilename>
                            <originalaudiofilename></originalaudiofilename>
                        </logginginfo>
                        <colorinfo>
                            <lut></lut>
                            <lut1></lut1>
                            <asc_sop></asc_sop>
                            <asc_sat></asc_sat>
                            <lut2></lut2>
                        </colorinfo>
                        <labels>
                            <label2>Iris</label2>
                        </labels>
                    </clipitem>
                    <enabled>TRUE</enabled>
                    <locked>FALSE</locked>
                    <outputchannelindex>1</outputchannelindex>
                </track>
                <track TL.SQTrackAudioKeyframeStyle="0" TL.SQTrackShy="0" TL.SQTrackExpandedHeight="25"
                       TL.SQTrackExpanded="0" MZ.TrackTargeted="1" PannerCurrentValue="0.5" PannerIsInverted="true"
                       PannerStartKeyframe="-91445760000000000,0.5,0,0,0,0,0,0" PannerName="平衡"
                       currentExplodedTrackIndex="1" totalExplodedTrackCount="2" premiereTrackType="Stereo">
                    <clipitem id="clipitem-24" premiereChannelType="stereo">
                        <masterclipid>masterclip-8</masterclipid>
                        <name>S02E06.Hard.Boiled.Eggy.mkv</name>
                        <enabled>TRUE</enabled>
                        <duration>16991</duration>
                        <rate>
                            <timebase>24</timebase>
                            <ntsc>TRUE</ntsc>
                        </rate>
                        <start>0</start>
                        <end>16991</end>
                        <in>0</in>
                        <out>16991</out>
                        <pproTicksIn>0</pproTicksIn>
                        <pproTicksOut>180012576744000</pproTicksOut>
                        <file id="file-8"/>
                        <sourcetrack>
                            <mediatype>audio</mediatype>
                            <trackindex>2</trackindex>
                        </sourcetrack>
                        <link>
                            <linkclipref>clipitem-22</linkclipref>
                            <mediatype>video</mediatype>
                            <trackindex>1</trackindex>
                            <clipindex>1</clipindex>
                        </link>
                        <link>
                            <linkclipref>clipitem-23</linkclipref>
                            <mediatype>audio</mediatype>
                            <trackindex>1</trackindex>
                            <clipindex>1</clipindex>
                            <groupindex>1</groupindex>
                        </link>
                        <link>
                            <linkclipref>clipitem-24</linkclipref>
                            <mediatype>audio</mediatype>
                            <trackindex>2</trackindex>
                            <clipindex>1</clipindex>
                            <groupindex>1</groupindex>
                        </link>
                        <logginginfo>
                            <description></description>
                            <scene></scene>
                            <shottake></shottake>
                            <lognote></lognote>
                            <good></good>
                            <originalvideofilename></originalvideofilename>
                            <originalaudiofilename></originalaudiofilename>
                        </logginginfo>
                        <colorinfo>
                            <lut></lut>
                            <lut1></lut1>
                            <asc_sop></asc_sop>
                            <asc_sat></asc_sat>
                            <lut2></lut2>
                        </colorinfo>
                        <labels>
                            <label2>Iris</label2>
                        </labels>
                    </clipitem>
                    <enabled>TRUE</enabled>
                    <locked>FALSE</locked>
                    <outputchannelindex>2</outputchannelindex>
                </track>
                <track TL.SQTrackAudioKeyframeStyle="0" TL.SQTrackShy="0" TL.SQTrackExpandedHeight="25"
                       TL.SQTrackExpanded="0" MZ.TrackTargeted="1" PannerCurrentValue="0.5" PannerIsInverted="true"
                       PannerStartKeyframe="-91445760000000000,0.5,0,0,0,0,0,0" PannerName="平衡"
                       currentExplodedTrackIndex="0" totalExplodedTrackCount="2" premiereTrackType="Stereo">
                    <enabled>TRUE</enabled>
                    <locked>FALSE</locked>
                    <outputchannelindex>1</outputchannelindex>
                </track>
                <track TL.SQTrackAudioKeyframeStyle="0" TL.SQTrackShy="0" TL.SQTrackExpandedHeight="25"
                       TL.SQTrackExpanded="0" MZ.TrackTargeted="1" PannerCurrentValue="0.5" PannerIsInverted="true"
                       PannerStartKeyframe="-91445760000000000,0.5,0,0,0,0,0,0" PannerName="平衡"
                       currentExplodedTrackIndex="1" totalExplodedTrackCount="2" premiereTrackType="Stereo">
                    <enabled>TRUE</enabled>
                    <locked>FALSE</locked>
                    <outputchannelindex>2</outputchannelindex>
                </track>
                <track TL.SQTrackAudioKeyframeStyle="0" TL.SQTrackShy="0" TL.SQTrackExpandedHeight="25"
                       TL.SQTrackExpanded="0" MZ.TrackTargeted="1" PannerCurrentValue="0.5" PannerIsInverted="true"
                       PannerStartKeyframe="-91445760000000000,0.5,0,0,0,0,0,0" PannerName="平衡"
                       currentExplodedTrackIndex="0" totalExplodedTrackCount="2" premiereTrackType="Stereo">
                    <enabled>TRUE</enabled>
                    <locked>FALSE</locked>
                    <outputchannelindex>1</outputchannelindex>
                </track>
                <track TL.SQTrackAudioKeyframeStyle="0" TL.SQTrackShy="0" TL.SQTrackExpandedHeight="25"
                       TL.SQTrackExpanded="0" MZ.TrackTargeted="1" PannerCurrentValue="0.5" PannerIsInverted="true"
                       PannerStartKeyframe="-91445760000000000,0.5,0,0,0,0,0,0" PannerName="平衡"
                       currentExplodedTrackIndex="1" totalExplodedTrackCount="2" premiereTrackType="Stereo">
                    <enabled>TRUE</enabled>
                    <locked>FALSE</locked>
                    <outputchannelindex>2</outputchannelindex>
                </track>
            </audio>
        </media>
        <timecode>
            <rate>
                <timebase>24</timebase>
                <ntsc>TRUE</ntsc>
            </rate>
            <string>00:00:00:00</string>
            <frame>0</frame>
            <displayformat>NDF</displayformat>
        </timecode>
        <labels>
            <label2>Forest</label2>
        </labels>
    </sequence>
</xmeml>
