<?xml version="1.0" encoding="UTF-8"?>
<!DOCTYPE xmeml>
<xmeml version="4">
    <sequence id="sequence-3" TL.SQAudioVisibleBase="0" TL.SQVideoVisibleBase="0" TL.SQVisibleBaseTime="0"
              TL.SQAVDividerPosition="0.5" TL.SQHideShyTracks="0" TL.SQHeaderWidth="236"
              Monitor.ProgramZoomOut="180005898240000" Monitor.ProgramZoomIn="0"
              TL.SQTimePerPixel="0.091517930063160488" MZ.EditLine="50803200000"
              MZ.Sequence.PreviewFrameSizeHeight="720" MZ.Sequence.PreviewFrameSizeWidth="1280"
              MZ.Sequence.AudioTimeDisplayFormat="200" MZ.Sequence.PreviewRenderingClassID="1480868673"
              MZ.Sequence.PreviewRenderingPresetCodec="402"
              MZ.Sequence.PreviewRenderingPresetPath="EncoderPresets\SequencePreview\cf2f7860-0e56-444f-a64f-74eafec54e44\AVC-Intra Class100 720p.epr"
              MZ.Sequence.PreviewUseMaxRenderQuality="false" MZ.Sequence.PreviewUseMaxBitDepth="false"
              MZ.Sequence.EditingModeGUID="cf2f7860-0e56-444f-a64f-74eafec54e44"
              MZ.Sequence.VideoTimeDisplayFormat="101" MZ.WorkOutPoint="57245045760000" MZ.WorkInPoint="0"
              MZ.ZeroPoint="0" explodedTracks="true">
        <uuid>8df2e48d-5d83-4fb3-9c98-4d5cec4652a0</uuid>
        <duration>5634</duration>
        <rate>
            <timebase>25</timebase>
            <ntsc>FALSE</ntsc>
        </rate>
        <name>企鹅特工孵化鸭子，用训练作为胎教，结果鸭子一出生就成为特工@不正经的小酥肉</name>
        <media>
            <video>
                <format>
                    <samplecharacteristics>
                        <rate>
                            <timebase>25</timebase>
                            <ntsc>FALSE</ntsc>
                        </rate>
                        <codec>
                            <name>Apple ProRes 422</name>
                            <appspecificdata>
                                <appname>Final Cut Pro</appname>
                                <appmanufacturer>Apple Inc.</appmanufacturer>
                                <appversion>7.0</appversion>
                                <data>
                                    <qtcodec>
                                        <codecname>Apple ProRes 422</codecname>
                                        <codectypename>Apple ProRes 422</codectypename>
                                        <codectypecode>apcn</codectypecode>
                                        <codecvendorcode>appl</codecvendorcode>
                                        <spatialquality>1024</spatialquality>
                                        <temporalquality>0</temporalquality>
                                        <keyframerate>0</keyframerate>
                                        <datarate>0</datarate>
                                    </qtcodec>
                                </data>
                            </appspecificdata>
                        </codec>
                        <width>1280</width>
                        <height>720</height>
                        <anamorphic>FALSE</anamorphic>
                        <pixelaspectratio>square</pixelaspectratio>
                        <fielddominance>none</fielddominance>
                        <colordepth>24</colordepth>
                    </samplecharacteristics>
                </format>
                <track TL.SQTrackShy="0" TL.SQTrackExpandedHeight="25" TL.SQTrackExpanded="0" MZ.TrackTargeted="1">
                    <clipitem id="clipitem-10">
                        <masterclipid>masterclip-4</masterclipid>
                        <name>企鹅特工孵化鸭子，用训练作为胎教，结果鸭子一出生就成为特工@不正经的小酥肉.mp4</name>
                        <enabled>TRUE</enabled>
                        <duration>5634</duration>
                        <rate>
                            <timebase>25</timebase>
                            <ntsc>FALSE</ntsc>
                        </rate>
                        <start>0</start>
                        <end>5634</end>
                        <in>0</in>
                        <out>5634</out>
                        <pproTicksIn>0</pproTicksIn>
                        <pproTicksOut>57245045760000</pproTicksOut>
                        <alphatype>none</alphatype>
                        <pixelaspectratio>square</pixelaspectratio>
                        <anamorphic>FALSE</anamorphic>
                        <file id="file-4">
                            <name>企鹅特工孵化鸭子，用训练作为胎教，结果鸭子一出生就成为特工@不正经的小酥肉.mp4</name>
                            <pathurl>
                                file://localhost/E%3a/data/%e4%bc%81%e9%b9%85%e7%89%b9%e5%b7%a5%e5%ad%b5%e5%8c%96%e9%b8%ad%e5%ad%90%ef%bc%8c%e7%94%a8%e8%ae%ad%e7%bb%83%e4%bd%9c%e4%b8%ba%e8%83%8e%e6%95%99%ef%bc%8c%e7%bb%93%e6%9e%9c%e9%b8%ad%e5%ad%90%e4%b8%80%e5%87%ba%e7%94%9f%e5%b0%b1%e6%88%90%e4%b8%ba%e7%89%b9%e5%b7%a5@%e4%b8%8d%e6%ad%a3%e7%bb%8f%e7%9a%84%e5%b0%8f%e9%85%a5%e8%82%89.mp4
                            </pathurl>
                            <rate>
                                <timebase>25</timebase>
                                <ntsc>FALSE</ntsc>
                            </rate>
                            <duration>5634</duration>
                            <timecode>
                                <rate>
                                    <timebase>25</timebase>
                                    <ntsc>FALSE</ntsc>
                                </rate>
                                <string>00:00:00:00</string>
                                <frame>0</frame>
                                <displayformat>NDF</displayformat>
                            </timecode>
                            <media>
                                <video>
                                    <samplecharacteristics>
                                        <rate>
                                            <timebase>25</timebase>
                                            <ntsc>FALSE</ntsc>
                                        </rate>
                                        <width>1280</width>
                                        <height>720</height>
                                        <anamorphic>FALSE</anamorphic>
                                        <pixelaspectratio>square</pixelaspectratio>
                                        <fielddominance>none</fielddominance>
                                    </samplecharacteristics>
                                </video>
                                <audio>
                                    <samplecharacteristics>
                                        <depth>16</depth>
                                        <samplerate>48000</samplerate>
                                    </samplecharacteristics>
                                    <channelcount>2</channelcount>
                                </audio>
                            </media>
                        </file>
                        <link>
                            <linkclipref>clipitem-10</linkclipref>
                            <mediatype>video</mediatype>
                            <trackindex>1</trackindex>
                            <clipindex>1</clipindex>
                        </link>
                        <link>
                            <linkclipref>clipitem-12</linkclipref>
                            <mediatype>audio</mediatype>
                            <trackindex>1</trackindex>
                            <clipindex>1</clipindex>
                            <groupindex>1</groupindex>
                        </link>
                        <link>
                            <linkclipref>clipitem-13</linkclipref>
                            <mediatype>audio</mediatype>
                            <trackindex>2</trackindex>
                            <clipindex>1</clipindex>
                            <groupindex>1</groupindex>
                        </link>
                        <logginginfo>
                            <description></description>
                            <scene></scene>
                            <shottake></shottake>
                            <lognote></lognote>
                            <good></good>
                            <originalvideofilename></originalvideofilename>
                            <originalaudiofilename></originalaudiofilename>
                        </logginginfo>
                        <colorinfo>
                            <lut></lut>
                            <lut1></lut1>
                            <asc_sop></asc_sop>
                            <asc_sat></asc_sat>
                            <lut2></lut2>
                        </colorinfo>
                        <labels>
                            <label2>Iris</label2>
                        </labels>
                    </clipitem>
                    <enabled>TRUE</enabled>
                    <locked>FALSE</locked>
                </track>
                <track TL.SQTrackShy="0" TL.SQTrackExpandedHeight="25" TL.SQTrackExpanded="0" MZ.TrackTargeted="0">
                    <clipitem id="clipitem-11">
                        <masterclipid>masterclip-5</masterclipid>
                        <name>S02E06.Hard.Boiled.Eggy.mkv</name>
                        <enabled>TRUE</enabled>
                        <duration>17716</duration>
                        <rate>
                            <timebase>24</timebase>
                            <ntsc>FALSE</ntsc>
                        </rate>
                        <start>1</start>
                        <end>25</end>
                        <in>1736</in>
                        <out>1760</out>
                        <pproTicksIn>17618549760000</pproTicksIn>
                        <pproTicksOut>17994493440000</pproTicksOut>
                        <alphatype>none</alphatype>
                        <pixelaspectratio>square</pixelaspectratio>
                        <anamorphic>FALSE</anamorphic>
                        <file id="file-5">
                            <name>S02E06.Hard.Boiled.Eggy.mkv</name>
                            <pathurl>file://localhost/F%3a/xunleiyunpan/S02E06.Hard.Boiled.Eggy.mkv</pathurl>
                            <rate>
                                <timebase>24</timebase>
                                <ntsc>TRUE</ntsc>
                            </rate>
                            <duration>16991</duration>
                            <timecode>
                                <rate>
                                    <timebase>24</timebase>
                                    <ntsc>TRUE</ntsc>
                                </rate>
                                <string>00:00:00:00</string>
                                <frame>0</frame>
                                <displayformat>NDF</displayformat>
                            </timecode>
                            <media>
                                <video>
                                    <samplecharacteristics>
                                        <rate>
                                            <timebase>24</timebase>
                                            <ntsc>TRUE</ntsc>
                                        </rate>
                                        <width>1912</width>
                                        <height>1072</height>
                                        <anamorphic>FALSE</anamorphic>
                                        <pixelaspectratio>square</pixelaspectratio>
                                        <fielddominance>none</fielddominance>
                                    </samplecharacteristics>
                                </video>
                                <audio>
                                    <samplecharacteristics>
                                        <depth>16</depth>
                                        <samplerate>48000</samplerate>
                                    </samplecharacteristics>
                                    <channelcount>2</channelcount>
                                </audio>
                            </media>
                        </file>
                        <logginginfo>
                            <description></description>
                            <scene></scene>
                            <shottake></shottake>
                            <lognote></lognote>
                            <good></good>
                            <originalvideofilename></originalvideofilename>
                            <originalaudiofilename></originalaudiofilename>
                        </logginginfo>
                        <colorinfo>
                            <lut></lut>
                            <lut1></lut1>
                            <asc_sop></asc_sop>
                            <asc_sat></asc_sat>
                            <lut2></lut2>
                        </colorinfo>
                        <labels>
                            <label2>Iris</label2>
                        </labels>
                    </clipitem>
                    <clipitem id="df3d5cff-be15-4fd4-8982-e791b958b0a2" premiereChannelType="stereo">
                        <masterclipid>masterclip-5</masterclipid>
                        <name>S02E06.Hard.Boiled.Eggy.mkv</name>
                        <enabled>TRUE</enabled>
                        <duration>17716</duration>
                        <rate>
                            <timebase>24</timebase>
                            <ntsc>FALSE</ntsc>
                        </rate>
                        <start>26</start>
                        <end>37</end>
                        <in>1761</in>
                        <out>1772</out>
                        <file id="file-5"/>
                        <labels>
                            <label2>Iris</label2>
                        </labels>
                    </clipitem>
                    <clipitem id="afb2842a-c542-4f28-ad14-154b8757a6fa" premiereChannelType="stereo">
                        <masterclipid>masterclip-5</masterclipid>
                        <name>S02E06.Hard.Boiled.Eggy.mkv</name>
                        <enabled>TRUE</enabled>
                        <duration>17716</duration>
                        <rate>
                            <timebase>24</timebase>
                            <ntsc>FALSE</ntsc>
                        </rate>
                        <start>38</start>
                        <end>94</end>
                        <in>2111</in>
                        <out>2167</out>
                        <file id="file-5"/>
                        <labels>
                            <label2>Iris</label2>
                        </labels>
                    </clipitem>
                    <clipitem id="7932e160-8c04-4240-8945-72591d807048" premiereChannelType="stereo">
                        <masterclipid>masterclip-5</masterclipid>
                        <name>S02E06.Hard.Boiled.Eggy.mkv</name>
                        <enabled>TRUE</enabled>
                        <duration>17716</duration>
                        <rate>
                            <timebase>24</timebase>
                            <ntsc>FALSE</ntsc>
                        </rate>
                        <start>95</start>
                        <end>133</end>
                        <in>2129</in>
                        <out>2167</out>
                        <file id="file-5"/>
                        <labels>
                            <label2>Iris</label2>
                        </labels>
                    </clipitem>
                    <clipitem id="d80cd885-89e1-4630-a096-bd63b2831c7e" premiereChannelType="stereo">
                        <masterclipid>masterclip-5</masterclipid>
                        <name>S02E06.Hard.Boiled.Eggy.mkv</name>
                        <enabled>TRUE</enabled>
                        <duration>17716</duration>
                        <rate>
                            <timebase>24</timebase>
                            <ntsc>FALSE</ntsc>
                        </rate>
                        <start>134</start>
                        <end>149</end>
                        <in>2166</in>
                        <out>2181</out>
                        <file id="file-5"/>
                        <labels>
                            <label2>Iris</label2>
                        </labels>
                    </clipitem>
                    <clipitem id="58f1edff-33ca-48ac-a4a7-5b70a7fc83c7" premiereChannelType="stereo">
                        <masterclipid>masterclip-5</masterclipid>
                        <name>S02E06.Hard.Boiled.Eggy.mkv</name>
                        <enabled>TRUE</enabled>
                        <duration>17716</duration>
                        <rate>
                            <timebase>24</timebase>
                            <ntsc>FALSE</ntsc>
                        </rate>
                        <start>150</start>
                        <end>161</end>
                        <in>2184</in>
                        <out>2195</out>
                        <file id="file-5"/>
                        <labels>
                            <label2>Iris</label2>
                        </labels>
                    </clipitem>
                    <clipitem id="e78caacb-ccab-4fce-ba37-7a2ece87814b" premiereChannelType="stereo">
                        <masterclipid>masterclip-5</masterclipid>
                        <name>S02E06.Hard.Boiled.Eggy.mkv</name>
                        <enabled>TRUE</enabled>
                        <duration>17716</duration>
                        <rate>
                            <timebase>24</timebase>
                            <ntsc>FALSE</ntsc>
                        </rate>
                        <start>162</start>
                        <end>174</end>
                        <in>2301</in>
                        <out>2313</out>
                        <file id="file-5"/>
                        <labels>
                            <label2>Iris</label2>
                        </labels>
                    </clipitem>
                    <clipitem id="04b5fe66-c2d6-4845-836f-8191b2faff72" premiereChannelType="stereo">
                        <masterclipid>masterclip-5</masterclipid>
                        <name>S02E06.Hard.Boiled.Eggy.mkv</name>
                        <enabled>TRUE</enabled>
                        <duration>17716</duration>
                        <rate>
                            <timebase>24</timebase>
                            <ntsc>FALSE</ntsc>
                        </rate>
                        <start>175</start>
                        <end>194</end>
                        <in>2314</in>
                        <out>2333</out>
                        <file id="file-5"/>
                        <labels>
                            <label2>Iris</label2>
                        </labels>
                    </clipitem>
                    <clipitem id="308d811e-acf1-4f12-88da-a470bd4acf35" premiereChannelType="stereo">
                        <masterclipid>masterclip-5</masterclipid>
                        <name>S02E06.Hard.Boiled.Eggy.mkv</name>
                        <enabled>TRUE</enabled>
                        <duration>17716</duration>
                        <rate>
                            <timebase>24</timebase>
                            <ntsc>FALSE</ntsc>
                        </rate>
                        <start>195</start>
                        <end>207</end>
                        <in>2444</in>
                        <out>2456</out>
                        <file id="file-5"/>
                        <labels>
                            <label2>Iris</label2>
                        </labels>
                    </clipitem>
                    <clipitem id="19a06802-9fed-46b0-9565-22c698c6031f" premiereChannelType="stereo">
                        <masterclipid>masterclip-5</masterclipid>
                        <name>S02E06.Hard.Boiled.Eggy.mkv</name>
                        <enabled>TRUE</enabled>
                        <duration>17716</duration>
                        <rate>
                            <timebase>24</timebase>
                            <ntsc>FALSE</ntsc>
                        </rate>
                        <start>208</start>
                        <end>219</end>
                        <in>2440</in>
                        <out>2451</out>
                        <file id="file-5"/>
                        <labels>
                            <label2>Iris</label2>
                        </labels>
                    </clipitem>
                    <clipitem id="52fdbf0a-a962-4105-bd85-4dcbebcb3084" premiereChannelType="stereo">
                        <masterclipid>masterclip-5</masterclipid>
                        <name>S02E06.Hard.Boiled.Eggy.mkv</name>
                        <enabled>TRUE</enabled>
                        <duration>17716</duration>
                        <rate>
                            <timebase>24</timebase>
                            <ntsc>FALSE</ntsc>
                        </rate>
                        <start>220</start>
                        <end>242</end>
                        <in>2469</in>
                        <out>2491</out>
                        <file id="file-5"/>
                        <labels>
                            <label2>Iris</label2>
                        </labels>
                    </clipitem>
                    <clipitem id="bf1cab6f-61b0-45c8-8dce-c460cc546f3d" premiereChannelType="stereo">
                        <masterclipid>masterclip-5</masterclipid>
                        <name>S02E06.Hard.Boiled.Eggy.mkv</name>
                        <enabled>TRUE</enabled>
                        <duration>17716</duration>
                        <rate>
                            <timebase>24</timebase>
                            <ntsc>FALSE</ntsc>
                        </rate>
                        <start>243</start>
                        <end>260</end>
                        <in>2522</in>
                        <out>2539</out>
                        <file id="file-5"/>
                        <labels>
                            <label2>Iris</label2>
                        </labels>
                    </clipitem>
                    <clipitem id="b7e7ba2d-f3d7-4529-8a22-706d83b1ae2d" premiereChannelType="stereo">
                        <masterclipid>masterclip-5</masterclipid>
                        <name>S02E06.Hard.Boiled.Eggy.mkv</name>
                        <enabled>TRUE</enabled>
                        <duration>17716</duration>
                        <rate>
                            <timebase>24</timebase>
                            <ntsc>FALSE</ntsc>
                        </rate>
                        <start>261</start>
                        <end>273</end>
                        <in>2536</in>
                        <out>2548</out>
                        <file id="file-5"/>
                        <labels>
                            <label2>Iris</label2>
                        </labels>
                    </clipitem>
                    <clipitem id="246d1c4b-4752-4aad-a9f3-0945b47faed8" premiereChannelType="stereo">
                        <masterclipid>masterclip-5</masterclipid>
                        <name>S02E06.Hard.Boiled.Eggy.mkv</name>
                        <enabled>TRUE</enabled>
                        <duration>17716</duration>
                        <rate>
                            <timebase>24</timebase>
                            <ntsc>FALSE</ntsc>
                        </rate>
                        <start>274</start>
                        <end>293</end>
                        <in>2549</in>
                        <out>2568</out>
                        <file id="file-5"/>
                        <labels>
                            <label2>Iris</label2>
                        </labels>
                    </clipitem>
                    <clipitem id="a293a052-e527-4dec-8af1-b6ee0b4cf37c" premiereChannelType="stereo">
                        <masterclipid>masterclip-5</masterclipid>
                        <name>S02E06.Hard.Boiled.Eggy.mkv</name>
                        <enabled>TRUE</enabled>
                        <duration>17716</duration>
                        <rate>
                            <timebase>24</timebase>
                            <ntsc>FALSE</ntsc>
                        </rate>
                        <start>294</start>
                        <end>330</end>
                        <in>2580</in>
                        <out>2616</out>
                        <file id="file-5"/>
                        <labels>
                            <label2>Iris</label2>
                        </labels>
                    </clipitem>
                    <clipitem id="3aa606cc-f6c2-444f-8aed-f28ad8c10f00" premiereChannelType="stereo">
                        <masterclipid>masterclip-5</masterclipid>
                        <name>S02E06.Hard.Boiled.Eggy.mkv</name>
                        <enabled>TRUE</enabled>
                        <duration>17716</duration>
                        <rate>
                            <timebase>24</timebase>
                            <ntsc>FALSE</ntsc>
                        </rate>
                        <start>331</start>
                        <end>345</end>
                        <in>3125</in>
                        <out>3139</out>
                        <file id="file-5"/>
                        <labels>
                            <label2>Iris</label2>
                        </labels>
                    </clipitem>
                    <clipitem id="08577180-b91d-431e-ac26-a334715af6c5" premiereChannelType="stereo">
                        <masterclipid>masterclip-5</masterclipid>
                        <name>S02E06.Hard.Boiled.Eggy.mkv</name>
                        <enabled>TRUE</enabled>
                        <duration>17716</duration>
                        <rate>
                            <timebase>24</timebase>
                            <ntsc>FALSE</ntsc>
                        </rate>
                        <start>346</start>
                        <end>357</end>
                        <in>3140</in>
                        <out>3151</out>
                        <file id="file-5"/>
                        <labels>
                            <label2>Iris</label2>
                        </labels>
                    </clipitem>
                    <clipitem id="f6c9ec52-ef50-4ddf-8cea-7fbc1fb50729" premiereChannelType="stereo">
                        <masterclipid>masterclip-5</masterclipid>
                        <name>S02E06.Hard.Boiled.Eggy.mkv</name>
                        <enabled>TRUE</enabled>
                        <duration>17716</duration>
                        <rate>
                            <timebase>24</timebase>
                            <ntsc>FALSE</ntsc>
                        </rate>
                        <start>358</start>
                        <end>425</end>
                        <in>3152</in>
                        <out>3219</out>
                        <file id="file-5"/>
                        <labels>
                            <label2>Iris</label2>
                        </labels>
                    </clipitem>
                    <clipitem id="be8630ba-63c4-4c69-be91-8b5b4496bce6" premiereChannelType="stereo">
                        <masterclipid>masterclip-5</masterclipid>
                        <name>S02E06.Hard.Boiled.Eggy.mkv</name>
                        <enabled>TRUE</enabled>
                        <duration>17716</duration>
                        <rate>
                            <timebase>24</timebase>
                            <ntsc>FALSE</ntsc>
                        </rate>
                        <start>426</start>
                        <end>481</end>
                        <in>3220</in>
                        <out>3275</out>
                        <file id="file-5"/>
                        <labels>
                            <label2>Iris</label2>
                        </labels>
                    </clipitem>
                    <clipitem id="c9756f3f-1ba0-4edd-a851-d44c752c25fc" premiereChannelType="stereo">
                        <masterclipid>masterclip-5</masterclipid>
                        <name>S02E06.Hard.Boiled.Eggy.mkv</name>
                        <enabled>TRUE</enabled>
                        <duration>17716</duration>
                        <rate>
                            <timebase>24</timebase>
                            <ntsc>FALSE</ntsc>
                        </rate>
                        <start>482</start>
                        <end>539</end>
                        <in>3445</in>
                        <out>3502</out>
                        <file id="file-5"/>
                        <labels>
                            <label2>Iris</label2>
                        </labels>
                    </clipitem>
                    <clipitem id="0d16f395-d13e-434f-87f4-257153c413da" premiereChannelType="stereo">
                        <masterclipid>masterclip-5</masterclipid>
                        <name>S02E06.Hard.Boiled.Eggy.mkv</name>
                        <enabled>TRUE</enabled>
                        <duration>17716</duration>
                        <rate>
                            <timebase>24</timebase>
                            <ntsc>FALSE</ntsc>
                        </rate>
                        <start>540</start>
                        <end>554</end>
                        <in>3406</in>
                        <out>3420</out>
                        <file id="file-5"/>
                        <labels>
                            <label2>Iris</label2>
                        </labels>
                    </clipitem>
                    <clipitem id="61940ec7-865f-44d5-857c-a475d4674ec4" premiereChannelType="stereo">
                        <masterclipid>masterclip-5</masterclipid>
                        <name>S02E06.Hard.Boiled.Eggy.mkv</name>
                        <enabled>TRUE</enabled>
                        <duration>17716</duration>
                        <rate>
                            <timebase>24</timebase>
                            <ntsc>FALSE</ntsc>
                        </rate>
                        <start>555</start>
                        <end>587</end>
                        <in>3406</in>
                        <out>3438</out>
                        <file id="file-5"/>
                        <labels>
                            <label2>Iris</label2>
                        </labels>
                    </clipitem>
                    <clipitem id="ee6928ba-08c2-4dbf-aba1-7ff4e1ff56f2" premiereChannelType="stereo">
                        <masterclipid>masterclip-5</masterclipid>
                        <name>S02E06.Hard.Boiled.Eggy.mkv</name>
                        <enabled>TRUE</enabled>
                        <duration>17716</duration>
                        <rate>
                            <timebase>24</timebase>
                            <ntsc>FALSE</ntsc>
                        </rate>
                        <start>588</start>
                        <end>601</end>
                        <in>3525</in>
                        <out>3538</out>
                        <file id="file-5"/>
                        <labels>
                            <label2>Iris</label2>
                        </labels>
                    </clipitem>
                    <clipitem id="95d30b9f-2e49-4069-8148-463bdd051702" premiereChannelType="stereo">
                        <masterclipid>masterclip-5</masterclipid>
                        <name>S02E06.Hard.Boiled.Eggy.mkv</name>
                        <enabled>TRUE</enabled>
                        <duration>17716</duration>
                        <rate>
                            <timebase>24</timebase>
                            <ntsc>FALSE</ntsc>
                        </rate>
                        <start>602</start>
                        <end>613</end>
                        <in>3539</in>
                        <out>3550</out>
                        <file id="file-5"/>
                        <labels>
                            <label2>Iris</label2>
                        </labels>
                    </clipitem>
                    <clipitem id="9722b294-b169-48ad-91b1-524f3a28d504" premiereChannelType="stereo">
                        <masterclipid>masterclip-5</masterclipid>
                        <name>S02E06.Hard.Boiled.Eggy.mkv</name>
                        <enabled>TRUE</enabled>
                        <duration>17716</duration>
                        <rate>
                            <timebase>24</timebase>
                            <ntsc>FALSE</ntsc>
                        </rate>
                        <start>614</start>
                        <end>645</end>
                        <in>3552</in>
                        <out>3583</out>
                        <file id="file-5"/>
                        <labels>
                            <label2>Iris</label2>
                        </labels>
                    </clipitem>
                    <clipitem id="e29ae087-5904-46c7-815e-e9a24774e6ae" premiereChannelType="stereo">
                        <masterclipid>masterclip-5</masterclipid>
                        <name>S02E06.Hard.Boiled.Eggy.mkv</name>
                        <enabled>TRUE</enabled>
                        <duration>17716</duration>
                        <rate>
                            <timebase>24</timebase>
                            <ntsc>FALSE</ntsc>
                        </rate>
                        <start>646</start>
                        <end>657</end>
                        <in>3672</in>
                        <out>3683</out>
                        <file id="file-5"/>
                        <labels>
                            <label2>Iris</label2>
                        </labels>
                    </clipitem>
                    <clipitem id="6d9b7d50-7185-4607-b634-2519c2a114f3" premiereChannelType="stereo">
                        <masterclipid>masterclip-5</masterclipid>
                        <name>S02E06.Hard.Boiled.Eggy.mkv</name>
                        <enabled>TRUE</enabled>
                        <duration>17716</duration>
                        <rate>
                            <timebase>24</timebase>
                            <ntsc>FALSE</ntsc>
                        </rate>
                        <start>658</start>
                        <end>672</end>
                        <in>3684</in>
                        <out>3698</out>
                        <file id="file-5"/>
                        <labels>
                            <label2>Iris</label2>
                        </labels>
                    </clipitem>
                    <clipitem id="79a343a0-ee45-42ee-b630-7e35512a2038" premiereChannelType="stereo">
                        <masterclipid>masterclip-5</masterclipid>
                        <name>S02E06.Hard.Boiled.Eggy.mkv</name>
                        <enabled>TRUE</enabled>
                        <duration>17716</duration>
                        <rate>
                            <timebase>24</timebase>
                            <ntsc>FALSE</ntsc>
                        </rate>
                        <start>673</start>
                        <end>692</end>
                        <in>3700</in>
                        <out>3719</out>
                        <file id="file-5"/>
                        <labels>
                            <label2>Iris</label2>
                        </labels>
                    </clipitem>
                    <clipitem id="d9d0dacd-35ee-4bc2-b9bf-6807112b5c83" premiereChannelType="stereo">
                        <masterclipid>masterclip-5</masterclipid>
                        <name>S02E06.Hard.Boiled.Eggy.mkv</name>
                        <enabled>TRUE</enabled>
                        <duration>17716</duration>
                        <rate>
                            <timebase>24</timebase>
                            <ntsc>FALSE</ntsc>
                        </rate>
                        <start>693</start>
                        <end>704</end>
                        <in>3719</in>
                        <out>3730</out>
                        <file id="file-5"/>
                        <labels>
                            <label2>Iris</label2>
                        </labels>
                    </clipitem>
                    <clipitem id="25e83bc2-2cfe-4f2d-8e20-1ba4cc2b4899" premiereChannelType="stereo">
                        <masterclipid>masterclip-5</masterclipid>
                        <name>S02E06.Hard.Boiled.Eggy.mkv</name>
                        <enabled>TRUE</enabled>
                        <duration>17716</duration>
                        <rate>
                            <timebase>24</timebase>
                            <ntsc>FALSE</ntsc>
                        </rate>
                        <start>705</start>
                        <end>717</end>
                        <in>3731</in>
                        <out>3743</out>
                        <file id="file-5"/>
                        <labels>
                            <label2>Iris</label2>
                        </labels>
                    </clipitem>
                    <clipitem id="d384e48e-9e6f-4d0d-8fe8-860202403afd" premiereChannelType="stereo">
                        <masterclipid>masterclip-5</masterclipid>
                        <name>S02E06.Hard.Boiled.Eggy.mkv</name>
                        <enabled>TRUE</enabled>
                        <duration>17716</duration>
                        <rate>
                            <timebase>24</timebase>
                            <ntsc>FALSE</ntsc>
                        </rate>
                        <start>718</start>
                        <end>729</end>
                        <in>3744</in>
                        <out>3755</out>
                        <file id="file-5"/>
                        <labels>
                            <label2>Iris</label2>
                        </labels>
                    </clipitem>
                    <clipitem id="e0fa0a5a-82e6-4f8f-8735-057b0ebc3b75" premiereChannelType="stereo">
                        <masterclipid>masterclip-5</masterclipid>
                        <name>S02E06.Hard.Boiled.Eggy.mkv</name>
                        <enabled>TRUE</enabled>
                        <duration>17716</duration>
                        <rate>
                            <timebase>24</timebase>
                            <ntsc>FALSE</ntsc>
                        </rate>
                        <start>730</start>
                        <end>741</end>
                        <in>3756</in>
                        <out>3767</out>
                        <file id="file-5"/>
                        <labels>
                            <label2>Iris</label2>
                        </labels>
                    </clipitem>
                    <clipitem id="17d30829-77fd-4d0f-9223-47b7ab39956c" premiereChannelType="stereo">
                        <masterclipid>masterclip-5</masterclipid>
                        <name>S02E06.Hard.Boiled.Eggy.mkv</name>
                        <enabled>TRUE</enabled>
                        <duration>17716</duration>
                        <rate>
                            <timebase>24</timebase>
                            <ntsc>FALSE</ntsc>
                        </rate>
                        <start>742</start>
                        <end>757</end>
                        <in>3768</in>
                        <out>3783</out>
                        <file id="file-5"/>
                        <labels>
                            <label2>Iris</label2>
                        </labels>
                    </clipitem>
                    <clipitem id="e8bfc756-b78a-433e-bc89-2a5d8a55c0b8" premiereChannelType="stereo">
                        <masterclipid>masterclip-5</masterclipid>
                        <name>S02E06.Hard.Boiled.Eggy.mkv</name>
                        <enabled>TRUE</enabled>
                        <duration>17716</duration>
                        <rate>
                            <timebase>24</timebase>
                            <ntsc>FALSE</ntsc>
                        </rate>
                        <start>758</start>
                        <end>863</end>
                        <in>3784</in>
                        <out>3889</out>
                        <file id="file-5"/>
                        <labels>
                            <label2>Iris</label2>
                        </labels>
                    </clipitem>
                    <clipitem id="5a95e90c-45bf-4a8c-b82a-73f72dc6f313" premiereChannelType="stereo">
                        <masterclipid>masterclip-5</masterclipid>
                        <name>S02E06.Hard.Boiled.Eggy.mkv</name>
                        <enabled>TRUE</enabled>
                        <duration>17716</duration>
                        <rate>
                            <timebase>24</timebase>
                            <ntsc>FALSE</ntsc>
                        </rate>
                        <start>864</start>
                        <end>882</end>
                        <in>3895</in>
                        <out>3913</out>
                        <file id="file-5"/>
                        <labels>
                            <label2>Iris</label2>
                        </labels>
                    </clipitem>
                    <clipitem id="c252d66e-58b5-41fa-8924-c891e8898536" premiereChannelType="stereo">
                        <masterclipid>masterclip-5</masterclipid>
                        <name>S02E06.Hard.Boiled.Eggy.mkv</name>
                        <enabled>TRUE</enabled>
                        <duration>17716</duration>
                        <rate>
                            <timebase>24</timebase>
                            <ntsc>FALSE</ntsc>
                        </rate>
                        <start>883</start>
                        <end>926</end>
                        <in>3910</in>
                        <out>3953</out>
                        <file id="file-5"/>
                        <labels>
                            <label2>Iris</label2>
                        </labels>
                    </clipitem>
                    <clipitem id="d3b984f5-1692-418d-bd61-3ba7d690cce4" premiereChannelType="stereo">
                        <masterclipid>masterclip-5</masterclipid>
                        <name>S02E06.Hard.Boiled.Eggy.mkv</name>
                        <enabled>TRUE</enabled>
                        <duration>17716</duration>
                        <rate>
                            <timebase>24</timebase>
                            <ntsc>FALSE</ntsc>
                        </rate>
                        <start>927</start>
                        <end>959</end>
                        <in>3953</in>
                        <out>3985</out>
                        <file id="file-5"/>
                        <labels>
                            <label2>Iris</label2>
                        </labels>
                    </clipitem>
                    <clipitem id="5f90b295-df12-4a51-b90c-e5f264497397" premiereChannelType="stereo">
                        <masterclipid>masterclip-5</masterclipid>
                        <name>S02E06.Hard.Boiled.Eggy.mkv</name>
                        <enabled>TRUE</enabled>
                        <duration>17716</duration>
                        <rate>
                            <timebase>24</timebase>
                            <ntsc>FALSE</ntsc>
                        </rate>
                        <start>960</start>
                        <end>988</end>
                        <in>4030</in>
                        <out>4058</out>
                        <file id="file-5"/>
                        <labels>
                            <label2>Iris</label2>
                        </labels>
                    </clipitem>
                    <clipitem id="95a0bc3b-fd3a-4d67-baad-35bb99c981db" premiereChannelType="stereo">
                        <masterclipid>masterclip-5</masterclipid>
                        <name>S02E06.Hard.Boiled.Eggy.mkv</name>
                        <enabled>TRUE</enabled>
                        <duration>17716</duration>
                        <rate>
                            <timebase>24</timebase>
                            <ntsc>FALSE</ntsc>
                        </rate>
                        <start>989</start>
                        <end>1024</end>
                        <in>4290</in>
                        <out>4325</out>
                        <file id="file-5"/>
                        <labels>
                            <label2>Iris</label2>
                        </labels>
                    </clipitem>
                    <clipitem id="73632714-cec2-41f7-aea4-0bc145ccdf5d" premiereChannelType="stereo">
                        <masterclipid>masterclip-5</masterclipid>
                        <name>S02E06.Hard.Boiled.Eggy.mkv</name>
                        <enabled>TRUE</enabled>
                        <duration>17716</duration>
                        <rate>
                            <timebase>24</timebase>
                            <ntsc>FALSE</ntsc>
                        </rate>
                        <start>1025</start>
                        <end>1064</end>
                        <in>4366</in>
                        <out>4405</out>
                        <file id="file-5"/>
                        <labels>
                            <label2>Iris</label2>
                        </labels>
                    </clipitem>
                    <clipitem id="b0038001-cc25-4281-9d00-7c5f31ca107c" premiereChannelType="stereo">
                        <masterclipid>masterclip-5</masterclipid>
                        <name>S02E06.Hard.Boiled.Eggy.mkv</name>
                        <enabled>TRUE</enabled>
                        <duration>17716</duration>
                        <rate>
                            <timebase>24</timebase>
                            <ntsc>FALSE</ntsc>
                        </rate>
                        <start>1065</start>
                        <end>1076</end>
                        <in>4500</in>
                        <out>4511</out>
                        <file id="file-5"/>
                        <labels>
                            <label2>Iris</label2>
                        </labels>
                    </clipitem>
                    <clipitem id="2dec804d-09bb-47f7-a58b-ff6105413aa4" premiereChannelType="stereo">
                        <masterclipid>masterclip-5</masterclipid>
                        <name>S02E06.Hard.Boiled.Eggy.mkv</name>
                        <enabled>TRUE</enabled>
                        <duration>17716</duration>
                        <rate>
                            <timebase>24</timebase>
                            <ntsc>FALSE</ntsc>
                        </rate>
                        <start>1077</start>
                        <end>1088</end>
                        <in>4512</in>
                        <out>4523</out>
                        <file id="file-5"/>
                        <labels>
                            <label2>Iris</label2>
                        </labels>
                    </clipitem>
                    <clipitem id="6708a878-25b3-4054-8541-a5f63358f49f" premiereChannelType="stereo">
                        <masterclipid>masterclip-5</masterclipid>
                        <name>S02E06.Hard.Boiled.Eggy.mkv</name>
                        <enabled>TRUE</enabled>
                        <duration>17716</duration>
                        <rate>
                            <timebase>24</timebase>
                            <ntsc>FALSE</ntsc>
                        </rate>
                        <start>1089</start>
                        <end>1109</end>
                        <in>4524</in>
                        <out>4544</out>
                        <file id="file-5"/>
                        <labels>
                            <label2>Iris</label2>
                        </labels>
                    </clipitem>
                    <clipitem id="637145a2-b029-4ed5-8738-348a0dba2bf7" premiereChannelType="stereo">
                        <masterclipid>masterclip-5</masterclipid>
                        <name>S02E06.Hard.Boiled.Eggy.mkv</name>
                        <enabled>TRUE</enabled>
                        <duration>17716</duration>
                        <rate>
                            <timebase>24</timebase>
                            <ntsc>FALSE</ntsc>
                        </rate>
                        <start>1110</start>
                        <end>1121</end>
                        <in>4551</in>
                        <out>4562</out>
                        <file id="file-5"/>
                        <labels>
                            <label2>Iris</label2>
                        </labels>
                    </clipitem>
                    <clipitem id="57b64252-0f15-40a0-9b9c-8af4e9d42f58" premiereChannelType="stereo">
                        <masterclipid>masterclip-5</masterclipid>
                        <name>S02E06.Hard.Boiled.Eggy.mkv</name>
                        <enabled>TRUE</enabled>
                        <duration>17716</duration>
                        <rate>
                            <timebase>24</timebase>
                            <ntsc>FALSE</ntsc>
                        </rate>
                        <start>1122</start>
                        <end>1142</end>
                        <in>4557</in>
                        <out>4577</out>
                        <file id="file-5"/>
                        <labels>
                            <label2>Iris</label2>
                        </labels>
                    </clipitem>
                    <clipitem id="dfad3a97-95e0-4906-9d0d-36e036c8404b" premiereChannelType="stereo">
                        <masterclipid>masterclip-5</masterclipid>
                        <name>S02E06.Hard.Boiled.Eggy.mkv</name>
                        <enabled>TRUE</enabled>
                        <duration>17716</duration>
                        <rate>
                            <timebase>24</timebase>
                            <ntsc>FALSE</ntsc>
                        </rate>
                        <start>1143</start>
                        <end>1180</end>
                        <in>4578</in>
                        <out>4615</out>
                        <file id="file-5"/>
                        <labels>
                            <label2>Iris</label2>
                        </labels>
                    </clipitem>
                    <clipitem id="d5739f75-3c51-4fc9-840c-75a7ce0b9017" premiereChannelType="stereo">
                        <masterclipid>masterclip-5</masterclipid>
                        <name>S02E06.Hard.Boiled.Eggy.mkv</name>
                        <enabled>TRUE</enabled>
                        <duration>17716</duration>
                        <rate>
                            <timebase>24</timebase>
                            <ntsc>FALSE</ntsc>
                        </rate>
                        <start>1181</start>
                        <end>1193</end>
                        <in>4650</in>
                        <out>4662</out>
                        <file id="file-5"/>
                        <labels>
                            <label2>Iris</label2>
                        </labels>
                    </clipitem>
                    <clipitem id="9c2d49c2-0af2-415a-baf1-d55bf4c79284" premiereChannelType="stereo">
                        <masterclipid>masterclip-5</masterclipid>
                        <name>S02E06.Hard.Boiled.Eggy.mkv</name>
                        <enabled>TRUE</enabled>
                        <duration>17716</duration>
                        <rate>
                            <timebase>24</timebase>
                            <ntsc>FALSE</ntsc>
                        </rate>
                        <start>1194</start>
                        <end>1228</end>
                        <in>4630</in>
                        <out>4664</out>
                        <file id="file-5"/>
                        <labels>
                            <label2>Iris</label2>
                        </labels>
                    </clipitem>
                    <clipitem id="44a4583a-b362-4f0f-b906-aabf96fb2e58" premiereChannelType="stereo">
                        <masterclipid>masterclip-5</masterclipid>
                        <name>S02E06.Hard.Boiled.Eggy.mkv</name>
                        <enabled>TRUE</enabled>
                        <duration>17716</duration>
                        <rate>
                            <timebase>24</timebase>
                            <ntsc>FALSE</ntsc>
                        </rate>
                        <start>1229</start>
                        <end>1260</end>
                        <in>4664</in>
                        <out>4695</out>
                        <file id="file-5"/>
                        <labels>
                            <label2>Iris</label2>
                        </labels>
                    </clipitem>
                    <clipitem id="c443d53d-23fc-477c-8b8a-027d64bc5446" premiereChannelType="stereo">
                        <masterclipid>masterclip-5</masterclipid>
                        <name>S02E06.Hard.Boiled.Eggy.mkv</name>
                        <enabled>TRUE</enabled>
                        <duration>17716</duration>
                        <rate>
                            <timebase>24</timebase>
                            <ntsc>FALSE</ntsc>
                        </rate>
                        <start>1261</start>
                        <end>1296</end>
                        <in>4690</in>
                        <out>4725</out>
                        <file id="file-5"/>
                        <labels>
                            <label2>Iris</label2>
                        </labels>
                    </clipitem>
                    <clipitem id="f982b09c-9a0b-4756-a0e7-7582ff763bc8" premiereChannelType="stereo">
                        <masterclipid>masterclip-5</masterclipid>
                        <name>S02E06.Hard.Boiled.Eggy.mkv</name>
                        <enabled>TRUE</enabled>
                        <duration>17716</duration>
                        <rate>
                            <timebase>24</timebase>
                            <ntsc>FALSE</ntsc>
                        </rate>
                        <start>1297</start>
                        <end>1340</end>
                        <in>4722</in>
                        <out>4765</out>
                        <file id="file-5"/>
                        <labels>
                            <label2>Iris</label2>
                        </labels>
                    </clipitem>
                    <clipitem id="02f10c2f-c838-4633-a69c-842be878166a" premiereChannelType="stereo">
                        <masterclipid>masterclip-5</masterclipid>
                        <name>S02E06.Hard.Boiled.Eggy.mkv</name>
                        <enabled>TRUE</enabled>
                        <duration>17716</duration>
                        <rate>
                            <timebase>24</timebase>
                            <ntsc>FALSE</ntsc>
                        </rate>
                        <start>1341</start>
                        <end>1406</end>
                        <in>4816</in>
                        <out>4881</out>
                        <file id="file-5"/>
                        <labels>
                            <label2>Iris</label2>
                        </labels>
                    </clipitem>
                    <clipitem id="eafe167e-df36-4a97-a6a5-e32aefe214a2" premiereChannelType="stereo">
                        <masterclipid>masterclip-5</masterclipid>
                        <name>S02E06.Hard.Boiled.Eggy.mkv</name>
                        <enabled>TRUE</enabled>
                        <duration>17716</duration>
                        <rate>
                            <timebase>24</timebase>
                            <ntsc>FALSE</ntsc>
                        </rate>
                        <start>1407</start>
                        <end>1455</end>
                        <in>4980</in>
                        <out>5028</out>
                        <file id="file-5"/>
                        <labels>
                            <label2>Iris</label2>
                        </labels>
                    </clipitem>
                    <clipitem id="91fc7467-499e-472c-9292-5308cfc7c872" premiereChannelType="stereo">
                        <masterclipid>masterclip-5</masterclipid>
                        <name>S02E06.Hard.Boiled.Eggy.mkv</name>
                        <enabled>TRUE</enabled>
                        <duration>17716</duration>
                        <rate>
                            <timebase>24</timebase>
                            <ntsc>FALSE</ntsc>
                        </rate>
                        <start>1456</start>
                        <end>1484</end>
                        <in>5031</in>
                        <out>5059</out>
                        <file id="file-5"/>
                        <labels>
                            <label2>Iris</label2>
                        </labels>
                    </clipitem>
                    <clipitem id="bfb03de6-7eef-427e-963d-0e8d32389249" premiereChannelType="stereo">
                        <masterclipid>masterclip-5</masterclipid>
                        <name>S02E06.Hard.Boiled.Eggy.mkv</name>
                        <enabled>TRUE</enabled>
                        <duration>17716</duration>
                        <rate>
                            <timebase>24</timebase>
                            <ntsc>FALSE</ntsc>
                        </rate>
                        <start>1485</start>
                        <end>1496</end>
                        <in>5060</in>
                        <out>5071</out>
                        <file id="file-5"/>
                        <labels>
                            <label2>Iris</label2>
                        </labels>
                    </clipitem>
                    <clipitem id="9b951e7e-58aa-48c4-9b1c-7feccebc0de6" premiereChannelType="stereo">
                        <masterclipid>masterclip-5</masterclipid>
                        <name>S02E06.Hard.Boiled.Eggy.mkv</name>
                        <enabled>TRUE</enabled>
                        <duration>17716</duration>
                        <rate>
                            <timebase>24</timebase>
                            <ntsc>FALSE</ntsc>
                        </rate>
                        <start>1497</start>
                        <end>1515</end>
                        <in>5072</in>
                        <out>5090</out>
                        <file id="file-5"/>
                        <labels>
                            <label2>Iris</label2>
                        </labels>
                    </clipitem>
                    <clipitem id="a4b2292d-051f-4039-b00e-139de163e365" premiereChannelType="stereo">
                        <masterclipid>masterclip-5</masterclipid>
                        <name>S02E06.Hard.Boiled.Eggy.mkv</name>
                        <enabled>TRUE</enabled>
                        <duration>17716</duration>
                        <rate>
                            <timebase>24</timebase>
                            <ntsc>FALSE</ntsc>
                        </rate>
                        <start>1516</start>
                        <end>1534</end>
                        <in>5106</in>
                        <out>5124</out>
                        <file id="file-5"/>
                        <labels>
                            <label2>Iris</label2>
                        </labels>
                    </clipitem>
                    <clipitem id="a0245bed-fd7c-468e-a208-c09340e4b7c1" premiereChannelType="stereo">
                        <masterclipid>masterclip-5</masterclipid>
                        <name>S02E06.Hard.Boiled.Eggy.mkv</name>
                        <enabled>TRUE</enabled>
                        <duration>17716</duration>
                        <rate>
                            <timebase>24</timebase>
                            <ntsc>FALSE</ntsc>
                        </rate>
                        <start>1535</start>
                        <end>1546</end>
                        <in>5125</in>
                        <out>5136</out>
                        <file id="file-5"/>
                        <labels>
                            <label2>Iris</label2>
                        </labels>
                    </clipitem>
                    <clipitem id="45ec5e6e-d335-4e66-b141-5e8f37cd5187" premiereChannelType="stereo">
                        <masterclipid>masterclip-5</masterclipid>
                        <name>S02E06.Hard.Boiled.Eggy.mkv</name>
                        <enabled>TRUE</enabled>
                        <duration>17716</duration>
                        <rate>
                            <timebase>24</timebase>
                            <ntsc>FALSE</ntsc>
                        </rate>
                        <start>1547</start>
                        <end>1558</end>
                        <in>5137</in>
                        <out>5148</out>
                        <file id="file-5"/>
                        <labels>
                            <label2>Iris</label2>
                        </labels>
                    </clipitem>
                    <clipitem id="0d6c1949-a680-4e8d-aecd-11f13b1fda62" premiereChannelType="stereo">
                        <masterclipid>masterclip-5</masterclipid>
                        <name>S02E06.Hard.Boiled.Eggy.mkv</name>
                        <enabled>TRUE</enabled>
                        <duration>17716</duration>
                        <rate>
                            <timebase>24</timebase>
                            <ntsc>FALSE</ntsc>
                        </rate>
                        <start>1559</start>
                        <end>1570</end>
                        <in>5149</in>
                        <out>5160</out>
                        <file id="file-5"/>
                        <labels>
                            <label2>Iris</label2>
                        </labels>
                    </clipitem>
                    <clipitem id="43841f38-6e93-4124-9f1d-a77f5cf2eb55" premiereChannelType="stereo">
                        <masterclipid>masterclip-5</masterclipid>
                        <name>S02E06.Hard.Boiled.Eggy.mkv</name>
                        <enabled>TRUE</enabled>
                        <duration>17716</duration>
                        <rate>
                            <timebase>24</timebase>
                            <ntsc>FALSE</ntsc>
                        </rate>
                        <start>1571</start>
                        <end>1582</end>
                        <in>5192</in>
                        <out>5203</out>
                        <file id="file-5"/>
                        <labels>
                            <label2>Iris</label2>
                        </labels>
                    </clipitem>
                    <clipitem id="4e532526-73bc-41b5-87f4-fa03cf683d59" premiereChannelType="stereo">
                        <masterclipid>masterclip-5</masterclipid>
                        <name>S02E06.Hard.Boiled.Eggy.mkv</name>
                        <enabled>TRUE</enabled>
                        <duration>17716</duration>
                        <rate>
                            <timebase>24</timebase>
                            <ntsc>FALSE</ntsc>
                        </rate>
                        <start>1583</start>
                        <end>1598</end>
                        <in>5204</in>
                        <out>5219</out>
                        <file id="file-5"/>
                        <labels>
                            <label2>Iris</label2>
                        </labels>
                    </clipitem>
                    <clipitem id="38e25cbc-0126-436d-b705-9eba047a2b46" premiereChannelType="stereo">
                        <masterclipid>masterclip-5</masterclipid>
                        <name>S02E06.Hard.Boiled.Eggy.mkv</name>
                        <enabled>TRUE</enabled>
                        <duration>17716</duration>
                        <rate>
                            <timebase>24</timebase>
                            <ntsc>FALSE</ntsc>
                        </rate>
                        <start>1599</start>
                        <end>1651</end>
                        <in>5505</in>
                        <out>5557</out>
                        <file id="file-5"/>
                        <labels>
                            <label2>Iris</label2>
                        </labels>
                    </clipitem>
                    <clipitem id="fd78e4d5-6934-4561-afe0-0a86fbf41d3b" premiereChannelType="stereo">
                        <masterclipid>masterclip-5</masterclipid>
                        <name>S02E06.Hard.Boiled.Eggy.mkv</name>
                        <enabled>TRUE</enabled>
                        <duration>17716</duration>
                        <rate>
                            <timebase>24</timebase>
                            <ntsc>FALSE</ntsc>
                        </rate>
                        <start>1652</start>
                        <end>1679</end>
                        <in>5241</in>
                        <out>5268</out>
                        <file id="file-5"/>
                        <labels>
                            <label2>Iris</label2>
                        </labels>
                    </clipitem>
                    <clipitem id="bea1bf39-e3dd-4ec0-bce0-5ee4863140fc" premiereChannelType="stereo">
                        <masterclipid>masterclip-5</masterclipid>
                        <name>S02E06.Hard.Boiled.Eggy.mkv</name>
                        <enabled>TRUE</enabled>
                        <duration>17716</duration>
                        <rate>
                            <timebase>24</timebase>
                            <ntsc>FALSE</ntsc>
                        </rate>
                        <start>1680</start>
                        <end>1712</end>
                        <in>5580</in>
                        <out>5612</out>
                        <file id="file-5"/>
                        <labels>
                            <label2>Iris</label2>
                        </labels>
                    </clipitem>
                    <clipitem id="55244ae9-61c0-4ffe-b1ff-7cd0c8c75d19" premiereChannelType="stereo">
                        <masterclipid>masterclip-5</masterclipid>
                        <name>S02E06.Hard.Boiled.Eggy.mkv</name>
                        <enabled>TRUE</enabled>
                        <duration>17716</duration>
                        <rate>
                            <timebase>24</timebase>
                            <ntsc>FALSE</ntsc>
                        </rate>
                        <start>1713</start>
                        <end>1726</end>
                        <in>5702</in>
                        <out>5715</out>
                        <file id="file-5"/>
                        <labels>
                            <label2>Iris</label2>
                        </labels>
                    </clipitem>
                    <clipitem id="de318e64-9a67-4ed8-be53-735707b73f2a" premiereChannelType="stereo">
                        <masterclipid>masterclip-5</masterclipid>
                        <name>S02E06.Hard.Boiled.Eggy.mkv</name>
                        <enabled>TRUE</enabled>
                        <duration>17716</duration>
                        <rate>
                            <timebase>24</timebase>
                            <ntsc>FALSE</ntsc>
                        </rate>
                        <start>1727</start>
                        <end>1739</end>
                        <in>5717</in>
                        <out>5729</out>
                        <file id="file-5"/>
                        <labels>
                            <label2>Iris</label2>
                        </labels>
                    </clipitem>
                    <clipitem id="3cc28ff2-09b9-4887-81ff-521eaa72ac69" premiereChannelType="stereo">
                        <masterclipid>masterclip-5</masterclipid>
                        <name>S02E06.Hard.Boiled.Eggy.mkv</name>
                        <enabled>TRUE</enabled>
                        <duration>17716</duration>
                        <rate>
                            <timebase>24</timebase>
                            <ntsc>FALSE</ntsc>
                        </rate>
                        <start>1740</start>
                        <end>1759</end>
                        <in>5732</in>
                        <out>5751</out>
                        <file id="file-5"/>
                        <labels>
                            <label2>Iris</label2>
                        </labels>
                    </clipitem>
                    <clipitem id="bc412499-56b6-417d-a736-23489f0ab327" premiereChannelType="stereo">
                        <masterclipid>masterclip-5</masterclipid>
                        <name>S02E06.Hard.Boiled.Eggy.mkv</name>
                        <enabled>TRUE</enabled>
                        <duration>17716</duration>
                        <rate>
                            <timebase>24</timebase>
                            <ntsc>FALSE</ntsc>
                        </rate>
                        <start>1760</start>
                        <end>1777</end>
                        <in>5756</in>
                        <out>5773</out>
                        <file id="file-5"/>
                        <labels>
                            <label2>Iris</label2>
                        </labels>
                    </clipitem>
                    <clipitem id="ef34f554-d71c-4ef9-a65e-963472937052" premiereChannelType="stereo">
                        <masterclipid>masterclip-5</masterclipid>
                        <name>S02E06.Hard.Boiled.Eggy.mkv</name>
                        <enabled>TRUE</enabled>
                        <duration>17716</duration>
                        <rate>
                            <timebase>24</timebase>
                            <ntsc>FALSE</ntsc>
                        </rate>
                        <start>1778</start>
                        <end>1792</end>
                        <in>5774</in>
                        <out>5788</out>
                        <file id="file-5"/>
                        <labels>
                            <label2>Iris</label2>
                        </labels>
                    </clipitem>
                    <clipitem id="5b6c7d4f-9dae-4019-aab7-886aec81ec53" premiereChannelType="stereo">
                        <masterclipid>masterclip-5</masterclipid>
                        <name>S02E06.Hard.Boiled.Eggy.mkv</name>
                        <enabled>TRUE</enabled>
                        <duration>17716</duration>
                        <rate>
                            <timebase>24</timebase>
                            <ntsc>FALSE</ntsc>
                        </rate>
                        <start>1793</start>
                        <end>1894</end>
                        <in>5789</in>
                        <out>5890</out>
                        <file id="file-5"/>
                        <labels>
                            <label2>Iris</label2>
                        </labels>
                    </clipitem>
                    <clipitem id="a808f39a-0fc8-4e15-b16c-8ddaf58f1862" premiereChannelType="stereo">
                        <masterclipid>masterclip-5</masterclipid>
                        <name>S02E06.Hard.Boiled.Eggy.mkv</name>
                        <enabled>TRUE</enabled>
                        <duration>17716</duration>
                        <rate>
                            <timebase>24</timebase>
                            <ntsc>FALSE</ntsc>
                        </rate>
                        <start>1895</start>
                        <end>1946</end>
                        <in>5891</in>
                        <out>5942</out>
                        <file id="file-5"/>
                        <labels>
                            <label2>Iris</label2>
                        </labels>
                    </clipitem>
                    <clipitem id="fb7c37bc-644c-48c3-8798-5a00effacfb6" premiereChannelType="stereo">
                        <masterclipid>masterclip-5</masterclipid>
                        <name>S02E06.Hard.Boiled.Eggy.mkv</name>
                        <enabled>TRUE</enabled>
                        <duration>17716</duration>
                        <rate>
                            <timebase>24</timebase>
                            <ntsc>FALSE</ntsc>
                        </rate>
                        <start>1947</start>
                        <end>1976</end>
                        <in>5943</in>
                        <out>5972</out>
                        <file id="file-5"/>
                        <labels>
                            <label2>Iris</label2>
                        </labels>
                    </clipitem>
                    <clipitem id="3706dee0-9a9f-4670-876f-a78663451fe6" premiereChannelType="stereo">
                        <masterclipid>masterclip-5</masterclipid>
                        <name>S02E06.Hard.Boiled.Eggy.mkv</name>
                        <enabled>TRUE</enabled>
                        <duration>17716</duration>
                        <rate>
                            <timebase>24</timebase>
                            <ntsc>FALSE</ntsc>
                        </rate>
                        <start>1977</start>
                        <end>2013</end>
                        <in>5973</in>
                        <out>6009</out>
                        <file id="file-5"/>
                        <labels>
                            <label2>Iris</label2>
                        </labels>
                    </clipitem>
                    <clipitem id="5c5be509-d5b1-423b-97dd-5b2e3737b791" premiereChannelType="stereo">
                        <masterclipid>masterclip-5</masterclipid>
                        <name>S02E06.Hard.Boiled.Eggy.mkv</name>
                        <enabled>TRUE</enabled>
                        <duration>17716</duration>
                        <rate>
                            <timebase>24</timebase>
                            <ntsc>FALSE</ntsc>
                        </rate>
                        <start>2014</start>
                        <end>2025</end>
                        <in>6010</in>
                        <out>6021</out>
                        <file id="file-5"/>
                        <labels>
                            <label2>Iris</label2>
                        </labels>
                    </clipitem>
                    <clipitem id="459efad8-322c-4e15-8e71-94f66e39b027" premiereChannelType="stereo">
                        <masterclipid>masterclip-5</masterclipid>
                        <name>S02E06.Hard.Boiled.Eggy.mkv</name>
                        <enabled>TRUE</enabled>
                        <duration>17716</duration>
                        <rate>
                            <timebase>24</timebase>
                            <ntsc>FALSE</ntsc>
                        </rate>
                        <start>2026</start>
                        <end>2055</end>
                        <in>6050</in>
                        <out>6079</out>
                        <file id="file-5"/>
                        <labels>
                            <label2>Iris</label2>
                        </labels>
                    </clipitem>
                    <clipitem id="6c461356-d68d-49ad-8b9c-7c7598d3529e" premiereChannelType="stereo">
                        <masterclipid>masterclip-5</masterclipid>
                        <name>S02E06.Hard.Boiled.Eggy.mkv</name>
                        <enabled>TRUE</enabled>
                        <duration>17716</duration>
                        <rate>
                            <timebase>24</timebase>
                            <ntsc>FALSE</ntsc>
                        </rate>
                        <start>2056</start>
                        <end>2068</end>
                        <in>6080</in>
                        <out>6092</out>
                        <file id="file-5"/>
                        <labels>
                            <label2>Iris</label2>
                        </labels>
                    </clipitem>
                    <clipitem id="dcc11320-1dc6-4073-ac30-5bae09419c0c" premiereChannelType="stereo">
                        <masterclipid>masterclip-5</masterclipid>
                        <name>S02E06.Hard.Boiled.Eggy.mkv</name>
                        <enabled>TRUE</enabled>
                        <duration>17716</duration>
                        <rate>
                            <timebase>24</timebase>
                            <ntsc>FALSE</ntsc>
                        </rate>
                        <start>2069</start>
                        <end>2084</end>
                        <in>6090</in>
                        <out>6105</out>
                        <file id="file-5"/>
                        <labels>
                            <label2>Iris</label2>
                        </labels>
                    </clipitem>
                    <clipitem id="8ce7e839-d772-4080-a8b6-b3157f70d8c2" premiereChannelType="stereo">
                        <masterclipid>masterclip-5</masterclipid>
                        <name>S02E06.Hard.Boiled.Eggy.mkv</name>
                        <enabled>TRUE</enabled>
                        <duration>17716</duration>
                        <rate>
                            <timebase>24</timebase>
                            <ntsc>FALSE</ntsc>
                        </rate>
                        <start>2085</start>
                        <end>2099</end>
                        <in>6132</in>
                        <out>6146</out>
                        <file id="file-5"/>
                        <labels>
                            <label2>Iris</label2>
                        </labels>
                    </clipitem>
                    <clipitem id="bbfff133-7278-49b8-932a-05e070682762" premiereChannelType="stereo">
                        <masterclipid>masterclip-5</masterclipid>
                        <name>S02E06.Hard.Boiled.Eggy.mkv</name>
                        <enabled>TRUE</enabled>
                        <duration>17716</duration>
                        <rate>
                            <timebase>24</timebase>
                            <ntsc>FALSE</ntsc>
                        </rate>
                        <start>2100</start>
                        <end>2117</end>
                        <in>6147</in>
                        <out>6164</out>
                        <file id="file-5"/>
                        <labels>
                            <label2>Iris</label2>
                        </labels>
                    </clipitem>
                    <clipitem id="2729937a-1509-44b4-a115-a4e34f571b11" premiereChannelType="stereo">
                        <masterclipid>masterclip-5</masterclipid>
                        <name>S02E06.Hard.Boiled.Eggy.mkv</name>
                        <enabled>TRUE</enabled>
                        <duration>17716</duration>
                        <rate>
                            <timebase>24</timebase>
                            <ntsc>FALSE</ntsc>
                        </rate>
                        <start>2118</start>
                        <end>2139</end>
                        <in>6160</in>
                        <out>6181</out>
                        <file id="file-5"/>
                        <labels>
                            <label2>Iris</label2>
                        </labels>
                    </clipitem>
                    <clipitem id="fb771188-c5a2-4c2b-9d7e-1e3c23422a79" premiereChannelType="stereo">
                        <masterclipid>masterclip-5</masterclipid>
                        <name>S02E06.Hard.Boiled.Eggy.mkv</name>
                        <enabled>TRUE</enabled>
                        <duration>17716</duration>
                        <rate>
                            <timebase>24</timebase>
                            <ntsc>FALSE</ntsc>
                        </rate>
                        <start>2140</start>
                        <end>2151</end>
                        <in>6247</in>
                        <out>6258</out>
                        <file id="file-5"/>
                        <labels>
                            <label2>Iris</label2>
                        </labels>
                    </clipitem>
                    <clipitem id="e9494316-2507-4603-8747-2d8d9308b7f1" premiereChannelType="stereo">
                        <masterclipid>masterclip-5</masterclipid>
                        <name>S02E06.Hard.Boiled.Eggy.mkv</name>
                        <enabled>TRUE</enabled>
                        <duration>17716</duration>
                        <rate>
                            <timebase>24</timebase>
                            <ntsc>FALSE</ntsc>
                        </rate>
                        <start>2152</start>
                        <end>2353</end>
                        <in>6182</in>
                        <out>6383</out>
                        <file id="file-5"/>
                        <labels>
                            <label2>Iris</label2>
                        </labels>
                    </clipitem>
                    <clipitem id="bd2ab237-9026-456f-bb36-4b5804aac8f2" premiereChannelType="stereo">
                        <masterclipid>masterclip-5</masterclipid>
                        <name>S02E06.Hard.Boiled.Eggy.mkv</name>
                        <enabled>TRUE</enabled>
                        <duration>17716</duration>
                        <rate>
                            <timebase>24</timebase>
                            <ntsc>FALSE</ntsc>
                        </rate>
                        <start>2354</start>
                        <end>2369</end>
                        <in>6418</in>
                        <out>6433</out>
                        <file id="file-5"/>
                        <labels>
                            <label2>Iris</label2>
                        </labels>
                    </clipitem>
                    <clipitem id="59ebaea3-ddea-40cf-89f6-95d92af18a0d" premiereChannelType="stereo">
                        <masterclipid>masterclip-5</masterclipid>
                        <name>S02E06.Hard.Boiled.Eggy.mkv</name>
                        <enabled>TRUE</enabled>
                        <duration>17716</duration>
                        <rate>
                            <timebase>24</timebase>
                            <ntsc>FALSE</ntsc>
                        </rate>
                        <start>2370</start>
                        <end>2381</end>
                        <in>6382</in>
                        <out>6393</out>
                        <file id="file-5"/>
                        <labels>
                            <label2>Iris</label2>
                        </labels>
                    </clipitem>
                    <clipitem id="08dccf14-5931-4ecd-83d1-f1d2e1edce73" premiereChannelType="stereo">
                        <masterclipid>masterclip-5</masterclipid>
                        <name>S02E06.Hard.Boiled.Eggy.mkv</name>
                        <enabled>TRUE</enabled>
                        <duration>17716</duration>
                        <rate>
                            <timebase>24</timebase>
                            <ntsc>FALSE</ntsc>
                        </rate>
                        <start>2382</start>
                        <end>2426</end>
                        <in>6340</in>
                        <out>6384</out>
                        <file id="file-5"/>
                        <labels>
                            <label2>Iris</label2>
                        </labels>
                    </clipitem>
                    <clipitem id="c4a66797-be5c-46ad-8e88-d6071e8c1945" premiereChannelType="stereo">
                        <masterclipid>masterclip-5</masterclipid>
                        <name>S02E06.Hard.Boiled.Eggy.mkv</name>
                        <enabled>TRUE</enabled>
                        <duration>17716</duration>
                        <rate>
                            <timebase>24</timebase>
                            <ntsc>FALSE</ntsc>
                        </rate>
                        <start>2427</start>
                        <end>2462</end>
                        <in>6346</in>
                        <out>6381</out>
                        <file id="file-5"/>
                        <labels>
                            <label2>Iris</label2>
                        </labels>
                    </clipitem>
                    <clipitem id="616517c2-940a-4e28-9b10-b3b02aeda5f7" premiereChannelType="stereo">
                        <masterclipid>masterclip-5</masterclipid>
                        <name>S02E06.Hard.Boiled.Eggy.mkv</name>
                        <enabled>TRUE</enabled>
                        <duration>17716</duration>
                        <rate>
                            <timebase>24</timebase>
                            <ntsc>FALSE</ntsc>
                        </rate>
                        <start>2463</start>
                        <end>2474</end>
                        <in>6438</in>
                        <out>6449</out>
                        <file id="file-5"/>
                        <labels>
                            <label2>Iris</label2>
                        </labels>
                    </clipitem>
                    <clipitem id="a8101777-7222-4735-a430-21d3b3d452e2" premiereChannelType="stereo">
                        <masterclipid>masterclip-5</masterclipid>
                        <name>S02E06.Hard.Boiled.Eggy.mkv</name>
                        <enabled>TRUE</enabled>
                        <duration>17716</duration>
                        <rate>
                            <timebase>24</timebase>
                            <ntsc>FALSE</ntsc>
                        </rate>
                        <start>2475</start>
                        <end>2514</end>
                        <in>6580</in>
                        <out>6619</out>
                        <file id="file-5"/>
                        <labels>
                            <label2>Iris</label2>
                        </labels>
                    </clipitem>
                    <clipitem id="1e650671-7e70-410c-8651-b77981db4120" premiereChannelType="stereo">
                        <masterclipid>masterclip-5</masterclipid>
                        <name>S02E06.Hard.Boiled.Eggy.mkv</name>
                        <enabled>TRUE</enabled>
                        <duration>17716</duration>
                        <rate>
                            <timebase>24</timebase>
                            <ntsc>FALSE</ntsc>
                        </rate>
                        <start>2515</start>
                        <end>2526</end>
                        <in>6620</in>
                        <out>6631</out>
                        <file id="file-5"/>
                        <labels>
                            <label2>Iris</label2>
                        </labels>
                    </clipitem>
                    <clipitem id="f4fbfa9e-8a6f-4e91-8208-aad060d7b6df" premiereChannelType="stereo">
                        <masterclipid>masterclip-5</masterclipid>
                        <name>S02E06.Hard.Boiled.Eggy.mkv</name>
                        <enabled>TRUE</enabled>
                        <duration>17716</duration>
                        <rate>
                            <timebase>24</timebase>
                            <ntsc>FALSE</ntsc>
                        </rate>
                        <start>2527</start>
                        <end>2543</end>
                        <in>6681</in>
                        <out>6697</out>
                        <file id="file-5"/>
                        <labels>
                            <label2>Iris</label2>
                        </labels>
                    </clipitem>
                    <clipitem id="e78fbd40-b346-447c-97b1-4226f4a51604" premiereChannelType="stereo">
                        <masterclipid>masterclip-5</masterclipid>
                        <name>S02E06.Hard.Boiled.Eggy.mkv</name>
                        <enabled>TRUE</enabled>
                        <duration>17716</duration>
                        <rate>
                            <timebase>24</timebase>
                            <ntsc>FALSE</ntsc>
                        </rate>
                        <start>2544</start>
                        <end>2559</end>
                        <in>6686</in>
                        <out>6701</out>
                        <file id="file-5"/>
                        <labels>
                            <label2>Iris</label2>
                        </labels>
                    </clipitem>
                    <clipitem id="1cbabb8a-a758-40f6-8344-25435d9daf49" premiereChannelType="stereo">
                        <masterclipid>masterclip-5</masterclipid>
                        <name>S02E06.Hard.Boiled.Eggy.mkv</name>
                        <enabled>TRUE</enabled>
                        <duration>17716</duration>
                        <rate>
                            <timebase>24</timebase>
                            <ntsc>FALSE</ntsc>
                        </rate>
                        <start>2560</start>
                        <end>2571</end>
                        <in>6810</in>
                        <out>6821</out>
                        <file id="file-5"/>
                        <labels>
                            <label2>Iris</label2>
                        </labels>
                    </clipitem>
                    <clipitem id="5d71fad0-d0ae-4b77-898e-c46a2a8333d4" premiereChannelType="stereo">
                        <masterclipid>masterclip-5</masterclipid>
                        <name>S02E06.Hard.Boiled.Eggy.mkv</name>
                        <enabled>TRUE</enabled>
                        <duration>17716</duration>
                        <rate>
                            <timebase>24</timebase>
                            <ntsc>FALSE</ntsc>
                        </rate>
                        <start>2572</start>
                        <end>2592</end>
                        <in>6914</in>
                        <out>6934</out>
                        <file id="file-5"/>
                        <labels>
                            <label2>Iris</label2>
                        </labels>
                    </clipitem>
                    <clipitem id="b461be08-f589-4cc8-931a-b7f90f76bbe3" premiereChannelType="stereo">
                        <masterclipid>masterclip-5</masterclipid>
                        <name>S02E06.Hard.Boiled.Eggy.mkv</name>
                        <enabled>TRUE</enabled>
                        <duration>17716</duration>
                        <rate>
                            <timebase>24</timebase>
                            <ntsc>FALSE</ntsc>
                        </rate>
                        <start>2593</start>
                        <end>2608</end>
                        <in>6917</in>
                        <out>6932</out>
                        <file id="file-5"/>
                        <labels>
                            <label2>Iris</label2>
                        </labels>
                    </clipitem>
                    <clipitem id="69bac580-12fa-45c4-be29-245b798bceb0" premiereChannelType="stereo">
                        <masterclipid>masterclip-5</masterclipid>
                        <name>S02E06.Hard.Boiled.Eggy.mkv</name>
                        <enabled>TRUE</enabled>
                        <duration>17716</duration>
                        <rate>
                            <timebase>24</timebase>
                            <ntsc>FALSE</ntsc>
                        </rate>
                        <start>2609</start>
                        <end>2621</end>
                        <in>7002</in>
                        <out>7014</out>
                        <file id="file-5"/>
                        <labels>
                            <label2>Iris</label2>
                        </labels>
                    </clipitem>
                    <clipitem id="65a8b67e-1c42-4719-bee1-f1d22e7b549d" premiereChannelType="stereo">
                        <masterclipid>masterclip-5</masterclipid>
                        <name>S02E06.Hard.Boiled.Eggy.mkv</name>
                        <enabled>TRUE</enabled>
                        <duration>17716</duration>
                        <rate>
                            <timebase>24</timebase>
                            <ntsc>FALSE</ntsc>
                        </rate>
                        <start>2622</start>
                        <end>2633</end>
                        <in>7006</in>
                        <out>7017</out>
                        <file id="file-5"/>
                        <labels>
                            <label2>Iris</label2>
                        </labels>
                    </clipitem>
                    <clipitem id="a69b7a9d-c791-46df-817f-f60bfc4bda04" premiereChannelType="stereo">
                        <masterclipid>masterclip-5</masterclipid>
                        <name>S02E06.Hard.Boiled.Eggy.mkv</name>
                        <enabled>TRUE</enabled>
                        <duration>17716</duration>
                        <rate>
                            <timebase>24</timebase>
                            <ntsc>FALSE</ntsc>
                        </rate>
                        <start>2634</start>
                        <end>2669</end>
                        <in>7514</in>
                        <out>7549</out>
                        <file id="file-5"/>
                        <labels>
                            <label2>Iris</label2>
                        </labels>
                    </clipitem>
                    <clipitem id="9592385c-30f6-450d-aafd-b7ac97d868ae" premiereChannelType="stereo">
                        <masterclipid>masterclip-5</masterclipid>
                        <name>S02E06.Hard.Boiled.Eggy.mkv</name>
                        <enabled>TRUE</enabled>
                        <duration>17716</duration>
                        <rate>
                            <timebase>24</timebase>
                            <ntsc>FALSE</ntsc>
                        </rate>
                        <start>2670</start>
                        <end>2736</end>
                        <in>7700</in>
                        <out>7766</out>
                        <file id="file-5"/>
                        <labels>
                            <label2>Iris</label2>
                        </labels>
                    </clipitem>
                    <clipitem id="eb8e37e8-586f-4e80-9aa1-4d02788696d5" premiereChannelType="stereo">
                        <masterclipid>masterclip-5</masterclipid>
                        <name>S02E06.Hard.Boiled.Eggy.mkv</name>
                        <enabled>TRUE</enabled>
                        <duration>17716</duration>
                        <rate>
                            <timebase>24</timebase>
                            <ntsc>FALSE</ntsc>
                        </rate>
                        <start>2737</start>
                        <end>2803</end>
                        <in>7699</in>
                        <out>7765</out>
                        <file id="file-5"/>
                        <labels>
                            <label2>Iris</label2>
                        </labels>
                    </clipitem>
                    <clipitem id="ed072093-edb4-44ca-b865-7107a8e0f279" premiereChannelType="stereo">
                        <masterclipid>masterclip-5</masterclipid>
                        <name>S02E06.Hard.Boiled.Eggy.mkv</name>
                        <enabled>TRUE</enabled>
                        <duration>17716</duration>
                        <rate>
                            <timebase>24</timebase>
                            <ntsc>FALSE</ntsc>
                        </rate>
                        <start>2804</start>
                        <end>2854</end>
                        <in>7800</in>
                        <out>7850</out>
                        <file id="file-5"/>
                        <labels>
                            <label2>Iris</label2>
                        </labels>
                    </clipitem>
                    <clipitem id="f99c1a66-e5ac-4347-88cc-2f2210d41c11" premiereChannelType="stereo">
                        <masterclipid>masterclip-5</masterclipid>
                        <name>S02E06.Hard.Boiled.Eggy.mkv</name>
                        <enabled>TRUE</enabled>
                        <duration>17716</duration>
                        <rate>
                            <timebase>24</timebase>
                            <ntsc>FALSE</ntsc>
                        </rate>
                        <start>2855</start>
                        <end>2889</end>
                        <in>7877</in>
                        <out>7911</out>
                        <file id="file-5"/>
                        <labels>
                            <label2>Iris</label2>
                        </labels>
                    </clipitem>
                    <clipitem id="ba52ba6e-4f74-490e-81dd-e8a8de59538e" premiereChannelType="stereo">
                        <masterclipid>masterclip-5</masterclipid>
                        <name>S02E06.Hard.Boiled.Eggy.mkv</name>
                        <enabled>TRUE</enabled>
                        <duration>17716</duration>
                        <rate>
                            <timebase>24</timebase>
                            <ntsc>FALSE</ntsc>
                        </rate>
                        <start>2890</start>
                        <end>2901</end>
                        <in>7914</in>
                        <out>7925</out>
                        <file id="file-5"/>
                        <labels>
                            <label2>Iris</label2>
                        </labels>
                    </clipitem>
                    <clipitem id="c3c01199-427a-42f0-a1c0-961af737f06f" premiereChannelType="stereo">
                        <masterclipid>masterclip-5</masterclipid>
                        <name>S02E06.Hard.Boiled.Eggy.mkv</name>
                        <enabled>TRUE</enabled>
                        <duration>17716</duration>
                        <rate>
                            <timebase>24</timebase>
                            <ntsc>FALSE</ntsc>
                        </rate>
                        <start>2902</start>
                        <end>2921</end>
                        <in>7985</in>
                        <out>8004</out>
                        <file id="file-5"/>
                        <labels>
                            <label2>Iris</label2>
                        </labels>
                    </clipitem>
                    <clipitem id="03754f28-a01c-4826-a98c-8af9a6a8118b" premiereChannelType="stereo">
                        <masterclipid>masterclip-5</masterclipid>
                        <name>S02E06.Hard.Boiled.Eggy.mkv</name>
                        <enabled>TRUE</enabled>
                        <duration>17716</duration>
                        <rate>
                            <timebase>24</timebase>
                            <ntsc>FALSE</ntsc>
                        </rate>
                        <start>2922</start>
                        <end>2969</end>
                        <in>8005</in>
                        <out>8052</out>
                        <file id="file-5"/>
                        <labels>
                            <label2>Iris</label2>
                        </labels>
                    </clipitem>
                    <clipitem id="810578e2-b8bb-43f6-935f-8e0db9f6fd93" premiereChannelType="stereo">
                        <masterclipid>masterclip-5</masterclipid>
                        <name>S02E06.Hard.Boiled.Eggy.mkv</name>
                        <enabled>TRUE</enabled>
                        <duration>17716</duration>
                        <rate>
                            <timebase>24</timebase>
                            <ntsc>FALSE</ntsc>
                        </rate>
                        <start>2970</start>
                        <end>2998</end>
                        <in>8053</in>
                        <out>8081</out>
                        <file id="file-5"/>
                        <labels>
                            <label2>Iris</label2>
                        </labels>
                    </clipitem>
                    <clipitem id="853755c8-d6bd-4f52-8662-a457efcc8f13" premiereChannelType="stereo">
                        <masterclipid>masterclip-5</masterclipid>
                        <name>S02E06.Hard.Boiled.Eggy.mkv</name>
                        <enabled>TRUE</enabled>
                        <duration>17716</duration>
                        <rate>
                            <timebase>24</timebase>
                            <ntsc>FALSE</ntsc>
                        </rate>
                        <start>2999</start>
                        <end>3025</end>
                        <in>8026</in>
                        <out>8052</out>
                        <file id="file-5"/>
                        <labels>
                            <label2>Iris</label2>
                        </labels>
                    </clipitem>
                    <clipitem id="26ab1df7-416f-4b59-ab24-9537840d948e" premiereChannelType="stereo">
                        <masterclipid>masterclip-5</masterclipid>
                        <name>S02E06.Hard.Boiled.Eggy.mkv</name>
                        <enabled>TRUE</enabled>
                        <duration>17716</duration>
                        <rate>
                            <timebase>24</timebase>
                            <ntsc>FALSE</ntsc>
                        </rate>
                        <start>3026</start>
                        <end>3040</end>
                        <in>8053</in>
                        <out>8067</out>
                        <file id="file-5"/>
                        <labels>
                            <label2>Iris</label2>
                        </labels>
                    </clipitem>
                    <clipitem id="d8e8f8fd-c002-415c-bd7b-2619a43ae8ec" premiereChannelType="stereo">
                        <masterclipid>masterclip-5</masterclipid>
                        <name>S02E06.Hard.Boiled.Eggy.mkv</name>
                        <enabled>TRUE</enabled>
                        <duration>17716</duration>
                        <rate>
                            <timebase>24</timebase>
                            <ntsc>FALSE</ntsc>
                        </rate>
                        <start>3041</start>
                        <end>3052</end>
                        <in>8060</in>
                        <out>8071</out>
                        <file id="file-5"/>
                        <labels>
                            <label2>Iris</label2>
                        </labels>
                    </clipitem>
                    <clipitem id="79b5d526-494a-4c11-9f4c-e59d06a3890d" premiereChannelType="stereo">
                        <masterclipid>masterclip-5</masterclipid>
                        <name>S02E06.Hard.Boiled.Eggy.mkv</name>
                        <enabled>TRUE</enabled>
                        <duration>17716</duration>
                        <rate>
                            <timebase>24</timebase>
                            <ntsc>FALSE</ntsc>
                        </rate>
                        <start>3053</start>
                        <end>3065</end>
                        <in>8164</in>
                        <out>8176</out>
                        <file id="file-5"/>
                        <labels>
                            <label2>Iris</label2>
                        </labels>
                    </clipitem>
                    <clipitem id="e048d9b0-a8e6-4d3e-baa6-c10655f7257e" premiereChannelType="stereo">
                        <masterclipid>masterclip-5</masterclipid>
                        <name>S02E06.Hard.Boiled.Eggy.mkv</name>
                        <enabled>TRUE</enabled>
                        <duration>17716</duration>
                        <rate>
                            <timebase>24</timebase>
                            <ntsc>FALSE</ntsc>
                        </rate>
                        <start>3066</start>
                        <end>3077</end>
                        <in>8177</in>
                        <out>8188</out>
                        <file id="file-5"/>
                        <labels>
                            <label2>Iris</label2>
                        </labels>
                    </clipitem>
                    <clipitem id="0bc18f68-37c0-4008-a62f-c00b0f1757a4" premiereChannelType="stereo">
                        <masterclipid>masterclip-5</masterclipid>
                        <name>S02E06.Hard.Boiled.Eggy.mkv</name>
                        <enabled>TRUE</enabled>
                        <duration>17716</duration>
                        <rate>
                            <timebase>24</timebase>
                            <ntsc>FALSE</ntsc>
                        </rate>
                        <start>3078</start>
                        <end>3090</end>
                        <in>8239</in>
                        <out>8251</out>
                        <file id="file-5"/>
                        <labels>
                            <label2>Iris</label2>
                        </labels>
                    </clipitem>
                    <clipitem id="786f0162-401a-4054-8427-545299a37dad" premiereChannelType="stereo">
                        <masterclipid>masterclip-5</masterclipid>
                        <name>S02E06.Hard.Boiled.Eggy.mkv</name>
                        <enabled>TRUE</enabled>
                        <duration>17716</duration>
                        <rate>
                            <timebase>24</timebase>
                            <ntsc>FALSE</ntsc>
                        </rate>
                        <start>3091</start>
                        <end>3103</end>
                        <in>8252</in>
                        <out>8264</out>
                        <file id="file-5"/>
                        <labels>
                            <label2>Iris</label2>
                        </labels>
                    </clipitem>
                    <clipitem id="e534356b-3bc9-45fa-adc2-0f50e1d917e1" premiereChannelType="stereo">
                        <masterclipid>masterclip-5</masterclipid>
                        <name>S02E06.Hard.Boiled.Eggy.mkv</name>
                        <enabled>TRUE</enabled>
                        <duration>17716</duration>
                        <rate>
                            <timebase>24</timebase>
                            <ntsc>FALSE</ntsc>
                        </rate>
                        <start>3104</start>
                        <end>3155</end>
                        <in>8265</in>
                        <out>8316</out>
                        <file id="file-5"/>
                        <labels>
                            <label2>Iris</label2>
                        </labels>
                    </clipitem>
                    <clipitem id="52fdde3a-7da7-46e7-ab66-8c6660ea40c3" premiereChannelType="stereo">
                        <masterclipid>masterclip-5</masterclipid>
                        <name>S02E06.Hard.Boiled.Eggy.mkv</name>
                        <enabled>TRUE</enabled>
                        <duration>17716</duration>
                        <rate>
                            <timebase>24</timebase>
                            <ntsc>FALSE</ntsc>
                        </rate>
                        <start>3156</start>
                        <end>3184</end>
                        <in>8285</in>
                        <out>8313</out>
                        <file id="file-5"/>
                        <labels>
                            <label2>Iris</label2>
                        </labels>
                    </clipitem>
                    <clipitem id="dffa85ca-fb0a-4872-a592-5c51e02137a2" premiereChannelType="stereo">
                        <masterclipid>masterclip-5</masterclipid>
                        <name>S02E06.Hard.Boiled.Eggy.mkv</name>
                        <enabled>TRUE</enabled>
                        <duration>17716</duration>
                        <rate>
                            <timebase>24</timebase>
                            <ntsc>FALSE</ntsc>
                        </rate>
                        <start>3185</start>
                        <end>3214</end>
                        <in>8789</in>
                        <out>8818</out>
                        <file id="file-5"/>
                        <labels>
                            <label2>Iris</label2>
                        </labels>
                    </clipitem>
                    <clipitem id="9799d656-2bbc-4deb-b69f-9066f833e7c6" premiereChannelType="stereo">
                        <masterclipid>masterclip-5</masterclipid>
                        <name>S02E06.Hard.Boiled.Eggy.mkv</name>
                        <enabled>TRUE</enabled>
                        <duration>17716</duration>
                        <rate>
                            <timebase>24</timebase>
                            <ntsc>FALSE</ntsc>
                        </rate>
                        <start>3215</start>
                        <end>3227</end>
                        <in>8954</in>
                        <out>8966</out>
                        <file id="file-5"/>
                        <labels>
                            <label2>Iris</label2>
                        </labels>
                    </clipitem>
                    <clipitem id="b7faff26-2645-4594-a35d-b9d6e63a75e2" premiereChannelType="stereo">
                        <masterclipid>masterclip-5</masterclipid>
                        <name>S02E06.Hard.Boiled.Eggy.mkv</name>
                        <enabled>TRUE</enabled>
                        <duration>17716</duration>
                        <rate>
                            <timebase>24</timebase>
                            <ntsc>FALSE</ntsc>
                        </rate>
                        <start>3228</start>
                        <end>3246</end>
                        <in>8965</in>
                        <out>8983</out>
                        <file id="file-5"/>
                        <labels>
                            <label2>Iris</label2>
                        </labels>
                    </clipitem>
                    <clipitem id="3d35fe47-a197-4296-93e6-cd997c9cfe6a" premiereChannelType="stereo">
                        <masterclipid>masterclip-5</masterclipid>
                        <name>S02E06.Hard.Boiled.Eggy.mkv</name>
                        <enabled>TRUE</enabled>
                        <duration>17716</duration>
                        <rate>
                            <timebase>24</timebase>
                            <ntsc>FALSE</ntsc>
                        </rate>
                        <start>3247</start>
                        <end>3259</end>
                        <in>9004</in>
                        <out>9016</out>
                        <file id="file-5"/>
                        <labels>
                            <label2>Iris</label2>
                        </labels>
                    </clipitem>
                    <clipitem id="600d30d3-55af-4882-938d-9446f81db1c2" premiereChannelType="stereo">
                        <masterclipid>masterclip-5</masterclipid>
                        <name>S02E06.Hard.Boiled.Eggy.mkv</name>
                        <enabled>TRUE</enabled>
                        <duration>17716</duration>
                        <rate>
                            <timebase>24</timebase>
                            <ntsc>FALSE</ntsc>
                        </rate>
                        <start>3260</start>
                        <end>3273</end>
                        <in>9017</in>
                        <out>9030</out>
                        <file id="file-5"/>
                        <labels>
                            <label2>Iris</label2>
                        </labels>
                    </clipitem>
                    <clipitem id="75562978-9db1-4d5a-a75a-e7abda38e207" premiereChannelType="stereo">
                        <masterclipid>masterclip-5</masterclipid>
                        <name>S02E06.Hard.Boiled.Eggy.mkv</name>
                        <enabled>TRUE</enabled>
                        <duration>17716</duration>
                        <rate>
                            <timebase>24</timebase>
                            <ntsc>FALSE</ntsc>
                        </rate>
                        <start>3274</start>
                        <end>3312</end>
                        <in>9295</in>
                        <out>9333</out>
                        <file id="file-5"/>
                        <labels>
                            <label2>Iris</label2>
                        </labels>
                    </clipitem>
                    <clipitem id="ee1b3990-5d03-4fcb-8dc3-c55dccdf7126" premiereChannelType="stereo">
                        <masterclipid>masterclip-5</masterclipid>
                        <name>S02E06.Hard.Boiled.Eggy.mkv</name>
                        <enabled>TRUE</enabled>
                        <duration>17716</duration>
                        <rate>
                            <timebase>24</timebase>
                            <ntsc>FALSE</ntsc>
                        </rate>
                        <start>3313</start>
                        <end>3347</end>
                        <in>9440</in>
                        <out>9474</out>
                        <file id="file-5"/>
                        <labels>
                            <label2>Iris</label2>
                        </labels>
                    </clipitem>
                    <clipitem id="2d218239-3505-43f3-b064-3340bb300ac5" premiereChannelType="stereo">
                        <masterclipid>masterclip-5</masterclipid>
                        <name>S02E06.Hard.Boiled.Eggy.mkv</name>
                        <enabled>TRUE</enabled>
                        <duration>17716</duration>
                        <rate>
                            <timebase>24</timebase>
                            <ntsc>FALSE</ntsc>
                        </rate>
                        <start>3348</start>
                        <end>3359</end>
                        <in>9470</in>
                        <out>9481</out>
                        <file id="file-5"/>
                        <labels>
                            <label2>Iris</label2>
                        </labels>
                    </clipitem>
                    <clipitem id="e874f3af-cfa9-4898-a62a-94561a2e74af" premiereChannelType="stereo">
                        <masterclipid>masterclip-5</masterclipid>
                        <name>S02E06.Hard.Boiled.Eggy.mkv</name>
                        <enabled>TRUE</enabled>
                        <duration>17716</duration>
                        <rate>
                            <timebase>24</timebase>
                            <ntsc>FALSE</ntsc>
                        </rate>
                        <start>3360</start>
                        <end>3410</end>
                        <in>9495</in>
                        <out>9545</out>
                        <file id="file-5"/>
                        <labels>
                            <label2>Iris</label2>
                        </labels>
                    </clipitem>
                    <clipitem id="487671fe-4565-4972-8bae-d92bbab91120" premiereChannelType="stereo">
                        <masterclipid>masterclip-5</masterclipid>
                        <name>S02E06.Hard.Boiled.Eggy.mkv</name>
                        <enabled>TRUE</enabled>
                        <duration>17716</duration>
                        <rate>
                            <timebase>24</timebase>
                            <ntsc>FALSE</ntsc>
                        </rate>
                        <start>3411</start>
                        <end>3425</end>
                        <in>9616</in>
                        <out>9630</out>
                        <file id="file-5"/>
                        <labels>
                            <label2>Iris</label2>
                        </labels>
                    </clipitem>
                    <clipitem id="5ba9e59a-2aee-41cd-9e19-cde286ff654a" premiereChannelType="stereo">
                        <masterclipid>masterclip-5</masterclipid>
                        <name>S02E06.Hard.Boiled.Eggy.mkv</name>
                        <enabled>TRUE</enabled>
                        <duration>17716</duration>
                        <rate>
                            <timebase>24</timebase>
                            <ntsc>FALSE</ntsc>
                        </rate>
                        <start>3426</start>
                        <end>3456</end>
                        <in>9631</in>
                        <out>9661</out>
                        <file id="file-5"/>
                        <labels>
                            <label2>Iris</label2>
                        </labels>
                    </clipitem>
                    <clipitem id="8e15ea06-87b5-4a60-82e0-8f9c8e210bac" premiereChannelType="stereo">
                        <masterclipid>masterclip-5</masterclipid>
                        <name>S02E06.Hard.Boiled.Eggy.mkv</name>
                        <enabled>TRUE</enabled>
                        <duration>17716</duration>
                        <rate>
                            <timebase>24</timebase>
                            <ntsc>FALSE</ntsc>
                        </rate>
                        <start>3457</start>
                        <end>3483</end>
                        <in>9682</in>
                        <out>9708</out>
                        <file id="file-5"/>
                        <labels>
                            <label2>Iris</label2>
                        </labels>
                    </clipitem>
                    <clipitem id="dcd8386c-b1a9-46d7-a434-1d5ab37e1c27" premiereChannelType="stereo">
                        <masterclipid>masterclip-5</masterclipid>
                        <name>S02E06.Hard.Boiled.Eggy.mkv</name>
                        <enabled>TRUE</enabled>
                        <duration>17716</duration>
                        <rate>
                            <timebase>24</timebase>
                            <ntsc>FALSE</ntsc>
                        </rate>
                        <start>3484</start>
                        <end>3524</end>
                        <in>9550</in>
                        <out>9590</out>
                        <file id="file-5"/>
                        <labels>
                            <label2>Iris</label2>
                        </labels>
                    </clipitem>
                    <clipitem id="50a4f0f3-33b4-4e97-af6d-9e46ea227d16" premiereChannelType="stereo">
                        <masterclipid>masterclip-5</masterclipid>
                        <name>S02E06.Hard.Boiled.Eggy.mkv</name>
                        <enabled>TRUE</enabled>
                        <duration>17716</duration>
                        <rate>
                            <timebase>24</timebase>
                            <ntsc>FALSE</ntsc>
                        </rate>
                        <start>3525</start>
                        <end>3552</end>
                        <in>9560</in>
                        <out>9587</out>
                        <file id="file-5"/>
                        <labels>
                            <label2>Iris</label2>
                        </labels>
                    </clipitem>
                    <clipitem id="7fe686ec-7112-4a44-8e43-c960f5bb0fba" premiereChannelType="stereo">
                        <masterclipid>masterclip-5</masterclipid>
                        <name>S02E06.Hard.Boiled.Eggy.mkv</name>
                        <enabled>TRUE</enabled>
                        <duration>17716</duration>
                        <rate>
                            <timebase>24</timebase>
                            <ntsc>FALSE</ntsc>
                        </rate>
                        <start>3553</start>
                        <end>3585</end>
                        <in>9740</in>
                        <out>9772</out>
                        <file id="file-5"/>
                        <labels>
                            <label2>Iris</label2>
                        </labels>
                    </clipitem>
                    <clipitem id="be7445d7-567b-46de-884d-bf586aec9856" premiereChannelType="stereo">
                        <masterclipid>masterclip-5</masterclipid>
                        <name>S02E06.Hard.Boiled.Eggy.mkv</name>
                        <enabled>TRUE</enabled>
                        <duration>17716</duration>
                        <rate>
                            <timebase>24</timebase>
                            <ntsc>FALSE</ntsc>
                        </rate>
                        <start>3586</start>
                        <end>3613</end>
                        <in>9908</in>
                        <out>9935</out>
                        <file id="file-5"/>
                        <labels>
                            <label2>Iris</label2>
                        </labels>
                    </clipitem>
                    <clipitem id="577f461a-f4d4-45cb-a639-b0b8ac36801c" premiereChannelType="stereo">
                        <masterclipid>masterclip-5</masterclipid>
                        <name>S02E06.Hard.Boiled.Eggy.mkv</name>
                        <enabled>TRUE</enabled>
                        <duration>17716</duration>
                        <rate>
                            <timebase>24</timebase>
                            <ntsc>FALSE</ntsc>
                        </rate>
                        <start>3614</start>
                        <end>3628</end>
                        <in>10180</in>
                        <out>10194</out>
                        <file id="file-5"/>
                        <labels>
                            <label2>Iris</label2>
                        </labels>
                    </clipitem>
                    <clipitem id="c7e7ed61-0a48-45cf-9dda-6671ceb8ffa2" premiereChannelType="stereo">
                        <masterclipid>masterclip-5</masterclipid>
                        <name>S02E06.Hard.Boiled.Eggy.mkv</name>
                        <enabled>TRUE</enabled>
                        <duration>17716</duration>
                        <rate>
                            <timebase>24</timebase>
                            <ntsc>FALSE</ntsc>
                        </rate>
                        <start>3629</start>
                        <end>3644</end>
                        <in>10192</in>
                        <out>10207</out>
                        <file id="file-5"/>
                        <labels>
                            <label2>Iris</label2>
                        </labels>
                    </clipitem>
                    <clipitem id="6903069e-3e2e-4bce-a697-adb63948b0ac" premiereChannelType="stereo">
                        <masterclipid>masterclip-5</masterclipid>
                        <name>S02E06.Hard.Boiled.Eggy.mkv</name>
                        <enabled>TRUE</enabled>
                        <duration>17716</duration>
                        <rate>
                            <timebase>24</timebase>
                            <ntsc>FALSE</ntsc>
                        </rate>
                        <start>3645</start>
                        <end>3696</end>
                        <in>10211</in>
                        <out>10262</out>
                        <file id="file-5"/>
                        <labels>
                            <label2>Iris</label2>
                        </labels>
                    </clipitem>
                    <clipitem id="ccd3dd40-4849-418b-bea5-3f7de37253ee" premiereChannelType="stereo">
                        <masterclipid>masterclip-5</masterclipid>
                        <name>S02E06.Hard.Boiled.Eggy.mkv</name>
                        <enabled>TRUE</enabled>
                        <duration>17716</duration>
                        <rate>
                            <timebase>24</timebase>
                            <ntsc>FALSE</ntsc>
                        </rate>
                        <start>3697</start>
                        <end>3709</end>
                        <in>10300</in>
                        <out>10312</out>
                        <file id="file-5"/>
                        <labels>
                            <label2>Iris</label2>
                        </labels>
                    </clipitem>
                    <clipitem id="7581dcf5-7317-4c87-a732-b572005cc2eb" premiereChannelType="stereo">
                        <masterclipid>masterclip-5</masterclipid>
                        <name>S02E06.Hard.Boiled.Eggy.mkv</name>
                        <enabled>TRUE</enabled>
                        <duration>17716</duration>
                        <rate>
                            <timebase>24</timebase>
                            <ntsc>FALSE</ntsc>
                        </rate>
                        <start>3710</start>
                        <end>3807</end>
                        <in>10313</in>
                        <out>10410</out>
                        <file id="file-5"/>
                        <labels>
                            <label2>Iris</label2>
                        </labels>
                    </clipitem>
                    <clipitem id="07135ebe-fff6-44f2-9c1c-5d1449a08897" premiereChannelType="stereo">
                        <masterclipid>masterclip-5</masterclipid>
                        <name>S02E06.Hard.Boiled.Eggy.mkv</name>
                        <enabled>TRUE</enabled>
                        <duration>17716</duration>
                        <rate>
                            <timebase>24</timebase>
                            <ntsc>FALSE</ntsc>
                        </rate>
                        <start>3808</start>
                        <end>3837</end>
                        <in>10411</in>
                        <out>10440</out>
                        <file id="file-5"/>
                        <labels>
                            <label2>Iris</label2>
                        </labels>
                    </clipitem>
                    <clipitem id="fd0fd206-de1a-4f56-958a-7d7d13611a9e" premiereChannelType="stereo">
                        <masterclipid>masterclip-5</masterclipid>
                        <name>S02E06.Hard.Boiled.Eggy.mkv</name>
                        <enabled>TRUE</enabled>
                        <duration>17716</duration>
                        <rate>
                            <timebase>24</timebase>
                            <ntsc>FALSE</ntsc>
                        </rate>
                        <start>3838</start>
                        <end>3856</end>
                        <in>10652</in>
                        <out>10670</out>
                        <file id="file-5"/>
                        <labels>
                            <label2>Iris</label2>
                        </labels>
                    </clipitem>
                    <clipitem id="ab20c79e-44c1-4901-aa3b-f5926268bfd3" premiereChannelType="stereo">
                        <masterclipid>masterclip-5</masterclipid>
                        <name>S02E06.Hard.Boiled.Eggy.mkv</name>
                        <enabled>TRUE</enabled>
                        <duration>17716</duration>
                        <rate>
                            <timebase>24</timebase>
                            <ntsc>FALSE</ntsc>
                        </rate>
                        <start>3857</start>
                        <end>3883</end>
                        <in>10671</in>
                        <out>10697</out>
                        <file id="file-5"/>
                        <labels>
                            <label2>Iris</label2>
                        </labels>
                    </clipitem>
                    <clipitem id="fcf885d3-ccb4-441c-81da-08971745eae7" premiereChannelType="stereo">
                        <masterclipid>masterclip-5</masterclipid>
                        <name>S02E06.Hard.Boiled.Eggy.mkv</name>
                        <enabled>TRUE</enabled>
                        <duration>17716</duration>
                        <rate>
                            <timebase>24</timebase>
                            <ntsc>FALSE</ntsc>
                        </rate>
                        <start>3884</start>
                        <end>3897</end>
                        <in>10698</in>
                        <out>10711</out>
                        <file id="file-5"/>
                        <labels>
                            <label2>Iris</label2>
                        </labels>
                    </clipitem>
                    <clipitem id="e198dec1-07c2-41c9-8faa-f3a4237507ed" premiereChannelType="stereo">
                        <masterclipid>masterclip-5</masterclipid>
                        <name>S02E06.Hard.Boiled.Eggy.mkv</name>
                        <enabled>TRUE</enabled>
                        <duration>17716</duration>
                        <rate>
                            <timebase>24</timebase>
                            <ntsc>FALSE</ntsc>
                        </rate>
                        <start>3898</start>
                        <end>3917</end>
                        <in>10712</in>
                        <out>10731</out>
                        <file id="file-5"/>
                        <labels>
                            <label2>Iris</label2>
                        </labels>
                    </clipitem>
                    <clipitem id="b21a53cb-9cfb-4394-9e19-747ba324abd3" premiereChannelType="stereo">
                        <masterclipid>masterclip-5</masterclipid>
                        <name>S02E06.Hard.Boiled.Eggy.mkv</name>
                        <enabled>TRUE</enabled>
                        <duration>17716</duration>
                        <rate>
                            <timebase>24</timebase>
                            <ntsc>FALSE</ntsc>
                        </rate>
                        <start>3918</start>
                        <end>3929</end>
                        <in>10732</in>
                        <out>10743</out>
                        <file id="file-5"/>
                        <labels>
                            <label2>Iris</label2>
                        </labels>
                    </clipitem>
                    <clipitem id="cd709e28-6d8f-481d-b10c-b5a2d3c4daac" premiereChannelType="stereo">
                        <masterclipid>masterclip-5</masterclipid>
                        <name>S02E06.Hard.Boiled.Eggy.mkv</name>
                        <enabled>TRUE</enabled>
                        <duration>17716</duration>
                        <rate>
                            <timebase>24</timebase>
                            <ntsc>FALSE</ntsc>
                        </rate>
                        <start>3930</start>
                        <end>3942</end>
                        <in>10772</in>
                        <out>10784</out>
                        <file id="file-5"/>
                        <labels>
                            <label2>Iris</label2>
                        </labels>
                    </clipitem>
                    <clipitem id="1c080f18-2ecb-4770-97fc-18e84cccb4a5" premiereChannelType="stereo">
                        <masterclipid>masterclip-5</masterclipid>
                        <name>S02E06.Hard.Boiled.Eggy.mkv</name>
                        <enabled>TRUE</enabled>
                        <duration>17716</duration>
                        <rate>
                            <timebase>24</timebase>
                            <ntsc>FALSE</ntsc>
                        </rate>
                        <start>3943</start>
                        <end>3944</end>
                        <in>16990</in>
                        <out>16991</out>
                        <file id="file-5"/>
                        <labels>
                            <label2>Iris</label2>
                        </labels>
                    </clipitem>
                    <clipitem id="38a28840-7830-482b-87fb-7a3ca3aa84ac" premiereChannelType="stereo">
                        <masterclipid>masterclip-5</masterclipid>
                        <name>S02E06.Hard.Boiled.Eggy.mkv</name>
                        <enabled>TRUE</enabled>
                        <duration>17716</duration>
                        <rate>
                            <timebase>24</timebase>
                            <ntsc>FALSE</ntsc>
                        </rate>
                        <start>3946</start>
                        <end>3957</end>
                        <in>10782</in>
                        <out>10793</out>
                        <file id="file-5"/>
                        <labels>
                            <label2>Iris</label2>
                        </labels>
                    </clipitem>
                    <clipitem id="b64413ad-e515-4672-a6c0-42c1dd6372ad" premiereChannelType="stereo">
                        <masterclipid>masterclip-5</masterclipid>
                        <name>S02E06.Hard.Boiled.Eggy.mkv</name>
                        <enabled>TRUE</enabled>
                        <duration>17716</duration>
                        <rate>
                            <timebase>24</timebase>
                            <ntsc>FALSE</ntsc>
                        </rate>
                        <start>3958</start>
                        <end>3998</end>
                        <in>10860</in>
                        <out>10900</out>
                        <file id="file-5"/>
                        <labels>
                            <label2>Iris</label2>
                        </labels>
                    </clipitem>
                    <clipitem id="1404ffa9-d6f9-4b89-9458-d4d6251bc58a" premiereChannelType="stereo">
                        <masterclipid>masterclip-5</masterclipid>
                        <name>S02E06.Hard.Boiled.Eggy.mkv</name>
                        <enabled>TRUE</enabled>
                        <duration>17716</duration>
                        <rate>
                            <timebase>24</timebase>
                            <ntsc>FALSE</ntsc>
                        </rate>
                        <start>3999</start>
                        <end>4018</end>
                        <in>11044</in>
                        <out>11063</out>
                        <file id="file-5"/>
                        <labels>
                            <label2>Iris</label2>
                        </labels>
                    </clipitem>
                    <clipitem id="59a3d9f6-23e6-4c6a-b6a0-51452764d4c0" premiereChannelType="stereo">
                        <masterclipid>masterclip-5</masterclipid>
                        <name>S02E06.Hard.Boiled.Eggy.mkv</name>
                        <enabled>TRUE</enabled>
                        <duration>17716</duration>
                        <rate>
                            <timebase>24</timebase>
                            <ntsc>FALSE</ntsc>
                        </rate>
                        <start>4019</start>
                        <end>4035</end>
                        <in>11053</in>
                        <out>11069</out>
                        <file id="file-5"/>
                        <labels>
                            <label2>Iris</label2>
                        </labels>
                    </clipitem>
                    <clipitem id="5abcbede-e570-4d9a-8612-155cedd90ce8" premiereChannelType="stereo">
                        <masterclipid>masterclip-5</masterclipid>
                        <name>S02E06.Hard.Boiled.Eggy.mkv</name>
                        <enabled>TRUE</enabled>
                        <duration>17716</duration>
                        <rate>
                            <timebase>24</timebase>
                            <ntsc>FALSE</ntsc>
                        </rate>
                        <start>4036</start>
                        <end>4049</end>
                        <in>11066</in>
                        <out>11079</out>
                        <file id="file-5"/>
                        <labels>
                            <label2>Iris</label2>
                        </labels>
                    </clipitem>
                    <clipitem id="02b2377e-22a2-4517-bea9-c34ac6ffba62" premiereChannelType="stereo">
                        <masterclipid>masterclip-5</masterclipid>
                        <name>S02E06.Hard.Boiled.Eggy.mkv</name>
                        <enabled>TRUE</enabled>
                        <duration>17716</duration>
                        <rate>
                            <timebase>24</timebase>
                            <ntsc>FALSE</ntsc>
                        </rate>
                        <start>4050</start>
                        <end>4068</end>
                        <in>11080</in>
                        <out>11098</out>
                        <file id="file-5"/>
                        <labels>
                            <label2>Iris</label2>
                        </labels>
                    </clipitem>
                    <clipitem id="57f334f8-196e-41fd-8065-1d3c399fef54" premiereChannelType="stereo">
                        <masterclipid>masterclip-5</masterclipid>
                        <name>S02E06.Hard.Boiled.Eggy.mkv</name>
                        <enabled>TRUE</enabled>
                        <duration>17716</duration>
                        <rate>
                            <timebase>24</timebase>
                            <ntsc>FALSE</ntsc>
                        </rate>
                        <start>4069</start>
                        <end>4081</end>
                        <in>11341</in>
                        <out>11353</out>
                        <file id="file-5"/>
                        <labels>
                            <label2>Iris</label2>
                        </labels>
                    </clipitem>
                    <clipitem id="701df0c5-5de5-40fd-ae6d-2a82355ca2b7" premiereChannelType="stereo">
                        <masterclipid>masterclip-5</masterclipid>
                        <name>S02E06.Hard.Boiled.Eggy.mkv</name>
                        <enabled>TRUE</enabled>
                        <duration>17716</duration>
                        <rate>
                            <timebase>24</timebase>
                            <ntsc>FALSE</ntsc>
                        </rate>
                        <start>4082</start>
                        <end>4099</end>
                        <in>11445</in>
                        <out>11462</out>
                        <file id="file-5"/>
                        <labels>
                            <label2>Iris</label2>
                        </labels>
                    </clipitem>
                    <clipitem id="414fb4ce-fef3-4365-9f55-c90d754d3d77" premiereChannelType="stereo">
                        <masterclipid>masterclip-5</masterclipid>
                        <name>S02E06.Hard.Boiled.Eggy.mkv</name>
                        <enabled>TRUE</enabled>
                        <duration>17716</duration>
                        <rate>
                            <timebase>24</timebase>
                            <ntsc>FALSE</ntsc>
                        </rate>
                        <start>4100</start>
                        <end>4111</end>
                        <in>11463</in>
                        <out>11474</out>
                        <file id="file-5"/>
                        <labels>
                            <label2>Iris</label2>
                        </labels>
                    </clipitem>
                    <clipitem id="dc63a782-575c-4fde-89c8-58338a195d9a" premiereChannelType="stereo">
                        <masterclipid>masterclip-5</masterclipid>
                        <name>S02E06.Hard.Boiled.Eggy.mkv</name>
                        <enabled>TRUE</enabled>
                        <duration>17716</duration>
                        <rate>
                            <timebase>24</timebase>
                            <ntsc>FALSE</ntsc>
                        </rate>
                        <start>4112</start>
                        <end>4123</end>
                        <in>11475</in>
                        <out>11486</out>
                        <file id="file-5"/>
                        <labels>
                            <label2>Iris</label2>
                        </labels>
                    </clipitem>
                    <clipitem id="c5e13ff5-632a-480f-b975-a6bb01e1ecfa" premiereChannelType="stereo">
                        <masterclipid>masterclip-5</masterclipid>
                        <name>S02E06.Hard.Boiled.Eggy.mkv</name>
                        <enabled>TRUE</enabled>
                        <duration>17716</duration>
                        <rate>
                            <timebase>24</timebase>
                            <ntsc>FALSE</ntsc>
                        </rate>
                        <start>4124</start>
                        <end>4135</end>
                        <in>11554</in>
                        <out>11565</out>
                        <file id="file-5"/>
                        <labels>
                            <label2>Iris</label2>
                        </labels>
                    </clipitem>
                    <clipitem id="cb08f8ea-b3eb-49a0-84d9-d810f3a3dfe2" premiereChannelType="stereo">
                        <masterclipid>masterclip-5</masterclipid>
                        <name>S02E06.Hard.Boiled.Eggy.mkv</name>
                        <enabled>TRUE</enabled>
                        <duration>17716</duration>
                        <rate>
                            <timebase>24</timebase>
                            <ntsc>FALSE</ntsc>
                        </rate>
                        <start>4142</start>
                        <end>4159</end>
                        <in>11572</in>
                        <out>11589</out>
                        <file id="file-5"/>
                        <labels>
                            <label2>Iris</label2>
                        </labels>
                    </clipitem>
                    <clipitem id="40e04fd2-4949-4301-acce-acef220e18cb" premiereChannelType="stereo">
                        <masterclipid>masterclip-5</masterclipid>
                        <name>S02E06.Hard.Boiled.Eggy.mkv</name>
                        <enabled>TRUE</enabled>
                        <duration>17716</duration>
                        <rate>
                            <timebase>24</timebase>
                            <ntsc>FALSE</ntsc>
                        </rate>
                        <start>4160</start>
                        <end>4194</end>
                        <in>11788</in>
                        <out>11822</out>
                        <file id="file-5"/>
                        <labels>
                            <label2>Iris</label2>
                        </labels>
                    </clipitem>
                    <clipitem id="067dbbbe-a7ef-4b14-8fbb-a2f4178d9a9d" premiereChannelType="stereo">
                        <masterclipid>masterclip-5</masterclipid>
                        <name>S02E06.Hard.Boiled.Eggy.mkv</name>
                        <enabled>TRUE</enabled>
                        <duration>17716</duration>
                        <rate>
                            <timebase>24</timebase>
                            <ntsc>FALSE</ntsc>
                        </rate>
                        <start>4195</start>
                        <end>4210</end>
                        <in>11881</in>
                        <out>11896</out>
                        <file id="file-5"/>
                        <labels>
                            <label2>Iris</label2>
                        </labels>
                    </clipitem>
                    <clipitem id="7c02dc35-4792-4d25-8392-7d976a660054" premiereChannelType="stereo">
                        <masterclipid>masterclip-5</masterclipid>
                        <name>S02E06.Hard.Boiled.Eggy.mkv</name>
                        <enabled>TRUE</enabled>
                        <duration>17716</duration>
                        <rate>
                            <timebase>24</timebase>
                            <ntsc>FALSE</ntsc>
                        </rate>
                        <start>4211</start>
                        <end>4227</end>
                        <in>11896</in>
                        <out>11912</out>
                        <file id="file-5"/>
                        <labels>
                            <label2>Iris</label2>
                        </labels>
                    </clipitem>
                    <clipitem id="d251f72d-9ea0-4136-9898-3b20bafbbdd9" premiereChannelType="stereo">
                        <masterclipid>masterclip-5</masterclipid>
                        <name>S02E06.Hard.Boiled.Eggy.mkv</name>
                        <enabled>TRUE</enabled>
                        <duration>17716</duration>
                        <rate>
                            <timebase>24</timebase>
                            <ntsc>FALSE</ntsc>
                        </rate>
                        <start>4228</start>
                        <end>4283</end>
                        <in>11958</in>
                        <out>12013</out>
                        <file id="file-5"/>
                        <labels>
                            <label2>Iris</label2>
                        </labels>
                    </clipitem>
                    <clipitem id="a81bc64c-1bc1-4f06-88d1-09a25765d012" premiereChannelType="stereo">
                        <masterclipid>masterclip-5</masterclipid>
                        <name>S02E06.Hard.Boiled.Eggy.mkv</name>
                        <enabled>TRUE</enabled>
                        <duration>17716</duration>
                        <rate>
                            <timebase>24</timebase>
                            <ntsc>FALSE</ntsc>
                        </rate>
                        <start>4284</start>
                        <end>4312</end>
                        <in>12013</in>
                        <out>12041</out>
                        <file id="file-5"/>
                        <labels>
                            <label2>Iris</label2>
                        </labels>
                    </clipitem>
                    <clipitem id="77fe5aeb-a1c2-4dc1-bf51-8d5dacdf8ed7" premiereChannelType="stereo">
                        <masterclipid>masterclip-5</masterclipid>
                        <name>S02E06.Hard.Boiled.Eggy.mkv</name>
                        <enabled>TRUE</enabled>
                        <duration>17716</duration>
                        <rate>
                            <timebase>24</timebase>
                            <ntsc>FALSE</ntsc>
                        </rate>
                        <start>4313</start>
                        <end>4419</end>
                        <in>12043</in>
                        <out>12149</out>
                        <file id="file-5"/>
                        <labels>
                            <label2>Iris</label2>
                        </labels>
                    </clipitem>
                    <clipitem id="5b2f920c-2dd5-4050-8a10-5925f4d5a5bf" premiereChannelType="stereo">
                        <masterclipid>masterclip-5</masterclipid>
                        <name>S02E06.Hard.Boiled.Eggy.mkv</name>
                        <enabled>TRUE</enabled>
                        <duration>17716</duration>
                        <rate>
                            <timebase>24</timebase>
                            <ntsc>FALSE</ntsc>
                        </rate>
                        <start>4420</start>
                        <end>4440</end>
                        <in>12150</in>
                        <out>12170</out>
                        <file id="file-5"/>
                        <labels>
                            <label2>Iris</label2>
                        </labels>
                    </clipitem>
                    <clipitem id="2fba4286-827e-4a63-8a7f-49fa5e8e384d" premiereChannelType="stereo">
                        <masterclipid>masterclip-5</masterclipid>
                        <name>S02E06.Hard.Boiled.Eggy.mkv</name>
                        <enabled>TRUE</enabled>
                        <duration>17716</duration>
                        <rate>
                            <timebase>24</timebase>
                            <ntsc>FALSE</ntsc>
                        </rate>
                        <start>4441</start>
                        <end>4463</end>
                        <in>12186</in>
                        <out>12208</out>
                        <file id="file-5"/>
                        <labels>
                            <label2>Iris</label2>
                        </labels>
                    </clipitem>
                    <clipitem id="39f3a7fe-9f5a-425b-8798-a31877bbda02" premiereChannelType="stereo">
                        <masterclipid>masterclip-5</masterclipid>
                        <name>S02E06.Hard.Boiled.Eggy.mkv</name>
                        <enabled>TRUE</enabled>
                        <duration>17716</duration>
                        <rate>
                            <timebase>24</timebase>
                            <ntsc>FALSE</ntsc>
                        </rate>
                        <start>4464</start>
                        <end>4475</end>
                        <in>12244</in>
                        <out>12255</out>
                        <file id="file-5"/>
                        <labels>
                            <label2>Iris</label2>
                        </labels>
                    </clipitem>
                    <clipitem id="76b0de0c-1bea-41e3-8b90-105f61f1d59e" premiereChannelType="stereo">
                        <masterclipid>masterclip-5</masterclipid>
                        <name>S02E06.Hard.Boiled.Eggy.mkv</name>
                        <enabled>TRUE</enabled>
                        <duration>17716</duration>
                        <rate>
                            <timebase>24</timebase>
                            <ntsc>FALSE</ntsc>
                        </rate>
                        <start>4476</start>
                        <end>4487</end>
                        <in>12256</in>
                        <out>12267</out>
                        <file id="file-5"/>
                        <labels>
                            <label2>Iris</label2>
                        </labels>
                    </clipitem>
                    <clipitem id="4318e504-ac75-4473-ba5e-d210335d7371" premiereChannelType="stereo">
                        <masterclipid>masterclip-5</masterclipid>
                        <name>S02E06.Hard.Boiled.Eggy.mkv</name>
                        <enabled>TRUE</enabled>
                        <duration>17716</duration>
                        <rate>
                            <timebase>24</timebase>
                            <ntsc>FALSE</ntsc>
                        </rate>
                        <start>4488</start>
                        <end>4500</end>
                        <in>12535</in>
                        <out>12547</out>
                        <file id="file-5"/>
                        <labels>
                            <label2>Iris</label2>
                        </labels>
                    </clipitem>
                    <clipitem id="08815259-0ea8-4aff-9c39-9e45df9cf640" premiereChannelType="stereo">
                        <masterclipid>masterclip-5</masterclipid>
                        <name>S02E06.Hard.Boiled.Eggy.mkv</name>
                        <enabled>TRUE</enabled>
                        <duration>17716</duration>
                        <rate>
                            <timebase>24</timebase>
                            <ntsc>FALSE</ntsc>
                        </rate>
                        <start>4501</start>
                        <end>4512</end>
                        <in>12548</in>
                        <out>12559</out>
                        <file id="file-5"/>
                        <labels>
                            <label2>Iris</label2>
                        </labels>
                    </clipitem>
                    <clipitem id="ff9b5739-e4b2-4753-ac61-53ec3141c3cf" premiereChannelType="stereo">
                        <masterclipid>masterclip-5</masterclipid>
                        <name>S02E06.Hard.Boiled.Eggy.mkv</name>
                        <enabled>TRUE</enabled>
                        <duration>17716</duration>
                        <rate>
                            <timebase>24</timebase>
                            <ntsc>FALSE</ntsc>
                        </rate>
                        <start>4513</start>
                        <end>4524</end>
                        <in>12560</in>
                        <out>12571</out>
                        <file id="file-5"/>
                        <labels>
                            <label2>Iris</label2>
                        </labels>
                    </clipitem>
                    <clipitem id="49ce4aff-0167-4920-9779-dd87e8212c3c" premiereChannelType="stereo">
                        <masterclipid>masterclip-5</masterclipid>
                        <name>S02E06.Hard.Boiled.Eggy.mkv</name>
                        <enabled>TRUE</enabled>
                        <duration>17716</duration>
                        <rate>
                            <timebase>24</timebase>
                            <ntsc>FALSE</ntsc>
                        </rate>
                        <start>4525</start>
                        <end>4553</end>
                        <in>12730</in>
                        <out>12758</out>
                        <file id="file-5"/>
                        <labels>
                            <label2>Iris</label2>
                        </labels>
                    </clipitem>
                    <clipitem id="23913ae2-a026-42c6-a661-bf5e35c04122" premiereChannelType="stereo">
                        <masterclipid>masterclip-5</masterclipid>
                        <name>S02E06.Hard.Boiled.Eggy.mkv</name>
                        <enabled>TRUE</enabled>
                        <duration>17716</duration>
                        <rate>
                            <timebase>24</timebase>
                            <ntsc>FALSE</ntsc>
                        </rate>
                        <start>4554</start>
                        <end>4592</end>
                        <in>12794</in>
                        <out>12832</out>
                        <file id="file-5"/>
                        <labels>
                            <label2>Iris</label2>
                        </labels>
                    </clipitem>
                    <clipitem id="f8ebd5d7-b166-461b-92da-58cd37c2edee" premiereChannelType="stereo">
                        <masterclipid>masterclip-5</masterclipid>
                        <name>S02E06.Hard.Boiled.Eggy.mkv</name>
                        <enabled>TRUE</enabled>
                        <duration>17716</duration>
                        <rate>
                            <timebase>24</timebase>
                            <ntsc>FALSE</ntsc>
                        </rate>
                        <start>4593</start>
                        <end>4614</end>
                        <in>13020</in>
                        <out>13041</out>
                        <file id="file-5"/>
                        <labels>
                            <label2>Iris</label2>
                        </labels>
                    </clipitem>
                    <clipitem id="6ee01d5a-ee00-4754-8f99-ce4a9fa715fb" premiereChannelType="stereo">
                        <masterclipid>masterclip-5</masterclipid>
                        <name>S02E06.Hard.Boiled.Eggy.mkv</name>
                        <enabled>TRUE</enabled>
                        <duration>17716</duration>
                        <rate>
                            <timebase>24</timebase>
                            <ntsc>FALSE</ntsc>
                        </rate>
                        <start>4615</start>
                        <end>4643</end>
                        <in>13040</in>
                        <out>13068</out>
                        <file id="file-5"/>
                        <labels>
                            <label2>Iris</label2>
                        </labels>
                    </clipitem>
                    <clipitem id="cbdb9a45-5eec-464b-8542-acbe3ac7c341" premiereChannelType="stereo">
                        <masterclipid>masterclip-5</masterclipid>
                        <name>S02E06.Hard.Boiled.Eggy.mkv</name>
                        <enabled>TRUE</enabled>
                        <duration>17716</duration>
                        <rate>
                            <timebase>24</timebase>
                            <ntsc>FALSE</ntsc>
                        </rate>
                        <start>4644</start>
                        <end>4677</end>
                        <in>13179</in>
                        <out>13212</out>
                        <file id="file-5"/>
                        <labels>
                            <label2>Iris</label2>
                        </labels>
                    </clipitem>
                    <clipitem id="1db1810c-8e06-4a09-a24c-dca63bc7682e" premiereChannelType="stereo">
                        <masterclipid>masterclip-5</masterclipid>
                        <name>S02E06.Hard.Boiled.Eggy.mkv</name>
                        <enabled>TRUE</enabled>
                        <duration>17716</duration>
                        <rate>
                            <timebase>24</timebase>
                            <ntsc>FALSE</ntsc>
                        </rate>
                        <start>4678</start>
                        <end>4689</end>
                        <in>13408</in>
                        <out>13419</out>
                        <file id="file-5"/>
                        <labels>
                            <label2>Iris</label2>
                        </labels>
                    </clipitem>
                    <clipitem id="cccd4088-c9b1-4c95-bbb9-1583de34daf4" premiereChannelType="stereo">
                        <masterclipid>masterclip-5</masterclipid>
                        <name>S02E06.Hard.Boiled.Eggy.mkv</name>
                        <enabled>TRUE</enabled>
                        <duration>17716</duration>
                        <rate>
                            <timebase>24</timebase>
                            <ntsc>FALSE</ntsc>
                        </rate>
                        <start>4690</start>
                        <end>4701</end>
                        <in>13421</in>
                        <out>13432</out>
                        <file id="file-5"/>
                        <labels>
                            <label2>Iris</label2>
                        </labels>
                    </clipitem>
                    <clipitem id="9bda99fb-5ba2-43b2-ab6b-105042010f57" premiereChannelType="stereo">
                        <masterclipid>masterclip-5</masterclipid>
                        <name>S02E06.Hard.Boiled.Eggy.mkv</name>
                        <enabled>TRUE</enabled>
                        <duration>17716</duration>
                        <rate>
                            <timebase>24</timebase>
                            <ntsc>FALSE</ntsc>
                        </rate>
                        <start>4702</start>
                        <end>4721</end>
                        <in>13433</in>
                        <out>13452</out>
                        <file id="file-5"/>
                        <labels>
                            <label2>Iris</label2>
                        </labels>
                    </clipitem>
                    <clipitem id="fffa0e61-899c-40c3-9509-6a54d9769892" premiereChannelType="stereo">
                        <masterclipid>masterclip-5</masterclipid>
                        <name>S02E06.Hard.Boiled.Eggy.mkv</name>
                        <enabled>TRUE</enabled>
                        <duration>17716</duration>
                        <rate>
                            <timebase>24</timebase>
                            <ntsc>FALSE</ntsc>
                        </rate>
                        <start>4722</start>
                        <end>4741</end>
                        <in>13453</in>
                        <out>13472</out>
                        <file id="file-5"/>
                        <labels>
                            <label2>Iris</label2>
                        </labels>
                    </clipitem>
                    <clipitem id="0e15bbc0-7f47-4c97-99d9-da1330d14ab2" premiereChannelType="stereo">
                        <masterclipid>masterclip-5</masterclipid>
                        <name>S02E06.Hard.Boiled.Eggy.mkv</name>
                        <enabled>TRUE</enabled>
                        <duration>17716</duration>
                        <rate>
                            <timebase>24</timebase>
                            <ntsc>FALSE</ntsc>
                        </rate>
                        <start>4742</start>
                        <end>4777</end>
                        <in>13774</in>
                        <out>13809</out>
                        <file id="file-5"/>
                        <labels>
                            <label2>Iris</label2>
                        </labels>
                    </clipitem>
                    <clipitem id="07eecbf9-c0af-4d05-8f39-8aedce290409" premiereChannelType="stereo">
                        <masterclipid>masterclip-5</masterclipid>
                        <name>S02E06.Hard.Boiled.Eggy.mkv</name>
                        <enabled>TRUE</enabled>
                        <duration>17716</duration>
                        <rate>
                            <timebase>24</timebase>
                            <ntsc>FALSE</ntsc>
                        </rate>
                        <start>4778</start>
                        <end>4891</end>
                        <in>13912</in>
                        <out>14025</out>
                        <file id="file-5"/>
                        <labels>
                            <label2>Iris</label2>
                        </labels>
                    </clipitem>
                    <clipitem id="4e8f5dcb-a8b3-4abe-8a14-0ccd47ae51e7" premiereChannelType="stereo">
                        <masterclipid>masterclip-5</masterclipid>
                        <name>S02E06.Hard.Boiled.Eggy.mkv</name>
                        <enabled>TRUE</enabled>
                        <duration>17716</duration>
                        <rate>
                            <timebase>24</timebase>
                            <ntsc>FALSE</ntsc>
                        </rate>
                        <start>4892</start>
                        <end>4913</end>
                        <in>14050</in>
                        <out>14071</out>
                        <file id="file-5"/>
                        <labels>
                            <label2>Iris</label2>
                        </labels>
                    </clipitem>
                    <clipitem id="59fa84d7-ce73-496c-aff8-801935d12d5f" premiereChannelType="stereo">
                        <masterclipid>masterclip-5</masterclipid>
                        <name>S02E06.Hard.Boiled.Eggy.mkv</name>
                        <enabled>TRUE</enabled>
                        <duration>17716</duration>
                        <rate>
                            <timebase>24</timebase>
                            <ntsc>FALSE</ntsc>
                        </rate>
                        <start>4914</start>
                        <end>4943</end>
                        <in>14072</in>
                        <out>14101</out>
                        <file id="file-5"/>
                        <labels>
                            <label2>Iris</label2>
                        </labels>
                    </clipitem>
                    <clipitem id="4863b439-2c25-442b-b9e0-18bdffcd2191" premiereChannelType="stereo">
                        <masterclipid>masterclip-5</masterclipid>
                        <name>S02E06.Hard.Boiled.Eggy.mkv</name>
                        <enabled>TRUE</enabled>
                        <duration>17716</duration>
                        <rate>
                            <timebase>24</timebase>
                            <ntsc>FALSE</ntsc>
                        </rate>
                        <start>4944</start>
                        <end>4971</end>
                        <in>14102</in>
                        <out>14129</out>
                        <file id="file-5"/>
                        <labels>
                            <label2>Iris</label2>
                        </labels>
                    </clipitem>
                    <clipitem id="1e9aefc9-18ca-4783-a01e-c577a98f1f35" premiereChannelType="stereo">
                        <masterclipid>masterclip-5</masterclipid>
                        <name>S02E06.Hard.Boiled.Eggy.mkv</name>
                        <enabled>TRUE</enabled>
                        <duration>17716</duration>
                        <rate>
                            <timebase>24</timebase>
                            <ntsc>FALSE</ntsc>
                        </rate>
                        <start>4972</start>
                        <end>4992</end>
                        <in>14130</in>
                        <out>14150</out>
                        <file id="file-5"/>
                        <labels>
                            <label2>Iris</label2>
                        </labels>
                    </clipitem>
                    <clipitem id="02f40b6b-047f-4092-a5f9-a0e93dfcc948" premiereChannelType="stereo">
                        <masterclipid>masterclip-5</masterclipid>
                        <name>S02E06.Hard.Boiled.Eggy.mkv</name>
                        <enabled>TRUE</enabled>
                        <duration>17716</duration>
                        <rate>
                            <timebase>24</timebase>
                            <ntsc>FALSE</ntsc>
                        </rate>
                        <start>4993</start>
                        <end>5011</end>
                        <in>14170</in>
                        <out>14188</out>
                        <file id="file-5"/>
                        <labels>
                            <label2>Iris</label2>
                        </labels>
                    </clipitem>
                    <clipitem id="02943488-0ef6-4e75-999c-2ccf9a55a0f1" premiereChannelType="stereo">
                        <masterclipid>masterclip-5</masterclipid>
                        <name>S02E06.Hard.Boiled.Eggy.mkv</name>
                        <enabled>TRUE</enabled>
                        <duration>17716</duration>
                        <rate>
                            <timebase>24</timebase>
                            <ntsc>FALSE</ntsc>
                        </rate>
                        <start>5012</start>
                        <end>5026</end>
                        <in>14189</in>
                        <out>14203</out>
                        <file id="file-5"/>
                        <labels>
                            <label2>Iris</label2>
                        </labels>
                    </clipitem>
                    <clipitem id="794a95b3-7776-4d62-a769-3b576ae1493b" premiereChannelType="stereo">
                        <masterclipid>masterclip-5</masterclipid>
                        <name>S02E06.Hard.Boiled.Eggy.mkv</name>
                        <enabled>TRUE</enabled>
                        <duration>17716</duration>
                        <rate>
                            <timebase>24</timebase>
                            <ntsc>FALSE</ntsc>
                        </rate>
                        <start>5027</start>
                        <end>5102</end>
                        <in>14262</in>
                        <out>14337</out>
                        <file id="file-5"/>
                        <labels>
                            <label2>Iris</label2>
                        </labels>
                    </clipitem>
                    <clipitem id="bc565b1f-91bd-4139-be0b-b63ef56ce5b0" premiereChannelType="stereo">
                        <masterclipid>masterclip-5</masterclipid>
                        <name>S02E06.Hard.Boiled.Eggy.mkv</name>
                        <enabled>TRUE</enabled>
                        <duration>17716</duration>
                        <rate>
                            <timebase>24</timebase>
                            <ntsc>FALSE</ntsc>
                        </rate>
                        <start>5103</start>
                        <end>5115</end>
                        <in>14427</in>
                        <out>14439</out>
                        <file id="file-5"/>
                        <labels>
                            <label2>Iris</label2>
                        </labels>
                    </clipitem>
                    <clipitem id="ccdbb8b8-c836-4859-bf5e-8caeb5e3e15c" premiereChannelType="stereo">
                        <masterclipid>masterclip-5</masterclipid>
                        <name>S02E06.Hard.Boiled.Eggy.mkv</name>
                        <enabled>TRUE</enabled>
                        <duration>17716</duration>
                        <rate>
                            <timebase>24</timebase>
                            <ntsc>FALSE</ntsc>
                        </rate>
                        <start>5116</start>
                        <end>5131</end>
                        <in>14431</in>
                        <out>14446</out>
                        <file id="file-5"/>
                        <labels>
                            <label2>Iris</label2>
                        </labels>
                    </clipitem>
                    <clipitem id="b4f78c1c-86e8-4fe6-ab01-dfc5c463926d" premiereChannelType="stereo">
                        <masterclipid>masterclip-5</masterclipid>
                        <name>S02E06.Hard.Boiled.Eggy.mkv</name>
                        <enabled>TRUE</enabled>
                        <duration>17716</duration>
                        <rate>
                            <timebase>24</timebase>
                            <ntsc>FALSE</ntsc>
                        </rate>
                        <start>5132</start>
                        <end>5143</end>
                        <in>14366</in>
                        <out>14377</out>
                        <file id="file-5"/>
                        <labels>
                            <label2>Iris</label2>
                        </labels>
                    </clipitem>
                    <clipitem id="50d5b003-6045-410b-847d-575d1cfa9f2b" premiereChannelType="stereo">
                        <masterclipid>masterclip-5</masterclipid>
                        <name>S02E06.Hard.Boiled.Eggy.mkv</name>
                        <enabled>TRUE</enabled>
                        <duration>17716</duration>
                        <rate>
                            <timebase>24</timebase>
                            <ntsc>FALSE</ntsc>
                        </rate>
                        <start>5144</start>
                        <end>5162</end>
                        <in>14748</in>
                        <out>14766</out>
                        <file id="file-5"/>
                        <labels>
                            <label2>Iris</label2>
                        </labels>
                    </clipitem>
                    <clipitem id="f986cb61-a5b9-4080-8768-f2ada62998df" premiereChannelType="stereo">
                        <masterclipid>masterclip-5</masterclipid>
                        <name>S02E06.Hard.Boiled.Eggy.mkv</name>
                        <enabled>TRUE</enabled>
                        <duration>17716</duration>
                        <rate>
                            <timebase>24</timebase>
                            <ntsc>FALSE</ntsc>
                        </rate>
                        <start>5163</start>
                        <end>5188</end>
                        <in>14750</in>
                        <out>14775</out>
                        <file id="file-5"/>
                        <labels>
                            <label2>Iris</label2>
                        </labels>
                    </clipitem>
                    <clipitem id="0e8d4a7c-0730-4f50-992c-b0202c8347d5" premiereChannelType="stereo">
                        <masterclipid>masterclip-5</masterclipid>
                        <name>S02E06.Hard.Boiled.Eggy.mkv</name>
                        <enabled>TRUE</enabled>
                        <duration>17716</duration>
                        <rate>
                            <timebase>24</timebase>
                            <ntsc>FALSE</ntsc>
                        </rate>
                        <start>5189</start>
                        <end>5301</end>
                        <in>14818</in>
                        <out>14930</out>
                        <file id="file-5"/>
                        <labels>
                            <label2>Iris</label2>
                        </labels>
                    </clipitem>
                    <clipitem id="9e8e58e2-7ea9-4635-a71a-f3fb4627f20b" premiereChannelType="stereo">
                        <masterclipid>masterclip-5</masterclipid>
                        <name>S02E06.Hard.Boiled.Eggy.mkv</name>
                        <enabled>TRUE</enabled>
                        <duration>17716</duration>
                        <rate>
                            <timebase>24</timebase>
                            <ntsc>FALSE</ntsc>
                        </rate>
                        <start>5302</start>
                        <end>5314</end>
                        <in>14931</in>
                        <out>14943</out>
                        <file id="file-5"/>
                        <labels>
                            <label2>Iris</label2>
                        </labels>
                    </clipitem>
                    <clipitem id="8d696054-93bc-48f6-83bd-756a1123d8a2" premiereChannelType="stereo">
                        <masterclipid>masterclip-5</masterclipid>
                        <name>S02E06.Hard.Boiled.Eggy.mkv</name>
                        <enabled>TRUE</enabled>
                        <duration>17716</duration>
                        <rate>
                            <timebase>24</timebase>
                            <ntsc>FALSE</ntsc>
                        </rate>
                        <start>5315</start>
                        <end>5347</end>
                        <in>14944</in>
                        <out>14976</out>
                        <file id="file-5"/>
                        <labels>
                            <label2>Iris</label2>
                        </labels>
                    </clipitem>
                    <clipitem id="d590fb0c-b8b8-4f17-a952-20e4829953f8" premiereChannelType="stereo">
                        <masterclipid>masterclip-5</masterclipid>
                        <name>S02E06.Hard.Boiled.Eggy.mkv</name>
                        <enabled>TRUE</enabled>
                        <duration>17716</duration>
                        <rate>
                            <timebase>24</timebase>
                            <ntsc>FALSE</ntsc>
                        </rate>
                        <start>5348</start>
                        <end>5415</end>
                        <in>14978</in>
                        <out>15045</out>
                        <file id="file-5"/>
                        <labels>
                            <label2>Iris</label2>
                        </labels>
                    </clipitem>
                    <clipitem id="71ff7971-5a1c-4e0b-86d3-0085c43f7928" premiereChannelType="stereo">
                        <masterclipid>masterclip-5</masterclipid>
                        <name>S02E06.Hard.Boiled.Eggy.mkv</name>
                        <enabled>TRUE</enabled>
                        <duration>17716</duration>
                        <rate>
                            <timebase>24</timebase>
                            <ntsc>FALSE</ntsc>
                        </rate>
                        <start>5416</start>
                        <end>5430</end>
                        <in>15051</in>
                        <out>15065</out>
                        <file id="file-5"/>
                        <labels>
                            <label2>Iris</label2>
                        </labels>
                    </clipitem>
                    <clipitem id="910a1975-7921-4c53-9948-23cfe5d3c522" premiereChannelType="stereo">
                        <masterclipid>masterclip-5</masterclipid>
                        <name>S02E06.Hard.Boiled.Eggy.mkv</name>
                        <enabled>TRUE</enabled>
                        <duration>17716</duration>
                        <rate>
                            <timebase>24</timebase>
                            <ntsc>FALSE</ntsc>
                        </rate>
                        <start>5431</start>
                        <end>5465</end>
                        <in>15283</in>
                        <out>15317</out>
                        <file id="file-5"/>
                        <labels>
                            <label2>Iris</label2>
                        </labels>
                    </clipitem>
                    <clipitem id="e3b70842-2abd-44fe-a702-dbe8ed53a49a" premiereChannelType="stereo">
                        <masterclipid>masterclip-5</masterclipid>
                        <name>S02E06.Hard.Boiled.Eggy.mkv</name>
                        <enabled>TRUE</enabled>
                        <duration>17716</duration>
                        <rate>
                            <timebase>24</timebase>
                            <ntsc>FALSE</ntsc>
                        </rate>
                        <start>5466</start>
                        <end>5499</end>
                        <in>15501</in>
                        <out>15534</out>
                        <file id="file-5"/>
                        <labels>
                            <label2>Iris</label2>
                        </labels>
                    </clipitem>
                    <clipitem id="fba28a3f-e32b-4014-b398-6b428443be8b" premiereChannelType="stereo">
                        <masterclipid>masterclip-5</masterclipid>
                        <name>S02E06.Hard.Boiled.Eggy.mkv</name>
                        <enabled>TRUE</enabled>
                        <duration>17716</duration>
                        <rate>
                            <timebase>24</timebase>
                            <ntsc>FALSE</ntsc>
                        </rate>
                        <start>5500</start>
                        <end>5580</end>
                        <in>15535</in>
                        <out>15615</out>
                        <file id="file-5"/>
                        <labels>
                            <label2>Iris</label2>
                        </labels>
                    </clipitem>
                    <clipitem id="e8286b80-575c-4373-9a6e-6f856a123785" premiereChannelType="stereo">
                        <masterclipid>masterclip-5</masterclipid>
                        <name>S02E06.Hard.Boiled.Eggy.mkv</name>
                        <enabled>TRUE</enabled>
                        <duration>17716</duration>
                        <rate>
                            <timebase>24</timebase>
                            <ntsc>FALSE</ntsc>
                        </rate>
                        <start>5581</start>
                        <end>5617</end>
                        <in>15616</in>
                        <out>15652</out>
                        <file id="file-5"/>
                        <labels>
                            <label2>Iris</label2>
                        </labels>
                    </clipitem>
                    <clipitem id="5c1724c4-0788-4aca-bacc-1891704b9d2c" premiereChannelType="stereo">
                        <masterclipid>masterclip-5</masterclipid>
                        <name>S02E06.Hard.Boiled.Eggy.mkv</name>
                        <enabled>TRUE</enabled>
                        <duration>17716</duration>
                        <rate>
                            <timebase>24</timebase>
                            <ntsc>FALSE</ntsc>
                        </rate>
                        <start>5618</start>
                        <end>5634</end>
                        <in>15653</in>
                        <out>15669</out>
                        <file id="file-5"/>
                        <labels>
                            <label2>Iris</label2>
                        </labels>
                    </clipitem>
                    <enabled>TRUE</enabled>
                    <locked>FALSE</locked>
                </track>
                <track TL.SQTrackShy="0" TL.SQTrackExpandedHeight="25" TL.SQTrackExpanded="0" MZ.TrackTargeted="0">
                    <enabled>TRUE</enabled>
                    <locked>FALSE</locked>
                </track>
            </video>
            <audio>
                <numOutputChannels>2</numOutputChannels>
                <format>
                    <samplecharacteristics>
                        <depth>16</depth>
                        <samplerate>48000</samplerate>
                    </samplecharacteristics>
                </format>
                <outputs>
                    <group>
                        <index>1</index>
                        <numchannels>1</numchannels>
                        <downmix>0</downmix>
                        <channel>
                            <index>1</index>
                        </channel>
                    </group>
                    <group>
                        <index>2</index>
                        <numchannels>1</numchannels>
                        <downmix>0</downmix>
                        <channel>
                            <index>2</index>
                        </channel>
                    </group>
                </outputs>
                <track TL.SQTrackAudioKeyframeStyle="0" TL.SQTrackShy="0" TL.SQTrackExpandedHeight="25"
                       TL.SQTrackExpanded="0" MZ.TrackTargeted="1" PannerCurrentValue="0.5"
                       PannerStartKeyframe="-91445760000000000,0.5,0,0,0,0,0,0" PannerName="Balance"
                       currentExplodedTrackIndex="0" totalExplodedTrackCount="2" premiereTrackType="Stereo">
                    <clipitem id="clipitem-12" premiereChannelType="stereo">
                        <masterclipid>masterclip-4</masterclipid>
                        <name>企鹅特工孵化鸭子，用训练作为胎教，结果鸭子一出生就成为特工@不正经的小酥肉.mp4</name>
                        <enabled>TRUE</enabled>
                        <duration>5634</duration>
                        <rate>
                            <timebase>25</timebase>
                            <ntsc>FALSE</ntsc>
                        </rate>
                        <start>0</start>
                        <end>5634</end>
                        <in>0</in>
                        <out>5634</out>
                        <pproTicksIn>0</pproTicksIn>
                        <pproTicksOut>57245045760000</pproTicksOut>
                        <file id="file-4"/>
                        <sourcetrack>
                            <mediatype>audio</mediatype>
                            <trackindex>1</trackindex>
                        </sourcetrack>
                        <link>
                            <linkclipref>clipitem-10</linkclipref>
                            <mediatype>video</mediatype>
                            <trackindex>1</trackindex>
                            <clipindex>1</clipindex>
                        </link>
                        <link>
                            <linkclipref>clipitem-12</linkclipref>
                            <mediatype>audio</mediatype>
                            <trackindex>1</trackindex>
                            <clipindex>1</clipindex>
                            <groupindex>1</groupindex>
                        </link>
                        <link>
                            <linkclipref>clipitem-13</linkclipref>
                            <mediatype>audio</mediatype>
                            <trackindex>2</trackindex>
                            <clipindex>1</clipindex>
                            <groupindex>1</groupindex>
                        </link>
                        <logginginfo>
                            <description></description>
                            <scene></scene>
                            <shottake></shottake>
                            <lognote></lognote>
                            <good></good>
                            <originalvideofilename></originalvideofilename>
                            <originalaudiofilename></originalaudiofilename>
                        </logginginfo>
                        <colorinfo>
                            <lut></lut>
                            <lut1></lut1>
                            <asc_sop></asc_sop>
                            <asc_sat></asc_sat>
                            <lut2></lut2>
                        </colorinfo>
                        <labels>
                            <label2>Iris</label2>
                        </labels>
                    </clipitem>
                    <enabled>TRUE</enabled>
                    <locked>FALSE</locked>
                    <outputchannelindex>1</outputchannelindex>
                </track>
                <track TL.SQTrackAudioKeyframeStyle="0" TL.SQTrackShy="0" TL.SQTrackExpandedHeight="25"
                       TL.SQTrackExpanded="0" MZ.TrackTargeted="1" PannerCurrentValue="0.5"
                       PannerStartKeyframe="-91445760000000000,0.5,0,0,0,0,0,0" PannerName="Balance"
                       currentExplodedTrackIndex="1" totalExplodedTrackCount="2" premiereTrackType="Stereo">
                    <clipitem id="clipitem-13" premiereChannelType="stereo">
                        <masterclipid>masterclip-4</masterclipid>
                        <name>企鹅特工孵化鸭子，用训练作为胎教，结果鸭子一出生就成为特工@不正经的小酥肉.mp4</name>
                        <enabled>TRUE</enabled>
                        <duration>5634</duration>
                        <rate>
                            <timebase>25</timebase>
                            <ntsc>FALSE</ntsc>
                        </rate>
                        <start>0</start>
                        <end>5634</end>
                        <in>0</in>
                        <out>5634</out>
                        <pproTicksIn>0</pproTicksIn>
                        <pproTicksOut>57245045760000</pproTicksOut>
                        <file id="file-4"/>
                        <sourcetrack>
                            <mediatype>audio</mediatype>
                            <trackindex>2</trackindex>
                        </sourcetrack>
                        <link>
                            <linkclipref>clipitem-10</linkclipref>
                            <mediatype>video</mediatype>
                            <trackindex>1</trackindex>
                            <clipindex>1</clipindex>
                        </link>
                        <link>
                            <linkclipref>clipitem-12</linkclipref>
                            <mediatype>audio</mediatype>
                            <trackindex>1</trackindex>
                            <clipindex>1</clipindex>
                            <groupindex>1</groupindex>
                        </link>
                        <link>
                            <linkclipref>clipitem-13</linkclipref>
                            <mediatype>audio</mediatype>
                            <trackindex>2</trackindex>
                            <clipindex>1</clipindex>
                            <groupindex>1</groupindex>
                        </link>
                        <logginginfo>
                            <description></description>
                            <scene></scene>
                            <shottake></shottake>
                            <lognote></lognote>
                            <good></good>
                            <originalvideofilename></originalvideofilename>
                            <originalaudiofilename></originalaudiofilename>
                        </logginginfo>
                        <colorinfo>
                            <lut></lut>
                            <lut1></lut1>
                            <asc_sop></asc_sop>
                            <asc_sat></asc_sat>
                            <lut2></lut2>
                        </colorinfo>
                        <labels>
                            <label2>Iris</label2>
                        </labels>
                    </clipitem>
                    <enabled>TRUE</enabled>
                    <locked>FALSE</locked>
                    <outputchannelindex>2</outputchannelindex>
                </track>
                <track TL.SQTrackAudioKeyframeStyle="0" TL.SQTrackShy="0" TL.SQTrackExpandedHeight="25"
                       TL.SQTrackExpanded="0" MZ.TrackTargeted="1" PannerCurrentValue="0.5"
                       PannerStartKeyframe="-91445760000000000,0.5,0,0,0,0,0,0" PannerName="Balance"
                       currentExplodedTrackIndex="0" totalExplodedTrackCount="2" premiereTrackType="Stereo">
                    <clipitem id="clipitem-14" premiereChannelType="stereo">
                        <masterclipid>masterclip-5</masterclipid>
                        <name>S02E06.Hard.Boiled.Eggy.mkv</name>
                        <enabled>TRUE</enabled>
                        <duration>17716</duration>
                        <rate>
                            <timebase>25</timebase>
                            <ntsc>FALSE</ntsc>
                        </rate>
                        <start>0</start>
                        <end>17716</end>
                        <in>0</in>
                        <out>17716</out>
                        <pproTicksIn>0</pproTicksIn>
                        <pproTicksOut>180005898240000</pproTicksOut>
                        <file id="file-5"/>
                        <sourcetrack>
                            <mediatype>audio</mediatype>
                            <trackindex>1</trackindex>
                        </sourcetrack>
                        <link>
                            <linkclipref>clipitem-14</linkclipref>
                            <mediatype>audio</mediatype>
                            <trackindex>3</trackindex>
                            <clipindex>1</clipindex>
                            <groupindex>1</groupindex>
                        </link>
                        <link>
                            <linkclipref>clipitem-15</linkclipref>
                            <mediatype>audio</mediatype>
                            <trackindex>4</trackindex>
                            <clipindex>1</clipindex>
                            <groupindex>1</groupindex>
                        </link>
                        <logginginfo>
                            <description></description>
                            <scene></scene>
                            <shottake></shottake>
                            <lognote></lognote>
                            <good></good>
                            <originalvideofilename></originalvideofilename>
                            <originalaudiofilename></originalaudiofilename>
                        </logginginfo>
                        <colorinfo>
                            <lut></lut>
                            <lut1></lut1>
                            <asc_sop></asc_sop>
                            <asc_sat></asc_sat>
                            <lut2></lut2>
                        </colorinfo>
                        <labels>
                            <label2>Iris</label2>
                        </labels>
                    </clipitem>
                    <enabled>TRUE</enabled>
                    <locked>FALSE</locked>
                    <outputchannelindex>1</outputchannelindex>
                </track>
                <track TL.SQTrackAudioKeyframeStyle="0" TL.SQTrackShy="0" TL.SQTrackExpandedHeight="25"
                       TL.SQTrackExpanded="0" MZ.TrackTargeted="1" PannerCurrentValue="0.5"
                       PannerStartKeyframe="-91445760000000000,0.5,0,0,0,0,0,0" PannerName="Balance"
                       currentExplodedTrackIndex="1" totalExplodedTrackCount="2" premiereTrackType="Stereo">
                    <clipitem id="clipitem-15" premiereChannelType="stereo">
                        <masterclipid>masterclip-5</masterclipid>
                        <name>S02E06.Hard.Boiled.Eggy.mkv</name>
                        <enabled>TRUE</enabled>
                        <duration>17716</duration>
                        <rate>
                            <timebase>25</timebase>
                            <ntsc>FALSE</ntsc>
                        </rate>
                        <start>0</start>
                        <end>17716</end>
                        <in>0</in>
                        <out>17716</out>
                        <pproTicksIn>0</pproTicksIn>
                        <pproTicksOut>180005898240000</pproTicksOut>
                        <file id="file-5"/>
                        <sourcetrack>
                            <mediatype>audio</mediatype>
                            <trackindex>2</trackindex>
                        </sourcetrack>
                        <link>
                            <linkclipref>clipitem-14</linkclipref>
                            <mediatype>audio</mediatype>
                            <trackindex>3</trackindex>
                            <clipindex>1</clipindex>
                            <groupindex>1</groupindex>
                        </link>
                        <link>
                            <linkclipref>clipitem-15</linkclipref>
                            <mediatype>audio</mediatype>
                            <trackindex>4</trackindex>
                            <clipindex>1</clipindex>
                            <groupindex>1</groupindex>
                        </link>
                        <logginginfo>
                            <description></description>
                            <scene></scene>
                            <shottake></shottake>
                            <lognote></lognote>
                            <good></good>
                            <originalvideofilename></originalvideofilename>
                            <originalaudiofilename></originalaudiofilename>
                        </logginginfo>
                        <colorinfo>
                            <lut></lut>
                            <lut1></lut1>
                            <asc_sop></asc_sop>
                            <asc_sat></asc_sat>
                            <lut2></lut2>
                        </colorinfo>
                        <labels>
                            <label2>Iris</label2>
                        </labels>
                    </clipitem>
                    <enabled>TRUE</enabled>
                    <locked>FALSE</locked>
                    <outputchannelindex>2</outputchannelindex>
                </track>
                <track TL.SQTrackAudioKeyframeStyle="0" TL.SQTrackShy="0" TL.SQTrackExpandedHeight="25"
                       TL.SQTrackExpanded="0" MZ.TrackTargeted="1" PannerCurrentValue="0.5"
                       PannerStartKeyframe="-91445760000000000,0.5,0,0,0,0,0,0" PannerName="Balance"
                       currentExplodedTrackIndex="0" totalExplodedTrackCount="2" premiereTrackType="Stereo">
                    <enabled>TRUE</enabled>
                    <locked>FALSE</locked>
                    <outputchannelindex>1</outputchannelindex>
                </track>
                <track TL.SQTrackAudioKeyframeStyle="0" TL.SQTrackShy="0" TL.SQTrackExpandedHeight="25"
                       TL.SQTrackExpanded="0" MZ.TrackTargeted="1" PannerCurrentValue="0.5"
                       PannerStartKeyframe="-91445760000000000,0.5,0,0,0,0,0,0" PannerName="Balance"
                       currentExplodedTrackIndex="1" totalExplodedTrackCount="2" premiereTrackType="Stereo">
                    <enabled>TRUE</enabled>
                    <locked>FALSE</locked>
                    <outputchannelindex>2</outputchannelindex>
                </track>
            </audio>
        </media>
        <timecode>
            <rate>
                <timebase>25</timebase>
                <ntsc>FALSE</ntsc>
            </rate>
            <string>00:00:00:00</string>
            <frame>0</frame>
            <displayformat>NDF</displayformat>
        </timecode>
        <labels>
            <label2>Forest</label2>
        </labels>
    </sequence>
</xmeml>
