<?xml version="1.0" encoding="UTF-8"?>
<!DOCTYPE xmeml>
<xmeml version="4">
    <sequence id="sequence-2" TL.SQAudioVisibleBase="0" TL.SQVideoVisibleBase="0" TL.SQVisibleBaseTime="0"
              TL.SQAVDividerPosition="0.5" TL.SQHideShyTracks="0" TL.SQHeaderWidth="236"
              Monitor.ProgramZoomOut="2391984000000" Monitor.ProgramZoomIn="0" TL.SQTimePerPixel="0.019847922148488847"
              MZ.EditLine="2836512000000" MZ.Sequence.PreviewFrameSizeHeight="1080"
              MZ.Sequence.PreviewFrameSizeWidth="1920" MZ.Sequence.AudioTimeDisplayFormat="200"
              MZ.Sequence.PreviewRenderingClassID="1297106761" MZ.Sequence.PreviewRenderingPresetCodec="1297107278"
              MZ.Sequence.PreviewRenderingPresetPath="EncoderPresets\SequencePreview\9678af98-a7b7-4bdb-b477-7ac9c8df4a4e\I-Frame Only MPEG.epr"
              MZ.Sequence.PreviewUseMaxRenderQuality="false" MZ.Sequence.PreviewUseMaxBitDepth="false"
              MZ.Sequence.EditingModeGUID="9678af98-a7b7-4bdb-b477-7ac9c8df4a4e"
              MZ.Sequence.VideoTimeDisplayFormat="100" MZ.WorkOutPoint="2540160000000" MZ.WorkInPoint="0"
              MZ.ZeroPoint="0" explodedTracks="true">
        <uuid>06d746c8-382b-42e5-8688-20d8e434a31b</uuid>
        <duration>17008</duration>
        <rate>
            <timebase>24</timebase>
            <ntsc>FALSE</ntsc>
        </rate>
        <name>02e06 Source.mp4</name>
        <media>
            <video>
                <format>
                    <samplecharacteristics>
                        <rate>
                            <timebase>24</timebase>
                            <ntsc>FALSE</ntsc>
                        </rate>
                        <codec>
                            <name>Apple ProRes 422</name>
                            <appspecificdata>
                                <appname>Final Cut Pro</appname>
                                <appmanufacturer>Apple Inc.</appmanufacturer>
                                <appversion>7.0</appversion>
                                <data>
                                    <qtcodec>
                                        <codecname>Apple ProRes 422</codecname>
                                        <codectypename>Apple ProRes 422</codectypename>
                                        <codectypecode>apcn</codectypecode>
                                        <codecvendorcode>appl</codecvendorcode>
                                        <spatialquality>1024</spatialquality>
                                        <temporalquality>0</temporalquality>
                                        <keyframerate>0</keyframerate>
                                        <datarate>0</datarate>
                                    </qtcodec>
                                </data>
                            </appspecificdata>
                        </codec>
                        <width>1920</width>
                        <height>1080</height>
                        <anamorphic>FALSE</anamorphic>
                        <pixelaspectratio>square</pixelaspectratio>
                        <fielddominance>none</fielddominance>
                        <colordepth>24</colordepth>
                    </samplecharacteristics>
                </format>
                <track TL.SQTrackShy="0" TL.SQTrackExpandedHeight="25" TL.SQTrackExpanded="0" MZ.TrackTargeted="1">
                    <clipitem id="94e644ff-6aad-474d-9a79-f5d9c3e0e9af" premiereChannelType="stereo">
                        <masterclipid>masterclip-1</masterclipid>
                        <name>02e06 Source.mp4</name>
                        <enabled>TRUE</enabled>
                        <duration>17008</duration>
                        <rate>
                            <timebase>24</timebase>
                            <ntsc>FALSE</ntsc>
                        </rate>
                        <start>1</start>
                        <end>27</end>
                        <in>1737</in>
                        <out>1763</out>
                        <file id="file-5">
                            <name>02e06 Source.mp4</name>
                            <pathurl>file://localhost/E%3A/data/02e06%20Source.mp4</pathurl>
                            <rate>
                                <timebase>24</timebase>
                                <ntsc>FALSE</ntsc>
                            </rate>
                            <duration>17008</duration>
                            <timecode>
                                <rate>
                                    <timebase>24</timebase>
                                    <ntsc>FALSE</ntsc>
                                </rate>
                                <string>00:00:00:00</string>
                                <frame>0</frame>
                                <displayformat>NDF</displayformat>
                            </timecode>
                            <media>
                                <video>
                                    <samplecharacteristics>
                                        <rate>
                                            <timebase>24</timebase>
                                            <ntsc>FALSE</ntsc>
                                        </rate>
                                        <width>1920</width>
                                        <height>1080</height>
                                        <anamorphic>FALSE</anamorphic>
                                        <pixelaspectratio>square</pixelaspectratio>
                                        <fielddominance>none</fielddominance>
                                    </samplecharacteristics>
                                </video>
                                <audio>
                                    <samplecharacteristics>
                                        <depth>16</depth>
                                        <samplerate>48000</samplerate>
                                    </samplecharacteristics>
                                    <channelcount>2</channelcount>
                                </audio>
                            </media>
                        </file>

                        <labels>
                            <label2>Iris</label2>
                        </labels>
                    </clipitem>
                    <clipitem id="1eee6c03-8834-4a20-921a-3c017d46e49f" premiereChannelType="stereo">
                        <masterclipid>masterclip-1</masterclipid>
                        <name>02e06 Source.mp4</name>
                        <enabled>TRUE</enabled>
                        <duration>17008</duration>
                        <rate>
                            <timebase>24</timebase>
                            <ntsc>FALSE</ntsc>
                        </rate>
                        <start>27</start>
                        <end>38</end>
                        <in>1764</in>
                        <out>1775</out>
                        <file id="file-5"/>

                        <labels>
                            <label2>Iris</label2>
                        </labels>
                    </clipitem>
                    <clipitem id="845e1516-6b8a-4daa-9857-8c60c6cdb18e" premiereChannelType="stereo">
                        <masterclipid>masterclip-1</masterclipid>
                        <name>02e06 Source.mp4</name>
                        <enabled>TRUE</enabled>
                        <duration>17008</duration>
                        <rate>
                            <timebase>24</timebase>
                            <ntsc>FALSE</ntsc>
                        </rate>
                        <start>38</start>
                        <end>100</end>
                        <in>2108</in>
                        <out>2170</out>
                        <file id="file-5"/>

                        <labels>
                            <label2>Iris</label2>
                        </labels>
                    </clipitem>
                    <clipitem id="d2e598c1-43c0-4c37-a670-b84ec9572365" premiereChannelType="stereo">
                        <masterclipid>masterclip-1</masterclipid>
                        <name>02e06 Source.mp4</name>
                        <enabled>TRUE</enabled>
                        <duration>17008</duration>
                        <rate>
                            <timebase>24</timebase>
                            <ntsc>FALSE</ntsc>
                        </rate>
                        <start>100</start>
                        <end>148</end>
                        <in>2140</in>
                        <out>2188</out>
                        <file id="file-5"/>

                        <labels>
                            <label2>Iris</label2>
                        </labels>
                    </clipitem>
                    <clipitem id="352a7f94-80a6-4c58-bb2c-5a59221c5722" premiereChannelType="stereo">
                        <masterclipid>masterclip-1</masterclipid>
                        <name>02e06 Source.mp4</name>
                        <enabled>TRUE</enabled>
                        <duration>17008</duration>
                        <rate>
                            <timebase>24</timebase>
                            <ntsc>FALSE</ntsc>
                        </rate>
                        <start>148</start>
                        <end>159</end>
                        <in>2190</in>
                        <out>2201</out>
                        <file id="file-5"/>

                        <labels>
                            <label2>Iris</label2>
                        </labels>
                    </clipitem>
                    <clipitem id="aee7841a-ca12-47b0-a2f4-31ded96fd9b8" premiereChannelType="stereo">
                        <masterclipid>masterclip-1</masterclipid>
                        <name>02e06 Source.mp4</name>
                        <enabled>TRUE</enabled>
                        <duration>17008</duration>
                        <rate>
                            <timebase>24</timebase>
                            <ntsc>FALSE</ntsc>
                        </rate>
                        <start>159</start>
                        <end>171</end>
                        <in>2306</in>
                        <out>2318</out>
                        <file id="file-5"/>

                        <labels>
                            <label2>Iris</label2>
                        </labels>
                    </clipitem>
                    <clipitem id="1f1726e9-3a81-4560-93eb-935475b6803f" premiereChannelType="stereo">
                        <masterclipid>masterclip-1</masterclipid>
                        <name>02e06 Source.mp4</name>
                        <enabled>TRUE</enabled>
                        <duration>17008</duration>
                        <rate>
                            <timebase>24</timebase>
                            <ntsc>FALSE</ntsc>
                        </rate>
                        <start>171</start>
                        <end>190</end>
                        <in>2318</in>
                        <out>2337</out>
                        <file id="file-5"/>

                        <labels>
                            <label2>Iris</label2>
                        </labels>
                    </clipitem>
                    <clipitem id="496beb90-577e-4baa-a95a-f86735533819" premiereChannelType="stereo">
                        <masterclipid>masterclip-1</masterclipid>
                        <name>02e06 Source.mp4</name>
                        <enabled>TRUE</enabled>
                        <duration>17008</duration>
                        <rate>
                            <timebase>24</timebase>
                            <ntsc>FALSE</ntsc>
                        </rate>
                        <start>190</start>
                        <end>236</end>
                        <in>2448</in>
                        <out>2494</out>
                        <file id="file-5"/>

                        <labels>
                            <label2>Iris</label2>
                        </labels>
                    </clipitem>
                    <clipitem id="d4b8eb45-a893-4a37-8c0e-8fbf63ec74a1" premiereChannelType="stereo">
                        <masterclipid>masterclip-1</masterclipid>
                        <name>02e06 Source.mp4</name>
                        <enabled>TRUE</enabled>
                        <duration>17008</duration>
                        <rate>
                            <timebase>24</timebase>
                            <ntsc>FALSE</ntsc>
                        </rate>
                        <start>236</start>
                        <end>259</end>
                        <in>2518</in>
                        <out>2541</out>
                        <file id="file-5"/>

                        <labels>
                            <label2>Iris</label2>
                        </labels>
                    </clipitem>
                    <clipitem id="2ab18b33-ed25-4c7c-a788-e928aa2ed6f1" premiereChannelType="stereo">
                        <masterclipid>masterclip-1</masterclipid>
                        <name>02e06 Source.mp4</name>
                        <enabled>TRUE</enabled>
                        <duration>17008</duration>
                        <rate>
                            <timebase>24</timebase>
                            <ntsc>FALSE</ntsc>
                        </rate>
                        <start>259</start>
                        <end>285</end>
                        <in>2546</in>
                        <out>2572</out>
                        <file id="file-5"/>

                        <labels>
                            <label2>Iris</label2>
                        </labels>
                    </clipitem>
                    <clipitem id="56913fc1-c69b-448f-81bf-f4d5ddd28fc7" premiereChannelType="stereo">
                        <masterclipid>masterclip-1</masterclipid>
                        <name>02e06 Source.mp4</name>
                        <enabled>TRUE</enabled>
                        <duration>17008</duration>
                        <rate>
                            <timebase>24</timebase>
                            <ntsc>FALSE</ntsc>
                        </rate>
                        <start>285</start>
                        <end>316</end>
                        <in>2584</in>
                        <out>2615</out>
                        <file id="file-5"/>

                        <labels>
                            <label2>Iris</label2>
                        </labels>
                    </clipitem>
                    <clipitem id="806c169c-08f2-4c28-a1da-f1f579ed229f" premiereChannelType="stereo">
                        <masterclipid>masterclip-1</masterclipid>
                        <name>02e06 Source.mp4</name>
                        <enabled>TRUE</enabled>
                        <duration>17008</duration>
                        <rate>
                            <timebase>24</timebase>
                            <ntsc>FALSE</ntsc>
                        </rate>
                        <start>316</start>
                        <end>327</end>
                        <in>2619</in>
                        <out>2630</out>
                        <file id="file-5"/>

                        <labels>
                            <label2>Iris</label2>
                        </labels>
                    </clipitem>
                    <clipitem id="3c0711ca-6548-42cc-bd04-311fda441340" premiereChannelType="stereo">
                        <masterclipid>masterclip-1</masterclipid>
                        <name>02e06 Source.mp4</name>
                        <enabled>TRUE</enabled>
                        <duration>17008</duration>
                        <rate>
                            <timebase>24</timebase>
                            <ntsc>FALSE</ntsc>
                        </rate>
                        <start>327</start>
                        <end>339</end>
                        <in>3137</in>
                        <out>3149</out>
                        <file id="file-5"/>

                        <labels>
                            <label2>Iris</label2>
                        </labels>
                    </clipitem>
                    <clipitem id="3edb632e-b7aa-49bc-ad72-73cbde11d14c" premiereChannelType="stereo">
                        <masterclipid>masterclip-1</masterclipid>
                        <name>02e06 Source.mp4</name>
                        <enabled>TRUE</enabled>
                        <duration>17008</duration>
                        <rate>
                            <timebase>24</timebase>
                            <ntsc>FALSE</ntsc>
                        </rate>
                        <start>339</start>
                        <end>412</end>
                        <in>3150</in>
                        <out>3223</out>
                        <file id="file-5"/>

                        <labels>
                            <label2>Iris</label2>
                        </labels>
                    </clipitem>
                    <clipitem id="7e0cbfc1-583a-40b2-8e94-d54023bc95ae" premiereChannelType="stereo">
                        <masterclipid>masterclip-1</masterclipid>
                        <name>02e06 Source.mp4</name>
                        <enabled>TRUE</enabled>
                        <duration>17008</duration>
                        <rate>
                            <timebase>24</timebase>
                            <ntsc>FALSE</ntsc>
                        </rate>
                        <start>412</start>
                        <end>465</end>
                        <in>3226</in>
                        <out>3279</out>
                        <file id="file-5"/>

                        <labels>
                            <label2>Iris</label2>
                        </labels>
                    </clipitem>
                    <clipitem id="a08dc0ec-35e1-46c8-9ac0-0166b9972a19" premiereChannelType="stereo">
                        <masterclipid>masterclip-1</masterclipid>
                        <name>02e06 Source.mp4</name>
                        <enabled>TRUE</enabled>
                        <duration>17008</duration>
                        <rate>
                            <timebase>24</timebase>
                            <ntsc>FALSE</ntsc>
                        </rate>
                        <start>465</start>
                        <end>521</end>
                        <in>3450</in>
                        <out>3506</out>
                        <file id="file-5"/>

                        <labels>
                            <label2>Iris</label2>
                        </labels>
                    </clipitem>
                    <clipitem id="effb9827-ef76-4f00-b410-6df533fa4bd7" premiereChannelType="stereo">
                        <masterclipid>masterclip-1</masterclipid>
                        <name>02e06 Source.mp4</name>
                        <enabled>TRUE</enabled>
                        <duration>17008</duration>
                        <rate>
                            <timebase>24</timebase>
                            <ntsc>FALSE</ntsc>
                        </rate>
                        <start>521</start>
                        <end>544</end>
                        <in>3394</in>
                        <out>3417</out>
                        <file id="file-5"/>

                        <labels>
                            <label2>Iris</label2>
                        </labels>
                    </clipitem>
                    <clipitem id="c539d770-893f-4532-9de6-c16dfc1a7989" premiereChannelType="stereo">
                        <masterclipid>masterclip-1</masterclipid>
                        <name>02e06 Source.mp4</name>
                        <enabled>TRUE</enabled>
                        <duration>17008</duration>
                        <rate>
                            <timebase>24</timebase>
                            <ntsc>FALSE</ntsc>
                        </rate>
                        <start>544</start>
                        <end>555</end>
                        <in>3433</in>
                        <out>3444</out>
                        <file id="file-5"/>

                        <labels>
                            <label2>Iris</label2>
                        </labels>
                    </clipitem>
                    <clipitem id="cb2c202b-460c-44c6-92f3-3edb5e1c5c1c" premiereChannelType="stereo">
                        <masterclipid>masterclip-1</masterclipid>
                        <name>02e06 Source.mp4</name>
                        <enabled>TRUE</enabled>
                        <duration>17008</duration>
                        <rate>
                            <timebase>24</timebase>
                            <ntsc>FALSE</ntsc>
                        </rate>
                        <start>555</start>
                        <end>567</end>
                        <in>3518</in>
                        <out>3530</out>
                        <file id="file-5"/>

                        <labels>
                            <label2>Iris</label2>
                        </labels>
                    </clipitem>
                    <clipitem id="f2022b23-d75c-4ee8-be01-7f0d7213b55d" premiereChannelType="stereo">
                        <masterclipid>masterclip-1</masterclipid>
                        <name>02e06 Source.mp4</name>
                        <enabled>TRUE</enabled>
                        <duration>17008</duration>
                        <rate>
                            <timebase>24</timebase>
                            <ntsc>FALSE</ntsc>
                        </rate>
                        <start>567</start>
                        <end>578</end>
                        <in>3530</in>
                        <out>3541</out>
                        <file id="file-5"/>

                        <labels>
                            <label2>Iris</label2>
                        </labels>
                    </clipitem>
                    <clipitem id="acfe644e-b8d2-4381-9052-c63c53186c45" premiereChannelType="stereo">
                        <masterclipid>masterclip-1</masterclipid>
                        <name>02e06 Source.mp4</name>
                        <enabled>TRUE</enabled>
                        <duration>17008</duration>
                        <rate>
                            <timebase>24</timebase>
                            <ntsc>FALSE</ntsc>
                        </rate>
                        <start>578</start>
                        <end>589</end>
                        <in>3542</in>
                        <out>3553</out>
                        <file id="file-5"/>

                        <labels>
                            <label2>Iris</label2>
                        </labels>
                    </clipitem>
                    <clipitem id="03fa2f50-7a61-4a1b-a0c6-2404dcd1f2a3" premiereChannelType="stereo">
                        <masterclipid>masterclip-1</masterclipid>
                        <name>02e06 Source.mp4</name>
                        <enabled>TRUE</enabled>
                        <duration>17008</duration>
                        <rate>
                            <timebase>24</timebase>
                            <ntsc>FALSE</ntsc>
                        </rate>
                        <start>589</start>
                        <end>600</end>
                        <in>3553</in>
                        <out>3564</out>
                        <file id="file-5"/>

                        <labels>
                            <label2>Iris</label2>
                        </labels>
                    </clipitem>
                    <clipitem id="4819cd20-3557-47a1-859f-2ef564101c12" premiereChannelType="stereo">
                        <masterclipid>masterclip-1</masterclipid>
                        <name>02e06 Source.mp4</name>
                        <enabled>TRUE</enabled>
                        <duration>17008</duration>
                        <rate>
                            <timebase>24</timebase>
                            <ntsc>FALSE</ntsc>
                        </rate>
                        <start>600</start>
                        <end>623</end>
                        <in>3564</in>
                        <out>3587</out>
                        <file id="file-5"/>

                        <labels>
                            <label2>Iris</label2>
                        </labels>
                    </clipitem>
                    <clipitem id="34e2fd0d-149b-450c-85f9-1db6fb983e9d" premiereChannelType="stereo">
                        <masterclipid>masterclip-1</masterclipid>
                        <name>02e06 Source.mp4</name>
                        <enabled>TRUE</enabled>
                        <duration>17008</duration>
                        <rate>
                            <timebase>24</timebase>
                            <ntsc>FALSE</ntsc>
                        </rate>
                        <start>623</start>
                        <end>660</end>
                        <in>3677</in>
                        <out>3714</out>
                        <file id="file-5"/>

                        <labels>
                            <label2>Iris</label2>
                        </labels>
                    </clipitem>
                    <clipitem id="3e0059d1-8eb7-49a0-aee2-3f5aad5613b3" premiereChannelType="stereo">
                        <masterclipid>masterclip-1</masterclipid>
                        <name>02e06 Source.mp4</name>
                        <enabled>TRUE</enabled>
                        <duration>17008</duration>
                        <rate>
                            <timebase>24</timebase>
                            <ntsc>FALSE</ntsc>
                        </rate>
                        <start>660</start>
                        <end>700</end>
                        <in>3716</in>
                        <out>3756</out>
                        <file id="file-5"/>

                        <labels>
                            <label2>Iris</label2>
                        </labels>
                    </clipitem>
                    <clipitem id="43f48fef-98aa-4238-9191-de5c5e3d94e5" premiereChannelType="stereo">
                        <masterclipid>masterclip-1</masterclipid>
                        <name>02e06 Source.mp4</name>
                        <enabled>TRUE</enabled>
                        <duration>17008</duration>
                        <rate>
                            <timebase>24</timebase>
                            <ntsc>FALSE</ntsc>
                        </rate>
                        <start>700</start>
                        <end>711</end>
                        <in>3758</in>
                        <out>3769</out>
                        <file id="file-5"/>

                        <labels>
                            <label2>Iris</label2>
                        </labels>
                    </clipitem>
                    <clipitem id="e8ba557b-33e6-4373-a2b6-0dc48c731a49" premiereChannelType="stereo">
                        <masterclipid>masterclip-1</masterclipid>
                        <name>02e06 Source.mp4</name>
                        <enabled>TRUE</enabled>
                        <duration>17008</duration>
                        <rate>
                            <timebase>24</timebase>
                            <ntsc>FALSE</ntsc>
                        </rate>
                        <start>711</start>
                        <end>832</end>
                        <in>3769</in>
                        <out>3890</out>
                        <file id="file-5"/>

                        <labels>
                            <label2>Iris</label2>
                        </labels>
                    </clipitem>
                    <clipitem id="d8001f88-2406-4598-a59d-f99925a9db7e" premiereChannelType="stereo">
                        <masterclipid>masterclip-1</masterclipid>
                        <name>02e06 Source.mp4</name>
                        <enabled>TRUE</enabled>
                        <duration>17008</duration>
                        <rate>
                            <timebase>24</timebase>
                            <ntsc>FALSE</ntsc>
                        </rate>
                        <start>832</start>
                        <end>844</end>
                        <in>3900</in>
                        <out>3912</out>
                        <file id="file-5"/>

                        <labels>
                            <label2>Iris</label2>
                        </labels>
                    </clipitem>
                    <clipitem id="cfe633d9-e0d1-45b3-b51d-f994055214bb" premiereChannelType="stereo">
                        <masterclipid>masterclip-1</masterclipid>
                        <name>02e06 Source.mp4</name>
                        <enabled>TRUE</enabled>
                        <duration>17008</duration>
                        <rate>
                            <timebase>24</timebase>
                            <ntsc>FALSE</ntsc>
                        </rate>
                        <start>844</start>
                        <end>855</end>
                        <in>3908</in>
                        <out>3919</out>
                        <file id="file-5"/>

                        <labels>
                            <label2>Iris</label2>
                        </labels>
                    </clipitem>
                    <clipitem id="464229e8-6c96-4280-a2b3-5b5684563390" premiereChannelType="stereo">
                        <masterclipid>masterclip-1</masterclipid>
                        <name>02e06 Source.mp4</name>
                        <enabled>TRUE</enabled>
                        <duration>17008</duration>
                        <rate>
                            <timebase>24</timebase>
                            <ntsc>FALSE</ntsc>
                        </rate>
                        <start>855</start>
                        <end>906</end>
                        <in>3919</in>
                        <out>3970</out>
                        <file id="file-5"/>

                        <labels>
                            <label2>Iris</label2>
                        </labels>
                    </clipitem>
                    <clipitem id="03c94574-b284-47cb-81c9-90635a884dfe" premiereChannelType="stereo">
                        <masterclipid>masterclip-1</masterclipid>
                        <name>02e06 Source.mp4</name>
                        <enabled>TRUE</enabled>
                        <duration>17008</duration>
                        <rate>
                            <timebase>24</timebase>
                            <ntsc>FALSE</ntsc>
                        </rate>
                        <start>906</start>
                        <end>924</end>
                        <in>3974</in>
                        <out>3992</out>
                        <file id="file-5"/>

                        <labels>
                            <label2>Iris</label2>
                        </labels>
                    </clipitem>
                    <clipitem id="df1719fa-22f2-47f8-90b7-f062e04c8396" premiereChannelType="stereo">
                        <masterclipid>masterclip-1</masterclipid>
                        <name>02e06 Source.mp4</name>
                        <enabled>TRUE</enabled>
                        <duration>17008</duration>
                        <rate>
                            <timebase>24</timebase>
                            <ntsc>FALSE</ntsc>
                        </rate>
                        <start>924</start>
                        <end>952</end>
                        <in>4036</in>
                        <out>4064</out>
                        <file id="file-5"/>

                        <labels>
                            <label2>Iris</label2>
                        </labels>
                    </clipitem>
                    <clipitem id="8ce836ef-4a4e-4653-8656-697a17dc565f" premiereChannelType="stereo">
                        <masterclipid>masterclip-1</masterclipid>
                        <name>02e06 Source.mp4</name>
                        <enabled>TRUE</enabled>
                        <duration>17008</duration>
                        <rate>
                            <timebase>24</timebase>
                            <ntsc>FALSE</ntsc>
                        </rate>
                        <start>952</start>
                        <end>987</end>
                        <in>4296</in>
                        <out>4331</out>
                        <file id="file-5"/>

                        <labels>
                            <label2>Iris</label2>
                        </labels>
                    </clipitem>
                    <clipitem id="4dd4ddf9-ae75-4019-8258-0b7046b3d712" premiereChannelType="stereo">
                        <masterclipid>masterclip-1</masterclipid>
                        <name>02e06 Source.mp4</name>
                        <enabled>TRUE</enabled>
                        <duration>17008</duration>
                        <rate>
                            <timebase>24</timebase>
                            <ntsc>FALSE</ntsc>
                        </rate>
                        <start>987</start>
                        <end>1025</end>
                        <in>4373</in>
                        <out>4411</out>
                        <file id="file-5"/>

                        <labels>
                            <label2>Iris</label2>
                        </labels>
                    </clipitem>
                    <clipitem id="749a84b4-f159-413d-9ad9-0a9861c30345" premiereChannelType="stereo">
                        <masterclipid>masterclip-1</masterclipid>
                        <name>02e06 Source.mp4</name>
                        <enabled>TRUE</enabled>
                        <duration>17008</duration>
                        <rate>
                            <timebase>24</timebase>
                            <ntsc>FALSE</ntsc>
                        </rate>
                        <start>1025</start>
                        <end>1068</end>
                        <in>4506</in>
                        <out>4549</out>
                        <file id="file-5"/>

                        <labels>
                            <label2>Iris</label2>
                        </labels>
                    </clipitem>
                    <clipitem id="714fbe36-6adb-49c6-bf3a-f0b5bae5ba61" premiereChannelType="stereo">
                        <masterclipid>masterclip-1</masterclipid>
                        <name>02e06 Source.mp4</name>
                        <enabled>TRUE</enabled>
                        <duration>17008</duration>
                        <rate>
                            <timebase>24</timebase>
                            <ntsc>FALSE</ntsc>
                        </rate>
                        <start>1068</start>
                        <end>1079</end>
                        <in>4556</in>
                        <out>4567</out>
                        <file id="file-5"/>

                        <labels>
                            <label2>Iris</label2>
                        </labels>
                    </clipitem>
                    <clipitem id="34df0f42-9649-45b6-a27b-5bae0dc7e610" premiereChannelType="stereo">
                        <masterclipid>masterclip-1</masterclipid>
                        <name>02e06 Source.mp4</name>
                        <enabled>TRUE</enabled>
                        <duration>17008</duration>
                        <rate>
                            <timebase>24</timebase>
                            <ntsc>FALSE</ntsc>
                        </rate>
                        <start>1079</start>
                        <end>1108</end>
                        <in>4562</in>
                        <out>4591</out>
                        <file id="file-5"/>

                        <labels>
                            <label2>Iris</label2>
                        </labels>
                    </clipitem>
                    <clipitem id="5dc5be80-bf7e-4189-a291-64a5bef533f2" premiereChannelType="stereo">
                        <masterclipid>masterclip-1</masterclipid>
                        <name>02e06 Source.mp4</name>
                        <enabled>TRUE</enabled>
                        <duration>17008</duration>
                        <rate>
                            <timebase>24</timebase>
                            <ntsc>FALSE</ntsc>
                        </rate>
                        <start>1108</start>
                        <end>1180</end>
                        <in>4593</in>
                        <out>4665</out>
                        <file id="file-5"/>

                        <labels>
                            <label2>Iris</label2>
                        </labels>
                    </clipitem>
                    <clipitem id="59587caa-4930-42b1-bf9c-de9fa8279433" premiereChannelType="stereo">
                        <masterclipid>masterclip-1</masterclipid>
                        <name>02e06 Source.mp4</name>
                        <enabled>TRUE</enabled>
                        <duration>17008</duration>
                        <rate>
                            <timebase>24</timebase>
                            <ntsc>FALSE</ntsc>
                        </rate>
                        <start>1180</start>
                        <end>1239</end>
                        <in>4668</in>
                        <out>4727</out>
                        <file id="file-5"/>

                        <labels>
                            <label2>Iris</label2>
                        </labels>
                    </clipitem>
                    <clipitem id="54684d2b-ac28-41c8-8ff6-282caa081a45" premiereChannelType="stereo">
                        <masterclipid>masterclip-1</masterclipid>
                        <name>02e06 Source.mp4</name>
                        <enabled>TRUE</enabled>
                        <duration>17008</duration>
                        <rate>
                            <timebase>24</timebase>
                            <ntsc>FALSE</ntsc>
                        </rate>
                        <start>1239</start>
                        <end>1278</end>
                        <in>4731</in>
                        <out>4770</out>
                        <file id="file-5"/>

                        <labels>
                            <label2>Iris</label2>
                        </labels>
                    </clipitem>
                    <clipitem id="55df1e92-3cc2-4e48-8d14-af0ef26c6885" premiereChannelType="stereo">
                        <masterclipid>masterclip-1</masterclipid>
                        <name>02e06 Source.mp4</name>
                        <enabled>TRUE</enabled>
                        <duration>17008</duration>
                        <rate>
                            <timebase>24</timebase>
                            <ntsc>FALSE</ntsc>
                        </rate>
                        <start>1278</start>
                        <end>1289</end>
                        <in>4772</in>
                        <out>4783</out>
                        <file id="file-5"/>

                        <labels>
                            <label2>Iris</label2>
                        </labels>
                    </clipitem>
                    <clipitem id="a03cc7cd-3700-4bdb-ac39-357e1a497c59" premiereChannelType="stereo">
                        <masterclipid>masterclip-1</masterclipid>
                        <name>02e06 Source.mp4</name>
                        <enabled>TRUE</enabled>
                        <duration>17008</duration>
                        <rate>
                            <timebase>24</timebase>
                            <ntsc>FALSE</ntsc>
                        </rate>
                        <start>1289</start>
                        <end>1319</end>
                        <in>4822</in>
                        <out>4852</out>
                        <file id="file-5"/>

                        <labels>
                            <label2>Iris</label2>
                        </labels>
                    </clipitem>
                    <clipitem id="90e8919c-0746-4634-9e98-ede106bfdcce" premiereChannelType="stereo">
                        <masterclipid>masterclip-1</masterclipid>
                        <name>02e06 Source.mp4</name>
                        <enabled>TRUE</enabled>
                        <duration>17008</duration>
                        <rate>
                            <timebase>24</timebase>
                            <ntsc>FALSE</ntsc>
                        </rate>
                        <start>1319</start>
                        <end>1353</end>
                        <in>4869</in>
                        <out>4903</out>
                        <file id="file-5"/>

                        <labels>
                            <label2>Iris</label2>
                        </labels>
                    </clipitem>
                    <clipitem id="198703df-2eab-4cd7-925a-0d3620231fc3" premiereChannelType="stereo">
                        <masterclipid>masterclip-1</masterclipid>
                        <name>02e06 Source.mp4</name>
                        <enabled>TRUE</enabled>
                        <duration>17008</duration>
                        <rate>
                            <timebase>24</timebase>
                            <ntsc>FALSE</ntsc>
                        </rate>
                        <start>1353</start>
                        <end>1400</end>
                        <in>4989</in>
                        <out>5036</out>
                        <file id="file-5"/>

                        <labels>
                            <label2>Iris</label2>
                        </labels>
                    </clipitem>
                    <clipitem id="3e461f1a-338f-4459-a090-85de32914634" premiereChannelType="stereo">
                        <masterclipid>masterclip-1</masterclipid>
                        <name>02e06 Source.mp4</name>
                        <enabled>TRUE</enabled>
                        <duration>17008</duration>
                        <rate>
                            <timebase>24</timebase>
                            <ntsc>FALSE</ntsc>
                        </rate>
                        <start>1400</start>
                        <end>1423</end>
                        <in>5036</in>
                        <out>5059</out>
                        <file id="file-5"/>

                        <labels>
                            <label2>Iris</label2>
                        </labels>
                    </clipitem>
                    <clipitem id="6498bf9a-742e-4819-b3ae-3ec272845ccc" premiereChannelType="stereo">
                        <masterclipid>masterclip-1</masterclipid>
                        <name>02e06 Source.mp4</name>
                        <enabled>TRUE</enabled>
                        <duration>17008</duration>
                        <rate>
                            <timebase>24</timebase>
                            <ntsc>FALSE</ntsc>
                        </rate>
                        <start>1423</start>
                        <end>1436</end>
                        <in>5062</in>
                        <out>5075</out>
                        <file id="file-5"/>

                        <labels>
                            <label2>Iris</label2>
                        </labels>
                    </clipitem>
                    <clipitem id="87137591-a910-47e1-bd47-0b3e1d9b4563" premiereChannelType="stereo">
                        <masterclipid>masterclip-1</masterclipid>
                        <name>02e06 Source.mp4</name>
                        <enabled>TRUE</enabled>
                        <duration>17008</duration>
                        <rate>
                            <timebase>24</timebase>
                            <ntsc>FALSE</ntsc>
                        </rate>
                        <start>1436</start>
                        <end>1458</end>
                        <in>5075</in>
                        <out>5097</out>
                        <file id="file-5"/>

                        <labels>
                            <label2>Iris</label2>
                        </labels>
                    </clipitem>
                    <clipitem id="1d31051f-3617-4c25-8eb9-020c23fa7369" premiereChannelType="stereo">
                        <masterclipid>masterclip-1</masterclipid>
                        <name>02e06 Source.mp4</name>
                        <enabled>TRUE</enabled>
                        <duration>17008</duration>
                        <rate>
                            <timebase>24</timebase>
                            <ntsc>FALSE</ntsc>
                        </rate>
                        <start>1458</start>
                        <end>1492</end>
                        <in>5113</in>
                        <out>5147</out>
                        <file id="file-5"/>

                        <labels>
                            <label2>Iris</label2>
                        </labels>
                    </clipitem>
                    <clipitem id="68b1b166-b4e3-457b-92f4-6358f60b7a5f" premiereChannelType="stereo">
                        <masterclipid>masterclip-1</masterclipid>
                        <name>02e06 Source.mp4</name>
                        <enabled>TRUE</enabled>
                        <duration>17008</duration>
                        <rate>
                            <timebase>24</timebase>
                            <ntsc>FALSE</ntsc>
                        </rate>
                        <start>1492</start>
                        <end>1503</end>
                        <in>5149</in>
                        <out>5160</out>
                        <file id="file-5"/>

                        <labels>
                            <label2>Iris</label2>
                        </labels>
                    </clipitem>
                    <clipitem id="35f54837-408b-44b6-88aa-3af8e8a5c3dc" premiereChannelType="stereo">
                        <masterclipid>masterclip-1</masterclipid>
                        <name>02e06 Source.mp4</name>
                        <enabled>TRUE</enabled>
                        <duration>17008</duration>
                        <rate>
                            <timebase>24</timebase>
                            <ntsc>FALSE</ntsc>
                        </rate>
                        <start>1503</start>
                        <end>1538</end>
                        <in>5191</in>
                        <out>5226</out>
                        <file id="file-5"/>

                        <labels>
                            <label2>Iris</label2>
                        </labels>
                    </clipitem>
                    <clipitem id="575d72d2-b4f4-42ac-b34f-0e36345ce25d" premiereChannelType="stereo">
                        <masterclipid>masterclip-1</masterclipid>
                        <name>02e06 Source.mp4</name>
                        <enabled>TRUE</enabled>
                        <duration>17008</duration>
                        <rate>
                            <timebase>24</timebase>
                            <ntsc>FALSE</ntsc>
                        </rate>
                        <start>1538</start>
                        <end>1588</end>
                        <in>5513</in>
                        <out>5563</out>
                        <file id="file-5"/>

                        <labels>
                            <label2>Iris</label2>
                        </labels>
                    </clipitem>
                    <clipitem id="5116af7e-9798-4b34-a4e0-551cee3a0166" premiereChannelType="stereo">
                        <masterclipid>masterclip-1</masterclipid>
                        <name>02e06 Source.mp4</name>
                        <enabled>TRUE</enabled>
                        <duration>17008</duration>
                        <rate>
                            <timebase>24</timebase>
                            <ntsc>FALSE</ntsc>
                        </rate>
                        <start>1588</start>
                        <end>1615</end>
                        <in>5248</in>
                        <out>5275</out>
                        <file id="file-5"/>

                        <labels>
                            <label2>Iris</label2>
                        </labels>
                    </clipitem>
                    <clipitem id="663a8c5b-b5f1-4379-afd5-cc3a548fc7de" premiereChannelType="stereo">
                        <masterclipid>masterclip-1</masterclipid>
                        <name>02e06 Source.mp4</name>
                        <enabled>TRUE</enabled>
                        <duration>17008</duration>
                        <rate>
                            <timebase>24</timebase>
                            <ntsc>FALSE</ntsc>
                        </rate>
                        <start>1615</start>
                        <end>1648</end>
                        <in>5574</in>
                        <out>5607</out>
                        <file id="file-5"/>

                        <labels>
                            <label2>Iris</label2>
                        </labels>
                    </clipitem>
                    <clipitem id="cfc7298e-9010-4289-8a19-678829749231" premiereChannelType="stereo">
                        <masterclipid>masterclip-1</masterclipid>
                        <name>02e06 Source.mp4</name>
                        <enabled>TRUE</enabled>
                        <duration>17008</duration>
                        <rate>
                            <timebase>24</timebase>
                            <ntsc>FALSE</ntsc>
                        </rate>
                        <start>1648</start>
                        <end>1659</end>
                        <in>5711</in>
                        <out>5722</out>
                        <file id="file-5"/>

                        <labels>
                            <label2>Iris</label2>
                        </labels>
                    </clipitem>
                    <clipitem id="7c53c804-593c-42c4-bfae-b4de4cefa3ac" premiereChannelType="stereo">
                        <masterclipid>masterclip-1</masterclipid>
                        <name>02e06 Source.mp4</name>
                        <enabled>TRUE</enabled>
                        <duration>17008</duration>
                        <rate>
                            <timebase>24</timebase>
                            <ntsc>FALSE</ntsc>
                        </rate>
                        <start>1659</start>
                        <end>1670</end>
                        <in>5723</in>
                        <out>5734</out>
                        <file id="file-5"/>

                        <labels>
                            <label2>Iris</label2>
                        </labels>
                    </clipitem>
                    <clipitem id="7114b6f0-9ece-40ab-a708-471d80613011" premiereChannelType="stereo">
                        <masterclipid>masterclip-1</masterclipid>
                        <name>02e06 Source.mp4</name>
                        <enabled>TRUE</enabled>
                        <duration>17008</duration>
                        <rate>
                            <timebase>24</timebase>
                            <ntsc>FALSE</ntsc>
                        </rate>
                        <start>1670</start>
                        <end>1693</end>
                        <in>5740</in>
                        <out>5763</out>
                        <file id="file-5"/>

                        <labels>
                            <label2>Iris</label2>
                        </labels>
                    </clipitem>
                    <clipitem id="f6827019-7475-48a8-af11-cd469342de7d" premiereChannelType="stereo">
                        <masterclipid>masterclip-1</masterclipid>
                        <name>02e06 Source.mp4</name>
                        <enabled>TRUE</enabled>
                        <duration>17008</duration>
                        <rate>
                            <timebase>24</timebase>
                            <ntsc>FALSE</ntsc>
                        </rate>
                        <start>1693</start>
                        <end>1738</end>
                        <in>5764</in>
                        <out>5809</out>
                        <file id="file-5"/>

                        <labels>
                            <label2>Iris</label2>
                        </labels>
                    </clipitem>
                    <clipitem id="865d0b66-dd81-4028-a68f-da17200bcf9f" premiereChannelType="stereo">
                        <masterclipid>masterclip-1</masterclipid>
                        <name>02e06 Source.mp4</name>
                        <enabled>TRUE</enabled>
                        <duration>17008</duration>
                        <rate>
                            <timebase>24</timebase>
                            <ntsc>FALSE</ntsc>
                        </rate>
                        <start>1738</start>
                        <end>1821</end>
                        <in>5811</in>
                        <out>5894</out>
                        <file id="file-5"/>

                        <labels>
                            <label2>Iris</label2>
                        </labels>
                    </clipitem>
                    <clipitem id="1d45519b-c889-46f0-ad63-b5ed24a2f19b" premiereChannelType="stereo">
                        <masterclipid>masterclip-1</masterclipid>
                        <name>02e06 Source.mp4</name>
                        <enabled>TRUE</enabled>
                        <duration>17008</duration>
                        <rate>
                            <timebase>24</timebase>
                            <ntsc>FALSE</ntsc>
                        </rate>
                        <start>1821</start>
                        <end>1872</end>
                        <in>5897</in>
                        <out>5948</out>
                        <file id="file-5"/>

                        <labels>
                            <label2>Iris</label2>
                        </labels>
                    </clipitem>
                    <clipitem id="51d447cf-f5c2-4a2c-889b-8c365d429ce6" premiereChannelType="stereo">
                        <masterclipid>masterclip-1</masterclipid>
                        <name>02e06 Source.mp4</name>
                        <enabled>TRUE</enabled>
                        <duration>17008</duration>
                        <rate>
                            <timebase>24</timebase>
                            <ntsc>FALSE</ntsc>
                        </rate>
                        <start>1872</start>
                        <end>1900</end>
                        <in>5951</in>
                        <out>5979</out>
                        <file id="file-5"/>

                        <labels>
                            <label2>Iris</label2>
                        </labels>
                    </clipitem>
                    <clipitem id="ac9ad1af-4fce-4d3d-a74b-92657e080f9c" premiereChannelType="stereo">
                        <masterclipid>masterclip-1</masterclipid>
                        <name>02e06 Source.mp4</name>
                        <enabled>TRUE</enabled>
                        <duration>17008</duration>
                        <rate>
                            <timebase>24</timebase>
                            <ntsc>FALSE</ntsc>
                        </rate>
                        <start>1900</start>
                        <end>1947</end>
                        <in>5981</in>
                        <out>6028</out>
                        <file id="file-5"/>

                        <labels>
                            <label2>Iris</label2>
                        </labels>
                    </clipitem>
                    <clipitem id="8b9f0b8e-081c-41f7-a8e5-37dafe3a8860" premiereChannelType="stereo">
                        <masterclipid>masterclip-1</masterclipid>
                        <name>02e06 Source.mp4</name>
                        <enabled>TRUE</enabled>
                        <duration>17008</duration>
                        <rate>
                            <timebase>24</timebase>
                            <ntsc>FALSE</ntsc>
                        </rate>
                        <start>1947</start>
                        <end>1985</end>
                        <in>6058</in>
                        <out>6096</out>
                        <file id="file-5"/>

                        <labels>
                            <label2>Iris</label2>
                        </labels>
                    </clipitem>
                    <clipitem id="362f041f-6e30-4c6f-96c0-0dd89a72513f" premiereChannelType="stereo">
                        <masterclipid>masterclip-1</masterclipid>
                        <name>02e06 Source.mp4</name>
                        <enabled>TRUE</enabled>
                        <duration>17008</duration>
                        <rate>
                            <timebase>24</timebase>
                            <ntsc>FALSE</ntsc>
                        </rate>
                        <start>1985</start>
                        <end>2003</end>
                        <in>6120</in>
                        <out>6138</out>
                        <file id="file-5"/>

                        <labels>
                            <label2>Iris</label2>
                        </labels>
                    </clipitem>
                    <clipitem id="097abd31-4359-4735-a945-4540ec3d2628" premiereChannelType="stereo">
                        <masterclipid>masterclip-1</masterclipid>
                        <name>02e06 Source.mp4</name>
                        <enabled>TRUE</enabled>
                        <duration>17008</duration>
                        <rate>
                            <timebase>24</timebase>
                            <ntsc>FALSE</ntsc>
                        </rate>
                        <start>2003</start>
                        <end>2053</end>
                        <in>6139</in>
                        <out>6189</out>
                        <file id="file-5"/>

                        <labels>
                            <label2>Iris</label2>
                        </labels>
                    </clipitem>
                    <clipitem id="9efb4de9-6139-47cc-8232-c8709607721d" premiereChannelType="stereo">
                        <masterclipid>masterclip-1</masterclipid>
                        <name>02e06 Source.mp4</name>
                        <enabled>TRUE</enabled>
                        <duration>17008</duration>
                        <rate>
                            <timebase>24</timebase>
                            <ntsc>FALSE</ntsc>
                        </rate>
                        <start>2053</start>
                        <end>2070</end>
                        <in>6191</in>
                        <out>6208</out>
                        <file id="file-5"/>

                        <labels>
                            <label2>Iris</label2>
                        </labels>
                    </clipitem>
                    <clipitem id="063d3d7b-a803-4d02-930e-432539d6a831" premiereChannelType="stereo">
                        <masterclipid>masterclip-1</masterclipid>
                        <name>02e06 Source.mp4</name>
                        <enabled>TRUE</enabled>
                        <duration>17008</duration>
                        <rate>
                            <timebase>24</timebase>
                            <ntsc>FALSE</ntsc>
                        </rate>
                        <start>2070</start>
                        <end>2158</end>
                        <in>6216</in>
                        <out>6304</out>
                        <file id="file-5"/>

                        <labels>
                            <label2>Iris</label2>
                        </labels>
                    </clipitem>
                    <clipitem id="245bc872-70be-4cfa-88c2-b34175efe033" premiereChannelType="stereo">
                        <masterclipid>masterclip-1</masterclipid>
                        <name>02e06 Source.mp4</name>
                        <enabled>TRUE</enabled>
                        <duration>17008</duration>
                        <rate>
                            <timebase>24</timebase>
                            <ntsc>FALSE</ntsc>
                        </rate>
                        <start>2158</start>
                        <end>2237</end>
                        <in>6307</in>
                        <out>6386</out>
                        <file id="file-5"/>

                        <labels>
                            <label2>Iris</label2>
                        </labels>
                    </clipitem>
                    <clipitem id="58d19d6d-3836-4824-bbaf-13f5caaa4b72" premiereChannelType="stereo">
                        <masterclipid>masterclip-1</masterclipid>
                        <name>02e06 Source.mp4</name>
                        <enabled>TRUE</enabled>
                        <duration>17008</duration>
                        <rate>
                            <timebase>24</timebase>
                            <ntsc>FALSE</ntsc>
                        </rate>
                        <start>2237</start>
                        <end>2276</end>
                        <in>6401</in>
                        <out>6440</out>
                        <file id="file-5"/>

                        <labels>
                            <label2>Iris</label2>
                        </labels>
                    </clipitem>
                    <clipitem id="8e9d4bfb-7b0d-452d-abef-28c582af50c7" premiereChannelType="stereo">
                        <masterclipid>masterclip-1</masterclipid>
                        <name>02e06 Source.mp4</name>
                        <enabled>TRUE</enabled>
                        <duration>17008</duration>
                        <rate>
                            <timebase>24</timebase>
                            <ntsc>FALSE</ntsc>
                        </rate>
                        <start>2276</start>
                        <end>2329</end>
                        <in>6334</in>
                        <out>6387</out>
                        <file id="file-5"/>

                        <labels>
                            <label2>Iris</label2>
                        </labels>
                    </clipitem>
                    <clipitem id="06f9fae6-9eff-4deb-8dc1-47ca29d35f86" premiereChannelType="stereo">
                        <masterclipid>masterclip-1</masterclipid>
                        <name>02e06 Source.mp4</name>
                        <enabled>TRUE</enabled>
                        <duration>17008</duration>
                        <rate>
                            <timebase>24</timebase>
                            <ntsc>FALSE</ntsc>
                        </rate>
                        <start>2329</start>
                        <end>2372</end>
                        <in>6413</in>
                        <out>6456</out>
                        <file id="file-5"/>

                        <labels>
                            <label2>Iris</label2>
                        </labels>
                    </clipitem>
                    <clipitem id="0c9d93a8-03f5-4e69-a201-674e2dbdb97e" premiereChannelType="stereo">
                        <masterclipid>masterclip-1</masterclipid>
                        <name>02e06 Source.mp4</name>
                        <enabled>TRUE</enabled>
                        <duration>17008</duration>
                        <rate>
                            <timebase>24</timebase>
                            <ntsc>FALSE</ntsc>
                        </rate>
                        <start>2372</start>
                        <end>2417</end>
                        <in>6581</in>
                        <out>6626</out>
                        <file id="file-5"/>

                        <labels>
                            <label2>Iris</label2>
                        </labels>
                    </clipitem>
                    <clipitem id="73d6baa3-85c2-40c0-bcc7-93257ac32a17" premiereChannelType="stereo">
                        <masterclipid>masterclip-1</masterclipid>
                        <name>02e06 Source.mp4</name>
                        <enabled>TRUE</enabled>
                        <duration>17008</duration>
                        <rate>
                            <timebase>24</timebase>
                            <ntsc>FALSE</ntsc>
                        </rate>
                        <start>2417</start>
                        <end>2428</end>
                        <in>6628</in>
                        <out>6639</out>
                        <file id="file-5"/>

                        <labels>
                            <label2>Iris</label2>
                        </labels>
                    </clipitem>
                    <clipitem id="b9e30f95-bff4-4f02-ae14-65c24bea4e36" premiereChannelType="stereo">
                        <masterclipid>masterclip-1</masterclipid>
                        <name>02e06 Source.mp4</name>
                        <enabled>TRUE</enabled>
                        <duration>17008</duration>
                        <rate>
                            <timebase>24</timebase>
                            <ntsc>FALSE</ntsc>
                        </rate>
                        <start>2428</start>
                        <end>2469</end>
                        <in>6690</in>
                        <out>6731</out>
                        <file id="file-5"/>

                        <labels>
                            <label2>Iris</label2>
                        </labels>
                    </clipitem>
                    <clipitem id="b05d57b6-ceba-4012-9254-97ab625a274a" premiereChannelType="stereo">
                        <masterclipid>masterclip-1</masterclipid>
                        <name>02e06 Source.mp4</name>
                        <enabled>TRUE</enabled>
                        <duration>17008</duration>
                        <rate>
                            <timebase>24</timebase>
                            <ntsc>FALSE</ntsc>
                        </rate>
                        <start>2469</start>
                        <end>2490</end>
                        <in>6920</in>
                        <out>6941</out>
                        <file id="file-5"/>

                        <labels>
                            <label2>Iris</label2>
                        </labels>
                    </clipitem>
                    <clipitem id="36471ab0-6511-4c27-821d-4e967c4b57ee" premiereChannelType="stereo">
                        <masterclipid>masterclip-1</masterclipid>
                        <name>02e06 Source.mp4</name>
                        <enabled>TRUE</enabled>
                        <duration>17008</duration>
                        <rate>
                            <timebase>24</timebase>
                            <ntsc>FALSE</ntsc>
                        </rate>
                        <start>2490</start>
                        <end>2509</end>
                        <in>6996</in>
                        <out>7015</out>
                        <file id="file-5"/>

                        <labels>
                            <label2>Iris</label2>
                        </labels>
                    </clipitem>
                    <clipitem id="5e5ee2f1-89a3-4cf6-8f13-d181b3cbadc6" premiereChannelType="stereo">
                        <masterclipid>masterclip-1</masterclipid>
                        <name>02e06 Source.mp4</name>
                        <enabled>TRUE</enabled>
                        <duration>17008</duration>
                        <rate>
                            <timebase>24</timebase>
                            <ntsc>FALSE</ntsc>
                        </rate>
                        <start>2509</start>
                        <end>2529</end>
                        <in>7353</in>
                        <out>7373</out>
                        <file id="file-5"/>

                        <labels>
                            <label2>Iris</label2>
                        </labels>
                    </clipitem>
                    <clipitem id="8aaaa6e3-b71e-44e1-ba78-7a585dd6c620" premiereChannelType="stereo">
                        <masterclipid>masterclip-1</masterclipid>
                        <name>02e06 Source.mp4</name>
                        <enabled>TRUE</enabled>
                        <duration>17008</duration>
                        <rate>
                            <timebase>24</timebase>
                            <ntsc>FALSE</ntsc>
                        </rate>
                        <start>2529</start>
                        <end>2540</end>
                        <in>7521</in>
                        <out>7532</out>
                        <file id="file-5"/>

                        <labels>
                            <label2>Iris</label2>
                        </labels>
                    </clipitem>
                    <clipitem id="0843481f-a103-4db7-9a65-94d65617cecb" premiereChannelType="stereo">
                        <masterclipid>masterclip-1</masterclipid>
                        <name>02e06 Source.mp4</name>
                        <enabled>TRUE</enabled>
                        <duration>17008</duration>
                        <rate>
                            <timebase>24</timebase>
                            <ntsc>FALSE</ntsc>
                        </rate>
                        <start>2540</start>
                        <end>2566</end>
                        <in>7532</in>
                        <out>7558</out>
                        <file id="file-5"/>

                        <labels>
                            <label2>Iris</label2>
                        </labels>
                    </clipitem>
                    <clipitem id="00b50ef0-34d0-4b0f-8f5b-f306c8efc2dd" premiereChannelType="stereo">
                        <masterclipid>masterclip-1</masterclipid>
                        <name>02e06 Source.mp4</name>
                        <enabled>TRUE</enabled>
                        <duration>17008</duration>
                        <rate>
                            <timebase>24</timebase>
                            <ntsc>FALSE</ntsc>
                        </rate>
                        <start>2566</start>
                        <end>2627</end>
                        <in>7720</in>
                        <out>7781</out>
                        <file id="file-5"/>

                        <labels>
                            <label2>Iris</label2>
                        </labels>
                    </clipitem>
                    <clipitem id="270a76e1-dae4-4139-a72e-840a7a02860c" premiereChannelType="stereo">
                        <masterclipid>masterclip-1</masterclipid>
                        <name>02e06 Source.mp4</name>
                        <enabled>TRUE</enabled>
                        <duration>17008</duration>
                        <rate>
                            <timebase>24</timebase>
                            <ntsc>FALSE</ntsc>
                        </rate>
                        <start>2627</start>
                        <end>2645</end>
                        <in>7806</in>
                        <out>7824</out>
                        <file id="file-5"/>

                        <labels>
                            <label2>Iris</label2>
                        </labels>
                    </clipitem>
                    <clipitem id="dba7b0f1-f26e-44fd-99ab-d92674bd7b1d" premiereChannelType="stereo">
                        <masterclipid>masterclip-1</masterclipid>
                        <name>02e06 Source.mp4</name>
                        <enabled>TRUE</enabled>
                        <duration>17008</duration>
                        <rate>
                            <timebase>24</timebase>
                            <ntsc>FALSE</ntsc>
                        </rate>
                        <start>2645</start>
                        <end>2673</end>
                        <in>7829</in>
                        <out>7857</out>
                        <file id="file-5"/>

                        <labels>
                            <label2>Iris</label2>
                        </labels>
                    </clipitem>
                    <clipitem id="44587e88-d840-417e-9c03-d7c4ba9f6153" premiereChannelType="stereo">
                        <masterclipid>masterclip-1</masterclipid>
                        <name>02e06 Source.mp4</name>
                        <enabled>TRUE</enabled>
                        <duration>17008</duration>
                        <rate>
                            <timebase>24</timebase>
                            <ntsc>FALSE</ntsc>
                        </rate>
                        <start>2673</start>
                        <end>2728</end>
                        <in>7864</in>
                        <out>7919</out>
                        <file id="file-5"/>

                        <labels>
                            <label2>Iris</label2>
                        </labels>
                    </clipitem>
                    <clipitem id="a0920ed1-ecf2-479d-b92d-903f2ac179ee" premiereChannelType="stereo">
                        <masterclipid>masterclip-1</masterclipid>
                        <name>02e06 Source.mp4</name>
                        <enabled>TRUE</enabled>
                        <duration>17008</duration>
                        <rate>
                            <timebase>24</timebase>
                            <ntsc>FALSE</ntsc>
                        </rate>
                        <start>2728</start>
                        <end>2747</end>
                        <in>7922</in>
                        <out>7941</out>
                        <file id="file-5"/>

                        <labels>
                            <label2>Iris</label2>
                        </labels>
                    </clipitem>
                    <clipitem id="ff8eed23-0087-43a3-9bde-a7381d657583" premiereChannelType="stereo">
                        <masterclipid>masterclip-1</masterclipid>
                        <name>02e06 Source.mp4</name>
                        <enabled>TRUE</enabled>
                        <duration>17008</duration>
                        <rate>
                            <timebase>24</timebase>
                            <ntsc>FALSE</ntsc>
                        </rate>
                        <start>2747</start>
                        <end>2790</end>
                        <in>7952</in>
                        <out>7995</out>
                        <file id="file-5"/>

                        <labels>
                            <label2>Iris</label2>
                        </labels>
                    </clipitem>
                    <clipitem id="83cbdf6a-29c7-4b31-9c9f-f3053ccbae7f" premiereChannelType="stereo">
                        <masterclipid>masterclip-1</masterclipid>
                        <name>02e06 Source.mp4</name>
                        <enabled>TRUE</enabled>
                        <duration>17008</duration>
                        <rate>
                            <timebase>24</timebase>
                            <ntsc>FALSE</ntsc>
                        </rate>
                        <start>2790</start>
                        <end>2807</end>
                        <in>7997</in>
                        <out>8014</out>
                        <file id="file-5"/>

                        <labels>
                            <label2>Iris</label2>
                        </labels>
                    </clipitem>
                    <clipitem id="355435ed-86e7-496c-8cee-d066323e695b" premiereChannelType="stereo">
                        <masterclipid>masterclip-1</masterclipid>
                        <name>02e06 Source.mp4</name>
                        <enabled>TRUE</enabled>
                        <duration>17008</duration>
                        <rate>
                            <timebase>24</timebase>
                            <ntsc>FALSE</ntsc>
                        </rate>
                        <start>2807</start>
                        <end>2854</end>
                        <in>8014</in>
                        <out>8061</out>
                        <file id="file-5"/>

                        <labels>
                            <label2>Iris</label2>
                        </labels>
                    </clipitem>
                    <clipitem id="a5dc85be-6e8c-477e-8205-c0b6a4f38b39" premiereChannelType="stereo">
                        <masterclipid>masterclip-1</masterclipid>
                        <name>02e06 Source.mp4</name>
                        <enabled>TRUE</enabled>
                        <duration>17008</duration>
                        <rate>
                            <timebase>24</timebase>
                            <ntsc>FALSE</ntsc>
                        </rate>
                        <start>2854</start>
                        <end>2882</end>
                        <in>8063</in>
                        <out>8091</out>
                        <file id="file-5"/>

                        <labels>
                            <label2>Iris</label2>
                        </labels>
                    </clipitem>
                    <clipitem id="2d6aff51-0e7a-4e8e-a1f9-f43f59c154f6" premiereChannelType="stereo">
                        <masterclipid>masterclip-1</masterclipid>
                        <name>02e06 Source.mp4</name>
                        <enabled>TRUE</enabled>
                        <duration>17008</duration>
                        <rate>
                            <timebase>24</timebase>
                            <ntsc>FALSE</ntsc>
                        </rate>
                        <start>2882</start>
                        <end>2909</end>
                        <in>8036</in>
                        <out>8063</out>
                        <file id="file-5"/>

                        <labels>
                            <label2>Iris</label2>
                        </labels>
                    </clipitem>
                    <clipitem id="d1e3d41b-d2f8-49f0-9191-7af1ec31f17e" premiereChannelType="stereo">
                        <masterclipid>masterclip-1</masterclipid>
                        <name>02e06 Source.mp4</name>
                        <enabled>TRUE</enabled>
                        <duration>17008</duration>
                        <rate>
                            <timebase>24</timebase>
                            <ntsc>FALSE</ntsc>
                        </rate>
                        <start>2909</start>
                        <end>2921</end>
                        <in>8065</in>
                        <out>8077</out>
                        <file id="file-5"/>

                        <labels>
                            <label2>Iris</label2>
                        </labels>
                    </clipitem>
                    <clipitem id="f4f58a03-9998-4f79-938f-7c3be74e2b3f" premiereChannelType="stereo">
                        <masterclipid>masterclip-1</masterclipid>
                        <name>02e06 Source.mp4</name>
                        <enabled>TRUE</enabled>
                        <duration>17008</duration>
                        <rate>
                            <timebase>24</timebase>
                            <ntsc>FALSE</ntsc>
                        </rate>
                        <start>2921</start>
                        <end>2932</end>
                        <in>8077</in>
                        <out>8088</out>
                        <file id="file-5"/>

                        <labels>
                            <label2>Iris</label2>
                        </labels>
                    </clipitem>
                    <clipitem id="d43989ed-c323-4bf8-8acf-53e00317a8e7" premiereChannelType="stereo">
                        <masterclipid>masterclip-1</masterclipid>
                        <name>02e06 Source.mp4</name>
                        <enabled>TRUE</enabled>
                        <duration>17008</duration>
                        <rate>
                            <timebase>24</timebase>
                            <ntsc>FALSE</ntsc>
                        </rate>
                        <start>2932</start>
                        <end>2944</end>
                        <in>8173</in>
                        <out>8185</out>
                        <file id="file-5"/>

                        <labels>
                            <label2>Iris</label2>
                        </labels>
                    </clipitem>
                    <clipitem id="0c636593-c0ca-4ea7-bc20-ef67550e53fd" premiereChannelType="stereo">
                        <masterclipid>masterclip-1</masterclipid>
                        <name>02e06 Source.mp4</name>
                        <enabled>TRUE</enabled>
                        <duration>17008</duration>
                        <rate>
                            <timebase>24</timebase>
                            <ntsc>FALSE</ntsc>
                        </rate>
                        <start>2944</start>
                        <end>2955</end>
                        <in>8185</in>
                        <out>8196</out>
                        <file id="file-5"/>

                        <labels>
                            <label2>Iris</label2>
                        </labels>
                    </clipitem>
                    <clipitem id="bac9d4a7-36aa-4a65-969f-720c2d377694" premiereChannelType="stereo">
                        <masterclipid>masterclip-1</masterclipid>
                        <name>02e06 Source.mp4</name>
                        <enabled>TRUE</enabled>
                        <duration>17008</duration>
                        <rate>
                            <timebase>24</timebase>
                            <ntsc>FALSE</ntsc>
                        </rate>
                        <start>2955</start>
                        <end>2969</end>
                        <in>8247</in>
                        <out>8261</out>
                        <file id="file-5"/>

                        <labels>
                            <label2>Iris</label2>
                        </labels>
                    </clipitem>
                    <clipitem id="b7a99ad9-e282-44c5-8452-726707a4f5de" premiereChannelType="stereo">
                        <masterclipid>masterclip-1</masterclipid>
                        <name>02e06 Source.mp4</name>
                        <enabled>TRUE</enabled>
                        <duration>17008</duration>
                        <rate>
                            <timebase>24</timebase>
                            <ntsc>FALSE</ntsc>
                        </rate>
                        <start>2969</start>
                        <end>3033</end>
                        <in>8261</in>
                        <out>8325</out>
                        <file id="file-5"/>

                        <labels>
                            <label2>Iris</label2>
                        </labels>
                    </clipitem>
                    <clipitem id="7d9519c4-bad0-4693-8a88-cc5877f891c9" premiereChannelType="stereo">
                        <masterclipid>masterclip-1</masterclipid>
                        <name>02e06 Source.mp4</name>
                        <enabled>TRUE</enabled>
                        <duration>17008</duration>
                        <rate>
                            <timebase>24</timebase>
                            <ntsc>FALSE</ntsc>
                        </rate>
                        <start>3033</start>
                        <end>3060</end>
                        <in>8296</in>
                        <out>8323</out>
                        <file id="file-5"/>

                        <labels>
                            <label2>Iris</label2>
                        </labels>
                    </clipitem>
                    <clipitem id="e7d6571d-8ee0-419d-a708-d967c6f027e2" premiereChannelType="stereo">
                        <masterclipid>masterclip-1</masterclipid>
                        <name>02e06 Source.mp4</name>
                        <enabled>TRUE</enabled>
                        <duration>17008</duration>
                        <rate>
                            <timebase>24</timebase>
                            <ntsc>FALSE</ntsc>
                        </rate>
                        <start>3060</start>
                        <end>3089</end>
                        <in>8799</in>
                        <out>8828</out>
                        <file id="file-5"/>

                        <labels>
                            <label2>Iris</label2>
                        </labels>
                    </clipitem>
                    <clipitem id="0b6529bf-4391-471d-be1e-0628edc066d1" premiereChannelType="stereo">
                        <masterclipid>masterclip-1</masterclipid>
                        <name>02e06 Source.mp4</name>
                        <enabled>TRUE</enabled>
                        <duration>17008</duration>
                        <rate>
                            <timebase>24</timebase>
                            <ntsc>FALSE</ntsc>
                        </rate>
                        <start>3089</start>
                        <end>3120</end>
                        <in>8965</in>
                        <out>8996</out>
                        <file id="file-5"/>

                        <labels>
                            <label2>Iris</label2>
                        </labels>
                    </clipitem>
                    <clipitem id="28924e07-44f1-4bfb-8303-71111e658bbf" premiereChannelType="stereo">
                        <masterclipid>masterclip-1</masterclipid>
                        <name>02e06 Source.mp4</name>
                        <enabled>TRUE</enabled>
                        <duration>17008</duration>
                        <rate>
                            <timebase>24</timebase>
                            <ntsc>FALSE</ntsc>
                        </rate>
                        <start>3120</start>
                        <end>3146</end>
                        <in>9015</in>
                        <out>9041</out>
                        <file id="file-5"/>

                        <labels>
                            <label2>Iris</label2>
                        </labels>
                    </clipitem>
                    <clipitem id="750dfc41-0873-4516-bee8-dc3b528569bc" premiereChannelType="stereo">
                        <masterclipid>masterclip-1</masterclipid>
                        <name>02e06 Source.mp4</name>
                        <enabled>TRUE</enabled>
                        <duration>17008</duration>
                        <rate>
                            <timebase>24</timebase>
                            <ntsc>FALSE</ntsc>
                        </rate>
                        <start>3146</start>
                        <end>3183</end>
                        <in>9306</in>
                        <out>9343</out>
                        <file id="file-5"/>

                        <labels>
                            <label2>Iris</label2>
                        </labels>
                    </clipitem>
                    <clipitem id="e9952b46-fe33-458d-8129-7999329bada1" premiereChannelType="stereo">
                        <masterclipid>masterclip-1</masterclipid>
                        <name>02e06 Source.mp4</name>
                        <enabled>TRUE</enabled>
                        <duration>17008</duration>
                        <rate>
                            <timebase>24</timebase>
                            <ntsc>FALSE</ntsc>
                        </rate>
                        <start>3183</start>
                        <end>3208</end>
                        <in>9459</in>
                        <out>9484</out>
                        <file id="file-5"/>

                        <labels>
                            <label2>Iris</label2>
                        </labels>
                    </clipitem>
                    <clipitem id="5b1079bd-c764-4154-8379-f9df9530c30d" premiereChannelType="stereo">
                        <masterclipid>masterclip-1</masterclipid>
                        <name>02e06 Source.mp4</name>
                        <enabled>TRUE</enabled>
                        <duration>17008</duration>
                        <rate>
                            <timebase>24</timebase>
                            <ntsc>FALSE</ntsc>
                        </rate>
                        <start>3208</start>
                        <end>3220</end>
                        <in>9458</in>
                        <out>9470</out>
                        <file id="file-5"/>

                        <labels>
                            <label2>Iris</label2>
                        </labels>
                    </clipitem>
                    <clipitem id="98349bc3-a5e8-4437-af48-5c51b7e2a04c" premiereChannelType="stereo">
                        <masterclipid>masterclip-1</masterclipid>
                        <name>02e06 Source.mp4</name>
                        <enabled>TRUE</enabled>
                        <duration>17008</duration>
                        <rate>
                            <timebase>24</timebase>
                            <ntsc>FALSE</ntsc>
                        </rate>
                        <start>3220</start>
                        <end>3231</end>
                        <in>9498</in>
                        <out>9509</out>
                        <file id="file-5"/>

                        <labels>
                            <label2>Iris</label2>
                        </labels>
                    </clipitem>
                    <clipitem id="66a6178f-4419-4ac7-9b94-498e768521f0" premiereChannelType="stereo">
                        <masterclipid>masterclip-1</masterclipid>
                        <name>02e06 Source.mp4</name>
                        <enabled>TRUE</enabled>
                        <duration>17008</duration>
                        <rate>
                            <timebase>24</timebase>
                            <ntsc>FALSE</ntsc>
                        </rate>
                        <start>3231</start>
                        <end>3277</end>
                        <in>9509</in>
                        <out>9555</out>
                        <file id="file-5"/>

                        <labels>
                            <label2>Iris</label2>
                        </labels>
                    </clipitem>
                    <clipitem id="9865fa12-f711-439e-9541-e3140bbf9e53" premiereChannelType="stereo">
                        <masterclipid>masterclip-1</masterclipid>
                        <name>02e06 Source.mp4</name>
                        <enabled>TRUE</enabled>
                        <duration>17008</duration>
                        <rate>
                            <timebase>24</timebase>
                            <ntsc>FALSE</ntsc>
                        </rate>
                        <start>3277</start>
                        <end>3290</end>
                        <in>9627</in>
                        <out>9640</out>
                        <file id="file-5"/>

                        <labels>
                            <label2>Iris</label2>
                        </labels>
                    </clipitem>
                    <clipitem id="7f74c62c-e4c8-4bb5-8dd4-08e078e5169e" premiereChannelType="stereo">
                        <masterclipid>masterclip-1</masterclipid>
                        <name>02e06 Source.mp4</name>
                        <enabled>TRUE</enabled>
                        <duration>17008</duration>
                        <rate>
                            <timebase>24</timebase>
                            <ntsc>FALSE</ntsc>
                        </rate>
                        <start>3290</start>
                        <end>3321</end>
                        <in>9640</in>
                        <out>9671</out>
                        <file id="file-5"/>

                        <labels>
                            <label2>Iris</label2>
                        </labels>
                    </clipitem>
                    <clipitem id="115538e7-17cc-4e6e-a2ef-82471a9cccfc" premiereChannelType="stereo">
                        <masterclipid>masterclip-1</masterclipid>
                        <name>02e06 Source.mp4</name>
                        <enabled>TRUE</enabled>
                        <duration>17008</duration>
                        <rate>
                            <timebase>24</timebase>
                            <ntsc>FALSE</ntsc>
                        </rate>
                        <start>3321</start>
                        <end>3347</end>
                        <in>9693</in>
                        <out>9719</out>
                        <file id="file-5"/>

                        <labels>
                            <label2>Iris</label2>
                        </labels>
                    </clipitem>
                    <clipitem id="b9a5c176-e411-4a3a-967f-5e2f82f30d8b" premiereChannelType="stereo">
                        <masterclipid>masterclip-1</masterclipid>
                        <name>02e06 Source.mp4</name>
                        <enabled>TRUE</enabled>
                        <duration>17008</duration>
                        <rate>
                            <timebase>24</timebase>
                            <ntsc>FALSE</ntsc>
                        </rate>
                        <start>3347</start>
                        <end>3384</end>
                        <in>9561</in>
                        <out>9598</out>
                        <file id="file-5"/>

                        <labels>
                            <label2>Iris</label2>
                        </labels>
                    </clipitem>
                    <clipitem id="8aad723c-501b-4729-ad4a-abd4472dff56" premiereChannelType="stereo">
                        <masterclipid>masterclip-1</masterclipid>
                        <name>02e06 Source.mp4</name>
                        <enabled>TRUE</enabled>
                        <duration>17008</duration>
                        <rate>
                            <timebase>24</timebase>
                            <ntsc>FALSE</ntsc>
                        </rate>
                        <start>3384</start>
                        <end>3445</end>
                        <in>9715</in>
                        <out>9776</out>
                        <file id="file-5"/>

                        <labels>
                            <label2>Iris</label2>
                        </labels>
                    </clipitem>
                    <clipitem id="06cfa70b-252c-4358-96a7-ccbe17bcab4d" premiereChannelType="stereo">
                        <masterclipid>masterclip-1</masterclipid>
                        <name>02e06 Source.mp4</name>
                        <enabled>TRUE</enabled>
                        <duration>17008</duration>
                        <rate>
                            <timebase>24</timebase>
                            <ntsc>FALSE</ntsc>
                        </rate>
                        <start>3445</start>
                        <end>3479</end>
                        <in>9877</in>
                        <out>9911</out>
                        <file id="file-5"/>

                        <labels>
                            <label2>Iris</label2>
                        </labels>
                    </clipitem>
                    <clipitem id="f097ecd8-5758-4aae-866f-63b4d63ac342" premiereChannelType="stereo">
                        <masterclipid>masterclip-1</masterclipid>
                        <name>02e06 Source.mp4</name>
                        <enabled>TRUE</enabled>
                        <duration>17008</duration>
                        <rate>
                            <timebase>24</timebase>
                            <ntsc>FALSE</ntsc>
                        </rate>
                        <start>3479</start>
                        <end>3553</end>
                        <in>10199</in>
                        <out>10273</out>
                        <file id="file-5"/>

                        <labels>
                            <label2>Iris</label2>
                        </labels>
                    </clipitem>
                    <clipitem id="8b2efbd6-fd86-44a2-b96c-3a5f60f22617" premiereChannelType="stereo">
                        <masterclipid>masterclip-1</masterclipid>
                        <name>02e06 Source.mp4</name>
                        <enabled>TRUE</enabled>
                        <duration>17008</duration>
                        <rate>
                            <timebase>24</timebase>
                            <ntsc>FALSE</ntsc>
                        </rate>
                        <start>3553</start>
                        <end>3632</end>
                        <in>10313</in>
                        <out>10392</out>
                        <file id="file-5"/>

                        <labels>
                            <label2>Iris</label2>
                        </labels>
                    </clipitem>
                    <clipitem id="c6b6deb7-2fbe-4c03-abb5-9f2c5dc661ed" premiereChannelType="stereo">
                        <masterclipid>masterclip-1</masterclipid>
                        <name>02e06 Source.mp4</name>
                        <enabled>TRUE</enabled>
                        <duration>17008</duration>
                        <rate>
                            <timebase>24</timebase>
                            <ntsc>FALSE</ntsc>
                        </rate>
                        <start>3632</start>
                        <end>3687</end>
                        <in>10396</in>
                        <out>10451</out>
                        <file id="file-5"/>

                        <labels>
                            <label2>Iris</label2>
                        </labels>
                    </clipitem>
                    <clipitem id="467110fe-3df4-4e76-ab15-cd21a601f89a" premiereChannelType="stereo">
                        <masterclipid>masterclip-1</masterclipid>
                        <name>02e06 Source.mp4</name>
                        <enabled>TRUE</enabled>
                        <duration>17008</duration>
                        <rate>
                            <timebase>24</timebase>
                            <ntsc>FALSE</ntsc>
                        </rate>
                        <start>3687</start>
                        <end>3698</end>
                        <in>10664</in>
                        <out>10675</out>
                        <file id="file-5"/>

                        <labels>
                            <label2>Iris</label2>
                        </labels>
                    </clipitem>
                    <clipitem id="bb933b1d-15d9-421a-b8d0-a387c6310de5" premiereChannelType="stereo">
                        <masterclipid>masterclip-1</masterclipid>
                        <name>02e06 Source.mp4</name>
                        <enabled>TRUE</enabled>
                        <duration>17008</duration>
                        <rate>
                            <timebase>24</timebase>
                            <ntsc>FALSE</ntsc>
                        </rate>
                        <start>3698</start>
                        <end>3731</end>
                        <in>10675</in>
                        <out>10708</out>
                        <file id="file-5"/>

                        <labels>
                            <label2>Iris</label2>
                        </labels>
                    </clipitem>
                    <clipitem id="844a19d1-bfd3-46b5-adf4-45af3b1eda62" premiereChannelType="stereo">
                        <masterclipid>masterclip-1</masterclipid>
                        <name>02e06 Source.mp4</name>
                        <enabled>TRUE</enabled>
                        <duration>17008</duration>
                        <rate>
                            <timebase>24</timebase>
                            <ntsc>FALSE</ntsc>
                        </rate>
                        <start>3731</start>
                        <end>3744</end>
                        <in>10709</in>
                        <out>10722</out>
                        <file id="file-5"/>

                        <labels>
                            <label2>Iris</label2>
                        </labels>
                    </clipitem>
                    <clipitem id="ff827c6b-bd47-498c-9c6c-52155922c727" premiereChannelType="stereo">
                        <masterclipid>masterclip-1</masterclipid>
                        <name>02e06 Source.mp4</name>
                        <enabled>TRUE</enabled>
                        <duration>17008</duration>
                        <rate>
                            <timebase>24</timebase>
                            <ntsc>FALSE</ntsc>
                        </rate>
                        <start>3744</start>
                        <end>3768</end>
                        <in>10723</in>
                        <out>10747</out>
                        <file id="file-5"/>

                        <labels>
                            <label2>Iris</label2>
                        </labels>
                    </clipitem>
                    <clipitem id="e94ef234-b459-49e5-ba67-8fe2f51886ea" premiereChannelType="stereo">
                        <masterclipid>masterclip-1</masterclipid>
                        <name>02e06 Source.mp4</name>
                        <enabled>TRUE</enabled>
                        <duration>17008</duration>
                        <rate>
                            <timebase>24</timebase>
                            <ntsc>FALSE</ntsc>
                        </rate>
                        <start>3768</start>
                        <end>3789</end>
                        <in>10776</in>
                        <out>10797</out>
                        <file id="file-5"/>

                        <labels>
                            <label2>Iris</label2>
                        </labels>
                    </clipitem>
                    <clipitem id="7d377ffc-ebf3-4b73-b4a0-b5b60acc3bd3" premiereChannelType="stereo">
                        <masterclipid>masterclip-1</masterclipid>
                        <name>02e06 Source.mp4</name>
                        <enabled>TRUE</enabled>
                        <duration>17008</duration>
                        <rate>
                            <timebase>24</timebase>
                            <ntsc>FALSE</ntsc>
                        </rate>
                        <start>3789</start>
                        <end>3800</end>
                        <in>10798</in>
                        <out>10809</out>
                        <file id="file-5"/>

                        <labels>
                            <label2>Iris</label2>
                        </labels>
                    </clipitem>
                    <clipitem id="777afeeb-1dd7-4411-bf7d-756ed5454816" premiereChannelType="stereo">
                        <masterclipid>masterclip-1</masterclipid>
                        <name>02e06 Source.mp4</name>
                        <enabled>TRUE</enabled>
                        <duration>17008</duration>
                        <rate>
                            <timebase>24</timebase>
                            <ntsc>FALSE</ntsc>
                        </rate>
                        <start>3800</start>
                        <end>3842</end>
                        <in>10870</in>
                        <out>10912</out>
                        <file id="file-5"/>

                        <labels>
                            <label2>Iris</label2>
                        </labels>
                    </clipitem>
                    <clipitem id="8fdceb3e-d750-4cd8-a567-ad9ca05f44e7" premiereChannelType="stereo">
                        <masterclipid>masterclip-1</masterclipid>
                        <name>02e06 Source.mp4</name>
                        <enabled>TRUE</enabled>
                        <duration>17008</duration>
                        <rate>
                            <timebase>24</timebase>
                            <ntsc>FALSE</ntsc>
                        </rate>
                        <start>3842</start>
                        <end>3856</end>
                        <in>11058</in>
                        <out>11072</out>
                        <file id="file-5"/>

                        <labels>
                            <label2>Iris</label2>
                        </labels>
                    </clipitem>
                    <clipitem id="c40ba39c-d965-452b-beb3-6925c1da5d40" premiereChannelType="stereo">
                        <masterclipid>masterclip-1</masterclipid>
                        <name>02e06 Source.mp4</name>
                        <enabled>TRUE</enabled>
                        <duration>17008</duration>
                        <rate>
                            <timebase>24</timebase>
                            <ntsc>FALSE</ntsc>
                        </rate>
                        <start>3856</start>
                        <end>3867</end>
                        <in>11072</in>
                        <out>11083</out>
                        <file id="file-5"/>

                        <labels>
                            <label2>Iris</label2>
                        </labels>
                    </clipitem>
                    <clipitem id="e7b970b4-2e8d-4f15-87c7-e58a358ae22a" premiereChannelType="stereo">
                        <masterclipid>masterclip-1</masterclipid>
                        <name>02e06 Source.mp4</name>
                        <enabled>TRUE</enabled>
                        <duration>17008</duration>
                        <rate>
                            <timebase>24</timebase>
                            <ntsc>FALSE</ntsc>
                        </rate>
                        <start>3867</start>
                        <end>3894</end>
                        <in>11084</in>
                        <out>11111</out>
                        <file id="file-5"/>

                        <labels>
                            <label2>Iris</label2>
                        </labels>
                    </clipitem>
                    <clipitem id="03d09456-84dd-437c-ae71-82a2095472d9" premiereChannelType="stereo">
                        <masterclipid>masterclip-1</masterclipid>
                        <name>02e06 Source.mp4</name>
                        <enabled>TRUE</enabled>
                        <duration>17008</duration>
                        <rate>
                            <timebase>24</timebase>
                            <ntsc>FALSE</ntsc>
                        </rate>
                        <start>3894</start>
                        <end>3908</end>
                        <in>11328</in>
                        <out>11342</out>
                        <file id="file-5"/>

                        <labels>
                            <label2>Iris</label2>
                        </labels>
                    </clipitem>
                    <clipitem id="a4930ef2-cc10-466c-8cf3-5ca01153a99b" premiereChannelType="stereo">
                        <masterclipid>masterclip-1</masterclipid>
                        <name>02e06 Source.mp4</name>
                        <enabled>TRUE</enabled>
                        <duration>17008</duration>
                        <rate>
                            <timebase>24</timebase>
                            <ntsc>FALSE</ntsc>
                        </rate>
                        <start>3908</start>
                        <end>3921</end>
                        <in>11345</in>
                        <out>11358</out>
                        <file id="file-5"/>

                        <labels>
                            <label2>Iris</label2>
                        </labels>
                    </clipitem>
                    <clipitem id="43f531bc-9316-4da1-a373-64944f6ff6bf" premiereChannelType="stereo">
                        <masterclipid>masterclip-1</masterclipid>
                        <name>02e06 Source.mp4</name>
                        <enabled>TRUE</enabled>
                        <duration>17008</duration>
                        <rate>
                            <timebase>24</timebase>
                            <ntsc>FALSE</ntsc>
                        </rate>
                        <start>3921</start>
                        <end>3934</end>
                        <in>11458</in>
                        <out>11471</out>
                        <file id="file-5"/>

                        <labels>
                            <label2>Iris</label2>
                        </labels>
                    </clipitem>
                    <clipitem id="32974971-4011-4c47-b634-81d5abd2116f" premiereChannelType="stereo">
                        <masterclipid>masterclip-1</masterclipid>
                        <name>02e06 Source.mp4</name>
                        <enabled>TRUE</enabled>
                        <duration>17008</duration>
                        <rate>
                            <timebase>24</timebase>
                            <ntsc>FALSE</ntsc>
                        </rate>
                        <start>3934</start>
                        <end>3959</end>
                        <in>11471</in>
                        <out>11496</out>
                        <file id="file-5"/>

                        <labels>
                            <label2>Iris</label2>
                        </labels>
                    </clipitem>
                    <clipitem id="f25bebfa-017a-4022-9c4f-77eff304acf0" premiereChannelType="stereo">
                        <masterclipid>masterclip-1</masterclipid>
                        <name>02e06 Source.mp4</name>
                        <enabled>TRUE</enabled>
                        <duration>17008</duration>
                        <rate>
                            <timebase>24</timebase>
                            <ntsc>FALSE</ntsc>
                        </rate>
                        <start>3959</start>
                        <end>3973</end>
                        <in>11564</in>
                        <out>11578</out>
                        <file id="file-5"/>

                        <labels>
                            <label2>Iris</label2>
                        </labels>
                    </clipitem>
                    <clipitem id="b29b3551-4528-4f9a-9375-b3b5295b7762" premiereChannelType="stereo">
                        <masterclipid>masterclip-1</masterclipid>
                        <name>02e06 Source.mp4</name>
                        <enabled>TRUE</enabled>
                        <duration>17008</duration>
                        <rate>
                            <timebase>24</timebase>
                            <ntsc>FALSE</ntsc>
                        </rate>
                        <start>3976</start>
                        <end>3996</end>
                        <in>11583</in>
                        <out>11603</out>
                        <file id="file-5"/>

                        <labels>
                            <label2>Iris</label2>
                        </labels>
                    </clipitem>
                    <clipitem id="c6147224-de7e-4185-ac53-03bb5f46ec04" premiereChannelType="stereo">
                        <masterclipid>masterclip-1</masterclipid>
                        <name>02e06 Source.mp4</name>
                        <enabled>TRUE</enabled>
                        <duration>17008</duration>
                        <rate>
                            <timebase>24</timebase>
                            <ntsc>FALSE</ntsc>
                        </rate>
                        <start>3996</start>
                        <end>4030</end>
                        <in>11801</in>
                        <out>11835</out>
                        <file id="file-5"/>

                        <labels>
                            <label2>Iris</label2>
                        </labels>
                    </clipitem>
                    <clipitem id="7d9f1344-350c-4694-976f-7b81ad6b689f" premiereChannelType="stereo">
                        <masterclipid>masterclip-1</masterclipid>
                        <name>02e06 Source.mp4</name>
                        <enabled>TRUE</enabled>
                        <duration>17008</duration>
                        <rate>
                            <timebase>24</timebase>
                            <ntsc>FALSE</ntsc>
                        </rate>
                        <start>4030</start>
                        <end>4061</end>
                        <in>11894</in>
                        <out>11925</out>
                        <file id="file-5"/>

                        <labels>
                            <label2>Iris</label2>
                        </labels>
                    </clipitem>
                    <clipitem id="2d2cbcfa-208e-4a58-9c25-996a402589af" premiereChannelType="stereo">
                        <masterclipid>masterclip-1</masterclipid>
                        <name>02e06 Source.mp4</name>
                        <enabled>TRUE</enabled>
                        <duration>17008</duration>
                        <rate>
                            <timebase>24</timebase>
                            <ntsc>FALSE</ntsc>
                        </rate>
                        <start>4061</start>
                        <end>4115</end>
                        <in>11972</in>
                        <out>12026</out>
                        <file id="file-5"/>

                        <labels>
                            <label2>Iris</label2>
                        </labels>
                    </clipitem>
                    <clipitem id="dba15135-0960-476f-9fbb-768ab6510bae" premiereChannelType="stereo">
                        <masterclipid>masterclip-1</masterclipid>
                        <name>02e06 Source.mp4</name>
                        <enabled>TRUE</enabled>
                        <duration>17008</duration>
                        <rate>
                            <timebase>24</timebase>
                            <ntsc>FALSE</ntsc>
                        </rate>
                        <start>4115</start>
                        <end>4141</end>
                        <in>12026</in>
                        <out>12052</out>
                        <file id="file-5"/>

                        <labels>
                            <label2>Iris</label2>
                        </labels>
                    </clipitem>
                    <clipitem id="42bb195e-c4de-4675-b63e-d71361f79f1d" premiereChannelType="stereo">
                        <masterclipid>masterclip-1</masterclipid>
                        <name>02e06 Source.mp4</name>
                        <enabled>TRUE</enabled>
                        <duration>17008</duration>
                        <rate>
                            <timebase>24</timebase>
                            <ntsc>FALSE</ntsc>
                        </rate>
                        <start>4141</start>
                        <end>4156</end>
                        <in>12055</in>
                        <out>12070</out>
                        <file id="file-5"/>

                        <labels>
                            <label2>Iris</label2>
                        </labels>
                    </clipitem>
                    <clipitem id="f6f98a83-0534-4447-ba23-597ee1b70466" premiereChannelType="stereo">
                        <masterclipid>masterclip-1</masterclipid>
                        <name>02e06 Source.mp4</name>
                        <enabled>TRUE</enabled>
                        <duration>17008</duration>
                        <rate>
                            <timebase>24</timebase>
                            <ntsc>FALSE</ntsc>
                        </rate>
                        <start>4156</start>
                        <end>4177</end>
                        <in>12071</in>
                        <out>12092</out>
                        <file id="file-5"/>

                        <labels>
                            <label2>Iris</label2>
                        </labels>
                    </clipitem>
                    <clipitem id="0943b942-3ee3-42ec-84e6-915c34ed6e54" premiereChannelType="stereo">
                        <masterclipid>masterclip-1</masterclipid>
                        <name>02e06 Source.mp4</name>
                        <enabled>TRUE</enabled>
                        <duration>17008</duration>
                        <rate>
                            <timebase>24</timebase>
                            <ntsc>FALSE</ntsc>
                        </rate>
                        <start>4177</start>
                        <end>4209</end>
                        <in>12092</in>
                        <out>12124</out>
                        <file id="file-5"/>

                        <labels>
                            <label2>Iris</label2>
                        </labels>
                    </clipitem>
                    <clipitem id="00366b3b-311c-420f-a29a-a088a1da9571" premiereChannelType="stereo">
                        <masterclipid>masterclip-1</masterclipid>
                        <name>02e06 Source.mp4</name>
                        <enabled>TRUE</enabled>
                        <duration>17008</duration>
                        <rate>
                            <timebase>24</timebase>
                            <ntsc>FALSE</ntsc>
                        </rate>
                        <start>4209</start>
                        <end>4266</end>
                        <in>12126</in>
                        <out>12183</out>
                        <file id="file-5"/>

                        <labels>
                            <label2>Iris</label2>
                        </labels>
                    </clipitem>
                    <clipitem id="8bbf7873-42ba-4c30-8656-fd41a20748de" premiereChannelType="stereo">
                        <masterclipid>masterclip-1</masterclipid>
                        <name>02e06 Source.mp4</name>
                        <enabled>TRUE</enabled>
                        <duration>17008</duration>
                        <rate>
                            <timebase>24</timebase>
                            <ntsc>FALSE</ntsc>
                        </rate>
                        <start>4266</start>
                        <end>4288</end>
                        <in>12200</in>
                        <out>12222</out>
                        <file id="file-5"/>

                        <labels>
                            <label2>Iris</label2>
                        </labels>
                    </clipitem>
                    <clipitem id="06f38a3f-8a96-450b-9368-0ffd142f86bf" premiereChannelType="stereo">
                        <masterclipid>masterclip-1</masterclipid>
                        <name>02e06 Source.mp4</name>
                        <enabled>TRUE</enabled>
                        <duration>17008</duration>
                        <rate>
                            <timebase>24</timebase>
                            <ntsc>FALSE</ntsc>
                        </rate>
                        <start>4288</start>
                        <end>4299</end>
                        <in>12258</in>
                        <out>12269</out>
                        <file id="file-5"/>

                        <labels>
                            <label2>Iris</label2>
                        </labels>
                    </clipitem>
                    <clipitem id="ffad8a09-0bb3-4e13-b11b-d05eeaa5a26e" premiereChannelType="stereo">
                        <masterclipid>masterclip-1</masterclipid>
                        <name>02e06 Source.mp4</name>
                        <enabled>TRUE</enabled>
                        <duration>17008</duration>
                        <rate>
                            <timebase>24</timebase>
                            <ntsc>FALSE</ntsc>
                        </rate>
                        <start>4299</start>
                        <end>4310</end>
                        <in>12270</in>
                        <out>12281</out>
                        <file id="file-5"/>

                        <labels>
                            <label2>Iris</label2>
                        </labels>
                    </clipitem>
                    <clipitem id="eea5eff8-cc14-4c32-ab1a-e540193e14cb" premiereChannelType="stereo">
                        <masterclipid>masterclip-1</masterclipid>
                        <name>02e06 Source.mp4</name>
                        <enabled>TRUE</enabled>
                        <duration>17008</duration>
                        <rate>
                            <timebase>24</timebase>
                            <ntsc>FALSE</ntsc>
                        </rate>
                        <start>4310</start>
                        <end>4345</end>
                        <in>12548</in>
                        <out>12583</out>
                        <file id="file-5"/>

                        <labels>
                            <label2>Iris</label2>
                        </labels>
                    </clipitem>
                    <clipitem id="920c4bf5-7a30-4012-add3-46a699fe28da" premiereChannelType="stereo">
                        <masterclipid>masterclip-1</masterclipid>
                        <name>02e06 Source.mp4</name>
                        <enabled>TRUE</enabled>
                        <duration>17008</duration>
                        <rate>
                            <timebase>24</timebase>
                            <ntsc>FALSE</ntsc>
                        </rate>
                        <start>4345</start>
                        <end>4373</end>
                        <in>12742</in>
                        <out>12770</out>
                        <file id="file-5"/>

                        <labels>
                            <label2>Iris</label2>
                        </labels>
                    </clipitem>
                    <clipitem id="3a3c906b-ddde-4e24-8334-6ebb5cf55d64" premiereChannelType="stereo">
                        <masterclipid>masterclip-1</masterclipid>
                        <name>02e06 Source.mp4</name>
                        <enabled>TRUE</enabled>
                        <duration>17008</duration>
                        <rate>
                            <timebase>24</timebase>
                            <ntsc>FALSE</ntsc>
                        </rate>
                        <start>4373</start>
                        <end>4412</end>
                        <in>12808</in>
                        <out>12847</out>
                        <file id="file-5"/>

                        <labels>
                            <label2>Iris</label2>
                        </labels>
                    </clipitem>
                    <clipitem id="898c46e7-f128-48d2-b3b0-683d2955b475" premiereChannelType="stereo">
                        <masterclipid>masterclip-1</masterclipid>
                        <name>02e06 Source.mp4</name>
                        <enabled>TRUE</enabled>
                        <duration>17008</duration>
                        <rate>
                            <timebase>24</timebase>
                            <ntsc>FALSE</ntsc>
                        </rate>
                        <start>4412</start>
                        <end>4445</end>
                        <in>13033</in>
                        <out>13066</out>
                        <file id="file-5"/>

                        <labels>
                            <label2>Iris</label2>
                        </labels>
                    </clipitem>
                    <clipitem id="24810b95-0c3c-4e87-a439-45575467189a" premiereChannelType="stereo">
                        <masterclipid>masterclip-1</masterclipid>
                        <name>02e06 Source.mp4</name>
                        <enabled>TRUE</enabled>
                        <duration>17008</duration>
                        <rate>
                            <timebase>24</timebase>
                            <ntsc>FALSE</ntsc>
                        </rate>
                        <start>4445</start>
                        <end>4460</end>
                        <in>13068</in>
                        <out>13083</out>
                        <file id="file-5"/>

                        <labels>
                            <label2>Iris</label2>
                        </labels>
                    </clipitem>
                    <clipitem id="8b9daf62-c5c7-4a67-855a-96a6acadd7a6" premiereChannelType="stereo">
                        <masterclipid>masterclip-1</masterclipid>
                        <name>02e06 Source.mp4</name>
                        <enabled>TRUE</enabled>
                        <duration>17008</duration>
                        <rate>
                            <timebase>24</timebase>
                            <ntsc>FALSE</ntsc>
                        </rate>
                        <start>4460</start>
                        <end>4493</end>
                        <in>13193</in>
                        <out>13226</out>
                        <file id="file-5"/>

                        <labels>
                            <label2>Iris</label2>
                        </labels>
                    </clipitem>
                    <clipitem id="5e8d5497-2f53-40fb-84b1-b6b28fde8fa0" premiereChannelType="stereo">
                        <masterclipid>masterclip-1</masterclipid>
                        <name>02e06 Source.mp4</name>
                        <enabled>TRUE</enabled>
                        <duration>17008</duration>
                        <rate>
                            <timebase>24</timebase>
                            <ntsc>FALSE</ntsc>
                        </rate>
                        <start>4493</start>
                        <end>4504</end>
                        <in>13424</in>
                        <out>13435</out>
                        <file id="file-5"/>

                        <labels>
                            <label2>Iris</label2>
                        </labels>
                    </clipitem>
                    <clipitem id="5929963c-8dac-4ad2-8684-1fdc630f14e3" premiereChannelType="stereo">
                        <masterclipid>masterclip-1</masterclipid>
                        <name>02e06 Source.mp4</name>
                        <enabled>TRUE</enabled>
                        <duration>17008</duration>
                        <rate>
                            <timebase>24</timebase>
                            <ntsc>FALSE</ntsc>
                        </rate>
                        <start>4504</start>
                        <end>4515</end>
                        <in>13435</in>
                        <out>13446</out>
                        <file id="file-5"/>

                        <labels>
                            <label2>Iris</label2>
                        </labels>
                    </clipitem>
                    <clipitem id="1c5e18bc-1ff4-47bf-bd97-db21c9d698f0" premiereChannelType="stereo">
                        <masterclipid>masterclip-1</masterclipid>
                        <name>02e06 Source.mp4</name>
                        <enabled>TRUE</enabled>
                        <duration>17008</duration>
                        <rate>
                            <timebase>24</timebase>
                            <ntsc>FALSE</ntsc>
                        </rate>
                        <start>4515</start>
                        <end>4535</end>
                        <in>13447</in>
                        <out>13467</out>
                        <file id="file-5"/>

                        <labels>
                            <label2>Iris</label2>
                        </labels>
                    </clipitem>
                    <clipitem id="284e3f32-fef1-42a5-be79-43d489cd8093" premiereChannelType="stereo">
                        <masterclipid>masterclip-1</masterclipid>
                        <name>02e06 Source.mp4</name>
                        <enabled>TRUE</enabled>
                        <duration>17008</duration>
                        <rate>
                            <timebase>24</timebase>
                            <ntsc>FALSE</ntsc>
                        </rate>
                        <start>4535</start>
                        <end>4555</end>
                        <in>13467</in>
                        <out>13487</out>
                        <file id="file-5"/>

                        <labels>
                            <label2>Iris</label2>
                        </labels>
                    </clipitem>
                    <clipitem id="631c81f3-7358-4762-aedd-f5a26a90fbf0" premiereChannelType="stereo">
                        <masterclipid>masterclip-1</masterclipid>
                        <name>02e06 Source.mp4</name>
                        <enabled>TRUE</enabled>
                        <duration>17008</duration>
                        <rate>
                            <timebase>24</timebase>
                            <ntsc>FALSE</ntsc>
                        </rate>
                        <start>4555</start>
                        <end>4576</end>
                        <in>13789</in>
                        <out>13810</out>
                        <file id="file-5"/>

                        <labels>
                            <label2>Iris</label2>
                        </labels>
                    </clipitem>
                    <clipitem id="5cc4d973-970f-415d-9812-2f7064737e2e" premiereChannelType="stereo">
                        <masterclipid>masterclip-1</masterclipid>
                        <name>02e06 Source.mp4</name>
                        <enabled>TRUE</enabled>
                        <duration>17008</duration>
                        <rate>
                            <timebase>24</timebase>
                            <ntsc>FALSE</ntsc>
                        </rate>
                        <start>4576</start>
                        <end>4589</end>
                        <in>13811</in>
                        <out>13824</out>
                        <file id="file-5"/>

                        <labels>
                            <label2>Iris</label2>
                        </labels>
                    </clipitem>
                    <clipitem id="eafa50e9-60f6-4d03-b3b1-10ba11e3c7f3" premiereChannelType="stereo">
                        <masterclipid>masterclip-1</masterclipid>
                        <name>02e06 Source.mp4</name>
                        <enabled>TRUE</enabled>
                        <duration>17008</duration>
                        <rate>
                            <timebase>24</timebase>
                            <ntsc>FALSE</ntsc>
                        </rate>
                        <start>4589</start>
                        <end>4684</end>
                        <in>13949</in>
                        <out>14044</out>
                        <file id="file-5"/>

                        <labels>
                            <label2>Iris</label2>
                        </labels>
                    </clipitem>
                    <clipitem id="af877b38-d326-424f-8422-95f8010ec169" premiereChannelType="stereo">
                        <masterclipid>masterclip-1</masterclipid>
                        <name>02e06 Source.mp4</name>
                        <enabled>TRUE</enabled>
                        <duration>17008</duration>
                        <rate>
                            <timebase>24</timebase>
                            <ntsc>FALSE</ntsc>
                        </rate>
                        <start>4684</start>
                        <end>4699</end>
                        <in>14051</in>
                        <out>14066</out>
                        <file id="file-5"/>

                        <labels>
                            <label2>Iris</label2>
                        </labels>
                    </clipitem>
                    <clipitem id="89fd3d26-d094-4c45-89c8-a051c9c3da2c" premiereChannelType="stereo">
                        <masterclipid>masterclip-1</masterclipid>
                        <name>02e06 Source.mp4</name>
                        <enabled>TRUE</enabled>
                        <duration>17008</duration>
                        <rate>
                            <timebase>24</timebase>
                            <ntsc>FALSE</ntsc>
                        </rate>
                        <start>4699</start>
                        <end>4749</end>
                        <in>14066</in>
                        <out>14116</out>
                        <file id="file-5"/>

                        <labels>
                            <label2>Iris</label2>
                        </labels>
                    </clipitem>
                    <clipitem id="14113d48-4463-4abe-bc06-2d012d3b6cf5" premiereChannelType="stereo">
                        <masterclipid>masterclip-1</masterclipid>
                        <name>02e06 Source.mp4</name>
                        <enabled>TRUE</enabled>
                        <duration>17008</duration>
                        <rate>
                            <timebase>24</timebase>
                            <ntsc>FALSE</ntsc>
                        </rate>
                        <start>4749</start>
                        <end>4781</end>
                        <in>14118</in>
                        <out>14150</out>
                        <file id="file-5"/>

                        <labels>
                            <label2>Iris</label2>
                        </labels>
                    </clipitem>
                    <clipitem id="eb838970-43d8-4173-948f-a17fe100f8fa" premiereChannelType="stereo">
                        <masterclipid>masterclip-1</masterclipid>
                        <name>02e06 Source.mp4</name>
                        <enabled>TRUE</enabled>
                        <duration>17008</duration>
                        <rate>
                            <timebase>24</timebase>
                            <ntsc>FALSE</ntsc>
                        </rate>
                        <start>4781</start>
                        <end>4796</end>
                        <in>14152</in>
                        <out>14167</out>
                        <file id="file-5"/>

                        <labels>
                            <label2>Iris</label2>
                        </labels>
                    </clipitem>
                    <clipitem id="dc4dc0fd-e807-4169-873d-63aa5257864b" premiereChannelType="stereo">
                        <masterclipid>masterclip-1</masterclipid>
                        <name>02e06 Source.mp4</name>
                        <enabled>TRUE</enabled>
                        <duration>17008</duration>
                        <rate>
                            <timebase>24</timebase>
                            <ntsc>FALSE</ntsc>
                        </rate>
                        <start>4796</start>
                        <end>4829</end>
                        <in>14186</in>
                        <out>14219</out>
                        <file id="file-5"/>

                        <labels>
                            <label2>Iris</label2>
                        </labels>
                    </clipitem>
                    <clipitem id="c8604f41-3493-4d8f-b460-45295fda8164" premiereChannelType="stereo">
                        <masterclipid>masterclip-1</masterclipid>
                        <name>02e06 Source.mp4</name>
                        <enabled>TRUE</enabled>
                        <duration>17008</duration>
                        <rate>
                            <timebase>24</timebase>
                            <ntsc>FALSE</ntsc>
                        </rate>
                        <start>4829</start>
                        <end>4848</end>
                        <in>14278</in>
                        <out>14297</out>
                        <file id="file-5"/>

                        <labels>
                            <label2>Iris</label2>
                        </labels>
                    </clipitem>
                    <clipitem id="1fc1abe3-e8e8-4745-b31f-58954ffae341" premiereChannelType="stereo">
                        <masterclipid>masterclip-1</masterclipid>
                        <name>02e06 Source.mp4</name>
                        <enabled>TRUE</enabled>
                        <duration>17008</duration>
                        <rate>
                            <timebase>24</timebase>
                            <ntsc>FALSE</ntsc>
                        </rate>
                        <start>4848</start>
                        <end>4878</end>
                        <in>14297</in>
                        <out>14327</out>
                        <file id="file-5"/>

                        <labels>
                            <label2>Iris</label2>
                        </labels>
                    </clipitem>
                    <clipitem id="55870cc1-a2a1-45b1-9dbc-5b96fe28fbee" premiereChannelType="stereo">
                        <masterclipid>masterclip-1</masterclipid>
                        <name>02e06 Source.mp4</name>
                        <enabled>TRUE</enabled>
                        <duration>17008</duration>
                        <rate>
                            <timebase>24</timebase>
                            <ntsc>FALSE</ntsc>
                        </rate>
                        <start>4878</start>
                        <end>4896</end>
                        <in>14329</in>
                        <out>14347</out>
                        <file id="file-5"/>

                        <labels>
                            <label2>Iris</label2>
                        </labels>
                    </clipitem>
                    <clipitem id="27221223-a8a1-49a1-bc84-8bac514044df" premiereChannelType="stereo">
                        <masterclipid>masterclip-1</masterclipid>
                        <name>02e06 Source.mp4</name>
                        <enabled>TRUE</enabled>
                        <duration>17008</duration>
                        <rate>
                            <timebase>24</timebase>
                            <ntsc>FALSE</ntsc>
                        </rate>
                        <start>4896</start>
                        <end>4908</end>
                        <in>14363</in>
                        <out>14375</out>
                        <file id="file-5"/>

                        <labels>
                            <label2>Iris</label2>
                        </labels>
                    </clipitem>
                    <clipitem id="e2730251-359e-4cbe-864f-79d49aec5a37" premiereChannelType="stereo">
                        <masterclipid>masterclip-1</masterclipid>
                        <name>02e06 Source.mp4</name>
                        <enabled>TRUE</enabled>
                        <duration>17008</duration>
                        <rate>
                            <timebase>24</timebase>
                            <ntsc>FALSE</ntsc>
                        </rate>
                        <start>4908</start>
                        <end>4929</end>
                        <in>14376</in>
                        <out>14397</out>
                        <file id="file-5"/>

                        <labels>
                            <label2>Iris</label2>
                        </labels>
                    </clipitem>
                    <clipitem id="80d33f03-59f4-48b1-89c7-08b206038f7e" premiereChannelType="stereo">
                        <masterclipid>masterclip-1</masterclipid>
                        <name>02e06 Source.mp4</name>
                        <enabled>TRUE</enabled>
                        <duration>17008</duration>
                        <rate>
                            <timebase>24</timebase>
                            <ntsc>FALSE</ntsc>
                        </rate>
                        <start>4929</start>
                        <end>4944</end>
                        <in>14752</in>
                        <out>14767</out>
                        <file id="file-5"/>

                        <labels>
                            <label2>Iris</label2>
                        </labels>
                    </clipitem>
                    <clipitem id="a06152e2-408c-4cea-9b18-78ab107d42d2" premiereChannelType="stereo">
                        <masterclipid>masterclip-1</masterclipid>
                        <name>02e06 Source.mp4</name>
                        <enabled>TRUE</enabled>
                        <duration>17008</duration>
                        <rate>
                            <timebase>24</timebase>
                            <ntsc>FALSE</ntsc>
                        </rate>
                        <start>4944</start>
                        <end>4969</end>
                        <in>14767</in>
                        <out>14792</out>
                        <file id="file-5"/>

                        <labels>
                            <label2>Iris</label2>
                        </labels>
                    </clipitem>
                    <clipitem id="25c56da0-e01b-46e2-a7cc-9f3456e74853" premiereChannelType="stereo">
                        <masterclipid>masterclip-1</masterclipid>
                        <name>02e06 Source.mp4</name>
                        <enabled>TRUE</enabled>
                        <duration>17008</duration>
                        <rate>
                            <timebase>24</timebase>
                            <ntsc>FALSE</ntsc>
                        </rate>
                        <start>4969</start>
                        <end>5034</end>
                        <in>14820</in>
                        <out>14885</out>
                        <file id="file-5"/>

                        <labels>
                            <label2>Iris</label2>
                        </labels>
                    </clipitem>
                    <clipitem id="f93bcd8d-fdbe-4b3c-8092-39c08dbf89bf" premiereChannelType="stereo">
                        <masterclipid>masterclip-1</masterclipid>
                        <name>02e06 Source.mp4</name>
                        <enabled>TRUE</enabled>
                        <duration>17008</duration>
                        <rate>
                            <timebase>24</timebase>
                            <ntsc>FALSE</ntsc>
                        </rate>
                        <start>5034</start>
                        <end>5093</end>
                        <in>14887</in>
                        <out>14946</out>
                        <file id="file-5"/>

                        <labels>
                            <label2>Iris</label2>
                        </labels>
                    </clipitem>
                    <clipitem id="91cb07ec-d367-4c99-be2a-39ba641b97d5" premiereChannelType="stereo">
                        <masterclipid>masterclip-1</masterclipid>
                        <name>02e06 Source.mp4</name>
                        <enabled>TRUE</enabled>
                        <duration>17008</duration>
                        <rate>
                            <timebase>24</timebase>
                            <ntsc>FALSE</ntsc>
                        </rate>
                        <start>5093</start>
                        <end>5175</end>
                        <in>14949</in>
                        <out>15031</out>
                        <file id="file-5"/>

                        <labels>
                            <label2>Iris</label2>
                        </labels>
                    </clipitem>
                    <clipitem id="48ed9e70-7d6b-424d-b8c1-60ccf08e4f74" premiereChannelType="stereo">
                        <masterclipid>masterclip-1</masterclipid>
                        <name>02e06 Source.mp4</name>
                        <enabled>TRUE</enabled>
                        <duration>17008</duration>
                        <rate>
                            <timebase>24</timebase>
                            <ntsc>FALSE</ntsc>
                        </rate>
                        <start>5175</start>
                        <end>5187</end>
                        <in>15035</in>
                        <out>15047</out>
                        <file id="file-5"/>

                        <labels>
                            <label2>Iris</label2>
                        </labels>
                    </clipitem>
                    <clipitem id="52686e8f-0dc7-4129-ab3d-fadc148b7870" premiereChannelType="stereo">
                        <masterclipid>masterclip-1</masterclipid>
                        <name>02e06 Source.mp4</name>
                        <enabled>TRUE</enabled>
                        <duration>17008</duration>
                        <rate>
                            <timebase>24</timebase>
                            <ntsc>FALSE</ntsc>
                        </rate>
                        <start>5187</start>
                        <end>5202</end>
                        <in>15046</in>
                        <out>15061</out>
                        <file id="file-5"/>

                        <labels>
                            <label2>Iris</label2>
                        </labels>
                    </clipitem>
                    <clipitem id="e15f2c30-1bef-4345-8ed1-f069fda76ab1" premiereChannelType="stereo">
                        <masterclipid>masterclip-1</masterclipid>
                        <name>02e06 Source.mp4</name>
                        <enabled>TRUE</enabled>
                        <duration>17008</duration>
                        <rate>
                            <timebase>24</timebase>
                            <ntsc>FALSE</ntsc>
                        </rate>
                        <start>5202</start>
                        <end>5216</end>
                        <in>15068</in>
                        <out>15082</out>
                        <file id="file-5"/>

                        <labels>
                            <label2>Iris</label2>
                        </labels>
                    </clipitem>
                    <clipitem id="8b43016e-ed9d-4e72-97d5-7c375987d967" premiereChannelType="stereo">
                        <masterclipid>masterclip-1</masterclipid>
                        <name>02e06 Source.mp4</name>
                        <enabled>TRUE</enabled>
                        <duration>17008</duration>
                        <rate>
                            <timebase>24</timebase>
                            <ntsc>FALSE</ntsc>
                        </rate>
                        <start>5216</start>
                        <end>5250</end>
                        <in>15300</in>
                        <out>15334</out>
                        <file id="file-5"/>

                        <labels>
                            <label2>Iris</label2>
                        </labels>
                    </clipitem>
                    <clipitem id="a3519aa6-d0e6-46b9-9a11-d41819bf2b4e" premiereChannelType="stereo">
                        <masterclipid>masterclip-1</masterclipid>
                        <name>02e06 Source.mp4</name>
                        <enabled>TRUE</enabled>
                        <duration>17008</duration>
                        <rate>
                            <timebase>24</timebase>
                            <ntsc>FALSE</ntsc>
                        </rate>
                        <start>5250</start>
                        <end>5288</end>
                        <in>15518</in>
                        <out>15556</out>
                        <file id="file-5"/>

                        <labels>
                            <label2>Iris</label2>
                        </labels>
                    </clipitem>
                    <clipitem id="4fda9954-a18a-44e0-a472-11c16b5120b6" premiereChannelType="stereo">
                        <masterclipid>masterclip-1</masterclipid>
                        <name>02e06 Source.mp4</name>
                        <enabled>TRUE</enabled>
                        <duration>17008</duration>
                        <rate>
                            <timebase>24</timebase>
                            <ntsc>FALSE</ntsc>
                        </rate>
                        <start>5288</start>
                        <end>5360</end>
                        <in>15558</in>
                        <out>15630</out>
                        <file id="file-5"/>

                        <labels>
                            <label2>Iris</label2>
                        </labels>
                    </clipitem>
                    <clipitem id="29d6dd2e-f9ac-41d0-9ab9-e557493f9fdb" premiereChannelType="stereo">
                        <masterclipid>masterclip-1</masterclipid>
                        <name>02e06 Source.mp4</name>
                        <enabled>TRUE</enabled>
                        <duration>17008</duration>
                        <rate>
                            <timebase>24</timebase>
                            <ntsc>FALSE</ntsc>
                        </rate>
                        <start>5360</start>
                        <end>5371</end>
                        <in>15633</in>
                        <out>15644</out>
                        <file id="file-5"/>

                        <labels>
                            <label2>Iris</label2>
                        </labels>
                    </clipitem>
                    <clipitem id="005c88d0-f080-40bc-b03a-d8a98c83d209" premiereChannelType="stereo">
                        <masterclipid>masterclip-1</masterclipid>
                        <name>02e06 Source.mp4</name>
                        <enabled>TRUE</enabled>
                        <duration>17008</duration>
                        <rate>
                            <timebase>24</timebase>
                            <ntsc>FALSE</ntsc>
                        </rate>
                        <start>5371</start>
                        <end>5410</end>
                        <in>15644</in>
                        <out>15683</out>
                        <file id="file-5"/>

                        <labels>
                            <label2>Iris</label2>
                        </labels>
                    </clipitem>
                </track>
                <track TL.SQTrackShy="0" TL.SQTrackExpandedHeight="25" TL.SQTrackExpanded="0" MZ.TrackTargeted="0">
                    <enabled>TRUE</enabled>
                    <locked>FALSE</locked>
                </track>
                <track TL.SQTrackShy="0" TL.SQTrackExpandedHeight="25" TL.SQTrackExpanded="0" MZ.TrackTargeted="0">
                    <enabled>TRUE</enabled>
                    <locked>FALSE</locked>
                </track>
            </video>
            <audio>
                <numOutputChannels>2</numOutputChannels>
                <format>
                    <samplecharacteristics>
                        <depth>16</depth>
                        <samplerate>44100</samplerate>
                    </samplecharacteristics>
                </format>
                <outputs>
                    <group>
                        <index>1</index>
                        <numchannels>1</numchannels>
                        <downmix>0</downmix>
                        <channel>
                            <index>1</index>
                        </channel>
                    </group>
                    <group>
                        <index>2</index>
                        <numchannels>1</numchannels>
                        <downmix>0</downmix>
                        <channel>
                            <index>2</index>
                        </channel>
                    </group>
                </outputs>
                <track TL.SQTrackAudioKeyframeStyle="0" TL.SQTrackShy="0" TL.SQTrackExpandedHeight="25"
                       TL.SQTrackExpanded="0" MZ.TrackTargeted="1" PannerCurrentValue="0.5" PannerIsInverted="true"
                       PannerStartKeyframe="-91445760000000000,0.5,0,0,0,0,0,0" PannerName="骞宠　"
                       currentExplodedTrackIndex="0" totalExplodedTrackCount="2" premiereTrackType="Stereo">

                    <clipitem id="21fd6e11-745a-4c17-958c-2faf0860ce8d" premiereChannelType="stereo">
                        <masterclipid>masterclip-1</masterclipid>
                        <name>02e06 Source.mp4</name>
                        <enabled>TRUE</enabled>
                        <duration>17008</duration>
                        <rate>
                            <timebase>24</timebase>
                            <ntsc>FALSE</ntsc>
                        </rate>
                        <start>1</start>
                        <end>27</end>
                        <in>1737</in>
                        <out>1763</out>
                        <file id="file-5">
                            <name>02e06 Source.mp4</name>
                            <pathurl>file://localhost/E%3A/data/02e06%20Source.mp4</pathurl>
                            <rate>
                                <timebase>24</timebase>
                                <ntsc>FALSE</ntsc>
                            </rate>
                            <duration>17008</duration>
                            <timecode>
                                <rate>
                                    <timebase>24</timebase>
                                    <ntsc>FALSE</ntsc>
                                </rate>
                                <string>00:00:00:00</string>
                                <frame>0</frame>
                                <displayformat>NDF</displayformat>
                            </timecode>
                            <media>
                                <video>
                                    <samplecharacteristics>
                                        <rate>
                                            <timebase>24</timebase>
                                            <ntsc>FALSE</ntsc>
                                        </rate>
                                        <width>1920</width>
                                        <height>1080</height>
                                        <anamorphic>FALSE</anamorphic>
                                        <pixelaspectratio>square</pixelaspectratio>
                                        <fielddominance>none</fielddominance>
                                    </samplecharacteristics>
                                </video>
                                <audio>
                                    <samplecharacteristics>
                                        <depth>16</depth>
                                        <samplerate>48000</samplerate>
                                    </samplecharacteristics>
                                    <channelcount>2</channelcount>
                                </audio>
                            </media>
                        </file>
                        <sourcetrack>
                            <mediatype>audio</mediatype>
                            <trackindex>1</trackindex>
                        </sourcetrack>
                        <labels>
                            <label2>Iris</label2>
                        </labels>
                    </clipitem>
                    <clipitem id="a1962636-e34c-4980-b3d9-29833b2aaa34" premiereChannelType="stereo">
                        <masterclipid>masterclip-1</masterclipid>
                        <name>02e06 Source.mp4</name>
                        <enabled>TRUE</enabled>
                        <duration>17008</duration>
                        <rate>
                            <timebase>24</timebase>
                            <ntsc>FALSE</ntsc>
                        </rate>
                        <start>27</start>
                        <end>38</end>
                        <in>1764</in>
                        <out>1775</out>
                        <file id="file-5"/>
                        <sourcetrack>
                            <mediatype>audio</mediatype>
                            <trackindex>1</trackindex>
                        </sourcetrack>
                        <labels>
                            <label2>Iris</label2>
                        </labels>
                    </clipitem>
                    <clipitem id="b9f3bd25-000a-45ce-bf4e-6b11d5347c23" premiereChannelType="stereo">
                        <masterclipid>masterclip-1</masterclipid>
                        <name>02e06 Source.mp4</name>
                        <enabled>TRUE</enabled>
                        <duration>17008</duration>
                        <rate>
                            <timebase>24</timebase>
                            <ntsc>FALSE</ntsc>
                        </rate>
                        <start>38</start>
                        <end>100</end>
                        <in>2108</in>
                        <out>2170</out>
                        <file id="file-5"/>
                        <sourcetrack>
                            <mediatype>audio</mediatype>
                            <trackindex>1</trackindex>
                        </sourcetrack>
                        <labels>
                            <label2>Iris</label2>
                        </labels>
                    </clipitem>
                    <clipitem id="079aa820-0c8f-466b-9986-7afd92bfdf89" premiereChannelType="stereo">
                        <masterclipid>masterclip-1</masterclipid>
                        <name>02e06 Source.mp4</name>
                        <enabled>TRUE</enabled>
                        <duration>17008</duration>
                        <rate>
                            <timebase>24</timebase>
                            <ntsc>FALSE</ntsc>
                        </rate>
                        <start>100</start>
                        <end>148</end>
                        <in>2140</in>
                        <out>2188</out>
                        <file id="file-5"/>
                        <sourcetrack>
                            <mediatype>audio</mediatype>
                            <trackindex>1</trackindex>
                        </sourcetrack>
                        <labels>
                            <label2>Iris</label2>
                        </labels>
                    </clipitem>
                    <clipitem id="48bdace1-17dd-4695-b560-c2dcf00b8625" premiereChannelType="stereo">
                        <masterclipid>masterclip-1</masterclipid>
                        <name>02e06 Source.mp4</name>
                        <enabled>TRUE</enabled>
                        <duration>17008</duration>
                        <rate>
                            <timebase>24</timebase>
                            <ntsc>FALSE</ntsc>
                        </rate>
                        <start>148</start>
                        <end>159</end>
                        <in>2190</in>
                        <out>2201</out>
                        <file id="file-5"/>
                        <sourcetrack>
                            <mediatype>audio</mediatype>
                            <trackindex>1</trackindex>
                        </sourcetrack>
                        <labels>
                            <label2>Iris</label2>
                        </labels>
                    </clipitem>
                    <clipitem id="13161e2b-f8d7-4402-b179-c4d71b4d1269" premiereChannelType="stereo">
                        <masterclipid>masterclip-1</masterclipid>
                        <name>02e06 Source.mp4</name>
                        <enabled>TRUE</enabled>
                        <duration>17008</duration>
                        <rate>
                            <timebase>24</timebase>
                            <ntsc>FALSE</ntsc>
                        </rate>
                        <start>159</start>
                        <end>171</end>
                        <in>2306</in>
                        <out>2318</out>
                        <file id="file-5"/>
                        <sourcetrack>
                            <mediatype>audio</mediatype>
                            <trackindex>1</trackindex>
                        </sourcetrack>
                        <labels>
                            <label2>Iris</label2>
                        </labels>
                    </clipitem>
                    <clipitem id="9ac05105-5a19-484e-81b8-502a25cae967" premiereChannelType="stereo">
                        <masterclipid>masterclip-1</masterclipid>
                        <name>02e06 Source.mp4</name>
                        <enabled>TRUE</enabled>
                        <duration>17008</duration>
                        <rate>
                            <timebase>24</timebase>
                            <ntsc>FALSE</ntsc>
                        </rate>
                        <start>171</start>
                        <end>190</end>
                        <in>2318</in>
                        <out>2337</out>
                        <file id="file-5"/>
                        <sourcetrack>
                            <mediatype>audio</mediatype>
                            <trackindex>1</trackindex>
                        </sourcetrack>
                        <labels>
                            <label2>Iris</label2>
                        </labels>
                    </clipitem>
                    <clipitem id="d77b49c5-f46d-41d4-9da3-a8ee7711b2c0" premiereChannelType="stereo">
                        <masterclipid>masterclip-1</masterclipid>
                        <name>02e06 Source.mp4</name>
                        <enabled>TRUE</enabled>
                        <duration>17008</duration>
                        <rate>
                            <timebase>24</timebase>
                            <ntsc>FALSE</ntsc>
                        </rate>
                        <start>190</start>
                        <end>236</end>
                        <in>2448</in>
                        <out>2494</out>
                        <file id="file-5"/>
                        <sourcetrack>
                            <mediatype>audio</mediatype>
                            <trackindex>1</trackindex>
                        </sourcetrack>
                        <labels>
                            <label2>Iris</label2>
                        </labels>
                    </clipitem>
                    <clipitem id="be8a8a2a-4181-42c2-96f6-ca19c98a6aff" premiereChannelType="stereo">
                        <masterclipid>masterclip-1</masterclipid>
                        <name>02e06 Source.mp4</name>
                        <enabled>TRUE</enabled>
                        <duration>17008</duration>
                        <rate>
                            <timebase>24</timebase>
                            <ntsc>FALSE</ntsc>
                        </rate>
                        <start>236</start>
                        <end>259</end>
                        <in>2518</in>
                        <out>2541</out>
                        <file id="file-5"/>
                        <sourcetrack>
                            <mediatype>audio</mediatype>
                            <trackindex>1</trackindex>
                        </sourcetrack>
                        <labels>
                            <label2>Iris</label2>
                        </labels>
                    </clipitem>
                    <clipitem id="a1fc4ac8-3843-4a4b-a2ff-2f57fd0dc3f5" premiereChannelType="stereo">
                        <masterclipid>masterclip-1</masterclipid>
                        <name>02e06 Source.mp4</name>
                        <enabled>TRUE</enabled>
                        <duration>17008</duration>
                        <rate>
                            <timebase>24</timebase>
                            <ntsc>FALSE</ntsc>
                        </rate>
                        <start>259</start>
                        <end>285</end>
                        <in>2546</in>
                        <out>2572</out>
                        <file id="file-5"/>
                        <sourcetrack>
                            <mediatype>audio</mediatype>
                            <trackindex>1</trackindex>
                        </sourcetrack>
                        <labels>
                            <label2>Iris</label2>
                        </labels>
                    </clipitem>
                    <clipitem id="550ce5e2-57e7-4244-9886-83ca2fa74b12" premiereChannelType="stereo">
                        <masterclipid>masterclip-1</masterclipid>
                        <name>02e06 Source.mp4</name>
                        <enabled>TRUE</enabled>
                        <duration>17008</duration>
                        <rate>
                            <timebase>24</timebase>
                            <ntsc>FALSE</ntsc>
                        </rate>
                        <start>285</start>
                        <end>316</end>
                        <in>2584</in>
                        <out>2615</out>
                        <file id="file-5"/>
                        <sourcetrack>
                            <mediatype>audio</mediatype>
                            <trackindex>1</trackindex>
                        </sourcetrack>
                        <labels>
                            <label2>Iris</label2>
                        </labels>
                    </clipitem>
                    <clipitem id="49bba4d7-ce72-436e-adf2-0cc829989399" premiereChannelType="stereo">
                        <masterclipid>masterclip-1</masterclipid>
                        <name>02e06 Source.mp4</name>
                        <enabled>TRUE</enabled>
                        <duration>17008</duration>
                        <rate>
                            <timebase>24</timebase>
                            <ntsc>FALSE</ntsc>
                        </rate>
                        <start>316</start>
                        <end>327</end>
                        <in>2619</in>
                        <out>2630</out>
                        <file id="file-5"/>
                        <sourcetrack>
                            <mediatype>audio</mediatype>
                            <trackindex>1</trackindex>
                        </sourcetrack>
                        <labels>
                            <label2>Iris</label2>
                        </labels>
                    </clipitem>
                    <clipitem id="d973d5b4-4f08-4631-85ef-8f24aaf74135" premiereChannelType="stereo">
                        <masterclipid>masterclip-1</masterclipid>
                        <name>02e06 Source.mp4</name>
                        <enabled>TRUE</enabled>
                        <duration>17008</duration>
                        <rate>
                            <timebase>24</timebase>
                            <ntsc>FALSE</ntsc>
                        </rate>
                        <start>327</start>
                        <end>339</end>
                        <in>3137</in>
                        <out>3149</out>
                        <file id="file-5"/>
                        <sourcetrack>
                            <mediatype>audio</mediatype>
                            <trackindex>1</trackindex>
                        </sourcetrack>
                        <labels>
                            <label2>Iris</label2>
                        </labels>
                    </clipitem>
                    <clipitem id="1868901f-3c3b-47bd-bf3a-5e976ed2e883" premiereChannelType="stereo">
                        <masterclipid>masterclip-1</masterclipid>
                        <name>02e06 Source.mp4</name>
                        <enabled>TRUE</enabled>
                        <duration>17008</duration>
                        <rate>
                            <timebase>24</timebase>
                            <ntsc>FALSE</ntsc>
                        </rate>
                        <start>339</start>
                        <end>412</end>
                        <in>3150</in>
                        <out>3223</out>
                        <file id="file-5"/>
                        <sourcetrack>
                            <mediatype>audio</mediatype>
                            <trackindex>1</trackindex>
                        </sourcetrack>
                        <labels>
                            <label2>Iris</label2>
                        </labels>
                    </clipitem>
                    <clipitem id="877b7101-66a5-4ce2-be0b-02f236352af5" premiereChannelType="stereo">
                        <masterclipid>masterclip-1</masterclipid>
                        <name>02e06 Source.mp4</name>
                        <enabled>TRUE</enabled>
                        <duration>17008</duration>
                        <rate>
                            <timebase>24</timebase>
                            <ntsc>FALSE</ntsc>
                        </rate>
                        <start>412</start>
                        <end>465</end>
                        <in>3226</in>
                        <out>3279</out>
                        <file id="file-5"/>
                        <sourcetrack>
                            <mediatype>audio</mediatype>
                            <trackindex>1</trackindex>
                        </sourcetrack>
                        <labels>
                            <label2>Iris</label2>
                        </labels>
                    </clipitem>
                    <clipitem id="d7ffcaaa-a76c-47c1-83f3-5aa4a954c870" premiereChannelType="stereo">
                        <masterclipid>masterclip-1</masterclipid>
                        <name>02e06 Source.mp4</name>
                        <enabled>TRUE</enabled>
                        <duration>17008</duration>
                        <rate>
                            <timebase>24</timebase>
                            <ntsc>FALSE</ntsc>
                        </rate>
                        <start>465</start>
                        <end>521</end>
                        <in>3450</in>
                        <out>3506</out>
                        <file id="file-5"/>
                        <sourcetrack>
                            <mediatype>audio</mediatype>
                            <trackindex>1</trackindex>
                        </sourcetrack>
                        <labels>
                            <label2>Iris</label2>
                        </labels>
                    </clipitem>
                    <clipitem id="edda6c61-ee85-42ff-845f-62811851d463" premiereChannelType="stereo">
                        <masterclipid>masterclip-1</masterclipid>
                        <name>02e06 Source.mp4</name>
                        <enabled>TRUE</enabled>
                        <duration>17008</duration>
                        <rate>
                            <timebase>24</timebase>
                            <ntsc>FALSE</ntsc>
                        </rate>
                        <start>521</start>
                        <end>544</end>
                        <in>3394</in>
                        <out>3417</out>
                        <file id="file-5"/>
                        <sourcetrack>
                            <mediatype>audio</mediatype>
                            <trackindex>1</trackindex>
                        </sourcetrack>
                        <labels>
                            <label2>Iris</label2>
                        </labels>
                    </clipitem>
                    <clipitem id="505fc5ed-ea96-4738-867f-bee8ee26a48d" premiereChannelType="stereo">
                        <masterclipid>masterclip-1</masterclipid>
                        <name>02e06 Source.mp4</name>
                        <enabled>TRUE</enabled>
                        <duration>17008</duration>
                        <rate>
                            <timebase>24</timebase>
                            <ntsc>FALSE</ntsc>
                        </rate>
                        <start>544</start>
                        <end>555</end>
                        <in>3433</in>
                        <out>3444</out>
                        <file id="file-5"/>
                        <sourcetrack>
                            <mediatype>audio</mediatype>
                            <trackindex>1</trackindex>
                        </sourcetrack>
                        <labels>
                            <label2>Iris</label2>
                        </labels>
                    </clipitem>
                    <clipitem id="a9b14a15-39a0-4161-918c-16183ef87c0c" premiereChannelType="stereo">
                        <masterclipid>masterclip-1</masterclipid>
                        <name>02e06 Source.mp4</name>
                        <enabled>TRUE</enabled>
                        <duration>17008</duration>
                        <rate>
                            <timebase>24</timebase>
                            <ntsc>FALSE</ntsc>
                        </rate>
                        <start>555</start>
                        <end>567</end>
                        <in>3518</in>
                        <out>3530</out>
                        <file id="file-5"/>
                        <sourcetrack>
                            <mediatype>audio</mediatype>
                            <trackindex>1</trackindex>
                        </sourcetrack>
                        <labels>
                            <label2>Iris</label2>
                        </labels>
                    </clipitem>
                    <clipitem id="7788aab8-12c6-4439-a2de-640aa4cb1d74" premiereChannelType="stereo">
                        <masterclipid>masterclip-1</masterclipid>
                        <name>02e06 Source.mp4</name>
                        <enabled>TRUE</enabled>
                        <duration>17008</duration>
                        <rate>
                            <timebase>24</timebase>
                            <ntsc>FALSE</ntsc>
                        </rate>
                        <start>567</start>
                        <end>578</end>
                        <in>3530</in>
                        <out>3541</out>
                        <file id="file-5"/>
                        <sourcetrack>
                            <mediatype>audio</mediatype>
                            <trackindex>1</trackindex>
                        </sourcetrack>
                        <labels>
                            <label2>Iris</label2>
                        </labels>
                    </clipitem>
                    <clipitem id="518ca265-70c8-43a6-948c-8b0aeab3cb2e" premiereChannelType="stereo">
                        <masterclipid>masterclip-1</masterclipid>
                        <name>02e06 Source.mp4</name>
                        <enabled>TRUE</enabled>
                        <duration>17008</duration>
                        <rate>
                            <timebase>24</timebase>
                            <ntsc>FALSE</ntsc>
                        </rate>
                        <start>578</start>
                        <end>589</end>
                        <in>3542</in>
                        <out>3553</out>
                        <file id="file-5"/>
                        <sourcetrack>
                            <mediatype>audio</mediatype>
                            <trackindex>1</trackindex>
                        </sourcetrack>
                        <labels>
                            <label2>Iris</label2>
                        </labels>
                    </clipitem>
                    <clipitem id="71ebbb1b-30f9-4f7f-8002-4b1807c2e321" premiereChannelType="stereo">
                        <masterclipid>masterclip-1</masterclipid>
                        <name>02e06 Source.mp4</name>
                        <enabled>TRUE</enabled>
                        <duration>17008</duration>
                        <rate>
                            <timebase>24</timebase>
                            <ntsc>FALSE</ntsc>
                        </rate>
                        <start>589</start>
                        <end>600</end>
                        <in>3553</in>
                        <out>3564</out>
                        <file id="file-5"/>
                        <sourcetrack>
                            <mediatype>audio</mediatype>
                            <trackindex>1</trackindex>
                        </sourcetrack>
                        <labels>
                            <label2>Iris</label2>
                        </labels>
                    </clipitem>
                    <clipitem id="b39b15c0-99ff-4c1a-9564-301fd782cd8f" premiereChannelType="stereo">
                        <masterclipid>masterclip-1</masterclipid>
                        <name>02e06 Source.mp4</name>
                        <enabled>TRUE</enabled>
                        <duration>17008</duration>
                        <rate>
                            <timebase>24</timebase>
                            <ntsc>FALSE</ntsc>
                        </rate>
                        <start>600</start>
                        <end>623</end>
                        <in>3564</in>
                        <out>3587</out>
                        <file id="file-5"/>
                        <sourcetrack>
                            <mediatype>audio</mediatype>
                            <trackindex>1</trackindex>
                        </sourcetrack>
                        <labels>
                            <label2>Iris</label2>
                        </labels>
                    </clipitem>
                    <clipitem id="d34eea94-990f-45ed-b94a-8bb5eac68c11" premiereChannelType="stereo">
                        <masterclipid>masterclip-1</masterclipid>
                        <name>02e06 Source.mp4</name>
                        <enabled>TRUE</enabled>
                        <duration>17008</duration>
                        <rate>
                            <timebase>24</timebase>
                            <ntsc>FALSE</ntsc>
                        </rate>
                        <start>623</start>
                        <end>660</end>
                        <in>3677</in>
                        <out>3714</out>
                        <file id="file-5"/>
                        <sourcetrack>
                            <mediatype>audio</mediatype>
                            <trackindex>1</trackindex>
                        </sourcetrack>
                        <labels>
                            <label2>Iris</label2>
                        </labels>
                    </clipitem>
                    <clipitem id="c5486493-5497-4ce5-9e60-b460d7ed86e3" premiereChannelType="stereo">
                        <masterclipid>masterclip-1</masterclipid>
                        <name>02e06 Source.mp4</name>
                        <enabled>TRUE</enabled>
                        <duration>17008</duration>
                        <rate>
                            <timebase>24</timebase>
                            <ntsc>FALSE</ntsc>
                        </rate>
                        <start>660</start>
                        <end>700</end>
                        <in>3716</in>
                        <out>3756</out>
                        <file id="file-5"/>
                        <sourcetrack>
                            <mediatype>audio</mediatype>
                            <trackindex>1</trackindex>
                        </sourcetrack>
                        <labels>
                            <label2>Iris</label2>
                        </labels>
                    </clipitem>
                    <clipitem id="371b2307-727a-48e3-a074-387c1d8d71b4" premiereChannelType="stereo">
                        <masterclipid>masterclip-1</masterclipid>
                        <name>02e06 Source.mp4</name>
                        <enabled>TRUE</enabled>
                        <duration>17008</duration>
                        <rate>
                            <timebase>24</timebase>
                            <ntsc>FALSE</ntsc>
                        </rate>
                        <start>700</start>
                        <end>711</end>
                        <in>3758</in>
                        <out>3769</out>
                        <file id="file-5"/>
                        <sourcetrack>
                            <mediatype>audio</mediatype>
                            <trackindex>1</trackindex>
                        </sourcetrack>
                        <labels>
                            <label2>Iris</label2>
                        </labels>
                    </clipitem>
                    <clipitem id="e978b12e-d5ff-4093-b2d0-94a88202f227" premiereChannelType="stereo">
                        <masterclipid>masterclip-1</masterclipid>
                        <name>02e06 Source.mp4</name>
                        <enabled>TRUE</enabled>
                        <duration>17008</duration>
                        <rate>
                            <timebase>24</timebase>
                            <ntsc>FALSE</ntsc>
                        </rate>
                        <start>711</start>
                        <end>832</end>
                        <in>3769</in>
                        <out>3890</out>
                        <file id="file-5"/>
                        <sourcetrack>
                            <mediatype>audio</mediatype>
                            <trackindex>1</trackindex>
                        </sourcetrack>
                        <labels>
                            <label2>Iris</label2>
                        </labels>
                    </clipitem>
                    <clipitem id="3c988286-56d6-436c-8e57-9d66307501c9" premiereChannelType="stereo">
                        <masterclipid>masterclip-1</masterclipid>
                        <name>02e06 Source.mp4</name>
                        <enabled>TRUE</enabled>
                        <duration>17008</duration>
                        <rate>
                            <timebase>24</timebase>
                            <ntsc>FALSE</ntsc>
                        </rate>
                        <start>832</start>
                        <end>844</end>
                        <in>3900</in>
                        <out>3912</out>
                        <file id="file-5"/>
                        <sourcetrack>
                            <mediatype>audio</mediatype>
                            <trackindex>1</trackindex>
                        </sourcetrack>
                        <labels>
                            <label2>Iris</label2>
                        </labels>
                    </clipitem>
                    <clipitem id="627a2052-1a27-48ae-a268-d1e78c3f3d55" premiereChannelType="stereo">
                        <masterclipid>masterclip-1</masterclipid>
                        <name>02e06 Source.mp4</name>
                        <enabled>TRUE</enabled>
                        <duration>17008</duration>
                        <rate>
                            <timebase>24</timebase>
                            <ntsc>FALSE</ntsc>
                        </rate>
                        <start>844</start>
                        <end>855</end>
                        <in>3908</in>
                        <out>3919</out>
                        <file id="file-5"/>
                        <sourcetrack>
                            <mediatype>audio</mediatype>
                            <trackindex>1</trackindex>
                        </sourcetrack>
                        <labels>
                            <label2>Iris</label2>
                        </labels>
                    </clipitem>
                    <clipitem id="1b9a69a0-b032-49d5-92e7-7f1fbab6f4ff" premiereChannelType="stereo">
                        <masterclipid>masterclip-1</masterclipid>
                        <name>02e06 Source.mp4</name>
                        <enabled>TRUE</enabled>
                        <duration>17008</duration>
                        <rate>
                            <timebase>24</timebase>
                            <ntsc>FALSE</ntsc>
                        </rate>
                        <start>855</start>
                        <end>906</end>
                        <in>3919</in>
                        <out>3970</out>
                        <file id="file-5"/>
                        <sourcetrack>
                            <mediatype>audio</mediatype>
                            <trackindex>1</trackindex>
                        </sourcetrack>
                        <labels>
                            <label2>Iris</label2>
                        </labels>
                    </clipitem>
                    <clipitem id="6a4b2d01-a21d-4b10-8683-a9483d4ce593" premiereChannelType="stereo">
                        <masterclipid>masterclip-1</masterclipid>
                        <name>02e06 Source.mp4</name>
                        <enabled>TRUE</enabled>
                        <duration>17008</duration>
                        <rate>
                            <timebase>24</timebase>
                            <ntsc>FALSE</ntsc>
                        </rate>
                        <start>906</start>
                        <end>924</end>
                        <in>3974</in>
                        <out>3992</out>
                        <file id="file-5"/>
                        <sourcetrack>
                            <mediatype>audio</mediatype>
                            <trackindex>1</trackindex>
                        </sourcetrack>
                        <labels>
                            <label2>Iris</label2>
                        </labels>
                    </clipitem>
                    <clipitem id="ac245e22-2352-4b8a-99e3-78c2034dd8ae" premiereChannelType="stereo">
                        <masterclipid>masterclip-1</masterclipid>
                        <name>02e06 Source.mp4</name>
                        <enabled>TRUE</enabled>
                        <duration>17008</duration>
                        <rate>
                            <timebase>24</timebase>
                            <ntsc>FALSE</ntsc>
                        </rate>
                        <start>924</start>
                        <end>952</end>
                        <in>4036</in>
                        <out>4064</out>
                        <file id="file-5"/>
                        <sourcetrack>
                            <mediatype>audio</mediatype>
                            <trackindex>1</trackindex>
                        </sourcetrack>
                        <labels>
                            <label2>Iris</label2>
                        </labels>
                    </clipitem>
                    <clipitem id="89c26193-be0d-4ac3-9bdd-3e28551ba8dd" premiereChannelType="stereo">
                        <masterclipid>masterclip-1</masterclipid>
                        <name>02e06 Source.mp4</name>
                        <enabled>TRUE</enabled>
                        <duration>17008</duration>
                        <rate>
                            <timebase>24</timebase>
                            <ntsc>FALSE</ntsc>
                        </rate>
                        <start>952</start>
                        <end>987</end>
                        <in>4296</in>
                        <out>4331</out>
                        <file id="file-5"/>
                        <sourcetrack>
                            <mediatype>audio</mediatype>
                            <trackindex>1</trackindex>
                        </sourcetrack>
                        <labels>
                            <label2>Iris</label2>
                        </labels>
                    </clipitem>
                    <clipitem id="4b6785ef-a04e-4732-881a-e9b42ab17de6" premiereChannelType="stereo">
                        <masterclipid>masterclip-1</masterclipid>
                        <name>02e06 Source.mp4</name>
                        <enabled>TRUE</enabled>
                        <duration>17008</duration>
                        <rate>
                            <timebase>24</timebase>
                            <ntsc>FALSE</ntsc>
                        </rate>
                        <start>987</start>
                        <end>1025</end>
                        <in>4373</in>
                        <out>4411</out>
                        <file id="file-5"/>
                        <sourcetrack>
                            <mediatype>audio</mediatype>
                            <trackindex>1</trackindex>
                        </sourcetrack>
                        <labels>
                            <label2>Iris</label2>
                        </labels>
                    </clipitem>
                    <clipitem id="90033a64-da25-46dd-914c-be0bba2e3664" premiereChannelType="stereo">
                        <masterclipid>masterclip-1</masterclipid>
                        <name>02e06 Source.mp4</name>
                        <enabled>TRUE</enabled>
                        <duration>17008</duration>
                        <rate>
                            <timebase>24</timebase>
                            <ntsc>FALSE</ntsc>
                        </rate>
                        <start>1025</start>
                        <end>1068</end>
                        <in>4506</in>
                        <out>4549</out>
                        <file id="file-5"/>
                        <sourcetrack>
                            <mediatype>audio</mediatype>
                            <trackindex>1</trackindex>
                        </sourcetrack>
                        <labels>
                            <label2>Iris</label2>
                        </labels>
                    </clipitem>
                    <clipitem id="61e25195-5cd1-480f-b913-d5752833bc21" premiereChannelType="stereo">
                        <masterclipid>masterclip-1</masterclipid>
                        <name>02e06 Source.mp4</name>
                        <enabled>TRUE</enabled>
                        <duration>17008</duration>
                        <rate>
                            <timebase>24</timebase>
                            <ntsc>FALSE</ntsc>
                        </rate>
                        <start>1068</start>
                        <end>1079</end>
                        <in>4556</in>
                        <out>4567</out>
                        <file id="file-5"/>
                        <sourcetrack>
                            <mediatype>audio</mediatype>
                            <trackindex>1</trackindex>
                        </sourcetrack>
                        <labels>
                            <label2>Iris</label2>
                        </labels>
                    </clipitem>
                    <clipitem id="2dd29a69-6fb5-4f05-b6f4-ef37090efa19" premiereChannelType="stereo">
                        <masterclipid>masterclip-1</masterclipid>
                        <name>02e06 Source.mp4</name>
                        <enabled>TRUE</enabled>
                        <duration>17008</duration>
                        <rate>
                            <timebase>24</timebase>
                            <ntsc>FALSE</ntsc>
                        </rate>
                        <start>1079</start>
                        <end>1108</end>
                        <in>4562</in>
                        <out>4591</out>
                        <file id="file-5"/>
                        <sourcetrack>
                            <mediatype>audio</mediatype>
                            <trackindex>1</trackindex>
                        </sourcetrack>
                        <labels>
                            <label2>Iris</label2>
                        </labels>
                    </clipitem>
                    <clipitem id="b0b4f823-3737-4507-90d7-37269d59b81c" premiereChannelType="stereo">
                        <masterclipid>masterclip-1</masterclipid>
                        <name>02e06 Source.mp4</name>
                        <enabled>TRUE</enabled>
                        <duration>17008</duration>
                        <rate>
                            <timebase>24</timebase>
                            <ntsc>FALSE</ntsc>
                        </rate>
                        <start>1108</start>
                        <end>1180</end>
                        <in>4593</in>
                        <out>4665</out>
                        <file id="file-5"/>
                        <sourcetrack>
                            <mediatype>audio</mediatype>
                            <trackindex>1</trackindex>
                        </sourcetrack>
                        <labels>
                            <label2>Iris</label2>
                        </labels>
                    </clipitem>
                    <clipitem id="4fc44cfe-ea52-4fc3-b10c-7352c81ea75b" premiereChannelType="stereo">
                        <masterclipid>masterclip-1</masterclipid>
                        <name>02e06 Source.mp4</name>
                        <enabled>TRUE</enabled>
                        <duration>17008</duration>
                        <rate>
                            <timebase>24</timebase>
                            <ntsc>FALSE</ntsc>
                        </rate>
                        <start>1180</start>
                        <end>1239</end>
                        <in>4668</in>
                        <out>4727</out>
                        <file id="file-5"/>
                        <sourcetrack>
                            <mediatype>audio</mediatype>
                            <trackindex>1</trackindex>
                        </sourcetrack>
                        <labels>
                            <label2>Iris</label2>
                        </labels>
                    </clipitem>
                    <clipitem id="a7778775-5da1-4398-9677-7ace5aab772a" premiereChannelType="stereo">
                        <masterclipid>masterclip-1</masterclipid>
                        <name>02e06 Source.mp4</name>
                        <enabled>TRUE</enabled>
                        <duration>17008</duration>
                        <rate>
                            <timebase>24</timebase>
                            <ntsc>FALSE</ntsc>
                        </rate>
                        <start>1239</start>
                        <end>1278</end>
                        <in>4731</in>
                        <out>4770</out>
                        <file id="file-5"/>
                        <sourcetrack>
                            <mediatype>audio</mediatype>
                            <trackindex>1</trackindex>
                        </sourcetrack>
                        <labels>
                            <label2>Iris</label2>
                        </labels>
                    </clipitem>
                    <clipitem id="6b534ceb-e627-4172-8138-746c0c933fdc" premiereChannelType="stereo">
                        <masterclipid>masterclip-1</masterclipid>
                        <name>02e06 Source.mp4</name>
                        <enabled>TRUE</enabled>
                        <duration>17008</duration>
                        <rate>
                            <timebase>24</timebase>
                            <ntsc>FALSE</ntsc>
                        </rate>
                        <start>1278</start>
                        <end>1289</end>
                        <in>4772</in>
                        <out>4783</out>
                        <file id="file-5"/>
                        <sourcetrack>
                            <mediatype>audio</mediatype>
                            <trackindex>1</trackindex>
                        </sourcetrack>
                        <labels>
                            <label2>Iris</label2>
                        </labels>
                    </clipitem>
                    <clipitem id="5a189f71-830b-4817-b838-cf2f9a1b4c62" premiereChannelType="stereo">
                        <masterclipid>masterclip-1</masterclipid>
                        <name>02e06 Source.mp4</name>
                        <enabled>TRUE</enabled>
                        <duration>17008</duration>
                        <rate>
                            <timebase>24</timebase>
                            <ntsc>FALSE</ntsc>
                        </rate>
                        <start>1289</start>
                        <end>1319</end>
                        <in>4822</in>
                        <out>4852</out>
                        <file id="file-5"/>
                        <sourcetrack>
                            <mediatype>audio</mediatype>
                            <trackindex>1</trackindex>
                        </sourcetrack>
                        <labels>
                            <label2>Iris</label2>
                        </labels>
                    </clipitem>
                    <clipitem id="c5602bac-6fb8-4bd0-ad02-bf9215fbbabd" premiereChannelType="stereo">
                        <masterclipid>masterclip-1</masterclipid>
                        <name>02e06 Source.mp4</name>
                        <enabled>TRUE</enabled>
                        <duration>17008</duration>
                        <rate>
                            <timebase>24</timebase>
                            <ntsc>FALSE</ntsc>
                        </rate>
                        <start>1319</start>
                        <end>1353</end>
                        <in>4869</in>
                        <out>4903</out>
                        <file id="file-5"/>
                        <sourcetrack>
                            <mediatype>audio</mediatype>
                            <trackindex>1</trackindex>
                        </sourcetrack>
                        <labels>
                            <label2>Iris</label2>
                        </labels>
                    </clipitem>
                    <clipitem id="35b5dfea-2d0a-4644-9a24-3ea040c7b766" premiereChannelType="stereo">
                        <masterclipid>masterclip-1</masterclipid>
                        <name>02e06 Source.mp4</name>
                        <enabled>TRUE</enabled>
                        <duration>17008</duration>
                        <rate>
                            <timebase>24</timebase>
                            <ntsc>FALSE</ntsc>
                        </rate>
                        <start>1353</start>
                        <end>1400</end>
                        <in>4989</in>
                        <out>5036</out>
                        <file id="file-5"/>
                        <sourcetrack>
                            <mediatype>audio</mediatype>
                            <trackindex>1</trackindex>
                        </sourcetrack>
                        <labels>
                            <label2>Iris</label2>
                        </labels>
                    </clipitem>
                    <clipitem id="fcde29c0-7a73-4e48-90b8-17105053e69a" premiereChannelType="stereo">
                        <masterclipid>masterclip-1</masterclipid>
                        <name>02e06 Source.mp4</name>
                        <enabled>TRUE</enabled>
                        <duration>17008</duration>
                        <rate>
                            <timebase>24</timebase>
                            <ntsc>FALSE</ntsc>
                        </rate>
                        <start>1400</start>
                        <end>1423</end>
                        <in>5036</in>
                        <out>5059</out>
                        <file id="file-5"/>
                        <sourcetrack>
                            <mediatype>audio</mediatype>
                            <trackindex>1</trackindex>
                        </sourcetrack>
                        <labels>
                            <label2>Iris</label2>
                        </labels>
                    </clipitem>
                    <clipitem id="d15333b3-72ee-4e5c-8217-6aff480bd405" premiereChannelType="stereo">
                        <masterclipid>masterclip-1</masterclipid>
                        <name>02e06 Source.mp4</name>
                        <enabled>TRUE</enabled>
                        <duration>17008</duration>
                        <rate>
                            <timebase>24</timebase>
                            <ntsc>FALSE</ntsc>
                        </rate>
                        <start>1423</start>
                        <end>1436</end>
                        <in>5062</in>
                        <out>5075</out>
                        <file id="file-5"/>
                        <sourcetrack>
                            <mediatype>audio</mediatype>
                            <trackindex>1</trackindex>
                        </sourcetrack>
                        <labels>
                            <label2>Iris</label2>
                        </labels>
                    </clipitem>
                    <clipitem id="949b8280-1da3-4ab0-a8ec-91b603e242b6" premiereChannelType="stereo">
                        <masterclipid>masterclip-1</masterclipid>
                        <name>02e06 Source.mp4</name>
                        <enabled>TRUE</enabled>
                        <duration>17008</duration>
                        <rate>
                            <timebase>24</timebase>
                            <ntsc>FALSE</ntsc>
                        </rate>
                        <start>1436</start>
                        <end>1458</end>
                        <in>5075</in>
                        <out>5097</out>
                        <file id="file-5"/>
                        <sourcetrack>
                            <mediatype>audio</mediatype>
                            <trackindex>1</trackindex>
                        </sourcetrack>
                        <labels>
                            <label2>Iris</label2>
                        </labels>
                    </clipitem>
                    <clipitem id="8f7b7ca2-7c7a-4efa-83ec-390fbf738a68" premiereChannelType="stereo">
                        <masterclipid>masterclip-1</masterclipid>
                        <name>02e06 Source.mp4</name>
                        <enabled>TRUE</enabled>
                        <duration>17008</duration>
                        <rate>
                            <timebase>24</timebase>
                            <ntsc>FALSE</ntsc>
                        </rate>
                        <start>1458</start>
                        <end>1492</end>
                        <in>5113</in>
                        <out>5147</out>
                        <file id="file-5"/>
                        <sourcetrack>
                            <mediatype>audio</mediatype>
                            <trackindex>1</trackindex>
                        </sourcetrack>
                        <labels>
                            <label2>Iris</label2>
                        </labels>
                    </clipitem>
                    <clipitem id="eed73dc1-f3e1-4ab1-98f3-acf872f45482" premiereChannelType="stereo">
                        <masterclipid>masterclip-1</masterclipid>
                        <name>02e06 Source.mp4</name>
                        <enabled>TRUE</enabled>
                        <duration>17008</duration>
                        <rate>
                            <timebase>24</timebase>
                            <ntsc>FALSE</ntsc>
                        </rate>
                        <start>1492</start>
                        <end>1503</end>
                        <in>5149</in>
                        <out>5160</out>
                        <file id="file-5"/>
                        <sourcetrack>
                            <mediatype>audio</mediatype>
                            <trackindex>1</trackindex>
                        </sourcetrack>
                        <labels>
                            <label2>Iris</label2>
                        </labels>
                    </clipitem>
                    <clipitem id="c8834109-cb82-4e6b-9147-3de6f04840e4" premiereChannelType="stereo">
                        <masterclipid>masterclip-1</masterclipid>
                        <name>02e06 Source.mp4</name>
                        <enabled>TRUE</enabled>
                        <duration>17008</duration>
                        <rate>
                            <timebase>24</timebase>
                            <ntsc>FALSE</ntsc>
                        </rate>
                        <start>1503</start>
                        <end>1538</end>
                        <in>5191</in>
                        <out>5226</out>
                        <file id="file-5"/>
                        <sourcetrack>
                            <mediatype>audio</mediatype>
                            <trackindex>1</trackindex>
                        </sourcetrack>
                        <labels>
                            <label2>Iris</label2>
                        </labels>
                    </clipitem>
                    <clipitem id="d0d57f6a-3cdb-4af2-b881-0783a3a7339e" premiereChannelType="stereo">
                        <masterclipid>masterclip-1</masterclipid>
                        <name>02e06 Source.mp4</name>
                        <enabled>TRUE</enabled>
                        <duration>17008</duration>
                        <rate>
                            <timebase>24</timebase>
                            <ntsc>FALSE</ntsc>
                        </rate>
                        <start>1538</start>
                        <end>1588</end>
                        <in>5513</in>
                        <out>5563</out>
                        <file id="file-5"/>
                        <sourcetrack>
                            <mediatype>audio</mediatype>
                            <trackindex>1</trackindex>
                        </sourcetrack>
                        <labels>
                            <label2>Iris</label2>
                        </labels>
                    </clipitem>
                    <clipitem id="00bcdf68-bca5-4e89-ba9c-0fc36bd313aa" premiereChannelType="stereo">
                        <masterclipid>masterclip-1</masterclipid>
                        <name>02e06 Source.mp4</name>
                        <enabled>TRUE</enabled>
                        <duration>17008</duration>
                        <rate>
                            <timebase>24</timebase>
                            <ntsc>FALSE</ntsc>
                        </rate>
                        <start>1588</start>
                        <end>1615</end>
                        <in>5248</in>
                        <out>5275</out>
                        <file id="file-5"/>
                        <sourcetrack>
                            <mediatype>audio</mediatype>
                            <trackindex>1</trackindex>
                        </sourcetrack>
                        <labels>
                            <label2>Iris</label2>
                        </labels>
                    </clipitem>
                    <clipitem id="9512b05b-e443-47b4-b017-78641cfb60b5" premiereChannelType="stereo">
                        <masterclipid>masterclip-1</masterclipid>
                        <name>02e06 Source.mp4</name>
                        <enabled>TRUE</enabled>
                        <duration>17008</duration>
                        <rate>
                            <timebase>24</timebase>
                            <ntsc>FALSE</ntsc>
                        </rate>
                        <start>1615</start>
                        <end>1648</end>
                        <in>5574</in>
                        <out>5607</out>
                        <file id="file-5"/>
                        <sourcetrack>
                            <mediatype>audio</mediatype>
                            <trackindex>1</trackindex>
                        </sourcetrack>
                        <labels>
                            <label2>Iris</label2>
                        </labels>
                    </clipitem>
                    <clipitem id="8bd6fcfc-1c02-420a-b5dd-f280470907c1" premiereChannelType="stereo">
                        <masterclipid>masterclip-1</masterclipid>
                        <name>02e06 Source.mp4</name>
                        <enabled>TRUE</enabled>
                        <duration>17008</duration>
                        <rate>
                            <timebase>24</timebase>
                            <ntsc>FALSE</ntsc>
                        </rate>
                        <start>1648</start>
                        <end>1659</end>
                        <in>5711</in>
                        <out>5722</out>
                        <file id="file-5"/>
                        <sourcetrack>
                            <mediatype>audio</mediatype>
                            <trackindex>1</trackindex>
                        </sourcetrack>
                        <labels>
                            <label2>Iris</label2>
                        </labels>
                    </clipitem>
                    <clipitem id="9080a195-2337-4c2e-8db0-930510d24e65" premiereChannelType="stereo">
                        <masterclipid>masterclip-1</masterclipid>
                        <name>02e06 Source.mp4</name>
                        <enabled>TRUE</enabled>
                        <duration>17008</duration>
                        <rate>
                            <timebase>24</timebase>
                            <ntsc>FALSE</ntsc>
                        </rate>
                        <start>1659</start>
                        <end>1670</end>
                        <in>5723</in>
                        <out>5734</out>
                        <file id="file-5"/>
                        <sourcetrack>
                            <mediatype>audio</mediatype>
                            <trackindex>1</trackindex>
                        </sourcetrack>
                        <labels>
                            <label2>Iris</label2>
                        </labels>
                    </clipitem>
                    <clipitem id="d01703eb-e1d2-4356-a648-c727b072f8ac" premiereChannelType="stereo">
                        <masterclipid>masterclip-1</masterclipid>
                        <name>02e06 Source.mp4</name>
                        <enabled>TRUE</enabled>
                        <duration>17008</duration>
                        <rate>
                            <timebase>24</timebase>
                            <ntsc>FALSE</ntsc>
                        </rate>
                        <start>1670</start>
                        <end>1693</end>
                        <in>5740</in>
                        <out>5763</out>
                        <file id="file-5"/>
                        <sourcetrack>
                            <mediatype>audio</mediatype>
                            <trackindex>1</trackindex>
                        </sourcetrack>
                        <labels>
                            <label2>Iris</label2>
                        </labels>
                    </clipitem>
                    <clipitem id="b0954804-8940-401c-8a97-8d4a6d53b524" premiereChannelType="stereo">
                        <masterclipid>masterclip-1</masterclipid>
                        <name>02e06 Source.mp4</name>
                        <enabled>TRUE</enabled>
                        <duration>17008</duration>
                        <rate>
                            <timebase>24</timebase>
                            <ntsc>FALSE</ntsc>
                        </rate>
                        <start>1693</start>
                        <end>1738</end>
                        <in>5764</in>
                        <out>5809</out>
                        <file id="file-5"/>
                        <sourcetrack>
                            <mediatype>audio</mediatype>
                            <trackindex>1</trackindex>
                        </sourcetrack>
                        <labels>
                            <label2>Iris</label2>
                        </labels>
                    </clipitem>
                    <clipitem id="da18873a-17d8-4ea6-ae6e-59ee455eeb2a" premiereChannelType="stereo">
                        <masterclipid>masterclip-1</masterclipid>
                        <name>02e06 Source.mp4</name>
                        <enabled>TRUE</enabled>
                        <duration>17008</duration>
                        <rate>
                            <timebase>24</timebase>
                            <ntsc>FALSE</ntsc>
                        </rate>
                        <start>1738</start>
                        <end>1821</end>
                        <in>5811</in>
                        <out>5894</out>
                        <file id="file-5"/>
                        <sourcetrack>
                            <mediatype>audio</mediatype>
                            <trackindex>1</trackindex>
                        </sourcetrack>
                        <labels>
                            <label2>Iris</label2>
                        </labels>
                    </clipitem>
                    <clipitem id="a9ead3d6-1ec7-49f8-a37e-8a0afca60ec8" premiereChannelType="stereo">
                        <masterclipid>masterclip-1</masterclipid>
                        <name>02e06 Source.mp4</name>
                        <enabled>TRUE</enabled>
                        <duration>17008</duration>
                        <rate>
                            <timebase>24</timebase>
                            <ntsc>FALSE</ntsc>
                        </rate>
                        <start>1821</start>
                        <end>1872</end>
                        <in>5897</in>
                        <out>5948</out>
                        <file id="file-5"/>
                        <sourcetrack>
                            <mediatype>audio</mediatype>
                            <trackindex>1</trackindex>
                        </sourcetrack>
                        <labels>
                            <label2>Iris</label2>
                        </labels>
                    </clipitem>
                    <clipitem id="b57533e0-e4f6-4e51-b4cf-623594ff91e7" premiereChannelType="stereo">
                        <masterclipid>masterclip-1</masterclipid>
                        <name>02e06 Source.mp4</name>
                        <enabled>TRUE</enabled>
                        <duration>17008</duration>
                        <rate>
                            <timebase>24</timebase>
                            <ntsc>FALSE</ntsc>
                        </rate>
                        <start>1872</start>
                        <end>1900</end>
                        <in>5951</in>
                        <out>5979</out>
                        <file id="file-5"/>
                        <sourcetrack>
                            <mediatype>audio</mediatype>
                            <trackindex>1</trackindex>
                        </sourcetrack>
                        <labels>
                            <label2>Iris</label2>
                        </labels>
                    </clipitem>
                    <clipitem id="d3a69544-ad4a-4c7d-99cc-973152b663d8" premiereChannelType="stereo">
                        <masterclipid>masterclip-1</masterclipid>
                        <name>02e06 Source.mp4</name>
                        <enabled>TRUE</enabled>
                        <duration>17008</duration>
                        <rate>
                            <timebase>24</timebase>
                            <ntsc>FALSE</ntsc>
                        </rate>
                        <start>1900</start>
                        <end>1947</end>
                        <in>5981</in>
                        <out>6028</out>
                        <file id="file-5"/>
                        <sourcetrack>
                            <mediatype>audio</mediatype>
                            <trackindex>1</trackindex>
                        </sourcetrack>
                        <labels>
                            <label2>Iris</label2>
                        </labels>
                    </clipitem>
                    <clipitem id="833e45b4-01b0-4317-a61a-f1762362d4d8" premiereChannelType="stereo">
                        <masterclipid>masterclip-1</masterclipid>
                        <name>02e06 Source.mp4</name>
                        <enabled>TRUE</enabled>
                        <duration>17008</duration>
                        <rate>
                            <timebase>24</timebase>
                            <ntsc>FALSE</ntsc>
                        </rate>
                        <start>1947</start>
                        <end>1985</end>
                        <in>6058</in>
                        <out>6096</out>
                        <file id="file-5"/>
                        <sourcetrack>
                            <mediatype>audio</mediatype>
                            <trackindex>1</trackindex>
                        </sourcetrack>
                        <labels>
                            <label2>Iris</label2>
                        </labels>
                    </clipitem>
                    <clipitem id="a511152e-3f9b-49dc-a2d1-de0626a8b403" premiereChannelType="stereo">
                        <masterclipid>masterclip-1</masterclipid>
                        <name>02e06 Source.mp4</name>
                        <enabled>TRUE</enabled>
                        <duration>17008</duration>
                        <rate>
                            <timebase>24</timebase>
                            <ntsc>FALSE</ntsc>
                        </rate>
                        <start>1985</start>
                        <end>2003</end>
                        <in>6120</in>
                        <out>6138</out>
                        <file id="file-5"/>
                        <sourcetrack>
                            <mediatype>audio</mediatype>
                            <trackindex>1</trackindex>
                        </sourcetrack>
                        <labels>
                            <label2>Iris</label2>
                        </labels>
                    </clipitem>
                    <clipitem id="780ae3ad-4ae4-4c6f-b555-4f32576e7780" premiereChannelType="stereo">
                        <masterclipid>masterclip-1</masterclipid>
                        <name>02e06 Source.mp4</name>
                        <enabled>TRUE</enabled>
                        <duration>17008</duration>
                        <rate>
                            <timebase>24</timebase>
                            <ntsc>FALSE</ntsc>
                        </rate>
                        <start>2003</start>
                        <end>2053</end>
                        <in>6139</in>
                        <out>6189</out>
                        <file id="file-5"/>
                        <sourcetrack>
                            <mediatype>audio</mediatype>
                            <trackindex>1</trackindex>
                        </sourcetrack>
                        <labels>
                            <label2>Iris</label2>
                        </labels>
                    </clipitem>
                    <clipitem id="2b66592f-32ba-42b6-81d9-a2f25f970013" premiereChannelType="stereo">
                        <masterclipid>masterclip-1</masterclipid>
                        <name>02e06 Source.mp4</name>
                        <enabled>TRUE</enabled>
                        <duration>17008</duration>
                        <rate>
                            <timebase>24</timebase>
                            <ntsc>FALSE</ntsc>
                        </rate>
                        <start>2053</start>
                        <end>2070</end>
                        <in>6191</in>
                        <out>6208</out>
                        <file id="file-5"/>
                        <sourcetrack>
                            <mediatype>audio</mediatype>
                            <trackindex>1</trackindex>
                        </sourcetrack>
                        <labels>
                            <label2>Iris</label2>
                        </labels>
                    </clipitem>
                    <clipitem id="e2bf7083-aa7b-4e1c-a8c2-835838217286" premiereChannelType="stereo">
                        <masterclipid>masterclip-1</masterclipid>
                        <name>02e06 Source.mp4</name>
                        <enabled>TRUE</enabled>
                        <duration>17008</duration>
                        <rate>
                            <timebase>24</timebase>
                            <ntsc>FALSE</ntsc>
                        </rate>
                        <start>2070</start>
                        <end>2158</end>
                        <in>6216</in>
                        <out>6304</out>
                        <file id="file-5"/>
                        <sourcetrack>
                            <mediatype>audio</mediatype>
                            <trackindex>1</trackindex>
                        </sourcetrack>
                        <labels>
                            <label2>Iris</label2>
                        </labels>
                    </clipitem>
                    <clipitem id="35162391-a44f-4a0d-8aff-4874f0164406" premiereChannelType="stereo">
                        <masterclipid>masterclip-1</masterclipid>
                        <name>02e06 Source.mp4</name>
                        <enabled>TRUE</enabled>
                        <duration>17008</duration>
                        <rate>
                            <timebase>24</timebase>
                            <ntsc>FALSE</ntsc>
                        </rate>
                        <start>2158</start>
                        <end>2237</end>
                        <in>6307</in>
                        <out>6386</out>
                        <file id="file-5"/>
                        <sourcetrack>
                            <mediatype>audio</mediatype>
                            <trackindex>1</trackindex>
                        </sourcetrack>
                        <labels>
                            <label2>Iris</label2>
                        </labels>
                    </clipitem>
                    <clipitem id="9d73c0f3-2811-4891-a392-c36eb24d00e2" premiereChannelType="stereo">
                        <masterclipid>masterclip-1</masterclipid>
                        <name>02e06 Source.mp4</name>
                        <enabled>TRUE</enabled>
                        <duration>17008</duration>
                        <rate>
                            <timebase>24</timebase>
                            <ntsc>FALSE</ntsc>
                        </rate>
                        <start>2237</start>
                        <end>2276</end>
                        <in>6401</in>
                        <out>6440</out>
                        <file id="file-5"/>
                        <sourcetrack>
                            <mediatype>audio</mediatype>
                            <trackindex>1</trackindex>
                        </sourcetrack>
                        <labels>
                            <label2>Iris</label2>
                        </labels>
                    </clipitem>
                    <clipitem id="ccf386f9-bbdd-4fe4-9256-24f0cd8ba69a" premiereChannelType="stereo">
                        <masterclipid>masterclip-1</masterclipid>
                        <name>02e06 Source.mp4</name>
                        <enabled>TRUE</enabled>
                        <duration>17008</duration>
                        <rate>
                            <timebase>24</timebase>
                            <ntsc>FALSE</ntsc>
                        </rate>
                        <start>2276</start>
                        <end>2329</end>
                        <in>6334</in>
                        <out>6387</out>
                        <file id="file-5"/>
                        <sourcetrack>
                            <mediatype>audio</mediatype>
                            <trackindex>1</trackindex>
                        </sourcetrack>
                        <labels>
                            <label2>Iris</label2>
                        </labels>
                    </clipitem>
                    <clipitem id="0ec8dd20-1e2c-422c-8d85-7a68491a2e17" premiereChannelType="stereo">
                        <masterclipid>masterclip-1</masterclipid>
                        <name>02e06 Source.mp4</name>
                        <enabled>TRUE</enabled>
                        <duration>17008</duration>
                        <rate>
                            <timebase>24</timebase>
                            <ntsc>FALSE</ntsc>
                        </rate>
                        <start>2329</start>
                        <end>2372</end>
                        <in>6413</in>
                        <out>6456</out>
                        <file id="file-5"/>
                        <sourcetrack>
                            <mediatype>audio</mediatype>
                            <trackindex>1</trackindex>
                        </sourcetrack>
                        <labels>
                            <label2>Iris</label2>
                        </labels>
                    </clipitem>
                    <clipitem id="b770bf20-36e2-4571-b559-932aa74ef72d" premiereChannelType="stereo">
                        <masterclipid>masterclip-1</masterclipid>
                        <name>02e06 Source.mp4</name>
                        <enabled>TRUE</enabled>
                        <duration>17008</duration>
                        <rate>
                            <timebase>24</timebase>
                            <ntsc>FALSE</ntsc>
                        </rate>
                        <start>2372</start>
                        <end>2417</end>
                        <in>6581</in>
                        <out>6626</out>
                        <file id="file-5"/>
                        <sourcetrack>
                            <mediatype>audio</mediatype>
                            <trackindex>1</trackindex>
                        </sourcetrack>
                        <labels>
                            <label2>Iris</label2>
                        </labels>
                    </clipitem>
                    <clipitem id="6aa0bf84-7cc7-45c6-b749-b3d01c411f5e" premiereChannelType="stereo">
                        <masterclipid>masterclip-1</masterclipid>
                        <name>02e06 Source.mp4</name>
                        <enabled>TRUE</enabled>
                        <duration>17008</duration>
                        <rate>
                            <timebase>24</timebase>
                            <ntsc>FALSE</ntsc>
                        </rate>
                        <start>2417</start>
                        <end>2428</end>
                        <in>6628</in>
                        <out>6639</out>
                        <file id="file-5"/>
                        <sourcetrack>
                            <mediatype>audio</mediatype>
                            <trackindex>1</trackindex>
                        </sourcetrack>
                        <labels>
                            <label2>Iris</label2>
                        </labels>
                    </clipitem>
                    <clipitem id="df5bca64-750c-45e5-9fc2-f7944fe3f5ef" premiereChannelType="stereo">
                        <masterclipid>masterclip-1</masterclipid>
                        <name>02e06 Source.mp4</name>
                        <enabled>TRUE</enabled>
                        <duration>17008</duration>
                        <rate>
                            <timebase>24</timebase>
                            <ntsc>FALSE</ntsc>
                        </rate>
                        <start>2428</start>
                        <end>2469</end>
                        <in>6690</in>
                        <out>6731</out>
                        <file id="file-5"/>
                        <sourcetrack>
                            <mediatype>audio</mediatype>
                            <trackindex>1</trackindex>
                        </sourcetrack>
                        <labels>
                            <label2>Iris</label2>
                        </labels>
                    </clipitem>
                    <clipitem id="bb750b01-a441-489c-9c09-23a17b0ca669" premiereChannelType="stereo">
                        <masterclipid>masterclip-1</masterclipid>
                        <name>02e06 Source.mp4</name>
                        <enabled>TRUE</enabled>
                        <duration>17008</duration>
                        <rate>
                            <timebase>24</timebase>
                            <ntsc>FALSE</ntsc>
                        </rate>
                        <start>2469</start>
                        <end>2490</end>
                        <in>6920</in>
                        <out>6941</out>
                        <file id="file-5"/>
                        <sourcetrack>
                            <mediatype>audio</mediatype>
                            <trackindex>1</trackindex>
                        </sourcetrack>
                        <labels>
                            <label2>Iris</label2>
                        </labels>
                    </clipitem>
                    <clipitem id="583eb1f5-bd4f-48fc-a56c-33ba43e87240" premiereChannelType="stereo">
                        <masterclipid>masterclip-1</masterclipid>
                        <name>02e06 Source.mp4</name>
                        <enabled>TRUE</enabled>
                        <duration>17008</duration>
                        <rate>
                            <timebase>24</timebase>
                            <ntsc>FALSE</ntsc>
                        </rate>
                        <start>2490</start>
                        <end>2509</end>
                        <in>6996</in>
                        <out>7015</out>
                        <file id="file-5"/>
                        <sourcetrack>
                            <mediatype>audio</mediatype>
                            <trackindex>1</trackindex>
                        </sourcetrack>
                        <labels>
                            <label2>Iris</label2>
                        </labels>
                    </clipitem>
                    <clipitem id="1e71e408-07d6-4c56-9de5-5cf4a3a40af5" premiereChannelType="stereo">
                        <masterclipid>masterclip-1</masterclipid>
                        <name>02e06 Source.mp4</name>
                        <enabled>TRUE</enabled>
                        <duration>17008</duration>
                        <rate>
                            <timebase>24</timebase>
                            <ntsc>FALSE</ntsc>
                        </rate>
                        <start>2509</start>
                        <end>2529</end>
                        <in>7353</in>
                        <out>7373</out>
                        <file id="file-5"/>
                        <sourcetrack>
                            <mediatype>audio</mediatype>
                            <trackindex>1</trackindex>
                        </sourcetrack>
                        <labels>
                            <label2>Iris</label2>
                        </labels>
                    </clipitem>
                    <clipitem id="351d1755-4aed-496a-b59f-dc9470a8aa1b" premiereChannelType="stereo">
                        <masterclipid>masterclip-1</masterclipid>
                        <name>02e06 Source.mp4</name>
                        <enabled>TRUE</enabled>
                        <duration>17008</duration>
                        <rate>
                            <timebase>24</timebase>
                            <ntsc>FALSE</ntsc>
                        </rate>
                        <start>2529</start>
                        <end>2540</end>
                        <in>7521</in>
                        <out>7532</out>
                        <file id="file-5"/>
                        <sourcetrack>
                            <mediatype>audio</mediatype>
                            <trackindex>1</trackindex>
                        </sourcetrack>
                        <labels>
                            <label2>Iris</label2>
                        </labels>
                    </clipitem>
                    <clipitem id="fd5600c0-7d64-40fc-bb1e-20dab78fc22e" premiereChannelType="stereo">
                        <masterclipid>masterclip-1</masterclipid>
                        <name>02e06 Source.mp4</name>
                        <enabled>TRUE</enabled>
                        <duration>17008</duration>
                        <rate>
                            <timebase>24</timebase>
                            <ntsc>FALSE</ntsc>
                        </rate>
                        <start>2540</start>
                        <end>2566</end>
                        <in>7532</in>
                        <out>7558</out>
                        <file id="file-5"/>
                        <sourcetrack>
                            <mediatype>audio</mediatype>
                            <trackindex>1</trackindex>
                        </sourcetrack>
                        <labels>
                            <label2>Iris</label2>
                        </labels>
                    </clipitem>
                    <clipitem id="3f62dc66-c6f8-493f-9948-79d9fc303503" premiereChannelType="stereo">
                        <masterclipid>masterclip-1</masterclipid>
                        <name>02e06 Source.mp4</name>
                        <enabled>TRUE</enabled>
                        <duration>17008</duration>
                        <rate>
                            <timebase>24</timebase>
                            <ntsc>FALSE</ntsc>
                        </rate>
                        <start>2566</start>
                        <end>2627</end>
                        <in>7720</in>
                        <out>7781</out>
                        <file id="file-5"/>
                        <sourcetrack>
                            <mediatype>audio</mediatype>
                            <trackindex>1</trackindex>
                        </sourcetrack>
                        <labels>
                            <label2>Iris</label2>
                        </labels>
                    </clipitem>
                    <clipitem id="ebbab9db-c467-4569-88e4-5a70b4a8d0f4" premiereChannelType="stereo">
                        <masterclipid>masterclip-1</masterclipid>
                        <name>02e06 Source.mp4</name>
                        <enabled>TRUE</enabled>
                        <duration>17008</duration>
                        <rate>
                            <timebase>24</timebase>
                            <ntsc>FALSE</ntsc>
                        </rate>
                        <start>2627</start>
                        <end>2645</end>
                        <in>7806</in>
                        <out>7824</out>
                        <file id="file-5"/>
                        <sourcetrack>
                            <mediatype>audio</mediatype>
                            <trackindex>1</trackindex>
                        </sourcetrack>
                        <labels>
                            <label2>Iris</label2>
                        </labels>
                    </clipitem>
                    <clipitem id="2394f184-1798-4d2f-9c91-7187e3ccd4b6" premiereChannelType="stereo">
                        <masterclipid>masterclip-1</masterclipid>
                        <name>02e06 Source.mp4</name>
                        <enabled>TRUE</enabled>
                        <duration>17008</duration>
                        <rate>
                            <timebase>24</timebase>
                            <ntsc>FALSE</ntsc>
                        </rate>
                        <start>2645</start>
                        <end>2673</end>
                        <in>7829</in>
                        <out>7857</out>
                        <file id="file-5"/>
                        <sourcetrack>
                            <mediatype>audio</mediatype>
                            <trackindex>1</trackindex>
                        </sourcetrack>
                        <labels>
                            <label2>Iris</label2>
                        </labels>
                    </clipitem>
                    <clipitem id="1eed508d-6519-420c-9302-334c7af1f00b" premiereChannelType="stereo">
                        <masterclipid>masterclip-1</masterclipid>
                        <name>02e06 Source.mp4</name>
                        <enabled>TRUE</enabled>
                        <duration>17008</duration>
                        <rate>
                            <timebase>24</timebase>
                            <ntsc>FALSE</ntsc>
                        </rate>
                        <start>2673</start>
                        <end>2728</end>
                        <in>7864</in>
                        <out>7919</out>
                        <file id="file-5"/>
                        <sourcetrack>
                            <mediatype>audio</mediatype>
                            <trackindex>1</trackindex>
                        </sourcetrack>
                        <labels>
                            <label2>Iris</label2>
                        </labels>
                    </clipitem>
                    <clipitem id="d4dbc35f-faa1-44de-bc91-8ba9f0454177" premiereChannelType="stereo">
                        <masterclipid>masterclip-1</masterclipid>
                        <name>02e06 Source.mp4</name>
                        <enabled>TRUE</enabled>
                        <duration>17008</duration>
                        <rate>
                            <timebase>24</timebase>
                            <ntsc>FALSE</ntsc>
                        </rate>
                        <start>2728</start>
                        <end>2747</end>
                        <in>7922</in>
                        <out>7941</out>
                        <file id="file-5"/>
                        <sourcetrack>
                            <mediatype>audio</mediatype>
                            <trackindex>1</trackindex>
                        </sourcetrack>
                        <labels>
                            <label2>Iris</label2>
                        </labels>
                    </clipitem>
                    <clipitem id="ad3cd412-ecfb-4ab3-b973-ec686d678b6a" premiereChannelType="stereo">
                        <masterclipid>masterclip-1</masterclipid>
                        <name>02e06 Source.mp4</name>
                        <enabled>TRUE</enabled>
                        <duration>17008</duration>
                        <rate>
                            <timebase>24</timebase>
                            <ntsc>FALSE</ntsc>
                        </rate>
                        <start>2747</start>
                        <end>2790</end>
                        <in>7952</in>
                        <out>7995</out>
                        <file id="file-5"/>
                        <sourcetrack>
                            <mediatype>audio</mediatype>
                            <trackindex>1</trackindex>
                        </sourcetrack>
                        <labels>
                            <label2>Iris</label2>
                        </labels>
                    </clipitem>
                    <clipitem id="86cc87c5-42fc-4fa9-9a3a-eca3a967ee19" premiereChannelType="stereo">
                        <masterclipid>masterclip-1</masterclipid>
                        <name>02e06 Source.mp4</name>
                        <enabled>TRUE</enabled>
                        <duration>17008</duration>
                        <rate>
                            <timebase>24</timebase>
                            <ntsc>FALSE</ntsc>
                        </rate>
                        <start>2790</start>
                        <end>2807</end>
                        <in>7997</in>
                        <out>8014</out>
                        <file id="file-5"/>
                        <sourcetrack>
                            <mediatype>audio</mediatype>
                            <trackindex>1</trackindex>
                        </sourcetrack>
                        <labels>
                            <label2>Iris</label2>
                        </labels>
                    </clipitem>
                    <clipitem id="d0a36a3b-be26-4455-b949-b5c48ae674d9" premiereChannelType="stereo">
                        <masterclipid>masterclip-1</masterclipid>
                        <name>02e06 Source.mp4</name>
                        <enabled>TRUE</enabled>
                        <duration>17008</duration>
                        <rate>
                            <timebase>24</timebase>
                            <ntsc>FALSE</ntsc>
                        </rate>
                        <start>2807</start>
                        <end>2854</end>
                        <in>8014</in>
                        <out>8061</out>
                        <file id="file-5"/>
                        <sourcetrack>
                            <mediatype>audio</mediatype>
                            <trackindex>1</trackindex>
                        </sourcetrack>
                        <labels>
                            <label2>Iris</label2>
                        </labels>
                    </clipitem>
                    <clipitem id="a3103b41-bb3c-45df-9d34-01c22224bf18" premiereChannelType="stereo">
                        <masterclipid>masterclip-1</masterclipid>
                        <name>02e06 Source.mp4</name>
                        <enabled>TRUE</enabled>
                        <duration>17008</duration>
                        <rate>
                            <timebase>24</timebase>
                            <ntsc>FALSE</ntsc>
                        </rate>
                        <start>2854</start>
                        <end>2882</end>
                        <in>8063</in>
                        <out>8091</out>
                        <file id="file-5"/>
                        <sourcetrack>
                            <mediatype>audio</mediatype>
                            <trackindex>1</trackindex>
                        </sourcetrack>
                        <labels>
                            <label2>Iris</label2>
                        </labels>
                    </clipitem>
                    <clipitem id="163b90bd-44dc-4f1b-88a4-02ed67154e9f" premiereChannelType="stereo">
                        <masterclipid>masterclip-1</masterclipid>
                        <name>02e06 Source.mp4</name>
                        <enabled>TRUE</enabled>
                        <duration>17008</duration>
                        <rate>
                            <timebase>24</timebase>
                            <ntsc>FALSE</ntsc>
                        </rate>
                        <start>2882</start>
                        <end>2909</end>
                        <in>8036</in>
                        <out>8063</out>
                        <file id="file-5"/>
                        <sourcetrack>
                            <mediatype>audio</mediatype>
                            <trackindex>1</trackindex>
                        </sourcetrack>
                        <labels>
                            <label2>Iris</label2>
                        </labels>
                    </clipitem>
                    <clipitem id="07660c9c-fd82-4f20-a463-309a5b691653" premiereChannelType="stereo">
                        <masterclipid>masterclip-1</masterclipid>
                        <name>02e06 Source.mp4</name>
                        <enabled>TRUE</enabled>
                        <duration>17008</duration>
                        <rate>
                            <timebase>24</timebase>
                            <ntsc>FALSE</ntsc>
                        </rate>
                        <start>2909</start>
                        <end>2921</end>
                        <in>8065</in>
                        <out>8077</out>
                        <file id="file-5"/>
                        <sourcetrack>
                            <mediatype>audio</mediatype>
                            <trackindex>1</trackindex>
                        </sourcetrack>
                        <labels>
                            <label2>Iris</label2>
                        </labels>
                    </clipitem>
                    <clipitem id="600e9d17-d4d5-4cca-b5cb-56f78a379dc0" premiereChannelType="stereo">
                        <masterclipid>masterclip-1</masterclipid>
                        <name>02e06 Source.mp4</name>
                        <enabled>TRUE</enabled>
                        <duration>17008</duration>
                        <rate>
                            <timebase>24</timebase>
                            <ntsc>FALSE</ntsc>
                        </rate>
                        <start>2921</start>
                        <end>2932</end>
                        <in>8077</in>
                        <out>8088</out>
                        <file id="file-5"/>
                        <sourcetrack>
                            <mediatype>audio</mediatype>
                            <trackindex>1</trackindex>
                        </sourcetrack>
                        <labels>
                            <label2>Iris</label2>
                        </labels>
                    </clipitem>
                    <clipitem id="defc183f-461a-44ad-9c99-bf4711d8319f" premiereChannelType="stereo">
                        <masterclipid>masterclip-1</masterclipid>
                        <name>02e06 Source.mp4</name>
                        <enabled>TRUE</enabled>
                        <duration>17008</duration>
                        <rate>
                            <timebase>24</timebase>
                            <ntsc>FALSE</ntsc>
                        </rate>
                        <start>2932</start>
                        <end>2944</end>
                        <in>8173</in>
                        <out>8185</out>
                        <file id="file-5"/>
                        <sourcetrack>
                            <mediatype>audio</mediatype>
                            <trackindex>1</trackindex>
                        </sourcetrack>
                        <labels>
                            <label2>Iris</label2>
                        </labels>
                    </clipitem>
                    <clipitem id="86527268-2f09-45fa-86a7-74a37aac6543" premiereChannelType="stereo">
                        <masterclipid>masterclip-1</masterclipid>
                        <name>02e06 Source.mp4</name>
                        <enabled>TRUE</enabled>
                        <duration>17008</duration>
                        <rate>
                            <timebase>24</timebase>
                            <ntsc>FALSE</ntsc>
                        </rate>
                        <start>2944</start>
                        <end>2955</end>
                        <in>8185</in>
                        <out>8196</out>
                        <file id="file-5"/>
                        <sourcetrack>
                            <mediatype>audio</mediatype>
                            <trackindex>1</trackindex>
                        </sourcetrack>
                        <labels>
                            <label2>Iris</label2>
                        </labels>
                    </clipitem>
                    <clipitem id="5e8767c4-27f4-4fab-a972-912e31031957" premiereChannelType="stereo">
                        <masterclipid>masterclip-1</masterclipid>
                        <name>02e06 Source.mp4</name>
                        <enabled>TRUE</enabled>
                        <duration>17008</duration>
                        <rate>
                            <timebase>24</timebase>
                            <ntsc>FALSE</ntsc>
                        </rate>
                        <start>2955</start>
                        <end>2969</end>
                        <in>8247</in>
                        <out>8261</out>
                        <file id="file-5"/>
                        <sourcetrack>
                            <mediatype>audio</mediatype>
                            <trackindex>1</trackindex>
                        </sourcetrack>
                        <labels>
                            <label2>Iris</label2>
                        </labels>
                    </clipitem>
                    <clipitem id="59e8ce92-9c9d-4c63-b5d1-a0c03ba611ed" premiereChannelType="stereo">
                        <masterclipid>masterclip-1</masterclipid>
                        <name>02e06 Source.mp4</name>
                        <enabled>TRUE</enabled>
                        <duration>17008</duration>
                        <rate>
                            <timebase>24</timebase>
                            <ntsc>FALSE</ntsc>
                        </rate>
                        <start>2969</start>
                        <end>3033</end>
                        <in>8261</in>
                        <out>8325</out>
                        <file id="file-5"/>
                        <sourcetrack>
                            <mediatype>audio</mediatype>
                            <trackindex>1</trackindex>
                        </sourcetrack>
                        <labels>
                            <label2>Iris</label2>
                        </labels>
                    </clipitem>
                    <clipitem id="d9a8b3ba-8a49-413e-91be-71ddd8562cde" premiereChannelType="stereo">
                        <masterclipid>masterclip-1</masterclipid>
                        <name>02e06 Source.mp4</name>
                        <enabled>TRUE</enabled>
                        <duration>17008</duration>
                        <rate>
                            <timebase>24</timebase>
                            <ntsc>FALSE</ntsc>
                        </rate>
                        <start>3033</start>
                        <end>3060</end>
                        <in>8296</in>
                        <out>8323</out>
                        <file id="file-5"/>
                        <sourcetrack>
                            <mediatype>audio</mediatype>
                            <trackindex>1</trackindex>
                        </sourcetrack>
                        <labels>
                            <label2>Iris</label2>
                        </labels>
                    </clipitem>
                    <clipitem id="15103431-cbad-4f77-b8d6-faeb10d21203" premiereChannelType="stereo">
                        <masterclipid>masterclip-1</masterclipid>
                        <name>02e06 Source.mp4</name>
                        <enabled>TRUE</enabled>
                        <duration>17008</duration>
                        <rate>
                            <timebase>24</timebase>
                            <ntsc>FALSE</ntsc>
                        </rate>
                        <start>3060</start>
                        <end>3089</end>
                        <in>8799</in>
                        <out>8828</out>
                        <file id="file-5"/>
                        <sourcetrack>
                            <mediatype>audio</mediatype>
                            <trackindex>1</trackindex>
                        </sourcetrack>
                        <labels>
                            <label2>Iris</label2>
                        </labels>
                    </clipitem>
                    <clipitem id="706aab98-a6b7-42de-b0da-d8d8c709e043" premiereChannelType="stereo">
                        <masterclipid>masterclip-1</masterclipid>
                        <name>02e06 Source.mp4</name>
                        <enabled>TRUE</enabled>
                        <duration>17008</duration>
                        <rate>
                            <timebase>24</timebase>
                            <ntsc>FALSE</ntsc>
                        </rate>
                        <start>3089</start>
                        <end>3120</end>
                        <in>8965</in>
                        <out>8996</out>
                        <file id="file-5"/>
                        <sourcetrack>
                            <mediatype>audio</mediatype>
                            <trackindex>1</trackindex>
                        </sourcetrack>
                        <labels>
                            <label2>Iris</label2>
                        </labels>
                    </clipitem>
                    <clipitem id="c47d49ae-f4f1-42e7-8ce1-86903233fb18" premiereChannelType="stereo">
                        <masterclipid>masterclip-1</masterclipid>
                        <name>02e06 Source.mp4</name>
                        <enabled>TRUE</enabled>
                        <duration>17008</duration>
                        <rate>
                            <timebase>24</timebase>
                            <ntsc>FALSE</ntsc>
                        </rate>
                        <start>3120</start>
                        <end>3146</end>
                        <in>9015</in>
                        <out>9041</out>
                        <file id="file-5"/>
                        <sourcetrack>
                            <mediatype>audio</mediatype>
                            <trackindex>1</trackindex>
                        </sourcetrack>
                        <labels>
                            <label2>Iris</label2>
                        </labels>
                    </clipitem>
                    <clipitem id="f906db06-10e5-4823-a044-39d9f117d346" premiereChannelType="stereo">
                        <masterclipid>masterclip-1</masterclipid>
                        <name>02e06 Source.mp4</name>
                        <enabled>TRUE</enabled>
                        <duration>17008</duration>
                        <rate>
                            <timebase>24</timebase>
                            <ntsc>FALSE</ntsc>
                        </rate>
                        <start>3146</start>
                        <end>3183</end>
                        <in>9306</in>
                        <out>9343</out>
                        <file id="file-5"/>
                        <sourcetrack>
                            <mediatype>audio</mediatype>
                            <trackindex>1</trackindex>
                        </sourcetrack>
                        <labels>
                            <label2>Iris</label2>
                        </labels>
                    </clipitem>
                    <clipitem id="26717aaa-389c-4499-83a6-b2b336bfd91e" premiereChannelType="stereo">
                        <masterclipid>masterclip-1</masterclipid>
                        <name>02e06 Source.mp4</name>
                        <enabled>TRUE</enabled>
                        <duration>17008</duration>
                        <rate>
                            <timebase>24</timebase>
                            <ntsc>FALSE</ntsc>
                        </rate>
                        <start>3183</start>
                        <end>3208</end>
                        <in>9459</in>
                        <out>9484</out>
                        <file id="file-5"/>
                        <sourcetrack>
                            <mediatype>audio</mediatype>
                            <trackindex>1</trackindex>
                        </sourcetrack>
                        <labels>
                            <label2>Iris</label2>
                        </labels>
                    </clipitem>
                    <clipitem id="0529e819-2a78-402b-ac1b-d2b642394157" premiereChannelType="stereo">
                        <masterclipid>masterclip-1</masterclipid>
                        <name>02e06 Source.mp4</name>
                        <enabled>TRUE</enabled>
                        <duration>17008</duration>
                        <rate>
                            <timebase>24</timebase>
                            <ntsc>FALSE</ntsc>
                        </rate>
                        <start>3208</start>
                        <end>3220</end>
                        <in>9458</in>
                        <out>9470</out>
                        <file id="file-5"/>
                        <sourcetrack>
                            <mediatype>audio</mediatype>
                            <trackindex>1</trackindex>
                        </sourcetrack>
                        <labels>
                            <label2>Iris</label2>
                        </labels>
                    </clipitem>
                    <clipitem id="57190ec9-37b6-4a5c-b553-2284495678ef" premiereChannelType="stereo">
                        <masterclipid>masterclip-1</masterclipid>
                        <name>02e06 Source.mp4</name>
                        <enabled>TRUE</enabled>
                        <duration>17008</duration>
                        <rate>
                            <timebase>24</timebase>
                            <ntsc>FALSE</ntsc>
                        </rate>
                        <start>3220</start>
                        <end>3231</end>
                        <in>9498</in>
                        <out>9509</out>
                        <file id="file-5"/>
                        <sourcetrack>
                            <mediatype>audio</mediatype>
                            <trackindex>1</trackindex>
                        </sourcetrack>
                        <labels>
                            <label2>Iris</label2>
                        </labels>
                    </clipitem>
                    <clipitem id="863d83e3-0da6-4e7c-b7e1-b9e4ae3ab015" premiereChannelType="stereo">
                        <masterclipid>masterclip-1</masterclipid>
                        <name>02e06 Source.mp4</name>
                        <enabled>TRUE</enabled>
                        <duration>17008</duration>
                        <rate>
                            <timebase>24</timebase>
                            <ntsc>FALSE</ntsc>
                        </rate>
                        <start>3231</start>
                        <end>3277</end>
                        <in>9509</in>
                        <out>9555</out>
                        <file id="file-5"/>
                        <sourcetrack>
                            <mediatype>audio</mediatype>
                            <trackindex>1</trackindex>
                        </sourcetrack>
                        <labels>
                            <label2>Iris</label2>
                        </labels>
                    </clipitem>
                    <clipitem id="5f7c97cb-9be4-4116-9c14-d3e9236c96d8" premiereChannelType="stereo">
                        <masterclipid>masterclip-1</masterclipid>
                        <name>02e06 Source.mp4</name>
                        <enabled>TRUE</enabled>
                        <duration>17008</duration>
                        <rate>
                            <timebase>24</timebase>
                            <ntsc>FALSE</ntsc>
                        </rate>
                        <start>3277</start>
                        <end>3290</end>
                        <in>9627</in>
                        <out>9640</out>
                        <file id="file-5"/>
                        <sourcetrack>
                            <mediatype>audio</mediatype>
                            <trackindex>1</trackindex>
                        </sourcetrack>
                        <labels>
                            <label2>Iris</label2>
                        </labels>
                    </clipitem>
                    <clipitem id="26133c92-f0e1-4ad9-ade9-efe6e322f0b1" premiereChannelType="stereo">
                        <masterclipid>masterclip-1</masterclipid>
                        <name>02e06 Source.mp4</name>
                        <enabled>TRUE</enabled>
                        <duration>17008</duration>
                        <rate>
                            <timebase>24</timebase>
                            <ntsc>FALSE</ntsc>
                        </rate>
                        <start>3290</start>
                        <end>3321</end>
                        <in>9640</in>
                        <out>9671</out>
                        <file id="file-5"/>
                        <sourcetrack>
                            <mediatype>audio</mediatype>
                            <trackindex>1</trackindex>
                        </sourcetrack>
                        <labels>
                            <label2>Iris</label2>
                        </labels>
                    </clipitem>
                    <clipitem id="2c80c73d-c89e-4bd6-b20e-d2d198655b77" premiereChannelType="stereo">
                        <masterclipid>masterclip-1</masterclipid>
                        <name>02e06 Source.mp4</name>
                        <enabled>TRUE</enabled>
                        <duration>17008</duration>
                        <rate>
                            <timebase>24</timebase>
                            <ntsc>FALSE</ntsc>
                        </rate>
                        <start>3321</start>
                        <end>3347</end>
                        <in>9693</in>
                        <out>9719</out>
                        <file id="file-5"/>
                        <sourcetrack>
                            <mediatype>audio</mediatype>
                            <trackindex>1</trackindex>
                        </sourcetrack>
                        <labels>
                            <label2>Iris</label2>
                        </labels>
                    </clipitem>
                    <clipitem id="fc0bda84-e3d9-494f-9c5a-dcb3b68d2f81" premiereChannelType="stereo">
                        <masterclipid>masterclip-1</masterclipid>
                        <name>02e06 Source.mp4</name>
                        <enabled>TRUE</enabled>
                        <duration>17008</duration>
                        <rate>
                            <timebase>24</timebase>
                            <ntsc>FALSE</ntsc>
                        </rate>
                        <start>3347</start>
                        <end>3384</end>
                        <in>9561</in>
                        <out>9598</out>
                        <file id="file-5"/>
                        <sourcetrack>
                            <mediatype>audio</mediatype>
                            <trackindex>1</trackindex>
                        </sourcetrack>
                        <labels>
                            <label2>Iris</label2>
                        </labels>
                    </clipitem>
                    <clipitem id="8e092604-3e2d-4496-bf2f-fc0c13638125" premiereChannelType="stereo">
                        <masterclipid>masterclip-1</masterclipid>
                        <name>02e06 Source.mp4</name>
                        <enabled>TRUE</enabled>
                        <duration>17008</duration>
                        <rate>
                            <timebase>24</timebase>
                            <ntsc>FALSE</ntsc>
                        </rate>
                        <start>3384</start>
                        <end>3445</end>
                        <in>9715</in>
                        <out>9776</out>
                        <file id="file-5"/>
                        <sourcetrack>
                            <mediatype>audio</mediatype>
                            <trackindex>1</trackindex>
                        </sourcetrack>
                        <labels>
                            <label2>Iris</label2>
                        </labels>
                    </clipitem>
                    <clipitem id="3cd37cd1-9ec4-48ea-bade-debd219877c0" premiereChannelType="stereo">
                        <masterclipid>masterclip-1</masterclipid>
                        <name>02e06 Source.mp4</name>
                        <enabled>TRUE</enabled>
                        <duration>17008</duration>
                        <rate>
                            <timebase>24</timebase>
                            <ntsc>FALSE</ntsc>
                        </rate>
                        <start>3445</start>
                        <end>3479</end>
                        <in>9877</in>
                        <out>9911</out>
                        <file id="file-5"/>
                        <sourcetrack>
                            <mediatype>audio</mediatype>
                            <trackindex>1</trackindex>
                        </sourcetrack>
                        <labels>
                            <label2>Iris</label2>
                        </labels>
                    </clipitem>
                    <clipitem id="5beb218d-b111-48db-ad5f-eec90b5de833" premiereChannelType="stereo">
                        <masterclipid>masterclip-1</masterclipid>
                        <name>02e06 Source.mp4</name>
                        <enabled>TRUE</enabled>
                        <duration>17008</duration>
                        <rate>
                            <timebase>24</timebase>
                            <ntsc>FALSE</ntsc>
                        </rate>
                        <start>3479</start>
                        <end>3553</end>
                        <in>10199</in>
                        <out>10273</out>
                        <file id="file-5"/>
                        <sourcetrack>
                            <mediatype>audio</mediatype>
                            <trackindex>1</trackindex>
                        </sourcetrack>
                        <labels>
                            <label2>Iris</label2>
                        </labels>
                    </clipitem>
                    <clipitem id="dfcd5a44-6b66-45bf-86ec-e11a370c0407" premiereChannelType="stereo">
                        <masterclipid>masterclip-1</masterclipid>
                        <name>02e06 Source.mp4</name>
                        <enabled>TRUE</enabled>
                        <duration>17008</duration>
                        <rate>
                            <timebase>24</timebase>
                            <ntsc>FALSE</ntsc>
                        </rate>
                        <start>3553</start>
                        <end>3632</end>
                        <in>10313</in>
                        <out>10392</out>
                        <file id="file-5"/>
                        <sourcetrack>
                            <mediatype>audio</mediatype>
                            <trackindex>1</trackindex>
                        </sourcetrack>
                        <labels>
                            <label2>Iris</label2>
                        </labels>
                    </clipitem>
                    <clipitem id="91434b14-f167-4fe8-bf2c-fd0404cf0045" premiereChannelType="stereo">
                        <masterclipid>masterclip-1</masterclipid>
                        <name>02e06 Source.mp4</name>
                        <enabled>TRUE</enabled>
                        <duration>17008</duration>
                        <rate>
                            <timebase>24</timebase>
                            <ntsc>FALSE</ntsc>
                        </rate>
                        <start>3632</start>
                        <end>3687</end>
                        <in>10396</in>
                        <out>10451</out>
                        <file id="file-5"/>
                        <sourcetrack>
                            <mediatype>audio</mediatype>
                            <trackindex>1</trackindex>
                        </sourcetrack>
                        <labels>
                            <label2>Iris</label2>
                        </labels>
                    </clipitem>
                    <clipitem id="dded4e2a-603b-4c00-bb95-76ef7fe10cef" premiereChannelType="stereo">
                        <masterclipid>masterclip-1</masterclipid>
                        <name>02e06 Source.mp4</name>
                        <enabled>TRUE</enabled>
                        <duration>17008</duration>
                        <rate>
                            <timebase>24</timebase>
                            <ntsc>FALSE</ntsc>
                        </rate>
                        <start>3687</start>
                        <end>3698</end>
                        <in>10664</in>
                        <out>10675</out>
                        <file id="file-5"/>
                        <sourcetrack>
                            <mediatype>audio</mediatype>
                            <trackindex>1</trackindex>
                        </sourcetrack>
                        <labels>
                            <label2>Iris</label2>
                        </labels>
                    </clipitem>
                    <clipitem id="97b21422-54d0-4dc5-8a64-35b2e8a3b9f7" premiereChannelType="stereo">
                        <masterclipid>masterclip-1</masterclipid>
                        <name>02e06 Source.mp4</name>
                        <enabled>TRUE</enabled>
                        <duration>17008</duration>
                        <rate>
                            <timebase>24</timebase>
                            <ntsc>FALSE</ntsc>
                        </rate>
                        <start>3698</start>
                        <end>3731</end>
                        <in>10675</in>
                        <out>10708</out>
                        <file id="file-5"/>
                        <sourcetrack>
                            <mediatype>audio</mediatype>
                            <trackindex>1</trackindex>
                        </sourcetrack>
                        <labels>
                            <label2>Iris</label2>
                        </labels>
                    </clipitem>
                    <clipitem id="1d683615-878f-4e5c-8897-cbb3fbce45a9" premiereChannelType="stereo">
                        <masterclipid>masterclip-1</masterclipid>
                        <name>02e06 Source.mp4</name>
                        <enabled>TRUE</enabled>
                        <duration>17008</duration>
                        <rate>
                            <timebase>24</timebase>
                            <ntsc>FALSE</ntsc>
                        </rate>
                        <start>3731</start>
                        <end>3744</end>
                        <in>10709</in>
                        <out>10722</out>
                        <file id="file-5"/>
                        <sourcetrack>
                            <mediatype>audio</mediatype>
                            <trackindex>1</trackindex>
                        </sourcetrack>
                        <labels>
                            <label2>Iris</label2>
                        </labels>
                    </clipitem>
                    <clipitem id="4145cdb9-c987-422f-932a-73fc2ad60aa9" premiereChannelType="stereo">
                        <masterclipid>masterclip-1</masterclipid>
                        <name>02e06 Source.mp4</name>
                        <enabled>TRUE</enabled>
                        <duration>17008</duration>
                        <rate>
                            <timebase>24</timebase>
                            <ntsc>FALSE</ntsc>
                        </rate>
                        <start>3744</start>
                        <end>3768</end>
                        <in>10723</in>
                        <out>10747</out>
                        <file id="file-5"/>
                        <sourcetrack>
                            <mediatype>audio</mediatype>
                            <trackindex>1</trackindex>
                        </sourcetrack>
                        <labels>
                            <label2>Iris</label2>
                        </labels>
                    </clipitem>
                    <clipitem id="c080eee1-46c5-49d3-8e15-104d9e8a719d" premiereChannelType="stereo">
                        <masterclipid>masterclip-1</masterclipid>
                        <name>02e06 Source.mp4</name>
                        <enabled>TRUE</enabled>
                        <duration>17008</duration>
                        <rate>
                            <timebase>24</timebase>
                            <ntsc>FALSE</ntsc>
                        </rate>
                        <start>3768</start>
                        <end>3789</end>
                        <in>10776</in>
                        <out>10797</out>
                        <file id="file-5"/>
                        <sourcetrack>
                            <mediatype>audio</mediatype>
                            <trackindex>1</trackindex>
                        </sourcetrack>
                        <labels>
                            <label2>Iris</label2>
                        </labels>
                    </clipitem>
                    <clipitem id="01b4d0d2-6252-48c6-a0e0-5d4042e8b043" premiereChannelType="stereo">
                        <masterclipid>masterclip-1</masterclipid>
                        <name>02e06 Source.mp4</name>
                        <enabled>TRUE</enabled>
                        <duration>17008</duration>
                        <rate>
                            <timebase>24</timebase>
                            <ntsc>FALSE</ntsc>
                        </rate>
                        <start>3789</start>
                        <end>3800</end>
                        <in>10798</in>
                        <out>10809</out>
                        <file id="file-5"/>
                        <sourcetrack>
                            <mediatype>audio</mediatype>
                            <trackindex>1</trackindex>
                        </sourcetrack>
                        <labels>
                            <label2>Iris</label2>
                        </labels>
                    </clipitem>
                    <clipitem id="bf07c3d0-f4a5-4e3e-93ed-79c7e3f8cd34" premiereChannelType="stereo">
                        <masterclipid>masterclip-1</masterclipid>
                        <name>02e06 Source.mp4</name>
                        <enabled>TRUE</enabled>
                        <duration>17008</duration>
                        <rate>
                            <timebase>24</timebase>
                            <ntsc>FALSE</ntsc>
                        </rate>
                        <start>3800</start>
                        <end>3842</end>
                        <in>10870</in>
                        <out>10912</out>
                        <file id="file-5"/>
                        <sourcetrack>
                            <mediatype>audio</mediatype>
                            <trackindex>1</trackindex>
                        </sourcetrack>
                        <labels>
                            <label2>Iris</label2>
                        </labels>
                    </clipitem>
                    <clipitem id="b5aa7edd-1191-438b-92ad-002ac7ed58ea" premiereChannelType="stereo">
                        <masterclipid>masterclip-1</masterclipid>
                        <name>02e06 Source.mp4</name>
                        <enabled>TRUE</enabled>
                        <duration>17008</duration>
                        <rate>
                            <timebase>24</timebase>
                            <ntsc>FALSE</ntsc>
                        </rate>
                        <start>3842</start>
                        <end>3856</end>
                        <in>11058</in>
                        <out>11072</out>
                        <file id="file-5"/>
                        <sourcetrack>
                            <mediatype>audio</mediatype>
                            <trackindex>1</trackindex>
                        </sourcetrack>
                        <labels>
                            <label2>Iris</label2>
                        </labels>
                    </clipitem>
                    <clipitem id="c3e372ca-20fc-4752-b8f1-24db9b4a7c9c" premiereChannelType="stereo">
                        <masterclipid>masterclip-1</masterclipid>
                        <name>02e06 Source.mp4</name>
                        <enabled>TRUE</enabled>
                        <duration>17008</duration>
                        <rate>
                            <timebase>24</timebase>
                            <ntsc>FALSE</ntsc>
                        </rate>
                        <start>3856</start>
                        <end>3867</end>
                        <in>11072</in>
                        <out>11083</out>
                        <file id="file-5"/>
                        <sourcetrack>
                            <mediatype>audio</mediatype>
                            <trackindex>1</trackindex>
                        </sourcetrack>
                        <labels>
                            <label2>Iris</label2>
                        </labels>
                    </clipitem>
                    <clipitem id="5e68ae0a-d439-4aa1-acdf-20b01ac696ac" premiereChannelType="stereo">
                        <masterclipid>masterclip-1</masterclipid>
                        <name>02e06 Source.mp4</name>
                        <enabled>TRUE</enabled>
                        <duration>17008</duration>
                        <rate>
                            <timebase>24</timebase>
                            <ntsc>FALSE</ntsc>
                        </rate>
                        <start>3867</start>
                        <end>3894</end>
                        <in>11084</in>
                        <out>11111</out>
                        <file id="file-5"/>
                        <sourcetrack>
                            <mediatype>audio</mediatype>
                            <trackindex>1</trackindex>
                        </sourcetrack>
                        <labels>
                            <label2>Iris</label2>
                        </labels>
                    </clipitem>
                    <clipitem id="ad131d9b-70e0-41d2-8354-f76b185ea42b" premiereChannelType="stereo">
                        <masterclipid>masterclip-1</masterclipid>
                        <name>02e06 Source.mp4</name>
                        <enabled>TRUE</enabled>
                        <duration>17008</duration>
                        <rate>
                            <timebase>24</timebase>
                            <ntsc>FALSE</ntsc>
                        </rate>
                        <start>3894</start>
                        <end>3908</end>
                        <in>11328</in>
                        <out>11342</out>
                        <file id="file-5"/>
                        <sourcetrack>
                            <mediatype>audio</mediatype>
                            <trackindex>1</trackindex>
                        </sourcetrack>
                        <labels>
                            <label2>Iris</label2>
                        </labels>
                    </clipitem>
                    <clipitem id="4dc7ec3f-d9d2-40f0-be61-e3999762f511" premiereChannelType="stereo">
                        <masterclipid>masterclip-1</masterclipid>
                        <name>02e06 Source.mp4</name>
                        <enabled>TRUE</enabled>
                        <duration>17008</duration>
                        <rate>
                            <timebase>24</timebase>
                            <ntsc>FALSE</ntsc>
                        </rate>
                        <start>3908</start>
                        <end>3921</end>
                        <in>11345</in>
                        <out>11358</out>
                        <file id="file-5"/>
                        <sourcetrack>
                            <mediatype>audio</mediatype>
                            <trackindex>1</trackindex>
                        </sourcetrack>
                        <labels>
                            <label2>Iris</label2>
                        </labels>
                    </clipitem>
                    <clipitem id="d93a0685-e4e2-4b77-b864-3c25eeb2b529" premiereChannelType="stereo">
                        <masterclipid>masterclip-1</masterclipid>
                        <name>02e06 Source.mp4</name>
                        <enabled>TRUE</enabled>
                        <duration>17008</duration>
                        <rate>
                            <timebase>24</timebase>
                            <ntsc>FALSE</ntsc>
                        </rate>
                        <start>3921</start>
                        <end>3934</end>
                        <in>11458</in>
                        <out>11471</out>
                        <file id="file-5"/>
                        <sourcetrack>
                            <mediatype>audio</mediatype>
                            <trackindex>1</trackindex>
                        </sourcetrack>
                        <labels>
                            <label2>Iris</label2>
                        </labels>
                    </clipitem>
                    <clipitem id="060108cd-9b66-4ced-a4f2-074cd4902364" premiereChannelType="stereo">
                        <masterclipid>masterclip-1</masterclipid>
                        <name>02e06 Source.mp4</name>
                        <enabled>TRUE</enabled>
                        <duration>17008</duration>
                        <rate>
                            <timebase>24</timebase>
                            <ntsc>FALSE</ntsc>
                        </rate>
                        <start>3934</start>
                        <end>3959</end>
                        <in>11471</in>
                        <out>11496</out>
                        <file id="file-5"/>
                        <sourcetrack>
                            <mediatype>audio</mediatype>
                            <trackindex>1</trackindex>
                        </sourcetrack>
                        <labels>
                            <label2>Iris</label2>
                        </labels>
                    </clipitem>
                    <clipitem id="dbaa64c6-c714-41a3-88f1-803be92a48de" premiereChannelType="stereo">
                        <masterclipid>masterclip-1</masterclipid>
                        <name>02e06 Source.mp4</name>
                        <enabled>TRUE</enabled>
                        <duration>17008</duration>
                        <rate>
                            <timebase>24</timebase>
                            <ntsc>FALSE</ntsc>
                        </rate>
                        <start>3959</start>
                        <end>3973</end>
                        <in>11564</in>
                        <out>11578</out>
                        <file id="file-5"/>
                        <sourcetrack>
                            <mediatype>audio</mediatype>
                            <trackindex>1</trackindex>
                        </sourcetrack>
                        <labels>
                            <label2>Iris</label2>
                        </labels>
                    </clipitem>
                    <clipitem id="2ea1a7a3-0e1b-4f95-b3c6-c3dea2b74e82" premiereChannelType="stereo">
                        <masterclipid>masterclip-1</masterclipid>
                        <name>02e06 Source.mp4</name>
                        <enabled>TRUE</enabled>
                        <duration>17008</duration>
                        <rate>
                            <timebase>24</timebase>
                            <ntsc>FALSE</ntsc>
                        </rate>
                        <start>3976</start>
                        <end>3996</end>
                        <in>11583</in>
                        <out>11603</out>
                        <file id="file-5"/>
                        <sourcetrack>
                            <mediatype>audio</mediatype>
                            <trackindex>1</trackindex>
                        </sourcetrack>
                        <labels>
                            <label2>Iris</label2>
                        </labels>
                    </clipitem>
                    <clipitem id="bcdd2355-b355-48ca-971f-3f31cb183c47" premiereChannelType="stereo">
                        <masterclipid>masterclip-1</masterclipid>
                        <name>02e06 Source.mp4</name>
                        <enabled>TRUE</enabled>
                        <duration>17008</duration>
                        <rate>
                            <timebase>24</timebase>
                            <ntsc>FALSE</ntsc>
                        </rate>
                        <start>3996</start>
                        <end>4030</end>
                        <in>11801</in>
                        <out>11835</out>
                        <file id="file-5"/>
                        <sourcetrack>
                            <mediatype>audio</mediatype>
                            <trackindex>1</trackindex>
                        </sourcetrack>
                        <labels>
                            <label2>Iris</label2>
                        </labels>
                    </clipitem>
                    <clipitem id="00f3478d-6dfe-491e-aaef-ab6bc13a1fac" premiereChannelType="stereo">
                        <masterclipid>masterclip-1</masterclipid>
                        <name>02e06 Source.mp4</name>
                        <enabled>TRUE</enabled>
                        <duration>17008</duration>
                        <rate>
                            <timebase>24</timebase>
                            <ntsc>FALSE</ntsc>
                        </rate>
                        <start>4030</start>
                        <end>4061</end>
                        <in>11894</in>
                        <out>11925</out>
                        <file id="file-5"/>
                        <sourcetrack>
                            <mediatype>audio</mediatype>
                            <trackindex>1</trackindex>
                        </sourcetrack>
                        <labels>
                            <label2>Iris</label2>
                        </labels>
                    </clipitem>
                    <clipitem id="47f9c3c0-6424-4b22-81f0-bb6c20489988" premiereChannelType="stereo">
                        <masterclipid>masterclip-1</masterclipid>
                        <name>02e06 Source.mp4</name>
                        <enabled>TRUE</enabled>
                        <duration>17008</duration>
                        <rate>
                            <timebase>24</timebase>
                            <ntsc>FALSE</ntsc>
                        </rate>
                        <start>4061</start>
                        <end>4115</end>
                        <in>11972</in>
                        <out>12026</out>
                        <file id="file-5"/>
                        <sourcetrack>
                            <mediatype>audio</mediatype>
                            <trackindex>1</trackindex>
                        </sourcetrack>
                        <labels>
                            <label2>Iris</label2>
                        </labels>
                    </clipitem>
                    <clipitem id="6931135d-4704-4bdf-8fc7-06f69c5fea7f" premiereChannelType="stereo">
                        <masterclipid>masterclip-1</masterclipid>
                        <name>02e06 Source.mp4</name>
                        <enabled>TRUE</enabled>
                        <duration>17008</duration>
                        <rate>
                            <timebase>24</timebase>
                            <ntsc>FALSE</ntsc>
                        </rate>
                        <start>4115</start>
                        <end>4141</end>
                        <in>12026</in>
                        <out>12052</out>
                        <file id="file-5"/>
                        <sourcetrack>
                            <mediatype>audio</mediatype>
                            <trackindex>1</trackindex>
                        </sourcetrack>
                        <labels>
                            <label2>Iris</label2>
                        </labels>
                    </clipitem>
                    <clipitem id="53265af5-d1c6-4680-a202-13f56224a059" premiereChannelType="stereo">
                        <masterclipid>masterclip-1</masterclipid>
                        <name>02e06 Source.mp4</name>
                        <enabled>TRUE</enabled>
                        <duration>17008</duration>
                        <rate>
                            <timebase>24</timebase>
                            <ntsc>FALSE</ntsc>
                        </rate>
                        <start>4141</start>
                        <end>4156</end>
                        <in>12055</in>
                        <out>12070</out>
                        <file id="file-5"/>
                        <sourcetrack>
                            <mediatype>audio</mediatype>
                            <trackindex>1</trackindex>
                        </sourcetrack>
                        <labels>
                            <label2>Iris</label2>
                        </labels>
                    </clipitem>
                    <clipitem id="36d23bb3-0ead-49cc-b479-8dc5b6bb5389" premiereChannelType="stereo">
                        <masterclipid>masterclip-1</masterclipid>
                        <name>02e06 Source.mp4</name>
                        <enabled>TRUE</enabled>
                        <duration>17008</duration>
                        <rate>
                            <timebase>24</timebase>
                            <ntsc>FALSE</ntsc>
                        </rate>
                        <start>4156</start>
                        <end>4177</end>
                        <in>12071</in>
                        <out>12092</out>
                        <file id="file-5"/>
                        <sourcetrack>
                            <mediatype>audio</mediatype>
                            <trackindex>1</trackindex>
                        </sourcetrack>
                        <labels>
                            <label2>Iris</label2>
                        </labels>
                    </clipitem>
                    <clipitem id="48728080-ce7f-4770-b42c-f0bab2065bc1" premiereChannelType="stereo">
                        <masterclipid>masterclip-1</masterclipid>
                        <name>02e06 Source.mp4</name>
                        <enabled>TRUE</enabled>
                        <duration>17008</duration>
                        <rate>
                            <timebase>24</timebase>
                            <ntsc>FALSE</ntsc>
                        </rate>
                        <start>4177</start>
                        <end>4209</end>
                        <in>12092</in>
                        <out>12124</out>
                        <file id="file-5"/>
                        <sourcetrack>
                            <mediatype>audio</mediatype>
                            <trackindex>1</trackindex>
                        </sourcetrack>
                        <labels>
                            <label2>Iris</label2>
                        </labels>
                    </clipitem>
                    <clipitem id="43d189a0-98f5-438f-9354-6c41d377563c" premiereChannelType="stereo">
                        <masterclipid>masterclip-1</masterclipid>
                        <name>02e06 Source.mp4</name>
                        <enabled>TRUE</enabled>
                        <duration>17008</duration>
                        <rate>
                            <timebase>24</timebase>
                            <ntsc>FALSE</ntsc>
                        </rate>
                        <start>4209</start>
                        <end>4266</end>
                        <in>12126</in>
                        <out>12183</out>
                        <file id="file-5"/>
                        <sourcetrack>
                            <mediatype>audio</mediatype>
                            <trackindex>1</trackindex>
                        </sourcetrack>
                        <labels>
                            <label2>Iris</label2>
                        </labels>
                    </clipitem>
                    <clipitem id="14a7434a-85c8-4bbf-b679-a96bc2ea7eec" premiereChannelType="stereo">
                        <masterclipid>masterclip-1</masterclipid>
                        <name>02e06 Source.mp4</name>
                        <enabled>TRUE</enabled>
                        <duration>17008</duration>
                        <rate>
                            <timebase>24</timebase>
                            <ntsc>FALSE</ntsc>
                        </rate>
                        <start>4266</start>
                        <end>4288</end>
                        <in>12200</in>
                        <out>12222</out>
                        <file id="file-5"/>
                        <sourcetrack>
                            <mediatype>audio</mediatype>
                            <trackindex>1</trackindex>
                        </sourcetrack>
                        <labels>
                            <label2>Iris</label2>
                        </labels>
                    </clipitem>
                    <clipitem id="6964a548-128b-45cb-a991-86d5163ffdb4" premiereChannelType="stereo">
                        <masterclipid>masterclip-1</masterclipid>
                        <name>02e06 Source.mp4</name>
                        <enabled>TRUE</enabled>
                        <duration>17008</duration>
                        <rate>
                            <timebase>24</timebase>
                            <ntsc>FALSE</ntsc>
                        </rate>
                        <start>4288</start>
                        <end>4299</end>
                        <in>12258</in>
                        <out>12269</out>
                        <file id="file-5"/>
                        <sourcetrack>
                            <mediatype>audio</mediatype>
                            <trackindex>1</trackindex>
                        </sourcetrack>
                        <labels>
                            <label2>Iris</label2>
                        </labels>
                    </clipitem>
                    <clipitem id="13f4d140-3d11-41fb-84bc-97ed66f48c8b" premiereChannelType="stereo">
                        <masterclipid>masterclip-1</masterclipid>
                        <name>02e06 Source.mp4</name>
                        <enabled>TRUE</enabled>
                        <duration>17008</duration>
                        <rate>
                            <timebase>24</timebase>
                            <ntsc>FALSE</ntsc>
                        </rate>
                        <start>4299</start>
                        <end>4310</end>
                        <in>12270</in>
                        <out>12281</out>
                        <file id="file-5"/>
                        <sourcetrack>
                            <mediatype>audio</mediatype>
                            <trackindex>1</trackindex>
                        </sourcetrack>
                        <labels>
                            <label2>Iris</label2>
                        </labels>
                    </clipitem>
                    <clipitem id="879a4ba7-b54d-4902-84d5-85c8a28aa636" premiereChannelType="stereo">
                        <masterclipid>masterclip-1</masterclipid>
                        <name>02e06 Source.mp4</name>
                        <enabled>TRUE</enabled>
                        <duration>17008</duration>
                        <rate>
                            <timebase>24</timebase>
                            <ntsc>FALSE</ntsc>
                        </rate>
                        <start>4310</start>
                        <end>4345</end>
                        <in>12548</in>
                        <out>12583</out>
                        <file id="file-5"/>
                        <sourcetrack>
                            <mediatype>audio</mediatype>
                            <trackindex>1</trackindex>
                        </sourcetrack>
                        <labels>
                            <label2>Iris</label2>
                        </labels>
                    </clipitem>
                    <clipitem id="68ff89bf-8960-4597-a11f-45a44425c6f1" premiereChannelType="stereo">
                        <masterclipid>masterclip-1</masterclipid>
                        <name>02e06 Source.mp4</name>
                        <enabled>TRUE</enabled>
                        <duration>17008</duration>
                        <rate>
                            <timebase>24</timebase>
                            <ntsc>FALSE</ntsc>
                        </rate>
                        <start>4345</start>
                        <end>4373</end>
                        <in>12742</in>
                        <out>12770</out>
                        <file id="file-5"/>
                        <sourcetrack>
                            <mediatype>audio</mediatype>
                            <trackindex>1</trackindex>
                        </sourcetrack>
                        <labels>
                            <label2>Iris</label2>
                        </labels>
                    </clipitem>
                    <clipitem id="ff4c9c82-b2d0-4075-928e-47a7b2589715" premiereChannelType="stereo">
                        <masterclipid>masterclip-1</masterclipid>
                        <name>02e06 Source.mp4</name>
                        <enabled>TRUE</enabled>
                        <duration>17008</duration>
                        <rate>
                            <timebase>24</timebase>
                            <ntsc>FALSE</ntsc>
                        </rate>
                        <start>4373</start>
                        <end>4412</end>
                        <in>12808</in>
                        <out>12847</out>
                        <file id="file-5"/>
                        <sourcetrack>
                            <mediatype>audio</mediatype>
                            <trackindex>1</trackindex>
                        </sourcetrack>
                        <labels>
                            <label2>Iris</label2>
                        </labels>
                    </clipitem>
                    <clipitem id="2e9bf90a-990a-4b6a-b4a4-1cb9487b0728" premiereChannelType="stereo">
                        <masterclipid>masterclip-1</masterclipid>
                        <name>02e06 Source.mp4</name>
                        <enabled>TRUE</enabled>
                        <duration>17008</duration>
                        <rate>
                            <timebase>24</timebase>
                            <ntsc>FALSE</ntsc>
                        </rate>
                        <start>4412</start>
                        <end>4445</end>
                        <in>13033</in>
                        <out>13066</out>
                        <file id="file-5"/>
                        <sourcetrack>
                            <mediatype>audio</mediatype>
                            <trackindex>1</trackindex>
                        </sourcetrack>
                        <labels>
                            <label2>Iris</label2>
                        </labels>
                    </clipitem>
                    <clipitem id="80d987fb-1c80-4e8f-9b99-9f9aa1980a9b" premiereChannelType="stereo">
                        <masterclipid>masterclip-1</masterclipid>
                        <name>02e06 Source.mp4</name>
                        <enabled>TRUE</enabled>
                        <duration>17008</duration>
                        <rate>
                            <timebase>24</timebase>
                            <ntsc>FALSE</ntsc>
                        </rate>
                        <start>4445</start>
                        <end>4460</end>
                        <in>13068</in>
                        <out>13083</out>
                        <file id="file-5"/>
                        <sourcetrack>
                            <mediatype>audio</mediatype>
                            <trackindex>1</trackindex>
                        </sourcetrack>
                        <labels>
                            <label2>Iris</label2>
                        </labels>
                    </clipitem>
                    <clipitem id="ec30e3dc-d63d-4a0c-96b6-b82cbb100e6b" premiereChannelType="stereo">
                        <masterclipid>masterclip-1</masterclipid>
                        <name>02e06 Source.mp4</name>
                        <enabled>TRUE</enabled>
                        <duration>17008</duration>
                        <rate>
                            <timebase>24</timebase>
                            <ntsc>FALSE</ntsc>
                        </rate>
                        <start>4460</start>
                        <end>4493</end>
                        <in>13193</in>
                        <out>13226</out>
                        <file id="file-5"/>
                        <sourcetrack>
                            <mediatype>audio</mediatype>
                            <trackindex>1</trackindex>
                        </sourcetrack>
                        <labels>
                            <label2>Iris</label2>
                        </labels>
                    </clipitem>
                    <clipitem id="fe751a9f-8611-4914-9561-5f86856395c1" premiereChannelType="stereo">
                        <masterclipid>masterclip-1</masterclipid>
                        <name>02e06 Source.mp4</name>
                        <enabled>TRUE</enabled>
                        <duration>17008</duration>
                        <rate>
                            <timebase>24</timebase>
                            <ntsc>FALSE</ntsc>
                        </rate>
                        <start>4493</start>
                        <end>4504</end>
                        <in>13424</in>
                        <out>13435</out>
                        <file id="file-5"/>
                        <sourcetrack>
                            <mediatype>audio</mediatype>
                            <trackindex>1</trackindex>
                        </sourcetrack>
                        <labels>
                            <label2>Iris</label2>
                        </labels>
                    </clipitem>
                    <clipitem id="27a10a07-87ad-448e-9ace-a3341ff1827b" premiereChannelType="stereo">
                        <masterclipid>masterclip-1</masterclipid>
                        <name>02e06 Source.mp4</name>
                        <enabled>TRUE</enabled>
                        <duration>17008</duration>
                        <rate>
                            <timebase>24</timebase>
                            <ntsc>FALSE</ntsc>
                        </rate>
                        <start>4504</start>
                        <end>4515</end>
                        <in>13435</in>
                        <out>13446</out>
                        <file id="file-5"/>
                        <sourcetrack>
                            <mediatype>audio</mediatype>
                            <trackindex>1</trackindex>
                        </sourcetrack>
                        <labels>
                            <label2>Iris</label2>
                        </labels>
                    </clipitem>
                    <clipitem id="fba91220-5dc9-4d36-a61e-4bcd88116f89" premiereChannelType="stereo">
                        <masterclipid>masterclip-1</masterclipid>
                        <name>02e06 Source.mp4</name>
                        <enabled>TRUE</enabled>
                        <duration>17008</duration>
                        <rate>
                            <timebase>24</timebase>
                            <ntsc>FALSE</ntsc>
                        </rate>
                        <start>4515</start>
                        <end>4535</end>
                        <in>13447</in>
                        <out>13467</out>
                        <file id="file-5"/>
                        <sourcetrack>
                            <mediatype>audio</mediatype>
                            <trackindex>1</trackindex>
                        </sourcetrack>
                        <labels>
                            <label2>Iris</label2>
                        </labels>
                    </clipitem>
                    <clipitem id="1632411b-71c8-4843-ba07-b98d5b9b52f9" premiereChannelType="stereo">
                        <masterclipid>masterclip-1</masterclipid>
                        <name>02e06 Source.mp4</name>
                        <enabled>TRUE</enabled>
                        <duration>17008</duration>
                        <rate>
                            <timebase>24</timebase>
                            <ntsc>FALSE</ntsc>
                        </rate>
                        <start>4535</start>
                        <end>4555</end>
                        <in>13467</in>
                        <out>13487</out>
                        <file id="file-5"/>
                        <sourcetrack>
                            <mediatype>audio</mediatype>
                            <trackindex>1</trackindex>
                        </sourcetrack>
                        <labels>
                            <label2>Iris</label2>
                        </labels>
                    </clipitem>
                    <clipitem id="2d6e01c1-820e-45a1-a9a3-6545d3d822b2" premiereChannelType="stereo">
                        <masterclipid>masterclip-1</masterclipid>
                        <name>02e06 Source.mp4</name>
                        <enabled>TRUE</enabled>
                        <duration>17008</duration>
                        <rate>
                            <timebase>24</timebase>
                            <ntsc>FALSE</ntsc>
                        </rate>
                        <start>4555</start>
                        <end>4576</end>
                        <in>13789</in>
                        <out>13810</out>
                        <file id="file-5"/>
                        <sourcetrack>
                            <mediatype>audio</mediatype>
                            <trackindex>1</trackindex>
                        </sourcetrack>
                        <labels>
                            <label2>Iris</label2>
                        </labels>
                    </clipitem>
                    <clipitem id="60cf8677-ea8e-4fb2-a4aa-fd2a20fae8c0" premiereChannelType="stereo">
                        <masterclipid>masterclip-1</masterclipid>
                        <name>02e06 Source.mp4</name>
                        <enabled>TRUE</enabled>
                        <duration>17008</duration>
                        <rate>
                            <timebase>24</timebase>
                            <ntsc>FALSE</ntsc>
                        </rate>
                        <start>4576</start>
                        <end>4589</end>
                        <in>13811</in>
                        <out>13824</out>
                        <file id="file-5"/>
                        <sourcetrack>
                            <mediatype>audio</mediatype>
                            <trackindex>1</trackindex>
                        </sourcetrack>
                        <labels>
                            <label2>Iris</label2>
                        </labels>
                    </clipitem>
                    <clipitem id="17f0ef0b-6b0f-40c4-8c47-474dcd82e21a" premiereChannelType="stereo">
                        <masterclipid>masterclip-1</masterclipid>
                        <name>02e06 Source.mp4</name>
                        <enabled>TRUE</enabled>
                        <duration>17008</duration>
                        <rate>
                            <timebase>24</timebase>
                            <ntsc>FALSE</ntsc>
                        </rate>
                        <start>4589</start>
                        <end>4684</end>
                        <in>13949</in>
                        <out>14044</out>
                        <file id="file-5"/>
                        <sourcetrack>
                            <mediatype>audio</mediatype>
                            <trackindex>1</trackindex>
                        </sourcetrack>
                        <labels>
                            <label2>Iris</label2>
                        </labels>
                    </clipitem>
                    <clipitem id="1c6b54c9-a5dc-435d-b413-343338ed3ded" premiereChannelType="stereo">
                        <masterclipid>masterclip-1</masterclipid>
                        <name>02e06 Source.mp4</name>
                        <enabled>TRUE</enabled>
                        <duration>17008</duration>
                        <rate>
                            <timebase>24</timebase>
                            <ntsc>FALSE</ntsc>
                        </rate>
                        <start>4684</start>
                        <end>4699</end>
                        <in>14051</in>
                        <out>14066</out>
                        <file id="file-5"/>
                        <sourcetrack>
                            <mediatype>audio</mediatype>
                            <trackindex>1</trackindex>
                        </sourcetrack>
                        <labels>
                            <label2>Iris</label2>
                        </labels>
                    </clipitem>
                    <clipitem id="6f87f74b-8a91-4db3-a98f-98526d4833eb" premiereChannelType="stereo">
                        <masterclipid>masterclip-1</masterclipid>
                        <name>02e06 Source.mp4</name>
                        <enabled>TRUE</enabled>
                        <duration>17008</duration>
                        <rate>
                            <timebase>24</timebase>
                            <ntsc>FALSE</ntsc>
                        </rate>
                        <start>4699</start>
                        <end>4749</end>
                        <in>14066</in>
                        <out>14116</out>
                        <file id="file-5"/>
                        <sourcetrack>
                            <mediatype>audio</mediatype>
                            <trackindex>1</trackindex>
                        </sourcetrack>
                        <labels>
                            <label2>Iris</label2>
                        </labels>
                    </clipitem>
                    <clipitem id="b76048e1-7f75-4e1f-96bf-2616f724ba6c" premiereChannelType="stereo">
                        <masterclipid>masterclip-1</masterclipid>
                        <name>02e06 Source.mp4</name>
                        <enabled>TRUE</enabled>
                        <duration>17008</duration>
                        <rate>
                            <timebase>24</timebase>
                            <ntsc>FALSE</ntsc>
                        </rate>
                        <start>4749</start>
                        <end>4781</end>
                        <in>14118</in>
                        <out>14150</out>
                        <file id="file-5"/>
                        <sourcetrack>
                            <mediatype>audio</mediatype>
                            <trackindex>1</trackindex>
                        </sourcetrack>
                        <labels>
                            <label2>Iris</label2>
                        </labels>
                    </clipitem>
                    <clipitem id="7ad7e0a8-88a0-4fa5-8135-539434bb13ee" premiereChannelType="stereo">
                        <masterclipid>masterclip-1</masterclipid>
                        <name>02e06 Source.mp4</name>
                        <enabled>TRUE</enabled>
                        <duration>17008</duration>
                        <rate>
                            <timebase>24</timebase>
                            <ntsc>FALSE</ntsc>
                        </rate>
                        <start>4781</start>
                        <end>4796</end>
                        <in>14152</in>
                        <out>14167</out>
                        <file id="file-5"/>
                        <sourcetrack>
                            <mediatype>audio</mediatype>
                            <trackindex>1</trackindex>
                        </sourcetrack>
                        <labels>
                            <label2>Iris</label2>
                        </labels>
                    </clipitem>
                    <clipitem id="01e0c065-c645-4196-b9a2-3e82d59b0a0b" premiereChannelType="stereo">
                        <masterclipid>masterclip-1</masterclipid>
                        <name>02e06 Source.mp4</name>
                        <enabled>TRUE</enabled>
                        <duration>17008</duration>
                        <rate>
                            <timebase>24</timebase>
                            <ntsc>FALSE</ntsc>
                        </rate>
                        <start>4796</start>
                        <end>4829</end>
                        <in>14186</in>
                        <out>14219</out>
                        <file id="file-5"/>
                        <sourcetrack>
                            <mediatype>audio</mediatype>
                            <trackindex>1</trackindex>
                        </sourcetrack>
                        <labels>
                            <label2>Iris</label2>
                        </labels>
                    </clipitem>
                    <clipitem id="4d40d3b9-f8f8-4bea-90f3-0c7b039280ae" premiereChannelType="stereo">
                        <masterclipid>masterclip-1</masterclipid>
                        <name>02e06 Source.mp4</name>
                        <enabled>TRUE</enabled>
                        <duration>17008</duration>
                        <rate>
                            <timebase>24</timebase>
                            <ntsc>FALSE</ntsc>
                        </rate>
                        <start>4829</start>
                        <end>4848</end>
                        <in>14278</in>
                        <out>14297</out>
                        <file id="file-5"/>
                        <sourcetrack>
                            <mediatype>audio</mediatype>
                            <trackindex>1</trackindex>
                        </sourcetrack>
                        <labels>
                            <label2>Iris</label2>
                        </labels>
                    </clipitem>
                    <clipitem id="323b3d86-abaf-4b6f-b03d-56d454f54129" premiereChannelType="stereo">
                        <masterclipid>masterclip-1</masterclipid>
                        <name>02e06 Source.mp4</name>
                        <enabled>TRUE</enabled>
                        <duration>17008</duration>
                        <rate>
                            <timebase>24</timebase>
                            <ntsc>FALSE</ntsc>
                        </rate>
                        <start>4848</start>
                        <end>4878</end>
                        <in>14297</in>
                        <out>14327</out>
                        <file id="file-5"/>
                        <sourcetrack>
                            <mediatype>audio</mediatype>
                            <trackindex>1</trackindex>
                        </sourcetrack>
                        <labels>
                            <label2>Iris</label2>
                        </labels>
                    </clipitem>
                    <clipitem id="7879723b-8cc7-4481-a7f8-cb8bbb5c606d" premiereChannelType="stereo">
                        <masterclipid>masterclip-1</masterclipid>
                        <name>02e06 Source.mp4</name>
                        <enabled>TRUE</enabled>
                        <duration>17008</duration>
                        <rate>
                            <timebase>24</timebase>
                            <ntsc>FALSE</ntsc>
                        </rate>
                        <start>4878</start>
                        <end>4896</end>
                        <in>14329</in>
                        <out>14347</out>
                        <file id="file-5"/>
                        <sourcetrack>
                            <mediatype>audio</mediatype>
                            <trackindex>1</trackindex>
                        </sourcetrack>
                        <labels>
                            <label2>Iris</label2>
                        </labels>
                    </clipitem>
                    <clipitem id="ccb90434-8200-43fb-aea0-31e9467a2546" premiereChannelType="stereo">
                        <masterclipid>masterclip-1</masterclipid>
                        <name>02e06 Source.mp4</name>
                        <enabled>TRUE</enabled>
                        <duration>17008</duration>
                        <rate>
                            <timebase>24</timebase>
                            <ntsc>FALSE</ntsc>
                        </rate>
                        <start>4896</start>
                        <end>4908</end>
                        <in>14363</in>
                        <out>14375</out>
                        <file id="file-5"/>
                        <sourcetrack>
                            <mediatype>audio</mediatype>
                            <trackindex>1</trackindex>
                        </sourcetrack>
                        <labels>
                            <label2>Iris</label2>
                        </labels>
                    </clipitem>
                    <clipitem id="656ee9cb-f5e1-4a79-85cd-ed84f5e4d2ab" premiereChannelType="stereo">
                        <masterclipid>masterclip-1</masterclipid>
                        <name>02e06 Source.mp4</name>
                        <enabled>TRUE</enabled>
                        <duration>17008</duration>
                        <rate>
                            <timebase>24</timebase>
                            <ntsc>FALSE</ntsc>
                        </rate>
                        <start>4908</start>
                        <end>4929</end>
                        <in>14376</in>
                        <out>14397</out>
                        <file id="file-5"/>
                        <sourcetrack>
                            <mediatype>audio</mediatype>
                            <trackindex>1</trackindex>
                        </sourcetrack>
                        <labels>
                            <label2>Iris</label2>
                        </labels>
                    </clipitem>
                    <clipitem id="a2d3cd49-6486-4606-8bf0-c8253d3d4f93" premiereChannelType="stereo">
                        <masterclipid>masterclip-1</masterclipid>
                        <name>02e06 Source.mp4</name>
                        <enabled>TRUE</enabled>
                        <duration>17008</duration>
                        <rate>
                            <timebase>24</timebase>
                            <ntsc>FALSE</ntsc>
                        </rate>
                        <start>4929</start>
                        <end>4944</end>
                        <in>14752</in>
                        <out>14767</out>
                        <file id="file-5"/>
                        <sourcetrack>
                            <mediatype>audio</mediatype>
                            <trackindex>1</trackindex>
                        </sourcetrack>
                        <labels>
                            <label2>Iris</label2>
                        </labels>
                    </clipitem>
                    <clipitem id="f80bbf1a-e873-46e5-adfd-6a0bb6602672" premiereChannelType="stereo">
                        <masterclipid>masterclip-1</masterclipid>
                        <name>02e06 Source.mp4</name>
                        <enabled>TRUE</enabled>
                        <duration>17008</duration>
                        <rate>
                            <timebase>24</timebase>
                            <ntsc>FALSE</ntsc>
                        </rate>
                        <start>4944</start>
                        <end>4969</end>
                        <in>14767</in>
                        <out>14792</out>
                        <file id="file-5"/>
                        <sourcetrack>
                            <mediatype>audio</mediatype>
                            <trackindex>1</trackindex>
                        </sourcetrack>
                        <labels>
                            <label2>Iris</label2>
                        </labels>
                    </clipitem>
                    <clipitem id="a9d30546-4b0d-4ffe-9a31-4838e0aba505" premiereChannelType="stereo">
                        <masterclipid>masterclip-1</masterclipid>
                        <name>02e06 Source.mp4</name>
                        <enabled>TRUE</enabled>
                        <duration>17008</duration>
                        <rate>
                            <timebase>24</timebase>
                            <ntsc>FALSE</ntsc>
                        </rate>
                        <start>4969</start>
                        <end>5034</end>
                        <in>14820</in>
                        <out>14885</out>
                        <file id="file-5"/>
                        <sourcetrack>
                            <mediatype>audio</mediatype>
                            <trackindex>1</trackindex>
                        </sourcetrack>
                        <labels>
                            <label2>Iris</label2>
                        </labels>
                    </clipitem>
                    <clipitem id="9579c91e-1933-4396-8c06-027e00af010a" premiereChannelType="stereo">
                        <masterclipid>masterclip-1</masterclipid>
                        <name>02e06 Source.mp4</name>
                        <enabled>TRUE</enabled>
                        <duration>17008</duration>
                        <rate>
                            <timebase>24</timebase>
                            <ntsc>FALSE</ntsc>
                        </rate>
                        <start>5034</start>
                        <end>5093</end>
                        <in>14887</in>
                        <out>14946</out>
                        <file id="file-5"/>
                        <sourcetrack>
                            <mediatype>audio</mediatype>
                            <trackindex>1</trackindex>
                        </sourcetrack>
                        <labels>
                            <label2>Iris</label2>
                        </labels>
                    </clipitem>
                    <clipitem id="748cb644-d1ac-407f-9fd1-d9c781befb11" premiereChannelType="stereo">
                        <masterclipid>masterclip-1</masterclipid>
                        <name>02e06 Source.mp4</name>
                        <enabled>TRUE</enabled>
                        <duration>17008</duration>
                        <rate>
                            <timebase>24</timebase>
                            <ntsc>FALSE</ntsc>
                        </rate>
                        <start>5093</start>
                        <end>5175</end>
                        <in>14949</in>
                        <out>15031</out>
                        <file id="file-5"/>
                        <sourcetrack>
                            <mediatype>audio</mediatype>
                            <trackindex>1</trackindex>
                        </sourcetrack>
                        <labels>
                            <label2>Iris</label2>
                        </labels>
                    </clipitem>
                    <clipitem id="5ef2d6ea-629c-409d-83ca-74d80a57e475" premiereChannelType="stereo">
                        <masterclipid>masterclip-1</masterclipid>
                        <name>02e06 Source.mp4</name>
                        <enabled>TRUE</enabled>
                        <duration>17008</duration>
                        <rate>
                            <timebase>24</timebase>
                            <ntsc>FALSE</ntsc>
                        </rate>
                        <start>5175</start>
                        <end>5187</end>
                        <in>15035</in>
                        <out>15047</out>
                        <file id="file-5"/>
                        <sourcetrack>
                            <mediatype>audio</mediatype>
                            <trackindex>1</trackindex>
                        </sourcetrack>
                        <labels>
                            <label2>Iris</label2>
                        </labels>
                    </clipitem>
                    <clipitem id="219d9bc1-a474-4219-927c-8c871aa7a53f" premiereChannelType="stereo">
                        <masterclipid>masterclip-1</masterclipid>
                        <name>02e06 Source.mp4</name>
                        <enabled>TRUE</enabled>
                        <duration>17008</duration>
                        <rate>
                            <timebase>24</timebase>
                            <ntsc>FALSE</ntsc>
                        </rate>
                        <start>5187</start>
                        <end>5202</end>
                        <in>15046</in>
                        <out>15061</out>
                        <file id="file-5"/>
                        <sourcetrack>
                            <mediatype>audio</mediatype>
                            <trackindex>1</trackindex>
                        </sourcetrack>
                        <labels>
                            <label2>Iris</label2>
                        </labels>
                    </clipitem>
                    <clipitem id="85c41820-683d-432f-9294-b1379969b0bb" premiereChannelType="stereo">
                        <masterclipid>masterclip-1</masterclipid>
                        <name>02e06 Source.mp4</name>
                        <enabled>TRUE</enabled>
                        <duration>17008</duration>
                        <rate>
                            <timebase>24</timebase>
                            <ntsc>FALSE</ntsc>
                        </rate>
                        <start>5202</start>
                        <end>5216</end>
                        <in>15068</in>
                        <out>15082</out>
                        <file id="file-5"/>
                        <sourcetrack>
                            <mediatype>audio</mediatype>
                            <trackindex>1</trackindex>
                        </sourcetrack>
                        <labels>
                            <label2>Iris</label2>
                        </labels>
                    </clipitem>
                    <clipitem id="cafe1586-c633-4257-9bea-a1116c0ac43d" premiereChannelType="stereo">
                        <masterclipid>masterclip-1</masterclipid>
                        <name>02e06 Source.mp4</name>
                        <enabled>TRUE</enabled>
                        <duration>17008</duration>
                        <rate>
                            <timebase>24</timebase>
                            <ntsc>FALSE</ntsc>
                        </rate>
                        <start>5216</start>
                        <end>5250</end>
                        <in>15300</in>
                        <out>15334</out>
                        <file id="file-5"/>
                        <sourcetrack>
                            <mediatype>audio</mediatype>
                            <trackindex>1</trackindex>
                        </sourcetrack>
                        <labels>
                            <label2>Iris</label2>
                        </labels>
                    </clipitem>
                    <clipitem id="22c3d757-3458-49c3-8043-316d07c31276" premiereChannelType="stereo">
                        <masterclipid>masterclip-1</masterclipid>
                        <name>02e06 Source.mp4</name>
                        <enabled>TRUE</enabled>
                        <duration>17008</duration>
                        <rate>
                            <timebase>24</timebase>
                            <ntsc>FALSE</ntsc>
                        </rate>
                        <start>5250</start>
                        <end>5288</end>
                        <in>15518</in>
                        <out>15556</out>
                        <file id="file-5"/>
                        <sourcetrack>
                            <mediatype>audio</mediatype>
                            <trackindex>1</trackindex>
                        </sourcetrack>
                        <labels>
                            <label2>Iris</label2>
                        </labels>
                    </clipitem>
                    <clipitem id="78d34224-1642-4acc-a033-c7b2ab126bf2" premiereChannelType="stereo">
                        <masterclipid>masterclip-1</masterclipid>
                        <name>02e06 Source.mp4</name>
                        <enabled>TRUE</enabled>
                        <duration>17008</duration>
                        <rate>
                            <timebase>24</timebase>
                            <ntsc>FALSE</ntsc>
                        </rate>
                        <start>5288</start>
                        <end>5360</end>
                        <in>15558</in>
                        <out>15630</out>
                        <file id="file-5"/>
                        <sourcetrack>
                            <mediatype>audio</mediatype>
                            <trackindex>1</trackindex>
                        </sourcetrack>
                        <labels>
                            <label2>Iris</label2>
                        </labels>
                    </clipitem>
                    <clipitem id="6aa2c359-92d6-4458-8782-91081a4d5d44" premiereChannelType="stereo">
                        <masterclipid>masterclip-1</masterclipid>
                        <name>02e06 Source.mp4</name>
                        <enabled>TRUE</enabled>
                        <duration>17008</duration>
                        <rate>
                            <timebase>24</timebase>
                            <ntsc>FALSE</ntsc>
                        </rate>
                        <start>5360</start>
                        <end>5371</end>
                        <in>15633</in>
                        <out>15644</out>
                        <file id="file-5"/>
                        <sourcetrack>
                            <mediatype>audio</mediatype>
                            <trackindex>1</trackindex>
                        </sourcetrack>
                        <labels>
                            <label2>Iris</label2>
                        </labels>
                    </clipitem>
                    <clipitem id="789a2e79-17b2-4305-85a2-d9cd1f3ab3fb" premiereChannelType="stereo">
                        <masterclipid>masterclip-1</masterclipid>
                        <name>02e06 Source.mp4</name>
                        <enabled>TRUE</enabled>
                        <duration>17008</duration>
                        <rate>
                            <timebase>24</timebase>
                            <ntsc>FALSE</ntsc>
                        </rate>
                        <start>5371</start>
                        <end>5410</end>
                        <in>15644</in>
                        <out>15683</out>
                        <file id="file-5"/>
                        <sourcetrack>
                            <mediatype>audio</mediatype>
                            <trackindex>1</trackindex>
                        </sourcetrack>
                        <labels>
                            <label2>Iris</label2>
                        </labels>
                    </clipitem>

                    <enabled>TRUE</enabled>
                    <locked>FALSE</locked>
                    <outputchannelindex>1</outputchannelindex>
                </track>
                <track TL.SQTrackAudioKeyframeStyle="0" TL.SQTrackShy="0" TL.SQTrackExpandedHeight="25"
                       TL.SQTrackExpanded="0" MZ.TrackTargeted="1" PannerCurrentValue="0.5" PannerIsInverted="true"
                       PannerStartKeyframe="-91445760000000000,0.5,0,0,0,0,0,0" PannerName="骞宠　"
                       currentExplodedTrackIndex="0" totalExplodedTrackCount="2" premiereTrackType="Stereo">

                    <clipitem id="318e33a2-d6e0-4b87-92f0-b2d4dc3f5889" premiereChannelType="stereo">
                        <masterclipid>masterclip-1</masterclipid>
                        <name>02e06 Source.mp4</name>
                        <enabled>TRUE</enabled>
                        <duration>17008</duration>
                        <rate>
                            <timebase>24</timebase>
                            <ntsc>FALSE</ntsc>
                        </rate>
                        <start>1</start>
                        <end>27</end>
                        <in>1737</in>
                        <out>1763</out>
                        <file id="file-5">
                            <name>02e06 Source.mp4</name>
                            <pathurl>file://localhost/E%3A/data/02e06%20Source.mp4</pathurl>
                            <rate>
                                <timebase>24</timebase>
                                <ntsc>FALSE</ntsc>
                            </rate>
                            <duration>17008</duration>
                            <timecode>
                                <rate>
                                    <timebase>24</timebase>
                                    <ntsc>FALSE</ntsc>
                                </rate>
                                <string>00:00:00:00</string>
                                <frame>0</frame>
                                <displayformat>NDF</displayformat>
                            </timecode>
                            <media>
                                <video>
                                    <samplecharacteristics>
                                        <rate>
                                            <timebase>24</timebase>
                                            <ntsc>FALSE</ntsc>
                                        </rate>
                                        <width>1920</width>
                                        <height>1080</height>
                                        <anamorphic>FALSE</anamorphic>
                                        <pixelaspectratio>square</pixelaspectratio>
                                        <fielddominance>none</fielddominance>
                                    </samplecharacteristics>
                                </video>
                                <audio>
                                    <samplecharacteristics>
                                        <depth>16</depth>
                                        <samplerate>48000</samplerate>
                                    </samplecharacteristics>
                                    <channelcount>2</channelcount>
                                </audio>
                            </media>
                        </file>
                        <sourcetrack>
                            <mediatype>audio</mediatype>
                            <trackindex>2</trackindex>
                        </sourcetrack>
                        <labels>
                            <label2>Iris</label2>
                        </labels>
                    </clipitem>
                    <clipitem id="5862b8ed-d0d1-42dc-baaa-d4d239beec58" premiereChannelType="stereo">
                        <masterclipid>masterclip-1</masterclipid>
                        <name>02e06 Source.mp4</name>
                        <enabled>TRUE</enabled>
                        <duration>17008</duration>
                        <rate>
                            <timebase>24</timebase>
                            <ntsc>FALSE</ntsc>
                        </rate>
                        <start>27</start>
                        <end>38</end>
                        <in>1764</in>
                        <out>1775</out>
                        <file id="file-5"/>
                        <sourcetrack>
                            <mediatype>audio</mediatype>
                            <trackindex>2</trackindex>
                        </sourcetrack>
                        <labels>
                            <label2>Iris</label2>
                        </labels>
                    </clipitem>
                    <clipitem id="66cb4e1c-0b2a-4322-8b0d-0ae5bdc3a8ad" premiereChannelType="stereo">
                        <masterclipid>masterclip-1</masterclipid>
                        <name>02e06 Source.mp4</name>
                        <enabled>TRUE</enabled>
                        <duration>17008</duration>
                        <rate>
                            <timebase>24</timebase>
                            <ntsc>FALSE</ntsc>
                        </rate>
                        <start>38</start>
                        <end>100</end>
                        <in>2108</in>
                        <out>2170</out>
                        <file id="file-5"/>
                        <sourcetrack>
                            <mediatype>audio</mediatype>
                            <trackindex>2</trackindex>
                        </sourcetrack>
                        <labels>
                            <label2>Iris</label2>
                        </labels>
                    </clipitem>
                    <clipitem id="6d81a046-67f4-48a3-a628-dfeffbbe35d5" premiereChannelType="stereo">
                        <masterclipid>masterclip-1</masterclipid>
                        <name>02e06 Source.mp4</name>
                        <enabled>TRUE</enabled>
                        <duration>17008</duration>
                        <rate>
                            <timebase>24</timebase>
                            <ntsc>FALSE</ntsc>
                        </rate>
                        <start>100</start>
                        <end>148</end>
                        <in>2140</in>
                        <out>2188</out>
                        <file id="file-5"/>
                        <sourcetrack>
                            <mediatype>audio</mediatype>
                            <trackindex>2</trackindex>
                        </sourcetrack>
                        <labels>
                            <label2>Iris</label2>
                        </labels>
                    </clipitem>
                    <clipitem id="6b20a8ea-4912-4acf-9334-4edaffa2fcb1" premiereChannelType="stereo">
                        <masterclipid>masterclip-1</masterclipid>
                        <name>02e06 Source.mp4</name>
                        <enabled>TRUE</enabled>
                        <duration>17008</duration>
                        <rate>
                            <timebase>24</timebase>
                            <ntsc>FALSE</ntsc>
                        </rate>
                        <start>148</start>
                        <end>159</end>
                        <in>2190</in>
                        <out>2201</out>
                        <file id="file-5"/>
                        <sourcetrack>
                            <mediatype>audio</mediatype>
                            <trackindex>2</trackindex>
                        </sourcetrack>
                        <labels>
                            <label2>Iris</label2>
                        </labels>
                    </clipitem>
                    <clipitem id="2af2c8a4-e327-426b-9692-c134328a79be" premiereChannelType="stereo">
                        <masterclipid>masterclip-1</masterclipid>
                        <name>02e06 Source.mp4</name>
                        <enabled>TRUE</enabled>
                        <duration>17008</duration>
                        <rate>
                            <timebase>24</timebase>
                            <ntsc>FALSE</ntsc>
                        </rate>
                        <start>159</start>
                        <end>171</end>
                        <in>2306</in>
                        <out>2318</out>
                        <file id="file-5"/>
                        <sourcetrack>
                            <mediatype>audio</mediatype>
                            <trackindex>2</trackindex>
                        </sourcetrack>
                        <labels>
                            <label2>Iris</label2>
                        </labels>
                    </clipitem>
                    <clipitem id="a19a749e-4749-422c-be69-1205efcb85f5" premiereChannelType="stereo">
                        <masterclipid>masterclip-1</masterclipid>
                        <name>02e06 Source.mp4</name>
                        <enabled>TRUE</enabled>
                        <duration>17008</duration>
                        <rate>
                            <timebase>24</timebase>
                            <ntsc>FALSE</ntsc>
                        </rate>
                        <start>171</start>
                        <end>190</end>
                        <in>2318</in>
                        <out>2337</out>
                        <file id="file-5"/>
                        <sourcetrack>
                            <mediatype>audio</mediatype>
                            <trackindex>2</trackindex>
                        </sourcetrack>
                        <labels>
                            <label2>Iris</label2>
                        </labels>
                    </clipitem>
                    <clipitem id="1ba05380-9f2c-41fa-9fae-97d64df13792" premiereChannelType="stereo">
                        <masterclipid>masterclip-1</masterclipid>
                        <name>02e06 Source.mp4</name>
                        <enabled>TRUE</enabled>
                        <duration>17008</duration>
                        <rate>
                            <timebase>24</timebase>
                            <ntsc>FALSE</ntsc>
                        </rate>
                        <start>190</start>
                        <end>236</end>
                        <in>2448</in>
                        <out>2494</out>
                        <file id="file-5"/>
                        <sourcetrack>
                            <mediatype>audio</mediatype>
                            <trackindex>2</trackindex>
                        </sourcetrack>
                        <labels>
                            <label2>Iris</label2>
                        </labels>
                    </clipitem>
                    <clipitem id="93e0f12b-39c2-49c2-95ae-bb3229becd05" premiereChannelType="stereo">
                        <masterclipid>masterclip-1</masterclipid>
                        <name>02e06 Source.mp4</name>
                        <enabled>TRUE</enabled>
                        <duration>17008</duration>
                        <rate>
                            <timebase>24</timebase>
                            <ntsc>FALSE</ntsc>
                        </rate>
                        <start>236</start>
                        <end>259</end>
                        <in>2518</in>
                        <out>2541</out>
                        <file id="file-5"/>
                        <sourcetrack>
                            <mediatype>audio</mediatype>
                            <trackindex>2</trackindex>
                        </sourcetrack>
                        <labels>
                            <label2>Iris</label2>
                        </labels>
                    </clipitem>
                    <clipitem id="1a58e878-ae0e-4fc9-b61d-dd39a098f466" premiereChannelType="stereo">
                        <masterclipid>masterclip-1</masterclipid>
                        <name>02e06 Source.mp4</name>
                        <enabled>TRUE</enabled>
                        <duration>17008</duration>
                        <rate>
                            <timebase>24</timebase>
                            <ntsc>FALSE</ntsc>
                        </rate>
                        <start>259</start>
                        <end>285</end>
                        <in>2546</in>
                        <out>2572</out>
                        <file id="file-5"/>
                        <sourcetrack>
                            <mediatype>audio</mediatype>
                            <trackindex>2</trackindex>
                        </sourcetrack>
                        <labels>
                            <label2>Iris</label2>
                        </labels>
                    </clipitem>
                    <clipitem id="c11c8575-cf77-49ed-88e3-a5b48aa9d57e" premiereChannelType="stereo">
                        <masterclipid>masterclip-1</masterclipid>
                        <name>02e06 Source.mp4</name>
                        <enabled>TRUE</enabled>
                        <duration>17008</duration>
                        <rate>
                            <timebase>24</timebase>
                            <ntsc>FALSE</ntsc>
                        </rate>
                        <start>285</start>
                        <end>316</end>
                        <in>2584</in>
                        <out>2615</out>
                        <file id="file-5"/>
                        <sourcetrack>
                            <mediatype>audio</mediatype>
                            <trackindex>2</trackindex>
                        </sourcetrack>
                        <labels>
                            <label2>Iris</label2>
                        </labels>
                    </clipitem>
                    <clipitem id="c213eeeb-4834-484c-aa72-c4b9e54bb74e" premiereChannelType="stereo">
                        <masterclipid>masterclip-1</masterclipid>
                        <name>02e06 Source.mp4</name>
                        <enabled>TRUE</enabled>
                        <duration>17008</duration>
                        <rate>
                            <timebase>24</timebase>
                            <ntsc>FALSE</ntsc>
                        </rate>
                        <start>316</start>
                        <end>327</end>
                        <in>2619</in>
                        <out>2630</out>
                        <file id="file-5"/>
                        <sourcetrack>
                            <mediatype>audio</mediatype>
                            <trackindex>2</trackindex>
                        </sourcetrack>
                        <labels>
                            <label2>Iris</label2>
                        </labels>
                    </clipitem>
                    <clipitem id="8a20e186-1817-4c9c-af46-3ccd0e1c8714" premiereChannelType="stereo">
                        <masterclipid>masterclip-1</masterclipid>
                        <name>02e06 Source.mp4</name>
                        <enabled>TRUE</enabled>
                        <duration>17008</duration>
                        <rate>
                            <timebase>24</timebase>
                            <ntsc>FALSE</ntsc>
                        </rate>
                        <start>327</start>
                        <end>339</end>
                        <in>3137</in>
                        <out>3149</out>
                        <file id="file-5"/>
                        <sourcetrack>
                            <mediatype>audio</mediatype>
                            <trackindex>2</trackindex>
                        </sourcetrack>
                        <labels>
                            <label2>Iris</label2>
                        </labels>
                    </clipitem>
                    <clipitem id="84903f21-bdd4-4e23-a3fc-ab68f27a6ba5" premiereChannelType="stereo">
                        <masterclipid>masterclip-1</masterclipid>
                        <name>02e06 Source.mp4</name>
                        <enabled>TRUE</enabled>
                        <duration>17008</duration>
                        <rate>
                            <timebase>24</timebase>
                            <ntsc>FALSE</ntsc>
                        </rate>
                        <start>339</start>
                        <end>412</end>
                        <in>3150</in>
                        <out>3223</out>
                        <file id="file-5"/>
                        <sourcetrack>
                            <mediatype>audio</mediatype>
                            <trackindex>2</trackindex>
                        </sourcetrack>
                        <labels>
                            <label2>Iris</label2>
                        </labels>
                    </clipitem>
                    <clipitem id="d2cbbef9-cca6-4887-be05-0fbf17eb040e" premiereChannelType="stereo">
                        <masterclipid>masterclip-1</masterclipid>
                        <name>02e06 Source.mp4</name>
                        <enabled>TRUE</enabled>
                        <duration>17008</duration>
                        <rate>
                            <timebase>24</timebase>
                            <ntsc>FALSE</ntsc>
                        </rate>
                        <start>412</start>
                        <end>465</end>
                        <in>3226</in>
                        <out>3279</out>
                        <file id="file-5"/>
                        <sourcetrack>
                            <mediatype>audio</mediatype>
                            <trackindex>2</trackindex>
                        </sourcetrack>
                        <labels>
                            <label2>Iris</label2>
                        </labels>
                    </clipitem>
                    <clipitem id="d24cc287-56be-4b33-8d3d-1e7320bccb13" premiereChannelType="stereo">
                        <masterclipid>masterclip-1</masterclipid>
                        <name>02e06 Source.mp4</name>
                        <enabled>TRUE</enabled>
                        <duration>17008</duration>
                        <rate>
                            <timebase>24</timebase>
                            <ntsc>FALSE</ntsc>
                        </rate>
                        <start>465</start>
                        <end>521</end>
                        <in>3450</in>
                        <out>3506</out>
                        <file id="file-5"/>
                        <sourcetrack>
                            <mediatype>audio</mediatype>
                            <trackindex>2</trackindex>
                        </sourcetrack>
                        <labels>
                            <label2>Iris</label2>
                        </labels>
                    </clipitem>
                    <clipitem id="348d0ded-ae78-4a37-bafe-20340fa0793b" premiereChannelType="stereo">
                        <masterclipid>masterclip-1</masterclipid>
                        <name>02e06 Source.mp4</name>
                        <enabled>TRUE</enabled>
                        <duration>17008</duration>
                        <rate>
                            <timebase>24</timebase>
                            <ntsc>FALSE</ntsc>
                        </rate>
                        <start>521</start>
                        <end>544</end>
                        <in>3394</in>
                        <out>3417</out>
                        <file id="file-5"/>
                        <sourcetrack>
                            <mediatype>audio</mediatype>
                            <trackindex>2</trackindex>
                        </sourcetrack>
                        <labels>
                            <label2>Iris</label2>
                        </labels>
                    </clipitem>
                    <clipitem id="6bfd3459-3a3a-4ba1-958a-bc3668b3365a" premiereChannelType="stereo">
                        <masterclipid>masterclip-1</masterclipid>
                        <name>02e06 Source.mp4</name>
                        <enabled>TRUE</enabled>
                        <duration>17008</duration>
                        <rate>
                            <timebase>24</timebase>
                            <ntsc>FALSE</ntsc>
                        </rate>
                        <start>544</start>
                        <end>555</end>
                        <in>3433</in>
                        <out>3444</out>
                        <file id="file-5"/>
                        <sourcetrack>
                            <mediatype>audio</mediatype>
                            <trackindex>2</trackindex>
                        </sourcetrack>
                        <labels>
                            <label2>Iris</label2>
                        </labels>
                    </clipitem>
                    <clipitem id="ce302946-8f04-492e-9934-f9af096d08b3" premiereChannelType="stereo">
                        <masterclipid>masterclip-1</masterclipid>
                        <name>02e06 Source.mp4</name>
                        <enabled>TRUE</enabled>
                        <duration>17008</duration>
                        <rate>
                            <timebase>24</timebase>
                            <ntsc>FALSE</ntsc>
                        </rate>
                        <start>555</start>
                        <end>567</end>
                        <in>3518</in>
                        <out>3530</out>
                        <file id="file-5"/>
                        <sourcetrack>
                            <mediatype>audio</mediatype>
                            <trackindex>2</trackindex>
                        </sourcetrack>
                        <labels>
                            <label2>Iris</label2>
                        </labels>
                    </clipitem>
                    <clipitem id="2f8dd2fe-d4e7-495c-a536-de55eb30c82e" premiereChannelType="stereo">
                        <masterclipid>masterclip-1</masterclipid>
                        <name>02e06 Source.mp4</name>
                        <enabled>TRUE</enabled>
                        <duration>17008</duration>
                        <rate>
                            <timebase>24</timebase>
                            <ntsc>FALSE</ntsc>
                        </rate>
                        <start>567</start>
                        <end>578</end>
                        <in>3530</in>
                        <out>3541</out>
                        <file id="file-5"/>
                        <sourcetrack>
                            <mediatype>audio</mediatype>
                            <trackindex>2</trackindex>
                        </sourcetrack>
                        <labels>
                            <label2>Iris</label2>
                        </labels>
                    </clipitem>
                    <clipitem id="bcf660e9-00c3-4906-9327-be61f158326c" premiereChannelType="stereo">
                        <masterclipid>masterclip-1</masterclipid>
                        <name>02e06 Source.mp4</name>
                        <enabled>TRUE</enabled>
                        <duration>17008</duration>
                        <rate>
                            <timebase>24</timebase>
                            <ntsc>FALSE</ntsc>
                        </rate>
                        <start>578</start>
                        <end>589</end>
                        <in>3542</in>
                        <out>3553</out>
                        <file id="file-5"/>
                        <sourcetrack>
                            <mediatype>audio</mediatype>
                            <trackindex>2</trackindex>
                        </sourcetrack>
                        <labels>
                            <label2>Iris</label2>
                        </labels>
                    </clipitem>
                    <clipitem id="b99251e9-da62-4b3d-9a8b-6f874d51e5c1" premiereChannelType="stereo">
                        <masterclipid>masterclip-1</masterclipid>
                        <name>02e06 Source.mp4</name>
                        <enabled>TRUE</enabled>
                        <duration>17008</duration>
                        <rate>
                            <timebase>24</timebase>
                            <ntsc>FALSE</ntsc>
                        </rate>
                        <start>589</start>
                        <end>600</end>
                        <in>3553</in>
                        <out>3564</out>
                        <file id="file-5"/>
                        <sourcetrack>
                            <mediatype>audio</mediatype>
                            <trackindex>2</trackindex>
                        </sourcetrack>
                        <labels>
                            <label2>Iris</label2>
                        </labels>
                    </clipitem>
                    <clipitem id="1cabc549-e293-43b8-930a-13bdc1f627fc" premiereChannelType="stereo">
                        <masterclipid>masterclip-1</masterclipid>
                        <name>02e06 Source.mp4</name>
                        <enabled>TRUE</enabled>
                        <duration>17008</duration>
                        <rate>
                            <timebase>24</timebase>
                            <ntsc>FALSE</ntsc>
                        </rate>
                        <start>600</start>
                        <end>623</end>
                        <in>3564</in>
                        <out>3587</out>
                        <file id="file-5"/>
                        <sourcetrack>
                            <mediatype>audio</mediatype>
                            <trackindex>2</trackindex>
                        </sourcetrack>
                        <labels>
                            <label2>Iris</label2>
                        </labels>
                    </clipitem>
                    <clipitem id="b92d0fcc-7ee1-44b2-82af-0e3d5c7812e1" premiereChannelType="stereo">
                        <masterclipid>masterclip-1</masterclipid>
                        <name>02e06 Source.mp4</name>
                        <enabled>TRUE</enabled>
                        <duration>17008</duration>
                        <rate>
                            <timebase>24</timebase>
                            <ntsc>FALSE</ntsc>
                        </rate>
                        <start>623</start>
                        <end>660</end>
                        <in>3677</in>
                        <out>3714</out>
                        <file id="file-5"/>
                        <sourcetrack>
                            <mediatype>audio</mediatype>
                            <trackindex>2</trackindex>
                        </sourcetrack>
                        <labels>
                            <label2>Iris</label2>
                        </labels>
                    </clipitem>
                    <clipitem id="257eb4e4-9b80-4791-819e-715ab135519d" premiereChannelType="stereo">
                        <masterclipid>masterclip-1</masterclipid>
                        <name>02e06 Source.mp4</name>
                        <enabled>TRUE</enabled>
                        <duration>17008</duration>
                        <rate>
                            <timebase>24</timebase>
                            <ntsc>FALSE</ntsc>
                        </rate>
                        <start>660</start>
                        <end>700</end>
                        <in>3716</in>
                        <out>3756</out>
                        <file id="file-5"/>
                        <sourcetrack>
                            <mediatype>audio</mediatype>
                            <trackindex>2</trackindex>
                        </sourcetrack>
                        <labels>
                            <label2>Iris</label2>
                        </labels>
                    </clipitem>
                    <clipitem id="83065cdb-6062-4870-9c66-8f2ebecc4a12" premiereChannelType="stereo">
                        <masterclipid>masterclip-1</masterclipid>
                        <name>02e06 Source.mp4</name>
                        <enabled>TRUE</enabled>
                        <duration>17008</duration>
                        <rate>
                            <timebase>24</timebase>
                            <ntsc>FALSE</ntsc>
                        </rate>
                        <start>700</start>
                        <end>711</end>
                        <in>3758</in>
                        <out>3769</out>
                        <file id="file-5"/>
                        <sourcetrack>
                            <mediatype>audio</mediatype>
                            <trackindex>2</trackindex>
                        </sourcetrack>
                        <labels>
                            <label2>Iris</label2>
                        </labels>
                    </clipitem>
                    <clipitem id="6c201268-6b02-412b-8795-bd5746e7aed8" premiereChannelType="stereo">
                        <masterclipid>masterclip-1</masterclipid>
                        <name>02e06 Source.mp4</name>
                        <enabled>TRUE</enabled>
                        <duration>17008</duration>
                        <rate>
                            <timebase>24</timebase>
                            <ntsc>FALSE</ntsc>
                        </rate>
                        <start>711</start>
                        <end>832</end>
                        <in>3769</in>
                        <out>3890</out>
                        <file id="file-5"/>
                        <sourcetrack>
                            <mediatype>audio</mediatype>
                            <trackindex>2</trackindex>
                        </sourcetrack>
                        <labels>
                            <label2>Iris</label2>
                        </labels>
                    </clipitem>
                    <clipitem id="1d6faef3-83db-4e4c-af3c-2bc06817d1ea" premiereChannelType="stereo">
                        <masterclipid>masterclip-1</masterclipid>
                        <name>02e06 Source.mp4</name>
                        <enabled>TRUE</enabled>
                        <duration>17008</duration>
                        <rate>
                            <timebase>24</timebase>
                            <ntsc>FALSE</ntsc>
                        </rate>
                        <start>832</start>
                        <end>844</end>
                        <in>3900</in>
                        <out>3912</out>
                        <file id="file-5"/>
                        <sourcetrack>
                            <mediatype>audio</mediatype>
                            <trackindex>2</trackindex>
                        </sourcetrack>
                        <labels>
                            <label2>Iris</label2>
                        </labels>
                    </clipitem>
                    <clipitem id="4c99785c-fd43-4fdc-8f9a-9874d1f98834" premiereChannelType="stereo">
                        <masterclipid>masterclip-1</masterclipid>
                        <name>02e06 Source.mp4</name>
                        <enabled>TRUE</enabled>
                        <duration>17008</duration>
                        <rate>
                            <timebase>24</timebase>
                            <ntsc>FALSE</ntsc>
                        </rate>
                        <start>844</start>
                        <end>855</end>
                        <in>3908</in>
                        <out>3919</out>
                        <file id="file-5"/>
                        <sourcetrack>
                            <mediatype>audio</mediatype>
                            <trackindex>2</trackindex>
                        </sourcetrack>
                        <labels>
                            <label2>Iris</label2>
                        </labels>
                    </clipitem>
                    <clipitem id="309b9c8e-ab2b-486a-a0d7-7d76b1606020" premiereChannelType="stereo">
                        <masterclipid>masterclip-1</masterclipid>
                        <name>02e06 Source.mp4</name>
                        <enabled>TRUE</enabled>
                        <duration>17008</duration>
                        <rate>
                            <timebase>24</timebase>
                            <ntsc>FALSE</ntsc>
                        </rate>
                        <start>855</start>
                        <end>906</end>
                        <in>3919</in>
                        <out>3970</out>
                        <file id="file-5"/>
                        <sourcetrack>
                            <mediatype>audio</mediatype>
                            <trackindex>2</trackindex>
                        </sourcetrack>
                        <labels>
                            <label2>Iris</label2>
                        </labels>
                    </clipitem>
                    <clipitem id="8d5b45a0-3689-4461-a5aa-967c07ca32ce" premiereChannelType="stereo">
                        <masterclipid>masterclip-1</masterclipid>
                        <name>02e06 Source.mp4</name>
                        <enabled>TRUE</enabled>
                        <duration>17008</duration>
                        <rate>
                            <timebase>24</timebase>
                            <ntsc>FALSE</ntsc>
                        </rate>
                        <start>906</start>
                        <end>924</end>
                        <in>3974</in>
                        <out>3992</out>
                        <file id="file-5"/>
                        <sourcetrack>
                            <mediatype>audio</mediatype>
                            <trackindex>2</trackindex>
                        </sourcetrack>
                        <labels>
                            <label2>Iris</label2>
                        </labels>
                    </clipitem>
                    <clipitem id="55153851-6bab-4622-a3f7-a91b541145ad" premiereChannelType="stereo">
                        <masterclipid>masterclip-1</masterclipid>
                        <name>02e06 Source.mp4</name>
                        <enabled>TRUE</enabled>
                        <duration>17008</duration>
                        <rate>
                            <timebase>24</timebase>
                            <ntsc>FALSE</ntsc>
                        </rate>
                        <start>924</start>
                        <end>952</end>
                        <in>4036</in>
                        <out>4064</out>
                        <file id="file-5"/>
                        <sourcetrack>
                            <mediatype>audio</mediatype>
                            <trackindex>2</trackindex>
                        </sourcetrack>
                        <labels>
                            <label2>Iris</label2>
                        </labels>
                    </clipitem>
                    <clipitem id="931555d5-260b-4de4-a1d2-dd1e6cbdb485" premiereChannelType="stereo">
                        <masterclipid>masterclip-1</masterclipid>
                        <name>02e06 Source.mp4</name>
                        <enabled>TRUE</enabled>
                        <duration>17008</duration>
                        <rate>
                            <timebase>24</timebase>
                            <ntsc>FALSE</ntsc>
                        </rate>
                        <start>952</start>
                        <end>987</end>
                        <in>4296</in>
                        <out>4331</out>
                        <file id="file-5"/>
                        <sourcetrack>
                            <mediatype>audio</mediatype>
                            <trackindex>2</trackindex>
                        </sourcetrack>
                        <labels>
                            <label2>Iris</label2>
                        </labels>
                    </clipitem>
                    <clipitem id="7004a2b5-7812-4809-a8fe-4070367f1c55" premiereChannelType="stereo">
                        <masterclipid>masterclip-1</masterclipid>
                        <name>02e06 Source.mp4</name>
                        <enabled>TRUE</enabled>
                        <duration>17008</duration>
                        <rate>
                            <timebase>24</timebase>
                            <ntsc>FALSE</ntsc>
                        </rate>
                        <start>987</start>
                        <end>1025</end>
                        <in>4373</in>
                        <out>4411</out>
                        <file id="file-5"/>
                        <sourcetrack>
                            <mediatype>audio</mediatype>
                            <trackindex>2</trackindex>
                        </sourcetrack>
                        <labels>
                            <label2>Iris</label2>
                        </labels>
                    </clipitem>
                    <clipitem id="ae253e42-9b81-415d-9bf8-feacec074eda" premiereChannelType="stereo">
                        <masterclipid>masterclip-1</masterclipid>
                        <name>02e06 Source.mp4</name>
                        <enabled>TRUE</enabled>
                        <duration>17008</duration>
                        <rate>
                            <timebase>24</timebase>
                            <ntsc>FALSE</ntsc>
                        </rate>
                        <start>1025</start>
                        <end>1068</end>
                        <in>4506</in>
                        <out>4549</out>
                        <file id="file-5"/>
                        <sourcetrack>
                            <mediatype>audio</mediatype>
                            <trackindex>2</trackindex>
                        </sourcetrack>
                        <labels>
                            <label2>Iris</label2>
                        </labels>
                    </clipitem>
                    <clipitem id="a56d6c29-f6e1-4f06-a963-94998db274bf" premiereChannelType="stereo">
                        <masterclipid>masterclip-1</masterclipid>
                        <name>02e06 Source.mp4</name>
                        <enabled>TRUE</enabled>
                        <duration>17008</duration>
                        <rate>
                            <timebase>24</timebase>
                            <ntsc>FALSE</ntsc>
                        </rate>
                        <start>1068</start>
                        <end>1079</end>
                        <in>4556</in>
                        <out>4567</out>
                        <file id="file-5"/>
                        <sourcetrack>
                            <mediatype>audio</mediatype>
                            <trackindex>2</trackindex>
                        </sourcetrack>
                        <labels>
                            <label2>Iris</label2>
                        </labels>
                    </clipitem>
                    <clipitem id="9fbf7f1e-2da1-40ce-bdd9-9ff54702ba05" premiereChannelType="stereo">
                        <masterclipid>masterclip-1</masterclipid>
                        <name>02e06 Source.mp4</name>
                        <enabled>TRUE</enabled>
                        <duration>17008</duration>
                        <rate>
                            <timebase>24</timebase>
                            <ntsc>FALSE</ntsc>
                        </rate>
                        <start>1079</start>
                        <end>1108</end>
                        <in>4562</in>
                        <out>4591</out>
                        <file id="file-5"/>
                        <sourcetrack>
                            <mediatype>audio</mediatype>
                            <trackindex>2</trackindex>
                        </sourcetrack>
                        <labels>
                            <label2>Iris</label2>
                        </labels>
                    </clipitem>
                    <clipitem id="381edafa-5361-424e-ad16-9cf4c84edebc" premiereChannelType="stereo">
                        <masterclipid>masterclip-1</masterclipid>
                        <name>02e06 Source.mp4</name>
                        <enabled>TRUE</enabled>
                        <duration>17008</duration>
                        <rate>
                            <timebase>24</timebase>
                            <ntsc>FALSE</ntsc>
                        </rate>
                        <start>1108</start>
                        <end>1180</end>
                        <in>4593</in>
                        <out>4665</out>
                        <file id="file-5"/>
                        <sourcetrack>
                            <mediatype>audio</mediatype>
                            <trackindex>2</trackindex>
                        </sourcetrack>
                        <labels>
                            <label2>Iris</label2>
                        </labels>
                    </clipitem>
                    <clipitem id="75f322eb-b076-4c7c-89e9-9ae9a396d0b1" premiereChannelType="stereo">
                        <masterclipid>masterclip-1</masterclipid>
                        <name>02e06 Source.mp4</name>
                        <enabled>TRUE</enabled>
                        <duration>17008</duration>
                        <rate>
                            <timebase>24</timebase>
                            <ntsc>FALSE</ntsc>
                        </rate>
                        <start>1180</start>
                        <end>1239</end>
                        <in>4668</in>
                        <out>4727</out>
                        <file id="file-5"/>
                        <sourcetrack>
                            <mediatype>audio</mediatype>
                            <trackindex>2</trackindex>
                        </sourcetrack>
                        <labels>
                            <label2>Iris</label2>
                        </labels>
                    </clipitem>
                    <clipitem id="495dc744-b2e7-446c-bad6-27816a464311" premiereChannelType="stereo">
                        <masterclipid>masterclip-1</masterclipid>
                        <name>02e06 Source.mp4</name>
                        <enabled>TRUE</enabled>
                        <duration>17008</duration>
                        <rate>
                            <timebase>24</timebase>
                            <ntsc>FALSE</ntsc>
                        </rate>
                        <start>1239</start>
                        <end>1278</end>
                        <in>4731</in>
                        <out>4770</out>
                        <file id="file-5"/>
                        <sourcetrack>
                            <mediatype>audio</mediatype>
                            <trackindex>2</trackindex>
                        </sourcetrack>
                        <labels>
                            <label2>Iris</label2>
                        </labels>
                    </clipitem>
                    <clipitem id="c97d47b6-1cbb-498f-a635-5e11ee461d09" premiereChannelType="stereo">
                        <masterclipid>masterclip-1</masterclipid>
                        <name>02e06 Source.mp4</name>
                        <enabled>TRUE</enabled>
                        <duration>17008</duration>
                        <rate>
                            <timebase>24</timebase>
                            <ntsc>FALSE</ntsc>
                        </rate>
                        <start>1278</start>
                        <end>1289</end>
                        <in>4772</in>
                        <out>4783</out>
                        <file id="file-5"/>
                        <sourcetrack>
                            <mediatype>audio</mediatype>
                            <trackindex>2</trackindex>
                        </sourcetrack>
                        <labels>
                            <label2>Iris</label2>
                        </labels>
                    </clipitem>
                    <clipitem id="2a9e42d1-9f59-4bc2-9173-633dd44d395a" premiereChannelType="stereo">
                        <masterclipid>masterclip-1</masterclipid>
                        <name>02e06 Source.mp4</name>
                        <enabled>TRUE</enabled>
                        <duration>17008</duration>
                        <rate>
                            <timebase>24</timebase>
                            <ntsc>FALSE</ntsc>
                        </rate>
                        <start>1289</start>
                        <end>1319</end>
                        <in>4822</in>
                        <out>4852</out>
                        <file id="file-5"/>
                        <sourcetrack>
                            <mediatype>audio</mediatype>
                            <trackindex>2</trackindex>
                        </sourcetrack>
                        <labels>
                            <label2>Iris</label2>
                        </labels>
                    </clipitem>
                    <clipitem id="36d13a0c-7c11-475a-9f6a-5b573f8e9902" premiereChannelType="stereo">
                        <masterclipid>masterclip-1</masterclipid>
                        <name>02e06 Source.mp4</name>
                        <enabled>TRUE</enabled>
                        <duration>17008</duration>
                        <rate>
                            <timebase>24</timebase>
                            <ntsc>FALSE</ntsc>
                        </rate>
                        <start>1319</start>
                        <end>1353</end>
                        <in>4869</in>
                        <out>4903</out>
                        <file id="file-5"/>
                        <sourcetrack>
                            <mediatype>audio</mediatype>
                            <trackindex>2</trackindex>
                        </sourcetrack>
                        <labels>
                            <label2>Iris</label2>
                        </labels>
                    </clipitem>
                    <clipitem id="23dd747c-8ae0-4e06-9a63-8d39cefa4672" premiereChannelType="stereo">
                        <masterclipid>masterclip-1</masterclipid>
                        <name>02e06 Source.mp4</name>
                        <enabled>TRUE</enabled>
                        <duration>17008</duration>
                        <rate>
                            <timebase>24</timebase>
                            <ntsc>FALSE</ntsc>
                        </rate>
                        <start>1353</start>
                        <end>1400</end>
                        <in>4989</in>
                        <out>5036</out>
                        <file id="file-5"/>
                        <sourcetrack>
                            <mediatype>audio</mediatype>
                            <trackindex>2</trackindex>
                        </sourcetrack>
                        <labels>
                            <label2>Iris</label2>
                        </labels>
                    </clipitem>
                    <clipitem id="59de0523-352e-4a47-9367-e28cc6dc23af" premiereChannelType="stereo">
                        <masterclipid>masterclip-1</masterclipid>
                        <name>02e06 Source.mp4</name>
                        <enabled>TRUE</enabled>
                        <duration>17008</duration>
                        <rate>
                            <timebase>24</timebase>
                            <ntsc>FALSE</ntsc>
                        </rate>
                        <start>1400</start>
                        <end>1423</end>
                        <in>5036</in>
                        <out>5059</out>
                        <file id="file-5"/>
                        <sourcetrack>
                            <mediatype>audio</mediatype>
                            <trackindex>2</trackindex>
                        </sourcetrack>
                        <labels>
                            <label2>Iris</label2>
                        </labels>
                    </clipitem>
                    <clipitem id="f7504703-07ca-47ff-b92a-481206adb9ea" premiereChannelType="stereo">
                        <masterclipid>masterclip-1</masterclipid>
                        <name>02e06 Source.mp4</name>
                        <enabled>TRUE</enabled>
                        <duration>17008</duration>
                        <rate>
                            <timebase>24</timebase>
                            <ntsc>FALSE</ntsc>
                        </rate>
                        <start>1423</start>
                        <end>1436</end>
                        <in>5062</in>
                        <out>5075</out>
                        <file id="file-5"/>
                        <sourcetrack>
                            <mediatype>audio</mediatype>
                            <trackindex>2</trackindex>
                        </sourcetrack>
                        <labels>
                            <label2>Iris</label2>
                        </labels>
                    </clipitem>
                    <clipitem id="514665a6-9c44-408d-8624-f97ad5feeb7d" premiereChannelType="stereo">
                        <masterclipid>masterclip-1</masterclipid>
                        <name>02e06 Source.mp4</name>
                        <enabled>TRUE</enabled>
                        <duration>17008</duration>
                        <rate>
                            <timebase>24</timebase>
                            <ntsc>FALSE</ntsc>
                        </rate>
                        <start>1436</start>
                        <end>1458</end>
                        <in>5075</in>
                        <out>5097</out>
                        <file id="file-5"/>
                        <sourcetrack>
                            <mediatype>audio</mediatype>
                            <trackindex>2</trackindex>
                        </sourcetrack>
                        <labels>
                            <label2>Iris</label2>
                        </labels>
                    </clipitem>
                    <clipitem id="7cfb4772-dc0d-471b-9cfd-2552902795dc" premiereChannelType="stereo">
                        <masterclipid>masterclip-1</masterclipid>
                        <name>02e06 Source.mp4</name>
                        <enabled>TRUE</enabled>
                        <duration>17008</duration>
                        <rate>
                            <timebase>24</timebase>
                            <ntsc>FALSE</ntsc>
                        </rate>
                        <start>1458</start>
                        <end>1492</end>
                        <in>5113</in>
                        <out>5147</out>
                        <file id="file-5"/>
                        <sourcetrack>
                            <mediatype>audio</mediatype>
                            <trackindex>2</trackindex>
                        </sourcetrack>
                        <labels>
                            <label2>Iris</label2>
                        </labels>
                    </clipitem>
                    <clipitem id="0e8adbb8-c3ec-4d69-a909-587a3e07773c" premiereChannelType="stereo">
                        <masterclipid>masterclip-1</masterclipid>
                        <name>02e06 Source.mp4</name>
                        <enabled>TRUE</enabled>
                        <duration>17008</duration>
                        <rate>
                            <timebase>24</timebase>
                            <ntsc>FALSE</ntsc>
                        </rate>
                        <start>1492</start>
                        <end>1503</end>
                        <in>5149</in>
                        <out>5160</out>
                        <file id="file-5"/>
                        <sourcetrack>
                            <mediatype>audio</mediatype>
                            <trackindex>2</trackindex>
                        </sourcetrack>
                        <labels>
                            <label2>Iris</label2>
                        </labels>
                    </clipitem>
                    <clipitem id="bb45659d-7086-44b3-a8f2-46470817694b" premiereChannelType="stereo">
                        <masterclipid>masterclip-1</masterclipid>
                        <name>02e06 Source.mp4</name>
                        <enabled>TRUE</enabled>
                        <duration>17008</duration>
                        <rate>
                            <timebase>24</timebase>
                            <ntsc>FALSE</ntsc>
                        </rate>
                        <start>1503</start>
                        <end>1538</end>
                        <in>5191</in>
                        <out>5226</out>
                        <file id="file-5"/>
                        <sourcetrack>
                            <mediatype>audio</mediatype>
                            <trackindex>2</trackindex>
                        </sourcetrack>
                        <labels>
                            <label2>Iris</label2>
                        </labels>
                    </clipitem>
                    <clipitem id="defeddf6-0f31-4a24-a830-4dc1721df1a1" premiereChannelType="stereo">
                        <masterclipid>masterclip-1</masterclipid>
                        <name>02e06 Source.mp4</name>
                        <enabled>TRUE</enabled>
                        <duration>17008</duration>
                        <rate>
                            <timebase>24</timebase>
                            <ntsc>FALSE</ntsc>
                        </rate>
                        <start>1538</start>
                        <end>1588</end>
                        <in>5513</in>
                        <out>5563</out>
                        <file id="file-5"/>
                        <sourcetrack>
                            <mediatype>audio</mediatype>
                            <trackindex>2</trackindex>
                        </sourcetrack>
                        <labels>
                            <label2>Iris</label2>
                        </labels>
                    </clipitem>
                    <clipitem id="58380dba-2374-4d28-b25c-eb35fb42bbda" premiereChannelType="stereo">
                        <masterclipid>masterclip-1</masterclipid>
                        <name>02e06 Source.mp4</name>
                        <enabled>TRUE</enabled>
                        <duration>17008</duration>
                        <rate>
                            <timebase>24</timebase>
                            <ntsc>FALSE</ntsc>
                        </rate>
                        <start>1588</start>
                        <end>1615</end>
                        <in>5248</in>
                        <out>5275</out>
                        <file id="file-5"/>
                        <sourcetrack>
                            <mediatype>audio</mediatype>
                            <trackindex>2</trackindex>
                        </sourcetrack>
                        <labels>
                            <label2>Iris</label2>
                        </labels>
                    </clipitem>
                    <clipitem id="12c780f9-9dda-48fb-abd1-32bcc449b83b" premiereChannelType="stereo">
                        <masterclipid>masterclip-1</masterclipid>
                        <name>02e06 Source.mp4</name>
                        <enabled>TRUE</enabled>
                        <duration>17008</duration>
                        <rate>
                            <timebase>24</timebase>
                            <ntsc>FALSE</ntsc>
                        </rate>
                        <start>1615</start>
                        <end>1648</end>
                        <in>5574</in>
                        <out>5607</out>
                        <file id="file-5"/>
                        <sourcetrack>
                            <mediatype>audio</mediatype>
                            <trackindex>2</trackindex>
                        </sourcetrack>
                        <labels>
                            <label2>Iris</label2>
                        </labels>
                    </clipitem>
                    <clipitem id="1734110b-ce48-4edf-b803-d6e4af18a98a" premiereChannelType="stereo">
                        <masterclipid>masterclip-1</masterclipid>
                        <name>02e06 Source.mp4</name>
                        <enabled>TRUE</enabled>
                        <duration>17008</duration>
                        <rate>
                            <timebase>24</timebase>
                            <ntsc>FALSE</ntsc>
                        </rate>
                        <start>1648</start>
                        <end>1659</end>
                        <in>5711</in>
                        <out>5722</out>
                        <file id="file-5"/>
                        <sourcetrack>
                            <mediatype>audio</mediatype>
                            <trackindex>2</trackindex>
                        </sourcetrack>
                        <labels>
                            <label2>Iris</label2>
                        </labels>
                    </clipitem>
                    <clipitem id="c95352a1-2dcc-49b2-aae5-d14ad4ccd851" premiereChannelType="stereo">
                        <masterclipid>masterclip-1</masterclipid>
                        <name>02e06 Source.mp4</name>
                        <enabled>TRUE</enabled>
                        <duration>17008</duration>
                        <rate>
                            <timebase>24</timebase>
                            <ntsc>FALSE</ntsc>
                        </rate>
                        <start>1659</start>
                        <end>1670</end>
                        <in>5723</in>
                        <out>5734</out>
                        <file id="file-5"/>
                        <sourcetrack>
                            <mediatype>audio</mediatype>
                            <trackindex>2</trackindex>
                        </sourcetrack>
                        <labels>
                            <label2>Iris</label2>
                        </labels>
                    </clipitem>
                    <clipitem id="2933847e-fd95-4e32-9f80-e2ce1e53ab9e" premiereChannelType="stereo">
                        <masterclipid>masterclip-1</masterclipid>
                        <name>02e06 Source.mp4</name>
                        <enabled>TRUE</enabled>
                        <duration>17008</duration>
                        <rate>
                            <timebase>24</timebase>
                            <ntsc>FALSE</ntsc>
                        </rate>
                        <start>1670</start>
                        <end>1693</end>
                        <in>5740</in>
                        <out>5763</out>
                        <file id="file-5"/>
                        <sourcetrack>
                            <mediatype>audio</mediatype>
                            <trackindex>2</trackindex>
                        </sourcetrack>
                        <labels>
                            <label2>Iris</label2>
                        </labels>
                    </clipitem>
                    <clipitem id="5b81921d-6c69-41de-b488-437dbcff0bae" premiereChannelType="stereo">
                        <masterclipid>masterclip-1</masterclipid>
                        <name>02e06 Source.mp4</name>
                        <enabled>TRUE</enabled>
                        <duration>17008</duration>
                        <rate>
                            <timebase>24</timebase>
                            <ntsc>FALSE</ntsc>
                        </rate>
                        <start>1693</start>
                        <end>1738</end>
                        <in>5764</in>
                        <out>5809</out>
                        <file id="file-5"/>
                        <sourcetrack>
                            <mediatype>audio</mediatype>
                            <trackindex>2</trackindex>
                        </sourcetrack>
                        <labels>
                            <label2>Iris</label2>
                        </labels>
                    </clipitem>
                    <clipitem id="e0c1875e-148a-4c3d-9c90-fcaa661b5d96" premiereChannelType="stereo">
                        <masterclipid>masterclip-1</masterclipid>
                        <name>02e06 Source.mp4</name>
                        <enabled>TRUE</enabled>
                        <duration>17008</duration>
                        <rate>
                            <timebase>24</timebase>
                            <ntsc>FALSE</ntsc>
                        </rate>
                        <start>1738</start>
                        <end>1821</end>
                        <in>5811</in>
                        <out>5894</out>
                        <file id="file-5"/>
                        <sourcetrack>
                            <mediatype>audio</mediatype>
                            <trackindex>2</trackindex>
                        </sourcetrack>
                        <labels>
                            <label2>Iris</label2>
                        </labels>
                    </clipitem>
                    <clipitem id="cd56df1e-d8c0-4af5-8546-1e873f54c114" premiereChannelType="stereo">
                        <masterclipid>masterclip-1</masterclipid>
                        <name>02e06 Source.mp4</name>
                        <enabled>TRUE</enabled>
                        <duration>17008</duration>
                        <rate>
                            <timebase>24</timebase>
                            <ntsc>FALSE</ntsc>
                        </rate>
                        <start>1821</start>
                        <end>1872</end>
                        <in>5897</in>
                        <out>5948</out>
                        <file id="file-5"/>
                        <sourcetrack>
                            <mediatype>audio</mediatype>
                            <trackindex>2</trackindex>
                        </sourcetrack>
                        <labels>
                            <label2>Iris</label2>
                        </labels>
                    </clipitem>
                    <clipitem id="d7dec579-acba-4f3b-8cdd-434e8c51fe02" premiereChannelType="stereo">
                        <masterclipid>masterclip-1</masterclipid>
                        <name>02e06 Source.mp4</name>
                        <enabled>TRUE</enabled>
                        <duration>17008</duration>
                        <rate>
                            <timebase>24</timebase>
                            <ntsc>FALSE</ntsc>
                        </rate>
                        <start>1872</start>
                        <end>1900</end>
                        <in>5951</in>
                        <out>5979</out>
                        <file id="file-5"/>
                        <sourcetrack>
                            <mediatype>audio</mediatype>
                            <trackindex>2</trackindex>
                        </sourcetrack>
                        <labels>
                            <label2>Iris</label2>
                        </labels>
                    </clipitem>
                    <clipitem id="f2659825-99e9-485b-82c6-fa82d4cdf2b8" premiereChannelType="stereo">
                        <masterclipid>masterclip-1</masterclipid>
                        <name>02e06 Source.mp4</name>
                        <enabled>TRUE</enabled>
                        <duration>17008</duration>
                        <rate>
                            <timebase>24</timebase>
                            <ntsc>FALSE</ntsc>
                        </rate>
                        <start>1900</start>
                        <end>1947</end>
                        <in>5981</in>
                        <out>6028</out>
                        <file id="file-5"/>
                        <sourcetrack>
                            <mediatype>audio</mediatype>
                            <trackindex>2</trackindex>
                        </sourcetrack>
                        <labels>
                            <label2>Iris</label2>
                        </labels>
                    </clipitem>
                    <clipitem id="88544858-83e9-4c96-b48c-88191cef3a78" premiereChannelType="stereo">
                        <masterclipid>masterclip-1</masterclipid>
                        <name>02e06 Source.mp4</name>
                        <enabled>TRUE</enabled>
                        <duration>17008</duration>
                        <rate>
                            <timebase>24</timebase>
                            <ntsc>FALSE</ntsc>
                        </rate>
                        <start>1947</start>
                        <end>1985</end>
                        <in>6058</in>
                        <out>6096</out>
                        <file id="file-5"/>
                        <sourcetrack>
                            <mediatype>audio</mediatype>
                            <trackindex>2</trackindex>
                        </sourcetrack>
                        <labels>
                            <label2>Iris</label2>
                        </labels>
                    </clipitem>
                    <clipitem id="fbdcb137-90ea-45fc-9ebc-c6e0b921e526" premiereChannelType="stereo">
                        <masterclipid>masterclip-1</masterclipid>
                        <name>02e06 Source.mp4</name>
                        <enabled>TRUE</enabled>
                        <duration>17008</duration>
                        <rate>
                            <timebase>24</timebase>
                            <ntsc>FALSE</ntsc>
                        </rate>
                        <start>1985</start>
                        <end>2003</end>
                        <in>6120</in>
                        <out>6138</out>
                        <file id="file-5"/>
                        <sourcetrack>
                            <mediatype>audio</mediatype>
                            <trackindex>2</trackindex>
                        </sourcetrack>
                        <labels>
                            <label2>Iris</label2>
                        </labels>
                    </clipitem>
                    <clipitem id="7fa64af5-93cb-41e7-b0c6-259bea4d3fba" premiereChannelType="stereo">
                        <masterclipid>masterclip-1</masterclipid>
                        <name>02e06 Source.mp4</name>
                        <enabled>TRUE</enabled>
                        <duration>17008</duration>
                        <rate>
                            <timebase>24</timebase>
                            <ntsc>FALSE</ntsc>
                        </rate>
                        <start>2003</start>
                        <end>2053</end>
                        <in>6139</in>
                        <out>6189</out>
                        <file id="file-5"/>
                        <sourcetrack>
                            <mediatype>audio</mediatype>
                            <trackindex>2</trackindex>
                        </sourcetrack>
                        <labels>
                            <label2>Iris</label2>
                        </labels>
                    </clipitem>
                    <clipitem id="d6f83d7d-84af-4d64-908d-d8c8f6e6190b" premiereChannelType="stereo">
                        <masterclipid>masterclip-1</masterclipid>
                        <name>02e06 Source.mp4</name>
                        <enabled>TRUE</enabled>
                        <duration>17008</duration>
                        <rate>
                            <timebase>24</timebase>
                            <ntsc>FALSE</ntsc>
                        </rate>
                        <start>2053</start>
                        <end>2070</end>
                        <in>6191</in>
                        <out>6208</out>
                        <file id="file-5"/>
                        <sourcetrack>
                            <mediatype>audio</mediatype>
                            <trackindex>2</trackindex>
                        </sourcetrack>
                        <labels>
                            <label2>Iris</label2>
                        </labels>
                    </clipitem>
                    <clipitem id="33b1b555-4b82-4b77-828a-972d58c89626" premiereChannelType="stereo">
                        <masterclipid>masterclip-1</masterclipid>
                        <name>02e06 Source.mp4</name>
                        <enabled>TRUE</enabled>
                        <duration>17008</duration>
                        <rate>
                            <timebase>24</timebase>
                            <ntsc>FALSE</ntsc>
                        </rate>
                        <start>2070</start>
                        <end>2158</end>
                        <in>6216</in>
                        <out>6304</out>
                        <file id="file-5"/>
                        <sourcetrack>
                            <mediatype>audio</mediatype>
                            <trackindex>2</trackindex>
                        </sourcetrack>
                        <labels>
                            <label2>Iris</label2>
                        </labels>
                    </clipitem>
                    <clipitem id="d56225a6-ddd7-43ad-9951-690237631332" premiereChannelType="stereo">
                        <masterclipid>masterclip-1</masterclipid>
                        <name>02e06 Source.mp4</name>
                        <enabled>TRUE</enabled>
                        <duration>17008</duration>
                        <rate>
                            <timebase>24</timebase>
                            <ntsc>FALSE</ntsc>
                        </rate>
                        <start>2158</start>
                        <end>2237</end>
                        <in>6307</in>
                        <out>6386</out>
                        <file id="file-5"/>
                        <sourcetrack>
                            <mediatype>audio</mediatype>
                            <trackindex>2</trackindex>
                        </sourcetrack>
                        <labels>
                            <label2>Iris</label2>
                        </labels>
                    </clipitem>
                    <clipitem id="1dfb4e0f-7462-493e-a1ea-a4824f93d5e5" premiereChannelType="stereo">
                        <masterclipid>masterclip-1</masterclipid>
                        <name>02e06 Source.mp4</name>
                        <enabled>TRUE</enabled>
                        <duration>17008</duration>
                        <rate>
                            <timebase>24</timebase>
                            <ntsc>FALSE</ntsc>
                        </rate>
                        <start>2237</start>
                        <end>2276</end>
                        <in>6401</in>
                        <out>6440</out>
                        <file id="file-5"/>
                        <sourcetrack>
                            <mediatype>audio</mediatype>
                            <trackindex>2</trackindex>
                        </sourcetrack>
                        <labels>
                            <label2>Iris</label2>
                        </labels>
                    </clipitem>
                    <clipitem id="7c9f4fdd-b21b-47fb-ab1e-ef52d4fcb64d" premiereChannelType="stereo">
                        <masterclipid>masterclip-1</masterclipid>
                        <name>02e06 Source.mp4</name>
                        <enabled>TRUE</enabled>
                        <duration>17008</duration>
                        <rate>
                            <timebase>24</timebase>
                            <ntsc>FALSE</ntsc>
                        </rate>
                        <start>2276</start>
                        <end>2329</end>
                        <in>6334</in>
                        <out>6387</out>
                        <file id="file-5"/>
                        <sourcetrack>
                            <mediatype>audio</mediatype>
                            <trackindex>2</trackindex>
                        </sourcetrack>
                        <labels>
                            <label2>Iris</label2>
                        </labels>
                    </clipitem>
                    <clipitem id="64513517-0215-41ad-be69-3b5a356d3b42" premiereChannelType="stereo">
                        <masterclipid>masterclip-1</masterclipid>
                        <name>02e06 Source.mp4</name>
                        <enabled>TRUE</enabled>
                        <duration>17008</duration>
                        <rate>
                            <timebase>24</timebase>
                            <ntsc>FALSE</ntsc>
                        </rate>
                        <start>2329</start>
                        <end>2372</end>
                        <in>6413</in>
                        <out>6456</out>
                        <file id="file-5"/>
                        <sourcetrack>
                            <mediatype>audio</mediatype>
                            <trackindex>2</trackindex>
                        </sourcetrack>
                        <labels>
                            <label2>Iris</label2>
                        </labels>
                    </clipitem>
                    <clipitem id="7d5e805f-0c8e-46be-94cf-dad03111f3d3" premiereChannelType="stereo">
                        <masterclipid>masterclip-1</masterclipid>
                        <name>02e06 Source.mp4</name>
                        <enabled>TRUE</enabled>
                        <duration>17008</duration>
                        <rate>
                            <timebase>24</timebase>
                            <ntsc>FALSE</ntsc>
                        </rate>
                        <start>2372</start>
                        <end>2417</end>
                        <in>6581</in>
                        <out>6626</out>
                        <file id="file-5"/>
                        <sourcetrack>
                            <mediatype>audio</mediatype>
                            <trackindex>2</trackindex>
                        </sourcetrack>
                        <labels>
                            <label2>Iris</label2>
                        </labels>
                    </clipitem>
                    <clipitem id="0b018ec1-c649-41d4-a1ba-b9e59a6ffd30" premiereChannelType="stereo">
                        <masterclipid>masterclip-1</masterclipid>
                        <name>02e06 Source.mp4</name>
                        <enabled>TRUE</enabled>
                        <duration>17008</duration>
                        <rate>
                            <timebase>24</timebase>
                            <ntsc>FALSE</ntsc>
                        </rate>
                        <start>2417</start>
                        <end>2428</end>
                        <in>6628</in>
                        <out>6639</out>
                        <file id="file-5"/>
                        <sourcetrack>
                            <mediatype>audio</mediatype>
                            <trackindex>2</trackindex>
                        </sourcetrack>
                        <labels>
                            <label2>Iris</label2>
                        </labels>
                    </clipitem>
                    <clipitem id="5d835077-ff2c-4075-a062-fd436d6bb070" premiereChannelType="stereo">
                        <masterclipid>masterclip-1</masterclipid>
                        <name>02e06 Source.mp4</name>
                        <enabled>TRUE</enabled>
                        <duration>17008</duration>
                        <rate>
                            <timebase>24</timebase>
                            <ntsc>FALSE</ntsc>
                        </rate>
                        <start>2428</start>
                        <end>2469</end>
                        <in>6690</in>
                        <out>6731</out>
                        <file id="file-5"/>
                        <sourcetrack>
                            <mediatype>audio</mediatype>
                            <trackindex>2</trackindex>
                        </sourcetrack>
                        <labels>
                            <label2>Iris</label2>
                        </labels>
                    </clipitem>
                    <clipitem id="403c2359-3659-4100-8b6b-1db9f860c54e" premiereChannelType="stereo">
                        <masterclipid>masterclip-1</masterclipid>
                        <name>02e06 Source.mp4</name>
                        <enabled>TRUE</enabled>
                        <duration>17008</duration>
                        <rate>
                            <timebase>24</timebase>
                            <ntsc>FALSE</ntsc>
                        </rate>
                        <start>2469</start>
                        <end>2490</end>
                        <in>6920</in>
                        <out>6941</out>
                        <file id="file-5"/>
                        <sourcetrack>
                            <mediatype>audio</mediatype>
                            <trackindex>2</trackindex>
                        </sourcetrack>
                        <labels>
                            <label2>Iris</label2>
                        </labels>
                    </clipitem>
                    <clipitem id="29e1355a-2660-4eaf-becd-7ae1c54d6c81" premiereChannelType="stereo">
                        <masterclipid>masterclip-1</masterclipid>
                        <name>02e06 Source.mp4</name>
                        <enabled>TRUE</enabled>
                        <duration>17008</duration>
                        <rate>
                            <timebase>24</timebase>
                            <ntsc>FALSE</ntsc>
                        </rate>
                        <start>2490</start>
                        <end>2509</end>
                        <in>6996</in>
                        <out>7015</out>
                        <file id="file-5"/>
                        <sourcetrack>
                            <mediatype>audio</mediatype>
                            <trackindex>2</trackindex>
                        </sourcetrack>
                        <labels>
                            <label2>Iris</label2>
                        </labels>
                    </clipitem>
                    <clipitem id="25090cbd-4f48-43c3-8c44-b602791814f8" premiereChannelType="stereo">
                        <masterclipid>masterclip-1</masterclipid>
                        <name>02e06 Source.mp4</name>
                        <enabled>TRUE</enabled>
                        <duration>17008</duration>
                        <rate>
                            <timebase>24</timebase>
                            <ntsc>FALSE</ntsc>
                        </rate>
                        <start>2509</start>
                        <end>2529</end>
                        <in>7353</in>
                        <out>7373</out>
                        <file id="file-5"/>
                        <sourcetrack>
                            <mediatype>audio</mediatype>
                            <trackindex>2</trackindex>
                        </sourcetrack>
                        <labels>
                            <label2>Iris</label2>
                        </labels>
                    </clipitem>
                    <clipitem id="82702de0-0df1-40ea-b363-e23202df8878" premiereChannelType="stereo">
                        <masterclipid>masterclip-1</masterclipid>
                        <name>02e06 Source.mp4</name>
                        <enabled>TRUE</enabled>
                        <duration>17008</duration>
                        <rate>
                            <timebase>24</timebase>
                            <ntsc>FALSE</ntsc>
                        </rate>
                        <start>2529</start>
                        <end>2540</end>
                        <in>7521</in>
                        <out>7532</out>
                        <file id="file-5"/>
                        <sourcetrack>
                            <mediatype>audio</mediatype>
                            <trackindex>2</trackindex>
                        </sourcetrack>
                        <labels>
                            <label2>Iris</label2>
                        </labels>
                    </clipitem>
                    <clipitem id="5e2eea21-a051-4c92-a741-81f26326974a" premiereChannelType="stereo">
                        <masterclipid>masterclip-1</masterclipid>
                        <name>02e06 Source.mp4</name>
                        <enabled>TRUE</enabled>
                        <duration>17008</duration>
                        <rate>
                            <timebase>24</timebase>
                            <ntsc>FALSE</ntsc>
                        </rate>
                        <start>2540</start>
                        <end>2566</end>
                        <in>7532</in>
                        <out>7558</out>
                        <file id="file-5"/>
                        <sourcetrack>
                            <mediatype>audio</mediatype>
                            <trackindex>2</trackindex>
                        </sourcetrack>
                        <labels>
                            <label2>Iris</label2>
                        </labels>
                    </clipitem>
                    <clipitem id="c39da0c4-0c65-46b9-9037-bf6e29c06a1a" premiereChannelType="stereo">
                        <masterclipid>masterclip-1</masterclipid>
                        <name>02e06 Source.mp4</name>
                        <enabled>TRUE</enabled>
                        <duration>17008</duration>
                        <rate>
                            <timebase>24</timebase>
                            <ntsc>FALSE</ntsc>
                        </rate>
                        <start>2566</start>
                        <end>2627</end>
                        <in>7720</in>
                        <out>7781</out>
                        <file id="file-5"/>
                        <sourcetrack>
                            <mediatype>audio</mediatype>
                            <trackindex>2</trackindex>
                        </sourcetrack>
                        <labels>
                            <label2>Iris</label2>
                        </labels>
                    </clipitem>
                    <clipitem id="59ef4827-d140-47ed-b7d7-12e9bf93a212" premiereChannelType="stereo">
                        <masterclipid>masterclip-1</masterclipid>
                        <name>02e06 Source.mp4</name>
                        <enabled>TRUE</enabled>
                        <duration>17008</duration>
                        <rate>
                            <timebase>24</timebase>
                            <ntsc>FALSE</ntsc>
                        </rate>
                        <start>2627</start>
                        <end>2645</end>
                        <in>7806</in>
                        <out>7824</out>
                        <file id="file-5"/>
                        <sourcetrack>
                            <mediatype>audio</mediatype>
                            <trackindex>2</trackindex>
                        </sourcetrack>
                        <labels>
                            <label2>Iris</label2>
                        </labels>
                    </clipitem>
                    <clipitem id="24eea92a-3a94-4196-94b9-29edaa61115d" premiereChannelType="stereo">
                        <masterclipid>masterclip-1</masterclipid>
                        <name>02e06 Source.mp4</name>
                        <enabled>TRUE</enabled>
                        <duration>17008</duration>
                        <rate>
                            <timebase>24</timebase>
                            <ntsc>FALSE</ntsc>
                        </rate>
                        <start>2645</start>
                        <end>2673</end>
                        <in>7829</in>
                        <out>7857</out>
                        <file id="file-5"/>
                        <sourcetrack>
                            <mediatype>audio</mediatype>
                            <trackindex>2</trackindex>
                        </sourcetrack>
                        <labels>
                            <label2>Iris</label2>
                        </labels>
                    </clipitem>
                    <clipitem id="1578d1be-e308-4177-9a1a-09a1b8d60d72" premiereChannelType="stereo">
                        <masterclipid>masterclip-1</masterclipid>
                        <name>02e06 Source.mp4</name>
                        <enabled>TRUE</enabled>
                        <duration>17008</duration>
                        <rate>
                            <timebase>24</timebase>
                            <ntsc>FALSE</ntsc>
                        </rate>
                        <start>2673</start>
                        <end>2728</end>
                        <in>7864</in>
                        <out>7919</out>
                        <file id="file-5"/>
                        <sourcetrack>
                            <mediatype>audio</mediatype>
                            <trackindex>2</trackindex>
                        </sourcetrack>
                        <labels>
                            <label2>Iris</label2>
                        </labels>
                    </clipitem>
                    <clipitem id="7e2edf37-a9dd-47a8-856f-71d2a42c9bf1" premiereChannelType="stereo">
                        <masterclipid>masterclip-1</masterclipid>
                        <name>02e06 Source.mp4</name>
                        <enabled>TRUE</enabled>
                        <duration>17008</duration>
                        <rate>
                            <timebase>24</timebase>
                            <ntsc>FALSE</ntsc>
                        </rate>
                        <start>2728</start>
                        <end>2747</end>
                        <in>7922</in>
                        <out>7941</out>
                        <file id="file-5"/>
                        <sourcetrack>
                            <mediatype>audio</mediatype>
                            <trackindex>2</trackindex>
                        </sourcetrack>
                        <labels>
                            <label2>Iris</label2>
                        </labels>
                    </clipitem>
                    <clipitem id="e6179111-70ab-4af8-a0dc-aebaa024f5cd" premiereChannelType="stereo">
                        <masterclipid>masterclip-1</masterclipid>
                        <name>02e06 Source.mp4</name>
                        <enabled>TRUE</enabled>
                        <duration>17008</duration>
                        <rate>
                            <timebase>24</timebase>
                            <ntsc>FALSE</ntsc>
                        </rate>
                        <start>2747</start>
                        <end>2790</end>
                        <in>7952</in>
                        <out>7995</out>
                        <file id="file-5"/>
                        <sourcetrack>
                            <mediatype>audio</mediatype>
                            <trackindex>2</trackindex>
                        </sourcetrack>
                        <labels>
                            <label2>Iris</label2>
                        </labels>
                    </clipitem>
                    <clipitem id="62f9b4c1-54f8-46bf-82bd-4975a053b49f" premiereChannelType="stereo">
                        <masterclipid>masterclip-1</masterclipid>
                        <name>02e06 Source.mp4</name>
                        <enabled>TRUE</enabled>
                        <duration>17008</duration>
                        <rate>
                            <timebase>24</timebase>
                            <ntsc>FALSE</ntsc>
                        </rate>
                        <start>2790</start>
                        <end>2807</end>
                        <in>7997</in>
                        <out>8014</out>
                        <file id="file-5"/>
                        <sourcetrack>
                            <mediatype>audio</mediatype>
                            <trackindex>2</trackindex>
                        </sourcetrack>
                        <labels>
                            <label2>Iris</label2>
                        </labels>
                    </clipitem>
                    <clipitem id="9f13ca52-9abd-4d7c-9f3a-ae060b70b3fe" premiereChannelType="stereo">
                        <masterclipid>masterclip-1</masterclipid>
                        <name>02e06 Source.mp4</name>
                        <enabled>TRUE</enabled>
                        <duration>17008</duration>
                        <rate>
                            <timebase>24</timebase>
                            <ntsc>FALSE</ntsc>
                        </rate>
                        <start>2807</start>
                        <end>2854</end>
                        <in>8014</in>
                        <out>8061</out>
                        <file id="file-5"/>
                        <sourcetrack>
                            <mediatype>audio</mediatype>
                            <trackindex>2</trackindex>
                        </sourcetrack>
                        <labels>
                            <label2>Iris</label2>
                        </labels>
                    </clipitem>
                    <clipitem id="92bf460e-749a-4bb6-b99a-86d016b59624" premiereChannelType="stereo">
                        <masterclipid>masterclip-1</masterclipid>
                        <name>02e06 Source.mp4</name>
                        <enabled>TRUE</enabled>
                        <duration>17008</duration>
                        <rate>
                            <timebase>24</timebase>
                            <ntsc>FALSE</ntsc>
                        </rate>
                        <start>2854</start>
                        <end>2882</end>
                        <in>8063</in>
                        <out>8091</out>
                        <file id="file-5"/>
                        <sourcetrack>
                            <mediatype>audio</mediatype>
                            <trackindex>2</trackindex>
                        </sourcetrack>
                        <labels>
                            <label2>Iris</label2>
                        </labels>
                    </clipitem>
                    <clipitem id="d015c0e1-c15a-44b7-a84a-9b4d1c340202" premiereChannelType="stereo">
                        <masterclipid>masterclip-1</masterclipid>
                        <name>02e06 Source.mp4</name>
                        <enabled>TRUE</enabled>
                        <duration>17008</duration>
                        <rate>
                            <timebase>24</timebase>
                            <ntsc>FALSE</ntsc>
                        </rate>
                        <start>2882</start>
                        <end>2909</end>
                        <in>8036</in>
                        <out>8063</out>
                        <file id="file-5"/>
                        <sourcetrack>
                            <mediatype>audio</mediatype>
                            <trackindex>2</trackindex>
                        </sourcetrack>
                        <labels>
                            <label2>Iris</label2>
                        </labels>
                    </clipitem>
                    <clipitem id="b9961be2-cb93-4c3e-a41a-82b9785d7275" premiereChannelType="stereo">
                        <masterclipid>masterclip-1</masterclipid>
                        <name>02e06 Source.mp4</name>
                        <enabled>TRUE</enabled>
                        <duration>17008</duration>
                        <rate>
                            <timebase>24</timebase>
                            <ntsc>FALSE</ntsc>
                        </rate>
                        <start>2909</start>
                        <end>2921</end>
                        <in>8065</in>
                        <out>8077</out>
                        <file id="file-5"/>
                        <sourcetrack>
                            <mediatype>audio</mediatype>
                            <trackindex>2</trackindex>
                        </sourcetrack>
                        <labels>
                            <label2>Iris</label2>
                        </labels>
                    </clipitem>
                    <clipitem id="9968d46a-bf5b-4ed3-9539-ddf9432d82f3" premiereChannelType="stereo">
                        <masterclipid>masterclip-1</masterclipid>
                        <name>02e06 Source.mp4</name>
                        <enabled>TRUE</enabled>
                        <duration>17008</duration>
                        <rate>
                            <timebase>24</timebase>
                            <ntsc>FALSE</ntsc>
                        </rate>
                        <start>2921</start>
                        <end>2932</end>
                        <in>8077</in>
                        <out>8088</out>
                        <file id="file-5"/>
                        <sourcetrack>
                            <mediatype>audio</mediatype>
                            <trackindex>2</trackindex>
                        </sourcetrack>
                        <labels>
                            <label2>Iris</label2>
                        </labels>
                    </clipitem>
                    <clipitem id="bfe8a676-0000-42f7-968c-ea998eccb834" premiereChannelType="stereo">
                        <masterclipid>masterclip-1</masterclipid>
                        <name>02e06 Source.mp4</name>
                        <enabled>TRUE</enabled>
                        <duration>17008</duration>
                        <rate>
                            <timebase>24</timebase>
                            <ntsc>FALSE</ntsc>
                        </rate>
                        <start>2932</start>
                        <end>2944</end>
                        <in>8173</in>
                        <out>8185</out>
                        <file id="file-5"/>
                        <sourcetrack>
                            <mediatype>audio</mediatype>
                            <trackindex>2</trackindex>
                        </sourcetrack>
                        <labels>
                            <label2>Iris</label2>
                        </labels>
                    </clipitem>
                    <clipitem id="d208f746-b211-481f-9acc-37106df7aa29" premiereChannelType="stereo">
                        <masterclipid>masterclip-1</masterclipid>
                        <name>02e06 Source.mp4</name>
                        <enabled>TRUE</enabled>
                        <duration>17008</duration>
                        <rate>
                            <timebase>24</timebase>
                            <ntsc>FALSE</ntsc>
                        </rate>
                        <start>2944</start>
                        <end>2955</end>
                        <in>8185</in>
                        <out>8196</out>
                        <file id="file-5"/>
                        <sourcetrack>
                            <mediatype>audio</mediatype>
                            <trackindex>2</trackindex>
                        </sourcetrack>
                        <labels>
                            <label2>Iris</label2>
                        </labels>
                    </clipitem>
                    <clipitem id="2efc0559-1246-47fb-bef6-9eb81e779753" premiereChannelType="stereo">
                        <masterclipid>masterclip-1</masterclipid>
                        <name>02e06 Source.mp4</name>
                        <enabled>TRUE</enabled>
                        <duration>17008</duration>
                        <rate>
                            <timebase>24</timebase>
                            <ntsc>FALSE</ntsc>
                        </rate>
                        <start>2955</start>
                        <end>2969</end>
                        <in>8247</in>
                        <out>8261</out>
                        <file id="file-5"/>
                        <sourcetrack>
                            <mediatype>audio</mediatype>
                            <trackindex>2</trackindex>
                        </sourcetrack>
                        <labels>
                            <label2>Iris</label2>
                        </labels>
                    </clipitem>
                    <clipitem id="aeb65e31-861c-41cf-a4bf-5ae9434a2b39" premiereChannelType="stereo">
                        <masterclipid>masterclip-1</masterclipid>
                        <name>02e06 Source.mp4</name>
                        <enabled>TRUE</enabled>
                        <duration>17008</duration>
                        <rate>
                            <timebase>24</timebase>
                            <ntsc>FALSE</ntsc>
                        </rate>
                        <start>2969</start>
                        <end>3033</end>
                        <in>8261</in>
                        <out>8325</out>
                        <file id="file-5"/>
                        <sourcetrack>
                            <mediatype>audio</mediatype>
                            <trackindex>2</trackindex>
                        </sourcetrack>
                        <labels>
                            <label2>Iris</label2>
                        </labels>
                    </clipitem>
                    <clipitem id="3f558c75-c60e-4456-9ce8-e08a6261d815" premiereChannelType="stereo">
                        <masterclipid>masterclip-1</masterclipid>
                        <name>02e06 Source.mp4</name>
                        <enabled>TRUE</enabled>
                        <duration>17008</duration>
                        <rate>
                            <timebase>24</timebase>
                            <ntsc>FALSE</ntsc>
                        </rate>
                        <start>3033</start>
                        <end>3060</end>
                        <in>8296</in>
                        <out>8323</out>
                        <file id="file-5"/>
                        <sourcetrack>
                            <mediatype>audio</mediatype>
                            <trackindex>2</trackindex>
                        </sourcetrack>
                        <labels>
                            <label2>Iris</label2>
                        </labels>
                    </clipitem>
                    <clipitem id="b0771136-6779-4c3d-989f-24cbdfd2c4b9" premiereChannelType="stereo">
                        <masterclipid>masterclip-1</masterclipid>
                        <name>02e06 Source.mp4</name>
                        <enabled>TRUE</enabled>
                        <duration>17008</duration>
                        <rate>
                            <timebase>24</timebase>
                            <ntsc>FALSE</ntsc>
                        </rate>
                        <start>3060</start>
                        <end>3089</end>
                        <in>8799</in>
                        <out>8828</out>
                        <file id="file-5"/>
                        <sourcetrack>
                            <mediatype>audio</mediatype>
                            <trackindex>2</trackindex>
                        </sourcetrack>
                        <labels>
                            <label2>Iris</label2>
                        </labels>
                    </clipitem>
                    <clipitem id="9470f60d-9844-4ab3-aa2d-0a93f1f379a4" premiereChannelType="stereo">
                        <masterclipid>masterclip-1</masterclipid>
                        <name>02e06 Source.mp4</name>
                        <enabled>TRUE</enabled>
                        <duration>17008</duration>
                        <rate>
                            <timebase>24</timebase>
                            <ntsc>FALSE</ntsc>
                        </rate>
                        <start>3089</start>
                        <end>3120</end>
                        <in>8965</in>
                        <out>8996</out>
                        <file id="file-5"/>
                        <sourcetrack>
                            <mediatype>audio</mediatype>
                            <trackindex>2</trackindex>
                        </sourcetrack>
                        <labels>
                            <label2>Iris</label2>
                        </labels>
                    </clipitem>
                    <clipitem id="69e5da3e-ece8-45d5-a8c8-8720a56392c3" premiereChannelType="stereo">
                        <masterclipid>masterclip-1</masterclipid>
                        <name>02e06 Source.mp4</name>
                        <enabled>TRUE</enabled>
                        <duration>17008</duration>
                        <rate>
                            <timebase>24</timebase>
                            <ntsc>FALSE</ntsc>
                        </rate>
                        <start>3120</start>
                        <end>3146</end>
                        <in>9015</in>
                        <out>9041</out>
                        <file id="file-5"/>
                        <sourcetrack>
                            <mediatype>audio</mediatype>
                            <trackindex>2</trackindex>
                        </sourcetrack>
                        <labels>
                            <label2>Iris</label2>
                        </labels>
                    </clipitem>
                    <clipitem id="a1ab84f7-9f60-490a-9877-815e8efee803" premiereChannelType="stereo">
                        <masterclipid>masterclip-1</masterclipid>
                        <name>02e06 Source.mp4</name>
                        <enabled>TRUE</enabled>
                        <duration>17008</duration>
                        <rate>
                            <timebase>24</timebase>
                            <ntsc>FALSE</ntsc>
                        </rate>
                        <start>3146</start>
                        <end>3183</end>
                        <in>9306</in>
                        <out>9343</out>
                        <file id="file-5"/>
                        <sourcetrack>
                            <mediatype>audio</mediatype>
                            <trackindex>2</trackindex>
                        </sourcetrack>
                        <labels>
                            <label2>Iris</label2>
                        </labels>
                    </clipitem>
                    <clipitem id="ebf2b49e-b913-49fb-b269-84e6202f1692" premiereChannelType="stereo">
                        <masterclipid>masterclip-1</masterclipid>
                        <name>02e06 Source.mp4</name>
                        <enabled>TRUE</enabled>
                        <duration>17008</duration>
                        <rate>
                            <timebase>24</timebase>
                            <ntsc>FALSE</ntsc>
                        </rate>
                        <start>3183</start>
                        <end>3208</end>
                        <in>9459</in>
                        <out>9484</out>
                        <file id="file-5"/>
                        <sourcetrack>
                            <mediatype>audio</mediatype>
                            <trackindex>2</trackindex>
                        </sourcetrack>
                        <labels>
                            <label2>Iris</label2>
                        </labels>
                    </clipitem>
                    <clipitem id="1a98e642-dfe7-4eae-919f-e8da515d8f72" premiereChannelType="stereo">
                        <masterclipid>masterclip-1</masterclipid>
                        <name>02e06 Source.mp4</name>
                        <enabled>TRUE</enabled>
                        <duration>17008</duration>
                        <rate>
                            <timebase>24</timebase>
                            <ntsc>FALSE</ntsc>
                        </rate>
                        <start>3208</start>
                        <end>3220</end>
                        <in>9458</in>
                        <out>9470</out>
                        <file id="file-5"/>
                        <sourcetrack>
                            <mediatype>audio</mediatype>
                            <trackindex>2</trackindex>
                        </sourcetrack>
                        <labels>
                            <label2>Iris</label2>
                        </labels>
                    </clipitem>
                    <clipitem id="b48c1db4-045e-4bc7-b994-7dedb92704a4" premiereChannelType="stereo">
                        <masterclipid>masterclip-1</masterclipid>
                        <name>02e06 Source.mp4</name>
                        <enabled>TRUE</enabled>
                        <duration>17008</duration>
                        <rate>
                            <timebase>24</timebase>
                            <ntsc>FALSE</ntsc>
                        </rate>
                        <start>3220</start>
                        <end>3231</end>
                        <in>9498</in>
                        <out>9509</out>
                        <file id="file-5"/>
                        <sourcetrack>
                            <mediatype>audio</mediatype>
                            <trackindex>2</trackindex>
                        </sourcetrack>
                        <labels>
                            <label2>Iris</label2>
                        </labels>
                    </clipitem>
                    <clipitem id="3d8914e3-f127-45a4-90a7-e07b9f24b5a9" premiereChannelType="stereo">
                        <masterclipid>masterclip-1</masterclipid>
                        <name>02e06 Source.mp4</name>
                        <enabled>TRUE</enabled>
                        <duration>17008</duration>
                        <rate>
                            <timebase>24</timebase>
                            <ntsc>FALSE</ntsc>
                        </rate>
                        <start>3231</start>
                        <end>3277</end>
                        <in>9509</in>
                        <out>9555</out>
                        <file id="file-5"/>
                        <sourcetrack>
                            <mediatype>audio</mediatype>
                            <trackindex>2</trackindex>
                        </sourcetrack>
                        <labels>
                            <label2>Iris</label2>
                        </labels>
                    </clipitem>
                    <clipitem id="70aae75e-f29c-47f1-a248-ea803181fdab" premiereChannelType="stereo">
                        <masterclipid>masterclip-1</masterclipid>
                        <name>02e06 Source.mp4</name>
                        <enabled>TRUE</enabled>
                        <duration>17008</duration>
                        <rate>
                            <timebase>24</timebase>
                            <ntsc>FALSE</ntsc>
                        </rate>
                        <start>3277</start>
                        <end>3290</end>
                        <in>9627</in>
                        <out>9640</out>
                        <file id="file-5"/>
                        <sourcetrack>
                            <mediatype>audio</mediatype>
                            <trackindex>2</trackindex>
                        </sourcetrack>
                        <labels>
                            <label2>Iris</label2>
                        </labels>
                    </clipitem>
                    <clipitem id="d4e7ac0c-319e-4633-a4fd-3ea71bc1c191" premiereChannelType="stereo">
                        <masterclipid>masterclip-1</masterclipid>
                        <name>02e06 Source.mp4</name>
                        <enabled>TRUE</enabled>
                        <duration>17008</duration>
                        <rate>
                            <timebase>24</timebase>
                            <ntsc>FALSE</ntsc>
                        </rate>
                        <start>3290</start>
                        <end>3321</end>
                        <in>9640</in>
                        <out>9671</out>
                        <file id="file-5"/>
                        <sourcetrack>
                            <mediatype>audio</mediatype>
                            <trackindex>2</trackindex>
                        </sourcetrack>
                        <labels>
                            <label2>Iris</label2>
                        </labels>
                    </clipitem>
                    <clipitem id="f78643ce-411b-4598-9b5c-94a428922817" premiereChannelType="stereo">
                        <masterclipid>masterclip-1</masterclipid>
                        <name>02e06 Source.mp4</name>
                        <enabled>TRUE</enabled>
                        <duration>17008</duration>
                        <rate>
                            <timebase>24</timebase>
                            <ntsc>FALSE</ntsc>
                        </rate>
                        <start>3321</start>
                        <end>3347</end>
                        <in>9693</in>
                        <out>9719</out>
                        <file id="file-5"/>
                        <sourcetrack>
                            <mediatype>audio</mediatype>
                            <trackindex>2</trackindex>
                        </sourcetrack>
                        <labels>
                            <label2>Iris</label2>
                        </labels>
                    </clipitem>
                    <clipitem id="85e0cc2b-26e2-447b-83e4-ef13ef95db41" premiereChannelType="stereo">
                        <masterclipid>masterclip-1</masterclipid>
                        <name>02e06 Source.mp4</name>
                        <enabled>TRUE</enabled>
                        <duration>17008</duration>
                        <rate>
                            <timebase>24</timebase>
                            <ntsc>FALSE</ntsc>
                        </rate>
                        <start>3347</start>
                        <end>3384</end>
                        <in>9561</in>
                        <out>9598</out>
                        <file id="file-5"/>
                        <sourcetrack>
                            <mediatype>audio</mediatype>
                            <trackindex>2</trackindex>
                        </sourcetrack>
                        <labels>
                            <label2>Iris</label2>
                        </labels>
                    </clipitem>
                    <clipitem id="61727d21-094a-4d4b-8385-be44ad0fb8dc" premiereChannelType="stereo">
                        <masterclipid>masterclip-1</masterclipid>
                        <name>02e06 Source.mp4</name>
                        <enabled>TRUE</enabled>
                        <duration>17008</duration>
                        <rate>
                            <timebase>24</timebase>
                            <ntsc>FALSE</ntsc>
                        </rate>
                        <start>3384</start>
                        <end>3445</end>
                        <in>9715</in>
                        <out>9776</out>
                        <file id="file-5"/>
                        <sourcetrack>
                            <mediatype>audio</mediatype>
                            <trackindex>2</trackindex>
                        </sourcetrack>
                        <labels>
                            <label2>Iris</label2>
                        </labels>
                    </clipitem>
                    <clipitem id="0775e51e-8406-4c46-bf8b-7a93fcde9593" premiereChannelType="stereo">
                        <masterclipid>masterclip-1</masterclipid>
                        <name>02e06 Source.mp4</name>
                        <enabled>TRUE</enabled>
                        <duration>17008</duration>
                        <rate>
                            <timebase>24</timebase>
                            <ntsc>FALSE</ntsc>
                        </rate>
                        <start>3445</start>
                        <end>3479</end>
                        <in>9877</in>
                        <out>9911</out>
                        <file id="file-5"/>
                        <sourcetrack>
                            <mediatype>audio</mediatype>
                            <trackindex>2</trackindex>
                        </sourcetrack>
                        <labels>
                            <label2>Iris</label2>
                        </labels>
                    </clipitem>
                    <clipitem id="78142880-61ed-4179-99ed-7ffc11b70b39" premiereChannelType="stereo">
                        <masterclipid>masterclip-1</masterclipid>
                        <name>02e06 Source.mp4</name>
                        <enabled>TRUE</enabled>
                        <duration>17008</duration>
                        <rate>
                            <timebase>24</timebase>
                            <ntsc>FALSE</ntsc>
                        </rate>
                        <start>3479</start>
                        <end>3553</end>
                        <in>10199</in>
                        <out>10273</out>
                        <file id="file-5"/>
                        <sourcetrack>
                            <mediatype>audio</mediatype>
                            <trackindex>2</trackindex>
                        </sourcetrack>
                        <labels>
                            <label2>Iris</label2>
                        </labels>
                    </clipitem>
                    <clipitem id="17519e08-3046-4f0e-89d8-c6141ecaa32d" premiereChannelType="stereo">
                        <masterclipid>masterclip-1</masterclipid>
                        <name>02e06 Source.mp4</name>
                        <enabled>TRUE</enabled>
                        <duration>17008</duration>
                        <rate>
                            <timebase>24</timebase>
                            <ntsc>FALSE</ntsc>
                        </rate>
                        <start>3553</start>
                        <end>3632</end>
                        <in>10313</in>
                        <out>10392</out>
                        <file id="file-5"/>
                        <sourcetrack>
                            <mediatype>audio</mediatype>
                            <trackindex>2</trackindex>
                        </sourcetrack>
                        <labels>
                            <label2>Iris</label2>
                        </labels>
                    </clipitem>
                    <clipitem id="bd1ead7b-833c-4dba-aac6-4aafae666017" premiereChannelType="stereo">
                        <masterclipid>masterclip-1</masterclipid>
                        <name>02e06 Source.mp4</name>
                        <enabled>TRUE</enabled>
                        <duration>17008</duration>
                        <rate>
                            <timebase>24</timebase>
                            <ntsc>FALSE</ntsc>
                        </rate>
                        <start>3632</start>
                        <end>3687</end>
                        <in>10396</in>
                        <out>10451</out>
                        <file id="file-5"/>
                        <sourcetrack>
                            <mediatype>audio</mediatype>
                            <trackindex>2</trackindex>
                        </sourcetrack>
                        <labels>
                            <label2>Iris</label2>
                        </labels>
                    </clipitem>
                    <clipitem id="29162bc2-10af-4696-a025-00ff976950a4" premiereChannelType="stereo">
                        <masterclipid>masterclip-1</masterclipid>
                        <name>02e06 Source.mp4</name>
                        <enabled>TRUE</enabled>
                        <duration>17008</duration>
                        <rate>
                            <timebase>24</timebase>
                            <ntsc>FALSE</ntsc>
                        </rate>
                        <start>3687</start>
                        <end>3698</end>
                        <in>10664</in>
                        <out>10675</out>
                        <file id="file-5"/>
                        <sourcetrack>
                            <mediatype>audio</mediatype>
                            <trackindex>2</trackindex>
                        </sourcetrack>
                        <labels>
                            <label2>Iris</label2>
                        </labels>
                    </clipitem>
                    <clipitem id="f501ee87-6afa-4d66-897f-f168eab5dddd" premiereChannelType="stereo">
                        <masterclipid>masterclip-1</masterclipid>
                        <name>02e06 Source.mp4</name>
                        <enabled>TRUE</enabled>
                        <duration>17008</duration>
                        <rate>
                            <timebase>24</timebase>
                            <ntsc>FALSE</ntsc>
                        </rate>
                        <start>3698</start>
                        <end>3731</end>
                        <in>10675</in>
                        <out>10708</out>
                        <file id="file-5"/>
                        <sourcetrack>
                            <mediatype>audio</mediatype>
                            <trackindex>2</trackindex>
                        </sourcetrack>
                        <labels>
                            <label2>Iris</label2>
                        </labels>
                    </clipitem>
                    <clipitem id="7c93f84d-f64b-48bc-a7d0-2dba6d29f6a1" premiereChannelType="stereo">
                        <masterclipid>masterclip-1</masterclipid>
                        <name>02e06 Source.mp4</name>
                        <enabled>TRUE</enabled>
                        <duration>17008</duration>
                        <rate>
                            <timebase>24</timebase>
                            <ntsc>FALSE</ntsc>
                        </rate>
                        <start>3731</start>
                        <end>3744</end>
                        <in>10709</in>
                        <out>10722</out>
                        <file id="file-5"/>
                        <sourcetrack>
                            <mediatype>audio</mediatype>
                            <trackindex>2</trackindex>
                        </sourcetrack>
                        <labels>
                            <label2>Iris</label2>
                        </labels>
                    </clipitem>
                    <clipitem id="f131dfc8-bc18-415e-a5d4-842ad62ba939" premiereChannelType="stereo">
                        <masterclipid>masterclip-1</masterclipid>
                        <name>02e06 Source.mp4</name>
                        <enabled>TRUE</enabled>
                        <duration>17008</duration>
                        <rate>
                            <timebase>24</timebase>
                            <ntsc>FALSE</ntsc>
                        </rate>
                        <start>3744</start>
                        <end>3768</end>
                        <in>10723</in>
                        <out>10747</out>
                        <file id="file-5"/>
                        <sourcetrack>
                            <mediatype>audio</mediatype>
                            <trackindex>2</trackindex>
                        </sourcetrack>
                        <labels>
                            <label2>Iris</label2>
                        </labels>
                    </clipitem>
                    <clipitem id="0480dba6-7b9f-404f-9977-04f3c719e150" premiereChannelType="stereo">
                        <masterclipid>masterclip-1</masterclipid>
                        <name>02e06 Source.mp4</name>
                        <enabled>TRUE</enabled>
                        <duration>17008</duration>
                        <rate>
                            <timebase>24</timebase>
                            <ntsc>FALSE</ntsc>
                        </rate>
                        <start>3768</start>
                        <end>3789</end>
                        <in>10776</in>
                        <out>10797</out>
                        <file id="file-5"/>
                        <sourcetrack>
                            <mediatype>audio</mediatype>
                            <trackindex>2</trackindex>
                        </sourcetrack>
                        <labels>
                            <label2>Iris</label2>
                        </labels>
                    </clipitem>
                    <clipitem id="3e2ac340-db56-4639-89e7-b41e6638ccb0" premiereChannelType="stereo">
                        <masterclipid>masterclip-1</masterclipid>
                        <name>02e06 Source.mp4</name>
                        <enabled>TRUE</enabled>
                        <duration>17008</duration>
                        <rate>
                            <timebase>24</timebase>
                            <ntsc>FALSE</ntsc>
                        </rate>
                        <start>3789</start>
                        <end>3800</end>
                        <in>10798</in>
                        <out>10809</out>
                        <file id="file-5"/>
                        <sourcetrack>
                            <mediatype>audio</mediatype>
                            <trackindex>2</trackindex>
                        </sourcetrack>
                        <labels>
                            <label2>Iris</label2>
                        </labels>
                    </clipitem>
                    <clipitem id="5ca31199-aa84-4337-853f-056c1cdc4723" premiereChannelType="stereo">
                        <masterclipid>masterclip-1</masterclipid>
                        <name>02e06 Source.mp4</name>
                        <enabled>TRUE</enabled>
                        <duration>17008</duration>
                        <rate>
                            <timebase>24</timebase>
                            <ntsc>FALSE</ntsc>
                        </rate>
                        <start>3800</start>
                        <end>3842</end>
                        <in>10870</in>
                        <out>10912</out>
                        <file id="file-5"/>
                        <sourcetrack>
                            <mediatype>audio</mediatype>
                            <trackindex>2</trackindex>
                        </sourcetrack>
                        <labels>
                            <label2>Iris</label2>
                        </labels>
                    </clipitem>
                    <clipitem id="f6d8496e-6f19-44a8-8842-6506b3d9f354" premiereChannelType="stereo">
                        <masterclipid>masterclip-1</masterclipid>
                        <name>02e06 Source.mp4</name>
                        <enabled>TRUE</enabled>
                        <duration>17008</duration>
                        <rate>
                            <timebase>24</timebase>
                            <ntsc>FALSE</ntsc>
                        </rate>
                        <start>3842</start>
                        <end>3856</end>
                        <in>11058</in>
                        <out>11072</out>
                        <file id="file-5"/>
                        <sourcetrack>
                            <mediatype>audio</mediatype>
                            <trackindex>2</trackindex>
                        </sourcetrack>
                        <labels>
                            <label2>Iris</label2>
                        </labels>
                    </clipitem>
                    <clipitem id="08fd6656-f41a-4801-9545-e247c78c03bd" premiereChannelType="stereo">
                        <masterclipid>masterclip-1</masterclipid>
                        <name>02e06 Source.mp4</name>
                        <enabled>TRUE</enabled>
                        <duration>17008</duration>
                        <rate>
                            <timebase>24</timebase>
                            <ntsc>FALSE</ntsc>
                        </rate>
                        <start>3856</start>
                        <end>3867</end>
                        <in>11072</in>
                        <out>11083</out>
                        <file id="file-5"/>
                        <sourcetrack>
                            <mediatype>audio</mediatype>
                            <trackindex>2</trackindex>
                        </sourcetrack>
                        <labels>
                            <label2>Iris</label2>
                        </labels>
                    </clipitem>
                    <clipitem id="78e37a2a-a08f-40f5-969c-86f0b48f0a0f" premiereChannelType="stereo">
                        <masterclipid>masterclip-1</masterclipid>
                        <name>02e06 Source.mp4</name>
                        <enabled>TRUE</enabled>
                        <duration>17008</duration>
                        <rate>
                            <timebase>24</timebase>
                            <ntsc>FALSE</ntsc>
                        </rate>
                        <start>3867</start>
                        <end>3894</end>
                        <in>11084</in>
                        <out>11111</out>
                        <file id="file-5"/>
                        <sourcetrack>
                            <mediatype>audio</mediatype>
                            <trackindex>2</trackindex>
                        </sourcetrack>
                        <labels>
                            <label2>Iris</label2>
                        </labels>
                    </clipitem>
                    <clipitem id="dc462956-8e6c-4343-af9b-0ca5303a5b18" premiereChannelType="stereo">
                        <masterclipid>masterclip-1</masterclipid>
                        <name>02e06 Source.mp4</name>
                        <enabled>TRUE</enabled>
                        <duration>17008</duration>
                        <rate>
                            <timebase>24</timebase>
                            <ntsc>FALSE</ntsc>
                        </rate>
                        <start>3894</start>
                        <end>3908</end>
                        <in>11328</in>
                        <out>11342</out>
                        <file id="file-5"/>
                        <sourcetrack>
                            <mediatype>audio</mediatype>
                            <trackindex>2</trackindex>
                        </sourcetrack>
                        <labels>
                            <label2>Iris</label2>
                        </labels>
                    </clipitem>
                    <clipitem id="a1877628-54db-4e3d-addc-48bf8c1a232d" premiereChannelType="stereo">
                        <masterclipid>masterclip-1</masterclipid>
                        <name>02e06 Source.mp4</name>
                        <enabled>TRUE</enabled>
                        <duration>17008</duration>
                        <rate>
                            <timebase>24</timebase>
                            <ntsc>FALSE</ntsc>
                        </rate>
                        <start>3908</start>
                        <end>3921</end>
                        <in>11345</in>
                        <out>11358</out>
                        <file id="file-5"/>
                        <sourcetrack>
                            <mediatype>audio</mediatype>
                            <trackindex>2</trackindex>
                        </sourcetrack>
                        <labels>
                            <label2>Iris</label2>
                        </labels>
                    </clipitem>
                    <clipitem id="3387d5e7-9d2f-4059-a0ce-4e051254f089" premiereChannelType="stereo">
                        <masterclipid>masterclip-1</masterclipid>
                        <name>02e06 Source.mp4</name>
                        <enabled>TRUE</enabled>
                        <duration>17008</duration>
                        <rate>
                            <timebase>24</timebase>
                            <ntsc>FALSE</ntsc>
                        </rate>
                        <start>3921</start>
                        <end>3934</end>
                        <in>11458</in>
                        <out>11471</out>
                        <file id="file-5"/>
                        <sourcetrack>
                            <mediatype>audio</mediatype>
                            <trackindex>2</trackindex>
                        </sourcetrack>
                        <labels>
                            <label2>Iris</label2>
                        </labels>
                    </clipitem>
                    <clipitem id="c83a64fb-4117-4d57-95d8-5a824aee8924" premiereChannelType="stereo">
                        <masterclipid>masterclip-1</masterclipid>
                        <name>02e06 Source.mp4</name>
                        <enabled>TRUE</enabled>
                        <duration>17008</duration>
                        <rate>
                            <timebase>24</timebase>
                            <ntsc>FALSE</ntsc>
                        </rate>
                        <start>3934</start>
                        <end>3959</end>
                        <in>11471</in>
                        <out>11496</out>
                        <file id="file-5"/>
                        <sourcetrack>
                            <mediatype>audio</mediatype>
                            <trackindex>2</trackindex>
                        </sourcetrack>
                        <labels>
                            <label2>Iris</label2>
                        </labels>
                    </clipitem>
                    <clipitem id="3f168cb5-99db-4ccc-94aa-e5eb43f16f52" premiereChannelType="stereo">
                        <masterclipid>masterclip-1</masterclipid>
                        <name>02e06 Source.mp4</name>
                        <enabled>TRUE</enabled>
                        <duration>17008</duration>
                        <rate>
                            <timebase>24</timebase>
                            <ntsc>FALSE</ntsc>
                        </rate>
                        <start>3959</start>
                        <end>3973</end>
                        <in>11564</in>
                        <out>11578</out>
                        <file id="file-5"/>
                        <sourcetrack>
                            <mediatype>audio</mediatype>
                            <trackindex>2</trackindex>
                        </sourcetrack>
                        <labels>
                            <label2>Iris</label2>
                        </labels>
                    </clipitem>
                    <clipitem id="b7c307d2-82b4-42df-bbab-3f0bc6039974" premiereChannelType="stereo">
                        <masterclipid>masterclip-1</masterclipid>
                        <name>02e06 Source.mp4</name>
                        <enabled>TRUE</enabled>
                        <duration>17008</duration>
                        <rate>
                            <timebase>24</timebase>
                            <ntsc>FALSE</ntsc>
                        </rate>
                        <start>3976</start>
                        <end>3996</end>
                        <in>11583</in>
                        <out>11603</out>
                        <file id="file-5"/>
                        <sourcetrack>
                            <mediatype>audio</mediatype>
                            <trackindex>2</trackindex>
                        </sourcetrack>
                        <labels>
                            <label2>Iris</label2>
                        </labels>
                    </clipitem>
                    <clipitem id="75fafca6-f8bf-4707-9129-8d2ddcc178e7" premiereChannelType="stereo">
                        <masterclipid>masterclip-1</masterclipid>
                        <name>02e06 Source.mp4</name>
                        <enabled>TRUE</enabled>
                        <duration>17008</duration>
                        <rate>
                            <timebase>24</timebase>
                            <ntsc>FALSE</ntsc>
                        </rate>
                        <start>3996</start>
                        <end>4030</end>
                        <in>11801</in>
                        <out>11835</out>
                        <file id="file-5"/>
                        <sourcetrack>
                            <mediatype>audio</mediatype>
                            <trackindex>2</trackindex>
                        </sourcetrack>
                        <labels>
                            <label2>Iris</label2>
                        </labels>
                    </clipitem>
                    <clipitem id="6180e600-c614-4bd6-b39b-91665dd64310" premiereChannelType="stereo">
                        <masterclipid>masterclip-1</masterclipid>
                        <name>02e06 Source.mp4</name>
                        <enabled>TRUE</enabled>
                        <duration>17008</duration>
                        <rate>
                            <timebase>24</timebase>
                            <ntsc>FALSE</ntsc>
                        </rate>
                        <start>4030</start>
                        <end>4061</end>
                        <in>11894</in>
                        <out>11925</out>
                        <file id="file-5"/>
                        <sourcetrack>
                            <mediatype>audio</mediatype>
                            <trackindex>2</trackindex>
                        </sourcetrack>
                        <labels>
                            <label2>Iris</label2>
                        </labels>
                    </clipitem>
                    <clipitem id="a08d4267-5237-4ecf-8790-144455710a5c" premiereChannelType="stereo">
                        <masterclipid>masterclip-1</masterclipid>
                        <name>02e06 Source.mp4</name>
                        <enabled>TRUE</enabled>
                        <duration>17008</duration>
                        <rate>
                            <timebase>24</timebase>
                            <ntsc>FALSE</ntsc>
                        </rate>
                        <start>4061</start>
                        <end>4115</end>
                        <in>11972</in>
                        <out>12026</out>
                        <file id="file-5"/>
                        <sourcetrack>
                            <mediatype>audio</mediatype>
                            <trackindex>2</trackindex>
                        </sourcetrack>
                        <labels>
                            <label2>Iris</label2>
                        </labels>
                    </clipitem>
                    <clipitem id="29a52aab-5917-4af3-9036-42a3c1e0a01f" premiereChannelType="stereo">
                        <masterclipid>masterclip-1</masterclipid>
                        <name>02e06 Source.mp4</name>
                        <enabled>TRUE</enabled>
                        <duration>17008</duration>
                        <rate>
                            <timebase>24</timebase>
                            <ntsc>FALSE</ntsc>
                        </rate>
                        <start>4115</start>
                        <end>4141</end>
                        <in>12026</in>
                        <out>12052</out>
                        <file id="file-5"/>
                        <sourcetrack>
                            <mediatype>audio</mediatype>
                            <trackindex>2</trackindex>
                        </sourcetrack>
                        <labels>
                            <label2>Iris</label2>
                        </labels>
                    </clipitem>
                    <clipitem id="f7b03ee4-b657-4f56-beb4-8763416aef5e" premiereChannelType="stereo">
                        <masterclipid>masterclip-1</masterclipid>
                        <name>02e06 Source.mp4</name>
                        <enabled>TRUE</enabled>
                        <duration>17008</duration>
                        <rate>
                            <timebase>24</timebase>
                            <ntsc>FALSE</ntsc>
                        </rate>
                        <start>4141</start>
                        <end>4156</end>
                        <in>12055</in>
                        <out>12070</out>
                        <file id="file-5"/>
                        <sourcetrack>
                            <mediatype>audio</mediatype>
                            <trackindex>2</trackindex>
                        </sourcetrack>
                        <labels>
                            <label2>Iris</label2>
                        </labels>
                    </clipitem>
                    <clipitem id="02a22d06-b367-4e18-953a-a75817a97992" premiereChannelType="stereo">
                        <masterclipid>masterclip-1</masterclipid>
                        <name>02e06 Source.mp4</name>
                        <enabled>TRUE</enabled>
                        <duration>17008</duration>
                        <rate>
                            <timebase>24</timebase>
                            <ntsc>FALSE</ntsc>
                        </rate>
                        <start>4156</start>
                        <end>4177</end>
                        <in>12071</in>
                        <out>12092</out>
                        <file id="file-5"/>
                        <sourcetrack>
                            <mediatype>audio</mediatype>
                            <trackindex>2</trackindex>
                        </sourcetrack>
                        <labels>
                            <label2>Iris</label2>
                        </labels>
                    </clipitem>
                    <clipitem id="5e671692-7333-4fda-bbed-96f70f0f8030" premiereChannelType="stereo">
                        <masterclipid>masterclip-1</masterclipid>
                        <name>02e06 Source.mp4</name>
                        <enabled>TRUE</enabled>
                        <duration>17008</duration>
                        <rate>
                            <timebase>24</timebase>
                            <ntsc>FALSE</ntsc>
                        </rate>
                        <start>4177</start>
                        <end>4209</end>
                        <in>12092</in>
                        <out>12124</out>
                        <file id="file-5"/>
                        <sourcetrack>
                            <mediatype>audio</mediatype>
                            <trackindex>2</trackindex>
                        </sourcetrack>
                        <labels>
                            <label2>Iris</label2>
                        </labels>
                    </clipitem>
                    <clipitem id="24a7fe39-dcb3-42b2-8bff-75f520a395f3" premiereChannelType="stereo">
                        <masterclipid>masterclip-1</masterclipid>
                        <name>02e06 Source.mp4</name>
                        <enabled>TRUE</enabled>
                        <duration>17008</duration>
                        <rate>
                            <timebase>24</timebase>
                            <ntsc>FALSE</ntsc>
                        </rate>
                        <start>4209</start>
                        <end>4266</end>
                        <in>12126</in>
                        <out>12183</out>
                        <file id="file-5"/>
                        <sourcetrack>
                            <mediatype>audio</mediatype>
                            <trackindex>2</trackindex>
                        </sourcetrack>
                        <labels>
                            <label2>Iris</label2>
                        </labels>
                    </clipitem>
                    <clipitem id="e7c8ebf7-8e9b-4b93-b8fa-79b1ba9edb65" premiereChannelType="stereo">
                        <masterclipid>masterclip-1</masterclipid>
                        <name>02e06 Source.mp4</name>
                        <enabled>TRUE</enabled>
                        <duration>17008</duration>
                        <rate>
                            <timebase>24</timebase>
                            <ntsc>FALSE</ntsc>
                        </rate>
                        <start>4266</start>
                        <end>4288</end>
                        <in>12200</in>
                        <out>12222</out>
                        <file id="file-5"/>
                        <sourcetrack>
                            <mediatype>audio</mediatype>
                            <trackindex>2</trackindex>
                        </sourcetrack>
                        <labels>
                            <label2>Iris</label2>
                        </labels>
                    </clipitem>
                    <clipitem id="445de488-d52a-468a-b13c-fd9ac88a6fea" premiereChannelType="stereo">
                        <masterclipid>masterclip-1</masterclipid>
                        <name>02e06 Source.mp4</name>
                        <enabled>TRUE</enabled>
                        <duration>17008</duration>
                        <rate>
                            <timebase>24</timebase>
                            <ntsc>FALSE</ntsc>
                        </rate>
                        <start>4288</start>
                        <end>4299</end>
                        <in>12258</in>
                        <out>12269</out>
                        <file id="file-5"/>
                        <sourcetrack>
                            <mediatype>audio</mediatype>
                            <trackindex>2</trackindex>
                        </sourcetrack>
                        <labels>
                            <label2>Iris</label2>
                        </labels>
                    </clipitem>
                    <clipitem id="7a165f4d-f8e7-40a6-b076-f36ef87088a4" premiereChannelType="stereo">
                        <masterclipid>masterclip-1</masterclipid>
                        <name>02e06 Source.mp4</name>
                        <enabled>TRUE</enabled>
                        <duration>17008</duration>
                        <rate>
                            <timebase>24</timebase>
                            <ntsc>FALSE</ntsc>
                        </rate>
                        <start>4299</start>
                        <end>4310</end>
                        <in>12270</in>
                        <out>12281</out>
                        <file id="file-5"/>
                        <sourcetrack>
                            <mediatype>audio</mediatype>
                            <trackindex>2</trackindex>
                        </sourcetrack>
                        <labels>
                            <label2>Iris</label2>
                        </labels>
                    </clipitem>
                    <clipitem id="c35aa8c4-be03-416c-87d9-c7b066eb9fb4" premiereChannelType="stereo">
                        <masterclipid>masterclip-1</masterclipid>
                        <name>02e06 Source.mp4</name>
                        <enabled>TRUE</enabled>
                        <duration>17008</duration>
                        <rate>
                            <timebase>24</timebase>
                            <ntsc>FALSE</ntsc>
                        </rate>
                        <start>4310</start>
                        <end>4345</end>
                        <in>12548</in>
                        <out>12583</out>
                        <file id="file-5"/>
                        <sourcetrack>
                            <mediatype>audio</mediatype>
                            <trackindex>2</trackindex>
                        </sourcetrack>
                        <labels>
                            <label2>Iris</label2>
                        </labels>
                    </clipitem>
                    <clipitem id="eee2baef-1875-47fd-bd14-2c51819217bc" premiereChannelType="stereo">
                        <masterclipid>masterclip-1</masterclipid>
                        <name>02e06 Source.mp4</name>
                        <enabled>TRUE</enabled>
                        <duration>17008</duration>
                        <rate>
                            <timebase>24</timebase>
                            <ntsc>FALSE</ntsc>
                        </rate>
                        <start>4345</start>
                        <end>4373</end>
                        <in>12742</in>
                        <out>12770</out>
                        <file id="file-5"/>
                        <sourcetrack>
                            <mediatype>audio</mediatype>
                            <trackindex>2</trackindex>
                        </sourcetrack>
                        <labels>
                            <label2>Iris</label2>
                        </labels>
                    </clipitem>
                    <clipitem id="00848a2a-6cf5-4c81-bb83-4bb6764ea5e8" premiereChannelType="stereo">
                        <masterclipid>masterclip-1</masterclipid>
                        <name>02e06 Source.mp4</name>
                        <enabled>TRUE</enabled>
                        <duration>17008</duration>
                        <rate>
                            <timebase>24</timebase>
                            <ntsc>FALSE</ntsc>
                        </rate>
                        <start>4373</start>
                        <end>4412</end>
                        <in>12808</in>
                        <out>12847</out>
                        <file id="file-5"/>
                        <sourcetrack>
                            <mediatype>audio</mediatype>
                            <trackindex>2</trackindex>
                        </sourcetrack>
                        <labels>
                            <label2>Iris</label2>
                        </labels>
                    </clipitem>
                    <clipitem id="82332f9d-3375-4510-839a-4eb58132f3c8" premiereChannelType="stereo">
                        <masterclipid>masterclip-1</masterclipid>
                        <name>02e06 Source.mp4</name>
                        <enabled>TRUE</enabled>
                        <duration>17008</duration>
                        <rate>
                            <timebase>24</timebase>
                            <ntsc>FALSE</ntsc>
                        </rate>
                        <start>4412</start>
                        <end>4445</end>
                        <in>13033</in>
                        <out>13066</out>
                        <file id="file-5"/>
                        <sourcetrack>
                            <mediatype>audio</mediatype>
                            <trackindex>2</trackindex>
                        </sourcetrack>
                        <labels>
                            <label2>Iris</label2>
                        </labels>
                    </clipitem>
                    <clipitem id="da8c8e16-2654-4253-b8ba-701798f3d505" premiereChannelType="stereo">
                        <masterclipid>masterclip-1</masterclipid>
                        <name>02e06 Source.mp4</name>
                        <enabled>TRUE</enabled>
                        <duration>17008</duration>
                        <rate>
                            <timebase>24</timebase>
                            <ntsc>FALSE</ntsc>
                        </rate>
                        <start>4445</start>
                        <end>4460</end>
                        <in>13068</in>
                        <out>13083</out>
                        <file id="file-5"/>
                        <sourcetrack>
                            <mediatype>audio</mediatype>
                            <trackindex>2</trackindex>
                        </sourcetrack>
                        <labels>
                            <label2>Iris</label2>
                        </labels>
                    </clipitem>
                    <clipitem id="d66235f2-ee5c-4a67-8a48-c9e2bb4afc8a" premiereChannelType="stereo">
                        <masterclipid>masterclip-1</masterclipid>
                        <name>02e06 Source.mp4</name>
                        <enabled>TRUE</enabled>
                        <duration>17008</duration>
                        <rate>
                            <timebase>24</timebase>
                            <ntsc>FALSE</ntsc>
                        </rate>
                        <start>4460</start>
                        <end>4493</end>
                        <in>13193</in>
                        <out>13226</out>
                        <file id="file-5"/>
                        <sourcetrack>
                            <mediatype>audio</mediatype>
                            <trackindex>2</trackindex>
                        </sourcetrack>
                        <labels>
                            <label2>Iris</label2>
                        </labels>
                    </clipitem>
                    <clipitem id="3499c742-6f42-4419-81d0-8712a05e5e57" premiereChannelType="stereo">
                        <masterclipid>masterclip-1</masterclipid>
                        <name>02e06 Source.mp4</name>
                        <enabled>TRUE</enabled>
                        <duration>17008</duration>
                        <rate>
                            <timebase>24</timebase>
                            <ntsc>FALSE</ntsc>
                        </rate>
                        <start>4493</start>
                        <end>4504</end>
                        <in>13424</in>
                        <out>13435</out>
                        <file id="file-5"/>
                        <sourcetrack>
                            <mediatype>audio</mediatype>
                            <trackindex>2</trackindex>
                        </sourcetrack>
                        <labels>
                            <label2>Iris</label2>
                        </labels>
                    </clipitem>
                    <clipitem id="1e1c8c1d-1083-4a74-b05e-6c84c2652574" premiereChannelType="stereo">
                        <masterclipid>masterclip-1</masterclipid>
                        <name>02e06 Source.mp4</name>
                        <enabled>TRUE</enabled>
                        <duration>17008</duration>
                        <rate>
                            <timebase>24</timebase>
                            <ntsc>FALSE</ntsc>
                        </rate>
                        <start>4504</start>
                        <end>4515</end>
                        <in>13435</in>
                        <out>13446</out>
                        <file id="file-5"/>
                        <sourcetrack>
                            <mediatype>audio</mediatype>
                            <trackindex>2</trackindex>
                        </sourcetrack>
                        <labels>
                            <label2>Iris</label2>
                        </labels>
                    </clipitem>
                    <clipitem id="3e0db31b-1dac-41a0-aab7-1e72fcee08e8" premiereChannelType="stereo">
                        <masterclipid>masterclip-1</masterclipid>
                        <name>02e06 Source.mp4</name>
                        <enabled>TRUE</enabled>
                        <duration>17008</duration>
                        <rate>
                            <timebase>24</timebase>
                            <ntsc>FALSE</ntsc>
                        </rate>
                        <start>4515</start>
                        <end>4535</end>
                        <in>13447</in>
                        <out>13467</out>
                        <file id="file-5"/>
                        <sourcetrack>
                            <mediatype>audio</mediatype>
                            <trackindex>2</trackindex>
                        </sourcetrack>
                        <labels>
                            <label2>Iris</label2>
                        </labels>
                    </clipitem>
                    <clipitem id="5fffecfd-b206-46c1-a8f4-53a07ebc683b" premiereChannelType="stereo">
                        <masterclipid>masterclip-1</masterclipid>
                        <name>02e06 Source.mp4</name>
                        <enabled>TRUE</enabled>
                        <duration>17008</duration>
                        <rate>
                            <timebase>24</timebase>
                            <ntsc>FALSE</ntsc>
                        </rate>
                        <start>4535</start>
                        <end>4555</end>
                        <in>13467</in>
                        <out>13487</out>
                        <file id="file-5"/>
                        <sourcetrack>
                            <mediatype>audio</mediatype>
                            <trackindex>2</trackindex>
                        </sourcetrack>
                        <labels>
                            <label2>Iris</label2>
                        </labels>
                    </clipitem>
                    <clipitem id="fa0983ae-e776-41a0-aada-85cf86d3e629" premiereChannelType="stereo">
                        <masterclipid>masterclip-1</masterclipid>
                        <name>02e06 Source.mp4</name>
                        <enabled>TRUE</enabled>
                        <duration>17008</duration>
                        <rate>
                            <timebase>24</timebase>
                            <ntsc>FALSE</ntsc>
                        </rate>
                        <start>4555</start>
                        <end>4576</end>
                        <in>13789</in>
                        <out>13810</out>
                        <file id="file-5"/>
                        <sourcetrack>
                            <mediatype>audio</mediatype>
                            <trackindex>2</trackindex>
                        </sourcetrack>
                        <labels>
                            <label2>Iris</label2>
                        </labels>
                    </clipitem>
                    <clipitem id="8726a9c0-0f0e-4f79-8cfc-4b69baa79556" premiereChannelType="stereo">
                        <masterclipid>masterclip-1</masterclipid>
                        <name>02e06 Source.mp4</name>
                        <enabled>TRUE</enabled>
                        <duration>17008</duration>
                        <rate>
                            <timebase>24</timebase>
                            <ntsc>FALSE</ntsc>
                        </rate>
                        <start>4576</start>
                        <end>4589</end>
                        <in>13811</in>
                        <out>13824</out>
                        <file id="file-5"/>
                        <sourcetrack>
                            <mediatype>audio</mediatype>
                            <trackindex>2</trackindex>
                        </sourcetrack>
                        <labels>
                            <label2>Iris</label2>
                        </labels>
                    </clipitem>
                    <clipitem id="fb1c8212-d28b-4080-98b1-c02a418ecb5a" premiereChannelType="stereo">
                        <masterclipid>masterclip-1</masterclipid>
                        <name>02e06 Source.mp4</name>
                        <enabled>TRUE</enabled>
                        <duration>17008</duration>
                        <rate>
                            <timebase>24</timebase>
                            <ntsc>FALSE</ntsc>
                        </rate>
                        <start>4589</start>
                        <end>4684</end>
                        <in>13949</in>
                        <out>14044</out>
                        <file id="file-5"/>
                        <sourcetrack>
                            <mediatype>audio</mediatype>
                            <trackindex>2</trackindex>
                        </sourcetrack>
                        <labels>
                            <label2>Iris</label2>
                        </labels>
                    </clipitem>
                    <clipitem id="66efce08-aee7-4a24-920d-8de5a7c69fd1" premiereChannelType="stereo">
                        <masterclipid>masterclip-1</masterclipid>
                        <name>02e06 Source.mp4</name>
                        <enabled>TRUE</enabled>
                        <duration>17008</duration>
                        <rate>
                            <timebase>24</timebase>
                            <ntsc>FALSE</ntsc>
                        </rate>
                        <start>4684</start>
                        <end>4699</end>
                        <in>14051</in>
                        <out>14066</out>
                        <file id="file-5"/>
                        <sourcetrack>
                            <mediatype>audio</mediatype>
                            <trackindex>2</trackindex>
                        </sourcetrack>
                        <labels>
                            <label2>Iris</label2>
                        </labels>
                    </clipitem>
                    <clipitem id="298fb778-230f-40cc-9d11-77f722076823" premiereChannelType="stereo">
                        <masterclipid>masterclip-1</masterclipid>
                        <name>02e06 Source.mp4</name>
                        <enabled>TRUE</enabled>
                        <duration>17008</duration>
                        <rate>
                            <timebase>24</timebase>
                            <ntsc>FALSE</ntsc>
                        </rate>
                        <start>4699</start>
                        <end>4749</end>
                        <in>14066</in>
                        <out>14116</out>
                        <file id="file-5"/>
                        <sourcetrack>
                            <mediatype>audio</mediatype>
                            <trackindex>2</trackindex>
                        </sourcetrack>
                        <labels>
                            <label2>Iris</label2>
                        </labels>
                    </clipitem>
                    <clipitem id="24fb484f-35de-4fc2-93b6-16421d291a17" premiereChannelType="stereo">
                        <masterclipid>masterclip-1</masterclipid>
                        <name>02e06 Source.mp4</name>
                        <enabled>TRUE</enabled>
                        <duration>17008</duration>
                        <rate>
                            <timebase>24</timebase>
                            <ntsc>FALSE</ntsc>
                        </rate>
                        <start>4749</start>
                        <end>4781</end>
                        <in>14118</in>
                        <out>14150</out>
                        <file id="file-5"/>
                        <sourcetrack>
                            <mediatype>audio</mediatype>
                            <trackindex>2</trackindex>
                        </sourcetrack>
                        <labels>
                            <label2>Iris</label2>
                        </labels>
                    </clipitem>
                    <clipitem id="8289c3cb-a00c-45de-a73c-8e0db6da6fe3" premiereChannelType="stereo">
                        <masterclipid>masterclip-1</masterclipid>
                        <name>02e06 Source.mp4</name>
                        <enabled>TRUE</enabled>
                        <duration>17008</duration>
                        <rate>
                            <timebase>24</timebase>
                            <ntsc>FALSE</ntsc>
                        </rate>
                        <start>4781</start>
                        <end>4796</end>
                        <in>14152</in>
                        <out>14167</out>
                        <file id="file-5"/>
                        <sourcetrack>
                            <mediatype>audio</mediatype>
                            <trackindex>2</trackindex>
                        </sourcetrack>
                        <labels>
                            <label2>Iris</label2>
                        </labels>
                    </clipitem>
                    <clipitem id="f21d191c-b60d-4dda-bd0b-379aab5e8eae" premiereChannelType="stereo">
                        <masterclipid>masterclip-1</masterclipid>
                        <name>02e06 Source.mp4</name>
                        <enabled>TRUE</enabled>
                        <duration>17008</duration>
                        <rate>
                            <timebase>24</timebase>
                            <ntsc>FALSE</ntsc>
                        </rate>
                        <start>4796</start>
                        <end>4829</end>
                        <in>14186</in>
                        <out>14219</out>
                        <file id="file-5"/>
                        <sourcetrack>
                            <mediatype>audio</mediatype>
                            <trackindex>2</trackindex>
                        </sourcetrack>
                        <labels>
                            <label2>Iris</label2>
                        </labels>
                    </clipitem>
                    <clipitem id="a2d3c200-a14b-4ecb-9de8-b57448027f65" premiereChannelType="stereo">
                        <masterclipid>masterclip-1</masterclipid>
                        <name>02e06 Source.mp4</name>
                        <enabled>TRUE</enabled>
                        <duration>17008</duration>
                        <rate>
                            <timebase>24</timebase>
                            <ntsc>FALSE</ntsc>
                        </rate>
                        <start>4829</start>
                        <end>4848</end>
                        <in>14278</in>
                        <out>14297</out>
                        <file id="file-5"/>
                        <sourcetrack>
                            <mediatype>audio</mediatype>
                            <trackindex>2</trackindex>
                        </sourcetrack>
                        <labels>
                            <label2>Iris</label2>
                        </labels>
                    </clipitem>
                    <clipitem id="b22ec91f-6ce2-40bf-a4f9-c2d51deaec42" premiereChannelType="stereo">
                        <masterclipid>masterclip-1</masterclipid>
                        <name>02e06 Source.mp4</name>
                        <enabled>TRUE</enabled>
                        <duration>17008</duration>
                        <rate>
                            <timebase>24</timebase>
                            <ntsc>FALSE</ntsc>
                        </rate>
                        <start>4848</start>
                        <end>4878</end>
                        <in>14297</in>
                        <out>14327</out>
                        <file id="file-5"/>
                        <sourcetrack>
                            <mediatype>audio</mediatype>
                            <trackindex>2</trackindex>
                        </sourcetrack>
                        <labels>
                            <label2>Iris</label2>
                        </labels>
                    </clipitem>
                    <clipitem id="52e9b93f-f05f-4f5a-abcc-4746b0c3d579" premiereChannelType="stereo">
                        <masterclipid>masterclip-1</masterclipid>
                        <name>02e06 Source.mp4</name>
                        <enabled>TRUE</enabled>
                        <duration>17008</duration>
                        <rate>
                            <timebase>24</timebase>
                            <ntsc>FALSE</ntsc>
                        </rate>
                        <start>4878</start>
                        <end>4896</end>
                        <in>14329</in>
                        <out>14347</out>
                        <file id="file-5"/>
                        <sourcetrack>
                            <mediatype>audio</mediatype>
                            <trackindex>2</trackindex>
                        </sourcetrack>
                        <labels>
                            <label2>Iris</label2>
                        </labels>
                    </clipitem>
                    <clipitem id="c1690324-7a0b-4049-aad5-865c75eb8b67" premiereChannelType="stereo">
                        <masterclipid>masterclip-1</masterclipid>
                        <name>02e06 Source.mp4</name>
                        <enabled>TRUE</enabled>
                        <duration>17008</duration>
                        <rate>
                            <timebase>24</timebase>
                            <ntsc>FALSE</ntsc>
                        </rate>
                        <start>4896</start>
                        <end>4908</end>
                        <in>14363</in>
                        <out>14375</out>
                        <file id="file-5"/>
                        <sourcetrack>
                            <mediatype>audio</mediatype>
                            <trackindex>2</trackindex>
                        </sourcetrack>
                        <labels>
                            <label2>Iris</label2>
                        </labels>
                    </clipitem>
                    <clipitem id="f7c4ee8a-7cd8-49ba-9986-e9ef0ce09841" premiereChannelType="stereo">
                        <masterclipid>masterclip-1</masterclipid>
                        <name>02e06 Source.mp4</name>
                        <enabled>TRUE</enabled>
                        <duration>17008</duration>
                        <rate>
                            <timebase>24</timebase>
                            <ntsc>FALSE</ntsc>
                        </rate>
                        <start>4908</start>
                        <end>4929</end>
                        <in>14376</in>
                        <out>14397</out>
                        <file id="file-5"/>
                        <sourcetrack>
                            <mediatype>audio</mediatype>
                            <trackindex>2</trackindex>
                        </sourcetrack>
                        <labels>
                            <label2>Iris</label2>
                        </labels>
                    </clipitem>
                    <clipitem id="23044572-442a-4226-9c8c-3ce651288a86" premiereChannelType="stereo">
                        <masterclipid>masterclip-1</masterclipid>
                        <name>02e06 Source.mp4</name>
                        <enabled>TRUE</enabled>
                        <duration>17008</duration>
                        <rate>
                            <timebase>24</timebase>
                            <ntsc>FALSE</ntsc>
                        </rate>
                        <start>4929</start>
                        <end>4944</end>
                        <in>14752</in>
                        <out>14767</out>
                        <file id="file-5"/>
                        <sourcetrack>
                            <mediatype>audio</mediatype>
                            <trackindex>2</trackindex>
                        </sourcetrack>
                        <labels>
                            <label2>Iris</label2>
                        </labels>
                    </clipitem>
                    <clipitem id="3989d46c-6b53-4949-878b-62e2e768e8ca" premiereChannelType="stereo">
                        <masterclipid>masterclip-1</masterclipid>
                        <name>02e06 Source.mp4</name>
                        <enabled>TRUE</enabled>
                        <duration>17008</duration>
                        <rate>
                            <timebase>24</timebase>
                            <ntsc>FALSE</ntsc>
                        </rate>
                        <start>4944</start>
                        <end>4969</end>
                        <in>14767</in>
                        <out>14792</out>
                        <file id="file-5"/>
                        <sourcetrack>
                            <mediatype>audio</mediatype>
                            <trackindex>2</trackindex>
                        </sourcetrack>
                        <labels>
                            <label2>Iris</label2>
                        </labels>
                    </clipitem>
                    <clipitem id="58f29ef1-e9fa-4d26-9c8f-f390639fe863" premiereChannelType="stereo">
                        <masterclipid>masterclip-1</masterclipid>
                        <name>02e06 Source.mp4</name>
                        <enabled>TRUE</enabled>
                        <duration>17008</duration>
                        <rate>
                            <timebase>24</timebase>
                            <ntsc>FALSE</ntsc>
                        </rate>
                        <start>4969</start>
                        <end>5034</end>
                        <in>14820</in>
                        <out>14885</out>
                        <file id="file-5"/>
                        <sourcetrack>
                            <mediatype>audio</mediatype>
                            <trackindex>2</trackindex>
                        </sourcetrack>
                        <labels>
                            <label2>Iris</label2>
                        </labels>
                    </clipitem>
                    <clipitem id="8d413a0b-75b4-4ab0-817f-4fd32a6fdc3d" premiereChannelType="stereo">
                        <masterclipid>masterclip-1</masterclipid>
                        <name>02e06 Source.mp4</name>
                        <enabled>TRUE</enabled>
                        <duration>17008</duration>
                        <rate>
                            <timebase>24</timebase>
                            <ntsc>FALSE</ntsc>
                        </rate>
                        <start>5034</start>
                        <end>5093</end>
                        <in>14887</in>
                        <out>14946</out>
                        <file id="file-5"/>
                        <sourcetrack>
                            <mediatype>audio</mediatype>
                            <trackindex>2</trackindex>
                        </sourcetrack>
                        <labels>
                            <label2>Iris</label2>
                        </labels>
                    </clipitem>
                    <clipitem id="1f730ba8-027d-42b6-b236-5b3700a52c8b" premiereChannelType="stereo">
                        <masterclipid>masterclip-1</masterclipid>
                        <name>02e06 Source.mp4</name>
                        <enabled>TRUE</enabled>
                        <duration>17008</duration>
                        <rate>
                            <timebase>24</timebase>
                            <ntsc>FALSE</ntsc>
                        </rate>
                        <start>5093</start>
                        <end>5175</end>
                        <in>14949</in>
                        <out>15031</out>
                        <file id="file-5"/>
                        <sourcetrack>
                            <mediatype>audio</mediatype>
                            <trackindex>2</trackindex>
                        </sourcetrack>
                        <labels>
                            <label2>Iris</label2>
                        </labels>
                    </clipitem>
                    <clipitem id="7d59d878-5a5a-4578-a8a6-f93525018665" premiereChannelType="stereo">
                        <masterclipid>masterclip-1</masterclipid>
                        <name>02e06 Source.mp4</name>
                        <enabled>TRUE</enabled>
                        <duration>17008</duration>
                        <rate>
                            <timebase>24</timebase>
                            <ntsc>FALSE</ntsc>
                        </rate>
                        <start>5175</start>
                        <end>5187</end>
                        <in>15035</in>
                        <out>15047</out>
                        <file id="file-5"/>
                        <sourcetrack>
                            <mediatype>audio</mediatype>
                            <trackindex>2</trackindex>
                        </sourcetrack>
                        <labels>
                            <label2>Iris</label2>
                        </labels>
                    </clipitem>
                    <clipitem id="ba62fe1e-1f0b-4fe6-98b1-9f9c9595c433" premiereChannelType="stereo">
                        <masterclipid>masterclip-1</masterclipid>
                        <name>02e06 Source.mp4</name>
                        <enabled>TRUE</enabled>
                        <duration>17008</duration>
                        <rate>
                            <timebase>24</timebase>
                            <ntsc>FALSE</ntsc>
                        </rate>
                        <start>5187</start>
                        <end>5202</end>
                        <in>15046</in>
                        <out>15061</out>
                        <file id="file-5"/>
                        <sourcetrack>
                            <mediatype>audio</mediatype>
                            <trackindex>2</trackindex>
                        </sourcetrack>
                        <labels>
                            <label2>Iris</label2>
                        </labels>
                    </clipitem>
                    <clipitem id="3536902e-32e4-475e-8408-6aa39e769ad5" premiereChannelType="stereo">
                        <masterclipid>masterclip-1</masterclipid>
                        <name>02e06 Source.mp4</name>
                        <enabled>TRUE</enabled>
                        <duration>17008</duration>
                        <rate>
                            <timebase>24</timebase>
                            <ntsc>FALSE</ntsc>
                        </rate>
                        <start>5202</start>
                        <end>5216</end>
                        <in>15068</in>
                        <out>15082</out>
                        <file id="file-5"/>
                        <sourcetrack>
                            <mediatype>audio</mediatype>
                            <trackindex>2</trackindex>
                        </sourcetrack>
                        <labels>
                            <label2>Iris</label2>
                        </labels>
                    </clipitem>
                    <clipitem id="12f09aa2-0396-4247-825f-4d59c5cc40bb" premiereChannelType="stereo">
                        <masterclipid>masterclip-1</masterclipid>
                        <name>02e06 Source.mp4</name>
                        <enabled>TRUE</enabled>
                        <duration>17008</duration>
                        <rate>
                            <timebase>24</timebase>
                            <ntsc>FALSE</ntsc>
                        </rate>
                        <start>5216</start>
                        <end>5250</end>
                        <in>15300</in>
                        <out>15334</out>
                        <file id="file-5"/>
                        <sourcetrack>
                            <mediatype>audio</mediatype>
                            <trackindex>2</trackindex>
                        </sourcetrack>
                        <labels>
                            <label2>Iris</label2>
                        </labels>
                    </clipitem>
                    <clipitem id="3ae9c0fa-d781-41bb-a118-2661be960c6e" premiereChannelType="stereo">
                        <masterclipid>masterclip-1</masterclipid>
                        <name>02e06 Source.mp4</name>
                        <enabled>TRUE</enabled>
                        <duration>17008</duration>
                        <rate>
                            <timebase>24</timebase>
                            <ntsc>FALSE</ntsc>
                        </rate>
                        <start>5250</start>
                        <end>5288</end>
                        <in>15518</in>
                        <out>15556</out>
                        <file id="file-5"/>
                        <sourcetrack>
                            <mediatype>audio</mediatype>
                            <trackindex>2</trackindex>
                        </sourcetrack>
                        <labels>
                            <label2>Iris</label2>
                        </labels>
                    </clipitem>
                    <clipitem id="88aff3e3-b9c4-44de-97ee-8161e8d6635a" premiereChannelType="stereo">
                        <masterclipid>masterclip-1</masterclipid>
                        <name>02e06 Source.mp4</name>
                        <enabled>TRUE</enabled>
                        <duration>17008</duration>
                        <rate>
                            <timebase>24</timebase>
                            <ntsc>FALSE</ntsc>
                        </rate>
                        <start>5288</start>
                        <end>5360</end>
                        <in>15558</in>
                        <out>15630</out>
                        <file id="file-5"/>
                        <sourcetrack>
                            <mediatype>audio</mediatype>
                            <trackindex>2</trackindex>
                        </sourcetrack>
                        <labels>
                            <label2>Iris</label2>
                        </labels>
                    </clipitem>
                    <clipitem id="9dccca60-292e-4eca-96a9-ea9a79c9b1e9" premiereChannelType="stereo">
                        <masterclipid>masterclip-1</masterclipid>
                        <name>02e06 Source.mp4</name>
                        <enabled>TRUE</enabled>
                        <duration>17008</duration>
                        <rate>
                            <timebase>24</timebase>
                            <ntsc>FALSE</ntsc>
                        </rate>
                        <start>5360</start>
                        <end>5371</end>
                        <in>15633</in>
                        <out>15644</out>
                        <file id="file-5"/>
                        <sourcetrack>
                            <mediatype>audio</mediatype>
                            <trackindex>2</trackindex>
                        </sourcetrack>
                        <labels>
                            <label2>Iris</label2>
                        </labels>
                    </clipitem>
                    <clipitem id="fe053759-4068-4cb4-ae88-c87822301694" premiereChannelType="stereo">
                        <masterclipid>masterclip-1</masterclipid>
                        <name>02e06 Source.mp4</name>
                        <enabled>TRUE</enabled>
                        <duration>17008</duration>
                        <rate>
                            <timebase>24</timebase>
                            <ntsc>FALSE</ntsc>
                        </rate>
                        <start>5371</start>
                        <end>5410</end>
                        <in>15644</in>
                        <out>15683</out>
                        <file id="file-5"/>
                        <sourcetrack>
                            <mediatype>audio</mediatype>
                            <trackindex>2</trackindex>
                        </sourcetrack>
                        <labels>
                            <label2>Iris</label2>
                        </labels>
                    </clipitem>

                    <enabled>TRUE</enabled>
                    <locked>FALSE</locked>
                    <outputchannelindex>2</outputchannelindex>
                </track>
                <track TL.SQTrackAudioKeyframeStyle="0" TL.SQTrackShy="0" TL.SQTrackExpandedHeight="25"
                       TL.SQTrackExpanded="0" MZ.TrackTargeted="1" PannerCurrentValue="0.5" PannerIsInverted="true"
                       PannerStartKeyframe="-91445760000000000,0.5,0,0,0,0,0,0" PannerName="骞宠　"
                       currentExplodedTrackIndex="0" totalExplodedTrackCount="2" premiereTrackType="Stereo">
                    <enabled>TRUE</enabled>
                    <locked>FALSE</locked>
                    <outputchannelindex>1</outputchannelindex>
                </track>
                <track TL.SQTrackAudioKeyframeStyle="0" TL.SQTrackShy="0" TL.SQTrackExpandedHeight="25"
                       TL.SQTrackExpanded="0" MZ.TrackTargeted="1" PannerCurrentValue="0.5" PannerIsInverted="true"
                       PannerStartKeyframe="-91445760000000000,0.5,0,0,0,0,0,0" PannerName="骞宠　"
                       currentExplodedTrackIndex="1" totalExplodedTrackCount="2" premiereTrackType="Stereo">
                    <enabled>TRUE</enabled>
                    <locked>FALSE</locked>
                    <outputchannelindex>2</outputchannelindex>
                </track>
                <track TL.SQTrackAudioKeyframeStyle="0" TL.SQTrackShy="0" TL.SQTrackExpandedHeight="25"
                       TL.SQTrackExpanded="0" MZ.TrackTargeted="1" PannerCurrentValue="0.5" PannerIsInverted="true"
                       PannerStartKeyframe="-91445760000000000,0.5,0,0,0,0,0,0" PannerName="骞宠　"
                       currentExplodedTrackIndex="0" totalExplodedTrackCount="2" premiereTrackType="Stereo">
                    <enabled>TRUE</enabled>
                    <locked>FALSE</locked>
                    <outputchannelindex>1</outputchannelindex>
                </track>
                <track TL.SQTrackAudioKeyframeStyle="0" TL.SQTrackShy="0" TL.SQTrackExpandedHeight="25"
                       TL.SQTrackExpanded="0" MZ.TrackTargeted="1" PannerCurrentValue="0.5" PannerIsInverted="true"
                       PannerStartKeyframe="-91445760000000000,0.5,0,0,0,0,0,0" PannerName="骞宠　"
                       currentExplodedTrackIndex="1" totalExplodedTrackCount="2" premiereTrackType="Stereo">
                    <enabled>TRUE</enabled>
                    <locked>FALSE</locked>
                    <outputchannelindex>2</outputchannelindex>
                </track>
            </audio>
        </media>
        <timecode>
            <rate>
                <timebase>24</timebase>
                <ntsc>FALSE</ntsc>
            </rate>
            <string>00:00:00:00</string>
            <frame>0</frame>
            <displayformat>NDF</displayformat>
        </timecode>
        <labels>
            <label2>Forest</label2>
        </labels>
    </sequence>
</xmeml>
