<?xml version="1.0" encoding="UTF-8"?>
<!DOCTYPE xmeml>
<xmeml version="4">
    <sequence id="sequence-2" TL.SQAudioVisibleBase="0" TL.SQVideoVisibleBase="0" TL.SQVisibleBaseTime="0"
              TL.SQAVDividerPosition="0.5" TL.SQHideShyTracks="0" TL.SQHeaderWidth="236"
              Monitor.ProgramZoomOut="2391984000000" Monitor.ProgramZoomIn="0" TL.SQTimePerPixel="0.019847922148488847"
              MZ.EditLine="2836512000000" MZ.Sequence.PreviewFrameSizeHeight="1080"
              MZ.Sequence.PreviewFrameSizeWidth="1920" MZ.Sequence.AudioTimeDisplayFormat="200"
              MZ.Sequence.PreviewRenderingClassID="1297106761" MZ.Sequence.PreviewRenderingPresetCodec="1297107278"
              MZ.Sequence.PreviewRenderingPresetPath="EncoderPresets\SequencePreview\9678af98-a7b7-4bdb-b477-7ac9c8df4a4e\I-Frame Only MPEG.epr"
              MZ.Sequence.PreviewUseMaxRenderQuality="false" MZ.Sequence.PreviewUseMaxBitDepth="false"
              MZ.Sequence.EditingModeGUID="9678af98-a7b7-4bdb-b477-7ac9c8df4a4e"
              MZ.Sequence.VideoTimeDisplayFormat="100" MZ.WorkOutPoint="2540160000000" MZ.WorkInPoint="0"
              MZ.ZeroPoint="0" explodedTracks="true">
        <uuid>06d746c8-382b-42e5-8688-20d8e434a31b</uuid>
        <duration>17218</duration>
        <rate>
            <timebase>23.976</timebase>
            <ntsc>FALSE</ntsc>
        </rate>
        <name>S01E45.Jiggles.mkv</name>
        <media>
            <video>
                <format>
                    <samplecharacteristics>
                        <rate>
                            <timebase>23.976</timebase>
                            <ntsc>FALSE</ntsc>
                        </rate>
                        <codec>
                            <name>Apple ProRes 422</name>
                            <appspecificdata>
                                <appname>Final Cut Pro</appname>
                                <appmanufacturer>Apple Inc.</appmanufacturer>
                                <appversion>7.0</appversion>
                                <data>
                                    <qtcodec>
                                        <codecname>Apple ProRes 422</codecname>
                                        <codectypename>Apple ProRes 422</codectypename>
                                        <codectypecode>apcn</codectypecode>
                                        <codecvendorcode>appl</codecvendorcode>
                                        <spatialquality>1024</spatialquality>
                                        <temporalquality>0</temporalquality>
                                        <keyframerate>0</keyframerate>
                                        <datarate>0</datarate>
                                    </qtcodec>
                                </data>
                            </appspecificdata>
                        </codec>
                        <width>1912</width>
                        <height>1072</height>
                        <anamorphic>FALSE</anamorphic>
                        <pixelaspectratio>square</pixelaspectratio>
                        <fielddominance>none</fielddominance>
                        <colordepth>23.976</colordepth>
                    </samplecharacteristics>
                </format>
                <track TL.SQTrackShy="0" TL.SQTrackExpandedHeight="25" TL.SQTrackExpanded="0" MZ.TrackTargeted="1">
                    <clipitem id="ad71e22c-8a78-4b15-8340-39d6fc14f3f5" premiereChannelType="stereo">
    <masterclipid>masterclip-1</masterclipid>
    <name>S01E45.Jiggles.mkv</name>
    <enabled>TRUE</enabled>
    <duration>17218</duration>
    <rate>
        <timebase>23.976</timebase>
        <ntsc>FALSE</ntsc>
    </rate>
    <start>1</start>
    <end>12</end>
    <in>374</in>
    <out>385</out>
    <file id="file-5">
    <name>S01E45.Jiggles.mkv</name>
    <pathurl>file://localhost/F%3A/xunleiyunpan/S01E45.Jiggles.mkv</pathurl>
    <rate>
        <timebase>23.976</timebase>
        <ntsc>FALSE</ntsc>
    </rate>
    <duration>17218</duration>
    <timecode>
        <rate>
            <timebase>23.976</timebase>
            <ntsc>FALSE</ntsc>
        </rate>
        <string>00:00:00:00</string>
        <frame>0</frame>
        <displayformat>NDF</displayformat>
    </timecode>
    <media>
        <video>
            <samplecharacteristics>
                <rate>
                    <timebase>23.976</timebase>
                    <ntsc>FALSE</ntsc>
                </rate>
                <width>1912</width>
                <height>1072</height>
                <anamorphic>FALSE</anamorphic>
                <pixelaspectratio>square</pixelaspectratio>
                <fielddominance>none</fielddominance>
            </samplecharacteristics>
        </video>
        <audio>
            <samplecharacteristics>
                <depth>16</depth>
                <samplerate>48000</samplerate>
            </samplecharacteristics>
            <channelcount>2</channelcount>
        </audio>
    </media>
</file>
    
    <labels>
        <label2>Iris</label2>
    </labels>
</clipitem>
<clipitem id="8c3553be-4f7b-4731-979b-07b2d8533e17" premiereChannelType="stereo">
    <masterclipid>masterclip-1</masterclipid>
    <name>S01E45.Jiggles.mkv</name>
    <enabled>TRUE</enabled>
    <duration>17218</duration>
    <rate>
        <timebase>23.976</timebase>
        <ntsc>FALSE</ntsc>
    </rate>
    <start>12</start>
    <end>23</end>
    <in>385</in>
    <out>396</out>
    <file id="file-5"/>
    
    <labels>
        <label2>Iris</label2>
    </labels>
</clipitem>
<clipitem id="c0111138-f7fc-4e85-b576-dedc758f7925" premiereChannelType="stereo">
    <masterclipid>masterclip-1</masterclipid>
    <name>S01E45.Jiggles.mkv</name>
    <enabled>TRUE</enabled>
    <duration>17218</duration>
    <rate>
        <timebase>23.976</timebase>
        <ntsc>FALSE</ntsc>
    </rate>
    <start>23</start>
    <end>34</end>
    <in>396</in>
    <out>407</out>
    <file id="file-5"/>
    
    <labels>
        <label2>Iris</label2>
    </labels>
</clipitem>
<clipitem id="2ca4da9e-ad4d-4523-929e-f68b3a8cb057" premiereChannelType="stereo">
    <masterclipid>masterclip-1</masterclipid>
    <name>S01E45.Jiggles.mkv</name>
    <enabled>TRUE</enabled>
    <duration>17218</duration>
    <rate>
        <timebase>23.976</timebase>
        <ntsc>FALSE</ntsc>
    </rate>
    <start>35</start>
    <end>46</end>
    <in>408</in>
    <out>419</out>
    <file id="file-5"/>
    
    <labels>
        <label2>Iris</label2>
    </labels>
</clipitem>
<clipitem id="45d31913-88f0-46f5-82cd-63a9176000bd" premiereChannelType="stereo">
    <masterclipid>masterclip-1</masterclipid>
    <name>S01E45.Jiggles.mkv</name>
    <enabled>TRUE</enabled>
    <duration>17218</duration>
    <rate>
        <timebase>23.976</timebase>
        <ntsc>FALSE</ntsc>
    </rate>
    <start>51</start>
    <end>62</end>
    <in>424</in>
    <out>435</out>
    <file id="file-5"/>
    
    <labels>
        <label2>Iris</label2>
    </labels>
</clipitem>
<clipitem id="1bdcac32-69e3-4b4f-9021-209e8ada7562" premiereChannelType="stereo">
    <masterclipid>masterclip-1</masterclipid>
    <name>S01E45.Jiggles.mkv</name>
    <enabled>TRUE</enabled>
    <duration>17218</duration>
    <rate>
        <timebase>23.976</timebase>
        <ntsc>FALSE</ntsc>
    </rate>
    <start>62</start>
    <end>73</end>
    <in>435</in>
    <out>446</out>
    <file id="file-5"/>
    
    <labels>
        <label2>Iris</label2>
    </labels>
</clipitem>
<clipitem id="35668f22-8a60-4e78-a180-524903987c06" premiereChannelType="stereo">
    <masterclipid>masterclip-1</masterclipid>
    <name>S01E45.Jiggles.mkv</name>
    <enabled>TRUE</enabled>
    <duration>17218</duration>
    <rate>
        <timebase>23.976</timebase>
        <ntsc>FALSE</ntsc>
    </rate>
    <start>73</start>
    <end>86</end>
    <in>446</in>
    <out>459</out>
    <file id="file-5"/>
    
    <labels>
        <label2>Iris</label2>
    </labels>
</clipitem>
<clipitem id="9315277b-1d18-44ec-8cfe-597c20590469" premiereChannelType="stereo">
    <masterclipid>masterclip-1</masterclipid>
    <name>S01E45.Jiggles.mkv</name>
    <enabled>TRUE</enabled>
    <duration>17218</duration>
    <rate>
        <timebase>23.976</timebase>
        <ntsc>FALSE</ntsc>
    </rate>
    <start>86</start>
    <end>97</end>
    <in>459</in>
    <out>470</out>
    <file id="file-5"/>
    
    <labels>
        <label2>Iris</label2>
    </labels>
</clipitem>
<clipitem id="ef2013c4-485c-45ca-861f-7254c234e8ce" premiereChannelType="stereo">
    <masterclipid>masterclip-1</masterclipid>
    <name>S01E45.Jiggles.mkv</name>
    <enabled>TRUE</enabled>
    <duration>17218</duration>
    <rate>
        <timebase>23.976</timebase>
        <ntsc>FALSE</ntsc>
    </rate>
    <start>97</start>
    <end>108</end>
    <in>470</in>
    <out>481</out>
    <file id="file-5"/>
    
    <labels>
        <label2>Iris</label2>
    </labels>
</clipitem>
<clipitem id="7f6a372e-201f-4973-93a2-ea8e23c280a3" premiereChannelType="stereo">
    <masterclipid>masterclip-1</masterclipid>
    <name>S01E45.Jiggles.mkv</name>
    <enabled>TRUE</enabled>
    <duration>17218</duration>
    <rate>
        <timebase>23.976</timebase>
        <ntsc>FALSE</ntsc>
    </rate>
    <start>108</start>
    <end>119</end>
    <in>481</in>
    <out>492</out>
    <file id="file-5"/>
    
    <labels>
        <label2>Iris</label2>
    </labels>
</clipitem>
<clipitem id="9aad6760-cef3-4cb5-9678-9be37486edbe" premiereChannelType="stereo">
    <masterclipid>masterclip-1</masterclipid>
    <name>S01E45.Jiggles.mkv</name>
    <enabled>TRUE</enabled>
    <duration>17218</duration>
    <rate>
        <timebase>23.976</timebase>
        <ntsc>FALSE</ntsc>
    </rate>
    <start>119</start>
    <end>130</end>
    <in>492</in>
    <out>503</out>
    <file id="file-5"/>
    
    <labels>
        <label2>Iris</label2>
    </labels>
</clipitem>
<clipitem id="350e14b1-2c80-476b-9fb9-8966c89b85f5" premiereChannelType="stereo">
    <masterclipid>masterclip-1</masterclipid>
    <name>S01E45.Jiggles.mkv</name>
    <enabled>TRUE</enabled>
    <duration>17218</duration>
    <rate>
        <timebase>23.976</timebase>
        <ntsc>FALSE</ntsc>
    </rate>
    <start>130</start>
    <end>142</end>
    <in>503</in>
    <out>515</out>
    <file id="file-5"/>
    
    <labels>
        <label2>Iris</label2>
    </labels>
</clipitem>
<clipitem id="8a5a19d5-069c-4fca-a408-ae19e4e1aed4" premiereChannelType="stereo">
    <masterclipid>masterclip-1</masterclipid>
    <name>S01E45.Jiggles.mkv</name>
    <enabled>TRUE</enabled>
    <duration>17218</duration>
    <rate>
        <timebase>23.976</timebase>
        <ntsc>FALSE</ntsc>
    </rate>
    <start>142</start>
    <end>156</end>
    <in>516</in>
    <out>530</out>
    <file id="file-5"/>
    
    <labels>
        <label2>Iris</label2>
    </labels>
</clipitem>
<clipitem id="e0ef95c5-31a2-43d4-8f19-e8889c61ec06" premiereChannelType="stereo">
    <masterclipid>masterclip-1</masterclipid>
    <name>S01E45.Jiggles.mkv</name>
    <enabled>TRUE</enabled>
    <duration>17218</duration>
    <rate>
        <timebase>23.976</timebase>
        <ntsc>FALSE</ntsc>
    </rate>
    <start>156</start>
    <end>167</end>
    <in>530</in>
    <out>541</out>
    <file id="file-5"/>
    
    <labels>
        <label2>Iris</label2>
    </labels>
</clipitem>
<clipitem id="cf043d9f-a568-46ac-bf89-bd6620b74c4d" premiereChannelType="stereo">
    <masterclipid>masterclip-1</masterclipid>
    <name>S01E45.Jiggles.mkv</name>
    <enabled>TRUE</enabled>
    <duration>17218</duration>
    <rate>
        <timebase>23.976</timebase>
        <ntsc>FALSE</ntsc>
    </rate>
    <start>167</start>
    <end>181</end>
    <in>541</in>
    <out>555</out>
    <file id="file-5"/>
    
    <labels>
        <label2>Iris</label2>
    </labels>
</clipitem>
<clipitem id="d50ad8e7-b806-4fd6-8229-aec883e2c658" premiereChannelType="stereo">
    <masterclipid>masterclip-1</masterclipid>
    <name>S01E45.Jiggles.mkv</name>
    <enabled>TRUE</enabled>
    <duration>17218</duration>
    <rate>
        <timebase>23.976</timebase>
        <ntsc>FALSE</ntsc>
    </rate>
    <start>181</start>
    <end>195</end>
    <in>555</in>
    <out>569</out>
    <file id="file-5"/>
    
    <labels>
        <label2>Iris</label2>
    </labels>
</clipitem>
<clipitem id="d2db4dd1-4970-4d15-b0f0-f3054ee6b834" premiereChannelType="stereo">
    <masterclipid>masterclip-1</masterclipid>
    <name>S01E45.Jiggles.mkv</name>
    <enabled>TRUE</enabled>
    <duration>17218</duration>
    <rate>
        <timebase>23.976</timebase>
        <ntsc>FALSE</ntsc>
    </rate>
    <start>195</start>
    <end>212</end>
    <in>569</in>
    <out>586</out>
    <file id="file-5"/>
    
    <labels>
        <label2>Iris</label2>
    </labels>
</clipitem>
<clipitem id="d025b792-091c-4ce7-90c8-430e56548ed0" premiereChannelType="stereo">
    <masterclipid>masterclip-1</masterclipid>
    <name>S01E45.Jiggles.mkv</name>
    <enabled>TRUE</enabled>
    <duration>17218</duration>
    <rate>
        <timebase>23.976</timebase>
        <ntsc>FALSE</ntsc>
    </rate>
    <start>212</start>
    <end>361</end>
    <in>585</in>
    <out>734</out>
    <file id="file-5"/>
    
    <labels>
        <label2>Iris</label2>
    </labels>
</clipitem>
<clipitem id="99314416-7632-4404-a4c9-c9f2f904f609" premiereChannelType="stereo">
    <masterclipid>masterclip-1</masterclipid>
    <name>S01E45.Jiggles.mkv</name>
    <enabled>TRUE</enabled>
    <duration>17218</duration>
    <rate>
        <timebase>23.976</timebase>
        <ntsc>FALSE</ntsc>
    </rate>
    <start>361</start>
    <end>372</end>
    <in>735</in>
    <out>746</out>
    <file id="file-5"/>
    
    <labels>
        <label2>Iris</label2>
    </labels>
</clipitem>
<clipitem id="b90898e2-09a0-4fde-a75c-8138e04f1c65" premiereChannelType="stereo">
    <masterclipid>masterclip-1</masterclipid>
    <name>S01E45.Jiggles.mkv</name>
    <enabled>TRUE</enabled>
    <duration>17218</duration>
    <rate>
        <timebase>23.976</timebase>
        <ntsc>FALSE</ntsc>
    </rate>
    <start>372</start>
    <end>383</end>
    <in>746</in>
    <out>757</out>
    <file id="file-5"/>
    
    <labels>
        <label2>Iris</label2>
    </labels>
</clipitem>
<clipitem id="5d3e5d83-e5aa-491a-b180-00f19628cb02" premiereChannelType="stereo">
    <masterclipid>masterclip-1</masterclipid>
    <name>S01E45.Jiggles.mkv</name>
    <enabled>TRUE</enabled>
    <duration>17218</duration>
    <rate>
        <timebase>23.976</timebase>
        <ntsc>FALSE</ntsc>
    </rate>
    <start>383</start>
    <end>404</end>
    <in>757</in>
    <out>778</out>
    <file id="file-5"/>
    
    <labels>
        <label2>Iris</label2>
    </labels>
</clipitem>
<clipitem id="8c2e17ea-a366-41f9-a8f9-f2325d9af930" premiereChannelType="stereo">
    <masterclipid>masterclip-1</masterclipid>
    <name>S01E45.Jiggles.mkv</name>
    <enabled>TRUE</enabled>
    <duration>17218</duration>
    <rate>
        <timebase>23.976</timebase>
        <ntsc>FALSE</ntsc>
    </rate>
    <start>404</start>
    <end>415</end>
    <in>778</in>
    <out>789</out>
    <file id="file-5"/>
    
    <labels>
        <label2>Iris</label2>
    </labels>
</clipitem>
<clipitem id="51636b96-fcf3-46bf-963f-f37416a4ed5d" premiereChannelType="stereo">
    <masterclipid>masterclip-1</masterclipid>
    <name>S01E45.Jiggles.mkv</name>
    <enabled>TRUE</enabled>
    <duration>17218</duration>
    <rate>
        <timebase>23.976</timebase>
        <ntsc>FALSE</ntsc>
    </rate>
    <start>415</start>
    <end>432</end>
    <in>789</in>
    <out>806</out>
    <file id="file-5"/>
    
    <labels>
        <label2>Iris</label2>
    </labels>
</clipitem>
<clipitem id="3baa5ac7-206e-4dfc-a77b-5e716b6314a8" premiereChannelType="stereo">
    <masterclipid>masterclip-1</masterclipid>
    <name>S01E45.Jiggles.mkv</name>
    <enabled>TRUE</enabled>
    <duration>17218</duration>
    <rate>
        <timebase>23.976</timebase>
        <ntsc>FALSE</ntsc>
    </rate>
    <start>432</start>
    <end>443</end>
    <in>806</in>
    <out>817</out>
    <file id="file-5"/>
    
    <labels>
        <label2>Iris</label2>
    </labels>
</clipitem>
<clipitem id="0d58ce83-a652-4afa-aed2-52bd2354d9cd" premiereChannelType="stereo">
    <masterclipid>masterclip-1</masterclipid>
    <name>S01E45.Jiggles.mkv</name>
    <enabled>TRUE</enabled>
    <duration>17218</duration>
    <rate>
        <timebase>23.976</timebase>
        <ntsc>FALSE</ntsc>
    </rate>
    <start>443</start>
    <end>455</end>
    <in>817</in>
    <out>829</out>
    <file id="file-5"/>
    
    <labels>
        <label2>Iris</label2>
    </labels>
</clipitem>
<clipitem id="7ba569c2-f8fe-487d-b744-363578146787" premiereChannelType="stereo">
    <masterclipid>masterclip-1</masterclipid>
    <name>S01E45.Jiggles.mkv</name>
    <enabled>TRUE</enabled>
    <duration>17218</duration>
    <rate>
        <timebase>23.976</timebase>
        <ntsc>FALSE</ntsc>
    </rate>
    <start>455</start>
    <end>467</end>
    <in>828</in>
    <out>840</out>
    <file id="file-5"/>
    
    <labels>
        <label2>Iris</label2>
    </labels>
</clipitem>
<clipitem id="f22eca23-c9de-4c7e-a168-5a3f3e3e5e15" premiereChannelType="stereo">
    <masterclipid>masterclip-1</masterclipid>
    <name>S01E45.Jiggles.mkv</name>
    <enabled>TRUE</enabled>
    <duration>17218</duration>
    <rate>
        <timebase>23.976</timebase>
        <ntsc>FALSE</ntsc>
    </rate>
    <start>467</start>
    <end>481</end>
    <in>841</in>
    <out>855</out>
    <file id="file-5"/>
    
    <labels>
        <label2>Iris</label2>
    </labels>
</clipitem>
<clipitem id="37bdb6fd-382d-4196-964e-10592e636731" premiereChannelType="stereo">
    <masterclipid>masterclip-1</masterclipid>
    <name>S01E45.Jiggles.mkv</name>
    <enabled>TRUE</enabled>
    <duration>17218</duration>
    <rate>
        <timebase>23.976</timebase>
        <ntsc>FALSE</ntsc>
    </rate>
    <start>481</start>
    <end>494</end>
    <in>855</in>
    <out>868</out>
    <file id="file-5"/>
    
    <labels>
        <label2>Iris</label2>
    </labels>
</clipitem>
<clipitem id="015173af-5a71-43aa-975e-668a8bb3e600" premiereChannelType="stereo">
    <masterclipid>masterclip-1</masterclipid>
    <name>S01E45.Jiggles.mkv</name>
    <enabled>TRUE</enabled>
    <duration>17218</duration>
    <rate>
        <timebase>23.976</timebase>
        <ntsc>FALSE</ntsc>
    </rate>
    <start>494</start>
    <end>506</end>
    <in>868</in>
    <out>880</out>
    <file id="file-5"/>
    
    <labels>
        <label2>Iris</label2>
    </labels>
</clipitem>
<clipitem id="9eb4b9cf-633f-48a3-acd2-3fe08740b518" premiereChannelType="stereo">
    <masterclipid>masterclip-1</masterclipid>
    <name>S01E45.Jiggles.mkv</name>
    <enabled>TRUE</enabled>
    <duration>17218</duration>
    <rate>
        <timebase>23.976</timebase>
        <ntsc>FALSE</ntsc>
    </rate>
    <start>506</start>
    <end>520</end>
    <in>879</in>
    <out>893</out>
    <file id="file-5"/>
    
    <labels>
        <label2>Iris</label2>
    </labels>
</clipitem>
<clipitem id="4590b1a3-679a-465e-8738-a532147e7c59" premiereChannelType="stereo">
    <masterclipid>masterclip-1</masterclipid>
    <name>S01E45.Jiggles.mkv</name>
    <enabled>TRUE</enabled>
    <duration>17218</duration>
    <rate>
        <timebase>23.976</timebase>
        <ntsc>FALSE</ntsc>
    </rate>
    <start>520</start>
    <end>533</end>
    <in>894</in>
    <out>907</out>
    <file id="file-5"/>
    
    <labels>
        <label2>Iris</label2>
    </labels>
</clipitem>
<clipitem id="9d352f79-aa87-4c1c-b972-8cfcc62bc198" premiereChannelType="stereo">
    <masterclipid>masterclip-1</masterclipid>
    <name>S01E45.Jiggles.mkv</name>
    <enabled>TRUE</enabled>
    <duration>17218</duration>
    <rate>
        <timebase>23.976</timebase>
        <ntsc>FALSE</ntsc>
    </rate>
    <start>533</start>
    <end>558</end>
    <in>907</in>
    <out>932</out>
    <file id="file-5"/>
    
    <labels>
        <label2>Iris</label2>
    </labels>
</clipitem>
<clipitem id="3a0fafe4-eb04-4efd-a1a0-667a7360a7a0" premiereChannelType="stereo">
    <masterclipid>masterclip-1</masterclipid>
    <name>S01E45.Jiggles.mkv</name>
    <enabled>TRUE</enabled>
    <duration>17218</duration>
    <rate>
        <timebase>23.976</timebase>
        <ntsc>FALSE</ntsc>
    </rate>
    <start>558</start>
    <end>569</end>
    <in>932</in>
    <out>943</out>
    <file id="file-5"/>
    
    <labels>
        <label2>Iris</label2>
    </labels>
</clipitem>
<clipitem id="c80f96a9-5003-42d6-87e4-6f02650e5fb6" premiereChannelType="stereo">
    <masterclipid>masterclip-1</masterclipid>
    <name>S01E45.Jiggles.mkv</name>
    <enabled>TRUE</enabled>
    <duration>17218</duration>
    <rate>
        <timebase>23.976</timebase>
        <ntsc>FALSE</ntsc>
    </rate>
    <start>569</start>
    <end>580</end>
    <in>943</in>
    <out>954</out>
    <file id="file-5"/>
    
    <labels>
        <label2>Iris</label2>
    </labels>
</clipitem>
<clipitem id="fc7d2f63-e42d-4bf7-9792-e4059c7d186c" premiereChannelType="stereo">
    <masterclipid>masterclip-1</masterclipid>
    <name>S01E45.Jiggles.mkv</name>
    <enabled>TRUE</enabled>
    <duration>17218</duration>
    <rate>
        <timebase>23.976</timebase>
        <ntsc>FALSE</ntsc>
    </rate>
    <start>580</start>
    <end>591</end>
    <in>954</in>
    <out>965</out>
    <file id="file-5"/>
    
    <labels>
        <label2>Iris</label2>
    </labels>
</clipitem>
<clipitem id="4b47174c-bded-4562-ba18-8e283a147517" premiereChannelType="stereo">
    <masterclipid>masterclip-1</masterclipid>
    <name>S01E45.Jiggles.mkv</name>
    <enabled>TRUE</enabled>
    <duration>17218</duration>
    <rate>
        <timebase>23.976</timebase>
        <ntsc>FALSE</ntsc>
    </rate>
    <start>591</start>
    <end>602</end>
    <in>965</in>
    <out>976</out>
    <file id="file-5"/>
    
    <labels>
        <label2>Iris</label2>
    </labels>
</clipitem>
<clipitem id="30136ccf-67b8-4242-b329-9359851c7a0f" premiereChannelType="stereo">
    <masterclipid>masterclip-1</masterclipid>
    <name>S01E45.Jiggles.mkv</name>
    <enabled>TRUE</enabled>
    <duration>17218</duration>
    <rate>
        <timebase>23.976</timebase>
        <ntsc>FALSE</ntsc>
    </rate>
    <start>602</start>
    <end>613</end>
    <in>976</in>
    <out>987</out>
    <file id="file-5"/>
    
    <labels>
        <label2>Iris</label2>
    </labels>
</clipitem>
<clipitem id="edf3f361-a46b-443c-af65-73544905d2ac" premiereChannelType="stereo">
    <masterclipid>masterclip-1</masterclipid>
    <name>S01E45.Jiggles.mkv</name>
    <enabled>TRUE</enabled>
    <duration>17218</duration>
    <rate>
        <timebase>23.976</timebase>
        <ntsc>FALSE</ntsc>
    </rate>
    <start>613</start>
    <end>624</end>
    <in>987</in>
    <out>998</out>
    <file id="file-5"/>
    
    <labels>
        <label2>Iris</label2>
    </labels>
</clipitem>
<clipitem id="7bffafb8-79d2-4cd5-be83-ae71c1e7ca84" premiereChannelType="stereo">
    <masterclipid>masterclip-1</masterclipid>
    <name>S01E45.Jiggles.mkv</name>
    <enabled>TRUE</enabled>
    <duration>17218</duration>
    <rate>
        <timebase>23.976</timebase>
        <ntsc>FALSE</ntsc>
    </rate>
    <start>624</start>
    <end>636</end>
    <in>998</in>
    <out>1010</out>
    <file id="file-5"/>
    
    <labels>
        <label2>Iris</label2>
    </labels>
</clipitem>
<clipitem id="b303150d-3395-44b0-b4d0-6d71d4b455d1" premiereChannelType="stereo">
    <masterclipid>masterclip-1</masterclipid>
    <name>S01E45.Jiggles.mkv</name>
    <enabled>TRUE</enabled>
    <duration>17218</duration>
    <rate>
        <timebase>23.976</timebase>
        <ntsc>FALSE</ntsc>
    </rate>
    <start>636</start>
    <end>647</end>
    <in>1010</in>
    <out>1021</out>
    <file id="file-5"/>
    
    <labels>
        <label2>Iris</label2>
    </labels>
</clipitem>
<clipitem id="e171ff1b-1770-4cb5-b7a3-9498df27fda6" premiereChannelType="stereo">
    <masterclipid>masterclip-1</masterclipid>
    <name>S01E45.Jiggles.mkv</name>
    <enabled>TRUE</enabled>
    <duration>17218</duration>
    <rate>
        <timebase>23.976</timebase>
        <ntsc>FALSE</ntsc>
    </rate>
    <start>647</start>
    <end>663</end>
    <in>1021</in>
    <out>1037</out>
    <file id="file-5"/>
    
    <labels>
        <label2>Iris</label2>
    </labels>
</clipitem>
<clipitem id="b95930ff-b964-4838-a5d5-327056953205" premiereChannelType="stereo">
    <masterclipid>masterclip-1</masterclipid>
    <name>S01E45.Jiggles.mkv</name>
    <enabled>TRUE</enabled>
    <duration>17218</duration>
    <rate>
        <timebase>23.976</timebase>
        <ntsc>FALSE</ntsc>
    </rate>
    <start>663</start>
    <end>679</end>
    <in>1038</in>
    <out>1054</out>
    <file id="file-5"/>
    
    <labels>
        <label2>Iris</label2>
    </labels>
</clipitem>
<clipitem id="7497da00-8911-4a30-8c59-e23d3906816a" premiereChannelType="stereo">
    <masterclipid>masterclip-1</masterclipid>
    <name>S01E45.Jiggles.mkv</name>
    <enabled>TRUE</enabled>
    <duration>17218</duration>
    <rate>
        <timebase>23.976</timebase>
        <ntsc>FALSE</ntsc>
    </rate>
    <start>679</start>
    <end>690</end>
    <in>1053</in>
    <out>1064</out>
    <file id="file-5"/>
    
    <labels>
        <label2>Iris</label2>
    </labels>
</clipitem>
<clipitem id="c641ba0d-56d6-427c-9c18-6d98002402c6" premiereChannelType="stereo">
    <masterclipid>masterclip-1</masterclipid>
    <name>S01E45.Jiggles.mkv</name>
    <enabled>TRUE</enabled>
    <duration>17218</duration>
    <rate>
        <timebase>23.976</timebase>
        <ntsc>FALSE</ntsc>
    </rate>
    <start>690</start>
    <end>701</end>
    <in>1064</in>
    <out>1075</out>
    <file id="file-5"/>
    
    <labels>
        <label2>Iris</label2>
    </labels>
</clipitem>
<clipitem id="b2ee414f-0a83-4076-9ab9-1416a7701334" premiereChannelType="stereo">
    <masterclipid>masterclip-1</masterclipid>
    <name>S01E45.Jiggles.mkv</name>
    <enabled>TRUE</enabled>
    <duration>17218</duration>
    <rate>
        <timebase>23.976</timebase>
        <ntsc>FALSE</ntsc>
    </rate>
    <start>701</start>
    <end>714</end>
    <in>1075</in>
    <out>1088</out>
    <file id="file-5"/>
    
    <labels>
        <label2>Iris</label2>
    </labels>
</clipitem>
<clipitem id="cbc8a49e-9f28-47c3-a079-5ada73b66119" premiereChannelType="stereo">
    <masterclipid>masterclip-1</masterclipid>
    <name>S01E45.Jiggles.mkv</name>
    <enabled>TRUE</enabled>
    <duration>17218</duration>
    <rate>
        <timebase>23.976</timebase>
        <ntsc>FALSE</ntsc>
    </rate>
    <start>714</start>
    <end>726</end>
    <in>1088</in>
    <out>1100</out>
    <file id="file-5"/>
    
    <labels>
        <label2>Iris</label2>
    </labels>
</clipitem>
<clipitem id="9ea813cf-162b-478f-85ba-90b5637ddfbe" premiereChannelType="stereo">
    <masterclipid>masterclip-1</masterclipid>
    <name>S01E45.Jiggles.mkv</name>
    <enabled>TRUE</enabled>
    <duration>17218</duration>
    <rate>
        <timebase>23.976</timebase>
        <ntsc>FALSE</ntsc>
    </rate>
    <start>726</start>
    <end>745</end>
    <in>1100</in>
    <out>1119</out>
    <file id="file-5"/>
    
    <labels>
        <label2>Iris</label2>
    </labels>
</clipitem>
<clipitem id="26fbefc7-dfd2-45d7-bf19-167902a7b160" premiereChannelType="stereo">
    <masterclipid>masterclip-1</masterclipid>
    <name>S01E45.Jiggles.mkv</name>
    <enabled>TRUE</enabled>
    <duration>17218</duration>
    <rate>
        <timebase>23.976</timebase>
        <ntsc>FALSE</ntsc>
    </rate>
    <start>745</start>
    <end>756</end>
    <in>1132</in>
    <out>1143</out>
    <file id="file-5"/>
    
    <labels>
        <label2>Iris</label2>
    </labels>
</clipitem>
<clipitem id="4c89c7e7-3d03-4b48-9c32-d023a9ce620d" premiereChannelType="stereo">
    <masterclipid>masterclip-1</masterclipid>
    <name>S01E45.Jiggles.mkv</name>
    <enabled>TRUE</enabled>
    <duration>17218</duration>
    <rate>
        <timebase>23.976</timebase>
        <ntsc>FALSE</ntsc>
    </rate>
    <start>756</start>
    <end>772</end>
    <in>1130</in>
    <out>1146</out>
    <file id="file-5"/>
    
    <labels>
        <label2>Iris</label2>
    </labels>
</clipitem>
<clipitem id="6975192d-1e16-43ce-bf23-d06f06685a06" premiereChannelType="stereo">
    <masterclipid>masterclip-1</masterclipid>
    <name>S01E45.Jiggles.mkv</name>
    <enabled>TRUE</enabled>
    <duration>17218</duration>
    <rate>
        <timebase>23.976</timebase>
        <ntsc>FALSE</ntsc>
    </rate>
    <start>772</start>
    <end>791</end>
    <in>1146</in>
    <out>1165</out>
    <file id="file-5"/>
    
    <labels>
        <label2>Iris</label2>
    </labels>
</clipitem>
<clipitem id="f771ac46-e910-41db-a282-fcef474988f2" premiereChannelType="stereo">
    <masterclipid>masterclip-1</masterclipid>
    <name>S01E45.Jiggles.mkv</name>
    <enabled>TRUE</enabled>
    <duration>17218</duration>
    <rate>
        <timebase>23.976</timebase>
        <ntsc>FALSE</ntsc>
    </rate>
    <start>791</start>
    <end>831</end>
    <in>1165</in>
    <out>1205</out>
    <file id="file-5"/>
    
    <labels>
        <label2>Iris</label2>
    </labels>
</clipitem>
<clipitem id="a53a2802-ca0c-467b-8ad7-21e97d509e27" premiereChannelType="stereo">
    <masterclipid>masterclip-1</masterclipid>
    <name>S01E45.Jiggles.mkv</name>
    <enabled>TRUE</enabled>
    <duration>17218</duration>
    <rate>
        <timebase>23.976</timebase>
        <ntsc>FALSE</ntsc>
    </rate>
    <start>831</start>
    <end>842</end>
    <in>1207</in>
    <out>1218</out>
    <file id="file-5"/>
    
    <labels>
        <label2>Iris</label2>
    </labels>
</clipitem>
<clipitem id="c5684e6d-eb3d-4c78-9ed4-2c16a4c1b689" premiereChannelType="stereo">
    <masterclipid>masterclip-1</masterclipid>
    <name>S01E45.Jiggles.mkv</name>
    <enabled>TRUE</enabled>
    <duration>17218</duration>
    <rate>
        <timebase>23.976</timebase>
        <ntsc>FALSE</ntsc>
    </rate>
    <start>842</start>
    <end>875</end>
    <in>1216</in>
    <out>1249</out>
    <file id="file-5"/>
    
    <labels>
        <label2>Iris</label2>
    </labels>
</clipitem>
<clipitem id="00ba9c66-8e03-403a-adc3-27f9b47708d4" premiereChannelType="stereo">
    <masterclipid>masterclip-1</masterclipid>
    <name>S01E45.Jiggles.mkv</name>
    <enabled>TRUE</enabled>
    <duration>17218</duration>
    <rate>
        <timebase>23.976</timebase>
        <ntsc>FALSE</ntsc>
    </rate>
    <start>875</start>
    <end>893</end>
    <in>1249</in>
    <out>1267</out>
    <file id="file-5"/>
    
    <labels>
        <label2>Iris</label2>
    </labels>
</clipitem>
<clipitem id="45b6ccc3-5555-4c87-bcbf-946ae43fd57a" premiereChannelType="stereo">
    <masterclipid>masterclip-1</masterclipid>
    <name>S01E45.Jiggles.mkv</name>
    <enabled>TRUE</enabled>
    <duration>17218</duration>
    <rate>
        <timebase>23.976</timebase>
        <ntsc>FALSE</ntsc>
    </rate>
    <start>893</start>
    <end>906</end>
    <in>1267</in>
    <out>1280</out>
    <file id="file-5"/>
    
    <labels>
        <label2>Iris</label2>
    </labels>
</clipitem>
<clipitem id="a53af31c-572d-4b1a-9631-6a8605b80fc2" premiereChannelType="stereo">
    <masterclipid>masterclip-1</masterclipid>
    <name>S01E45.Jiggles.mkv</name>
    <enabled>TRUE</enabled>
    <duration>17218</duration>
    <rate>
        <timebase>23.976</timebase>
        <ntsc>FALSE</ntsc>
    </rate>
    <start>945</start>
    <end>998</end>
    <in>1356</in>
    <out>1409</out>
    <file id="file-5"/>
    
    <labels>
        <label2>Iris</label2>
    </labels>
</clipitem>
<clipitem id="8bb2dda9-4498-4549-803d-27f6e98f4f63" premiereChannelType="stereo">
    <masterclipid>masterclip-1</masterclipid>
    <name>S01E45.Jiggles.mkv</name>
    <enabled>TRUE</enabled>
    <duration>17218</duration>
    <rate>
        <timebase>23.976</timebase>
        <ntsc>FALSE</ntsc>
    </rate>
    <start>998</start>
    <end>1058</end>
    <in>1414</in>
    <out>1474</out>
    <file id="file-5"/>
    
    <labels>
        <label2>Iris</label2>
    </labels>
</clipitem>
<clipitem id="4a4e9895-d20a-427b-baa1-37f29c836e24" premiereChannelType="stereo">
    <masterclipid>masterclip-1</masterclipid>
    <name>S01E45.Jiggles.mkv</name>
    <enabled>TRUE</enabled>
    <duration>17218</duration>
    <rate>
        <timebase>23.976</timebase>
        <ntsc>FALSE</ntsc>
    </rate>
    <start>1058</start>
    <end>1118</end>
    <in>1474</in>
    <out>1534</out>
    <file id="file-5"/>
    
    <labels>
        <label2>Iris</label2>
    </labels>
</clipitem>
<clipitem id="68f8d4f6-633c-4adc-9cd2-391a7c6615e1" premiereChannelType="stereo">
    <masterclipid>masterclip-1</masterclipid>
    <name>S01E45.Jiggles.mkv</name>
    <enabled>TRUE</enabled>
    <duration>17218</duration>
    <rate>
        <timebase>23.976</timebase>
        <ntsc>FALSE</ntsc>
    </rate>
    <start>1118</start>
    <end>1172</end>
    <in>1538</in>
    <out>1592</out>
    <file id="file-5"/>
    
    <labels>
        <label2>Iris</label2>
    </labels>
</clipitem>
<clipitem id="13363919-ed28-419f-9d20-6aeef5b4aa26" premiereChannelType="stereo">
    <masterclipid>masterclip-1</masterclipid>
    <name>S01E45.Jiggles.mkv</name>
    <enabled>TRUE</enabled>
    <duration>17218</duration>
    <rate>
        <timebase>23.976</timebase>
        <ntsc>FALSE</ntsc>
    </rate>
    <start>1172</start>
    <end>1184</end>
    <in>1590</in>
    <out>1602</out>
    <file id="file-5"/>
    
    <labels>
        <label2>Iris</label2>
    </labels>
</clipitem>
<clipitem id="96d6e945-d534-4e7f-9066-fe91ed9dac4e" premiereChannelType="stereo">
    <masterclipid>masterclip-1</masterclipid>
    <name>S01E45.Jiggles.mkv</name>
    <enabled>TRUE</enabled>
    <duration>17218</duration>
    <rate>
        <timebase>23.976</timebase>
        <ntsc>FALSE</ntsc>
    </rate>
    <start>1184</start>
    <end>1195</end>
    <in>0</in>
    <out>11</out>
    <file id="file-5"/>
    
    <labels>
        <label2>Iris</label2>
    </labels>
</clipitem>
<clipitem id="8dabe819-9bb4-48a5-a0c3-783626862b97" premiereChannelType="stereo">
    <masterclipid>masterclip-1</masterclipid>
    <name>S01E45.Jiggles.mkv</name>
    <enabled>TRUE</enabled>
    <duration>17218</duration>
    <rate>
        <timebase>23.976</timebase>
        <ntsc>FALSE</ntsc>
    </rate>
    <start>1195</start>
    <end>1215</end>
    <in>1609</in>
    <out>1629</out>
    <file id="file-5"/>
    
    <labels>
        <label2>Iris</label2>
    </labels>
</clipitem>
<clipitem id="8c46ffda-b796-4525-af1f-0db1f6fadb89" premiereChannelType="stereo">
    <masterclipid>masterclip-1</masterclipid>
    <name>S01E45.Jiggles.mkv</name>
    <enabled>TRUE</enabled>
    <duration>17218</duration>
    <rate>
        <timebase>23.976</timebase>
        <ntsc>FALSE</ntsc>
    </rate>
    <start>1215</start>
    <end>1226</end>
    <in>1633</in>
    <out>1644</out>
    <file id="file-5"/>
    
    <labels>
        <label2>Iris</label2>
    </labels>
</clipitem>
<clipitem id="a324fc08-ea9f-4d63-bf3c-2812c6a7c436" premiereChannelType="stereo">
    <masterclipid>masterclip-1</masterclipid>
    <name>S01E45.Jiggles.mkv</name>
    <enabled>TRUE</enabled>
    <duration>17218</duration>
    <rate>
        <timebase>23.976</timebase>
        <ntsc>FALSE</ntsc>
    </rate>
    <start>1226</start>
    <end>1237</end>
    <in>1644</in>
    <out>1655</out>
    <file id="file-5"/>
    
    <labels>
        <label2>Iris</label2>
    </labels>
</clipitem>
<clipitem id="d31a5061-de67-4b0a-a8ea-294895bb1d15" premiereChannelType="stereo">
    <masterclipid>masterclip-1</masterclipid>
    <name>S01E45.Jiggles.mkv</name>
    <enabled>TRUE</enabled>
    <duration>17218</duration>
    <rate>
        <timebase>23.976</timebase>
        <ntsc>FALSE</ntsc>
    </rate>
    <start>1237</start>
    <end>1248</end>
    <in>1655</in>
    <out>1666</out>
    <file id="file-5"/>
    
    <labels>
        <label2>Iris</label2>
    </labels>
</clipitem>
<clipitem id="6100c374-8eca-4a58-a681-eb90bc9f08e9" premiereChannelType="stereo">
    <masterclipid>masterclip-1</masterclipid>
    <name>S01E45.Jiggles.mkv</name>
    <enabled>TRUE</enabled>
    <duration>17218</duration>
    <rate>
        <timebase>23.976</timebase>
        <ntsc>FALSE</ntsc>
    </rate>
    <start>1248</start>
    <end>1259</end>
    <in>1666</in>
    <out>1677</out>
    <file id="file-5"/>
    
    <labels>
        <label2>Iris</label2>
    </labels>
</clipitem>
<clipitem id="8ca3388b-682e-4535-844f-0417b1894226" premiereChannelType="stereo">
    <masterclipid>masterclip-1</masterclipid>
    <name>S01E45.Jiggles.mkv</name>
    <enabled>TRUE</enabled>
    <duration>17218</duration>
    <rate>
        <timebase>23.976</timebase>
        <ntsc>FALSE</ntsc>
    </rate>
    <start>1259</start>
    <end>1294</end>
    <in>1677</in>
    <out>1712</out>
    <file id="file-5"/>
    
    <labels>
        <label2>Iris</label2>
    </labels>
</clipitem>
<clipitem id="dee14934-064d-457b-8358-0384d9b6c83b" premiereChannelType="stereo">
    <masterclipid>masterclip-1</masterclipid>
    <name>S01E45.Jiggles.mkv</name>
    <enabled>TRUE</enabled>
    <duration>17218</duration>
    <rate>
        <timebase>23.976</timebase>
        <ntsc>FALSE</ntsc>
    </rate>
    <start>1294</start>
    <end>1320</end>
    <in>1712</in>
    <out>1738</out>
    <file id="file-5"/>
    
    <labels>
        <label2>Iris</label2>
    </labels>
</clipitem>
<clipitem id="84d86bfc-4db5-4264-aac9-146124263118" premiereChannelType="stereo">
    <masterclipid>masterclip-1</masterclipid>
    <name>S01E45.Jiggles.mkv</name>
    <enabled>TRUE</enabled>
    <duration>17218</duration>
    <rate>
        <timebase>23.976</timebase>
        <ntsc>FALSE</ntsc>
    </rate>
    <start>1320</start>
    <end>1331</end>
    <in>1738</in>
    <out>1749</out>
    <file id="file-5"/>
    
    <labels>
        <label2>Iris</label2>
    </labels>
</clipitem>
<clipitem id="4fed1bd4-5be6-4568-859f-bf36a5b1ff70" premiereChannelType="stereo">
    <masterclipid>masterclip-1</masterclipid>
    <name>S01E45.Jiggles.mkv</name>
    <enabled>TRUE</enabled>
    <duration>17218</duration>
    <rate>
        <timebase>23.976</timebase>
        <ntsc>FALSE</ntsc>
    </rate>
    <start>1331</start>
    <end>1371</end>
    <in>1749</in>
    <out>1789</out>
    <file id="file-5"/>
    
    <labels>
        <label2>Iris</label2>
    </labels>
</clipitem>
<clipitem id="4fe590e9-d4d5-4f70-a5ef-10d039754def" premiereChannelType="stereo">
    <masterclipid>masterclip-1</masterclipid>
    <name>S01E45.Jiggles.mkv</name>
    <enabled>TRUE</enabled>
    <duration>17218</duration>
    <rate>
        <timebase>23.976</timebase>
        <ntsc>FALSE</ntsc>
    </rate>
    <start>1371</start>
    <end>1385</end>
    <in>1789</in>
    <out>1803</out>
    <file id="file-5"/>
    
    <labels>
        <label2>Iris</label2>
    </labels>
</clipitem>
<clipitem id="f430d17b-4312-4acc-b676-e37f7a78e097" premiereChannelType="stereo">
    <masterclipid>masterclip-1</masterclipid>
    <name>S01E45.Jiggles.mkv</name>
    <enabled>TRUE</enabled>
    <duration>17218</duration>
    <rate>
        <timebase>23.976</timebase>
        <ntsc>FALSE</ntsc>
    </rate>
    <start>1385</start>
    <end>1396</end>
    <in>1803</in>
    <out>1814</out>
    <file id="file-5"/>
    
    <labels>
        <label2>Iris</label2>
    </labels>
</clipitem>
<clipitem id="9ff5d4ae-6efd-4bca-8ba9-0cea02bcc0dd" premiereChannelType="stereo">
    <masterclipid>masterclip-1</masterclipid>
    <name>S01E45.Jiggles.mkv</name>
    <enabled>TRUE</enabled>
    <duration>17218</duration>
    <rate>
        <timebase>23.976</timebase>
        <ntsc>FALSE</ntsc>
    </rate>
    <start>1396</start>
    <end>1407</end>
    <in>1814</in>
    <out>1825</out>
    <file id="file-5"/>
    
    <labels>
        <label2>Iris</label2>
    </labels>
</clipitem>
<clipitem id="0f8f96de-0c73-43ca-be30-12dca19b6211" premiereChannelType="stereo">
    <masterclipid>masterclip-1</masterclipid>
    <name>S01E45.Jiggles.mkv</name>
    <enabled>TRUE</enabled>
    <duration>17218</duration>
    <rate>
        <timebase>23.976</timebase>
        <ntsc>FALSE</ntsc>
    </rate>
    <start>1407</start>
    <end>1433</end>
    <in>1825</in>
    <out>1851</out>
    <file id="file-5"/>
    
    <labels>
        <label2>Iris</label2>
    </labels>
</clipitem>
<clipitem id="f78ec3e4-8ddd-4f1e-973a-d2f44d646e06" premiereChannelType="stereo">
    <masterclipid>masterclip-1</masterclipid>
    <name>S01E45.Jiggles.mkv</name>
    <enabled>TRUE</enabled>
    <duration>17218</duration>
    <rate>
        <timebase>23.976</timebase>
        <ntsc>FALSE</ntsc>
    </rate>
    <start>1433</start>
    <end>2410</end>
    <in>1850</in>
    <out>2827</out>
    <file id="file-5"/>
    
    <labels>
        <label2>Iris</label2>
    </labels>
</clipitem>
<clipitem id="c5f7081c-4892-4766-9ddf-61d6e6e32d5e" premiereChannelType="stereo">
    <masterclipid>masterclip-1</masterclipid>
    <name>S01E45.Jiggles.mkv</name>
    <enabled>TRUE</enabled>
    <duration>17218</duration>
    <rate>
        <timebase>23.976</timebase>
        <ntsc>FALSE</ntsc>
    </rate>
    <start>2410</start>
    <end>2421</end>
    <in>2827</in>
    <out>2838</out>
    <file id="file-5"/>
    
    <labels>
        <label2>Iris</label2>
    </labels>
</clipitem>
<clipitem id="912965a0-8095-4b5c-a77a-ea4a27e2de5d" premiereChannelType="stereo">
    <masterclipid>masterclip-1</masterclipid>
    <name>S01E45.Jiggles.mkv</name>
    <enabled>TRUE</enabled>
    <duration>17218</duration>
    <rate>
        <timebase>23.976</timebase>
        <ntsc>FALSE</ntsc>
    </rate>
    <start>2421</start>
    <end>2432</end>
    <in>2838</in>
    <out>2849</out>
    <file id="file-5"/>
    
    <labels>
        <label2>Iris</label2>
    </labels>
</clipitem>
<clipitem id="f375e515-afe0-41c3-92a7-1aa2ce94ad08" premiereChannelType="stereo">
    <masterclipid>masterclip-1</masterclipid>
    <name>S01E45.Jiggles.mkv</name>
    <enabled>TRUE</enabled>
    <duration>17218</duration>
    <rate>
        <timebase>23.976</timebase>
        <ntsc>FALSE</ntsc>
    </rate>
    <start>2432</start>
    <end>2443</end>
    <in>2849</in>
    <out>2860</out>
    <file id="file-5"/>
    
    <labels>
        <label2>Iris</label2>
    </labels>
</clipitem>
<clipitem id="5bfd0be6-0a33-4854-9a7c-3aef6952399a" premiereChannelType="stereo">
    <masterclipid>masterclip-1</masterclipid>
    <name>S01E45.Jiggles.mkv</name>
    <enabled>TRUE</enabled>
    <duration>17218</duration>
    <rate>
        <timebase>23.976</timebase>
        <ntsc>FALSE</ntsc>
    </rate>
    <start>2443</start>
    <end>2454</end>
    <in>2860</in>
    <out>2871</out>
    <file id="file-5"/>
    
    <labels>
        <label2>Iris</label2>
    </labels>
</clipitem>
<clipitem id="4e71eda4-9cb0-46af-a8f4-aedb1c79633f" premiereChannelType="stereo">
    <masterclipid>masterclip-1</masterclipid>
    <name>S01E45.Jiggles.mkv</name>
    <enabled>TRUE</enabled>
    <duration>17218</duration>
    <rate>
        <timebase>23.976</timebase>
        <ntsc>FALSE</ntsc>
    </rate>
    <start>2454</start>
    <end>2472</end>
    <in>2871</in>
    <out>2889</out>
    <file id="file-5"/>
    
    <labels>
        <label2>Iris</label2>
    </labels>
</clipitem>
<clipitem id="547f3b28-4643-4c05-9c7c-56a4234ee50e" premiereChannelType="stereo">
    <masterclipid>masterclip-1</masterclipid>
    <name>S01E45.Jiggles.mkv</name>
    <enabled>TRUE</enabled>
    <duration>17218</duration>
    <rate>
        <timebase>23.976</timebase>
        <ntsc>FALSE</ntsc>
    </rate>
    <start>2472</start>
    <end>2570</end>
    <in>2888</in>
    <out>2986</out>
    <file id="file-5"/>
    
    <labels>
        <label2>Iris</label2>
    </labels>
</clipitem>
<clipitem id="6730069c-43fb-43d3-9af8-75331ba1c3aa" premiereChannelType="stereo">
    <masterclipid>masterclip-1</masterclipid>
    <name>S01E45.Jiggles.mkv</name>
    <enabled>TRUE</enabled>
    <duration>17218</duration>
    <rate>
        <timebase>23.976</timebase>
        <ntsc>FALSE</ntsc>
    </rate>
    <start>2573</start>
    <end>2584</end>
    <in>2990</in>
    <out>3001</out>
    <file id="file-5"/>
    
    <labels>
        <label2>Iris</label2>
    </labels>
</clipitem>
<clipitem id="37eacba1-d4d2-4024-9d32-e65b9bc153dd" premiereChannelType="stereo">
    <masterclipid>masterclip-1</masterclipid>
    <name>S01E45.Jiggles.mkv</name>
    <enabled>TRUE</enabled>
    <duration>17218</duration>
    <rate>
        <timebase>23.976</timebase>
        <ntsc>FALSE</ntsc>
    </rate>
    <start>2603</start>
    <end>2618</end>
    <in>3020</in>
    <out>3035</out>
    <file id="file-5"/>
    
    <labels>
        <label2>Iris</label2>
    </labels>
</clipitem>
<clipitem id="9ffa9c53-add4-4142-92ae-7f9fc47371c9" premiereChannelType="stereo">
    <masterclipid>masterclip-1</masterclipid>
    <name>S01E45.Jiggles.mkv</name>
    <enabled>TRUE</enabled>
    <duration>17218</duration>
    <rate>
        <timebase>23.976</timebase>
        <ntsc>FALSE</ntsc>
    </rate>
    <start>2618</start>
    <end>2634</end>
    <in>3035</in>
    <out>3051</out>
    <file id="file-5"/>
    
    <labels>
        <label2>Iris</label2>
    </labels>
</clipitem>
<clipitem id="5ed5a57a-6328-4041-9941-1200c576e454" premiereChannelType="stereo">
    <masterclipid>masterclip-1</masterclipid>
    <name>S01E45.Jiggles.mkv</name>
    <enabled>TRUE</enabled>
    <duration>17218</duration>
    <rate>
        <timebase>23.976</timebase>
        <ntsc>FALSE</ntsc>
    </rate>
    <start>2634</start>
    <end>2665</end>
    <in>3051</in>
    <out>3082</out>
    <file id="file-5"/>
    
    <labels>
        <label2>Iris</label2>
    </labels>
</clipitem>
<clipitem id="fc943c32-2626-4c10-aace-b27229ed6b16" premiereChannelType="stereo">
    <masterclipid>masterclip-1</masterclipid>
    <name>S01E45.Jiggles.mkv</name>
    <enabled>TRUE</enabled>
    <duration>17218</duration>
    <rate>
        <timebase>23.976</timebase>
        <ntsc>FALSE</ntsc>
    </rate>
    <start>2665</start>
    <end>2676</end>
    <in>3082</in>
    <out>3093</out>
    <file id="file-5"/>
    
    <labels>
        <label2>Iris</label2>
    </labels>
</clipitem>
<clipitem id="1393297e-b5c2-4073-a6aa-1ee3039b38c4" premiereChannelType="stereo">
    <masterclipid>masterclip-1</masterclipid>
    <name>S01E45.Jiggles.mkv</name>
    <enabled>TRUE</enabled>
    <duration>17218</duration>
    <rate>
        <timebase>23.976</timebase>
        <ntsc>FALSE</ntsc>
    </rate>
    <start>2676</start>
    <end>2687</end>
    <in>3093</in>
    <out>3104</out>
    <file id="file-5"/>
    
    <labels>
        <label2>Iris</label2>
    </labels>
</clipitem>
<clipitem id="9c56d2bb-31f6-4512-aebf-45cd2e04e892" premiereChannelType="stereo">
    <masterclipid>masterclip-1</masterclipid>
    <name>S01E45.Jiggles.mkv</name>
    <enabled>TRUE</enabled>
    <duration>17218</duration>
    <rate>
        <timebase>23.976</timebase>
        <ntsc>FALSE</ntsc>
    </rate>
    <start>2687</start>
    <end>2726</end>
    <in>3104</in>
    <out>3143</out>
    <file id="file-5"/>
    
    <labels>
        <label2>Iris</label2>
    </labels>
</clipitem>
<clipitem id="06e4e08c-a34a-4f13-8174-964e0931aa69" premiereChannelType="stereo">
    <masterclipid>masterclip-1</masterclipid>
    <name>S01E45.Jiggles.mkv</name>
    <enabled>TRUE</enabled>
    <duration>17218</duration>
    <rate>
        <timebase>23.976</timebase>
        <ntsc>FALSE</ntsc>
    </rate>
    <start>2726</start>
    <end>2822</end>
    <in>3142</in>
    <out>3238</out>
    <file id="file-5"/>
    
    <labels>
        <label2>Iris</label2>
    </labels>
</clipitem>
<clipitem id="af4bb0ef-993b-4948-a394-f676a84f7e25" premiereChannelType="stereo">
    <masterclipid>masterclip-1</masterclipid>
    <name>S01E45.Jiggles.mkv</name>
    <enabled>TRUE</enabled>
    <duration>17218</duration>
    <rate>
        <timebase>23.976</timebase>
        <ntsc>FALSE</ntsc>
    </rate>
    <start>2822</start>
    <end>2835</end>
    <in>3239</in>
    <out>3252</out>
    <file id="file-5"/>
    
    <labels>
        <label2>Iris</label2>
    </labels>
</clipitem>
<clipitem id="66579c38-4d13-4ac9-ae27-d7a96415a20f" premiereChannelType="stereo">
    <masterclipid>masterclip-1</masterclipid>
    <name>S01E45.Jiggles.mkv</name>
    <enabled>TRUE</enabled>
    <duration>17218</duration>
    <rate>
        <timebase>23.976</timebase>
        <ntsc>FALSE</ntsc>
    </rate>
    <start>2835</start>
    <end>2858</end>
    <in>3253</in>
    <out>3276</out>
    <file id="file-5"/>
    
    <labels>
        <label2>Iris</label2>
    </labels>
</clipitem>
<clipitem id="9d41e934-f19a-4671-8e2b-c862cf8967e1" premiereChannelType="stereo">
    <masterclipid>masterclip-1</masterclipid>
    <name>S01E45.Jiggles.mkv</name>
    <enabled>TRUE</enabled>
    <duration>17218</duration>
    <rate>
        <timebase>23.976</timebase>
        <ntsc>FALSE</ntsc>
    </rate>
    <start>2858</start>
    <end>2876</end>
    <in>3276</in>
    <out>3294</out>
    <file id="file-5"/>
    
    <labels>
        <label2>Iris</label2>
    </labels>
</clipitem>
<clipitem id="f4291c81-2df6-48f4-b18c-182e33a6acd3" premiereChannelType="stereo">
    <masterclipid>masterclip-1</masterclipid>
    <name>S01E45.Jiggles.mkv</name>
    <enabled>TRUE</enabled>
    <duration>17218</duration>
    <rate>
        <timebase>23.976</timebase>
        <ntsc>FALSE</ntsc>
    </rate>
    <start>2876</start>
    <end>2904</end>
    <in>3294</in>
    <out>3322</out>
    <file id="file-5"/>
    
    <labels>
        <label2>Iris</label2>
    </labels>
</clipitem>
<clipitem id="5fbf1969-074c-4550-8592-b777cbb5138a" premiereChannelType="stereo">
    <masterclipid>masterclip-1</masterclipid>
    <name>S01E45.Jiggles.mkv</name>
    <enabled>TRUE</enabled>
    <duration>17218</duration>
    <rate>
        <timebase>23.976</timebase>
        <ntsc>FALSE</ntsc>
    </rate>
    <start>2904</start>
    <end>2926</end>
    <in>3322</in>
    <out>3344</out>
    <file id="file-5"/>
    
    <labels>
        <label2>Iris</label2>
    </labels>
</clipitem>
<clipitem id="91d4ce6a-56d0-4c8e-9b8a-0212e3bc91e6" premiereChannelType="stereo">
    <masterclipid>masterclip-1</masterclipid>
    <name>S01E45.Jiggles.mkv</name>
    <enabled>TRUE</enabled>
    <duration>17218</duration>
    <rate>
        <timebase>23.976</timebase>
        <ntsc>FALSE</ntsc>
    </rate>
    <start>2926</start>
    <end>2937</end>
    <in>3348</in>
    <out>3359</out>
    <file id="file-5"/>
    
    <labels>
        <label2>Iris</label2>
    </labels>
</clipitem>
<clipitem id="b3eb7913-ccae-404c-8322-1f3b46463c5f" premiereChannelType="stereo">
    <masterclipid>masterclip-1</masterclipid>
    <name>S01E45.Jiggles.mkv</name>
    <enabled>TRUE</enabled>
    <duration>17218</duration>
    <rate>
        <timebase>23.976</timebase>
        <ntsc>FALSE</ntsc>
    </rate>
    <start>2937</start>
    <end>2948</end>
    <in>3355</in>
    <out>3366</out>
    <file id="file-5"/>
    
    <labels>
        <label2>Iris</label2>
    </labels>
</clipitem>
<clipitem id="b7a05712-5669-4f2f-8c67-f852cc140e8b" premiereChannelType="stereo">
    <masterclipid>masterclip-1</masterclipid>
    <name>S01E45.Jiggles.mkv</name>
    <enabled>TRUE</enabled>
    <duration>17218</duration>
    <rate>
        <timebase>23.976</timebase>
        <ntsc>FALSE</ntsc>
    </rate>
    <start>2948</start>
    <end>2971</end>
    <in>3366</in>
    <out>3389</out>
    <file id="file-5"/>
    
    <labels>
        <label2>Iris</label2>
    </labels>
</clipitem>
<clipitem id="2b98b5e4-61aa-4d3f-b652-21def177352a" premiereChannelType="stereo">
    <masterclipid>masterclip-1</masterclipid>
    <name>S01E45.Jiggles.mkv</name>
    <enabled>TRUE</enabled>
    <duration>17218</duration>
    <rate>
        <timebase>23.976</timebase>
        <ntsc>FALSE</ntsc>
    </rate>
    <start>2971</start>
    <end>2982</end>
    <in>3389</in>
    <out>3400</out>
    <file id="file-5"/>
    
    <labels>
        <label2>Iris</label2>
    </labels>
</clipitem>
<clipitem id="7f7d5d22-7450-45cf-87dc-1b5bf21c5e55" premiereChannelType="stereo">
    <masterclipid>masterclip-1</masterclipid>
    <name>S01E45.Jiggles.mkv</name>
    <enabled>TRUE</enabled>
    <duration>17218</duration>
    <rate>
        <timebase>23.976</timebase>
        <ntsc>FALSE</ntsc>
    </rate>
    <start>2982</start>
    <end>2996</end>
    <in>3399</in>
    <out>3413</out>
    <file id="file-5"/>
    
    <labels>
        <label2>Iris</label2>
    </labels>
</clipitem>
<clipitem id="3bb622c6-b4c8-49b4-b757-3db5bf039c0a" premiereChannelType="stereo">
    <masterclipid>masterclip-1</masterclipid>
    <name>S01E45.Jiggles.mkv</name>
    <enabled>TRUE</enabled>
    <duration>17218</duration>
    <rate>
        <timebase>23.976</timebase>
        <ntsc>FALSE</ntsc>
    </rate>
    <start>2996</start>
    <end>3028</end>
    <in>3414</in>
    <out>3446</out>
    <file id="file-5"/>
    
    <labels>
        <label2>Iris</label2>
    </labels>
</clipitem>
<clipitem id="8f348174-c75b-46ee-98e3-9bc65631e0be" premiereChannelType="stereo">
    <masterclipid>masterclip-1</masterclipid>
    <name>S01E45.Jiggles.mkv</name>
    <enabled>TRUE</enabled>
    <duration>17218</duration>
    <rate>
        <timebase>23.976</timebase>
        <ntsc>FALSE</ntsc>
    </rate>
    <start>3028</start>
    <end>3039</end>
    <in>3446</in>
    <out>3457</out>
    <file id="file-5"/>
    
    <labels>
        <label2>Iris</label2>
    </labels>
</clipitem>
<clipitem id="e4f603a0-e462-4b22-b9cf-b8b638e5d20c" premiereChannelType="stereo">
    <masterclipid>masterclip-1</masterclipid>
    <name>S01E45.Jiggles.mkv</name>
    <enabled>TRUE</enabled>
    <duration>17218</duration>
    <rate>
        <timebase>23.976</timebase>
        <ntsc>FALSE</ntsc>
    </rate>
    <start>3039</start>
    <end>3051</end>
    <in>3457</in>
    <out>3469</out>
    <file id="file-5"/>
    
    <labels>
        <label2>Iris</label2>
    </labels>
</clipitem>
<clipitem id="a432b6b9-37c1-47b8-be97-0d39ed021129" premiereChannelType="stereo">
    <masterclipid>masterclip-1</masterclipid>
    <name>S01E45.Jiggles.mkv</name>
    <enabled>TRUE</enabled>
    <duration>17218</duration>
    <rate>
        <timebase>23.976</timebase>
        <ntsc>FALSE</ntsc>
    </rate>
    <start>3051</start>
    <end>3067</end>
    <in>3469</in>
    <out>3485</out>
    <file id="file-5"/>
    
    <labels>
        <label2>Iris</label2>
    </labels>
</clipitem>
<clipitem id="cd656e0d-12d6-4785-b0e6-12165e470587" premiereChannelType="stereo">
    <masterclipid>masterclip-1</masterclipid>
    <name>S01E45.Jiggles.mkv</name>
    <enabled>TRUE</enabled>
    <duration>17218</duration>
    <rate>
        <timebase>23.976</timebase>
        <ntsc>FALSE</ntsc>
    </rate>
    <start>3067</start>
    <end>3078</end>
    <in>3485</in>
    <out>3496</out>
    <file id="file-5"/>
    
    <labels>
        <label2>Iris</label2>
    </labels>
</clipitem>
<clipitem id="a9feb332-3e62-44ad-9da0-52e3448f085d" premiereChannelType="stereo">
    <masterclipid>masterclip-1</masterclipid>
    <name>S01E45.Jiggles.mkv</name>
    <enabled>TRUE</enabled>
    <duration>17218</duration>
    <rate>
        <timebase>23.976</timebase>
        <ntsc>FALSE</ntsc>
    </rate>
    <start>3078</start>
    <end>3113</end>
    <in>3496</in>
    <out>3531</out>
    <file id="file-5"/>
    
    <labels>
        <label2>Iris</label2>
    </labels>
</clipitem>
<clipitem id="5f721959-5c7e-4fe9-be81-9a716bd468f4" premiereChannelType="stereo">
    <masterclipid>masterclip-1</masterclipid>
    <name>S01E45.Jiggles.mkv</name>
    <enabled>TRUE</enabled>
    <duration>17218</duration>
    <rate>
        <timebase>23.976</timebase>
        <ntsc>FALSE</ntsc>
    </rate>
    <start>3113</start>
    <end>3124</end>
    <in>3531</in>
    <out>3542</out>
    <file id="file-5"/>
    
    <labels>
        <label2>Iris</label2>
    </labels>
</clipitem>
<clipitem id="054e031a-c5c4-422c-85a6-d8dfbf15ddc7" premiereChannelType="stereo">
    <masterclipid>masterclip-1</masterclipid>
    <name>S01E45.Jiggles.mkv</name>
    <enabled>TRUE</enabled>
    <duration>17218</duration>
    <rate>
        <timebase>23.976</timebase>
        <ntsc>FALSE</ntsc>
    </rate>
    <start>3124</start>
    <end>3141</end>
    <in>3553</in>
    <out>3570</out>
    <file id="file-5"/>
    
    <labels>
        <label2>Iris</label2>
    </labels>
</clipitem>
<clipitem id="6ba75768-f6c3-43b1-8904-4a128037b048" premiereChannelType="stereo">
    <masterclipid>masterclip-1</masterclipid>
    <name>S01E45.Jiggles.mkv</name>
    <enabled>TRUE</enabled>
    <duration>17218</duration>
    <rate>
        <timebase>23.976</timebase>
        <ntsc>FALSE</ntsc>
    </rate>
    <start>3141</start>
    <end>3152</end>
    <in>3559</in>
    <out>3570</out>
    <file id="file-5"/>
    
    <labels>
        <label2>Iris</label2>
    </labels>
</clipitem>
<clipitem id="8cceaecc-3283-4ada-8aa2-8f4e4214e396" premiereChannelType="stereo">
    <masterclipid>masterclip-1</masterclipid>
    <name>S01E45.Jiggles.mkv</name>
    <enabled>TRUE</enabled>
    <duration>17218</duration>
    <rate>
        <timebase>23.976</timebase>
        <ntsc>FALSE</ntsc>
    </rate>
    <start>3152</start>
    <end>3164</end>
    <in>3546</in>
    <out>3558</out>
    <file id="file-5"/>
    
    <labels>
        <label2>Iris</label2>
    </labels>
</clipitem>
<clipitem id="990db8e1-bf0b-4010-9b48-fc8312a16930" premiereChannelType="stereo">
    <masterclipid>masterclip-1</masterclipid>
    <name>S01E45.Jiggles.mkv</name>
    <enabled>TRUE</enabled>
    <duration>17218</duration>
    <rate>
        <timebase>23.976</timebase>
        <ntsc>FALSE</ntsc>
    </rate>
    <start>3164</start>
    <end>3178</end>
    <in>3545</in>
    <out>3559</out>
    <file id="file-5"/>
    
    <labels>
        <label2>Iris</label2>
    </labels>
</clipitem>
<clipitem id="a0df3cda-ea66-41d9-a6b3-6266d1c26178" premiereChannelType="stereo">
    <masterclipid>masterclip-1</masterclipid>
    <name>S01E45.Jiggles.mkv</name>
    <enabled>TRUE</enabled>
    <duration>17218</duration>
    <rate>
        <timebase>23.976</timebase>
        <ntsc>FALSE</ntsc>
    </rate>
    <start>3178</start>
    <end>3190</end>
    <in>3596</in>
    <out>3608</out>
    <file id="file-5"/>
    
    <labels>
        <label2>Iris</label2>
    </labels>
</clipitem>
<clipitem id="dd1776f1-d528-4a89-a2ed-8301c28e1d21" premiereChannelType="stereo">
    <masterclipid>masterclip-1</masterclipid>
    <name>S01E45.Jiggles.mkv</name>
    <enabled>TRUE</enabled>
    <duration>17218</duration>
    <rate>
        <timebase>23.976</timebase>
        <ntsc>FALSE</ntsc>
    </rate>
    <start>3190</start>
    <end>3201</end>
    <in>3608</in>
    <out>3619</out>
    <file id="file-5"/>
    
    <labels>
        <label2>Iris</label2>
    </labels>
</clipitem>
<clipitem id="699f5bcf-f058-4401-86e9-18e2d5f1cd8e" premiereChannelType="stereo">
    <masterclipid>masterclip-1</masterclipid>
    <name>S01E45.Jiggles.mkv</name>
    <enabled>TRUE</enabled>
    <duration>17218</duration>
    <rate>
        <timebase>23.976</timebase>
        <ntsc>FALSE</ntsc>
    </rate>
    <start>3201</start>
    <end>3213</end>
    <in>3619</in>
    <out>3631</out>
    <file id="file-5"/>
    
    <labels>
        <label2>Iris</label2>
    </labels>
</clipitem>
<clipitem id="6666253e-eae1-4ac7-9eab-6ec2dcc7617f" premiereChannelType="stereo">
    <masterclipid>masterclip-1</masterclipid>
    <name>S01E45.Jiggles.mkv</name>
    <enabled>TRUE</enabled>
    <duration>17218</duration>
    <rate>
        <timebase>23.976</timebase>
        <ntsc>FALSE</ntsc>
    </rate>
    <start>3213</start>
    <end>3225</end>
    <in>3631</in>
    <out>3643</out>
    <file id="file-5"/>
    
    <labels>
        <label2>Iris</label2>
    </labels>
</clipitem>
<clipitem id="b8721fc2-2d9b-458b-9e81-7f475341990e" premiereChannelType="stereo">
    <masterclipid>masterclip-1</masterclipid>
    <name>S01E45.Jiggles.mkv</name>
    <enabled>TRUE</enabled>
    <duration>17218</duration>
    <rate>
        <timebase>23.976</timebase>
        <ntsc>FALSE</ntsc>
    </rate>
    <start>3225</start>
    <end>3241</end>
    <in>3643</in>
    <out>3659</out>
    <file id="file-5"/>
    
    <labels>
        <label2>Iris</label2>
    </labels>
</clipitem>
<clipitem id="cfa86c7c-d74d-48c6-a104-4f186ebef5f6" premiereChannelType="stereo">
    <masterclipid>masterclip-1</masterclipid>
    <name>S01E45.Jiggles.mkv</name>
    <enabled>TRUE</enabled>
    <duration>17218</duration>
    <rate>
        <timebase>23.976</timebase>
        <ntsc>FALSE</ntsc>
    </rate>
    <start>3241</start>
    <end>3256</end>
    <in>3659</in>
    <out>3674</out>
    <file id="file-5"/>
    
    <labels>
        <label2>Iris</label2>
    </labels>
</clipitem>
<clipitem id="10710dd6-1bf5-493a-b5d5-a93a810ea761" premiereChannelType="stereo">
    <masterclipid>masterclip-1</masterclipid>
    <name>S01E45.Jiggles.mkv</name>
    <enabled>TRUE</enabled>
    <duration>17218</duration>
    <rate>
        <timebase>23.976</timebase>
        <ntsc>FALSE</ntsc>
    </rate>
    <start>3256</start>
    <end>3273</end>
    <in>3674</in>
    <out>3691</out>
    <file id="file-5"/>
    
    <labels>
        <label2>Iris</label2>
    </labels>
</clipitem>
<clipitem id="c06f22c7-d42e-4ae6-9103-6089efb823d1" premiereChannelType="stereo">
    <masterclipid>masterclip-1</masterclipid>
    <name>S01E45.Jiggles.mkv</name>
    <enabled>TRUE</enabled>
    <duration>17218</duration>
    <rate>
        <timebase>23.976</timebase>
        <ntsc>FALSE</ntsc>
    </rate>
    <start>3273</start>
    <end>3299</end>
    <in>3691</in>
    <out>3717</out>
    <file id="file-5"/>
    
    <labels>
        <label2>Iris</label2>
    </labels>
</clipitem>
<clipitem id="3846256a-30a2-4e4f-ae80-08d09a7625da" premiereChannelType="stereo">
    <masterclipid>masterclip-1</masterclipid>
    <name>S01E45.Jiggles.mkv</name>
    <enabled>TRUE</enabled>
    <duration>17218</duration>
    <rate>
        <timebase>23.976</timebase>
        <ntsc>FALSE</ntsc>
    </rate>
    <start>3299</start>
    <end>3340</end>
    <in>3717</in>
    <out>3758</out>
    <file id="file-5"/>
    
    <labels>
        <label2>Iris</label2>
    </labels>
</clipitem>
<clipitem id="535f5e7b-5a64-431a-bb6c-02e50c27114d" premiereChannelType="stereo">
    <masterclipid>masterclip-1</masterclipid>
    <name>S01E45.Jiggles.mkv</name>
    <enabled>TRUE</enabled>
    <duration>17218</duration>
    <rate>
        <timebase>23.976</timebase>
        <ntsc>FALSE</ntsc>
    </rate>
    <start>3340</start>
    <end>3389</end>
    <in>3758</in>
    <out>3807</out>
    <file id="file-5"/>
    
    <labels>
        <label2>Iris</label2>
    </labels>
</clipitem>
<clipitem id="6bb48eca-4472-48ce-ad6c-88a181b4a4a8" premiereChannelType="stereo">
    <masterclipid>masterclip-1</masterclipid>
    <name>S01E45.Jiggles.mkv</name>
    <enabled>TRUE</enabled>
    <duration>17218</duration>
    <rate>
        <timebase>23.976</timebase>
        <ntsc>FALSE</ntsc>
    </rate>
    <start>3389</start>
    <end>3530</end>
    <in>3807</in>
    <out>3948</out>
    <file id="file-5"/>
    
    <labels>
        <label2>Iris</label2>
    </labels>
</clipitem>
<clipitem id="a5f11040-f72b-4c08-98dd-496062c2c163" premiereChannelType="stereo">
    <masterclipid>masterclip-1</masterclipid>
    <name>S01E45.Jiggles.mkv</name>
    <enabled>TRUE</enabled>
    <duration>17218</duration>
    <rate>
        <timebase>23.976</timebase>
        <ntsc>FALSE</ntsc>
    </rate>
    <start>3530</start>
    <end>3591</end>
    <in>3948</in>
    <out>4009</out>
    <file id="file-5"/>
    
    <labels>
        <label2>Iris</label2>
    </labels>
</clipitem>
<clipitem id="edf00f5b-1b27-4e4a-b189-43fae1209f70" premiereChannelType="stereo">
    <masterclipid>masterclip-1</masterclipid>
    <name>S01E45.Jiggles.mkv</name>
    <enabled>TRUE</enabled>
    <duration>17218</duration>
    <rate>
        <timebase>23.976</timebase>
        <ntsc>FALSE</ntsc>
    </rate>
    <start>3591</start>
    <end>3614</end>
    <in>4009</in>
    <out>4032</out>
    <file id="file-5"/>
    
    <labels>
        <label2>Iris</label2>
    </labels>
</clipitem>
<clipitem id="a38e07ef-b38f-4aa0-96f9-460fd39ab1f6" premiereChannelType="stereo">
    <masterclipid>masterclip-1</masterclipid>
    <name>S01E45.Jiggles.mkv</name>
    <enabled>TRUE</enabled>
    <duration>17218</duration>
    <rate>
        <timebase>23.976</timebase>
        <ntsc>FALSE</ntsc>
    </rate>
    <start>3614</start>
    <end>3772</end>
    <in>4032</in>
    <out>4190</out>
    <file id="file-5"/>
    
    <labels>
        <label2>Iris</label2>
    </labels>
</clipitem>
<clipitem id="aa7adc8c-e1ce-45ba-a0ba-91d136027c92" premiereChannelType="stereo">
    <masterclipid>masterclip-1</masterclipid>
    <name>S01E45.Jiggles.mkv</name>
    <enabled>TRUE</enabled>
    <duration>17218</duration>
    <rate>
        <timebase>23.976</timebase>
        <ntsc>FALSE</ntsc>
    </rate>
    <start>3772</start>
    <end>3783</end>
    <in>4190</in>
    <out>4201</out>
    <file id="file-5"/>
    
    <labels>
        <label2>Iris</label2>
    </labels>
</clipitem>
<clipitem id="9fd96aad-b433-4c7a-afc0-90265199066b" premiereChannelType="stereo">
    <masterclipid>masterclip-1</masterclipid>
    <name>S01E45.Jiggles.mkv</name>
    <enabled>TRUE</enabled>
    <duration>17218</duration>
    <rate>
        <timebase>23.976</timebase>
        <ntsc>FALSE</ntsc>
    </rate>
    <start>3783</start>
    <end>3819</end>
    <in>4201</in>
    <out>4237</out>
    <file id="file-5"/>
    
    <labels>
        <label2>Iris</label2>
    </labels>
</clipitem>
<clipitem id="ab1244a8-c1b8-469b-b49f-1541e5221d06" premiereChannelType="stereo">
    <masterclipid>masterclip-1</masterclipid>
    <name>S01E45.Jiggles.mkv</name>
    <enabled>TRUE</enabled>
    <duration>17218</duration>
    <rate>
        <timebase>23.976</timebase>
        <ntsc>FALSE</ntsc>
    </rate>
    <start>3819</start>
    <end>3865</end>
    <in>4237</in>
    <out>4283</out>
    <file id="file-5"/>
    
    <labels>
        <label2>Iris</label2>
    </labels>
</clipitem>
<clipitem id="d96ff662-3dc7-4a00-bfee-550018fa94ac" premiereChannelType="stereo">
    <masterclipid>masterclip-1</masterclipid>
    <name>S01E45.Jiggles.mkv</name>
    <enabled>TRUE</enabled>
    <duration>17218</duration>
    <rate>
        <timebase>23.976</timebase>
        <ntsc>FALSE</ntsc>
    </rate>
    <start>3865</start>
    <end>3891</end>
    <in>4283</in>
    <out>4309</out>
    <file id="file-5"/>
    
    <labels>
        <label2>Iris</label2>
    </labels>
</clipitem>
<clipitem id="1f18425d-225f-43b3-b040-96c6e55d2151" premiereChannelType="stereo">
    <masterclipid>masterclip-1</masterclipid>
    <name>S01E45.Jiggles.mkv</name>
    <enabled>TRUE</enabled>
    <duration>17218</duration>
    <rate>
        <timebase>23.976</timebase>
        <ntsc>FALSE</ntsc>
    </rate>
    <start>3891</start>
    <end>3932</end>
    <in>4309</in>
    <out>4350</out>
    <file id="file-5"/>
    
    <labels>
        <label2>Iris</label2>
    </labels>
</clipitem>
<clipitem id="9534e8f0-7524-42f8-aa83-f763d9d1d680" premiereChannelType="stereo">
    <masterclipid>masterclip-1</masterclipid>
    <name>S01E45.Jiggles.mkv</name>
    <enabled>TRUE</enabled>
    <duration>17218</duration>
    <rate>
        <timebase>23.976</timebase>
        <ntsc>FALSE</ntsc>
    </rate>
    <start>3932</start>
    <end>3988</end>
    <in>4349</in>
    <out>4405</out>
    <file id="file-5"/>
    
    <labels>
        <label2>Iris</label2>
    </labels>
</clipitem>
<clipitem id="0a0685d2-5542-4caf-87ab-8fa7a022166a" premiereChannelType="stereo">
    <masterclipid>masterclip-1</masterclipid>
    <name>S01E45.Jiggles.mkv</name>
    <enabled>TRUE</enabled>
    <duration>17218</duration>
    <rate>
        <timebase>23.976</timebase>
        <ntsc>FALSE</ntsc>
    </rate>
    <start>3988</start>
    <end>4013</end>
    <in>4406</in>
    <out>4431</out>
    <file id="file-5"/>
    
    <labels>
        <label2>Iris</label2>
    </labels>
</clipitem>
<clipitem id="03d42dca-11f5-4008-ab30-54bb77b99610" premiereChannelType="stereo">
    <masterclipid>masterclip-1</masterclipid>
    <name>S01E45.Jiggles.mkv</name>
    <enabled>TRUE</enabled>
    <duration>17218</duration>
    <rate>
        <timebase>23.976</timebase>
        <ntsc>FALSE</ntsc>
    </rate>
    <start>4013</start>
    <end>4081</end>
    <in>4431</in>
    <out>4499</out>
    <file id="file-5"/>
    
    <labels>
        <label2>Iris</label2>
    </labels>
</clipitem>
<clipitem id="1c2fdaed-1e04-485c-be92-7c15dce8f29c" premiereChannelType="stereo">
    <masterclipid>masterclip-1</masterclipid>
    <name>S01E45.Jiggles.mkv</name>
    <enabled>TRUE</enabled>
    <duration>17218</duration>
    <rate>
        <timebase>23.976</timebase>
        <ntsc>FALSE</ntsc>
    </rate>
    <start>4081</start>
    <end>4184</end>
    <in>4499</in>
    <out>4602</out>
    <file id="file-5"/>
    
    <labels>
        <label2>Iris</label2>
    </labels>
</clipitem>
<clipitem id="2d8f93b8-62c3-41a5-9bc1-8e73c155736c" premiereChannelType="stereo">
    <masterclipid>masterclip-1</masterclipid>
    <name>S01E45.Jiggles.mkv</name>
    <enabled>TRUE</enabled>
    <duration>17218</duration>
    <rate>
        <timebase>23.976</timebase>
        <ntsc>FALSE</ntsc>
    </rate>
    <start>4184</start>
    <end>4221</end>
    <in>4602</in>
    <out>4639</out>
    <file id="file-5"/>
    
    <labels>
        <label2>Iris</label2>
    </labels>
</clipitem>
<clipitem id="4528f1fd-8ca0-4ab5-b7a4-0d16e76afc4e" premiereChannelType="stereo">
    <masterclipid>masterclip-1</masterclipid>
    <name>S01E45.Jiggles.mkv</name>
    <enabled>TRUE</enabled>
    <duration>17218</duration>
    <rate>
        <timebase>23.976</timebase>
        <ntsc>FALSE</ntsc>
    </rate>
    <start>4221</start>
    <end>4233</end>
    <in>4638</in>
    <out>4650</out>
    <file id="file-5"/>
    
    <labels>
        <label2>Iris</label2>
    </labels>
</clipitem>
<clipitem id="d701d2a3-cf1f-48c5-9193-56886e4ced66" premiereChannelType="stereo">
    <masterclipid>masterclip-1</masterclipid>
    <name>S01E45.Jiggles.mkv</name>
    <enabled>TRUE</enabled>
    <duration>17218</duration>
    <rate>
        <timebase>23.976</timebase>
        <ntsc>FALSE</ntsc>
    </rate>
    <start>4233</start>
    <end>4244</end>
    <in>4651</in>
    <out>4662</out>
    <file id="file-5"/>
    
    <labels>
        <label2>Iris</label2>
    </labels>
</clipitem>
<clipitem id="d92f577f-15ae-45d9-8b96-3c1eb341d3b1" premiereChannelType="stereo">
    <masterclipid>masterclip-1</masterclipid>
    <name>S01E45.Jiggles.mkv</name>
    <enabled>TRUE</enabled>
    <duration>17218</duration>
    <rate>
        <timebase>23.976</timebase>
        <ntsc>FALSE</ntsc>
    </rate>
    <start>4244</start>
    <end>4267</end>
    <in>4662</in>
    <out>4685</out>
    <file id="file-5"/>
    
    <labels>
        <label2>Iris</label2>
    </labels>
</clipitem>
<clipitem id="f2f360cd-2a03-45ef-a37e-81177d8235c5" premiereChannelType="stereo">
    <masterclipid>masterclip-1</masterclipid>
    <name>S01E45.Jiggles.mkv</name>
    <enabled>TRUE</enabled>
    <duration>17218</duration>
    <rate>
        <timebase>23.976</timebase>
        <ntsc>FALSE</ntsc>
    </rate>
    <start>4267</start>
    <end>4278</end>
    <in>4685</in>
    <out>4696</out>
    <file id="file-5"/>
    
    <labels>
        <label2>Iris</label2>
    </labels>
</clipitem>
<clipitem id="5418bc37-7687-47ca-8abd-4e2005df0aa5" premiereChannelType="stereo">
    <masterclipid>masterclip-1</masterclipid>
    <name>S01E45.Jiggles.mkv</name>
    <enabled>TRUE</enabled>
    <duration>17218</duration>
    <rate>
        <timebase>23.976</timebase>
        <ntsc>FALSE</ntsc>
    </rate>
    <start>4278</start>
    <end>4289</end>
    <in>4696</in>
    <out>4707</out>
    <file id="file-5"/>
    
    <labels>
        <label2>Iris</label2>
    </labels>
</clipitem>
<clipitem id="f2eff310-9c3f-4c8a-94c6-19c36c6728f6" premiereChannelType="stereo">
    <masterclipid>masterclip-1</masterclipid>
    <name>S01E45.Jiggles.mkv</name>
    <enabled>TRUE</enabled>
    <duration>17218</duration>
    <rate>
        <timebase>23.976</timebase>
        <ntsc>FALSE</ntsc>
    </rate>
    <start>4289</start>
    <end>4302</end>
    <in>4707</in>
    <out>4720</out>
    <file id="file-5"/>
    
    <labels>
        <label2>Iris</label2>
    </labels>
</clipitem>
<clipitem id="fdf23fed-7683-4e80-accb-7716e9cc7c98" premiereChannelType="stereo">
    <masterclipid>masterclip-1</masterclipid>
    <name>S01E45.Jiggles.mkv</name>
    <enabled>TRUE</enabled>
    <duration>17218</duration>
    <rate>
        <timebase>23.976</timebase>
        <ntsc>FALSE</ntsc>
    </rate>
    <start>4302</start>
    <end>4319</end>
    <in>4720</in>
    <out>4737</out>
    <file id="file-5"/>
    
    <labels>
        <label2>Iris</label2>
    </labels>
</clipitem>
<clipitem id="bc19c0ad-7e3a-4d9d-8945-cb37f397cc5b" premiereChannelType="stereo">
    <masterclipid>masterclip-1</masterclipid>
    <name>S01E45.Jiggles.mkv</name>
    <enabled>TRUE</enabled>
    <duration>17218</duration>
    <rate>
        <timebase>23.976</timebase>
        <ntsc>FALSE</ntsc>
    </rate>
    <start>4319</start>
    <end>4337</end>
    <in>4737</in>
    <out>4755</out>
    <file id="file-5"/>
    
    <labels>
        <label2>Iris</label2>
    </labels>
</clipitem>
<clipitem id="0eb84630-cab0-4502-a55e-230ac550f381" premiereChannelType="stereo">
    <masterclipid>masterclip-1</masterclipid>
    <name>S01E45.Jiggles.mkv</name>
    <enabled>TRUE</enabled>
    <duration>17218</duration>
    <rate>
        <timebase>23.976</timebase>
        <ntsc>FALSE</ntsc>
    </rate>
    <start>4337</start>
    <end>4357</end>
    <in>4755</in>
    <out>4775</out>
    <file id="file-5"/>
    
    <labels>
        <label2>Iris</label2>
    </labels>
</clipitem>
<clipitem id="b5741c1b-bfef-46d0-89bd-f0bac656dddf" premiereChannelType="stereo">
    <masterclipid>masterclip-1</masterclipid>
    <name>S01E45.Jiggles.mkv</name>
    <enabled>TRUE</enabled>
    <duration>17218</duration>
    <rate>
        <timebase>23.976</timebase>
        <ntsc>FALSE</ntsc>
    </rate>
    <start>4357</start>
    <end>4368</end>
    <in>4775</in>
    <out>4786</out>
    <file id="file-5"/>
    
    <labels>
        <label2>Iris</label2>
    </labels>
</clipitem>
<clipitem id="c4f7228c-6d80-471b-8fa6-38462343a96b" premiereChannelType="stereo">
    <masterclipid>masterclip-1</masterclipid>
    <name>S01E45.Jiggles.mkv</name>
    <enabled>TRUE</enabled>
    <duration>17218</duration>
    <rate>
        <timebase>23.976</timebase>
        <ntsc>FALSE</ntsc>
    </rate>
    <start>4368</start>
    <end>4381</end>
    <in>4786</in>
    <out>4799</out>
    <file id="file-5"/>
    
    <labels>
        <label2>Iris</label2>
    </labels>
</clipitem>
<clipitem id="35dc0982-b6c4-4688-ba24-500f5ae03c88" premiereChannelType="stereo">
    <masterclipid>masterclip-1</masterclipid>
    <name>S01E45.Jiggles.mkv</name>
    <enabled>TRUE</enabled>
    <duration>17218</duration>
    <rate>
        <timebase>23.976</timebase>
        <ntsc>FALSE</ntsc>
    </rate>
    <start>4381</start>
    <end>4429</end>
    <in>4799</in>
    <out>4847</out>
    <file id="file-5"/>
    
    <labels>
        <label2>Iris</label2>
    </labels>
</clipitem>
<clipitem id="e911cbec-d316-426e-8fa2-ec95a240a546" premiereChannelType="stereo">
    <masterclipid>masterclip-1</masterclipid>
    <name>S01E45.Jiggles.mkv</name>
    <enabled>TRUE</enabled>
    <duration>17218</duration>
    <rate>
        <timebase>23.976</timebase>
        <ntsc>FALSE</ntsc>
    </rate>
    <start>4429</start>
    <end>4445</end>
    <in>4847</in>
    <out>4863</out>
    <file id="file-5"/>
    
    <labels>
        <label2>Iris</label2>
    </labels>
</clipitem>
<clipitem id="4ea53d9c-37d7-4da3-bda7-22e2aaa9e11f" premiereChannelType="stereo">
    <masterclipid>masterclip-1</masterclipid>
    <name>S01E45.Jiggles.mkv</name>
    <enabled>TRUE</enabled>
    <duration>17218</duration>
    <rate>
        <timebase>23.976</timebase>
        <ntsc>FALSE</ntsc>
    </rate>
    <start>4445</start>
    <end>4456</end>
    <in>4863</in>
    <out>4874</out>
    <file id="file-5"/>
    
    <labels>
        <label2>Iris</label2>
    </labels>
</clipitem>
<clipitem id="157ae8eb-3377-46cd-b0b3-8f81bda89171" premiereChannelType="stereo">
    <masterclipid>masterclip-1</masterclipid>
    <name>S01E45.Jiggles.mkv</name>
    <enabled>TRUE</enabled>
    <duration>17218</duration>
    <rate>
        <timebase>23.976</timebase>
        <ntsc>FALSE</ntsc>
    </rate>
    <start>4456</start>
    <end>4468</end>
    <in>4874</in>
    <out>4886</out>
    <file id="file-5"/>
    
    <labels>
        <label2>Iris</label2>
    </labels>
</clipitem>
<clipitem id="7c06da4a-9257-4f79-9c25-8a1cf0a36222" premiereChannelType="stereo">
    <masterclipid>masterclip-1</masterclipid>
    <name>S01E45.Jiggles.mkv</name>
    <enabled>TRUE</enabled>
    <duration>17218</duration>
    <rate>
        <timebase>23.976</timebase>
        <ntsc>FALSE</ntsc>
    </rate>
    <start>4468</start>
    <end>4480</end>
    <in>4886</in>
    <out>4898</out>
    <file id="file-5"/>
    
    <labels>
        <label2>Iris</label2>
    </labels>
</clipitem>
<clipitem id="db4a00cf-aa7c-4af1-8a7d-36313006b4ea" premiereChannelType="stereo">
    <masterclipid>masterclip-1</masterclipid>
    <name>S01E45.Jiggles.mkv</name>
    <enabled>TRUE</enabled>
    <duration>17218</duration>
    <rate>
        <timebase>23.976</timebase>
        <ntsc>FALSE</ntsc>
    </rate>
    <start>4480</start>
    <end>4491</end>
    <in>4904</in>
    <out>4915</out>
    <file id="file-5"/>
    
    <labels>
        <label2>Iris</label2>
    </labels>
</clipitem>
<clipitem id="d907bc2d-dc01-4402-b2db-606742dc9f00" premiereChannelType="stereo">
    <masterclipid>masterclip-1</masterclipid>
    <name>S01E45.Jiggles.mkv</name>
    <enabled>TRUE</enabled>
    <duration>17218</duration>
    <rate>
        <timebase>23.976</timebase>
        <ntsc>FALSE</ntsc>
    </rate>
    <start>4491</start>
    <end>4563</end>
    <in>4909</in>
    <out>4981</out>
    <file id="file-5"/>
    
    <labels>
        <label2>Iris</label2>
    </labels>
</clipitem>
<clipitem id="b37c3f7a-985c-4796-85c8-7d7f4839cd58" premiereChannelType="stereo">
    <masterclipid>masterclip-1</masterclipid>
    <name>S01E45.Jiggles.mkv</name>
    <enabled>TRUE</enabled>
    <duration>17218</duration>
    <rate>
        <timebase>23.976</timebase>
        <ntsc>FALSE</ntsc>
    </rate>
    <start>4563</start>
    <end>4575</end>
    <in>4981</in>
    <out>4993</out>
    <file id="file-5"/>
    
    <labels>
        <label2>Iris</label2>
    </labels>
</clipitem>
<clipitem id="01bbd18a-4c73-44fc-adb2-45d4e0ed3654" premiereChannelType="stereo">
    <masterclipid>masterclip-1</masterclipid>
    <name>S01E45.Jiggles.mkv</name>
    <enabled>TRUE</enabled>
    <duration>17218</duration>
    <rate>
        <timebase>23.976</timebase>
        <ntsc>FALSE</ntsc>
    </rate>
    <start>4575</start>
    <end>4587</end>
    <in>4993</in>
    <out>5005</out>
    <file id="file-5"/>
    
    <labels>
        <label2>Iris</label2>
    </labels>
</clipitem>
<clipitem id="1faf5db9-cb58-46cd-8ee9-d143b9e0167a" premiereChannelType="stereo">
    <masterclipid>masterclip-1</masterclipid>
    <name>S01E45.Jiggles.mkv</name>
    <enabled>TRUE</enabled>
    <duration>17218</duration>
    <rate>
        <timebase>23.976</timebase>
        <ntsc>FALSE</ntsc>
    </rate>
    <start>4587</start>
    <end>4607</end>
    <in>5005</in>
    <out>5025</out>
    <file id="file-5"/>
    
    <labels>
        <label2>Iris</label2>
    </labels>
</clipitem>
<clipitem id="3e133f6c-291d-4573-9e56-fd3c7cab8a7f" premiereChannelType="stereo">
    <masterclipid>masterclip-1</masterclipid>
    <name>S01E45.Jiggles.mkv</name>
    <enabled>TRUE</enabled>
    <duration>17218</duration>
    <rate>
        <timebase>23.976</timebase>
        <ntsc>FALSE</ntsc>
    </rate>
    <start>4607</start>
    <end>4639</end>
    <in>5025</in>
    <out>5057</out>
    <file id="file-5"/>
    
    <labels>
        <label2>Iris</label2>
    </labels>
</clipitem>
<clipitem id="d3509609-1e6f-4b08-9dcb-dffe17120ab5" premiereChannelType="stereo">
    <masterclipid>masterclip-1</masterclipid>
    <name>S01E45.Jiggles.mkv</name>
    <enabled>TRUE</enabled>
    <duration>17218</duration>
    <rate>
        <timebase>23.976</timebase>
        <ntsc>FALSE</ntsc>
    </rate>
    <start>4639</start>
    <end>4650</end>
    <in>5057</in>
    <out>5068</out>
    <file id="file-5"/>
    
    <labels>
        <label2>Iris</label2>
    </labels>
</clipitem>
<clipitem id="507ada0c-3a2d-478c-a581-119756df7538" premiereChannelType="stereo">
    <masterclipid>masterclip-1</masterclipid>
    <name>S01E45.Jiggles.mkv</name>
    <enabled>TRUE</enabled>
    <duration>17218</duration>
    <rate>
        <timebase>23.976</timebase>
        <ntsc>FALSE</ntsc>
    </rate>
    <start>4650</start>
    <end>4673</end>
    <in>5068</in>
    <out>5091</out>
    <file id="file-5"/>
    
    <labels>
        <label2>Iris</label2>
    </labels>
</clipitem>
<clipitem id="d52e04f3-5f51-4ea2-b25f-9ad19a35812f" premiereChannelType="stereo">
    <masterclipid>masterclip-1</masterclipid>
    <name>S01E45.Jiggles.mkv</name>
    <enabled>TRUE</enabled>
    <duration>17218</duration>
    <rate>
        <timebase>23.976</timebase>
        <ntsc>FALSE</ntsc>
    </rate>
    <start>4673</start>
    <end>4703</end>
    <in>5096</in>
    <out>5126</out>
    <file id="file-5"/>
    
    <labels>
        <label2>Iris</label2>
    </labels>
</clipitem>
<clipitem id="c3231816-4147-4205-a747-4aae051c3e7f" premiereChannelType="stereo">
    <masterclipid>masterclip-1</masterclipid>
    <name>S01E45.Jiggles.mkv</name>
    <enabled>TRUE</enabled>
    <duration>17218</duration>
    <rate>
        <timebase>23.976</timebase>
        <ntsc>FALSE</ntsc>
    </rate>
    <start>4703</start>
    <end>4772</end>
    <in>5117</in>
    <out>5186</out>
    <file id="file-5"/>
    
    <labels>
        <label2>Iris</label2>
    </labels>
</clipitem>
<clipitem id="7c64cfb2-0149-4c61-8b7d-5b322b689776" premiereChannelType="stereo">
    <masterclipid>masterclip-1</masterclipid>
    <name>S01E45.Jiggles.mkv</name>
    <enabled>TRUE</enabled>
    <duration>17218</duration>
    <rate>
        <timebase>23.976</timebase>
        <ntsc>FALSE</ntsc>
    </rate>
    <start>4772</start>
    <end>4787</end>
    <in>5189</in>
    <out>5204</out>
    <file id="file-5"/>
    
    <labels>
        <label2>Iris</label2>
    </labels>
</clipitem>
<clipitem id="512bfa50-d706-44f3-92bb-a1ee5805c294" premiereChannelType="stereo">
    <masterclipid>masterclip-1</masterclipid>
    <name>S01E45.Jiggles.mkv</name>
    <enabled>TRUE</enabled>
    <duration>17218</duration>
    <rate>
        <timebase>23.976</timebase>
        <ntsc>FALSE</ntsc>
    </rate>
    <start>4787</start>
    <end>4805</end>
    <in>5205</in>
    <out>5223</out>
    <file id="file-5"/>
    
    <labels>
        <label2>Iris</label2>
    </labels>
</clipitem>
<clipitem id="f86103a2-b931-436f-a28d-b762adb0a2c6" premiereChannelType="stereo">
    <masterclipid>masterclip-1</masterclipid>
    <name>S01E45.Jiggles.mkv</name>
    <enabled>TRUE</enabled>
    <duration>17218</duration>
    <rate>
        <timebase>23.976</timebase>
        <ntsc>FALSE</ntsc>
    </rate>
    <start>4805</start>
    <end>4842</end>
    <in>5223</in>
    <out>5260</out>
    <file id="file-5"/>
    
    <labels>
        <label2>Iris</label2>
    </labels>
</clipitem>
<clipitem id="6de6abbc-06b0-47b6-a6ba-8395fd333fd5" premiereChannelType="stereo">
    <masterclipid>masterclip-1</masterclipid>
    <name>S01E45.Jiggles.mkv</name>
    <enabled>TRUE</enabled>
    <duration>17218</duration>
    <rate>
        <timebase>23.976</timebase>
        <ntsc>FALSE</ntsc>
    </rate>
    <start>4842</start>
    <end>4856</end>
    <in>5259</in>
    <out>5273</out>
    <file id="file-5"/>
    
    <labels>
        <label2>Iris</label2>
    </labels>
</clipitem>
<clipitem id="65bc492d-c2b6-42cc-8c2a-e3ce5793ba96" premiereChannelType="stereo">
    <masterclipid>masterclip-1</masterclipid>
    <name>S01E45.Jiggles.mkv</name>
    <enabled>TRUE</enabled>
    <duration>17218</duration>
    <rate>
        <timebase>23.976</timebase>
        <ntsc>FALSE</ntsc>
    </rate>
    <start>4856</start>
    <end>4888</end>
    <in>5274</in>
    <out>5306</out>
    <file id="file-5"/>
    
    <labels>
        <label2>Iris</label2>
    </labels>
</clipitem>
<clipitem id="b9b8027a-1090-4930-b96f-bac7261394be" premiereChannelType="stereo">
    <masterclipid>masterclip-1</masterclipid>
    <name>S01E45.Jiggles.mkv</name>
    <enabled>TRUE</enabled>
    <duration>17218</duration>
    <rate>
        <timebase>23.976</timebase>
        <ntsc>FALSE</ntsc>
    </rate>
    <start>4888</start>
    <end>4919</end>
    <in>5306</in>
    <out>5337</out>
    <file id="file-5"/>
    
    <labels>
        <label2>Iris</label2>
    </labels>
</clipitem>
<clipitem id="cc62aeb7-dd69-4eb3-96f2-c1ec990c16e8" premiereChannelType="stereo">
    <masterclipid>masterclip-1</masterclipid>
    <name>S01E45.Jiggles.mkv</name>
    <enabled>TRUE</enabled>
    <duration>17218</duration>
    <rate>
        <timebase>23.976</timebase>
        <ntsc>FALSE</ntsc>
    </rate>
    <start>4919</start>
    <end>4935</end>
    <in>5337</in>
    <out>5353</out>
    <file id="file-5"/>
    
    <labels>
        <label2>Iris</label2>
    </labels>
</clipitem>
<clipitem id="16851064-0651-4551-9764-aaf3d34722da" premiereChannelType="stereo">
    <masterclipid>masterclip-1</masterclipid>
    <name>S01E45.Jiggles.mkv</name>
    <enabled>TRUE</enabled>
    <duration>17218</duration>
    <rate>
        <timebase>23.976</timebase>
        <ntsc>FALSE</ntsc>
    </rate>
    <start>4935</start>
    <end>4965</end>
    <in>5353</in>
    <out>5383</out>
    <file id="file-5"/>
    
    <labels>
        <label2>Iris</label2>
    </labels>
</clipitem>
<clipitem id="f31fecc1-fb29-4701-96da-e3e879fc6192" premiereChannelType="stereo">
    <masterclipid>masterclip-1</masterclipid>
    <name>S01E45.Jiggles.mkv</name>
    <enabled>TRUE</enabled>
    <duration>17218</duration>
    <rate>
        <timebase>23.976</timebase>
        <ntsc>FALSE</ntsc>
    </rate>
    <start>4965</start>
    <end>5008</end>
    <in>5383</in>
    <out>5426</out>
    <file id="file-5"/>
    
    <labels>
        <label2>Iris</label2>
    </labels>
</clipitem>
<clipitem id="eb959687-4e2d-4545-88f7-d05af7354239" premiereChannelType="stereo">
    <masterclipid>masterclip-1</masterclipid>
    <name>S01E45.Jiggles.mkv</name>
    <enabled>TRUE</enabled>
    <duration>17218</duration>
    <rate>
        <timebase>23.976</timebase>
        <ntsc>FALSE</ntsc>
    </rate>
    <start>5008</start>
    <end>5027</end>
    <in>5426</in>
    <out>5445</out>
    <file id="file-5"/>
    
    <labels>
        <label2>Iris</label2>
    </labels>
</clipitem>
<clipitem id="e86511ba-4979-471c-8324-7c9748dfd773" premiereChannelType="stereo">
    <masterclipid>masterclip-1</masterclipid>
    <name>S01E45.Jiggles.mkv</name>
    <enabled>TRUE</enabled>
    <duration>17218</duration>
    <rate>
        <timebase>23.976</timebase>
        <ntsc>FALSE</ntsc>
    </rate>
    <start>5027</start>
    <end>5069</end>
    <in>5445</in>
    <out>5487</out>
    <file id="file-5"/>
    
    <labels>
        <label2>Iris</label2>
    </labels>
</clipitem>
<clipitem id="f75c1f1a-7ba4-48c8-8298-c6caeaf2896f" premiereChannelType="stereo">
    <masterclipid>masterclip-1</masterclipid>
    <name>S01E45.Jiggles.mkv</name>
    <enabled>TRUE</enabled>
    <duration>17218</duration>
    <rate>
        <timebase>23.976</timebase>
        <ntsc>FALSE</ntsc>
    </rate>
    <start>5069</start>
    <end>5080</end>
    <in>5487</in>
    <out>5498</out>
    <file id="file-5"/>
    
    <labels>
        <label2>Iris</label2>
    </labels>
</clipitem>
<clipitem id="54443dee-ce59-454f-87fb-ebbf0018c56d" premiereChannelType="stereo">
    <masterclipid>masterclip-1</masterclipid>
    <name>S01E45.Jiggles.mkv</name>
    <enabled>TRUE</enabled>
    <duration>17218</duration>
    <rate>
        <timebase>23.976</timebase>
        <ntsc>FALSE</ntsc>
    </rate>
    <start>5080</start>
    <end>5095</end>
    <in>5498</in>
    <out>5513</out>
    <file id="file-5"/>
    
    <labels>
        <label2>Iris</label2>
    </labels>
</clipitem>
<clipitem id="2f5f681f-0575-4307-a231-de85f7b38b92" premiereChannelType="stereo">
    <masterclipid>masterclip-1</masterclipid>
    <name>S01E45.Jiggles.mkv</name>
    <enabled>TRUE</enabled>
    <duration>17218</duration>
    <rate>
        <timebase>23.976</timebase>
        <ntsc>FALSE</ntsc>
    </rate>
    <start>5095</start>
    <end>5111</end>
    <in>5513</in>
    <out>5529</out>
    <file id="file-5"/>
    
    <labels>
        <label2>Iris</label2>
    </labels>
</clipitem>
<clipitem id="29dd17fb-553b-4af3-b49c-ca228e798436" premiereChannelType="stereo">
    <masterclipid>masterclip-1</masterclipid>
    <name>S01E45.Jiggles.mkv</name>
    <enabled>TRUE</enabled>
    <duration>17218</duration>
    <rate>
        <timebase>23.976</timebase>
        <ntsc>FALSE</ntsc>
    </rate>
    <start>5111</start>
    <end>5122</end>
    <in>5529</in>
    <out>5540</out>
    <file id="file-5"/>
    
    <labels>
        <label2>Iris</label2>
    </labels>
</clipitem>
<clipitem id="7cfa6135-45e6-4a98-b0eb-f90ce4303b9c" premiereChannelType="stereo">
    <masterclipid>masterclip-1</masterclipid>
    <name>S01E45.Jiggles.mkv</name>
    <enabled>TRUE</enabled>
    <duration>17218</duration>
    <rate>
        <timebase>23.976</timebase>
        <ntsc>FALSE</ntsc>
    </rate>
    <start>5122</start>
    <end>5134</end>
    <in>5539</in>
    <out>5551</out>
    <file id="file-5"/>
    
    <labels>
        <label2>Iris</label2>
    </labels>
</clipitem>
<clipitem id="ce3188f6-7e31-4689-905d-121e1befabad" premiereChannelType="stereo">
    <masterclipid>masterclip-1</masterclipid>
    <name>S01E45.Jiggles.mkv</name>
    <enabled>TRUE</enabled>
    <duration>17218</duration>
    <rate>
        <timebase>23.976</timebase>
        <ntsc>FALSE</ntsc>
    </rate>
    <start>5134</start>
    <end>5145</end>
    <in>5552</in>
    <out>5563</out>
    <file id="file-5"/>
    
    <labels>
        <label2>Iris</label2>
    </labels>
</clipitem>
<clipitem id="fb7596c6-3de1-4eb2-8257-b1a908bfb839" premiereChannelType="stereo">
    <masterclipid>masterclip-1</masterclipid>
    <name>S01E45.Jiggles.mkv</name>
    <enabled>TRUE</enabled>
    <duration>17218</duration>
    <rate>
        <timebase>23.976</timebase>
        <ntsc>FALSE</ntsc>
    </rate>
    <start>5145</start>
    <end>5156</end>
    <in>5563</in>
    <out>5574</out>
    <file id="file-5"/>
    
    <labels>
        <label2>Iris</label2>
    </labels>
</clipitem>
<clipitem id="3f122080-37c3-477d-a703-824755822b61" premiereChannelType="stereo">
    <masterclipid>masterclip-1</masterclipid>
    <name>S01E45.Jiggles.mkv</name>
    <enabled>TRUE</enabled>
    <duration>17218</duration>
    <rate>
        <timebase>23.976</timebase>
        <ntsc>FALSE</ntsc>
    </rate>
    <start>5156</start>
    <end>5167</end>
    <in>5574</in>
    <out>5585</out>
    <file id="file-5"/>
    
    <labels>
        <label2>Iris</label2>
    </labels>
</clipitem>
<clipitem id="14d24316-bab2-48ed-ab09-e212b232866a" premiereChannelType="stereo">
    <masterclipid>masterclip-1</masterclipid>
    <name>S01E45.Jiggles.mkv</name>
    <enabled>TRUE</enabled>
    <duration>17218</duration>
    <rate>
        <timebase>23.976</timebase>
        <ntsc>FALSE</ntsc>
    </rate>
    <start>5167</start>
    <end>5178</end>
    <in>5585</in>
    <out>5596</out>
    <file id="file-5"/>
    
    <labels>
        <label2>Iris</label2>
    </labels>
</clipitem>
<clipitem id="98b403c3-3087-40f1-8b81-c2f4374b1c11" premiereChannelType="stereo">
    <masterclipid>masterclip-1</masterclipid>
    <name>S01E45.Jiggles.mkv</name>
    <enabled>TRUE</enabled>
    <duration>17218</duration>
    <rate>
        <timebase>23.976</timebase>
        <ntsc>FALSE</ntsc>
    </rate>
    <start>5178</start>
    <end>5193</end>
    <in>5596</in>
    <out>5611</out>
    <file id="file-5"/>
    
    <labels>
        <label2>Iris</label2>
    </labels>
</clipitem>
<clipitem id="3bf71d1f-3089-49e6-a2a6-493961bbfcd6" premiereChannelType="stereo">
    <masterclipid>masterclip-1</masterclipid>
    <name>S01E45.Jiggles.mkv</name>
    <enabled>TRUE</enabled>
    <duration>17218</duration>
    <rate>
        <timebase>23.976</timebase>
        <ntsc>FALSE</ntsc>
    </rate>
    <start>5193</start>
    <end>5207</end>
    <in>5611</in>
    <out>5625</out>
    <file id="file-5"/>
    
    <labels>
        <label2>Iris</label2>
    </labels>
</clipitem>
<clipitem id="1db03f4f-9945-4484-8766-f41cad276e3c" premiereChannelType="stereo">
    <masterclipid>masterclip-1</masterclipid>
    <name>S01E45.Jiggles.mkv</name>
    <enabled>TRUE</enabled>
    <duration>17218</duration>
    <rate>
        <timebase>23.976</timebase>
        <ntsc>FALSE</ntsc>
    </rate>
    <start>5207</start>
    <end>5222</end>
    <in>5625</in>
    <out>5640</out>
    <file id="file-5"/>
    
    <labels>
        <label2>Iris</label2>
    </labels>
</clipitem>
<clipitem id="66cba1d7-bbe8-4398-8b24-73a9fcfb8d16" premiereChannelType="stereo">
    <masterclipid>masterclip-1</masterclipid>
    <name>S01E45.Jiggles.mkv</name>
    <enabled>TRUE</enabled>
    <duration>17218</duration>
    <rate>
        <timebase>23.976</timebase>
        <ntsc>FALSE</ntsc>
    </rate>
    <start>5222</start>
    <end>5234</end>
    <in>5640</in>
    <out>5652</out>
    <file id="file-5"/>
    
    <labels>
        <label2>Iris</label2>
    </labels>
</clipitem>
<clipitem id="d834e546-abca-4f8e-af65-642338256522" premiereChannelType="stereo">
    <masterclipid>masterclip-1</masterclipid>
    <name>S01E45.Jiggles.mkv</name>
    <enabled>TRUE</enabled>
    <duration>17218</duration>
    <rate>
        <timebase>23.976</timebase>
        <ntsc>FALSE</ntsc>
    </rate>
    <start>5234</start>
    <end>5246</end>
    <in>5652</in>
    <out>5664</out>
    <file id="file-5"/>
    
    <labels>
        <label2>Iris</label2>
    </labels>
</clipitem>
<clipitem id="31903550-0bb8-4d17-9bf1-df02acc8200b" premiereChannelType="stereo">
    <masterclipid>masterclip-1</masterclipid>
    <name>S01E45.Jiggles.mkv</name>
    <enabled>TRUE</enabled>
    <duration>17218</duration>
    <rate>
        <timebase>23.976</timebase>
        <ntsc>FALSE</ntsc>
    </rate>
    <start>5246</start>
    <end>5258</end>
    <in>5664</in>
    <out>5676</out>
    <file id="file-5"/>
    
    <labels>
        <label2>Iris</label2>
    </labels>
</clipitem>
<clipitem id="7455d51c-9396-4767-9e7e-1d33bb7924d7" premiereChannelType="stereo">
    <masterclipid>masterclip-1</masterclipid>
    <name>S01E45.Jiggles.mkv</name>
    <enabled>TRUE</enabled>
    <duration>17218</duration>
    <rate>
        <timebase>23.976</timebase>
        <ntsc>FALSE</ntsc>
    </rate>
    <start>5258</start>
    <end>5322</end>
    <in>5676</in>
    <out>5740</out>
    <file id="file-5"/>
    
    <labels>
        <label2>Iris</label2>
    </labels>
</clipitem>
<clipitem id="0291b342-951c-467e-8dcc-e10fcca980e8" premiereChannelType="stereo">
    <masterclipid>masterclip-1</masterclipid>
    <name>S01E45.Jiggles.mkv</name>
    <enabled>TRUE</enabled>
    <duration>17218</duration>
    <rate>
        <timebase>23.976</timebase>
        <ntsc>FALSE</ntsc>
    </rate>
    <start>5322</start>
    <end>5333</end>
    <in>5740</in>
    <out>5751</out>
    <file id="file-5"/>
    
    <labels>
        <label2>Iris</label2>
    </labels>
</clipitem>
<clipitem id="f4c1f61c-9d18-4dbd-9fe6-8afc08e44558" premiereChannelType="stereo">
    <masterclipid>masterclip-1</masterclipid>
    <name>S01E45.Jiggles.mkv</name>
    <enabled>TRUE</enabled>
    <duration>17218</duration>
    <rate>
        <timebase>23.976</timebase>
        <ntsc>FALSE</ntsc>
    </rate>
    <start>5333</start>
    <end>5344</end>
    <in>5751</in>
    <out>5762</out>
    <file id="file-5"/>
    
    <labels>
        <label2>Iris</label2>
    </labels>
</clipitem>
<clipitem id="bd613086-5f9d-4136-8829-9b7e0e9db60e" premiereChannelType="stereo">
    <masterclipid>masterclip-1</masterclipid>
    <name>S01E45.Jiggles.mkv</name>
    <enabled>TRUE</enabled>
    <duration>17218</duration>
    <rate>
        <timebase>23.976</timebase>
        <ntsc>FALSE</ntsc>
    </rate>
    <start>5344</start>
    <end>5355</end>
    <in>5762</in>
    <out>5773</out>
    <file id="file-5"/>
    
    <labels>
        <label2>Iris</label2>
    </labels>
</clipitem>
<clipitem id="93b7362c-8381-423d-8684-8a5561773197" premiereChannelType="stereo">
    <masterclipid>masterclip-1</masterclipid>
    <name>S01E45.Jiggles.mkv</name>
    <enabled>TRUE</enabled>
    <duration>17218</duration>
    <rate>
        <timebase>23.976</timebase>
        <ntsc>FALSE</ntsc>
    </rate>
    <start>5355</start>
    <end>5376</end>
    <in>5773</in>
    <out>5794</out>
    <file id="file-5"/>
    
    <labels>
        <label2>Iris</label2>
    </labels>
</clipitem>
<clipitem id="44ddcb9d-2397-49a5-9ffb-c6e5049e4840" premiereChannelType="stereo">
    <masterclipid>masterclip-1</masterclipid>
    <name>S01E45.Jiggles.mkv</name>
    <enabled>TRUE</enabled>
    <duration>17218</duration>
    <rate>
        <timebase>23.976</timebase>
        <ntsc>FALSE</ntsc>
    </rate>
    <start>5376</start>
    <end>5405</end>
    <in>5794</in>
    <out>5823</out>
    <file id="file-5"/>
    
    <labels>
        <label2>Iris</label2>
    </labels>
</clipitem>
<clipitem id="9a4eb3e5-f7ff-4261-b8bd-32a2ff926fc5" premiereChannelType="stereo">
    <masterclipid>masterclip-1</masterclipid>
    <name>S01E45.Jiggles.mkv</name>
    <enabled>TRUE</enabled>
    <duration>17218</duration>
    <rate>
        <timebase>23.976</timebase>
        <ntsc>FALSE</ntsc>
    </rate>
    <start>5405</start>
    <end>5416</end>
    <in>5823</in>
    <out>5834</out>
    <file id="file-5"/>
    
    <labels>
        <label2>Iris</label2>
    </labels>
</clipitem>
<clipitem id="6ae8eb9c-fc7a-449e-b0f3-f5e0169c68e3" premiereChannelType="stereo">
    <masterclipid>masterclip-1</masterclipid>
    <name>S01E45.Jiggles.mkv</name>
    <enabled>TRUE</enabled>
    <duration>17218</duration>
    <rate>
        <timebase>23.976</timebase>
        <ntsc>FALSE</ntsc>
    </rate>
    <start>5416</start>
    <end>5439</end>
    <in>5834</in>
    <out>5857</out>
    <file id="file-5"/>
    
    <labels>
        <label2>Iris</label2>
    </labels>
</clipitem>
<clipitem id="bbf5a600-1f61-4cec-99e9-c4907606b9e1" premiereChannelType="stereo">
    <masterclipid>masterclip-1</masterclipid>
    <name>S01E45.Jiggles.mkv</name>
    <enabled>TRUE</enabled>
    <duration>17218</duration>
    <rate>
        <timebase>23.976</timebase>
        <ntsc>FALSE</ntsc>
    </rate>
    <start>5439</start>
    <end>5468</end>
    <in>5857</in>
    <out>5886</out>
    <file id="file-5"/>
    
    <labels>
        <label2>Iris</label2>
    </labels>
</clipitem>
<clipitem id="3c14a6bd-fb60-4e4b-b4b8-e62ba686a99b" premiereChannelType="stereo">
    <masterclipid>masterclip-1</masterclipid>
    <name>S01E45.Jiggles.mkv</name>
    <enabled>TRUE</enabled>
    <duration>17218</duration>
    <rate>
        <timebase>23.976</timebase>
        <ntsc>FALSE</ntsc>
    </rate>
    <start>5468</start>
    <end>5495</end>
    <in>5886</in>
    <out>5913</out>
    <file id="file-5"/>
    
    <labels>
        <label2>Iris</label2>
    </labels>
</clipitem>
<clipitem id="267cca7b-af0b-41e4-be25-aabe2c896c8a" premiereChannelType="stereo">
    <masterclipid>masterclip-1</masterclipid>
    <name>S01E45.Jiggles.mkv</name>
    <enabled>TRUE</enabled>
    <duration>17218</duration>
    <rate>
        <timebase>23.976</timebase>
        <ntsc>FALSE</ntsc>
    </rate>
    <start>5495</start>
    <end>5541</end>
    <in>5913</in>
    <out>5959</out>
    <file id="file-5"/>
    
    <labels>
        <label2>Iris</label2>
    </labels>
</clipitem>
<clipitem id="0471c21c-97cc-4105-bd34-41ad162dead9" premiereChannelType="stereo">
    <masterclipid>masterclip-1</masterclipid>
    <name>S01E45.Jiggles.mkv</name>
    <enabled>TRUE</enabled>
    <duration>17218</duration>
    <rate>
        <timebase>23.976</timebase>
        <ntsc>FALSE</ntsc>
    </rate>
    <start>5541</start>
    <end>5565</end>
    <in>5959</in>
    <out>5983</out>
    <file id="file-5"/>
    
    <labels>
        <label2>Iris</label2>
    </labels>
</clipitem>
<clipitem id="d756cb4a-114e-4327-b25b-f58dfac114af" premiereChannelType="stereo">
    <masterclipid>masterclip-1</masterclipid>
    <name>S01E45.Jiggles.mkv</name>
    <enabled>TRUE</enabled>
    <duration>17218</duration>
    <rate>
        <timebase>23.976</timebase>
        <ntsc>FALSE</ntsc>
    </rate>
    <start>5565</start>
    <end>5588</end>
    <in>5988</in>
    <out>6011</out>
    <file id="file-5"/>
    
    <labels>
        <label2>Iris</label2>
    </labels>
</clipitem>
<clipitem id="ec5393a7-8f5a-4aab-bba3-de38effd2dba" premiereChannelType="stereo">
    <masterclipid>masterclip-1</masterclipid>
    <name>S01E45.Jiggles.mkv</name>
    <enabled>TRUE</enabled>
    <duration>17218</duration>
    <rate>
        <timebase>23.976</timebase>
        <ntsc>FALSE</ntsc>
    </rate>
    <start>5588</start>
    <end>7259</end>
    <in>6004</in>
    <out>7675</out>
    <file id="file-5"/>
    
    <labels>
        <label2>Iris</label2>
    </labels>
</clipitem>
<clipitem id="3fc6abd9-2ccb-4613-a8b4-fcc52c6ad4f0" premiereChannelType="stereo">
    <masterclipid>masterclip-1</masterclipid>
    <name>S01E45.Jiggles.mkv</name>
    <enabled>TRUE</enabled>
    <duration>17218</duration>
    <rate>
        <timebase>23.976</timebase>
        <ntsc>FALSE</ntsc>
    </rate>
    <start>7259</start>
    <end>7317</end>
    <in>7677</in>
    <out>7735</out>
    <file id="file-5"/>
    
    <labels>
        <label2>Iris</label2>
    </labels>
</clipitem>
<clipitem id="5c0b32b2-a186-49a5-9bd4-ec265035c2e5" premiereChannelType="stereo">
    <masterclipid>masterclip-1</masterclipid>
    <name>S01E45.Jiggles.mkv</name>
    <enabled>TRUE</enabled>
    <duration>17218</duration>
    <rate>
        <timebase>23.976</timebase>
        <ntsc>FALSE</ntsc>
    </rate>
    <start>7317</start>
    <end>7334</end>
    <in>7735</in>
    <out>7752</out>
    <file id="file-5"/>
    
    <labels>
        <label2>Iris</label2>
    </labels>
</clipitem>
<clipitem id="65f60ebf-cae7-4599-a67f-4a36a8a4020d" premiereChannelType="stereo">
    <masterclipid>masterclip-1</masterclipid>
    <name>S01E45.Jiggles.mkv</name>
    <enabled>TRUE</enabled>
    <duration>17218</duration>
    <rate>
        <timebase>23.976</timebase>
        <ntsc>FALSE</ntsc>
    </rate>
    <start>7334</start>
    <end>7346</end>
    <in>7752</in>
    <out>7764</out>
    <file id="file-5"/>
    
    <labels>
        <label2>Iris</label2>
    </labels>
</clipitem>
<clipitem id="19644a60-f01b-4473-b3c8-180cc5efdb17" premiereChannelType="stereo">
    <masterclipid>masterclip-1</masterclipid>
    <name>S01E45.Jiggles.mkv</name>
    <enabled>TRUE</enabled>
    <duration>17218</duration>
    <rate>
        <timebase>23.976</timebase>
        <ntsc>FALSE</ntsc>
    </rate>
    <start>7346</start>
    <end>7379</end>
    <in>7764</in>
    <out>7797</out>
    <file id="file-5"/>
    
    <labels>
        <label2>Iris</label2>
    </labels>
</clipitem>
<clipitem id="515d222e-90ce-4642-a13d-a4889640008d" premiereChannelType="stereo">
    <masterclipid>masterclip-1</masterclipid>
    <name>S01E45.Jiggles.mkv</name>
    <enabled>TRUE</enabled>
    <duration>17218</duration>
    <rate>
        <timebase>23.976</timebase>
        <ntsc>FALSE</ntsc>
    </rate>
    <start>7379</start>
    <end>7397</end>
    <in>7797</in>
    <out>7815</out>
    <file id="file-5"/>
    
    <labels>
        <label2>Iris</label2>
    </labels>
</clipitem>
<clipitem id="47df7c94-6733-432b-a261-8541fe82aa7d" premiereChannelType="stereo">
    <masterclipid>masterclip-1</masterclipid>
    <name>S01E45.Jiggles.mkv</name>
    <enabled>TRUE</enabled>
    <duration>17218</duration>
    <rate>
        <timebase>23.976</timebase>
        <ntsc>FALSE</ntsc>
    </rate>
    <start>7397</start>
    <end>7420</end>
    <in>7822</in>
    <out>7845</out>
    <file id="file-5"/>
    
    <labels>
        <label2>Iris</label2>
    </labels>
</clipitem>
<clipitem id="912c79b4-ec43-4f3c-844d-d304b876feb0" premiereChannelType="stereo">
    <masterclipid>masterclip-1</masterclipid>
    <name>S01E45.Jiggles.mkv</name>
    <enabled>TRUE</enabled>
    <duration>17218</duration>
    <rate>
        <timebase>23.976</timebase>
        <ntsc>FALSE</ntsc>
    </rate>
    <start>7420</start>
    <end>7451</end>
    <in>7825</in>
    <out>7856</out>
    <file id="file-5"/>
    
    <labels>
        <label2>Iris</label2>
    </labels>
</clipitem>
<clipitem id="7e3bab73-b941-48c7-830a-120bdff4c6c4" premiereChannelType="stereo">
    <masterclipid>masterclip-1</masterclipid>
    <name>S01E45.Jiggles.mkv</name>
    <enabled>TRUE</enabled>
    <duration>17218</duration>
    <rate>
        <timebase>23.976</timebase>
        <ntsc>FALSE</ntsc>
    </rate>
    <start>7451</start>
    <end>7477</end>
    <in>7866</in>
    <out>7892</out>
    <file id="file-5"/>
    
    <labels>
        <label2>Iris</label2>
    </labels>
</clipitem>
<clipitem id="cc4f32c5-80ea-46c4-bfc8-1f01541201e4" premiereChannelType="stereo">
    <masterclipid>masterclip-1</masterclipid>
    <name>S01E45.Jiggles.mkv</name>
    <enabled>TRUE</enabled>
    <duration>17218</duration>
    <rate>
        <timebase>23.976</timebase>
        <ntsc>FALSE</ntsc>
    </rate>
    <start>7477</start>
    <end>7578</end>
    <in>7895</in>
    <out>7996</out>
    <file id="file-5"/>
    
    <labels>
        <label2>Iris</label2>
    </labels>
</clipitem>
<clipitem id="8f4f996e-6c41-4373-95f9-c46de5226cf5" premiereChannelType="stereo">
    <masterclipid>masterclip-1</masterclipid>
    <name>S01E45.Jiggles.mkv</name>
    <enabled>TRUE</enabled>
    <duration>17218</duration>
    <rate>
        <timebase>23.976</timebase>
        <ntsc>FALSE</ntsc>
    </rate>
    <start>7578</start>
    <end>7589</end>
    <in>7996</in>
    <out>8007</out>
    <file id="file-5"/>
    
    <labels>
        <label2>Iris</label2>
    </labels>
</clipitem>
<clipitem id="2df1bd53-ec35-4b9e-92e4-8c2713db50ee" premiereChannelType="stereo">
    <masterclipid>masterclip-1</masterclipid>
    <name>S01E45.Jiggles.mkv</name>
    <enabled>TRUE</enabled>
    <duration>17218</duration>
    <rate>
        <timebase>23.976</timebase>
        <ntsc>FALSE</ntsc>
    </rate>
    <start>7589</start>
    <end>7602</end>
    <in>8007</in>
    <out>8020</out>
    <file id="file-5"/>
    
    <labels>
        <label2>Iris</label2>
    </labels>
</clipitem>
<clipitem id="3644b91b-dfd8-47f6-8e6f-7d225fc63f16" premiereChannelType="stereo">
    <masterclipid>masterclip-1</masterclipid>
    <name>S01E45.Jiggles.mkv</name>
    <enabled>TRUE</enabled>
    <duration>17218</duration>
    <rate>
        <timebase>23.976</timebase>
        <ntsc>FALSE</ntsc>
    </rate>
    <start>7602</start>
    <end>7677</end>
    <in>8020</in>
    <out>8095</out>
    <file id="file-5"/>
    
    <labels>
        <label2>Iris</label2>
    </labels>
</clipitem>
<clipitem id="a442924b-69d2-423d-aace-dd7fb1dee9f7" premiereChannelType="stereo">
    <masterclipid>masterclip-1</masterclipid>
    <name>S01E45.Jiggles.mkv</name>
    <enabled>TRUE</enabled>
    <duration>17218</duration>
    <rate>
        <timebase>23.976</timebase>
        <ntsc>FALSE</ntsc>
    </rate>
    <start>7677</start>
    <end>8917</end>
    <in>8094</in>
    <out>9334</out>
    <file id="file-5"/>
    
    <labels>
        <label2>Iris</label2>
    </labels>
</clipitem>
<clipitem id="6de4884c-4338-4e89-a09a-9eb181287369" premiereChannelType="stereo">
    <masterclipid>masterclip-1</masterclipid>
    <name>S01E45.Jiggles.mkv</name>
    <enabled>TRUE</enabled>
    <duration>17218</duration>
    <rate>
        <timebase>23.976</timebase>
        <ntsc>FALSE</ntsc>
    </rate>
    <start>8917</start>
    <end>8962</end>
    <in>9334</in>
    <out>9379</out>
    <file id="file-5"/>
    
    <labels>
        <label2>Iris</label2>
    </labels>
</clipitem>
<clipitem id="8c594b07-ce2b-48aa-bb6d-b978cec241cc" premiereChannelType="stereo">
    <masterclipid>masterclip-1</masterclipid>
    <name>S01E45.Jiggles.mkv</name>
    <enabled>TRUE</enabled>
    <duration>17218</duration>
    <rate>
        <timebase>23.976</timebase>
        <ntsc>FALSE</ntsc>
    </rate>
    <start>8962</start>
    <end>8974</end>
    <in>9379</in>
    <out>9391</out>
    <file id="file-5"/>
    
    <labels>
        <label2>Iris</label2>
    </labels>
</clipitem>
<clipitem id="87e69693-2750-4d74-ad2e-c913bd235b3a" premiereChannelType="stereo">
    <masterclipid>masterclip-1</masterclipid>
    <name>S01E45.Jiggles.mkv</name>
    <enabled>TRUE</enabled>
    <duration>17218</duration>
    <rate>
        <timebase>23.976</timebase>
        <ntsc>FALSE</ntsc>
    </rate>
    <start>8974</start>
    <end>8985</end>
    <in>9391</in>
    <out>9402</out>
    <file id="file-5"/>
    
    <labels>
        <label2>Iris</label2>
    </labels>
</clipitem>
<clipitem id="584da897-d155-4e69-821b-ae395e73a553" premiereChannelType="stereo">
    <masterclipid>masterclip-1</masterclipid>
    <name>S01E45.Jiggles.mkv</name>
    <enabled>TRUE</enabled>
    <duration>17218</duration>
    <rate>
        <timebase>23.976</timebase>
        <ntsc>FALSE</ntsc>
    </rate>
    <start>8985</start>
    <end>8996</end>
    <in>9402</in>
    <out>9413</out>
    <file id="file-5"/>
    
    <labels>
        <label2>Iris</label2>
    </labels>
</clipitem>
<clipitem id="a5a6c96e-15ee-4ce5-9a1a-afca47491e1d" premiereChannelType="stereo">
    <masterclipid>masterclip-1</masterclipid>
    <name>S01E45.Jiggles.mkv</name>
    <enabled>TRUE</enabled>
    <duration>17218</duration>
    <rate>
        <timebase>23.976</timebase>
        <ntsc>FALSE</ntsc>
    </rate>
    <start>8996</start>
    <end>9064</end>
    <in>9413</in>
    <out>9481</out>
    <file id="file-5"/>
    
    <labels>
        <label2>Iris</label2>
    </labels>
</clipitem>
<clipitem id="dc87f9de-c8de-43be-879a-1b5487840c7e" premiereChannelType="stereo">
    <masterclipid>masterclip-1</masterclipid>
    <name>S01E45.Jiggles.mkv</name>
    <enabled>TRUE</enabled>
    <duration>17218</duration>
    <rate>
        <timebase>23.976</timebase>
        <ntsc>FALSE</ntsc>
    </rate>
    <start>9064</start>
    <end>9541</end>
    <in>9480</in>
    <out>9957</out>
    <file id="file-5"/>
    
    <labels>
        <label2>Iris</label2>
    </labels>
</clipitem>
<clipitem id="7170d7af-82f0-4e4d-858e-89ef9f6ac945" premiereChannelType="stereo">
    <masterclipid>masterclip-1</masterclipid>
    <name>S01E45.Jiggles.mkv</name>
    <enabled>TRUE</enabled>
    <duration>17218</duration>
    <rate>
        <timebase>23.976</timebase>
        <ntsc>FALSE</ntsc>
    </rate>
    <start>9541</start>
    <end>9581</end>
    <in>9958</in>
    <out>9998</out>
    <file id="file-5"/>
    
    <labels>
        <label2>Iris</label2>
    </labels>
</clipitem>
<clipitem id="b86584ce-e9bf-4a5b-aae9-6054c7fb33fa" premiereChannelType="stereo">
    <masterclipid>masterclip-1</masterclipid>
    <name>S01E45.Jiggles.mkv</name>
    <enabled>TRUE</enabled>
    <duration>17218</duration>
    <rate>
        <timebase>23.976</timebase>
        <ntsc>FALSE</ntsc>
    </rate>
    <start>9583</start>
    <end>9624</end>
    <in>10000</in>
    <out>10041</out>
    <file id="file-5"/>
    
    <labels>
        <label2>Iris</label2>
    </labels>
</clipitem>
<clipitem id="b6ce342f-05fb-4737-b749-45bd6059c1a7" premiereChannelType="stereo">
    <masterclipid>masterclip-1</masterclipid>
    <name>S01E45.Jiggles.mkv</name>
    <enabled>TRUE</enabled>
    <duration>17218</duration>
    <rate>
        <timebase>23.976</timebase>
        <ntsc>FALSE</ntsc>
    </rate>
    <start>9627</start>
    <end>9698</end>
    <in>10043</in>
    <out>10114</out>
    <file id="file-5"/>
    
    <labels>
        <label2>Iris</label2>
    </labels>
</clipitem>
<clipitem id="ad5e3ded-4612-49e9-b8dd-0b5110321044" premiereChannelType="stereo">
    <masterclipid>masterclip-1</masterclipid>
    <name>S01E45.Jiggles.mkv</name>
    <enabled>TRUE</enabled>
    <duration>17218</duration>
    <rate>
        <timebase>23.976</timebase>
        <ntsc>FALSE</ntsc>
    </rate>
    <start>9700</start>
    <end>9726</end>
    <in>10116</in>
    <out>10142</out>
    <file id="file-5"/>
    
    <labels>
        <label2>Iris</label2>
    </labels>
</clipitem>
<clipitem id="2c1f70f4-eb12-4941-8b42-7aef388fe909" premiereChannelType="stereo">
    <masterclipid>masterclip-1</masterclipid>
    <name>S01E45.Jiggles.mkv</name>
    <enabled>TRUE</enabled>
    <duration>17218</duration>
    <rate>
        <timebase>23.976</timebase>
        <ntsc>FALSE</ntsc>
    </rate>
    <start>9728</start>
    <end>9775</end>
    <in>10144</in>
    <out>10191</out>
    <file id="file-5"/>
    
    <labels>
        <label2>Iris</label2>
    </labels>
</clipitem>
<clipitem id="6e0aca02-af53-498a-ba1c-50a62568c80f" premiereChannelType="stereo">
    <masterclipid>masterclip-1</masterclipid>
    <name>S01E45.Jiggles.mkv</name>
    <enabled>TRUE</enabled>
    <duration>17218</duration>
    <rate>
        <timebase>23.976</timebase>
        <ntsc>FALSE</ntsc>
    </rate>
    <start>9776</start>
    <end>9909</end>
    <in>10192</in>
    <out>10325</out>
    <file id="file-5"/>
    
    <labels>
        <label2>Iris</label2>
    </labels>
</clipitem>
<clipitem id="0bdf1d3e-0c39-4e70-a11d-55ca5e2dee96" premiereChannelType="stereo">
    <masterclipid>masterclip-1</masterclipid>
    <name>S01E45.Jiggles.mkv</name>
    <enabled>TRUE</enabled>
    <duration>17218</duration>
    <rate>
        <timebase>23.976</timebase>
        <ntsc>FALSE</ntsc>
    </rate>
    <start>9909</start>
    <end>9954</end>
    <in>10325</in>
    <out>10370</out>
    <file id="file-5"/>
    
    <labels>
        <label2>Iris</label2>
    </labels>
</clipitem>
<clipitem id="d8fab27f-6fa7-4eac-bc90-4f3b3dc61c86" premiereChannelType="stereo">
    <masterclipid>masterclip-1</masterclipid>
    <name>S01E45.Jiggles.mkv</name>
    <enabled>TRUE</enabled>
    <duration>17218</duration>
    <rate>
        <timebase>23.976</timebase>
        <ntsc>FALSE</ntsc>
    </rate>
    <start>9954</start>
    <end>10018</end>
    <in>10369</in>
    <out>10433</out>
    <file id="file-5"/>
    
    <labels>
        <label2>Iris</label2>
    </labels>
</clipitem>
<clipitem id="5bf1a5d6-f2e2-4e2a-afa7-921e2f7078c9" premiereChannelType="stereo">
    <masterclipid>masterclip-1</masterclipid>
    <name>S01E45.Jiggles.mkv</name>
    <enabled>TRUE</enabled>
    <duration>17218</duration>
    <rate>
        <timebase>23.976</timebase>
        <ntsc>FALSE</ntsc>
    </rate>
    <start>10018</start>
    <end>10037</end>
    <in>10434</in>
    <out>10453</out>
    <file id="file-5"/>
    
    <labels>
        <label2>Iris</label2>
    </labels>
</clipitem>
<clipitem id="f32fe66a-750e-470e-b98c-46b64c2fbb42" premiereChannelType="stereo">
    <masterclipid>masterclip-1</masterclipid>
    <name>S01E45.Jiggles.mkv</name>
    <enabled>TRUE</enabled>
    <duration>17218</duration>
    <rate>
        <timebase>23.976</timebase>
        <ntsc>FALSE</ntsc>
    </rate>
    <start>10037</start>
    <end>10057</end>
    <in>10453</in>
    <out>10473</out>
    <file id="file-5"/>
    
    <labels>
        <label2>Iris</label2>
    </labels>
</clipitem>
<clipitem id="30723f7b-abc0-4e75-8a94-08fa2aa22183" premiereChannelType="stereo">
    <masterclipid>masterclip-1</masterclipid>
    <name>S01E45.Jiggles.mkv</name>
    <enabled>TRUE</enabled>
    <duration>17218</duration>
    <rate>
        <timebase>23.976</timebase>
        <ntsc>FALSE</ntsc>
    </rate>
    <start>10057</start>
    <end>10077</end>
    <in>10473</in>
    <out>10493</out>
    <file id="file-5"/>
    
    <labels>
        <label2>Iris</label2>
    </labels>
</clipitem>
<clipitem id="fca12e8c-f236-46b5-9f2e-8ae33af1cc62" premiereChannelType="stereo">
    <masterclipid>masterclip-1</masterclipid>
    <name>S01E45.Jiggles.mkv</name>
    <enabled>TRUE</enabled>
    <duration>17218</duration>
    <rate>
        <timebase>23.976</timebase>
        <ntsc>FALSE</ntsc>
    </rate>
    <start>10077</start>
    <end>10094</end>
    <in>10493</in>
    <out>10510</out>
    <file id="file-5"/>
    
    <labels>
        <label2>Iris</label2>
    </labels>
</clipitem>
<clipitem id="03e3a619-bacb-4683-ac30-053a3f3fc09f" premiereChannelType="stereo">
    <masterclipid>masterclip-1</masterclipid>
    <name>S01E45.Jiggles.mkv</name>
    <enabled>TRUE</enabled>
    <duration>17218</duration>
    <rate>
        <timebase>23.976</timebase>
        <ntsc>FALSE</ntsc>
    </rate>
    <start>10094</start>
    <end>10114</end>
    <in>10510</in>
    <out>10530</out>
    <file id="file-5"/>
    
    <labels>
        <label2>Iris</label2>
    </labels>
</clipitem>
<clipitem id="e53d66d2-fff8-45cc-a4ae-0483e9e26ee6" premiereChannelType="stereo">
    <masterclipid>masterclip-1</masterclipid>
    <name>S01E45.Jiggles.mkv</name>
    <enabled>TRUE</enabled>
    <duration>17218</duration>
    <rate>
        <timebase>23.976</timebase>
        <ntsc>FALSE</ntsc>
    </rate>
    <start>10114</start>
    <end>10143</end>
    <in>10530</in>
    <out>10559</out>
    <file id="file-5"/>
    
    <labels>
        <label2>Iris</label2>
    </labels>
</clipitem>
<clipitem id="d8b0dd52-14bd-4ae7-b9e7-11adda36efcf" premiereChannelType="stereo">
    <masterclipid>masterclip-1</masterclipid>
    <name>S01E45.Jiggles.mkv</name>
    <enabled>TRUE</enabled>
    <duration>17218</duration>
    <rate>
        <timebase>23.976</timebase>
        <ntsc>FALSE</ntsc>
    </rate>
    <start>10143</start>
    <end>10161</end>
    <in>10559</in>
    <out>10577</out>
    <file id="file-5"/>
    
    <labels>
        <label2>Iris</label2>
    </labels>
</clipitem>
<clipitem id="8b5390fd-ddf2-4df2-a8c3-03cb3fca8e48" premiereChannelType="stereo">
    <masterclipid>masterclip-1</masterclipid>
    <name>S01E45.Jiggles.mkv</name>
    <enabled>TRUE</enabled>
    <duration>17218</duration>
    <rate>
        <timebase>23.976</timebase>
        <ntsc>FALSE</ntsc>
    </rate>
    <start>10161</start>
    <end>10181</end>
    <in>10577</in>
    <out>10597</out>
    <file id="file-5"/>
    
    <labels>
        <label2>Iris</label2>
    </labels>
</clipitem>
<clipitem id="1b77e82f-783e-4041-94d7-8579719a100f" premiereChannelType="stereo">
    <masterclipid>masterclip-1</masterclipid>
    <name>S01E45.Jiggles.mkv</name>
    <enabled>TRUE</enabled>
    <duration>17218</duration>
    <rate>
        <timebase>23.976</timebase>
        <ntsc>FALSE</ntsc>
    </rate>
    <start>10181</start>
    <end>10597</end>
    <in>10596</in>
    <out>11012</out>
    <file id="file-5"/>
    
    <labels>
        <label2>Iris</label2>
    </labels>
</clipitem>
<clipitem id="6ede9657-42c2-48b5-9b24-b19286f0650f" premiereChannelType="stereo">
    <masterclipid>masterclip-1</masterclipid>
    <name>S01E45.Jiggles.mkv</name>
    <enabled>TRUE</enabled>
    <duration>17218</duration>
    <rate>
        <timebase>23.976</timebase>
        <ntsc>FALSE</ntsc>
    </rate>
    <start>10597</start>
    <end>10629</end>
    <in>11014</in>
    <out>11046</out>
    <file id="file-5"/>
    
    <labels>
        <label2>Iris</label2>
    </labels>
</clipitem>
<clipitem id="e619f84e-b7ef-4901-bad6-373a7e543d87" premiereChannelType="stereo">
    <masterclipid>masterclip-1</masterclipid>
    <name>S01E45.Jiggles.mkv</name>
    <enabled>TRUE</enabled>
    <duration>17218</duration>
    <rate>
        <timebase>23.976</timebase>
        <ntsc>FALSE</ntsc>
    </rate>
    <start>10629</start>
    <end>11004</end>
    <in>11045</in>
    <out>11420</out>
    <file id="file-5"/>
    
    <labels>
        <label2>Iris</label2>
    </labels>
</clipitem>
<clipitem id="41795244-9d9c-41c2-a61d-bd7cb0459260" premiereChannelType="stereo">
    <masterclipid>masterclip-1</masterclipid>
    <name>S01E45.Jiggles.mkv</name>
    <enabled>TRUE</enabled>
    <duration>17218</duration>
    <rate>
        <timebase>23.976</timebase>
        <ntsc>FALSE</ntsc>
    </rate>
    <start>11004</start>
    <end>11036</end>
    <in>11422</in>
    <out>11454</out>
    <file id="file-5"/>
    
    <labels>
        <label2>Iris</label2>
    </labels>
</clipitem>
<clipitem id="38338bb4-eae9-400f-bdf7-f6f93d3e7ff6" premiereChannelType="stereo">
    <masterclipid>masterclip-1</masterclipid>
    <name>S01E45.Jiggles.mkv</name>
    <enabled>TRUE</enabled>
    <duration>17218</duration>
    <rate>
        <timebase>23.976</timebase>
        <ntsc>FALSE</ntsc>
    </rate>
    <start>11036</start>
    <end>11064</end>
    <in>11454</in>
    <out>11482</out>
    <file id="file-5"/>
    
    <labels>
        <label2>Iris</label2>
    </labels>
</clipitem>
<clipitem id="835f8f10-0266-4879-a740-215a3cee8d35" premiereChannelType="stereo">
    <masterclipid>masterclip-1</masterclipid>
    <name>S01E45.Jiggles.mkv</name>
    <enabled>TRUE</enabled>
    <duration>17218</duration>
    <rate>
        <timebase>23.976</timebase>
        <ntsc>FALSE</ntsc>
    </rate>
    <start>11064</start>
    <end>11117</end>
    <in>11482</in>
    <out>11535</out>
    <file id="file-5"/>
    
    <labels>
        <label2>Iris</label2>
    </labels>
</clipitem>
<clipitem id="e4d18b42-7f05-4ba2-8f3b-f6842e3b08ad" premiereChannelType="stereo">
    <masterclipid>masterclip-1</masterclipid>
    <name>S01E45.Jiggles.mkv</name>
    <enabled>TRUE</enabled>
    <duration>17218</duration>
    <rate>
        <timebase>23.976</timebase>
        <ntsc>FALSE</ntsc>
    </rate>
    <start>11117</start>
    <end>11165</end>
    <in>11535</in>
    <out>11583</out>
    <file id="file-5"/>
    
    <labels>
        <label2>Iris</label2>
    </labels>
</clipitem>
<clipitem id="6e31f0a5-4f90-4cae-9a83-f2fa4dea831d" premiereChannelType="stereo">
    <masterclipid>masterclip-1</masterclipid>
    <name>S01E45.Jiggles.mkv</name>
    <enabled>TRUE</enabled>
    <duration>17218</duration>
    <rate>
        <timebase>23.976</timebase>
        <ntsc>FALSE</ntsc>
    </rate>
    <start>11165</start>
    <end>11324</end>
    <in>11584</in>
    <out>11743</out>
    <file id="file-5"/>
    
    <labels>
        <label2>Iris</label2>
    </labels>
</clipitem>
<clipitem id="e1d31c50-ca2b-4640-94e4-af1fd27944d6" premiereChannelType="stereo">
    <masterclipid>masterclip-1</masterclipid>
    <name>S01E45.Jiggles.mkv</name>
    <enabled>TRUE</enabled>
    <duration>17218</duration>
    <rate>
        <timebase>23.976</timebase>
        <ntsc>FALSE</ntsc>
    </rate>
    <start>11324</start>
    <end>11339</end>
    <in>11742</in>
    <out>11757</out>
    <file id="file-5"/>
    
    <labels>
        <label2>Iris</label2>
    </labels>
</clipitem>
<clipitem id="1122a441-d054-40b6-9949-c80609d6e7aa" premiereChannelType="stereo">
    <masterclipid>masterclip-1</masterclipid>
    <name>S01E45.Jiggles.mkv</name>
    <enabled>TRUE</enabled>
    <duration>17218</duration>
    <rate>
        <timebase>23.976</timebase>
        <ntsc>FALSE</ntsc>
    </rate>
    <start>11339</start>
    <end>11350</end>
    <in>11757</in>
    <out>11768</out>
    <file id="file-5"/>
    
    <labels>
        <label2>Iris</label2>
    </labels>
</clipitem>
<clipitem id="4d6cdedc-5d90-425f-9359-237350cf8ba6" premiereChannelType="stereo">
    <masterclipid>masterclip-1</masterclipid>
    <name>S01E45.Jiggles.mkv</name>
    <enabled>TRUE</enabled>
    <duration>17218</duration>
    <rate>
        <timebase>23.976</timebase>
        <ntsc>FALSE</ntsc>
    </rate>
    <start>11350</start>
    <end>11376</end>
    <in>11768</in>
    <out>11794</out>
    <file id="file-5"/>
    
    <labels>
        <label2>Iris</label2>
    </labels>
</clipitem>
<clipitem id="59ebdeac-7878-4f71-9bf8-94b1e9b481bc" premiereChannelType="stereo">
    <masterclipid>masterclip-1</masterclipid>
    <name>S01E45.Jiggles.mkv</name>
    <enabled>TRUE</enabled>
    <duration>17218</duration>
    <rate>
        <timebase>23.976</timebase>
        <ntsc>FALSE</ntsc>
    </rate>
    <start>11376</start>
    <end>11387</end>
    <in>11794</in>
    <out>11805</out>
    <file id="file-5"/>
    
    <labels>
        <label2>Iris</label2>
    </labels>
</clipitem>
<clipitem id="c20df7d0-99fb-4957-8b1f-99623fd8629d" premiereChannelType="stereo">
    <masterclipid>masterclip-1</masterclipid>
    <name>S01E45.Jiggles.mkv</name>
    <enabled>TRUE</enabled>
    <duration>17218</duration>
    <rate>
        <timebase>23.976</timebase>
        <ntsc>FALSE</ntsc>
    </rate>
    <start>11387</start>
    <end>11403</end>
    <in>11805</in>
    <out>11821</out>
    <file id="file-5"/>
    
    <labels>
        <label2>Iris</label2>
    </labels>
</clipitem>
<clipitem id="f5f1b6ce-2c7c-43d4-a593-ad091f6c7add" premiereChannelType="stereo">
    <masterclipid>masterclip-1</masterclipid>
    <name>S01E45.Jiggles.mkv</name>
    <enabled>TRUE</enabled>
    <duration>17218</duration>
    <rate>
        <timebase>23.976</timebase>
        <ntsc>FALSE</ntsc>
    </rate>
    <start>11403</start>
    <end>11435</end>
    <in>11821</in>
    <out>11853</out>
    <file id="file-5"/>
    
    <labels>
        <label2>Iris</label2>
    </labels>
</clipitem>
<clipitem id="ef07463f-cd2b-4f04-bae1-b28aae1d7884" premiereChannelType="stereo">
    <masterclipid>masterclip-1</masterclipid>
    <name>S01E45.Jiggles.mkv</name>
    <enabled>TRUE</enabled>
    <duration>17218</duration>
    <rate>
        <timebase>23.976</timebase>
        <ntsc>FALSE</ntsc>
    </rate>
    <start>11435</start>
    <end>11463</end>
    <in>11853</in>
    <out>11881</out>
    <file id="file-5"/>
    
    <labels>
        <label2>Iris</label2>
    </labels>
</clipitem>
<clipitem id="48da42c2-18cd-49b8-8e5c-149580e26d0d" premiereChannelType="stereo">
    <masterclipid>masterclip-1</masterclipid>
    <name>S01E45.Jiggles.mkv</name>
    <enabled>TRUE</enabled>
    <duration>17218</duration>
    <rate>
        <timebase>23.976</timebase>
        <ntsc>FALSE</ntsc>
    </rate>
    <start>11463</start>
    <end>11478</end>
    <in>11881</in>
    <out>11896</out>
    <file id="file-5"/>
    
    <labels>
        <label2>Iris</label2>
    </labels>
</clipitem>
<clipitem id="72391c4b-e984-4960-9e04-80e625c2d1f4" premiereChannelType="stereo">
    <masterclipid>masterclip-1</masterclipid>
    <name>S01E45.Jiggles.mkv</name>
    <enabled>TRUE</enabled>
    <duration>17218</duration>
    <rate>
        <timebase>23.976</timebase>
        <ntsc>FALSE</ntsc>
    </rate>
    <start>11478</start>
    <end>11489</end>
    <in>11896</in>
    <out>11907</out>
    <file id="file-5"/>
    
    <labels>
        <label2>Iris</label2>
    </labels>
</clipitem>
<clipitem id="8ec23b69-da6f-4dd6-8bab-00a3d85b7bdc" premiereChannelType="stereo">
    <masterclipid>masterclip-1</masterclipid>
    <name>S01E45.Jiggles.mkv</name>
    <enabled>TRUE</enabled>
    <duration>17218</duration>
    <rate>
        <timebase>23.976</timebase>
        <ntsc>FALSE</ntsc>
    </rate>
    <start>11489</start>
    <end>11507</end>
    <in>11907</in>
    <out>11925</out>
    <file id="file-5"/>
    
    <labels>
        <label2>Iris</label2>
    </labels>
</clipitem>
<clipitem id="d7471048-0d80-4693-af5f-9c46acba2534" premiereChannelType="stereo">
    <masterclipid>masterclip-1</masterclipid>
    <name>S01E45.Jiggles.mkv</name>
    <enabled>TRUE</enabled>
    <duration>17218</duration>
    <rate>
        <timebase>23.976</timebase>
        <ntsc>FALSE</ntsc>
    </rate>
    <start>11507</start>
    <end>11519</end>
    <in>11927</in>
    <out>11939</out>
    <file id="file-5"/>
    
    <labels>
        <label2>Iris</label2>
    </labels>
</clipitem>
<clipitem id="833c3938-40ad-426b-a72c-291d415cb5d2" premiereChannelType="stereo">
    <masterclipid>masterclip-1</masterclipid>
    <name>S01E45.Jiggles.mkv</name>
    <enabled>TRUE</enabled>
    <duration>17218</duration>
    <rate>
        <timebase>23.976</timebase>
        <ntsc>FALSE</ntsc>
    </rate>
    <start>11519</start>
    <end>11532</end>
    <in>11937</in>
    <out>11950</out>
    <file id="file-5"/>
    
    <labels>
        <label2>Iris</label2>
    </labels>
</clipitem>
<clipitem id="d5b346b6-67f2-4d7d-99db-8d157faea9f2" premiereChannelType="stereo">
    <masterclipid>masterclip-1</masterclipid>
    <name>S01E45.Jiggles.mkv</name>
    <enabled>TRUE</enabled>
    <duration>17218</duration>
    <rate>
        <timebase>23.976</timebase>
        <ntsc>FALSE</ntsc>
    </rate>
    <start>11532</start>
    <end>11590</end>
    <in>11950</in>
    <out>12008</out>
    <file id="file-5"/>
    
    <labels>
        <label2>Iris</label2>
    </labels>
</clipitem>
<clipitem id="e5b8778f-b565-49b6-ab19-d4d62accf7b7" premiereChannelType="stereo">
    <masterclipid>masterclip-1</masterclipid>
    <name>S01E45.Jiggles.mkv</name>
    <enabled>TRUE</enabled>
    <duration>17218</duration>
    <rate>
        <timebase>23.976</timebase>
        <ntsc>FALSE</ntsc>
    </rate>
    <start>11590</start>
    <end>11632</end>
    <in>12008</in>
    <out>12050</out>
    <file id="file-5"/>
    
    <labels>
        <label2>Iris</label2>
    </labels>
</clipitem>
<clipitem id="f4d72353-4bd4-4999-813d-845654a16ca2" premiereChannelType="stereo">
    <masterclipid>masterclip-1</masterclipid>
    <name>S01E45.Jiggles.mkv</name>
    <enabled>TRUE</enabled>
    <duration>17218</duration>
    <rate>
        <timebase>23.976</timebase>
        <ntsc>FALSE</ntsc>
    </rate>
    <start>11632</start>
    <end>11656</end>
    <in>12050</in>
    <out>12074</out>
    <file id="file-5"/>
    
    <labels>
        <label2>Iris</label2>
    </labels>
</clipitem>
<clipitem id="6c89a947-fe8a-4fb0-8ddc-8930d1117810" premiereChannelType="stereo">
    <masterclipid>masterclip-1</masterclipid>
    <name>S01E45.Jiggles.mkv</name>
    <enabled>TRUE</enabled>
    <duration>17218</duration>
    <rate>
        <timebase>23.976</timebase>
        <ntsc>FALSE</ntsc>
    </rate>
    <start>11656</start>
    <end>11667</end>
    <in>12074</in>
    <out>12085</out>
    <file id="file-5"/>
    
    <labels>
        <label2>Iris</label2>
    </labels>
</clipitem>
<clipitem id="40b5fe56-e78b-4c9e-816b-047dce1bbdd5" premiereChannelType="stereo">
    <masterclipid>masterclip-1</masterclipid>
    <name>S01E45.Jiggles.mkv</name>
    <enabled>TRUE</enabled>
    <duration>17218</duration>
    <rate>
        <timebase>23.976</timebase>
        <ntsc>FALSE</ntsc>
    </rate>
    <start>11667</start>
    <end>11714</end>
    <in>12085</in>
    <out>12132</out>
    <file id="file-5"/>
    
    <labels>
        <label2>Iris</label2>
    </labels>
</clipitem>
<clipitem id="89233bc6-51c3-4f8f-becc-66f7f12190eb" premiereChannelType="stereo">
    <masterclipid>masterclip-1</masterclipid>
    <name>S01E45.Jiggles.mkv</name>
    <enabled>TRUE</enabled>
    <duration>17218</duration>
    <rate>
        <timebase>23.976</timebase>
        <ntsc>FALSE</ntsc>
    </rate>
    <start>11714</start>
    <end>11753</end>
    <in>12132</in>
    <out>12171</out>
    <file id="file-5"/>
    
    <labels>
        <label2>Iris</label2>
    </labels>
</clipitem>
<clipitem id="58dc7996-9190-4d9a-99c4-e9be381358e6" premiereChannelType="stereo">
    <masterclipid>masterclip-1</masterclipid>
    <name>S01E45.Jiggles.mkv</name>
    <enabled>TRUE</enabled>
    <duration>17218</duration>
    <rate>
        <timebase>23.976</timebase>
        <ntsc>FALSE</ntsc>
    </rate>
    <start>11753</start>
    <end>11771</end>
    <in>12171</in>
    <out>12189</out>
    <file id="file-5"/>
    
    <labels>
        <label2>Iris</label2>
    </labels>
</clipitem>
<clipitem id="23f4f6ad-ca15-4417-aa55-ae9942b63a7c" premiereChannelType="stereo">
    <masterclipid>masterclip-1</masterclipid>
    <name>S01E45.Jiggles.mkv</name>
    <enabled>TRUE</enabled>
    <duration>17218</duration>
    <rate>
        <timebase>23.976</timebase>
        <ntsc>FALSE</ntsc>
    </rate>
    <start>11771</start>
    <end>11785</end>
    <in>12189</in>
    <out>12203</out>
    <file id="file-5"/>
    
    <labels>
        <label2>Iris</label2>
    </labels>
</clipitem>
<clipitem id="86d9a99e-8827-417e-b31a-ae3b2cfccac6" premiereChannelType="stereo">
    <masterclipid>masterclip-1</masterclipid>
    <name>S01E45.Jiggles.mkv</name>
    <enabled>TRUE</enabled>
    <duration>17218</duration>
    <rate>
        <timebase>23.976</timebase>
        <ntsc>FALSE</ntsc>
    </rate>
    <start>11785</start>
    <end>11823</end>
    <in>12203</in>
    <out>12241</out>
    <file id="file-5"/>
    
    <labels>
        <label2>Iris</label2>
    </labels>
</clipitem>
<clipitem id="cf072259-dd3b-4217-a5a0-bc5f684f1f84" premiereChannelType="stereo">
    <masterclipid>masterclip-1</masterclipid>
    <name>S01E45.Jiggles.mkv</name>
    <enabled>TRUE</enabled>
    <duration>17218</duration>
    <rate>
        <timebase>23.976</timebase>
        <ntsc>FALSE</ntsc>
    </rate>
    <start>11823</start>
    <end>11840</end>
    <in>12241</in>
    <out>12258</out>
    <file id="file-5"/>
    
    <labels>
        <label2>Iris</label2>
    </labels>
</clipitem>
<clipitem id="bfa1666c-11cf-4423-a37e-106dbb480ee4" premiereChannelType="stereo">
    <masterclipid>masterclip-1</masterclipid>
    <name>S01E45.Jiggles.mkv</name>
    <enabled>TRUE</enabled>
    <duration>17218</duration>
    <rate>
        <timebase>23.976</timebase>
        <ntsc>FALSE</ntsc>
    </rate>
    <start>11840</start>
    <end>11852</end>
    <in>12258</in>
    <out>12270</out>
    <file id="file-5"/>
    
    <labels>
        <label2>Iris</label2>
    </labels>
</clipitem>
<clipitem id="56ce07ac-8f5c-458a-9d34-4e2981bdc3d5" premiereChannelType="stereo">
    <masterclipid>masterclip-1</masterclipid>
    <name>S01E45.Jiggles.mkv</name>
    <enabled>TRUE</enabled>
    <duration>17218</duration>
    <rate>
        <timebase>23.976</timebase>
        <ntsc>FALSE</ntsc>
    </rate>
    <start>11852</start>
    <end>11870</end>
    <in>12270</in>
    <out>12288</out>
    <file id="file-5"/>
    
    <labels>
        <label2>Iris</label2>
    </labels>
</clipitem>
<clipitem id="06ded16d-b7df-4a8f-8f3b-5287e9905535" premiereChannelType="stereo">
    <masterclipid>masterclip-1</masterclipid>
    <name>S01E45.Jiggles.mkv</name>
    <enabled>TRUE</enabled>
    <duration>17218</duration>
    <rate>
        <timebase>23.976</timebase>
        <ntsc>FALSE</ntsc>
    </rate>
    <start>11870</start>
    <end>11881</end>
    <in>12288</in>
    <out>12299</out>
    <file id="file-5"/>
    
    <labels>
        <label2>Iris</label2>
    </labels>
</clipitem>
<clipitem id="2fe272fa-db47-46cc-9fb6-9fde3d820765" premiereChannelType="stereo">
    <masterclipid>masterclip-1</masterclipid>
    <name>S01E45.Jiggles.mkv</name>
    <enabled>TRUE</enabled>
    <duration>17218</duration>
    <rate>
        <timebase>23.976</timebase>
        <ntsc>FALSE</ntsc>
    </rate>
    <start>11881</start>
    <end>11893</end>
    <in>12299</in>
    <out>12311</out>
    <file id="file-5"/>
    
    <labels>
        <label2>Iris</label2>
    </labels>
</clipitem>
<clipitem id="93dbecfe-201f-4227-a60c-2d3a4dcd2cc0" premiereChannelType="stereo">
    <masterclipid>masterclip-1</masterclipid>
    <name>S01E45.Jiggles.mkv</name>
    <enabled>TRUE</enabled>
    <duration>17218</duration>
    <rate>
        <timebase>23.976</timebase>
        <ntsc>FALSE</ntsc>
    </rate>
    <start>11893</start>
    <end>11917</end>
    <in>12311</in>
    <out>12335</out>
    <file id="file-5"/>
    
    <labels>
        <label2>Iris</label2>
    </labels>
</clipitem>
<clipitem id="c0ebe02e-bc73-4fbf-80a3-49aa9397f75d" premiereChannelType="stereo">
    <masterclipid>masterclip-1</masterclipid>
    <name>S01E45.Jiggles.mkv</name>
    <enabled>TRUE</enabled>
    <duration>17218</duration>
    <rate>
        <timebase>23.976</timebase>
        <ntsc>FALSE</ntsc>
    </rate>
    <start>11917</start>
    <end>11928</end>
    <in>12335</in>
    <out>12346</out>
    <file id="file-5"/>
    
    <labels>
        <label2>Iris</label2>
    </labels>
</clipitem>
<clipitem id="ef0ae2ab-07eb-44b2-838b-8f07f25d47ab" premiereChannelType="stereo">
    <masterclipid>masterclip-1</masterclipid>
    <name>S01E45.Jiggles.mkv</name>
    <enabled>TRUE</enabled>
    <duration>17218</duration>
    <rate>
        <timebase>23.976</timebase>
        <ntsc>FALSE</ntsc>
    </rate>
    <start>11930</start>
    <end>11941</end>
    <in>12348</in>
    <out>12359</out>
    <file id="file-5"/>
    
    <labels>
        <label2>Iris</label2>
    </labels>
</clipitem>
<clipitem id="97d3200a-535c-4d9c-9c33-da642a69df04" premiereChannelType="stereo">
    <masterclipid>masterclip-1</masterclipid>
    <name>S01E45.Jiggles.mkv</name>
    <enabled>TRUE</enabled>
    <duration>17218</duration>
    <rate>
        <timebase>23.976</timebase>
        <ntsc>FALSE</ntsc>
    </rate>
    <start>11941</start>
    <end>11975</end>
    <in>12359</in>
    <out>12393</out>
    <file id="file-5"/>
    
    <labels>
        <label2>Iris</label2>
    </labels>
</clipitem>
<clipitem id="c767af5b-d8c1-4058-b826-177c6683c716" premiereChannelType="stereo">
    <masterclipid>masterclip-1</masterclipid>
    <name>S01E45.Jiggles.mkv</name>
    <enabled>TRUE</enabled>
    <duration>17218</duration>
    <rate>
        <timebase>23.976</timebase>
        <ntsc>FALSE</ntsc>
    </rate>
    <start>11975</start>
    <end>11998</end>
    <in>12393</in>
    <out>12416</out>
    <file id="file-5"/>
    
    <labels>
        <label2>Iris</label2>
    </labels>
</clipitem>
<clipitem id="f3688baa-845d-4f4a-bc19-a5dd4de508a0" premiereChannelType="stereo">
    <masterclipid>masterclip-1</masterclipid>
    <name>S01E45.Jiggles.mkv</name>
    <enabled>TRUE</enabled>
    <duration>17218</duration>
    <rate>
        <timebase>23.976</timebase>
        <ntsc>FALSE</ntsc>
    </rate>
    <start>11998</start>
    <end>12107</end>
    <in>12419</in>
    <out>12528</out>
    <file id="file-5"/>
    
    <labels>
        <label2>Iris</label2>
    </labels>
</clipitem>
<clipitem id="c9438631-67d0-4b83-aa1a-1306a6c8e192" premiereChannelType="stereo">
    <masterclipid>masterclip-1</masterclipid>
    <name>S01E45.Jiggles.mkv</name>
    <enabled>TRUE</enabled>
    <duration>17218</duration>
    <rate>
        <timebase>23.976</timebase>
        <ntsc>FALSE</ntsc>
    </rate>
    <start>12120</start>
    <end>12164</end>
    <in>12529</in>
    <out>12573</out>
    <file id="file-5"/>
    
    <labels>
        <label2>Iris</label2>
    </labels>
</clipitem>
<clipitem id="4cc1fa61-2e88-4c80-b1f2-2b493d3fdfcc" premiereChannelType="stereo">
    <masterclipid>masterclip-1</masterclipid>
    <name>S01E45.Jiggles.mkv</name>
    <enabled>TRUE</enabled>
    <duration>17218</duration>
    <rate>
        <timebase>23.976</timebase>
        <ntsc>FALSE</ntsc>
    </rate>
    <start>12164</start>
    <end>12175</end>
    <in>12576</in>
    <out>12587</out>
    <file id="file-5"/>
    
    <labels>
        <label2>Iris</label2>
    </labels>
</clipitem>
<clipitem id="cd11b926-c239-40ae-803b-ee9a0ff1783a" premiereChannelType="stereo">
    <masterclipid>masterclip-1</masterclipid>
    <name>S01E45.Jiggles.mkv</name>
    <enabled>TRUE</enabled>
    <duration>17218</duration>
    <rate>
        <timebase>23.976</timebase>
        <ntsc>FALSE</ntsc>
    </rate>
    <start>12175</start>
    <end>12186</end>
    <in>12587</in>
    <out>12598</out>
    <file id="file-5"/>
    
    <labels>
        <label2>Iris</label2>
    </labels>
</clipitem>
<clipitem id="ced98785-5f4a-4647-a1ed-fd48827dd814" premiereChannelType="stereo">
    <masterclipid>masterclip-1</masterclipid>
    <name>S01E45.Jiggles.mkv</name>
    <enabled>TRUE</enabled>
    <duration>17218</duration>
    <rate>
        <timebase>23.976</timebase>
        <ntsc>FALSE</ntsc>
    </rate>
    <start>12186</start>
    <end>12199</end>
    <in>12623</in>
    <out>12636</out>
    <file id="file-5"/>
    
    <labels>
        <label2>Iris</label2>
    </labels>
</clipitem>
<clipitem id="2abad687-c408-4a98-b9a4-56ba5adc5a2e" premiereChannelType="stereo">
    <masterclipid>masterclip-1</masterclipid>
    <name>S01E45.Jiggles.mkv</name>
    <enabled>TRUE</enabled>
    <duration>17218</duration>
    <rate>
        <timebase>23.976</timebase>
        <ntsc>FALSE</ntsc>
    </rate>
    <start>12199</start>
    <end>12211</end>
    <in>12611</in>
    <out>12623</out>
    <file id="file-5"/>
    
    <labels>
        <label2>Iris</label2>
    </labels>
</clipitem>
<clipitem id="3e6431b3-d892-411d-8640-f10227ca589f" premiereChannelType="stereo">
    <masterclipid>masterclip-1</masterclipid>
    <name>S01E45.Jiggles.mkv</name>
    <enabled>TRUE</enabled>
    <duration>17218</duration>
    <rate>
        <timebase>23.976</timebase>
        <ntsc>FALSE</ntsc>
    </rate>
    <start>12211</start>
    <end>12226</end>
    <in>12623</in>
    <out>12638</out>
    <file id="file-5"/>
    
    <labels>
        <label2>Iris</label2>
    </labels>
</clipitem>
<clipitem id="2a5ad932-430a-4465-82f3-eb0e5fa78b7c" premiereChannelType="stereo">
    <masterclipid>masterclip-1</masterclipid>
    <name>S01E45.Jiggles.mkv</name>
    <enabled>TRUE</enabled>
    <duration>17218</duration>
    <rate>
        <timebase>23.976</timebase>
        <ntsc>FALSE</ntsc>
    </rate>
    <start>12226</start>
    <end>12246</end>
    <in>12638</in>
    <out>12658</out>
    <file id="file-5"/>
    
    <labels>
        <label2>Iris</label2>
    </labels>
</clipitem>
<clipitem id="9ceedc34-5d1f-492c-b9e5-5f649c8350cd" premiereChannelType="stereo">
    <masterclipid>masterclip-1</masterclipid>
    <name>S01E45.Jiggles.mkv</name>
    <enabled>TRUE</enabled>
    <duration>17218</duration>
    <rate>
        <timebase>23.976</timebase>
        <ntsc>FALSE</ntsc>
    </rate>
    <start>12246</start>
    <end>12279</end>
    <in>12658</in>
    <out>12691</out>
    <file id="file-5"/>
    
    <labels>
        <label2>Iris</label2>
    </labels>
</clipitem>
<clipitem id="e803d93a-de65-4b66-a3b3-a9adecba7daa" premiereChannelType="stereo">
    <masterclipid>masterclip-1</masterclipid>
    <name>S01E45.Jiggles.mkv</name>
    <enabled>TRUE</enabled>
    <duration>17218</duration>
    <rate>
        <timebase>23.976</timebase>
        <ntsc>FALSE</ntsc>
    </rate>
    <start>12279</start>
    <end>12297</end>
    <in>12691</in>
    <out>12709</out>
    <file id="file-5"/>
    
    <labels>
        <label2>Iris</label2>
    </labels>
</clipitem>
<clipitem id="ac06784a-5c04-4990-98a9-c2ae32f106b2" premiereChannelType="stereo">
    <masterclipid>masterclip-1</masterclipid>
    <name>S01E45.Jiggles.mkv</name>
    <enabled>TRUE</enabled>
    <duration>17218</duration>
    <rate>
        <timebase>23.976</timebase>
        <ntsc>FALSE</ntsc>
    </rate>
    <start>12297</start>
    <end>12347</end>
    <in>12709</in>
    <out>12759</out>
    <file id="file-5"/>
    
    <labels>
        <label2>Iris</label2>
    </labels>
</clipitem>
<clipitem id="788972f3-cc24-4514-a576-7122c7b6caf3" premiereChannelType="stereo">
    <masterclipid>masterclip-1</masterclipid>
    <name>S01E45.Jiggles.mkv</name>
    <enabled>TRUE</enabled>
    <duration>17218</duration>
    <rate>
        <timebase>23.976</timebase>
        <ntsc>FALSE</ntsc>
    </rate>
    <start>12347</start>
    <end>12398</end>
    <in>12759</in>
    <out>12810</out>
    <file id="file-5"/>
    
    <labels>
        <label2>Iris</label2>
    </labels>
</clipitem>
<clipitem id="7b0cdf92-30bf-46d2-baba-35a4c21b94e2" premiereChannelType="stereo">
    <masterclipid>masterclip-1</masterclipid>
    <name>S01E45.Jiggles.mkv</name>
    <enabled>TRUE</enabled>
    <duration>17218</duration>
    <rate>
        <timebase>23.976</timebase>
        <ntsc>FALSE</ntsc>
    </rate>
    <start>12398</start>
    <end>12466</end>
    <in>12809</in>
    <out>12877</out>
    <file id="file-5"/>
    
    <labels>
        <label2>Iris</label2>
    </labels>
</clipitem>
<clipitem id="4d9b4369-a5c9-4e37-b961-1dfc25da5e95" premiereChannelType="stereo">
    <masterclipid>masterclip-1</masterclipid>
    <name>S01E45.Jiggles.mkv</name>
    <enabled>TRUE</enabled>
    <duration>17218</duration>
    <rate>
        <timebase>23.976</timebase>
        <ntsc>FALSE</ntsc>
    </rate>
    <start>12466</start>
    <end>12478</end>
    <in>12878</in>
    <out>12890</out>
    <file id="file-5"/>
    
    <labels>
        <label2>Iris</label2>
    </labels>
</clipitem>
<clipitem id="24152a50-98e7-499f-a379-7dc43e99d04b" premiereChannelType="stereo">
    <masterclipid>masterclip-1</masterclipid>
    <name>S01E45.Jiggles.mkv</name>
    <enabled>TRUE</enabled>
    <duration>17218</duration>
    <rate>
        <timebase>23.976</timebase>
        <ntsc>FALSE</ntsc>
    </rate>
    <start>12478</start>
    <end>12497</end>
    <in>12890</in>
    <out>12909</out>
    <file id="file-5"/>
    
    <labels>
        <label2>Iris</label2>
    </labels>
</clipitem>
<clipitem id="638e6254-8173-4cfc-9d07-e212b8ef7b94" premiereChannelType="stereo">
    <masterclipid>masterclip-1</masterclipid>
    <name>S01E45.Jiggles.mkv</name>
    <enabled>TRUE</enabled>
    <duration>17218</duration>
    <rate>
        <timebase>23.976</timebase>
        <ntsc>FALSE</ntsc>
    </rate>
    <start>12497</start>
    <end>12511</end>
    <in>12909</in>
    <out>12923</out>
    <file id="file-5"/>
    
    <labels>
        <label2>Iris</label2>
    </labels>
</clipitem>
<clipitem id="93e077bd-0d00-4ee9-8614-5c7f635c4162" premiereChannelType="stereo">
    <masterclipid>masterclip-1</masterclipid>
    <name>S01E45.Jiggles.mkv</name>
    <enabled>TRUE</enabled>
    <duration>17218</duration>
    <rate>
        <timebase>23.976</timebase>
        <ntsc>FALSE</ntsc>
    </rate>
    <start>12511</start>
    <end>12523</end>
    <in>12923</in>
    <out>12935</out>
    <file id="file-5"/>
    
    <labels>
        <label2>Iris</label2>
    </labels>
</clipitem>
<clipitem id="e5bf9e6f-4799-4534-afc7-27fb9fc7e4c3" premiereChannelType="stereo">
    <masterclipid>masterclip-1</masterclipid>
    <name>S01E45.Jiggles.mkv</name>
    <enabled>TRUE</enabled>
    <duration>17218</duration>
    <rate>
        <timebase>23.976</timebase>
        <ntsc>FALSE</ntsc>
    </rate>
    <start>12523</start>
    <end>12537</end>
    <in>12935</in>
    <out>12949</out>
    <file id="file-5"/>
    
    <labels>
        <label2>Iris</label2>
    </labels>
</clipitem>
<clipitem id="035f1267-810d-431e-b2a5-7b248650beba" premiereChannelType="stereo">
    <masterclipid>masterclip-1</masterclipid>
    <name>S01E45.Jiggles.mkv</name>
    <enabled>TRUE</enabled>
    <duration>17218</duration>
    <rate>
        <timebase>23.976</timebase>
        <ntsc>FALSE</ntsc>
    </rate>
    <start>12537</start>
    <end>12552</end>
    <in>12949</in>
    <out>12964</out>
    <file id="file-5"/>
    
    <labels>
        <label2>Iris</label2>
    </labels>
</clipitem>
<clipitem id="d58998ae-58e6-4eea-946b-3814d3077d2d" premiereChannelType="stereo">
    <masterclipid>masterclip-1</masterclipid>
    <name>S01E45.Jiggles.mkv</name>
    <enabled>TRUE</enabled>
    <duration>17218</duration>
    <rate>
        <timebase>23.976</timebase>
        <ntsc>FALSE</ntsc>
    </rate>
    <start>12552</start>
    <end>12569</end>
    <in>12964</in>
    <out>12981</out>
    <file id="file-5"/>
    
    <labels>
        <label2>Iris</label2>
    </labels>
</clipitem>
<clipitem id="01cb215b-9cee-4558-a018-8daca0ca940b" premiereChannelType="stereo">
    <masterclipid>masterclip-1</masterclipid>
    <name>S01E45.Jiggles.mkv</name>
    <enabled>TRUE</enabled>
    <duration>17218</duration>
    <rate>
        <timebase>23.976</timebase>
        <ntsc>FALSE</ntsc>
    </rate>
    <start>12569</start>
    <end>12584</end>
    <in>12981</in>
    <out>12996</out>
    <file id="file-5"/>
    
    <labels>
        <label2>Iris</label2>
    </labels>
</clipitem>
<clipitem id="46356a21-11c0-4a30-a58a-d59e7068c6a3" premiereChannelType="stereo">
    <masterclipid>masterclip-1</masterclipid>
    <name>S01E45.Jiggles.mkv</name>
    <enabled>TRUE</enabled>
    <duration>17218</duration>
    <rate>
        <timebase>23.976</timebase>
        <ntsc>FALSE</ntsc>
    </rate>
    <start>12584</start>
    <end>12596</end>
    <in>12996</in>
    <out>13008</out>
    <file id="file-5"/>
    
    <labels>
        <label2>Iris</label2>
    </labels>
</clipitem>
<clipitem id="ffd7f198-abad-4eb3-aabc-529f333b44e3" premiereChannelType="stereo">
    <masterclipid>masterclip-1</masterclipid>
    <name>S01E45.Jiggles.mkv</name>
    <enabled>TRUE</enabled>
    <duration>17218</duration>
    <rate>
        <timebase>23.976</timebase>
        <ntsc>FALSE</ntsc>
    </rate>
    <start>12596</start>
    <end>12607</end>
    <in>13013</in>
    <out>13024</out>
    <file id="file-5"/>
    
    <labels>
        <label2>Iris</label2>
    </labels>
</clipitem>
<clipitem id="34b59977-0e1c-42c2-be39-d8033cdb2020" premiereChannelType="stereo">
    <masterclipid>masterclip-1</masterclipid>
    <name>S01E45.Jiggles.mkv</name>
    <enabled>TRUE</enabled>
    <duration>17218</duration>
    <rate>
        <timebase>23.976</timebase>
        <ntsc>FALSE</ntsc>
    </rate>
    <start>12607</start>
    <end>12618</end>
    <in>13018</in>
    <out>13029</out>
    <file id="file-5"/>
    
    <labels>
        <label2>Iris</label2>
    </labels>
</clipitem>
<clipitem id="23c0dac3-308d-458b-a9d0-5ad286252661" premiereChannelType="stereo">
    <masterclipid>masterclip-1</masterclipid>
    <name>S01E45.Jiggles.mkv</name>
    <enabled>TRUE</enabled>
    <duration>17218</duration>
    <rate>
        <timebase>23.976</timebase>
        <ntsc>FALSE</ntsc>
    </rate>
    <start>12618</start>
    <end>12648</end>
    <in>13029</in>
    <out>13059</out>
    <file id="file-5"/>
    
    <labels>
        <label2>Iris</label2>
    </labels>
</clipitem>
<clipitem id="1dfb3da7-28b0-4b65-8bdc-21464eec9e9e" premiereChannelType="stereo">
    <masterclipid>masterclip-1</masterclipid>
    <name>S01E45.Jiggles.mkv</name>
    <enabled>TRUE</enabled>
    <duration>17218</duration>
    <rate>
        <timebase>23.976</timebase>
        <ntsc>FALSE</ntsc>
    </rate>
    <start>12648</start>
    <end>12663</end>
    <in>13059</in>
    <out>13074</out>
    <file id="file-5"/>
    
    <labels>
        <label2>Iris</label2>
    </labels>
</clipitem>
<clipitem id="e7ee7992-d9db-4ef2-9669-d3b9449767c9" premiereChannelType="stereo">
    <masterclipid>masterclip-1</masterclipid>
    <name>S01E45.Jiggles.mkv</name>
    <enabled>TRUE</enabled>
    <duration>17218</duration>
    <rate>
        <timebase>23.976</timebase>
        <ntsc>FALSE</ntsc>
    </rate>
    <start>12663</start>
    <end>12686</end>
    <in>13074</in>
    <out>13097</out>
    <file id="file-5"/>
    
    <labels>
        <label2>Iris</label2>
    </labels>
</clipitem>
<clipitem id="97d9f434-861d-469c-b6b8-2bad6f81d031" premiereChannelType="stereo">
    <masterclipid>masterclip-1</masterclipid>
    <name>S01E45.Jiggles.mkv</name>
    <enabled>TRUE</enabled>
    <duration>17218</duration>
    <rate>
        <timebase>23.976</timebase>
        <ntsc>FALSE</ntsc>
    </rate>
    <start>12686</start>
    <end>12699</end>
    <in>13097</in>
    <out>13110</out>
    <file id="file-5"/>
    
    <labels>
        <label2>Iris</label2>
    </labels>
</clipitem>
<clipitem id="4e712145-8102-4786-b3cf-dbc7d6400fe5" premiereChannelType="stereo">
    <masterclipid>masterclip-1</masterclipid>
    <name>S01E45.Jiggles.mkv</name>
    <enabled>TRUE</enabled>
    <duration>17218</duration>
    <rate>
        <timebase>23.976</timebase>
        <ntsc>FALSE</ntsc>
    </rate>
    <start>12699</start>
    <end>12710</end>
    <in>13110</in>
    <out>13121</out>
    <file id="file-5"/>
    
    <labels>
        <label2>Iris</label2>
    </labels>
</clipitem>
<clipitem id="7795e2b2-e637-464a-8b25-6e33ebdb689b" premiereChannelType="stereo">
    <masterclipid>masterclip-1</masterclipid>
    <name>S01E45.Jiggles.mkv</name>
    <enabled>TRUE</enabled>
    <duration>17218</duration>
    <rate>
        <timebase>23.976</timebase>
        <ntsc>FALSE</ntsc>
    </rate>
    <start>12710</start>
    <end>12721</end>
    <in>13121</in>
    <out>13132</out>
    <file id="file-5"/>
    
    <labels>
        <label2>Iris</label2>
    </labels>
</clipitem>
<clipitem id="a95ae425-1001-4780-94bf-96e3bcb837a7" premiereChannelType="stereo">
    <masterclipid>masterclip-1</masterclipid>
    <name>S01E45.Jiggles.mkv</name>
    <enabled>TRUE</enabled>
    <duration>17218</duration>
    <rate>
        <timebase>23.976</timebase>
        <ntsc>FALSE</ntsc>
    </rate>
    <start>12721</start>
    <end>12732</end>
    <in>13132</in>
    <out>13143</out>
    <file id="file-5"/>
    
    <labels>
        <label2>Iris</label2>
    </labels>
</clipitem>
<clipitem id="621221a4-b57f-42ad-8b78-7b28ab62fa00" premiereChannelType="stereo">
    <masterclipid>masterclip-1</masterclipid>
    <name>S01E45.Jiggles.mkv</name>
    <enabled>TRUE</enabled>
    <duration>17218</duration>
    <rate>
        <timebase>23.976</timebase>
        <ntsc>FALSE</ntsc>
    </rate>
    <start>12732</start>
    <end>12763</end>
    <in>13143</in>
    <out>13174</out>
    <file id="file-5"/>
    
    <labels>
        <label2>Iris</label2>
    </labels>
</clipitem>
<clipitem id="bbb50023-1cd0-49ea-a759-e0d39a64adcd" premiereChannelType="stereo">
    <masterclipid>masterclip-1</masterclipid>
    <name>S01E45.Jiggles.mkv</name>
    <enabled>TRUE</enabled>
    <duration>17218</duration>
    <rate>
        <timebase>23.976</timebase>
        <ntsc>FALSE</ntsc>
    </rate>
    <start>12763</start>
    <end>12777</end>
    <in>13174</in>
    <out>13188</out>
    <file id="file-5"/>
    
    <labels>
        <label2>Iris</label2>
    </labels>
</clipitem>
<clipitem id="5ff1adde-205c-4a33-8520-067c236e581f" premiereChannelType="stereo">
    <masterclipid>masterclip-1</masterclipid>
    <name>S01E45.Jiggles.mkv</name>
    <enabled>TRUE</enabled>
    <duration>17218</duration>
    <rate>
        <timebase>23.976</timebase>
        <ntsc>FALSE</ntsc>
    </rate>
    <start>12777</start>
    <end>12788</end>
    <in>13188</in>
    <out>13199</out>
    <file id="file-5"/>
    
    <labels>
        <label2>Iris</label2>
    </labels>
</clipitem>
<clipitem id="933a576c-dabe-4c65-a0ef-bdf3e57c367b" premiereChannelType="stereo">
    <masterclipid>masterclip-1</masterclipid>
    <name>S01E45.Jiggles.mkv</name>
    <enabled>TRUE</enabled>
    <duration>17218</duration>
    <rate>
        <timebase>23.976</timebase>
        <ntsc>FALSE</ntsc>
    </rate>
    <start>12788</start>
    <end>12799</end>
    <in>13199</in>
    <out>13210</out>
    <file id="file-5"/>
    
    <labels>
        <label2>Iris</label2>
    </labels>
</clipitem>
<clipitem id="20f248be-64cc-4f29-9fde-a945d53cf52e" premiereChannelType="stereo">
    <masterclipid>masterclip-1</masterclipid>
    <name>S01E45.Jiggles.mkv</name>
    <enabled>TRUE</enabled>
    <duration>17218</duration>
    <rate>
        <timebase>23.976</timebase>
        <ntsc>FALSE</ntsc>
    </rate>
    <start>12799</start>
    <end>12811</end>
    <in>13209</in>
    <out>13221</out>
    <file id="file-5"/>
    
    <labels>
        <label2>Iris</label2>
    </labels>
</clipitem>
<clipitem id="bb79b211-ad65-4895-a0e4-7075608bbfd8" premiereChannelType="stereo">
    <masterclipid>masterclip-1</masterclipid>
    <name>S01E45.Jiggles.mkv</name>
    <enabled>TRUE</enabled>
    <duration>17218</duration>
    <rate>
        <timebase>23.976</timebase>
        <ntsc>FALSE</ntsc>
    </rate>
    <start>12811</start>
    <end>12868</end>
    <in>13222</in>
    <out>13279</out>
    <file id="file-5"/>
    
    <labels>
        <label2>Iris</label2>
    </labels>
</clipitem>
<clipitem id="315b3006-7103-49b4-b963-887c1a2e1463" premiereChannelType="stereo">
    <masterclipid>masterclip-1</masterclipid>
    <name>S01E45.Jiggles.mkv</name>
    <enabled>TRUE</enabled>
    <duration>17218</duration>
    <rate>
        <timebase>23.976</timebase>
        <ntsc>FALSE</ntsc>
    </rate>
    <start>12868</start>
    <end>12879</end>
    <in>13279</in>
    <out>13290</out>
    <file id="file-5"/>
    
    <labels>
        <label2>Iris</label2>
    </labels>
</clipitem>
<clipitem id="eec57cca-5a9e-4591-a388-5f8604ea630d" premiereChannelType="stereo">
    <masterclipid>masterclip-1</masterclipid>
    <name>S01E45.Jiggles.mkv</name>
    <enabled>TRUE</enabled>
    <duration>17218</duration>
    <rate>
        <timebase>23.976</timebase>
        <ntsc>FALSE</ntsc>
    </rate>
    <start>12879</start>
    <end>12905</end>
    <in>13290</in>
    <out>13316</out>
    <file id="file-5"/>
    
    <labels>
        <label2>Iris</label2>
    </labels>
</clipitem>
<clipitem id="6702ae3d-9a54-4844-b0de-d8ef30a29210" premiereChannelType="stereo">
    <masterclipid>masterclip-1</masterclipid>
    <name>S01E45.Jiggles.mkv</name>
    <enabled>TRUE</enabled>
    <duration>17218</duration>
    <rate>
        <timebase>23.976</timebase>
        <ntsc>FALSE</ntsc>
    </rate>
    <start>12905</start>
    <end>12929</end>
    <in>13316</in>
    <out>13340</out>
    <file id="file-5"/>
    
    <labels>
        <label2>Iris</label2>
    </labels>
</clipitem>
<clipitem id="a8d5f77f-54a4-4aaf-9700-80dfac5c1fbb" premiereChannelType="stereo">
    <masterclipid>masterclip-1</masterclipid>
    <name>S01E45.Jiggles.mkv</name>
    <enabled>TRUE</enabled>
    <duration>17218</duration>
    <rate>
        <timebase>23.976</timebase>
        <ntsc>FALSE</ntsc>
    </rate>
    <start>12929</start>
    <end>12949</end>
    <in>13340</in>
    <out>13360</out>
    <file id="file-5"/>
    
    <labels>
        <label2>Iris</label2>
    </labels>
</clipitem>
<clipitem id="7b19f3b4-a17c-4d75-bb23-280ec07800df" premiereChannelType="stereo">
    <masterclipid>masterclip-1</masterclipid>
    <name>S01E45.Jiggles.mkv</name>
    <enabled>TRUE</enabled>
    <duration>17218</duration>
    <rate>
        <timebase>23.976</timebase>
        <ntsc>FALSE</ntsc>
    </rate>
    <start>12949</start>
    <end>12961</end>
    <in>13360</in>
    <out>13372</out>
    <file id="file-5"/>
    
    <labels>
        <label2>Iris</label2>
    </labels>
</clipitem>
<clipitem id="f55e7fd5-fec9-4b66-8ef3-9b1b3189059c" premiereChannelType="stereo">
    <masterclipid>masterclip-1</masterclipid>
    <name>S01E45.Jiggles.mkv</name>
    <enabled>TRUE</enabled>
    <duration>17218</duration>
    <rate>
        <timebase>23.976</timebase>
        <ntsc>FALSE</ntsc>
    </rate>
    <start>12961</start>
    <end>12986</end>
    <in>13372</in>
    <out>13397</out>
    <file id="file-5"/>
    
    <labels>
        <label2>Iris</label2>
    </labels>
</clipitem>
<clipitem id="ace05e46-343b-4dc6-943b-d614983ad166" premiereChannelType="stereo">
    <masterclipid>masterclip-1</masterclipid>
    <name>S01E45.Jiggles.mkv</name>
    <enabled>TRUE</enabled>
    <duration>17218</duration>
    <rate>
        <timebase>23.976</timebase>
        <ntsc>FALSE</ntsc>
    </rate>
    <start>12986</start>
    <end>13030</end>
    <in>13397</in>
    <out>13441</out>
    <file id="file-5"/>
    
    <labels>
        <label2>Iris</label2>
    </labels>
</clipitem>
<clipitem id="e1ae66b6-c947-423b-b398-22290225076e" premiereChannelType="stereo">
    <masterclipid>masterclip-1</masterclipid>
    <name>S01E45.Jiggles.mkv</name>
    <enabled>TRUE</enabled>
    <duration>17218</duration>
    <rate>
        <timebase>23.976</timebase>
        <ntsc>FALSE</ntsc>
    </rate>
    <start>13030</start>
    <end>13050</end>
    <in>13441</in>
    <out>13461</out>
    <file id="file-5"/>
    
    <labels>
        <label2>Iris</label2>
    </labels>
</clipitem>
<clipitem id="01568685-073d-42f9-9b96-fa0a796a9263" premiereChannelType="stereo">
    <masterclipid>masterclip-1</masterclipid>
    <name>S01E45.Jiggles.mkv</name>
    <enabled>TRUE</enabled>
    <duration>17218</duration>
    <rate>
        <timebase>23.976</timebase>
        <ntsc>FALSE</ntsc>
    </rate>
    <start>13050</start>
    <end>13061</end>
    <in>13461</in>
    <out>13472</out>
    <file id="file-5"/>
    
    <labels>
        <label2>Iris</label2>
    </labels>
</clipitem>
<clipitem id="337f3816-eaad-420c-bd60-0569c462d3d6" premiereChannelType="stereo">
    <masterclipid>masterclip-1</masterclipid>
    <name>S01E45.Jiggles.mkv</name>
    <enabled>TRUE</enabled>
    <duration>17218</duration>
    <rate>
        <timebase>23.976</timebase>
        <ntsc>FALSE</ntsc>
    </rate>
    <start>13061</start>
    <end>13082</end>
    <in>13472</in>
    <out>13493</out>
    <file id="file-5"/>
    
    <labels>
        <label2>Iris</label2>
    </labels>
</clipitem>
<clipitem id="a141f6a2-ef95-45f6-986b-8cbdec35c365" premiereChannelType="stereo">
    <masterclipid>masterclip-1</masterclipid>
    <name>S01E45.Jiggles.mkv</name>
    <enabled>TRUE</enabled>
    <duration>17218</duration>
    <rate>
        <timebase>23.976</timebase>
        <ntsc>FALSE</ntsc>
    </rate>
    <start>13082</start>
    <end>13093</end>
    <in>13493</in>
    <out>13504</out>
    <file id="file-5"/>
    
    <labels>
        <label2>Iris</label2>
    </labels>
</clipitem>
<clipitem id="bc22d40a-b421-4eac-8f2f-b5db0d897297" premiereChannelType="stereo">
    <masterclipid>masterclip-1</masterclipid>
    <name>S01E45.Jiggles.mkv</name>
    <enabled>TRUE</enabled>
    <duration>17218</duration>
    <rate>
        <timebase>23.976</timebase>
        <ntsc>FALSE</ntsc>
    </rate>
    <start>13093</start>
    <end>13104</end>
    <in>13504</in>
    <out>13515</out>
    <file id="file-5"/>
    
    <labels>
        <label2>Iris</label2>
    </labels>
</clipitem>
<clipitem id="97b03ca3-9835-40c7-94d8-6b9e2c551851" premiereChannelType="stereo">
    <masterclipid>masterclip-1</masterclipid>
    <name>S01E45.Jiggles.mkv</name>
    <enabled>TRUE</enabled>
    <duration>17218</duration>
    <rate>
        <timebase>23.976</timebase>
        <ntsc>FALSE</ntsc>
    </rate>
    <start>13104</start>
    <end>13156</end>
    <in>13515</in>
    <out>13567</out>
    <file id="file-5"/>
    
    <labels>
        <label2>Iris</label2>
    </labels>
</clipitem>
<clipitem id="4de5f28e-0747-4a82-96f1-f84d59afdc21" premiereChannelType="stereo">
    <masterclipid>masterclip-1</masterclipid>
    <name>S01E45.Jiggles.mkv</name>
    <enabled>TRUE</enabled>
    <duration>17218</duration>
    <rate>
        <timebase>23.976</timebase>
        <ntsc>FALSE</ntsc>
    </rate>
    <start>13156</start>
    <end>13167</end>
    <in>13567</in>
    <out>13578</out>
    <file id="file-5"/>
    
    <labels>
        <label2>Iris</label2>
    </labels>
</clipitem>
<clipitem id="0c79bb79-8221-45f3-9627-01ab4e8ac634" premiereChannelType="stereo">
    <masterclipid>masterclip-1</masterclipid>
    <name>S01E45.Jiggles.mkv</name>
    <enabled>TRUE</enabled>
    <duration>17218</duration>
    <rate>
        <timebase>23.976</timebase>
        <ntsc>FALSE</ntsc>
    </rate>
    <start>13167</start>
    <end>13196</end>
    <in>13578</in>
    <out>13607</out>
    <file id="file-5"/>
    
    <labels>
        <label2>Iris</label2>
    </labels>
</clipitem>
<clipitem id="ceab3500-3bcf-4741-aef0-41c5956c7611" premiereChannelType="stereo">
    <masterclipid>masterclip-1</masterclipid>
    <name>S01E45.Jiggles.mkv</name>
    <enabled>TRUE</enabled>
    <duration>17218</duration>
    <rate>
        <timebase>23.976</timebase>
        <ntsc>FALSE</ntsc>
    </rate>
    <start>13196</start>
    <end>13207</end>
    <in>13607</in>
    <out>13618</out>
    <file id="file-5"/>
    
    <labels>
        <label2>Iris</label2>
    </labels>
</clipitem>
<clipitem id="ab8f2d08-4b31-48fc-868d-8c6aaffb6140" premiereChannelType="stereo">
    <masterclipid>masterclip-1</masterclipid>
    <name>S01E45.Jiggles.mkv</name>
    <enabled>TRUE</enabled>
    <duration>17218</duration>
    <rate>
        <timebase>23.976</timebase>
        <ntsc>FALSE</ntsc>
    </rate>
    <start>13207</start>
    <end>13221</end>
    <in>13618</in>
    <out>13632</out>
    <file id="file-5"/>
    
    <labels>
        <label2>Iris</label2>
    </labels>
</clipitem>
<clipitem id="91ee61ab-b7fd-4c4f-acac-0002e91fad5a" premiereChannelType="stereo">
    <masterclipid>masterclip-1</masterclipid>
    <name>S01E45.Jiggles.mkv</name>
    <enabled>TRUE</enabled>
    <duration>17218</duration>
    <rate>
        <timebase>23.976</timebase>
        <ntsc>FALSE</ntsc>
    </rate>
    <start>13221</start>
    <end>13238</end>
    <in>13632</in>
    <out>13649</out>
    <file id="file-5"/>
    
    <labels>
        <label2>Iris</label2>
    </labels>
</clipitem>
<clipitem id="dc0baee8-aafd-4dda-8a45-7424e4d410e2" premiereChannelType="stereo">
    <masterclipid>masterclip-1</masterclipid>
    <name>S01E45.Jiggles.mkv</name>
    <enabled>TRUE</enabled>
    <duration>17218</duration>
    <rate>
        <timebase>23.976</timebase>
        <ntsc>FALSE</ntsc>
    </rate>
    <start>13238</start>
    <end>13249</end>
    <in>13649</in>
    <out>13660</out>
    <file id="file-5"/>
    
    <labels>
        <label2>Iris</label2>
    </labels>
</clipitem>
<clipitem id="e691526d-0e55-4e10-a6ef-1ab89aae77ce" premiereChannelType="stereo">
    <masterclipid>masterclip-1</masterclipid>
    <name>S01E45.Jiggles.mkv</name>
    <enabled>TRUE</enabled>
    <duration>17218</duration>
    <rate>
        <timebase>23.976</timebase>
        <ntsc>FALSE</ntsc>
    </rate>
    <start>13249</start>
    <end>13261</end>
    <in>13659</in>
    <out>13671</out>
    <file id="file-5"/>
    
    <labels>
        <label2>Iris</label2>
    </labels>
</clipitem>
<clipitem id="bb3c9a0e-36d9-4939-b3f6-af007bd7ce09" premiereChannelType="stereo">
    <masterclipid>masterclip-1</masterclipid>
    <name>S01E45.Jiggles.mkv</name>
    <enabled>TRUE</enabled>
    <duration>17218</duration>
    <rate>
        <timebase>23.976</timebase>
        <ntsc>FALSE</ntsc>
    </rate>
    <start>13261</start>
    <end>13272</end>
    <in>13672</in>
    <out>13683</out>
    <file id="file-5"/>
    
    <labels>
        <label2>Iris</label2>
    </labels>
</clipitem>
<clipitem id="c641ff33-4592-45f1-abc1-f9a45f322e73" premiereChannelType="stereo">
    <masterclipid>masterclip-1</masterclipid>
    <name>S01E45.Jiggles.mkv</name>
    <enabled>TRUE</enabled>
    <duration>17218</duration>
    <rate>
        <timebase>23.976</timebase>
        <ntsc>FALSE</ntsc>
    </rate>
    <start>13272</start>
    <end>13319</end>
    <in>13683</in>
    <out>13730</out>
    <file id="file-5"/>
    
    <labels>
        <label2>Iris</label2>
    </labels>
</clipitem>
<clipitem id="12f48d9d-e7c2-4e20-8426-965c6c4cde2b" premiereChannelType="stereo">
    <masterclipid>masterclip-1</masterclipid>
    <name>S01E45.Jiggles.mkv</name>
    <enabled>TRUE</enabled>
    <duration>17218</duration>
    <rate>
        <timebase>23.976</timebase>
        <ntsc>FALSE</ntsc>
    </rate>
    <start>13319</start>
    <end>13334</end>
    <in>13730</in>
    <out>13745</out>
    <file id="file-5"/>
    
    <labels>
        <label2>Iris</label2>
    </labels>
</clipitem>
<clipitem id="c28396d6-c276-44f9-8e99-22ca2bfcbdc4" premiereChannelType="stereo">
    <masterclipid>masterclip-1</masterclipid>
    <name>S01E45.Jiggles.mkv</name>
    <enabled>TRUE</enabled>
    <duration>17218</duration>
    <rate>
        <timebase>23.976</timebase>
        <ntsc>FALSE</ntsc>
    </rate>
    <start>13334</start>
    <end>13350</end>
    <in>13745</in>
    <out>13761</out>
    <file id="file-5"/>
    
    <labels>
        <label2>Iris</label2>
    </labels>
</clipitem>
<clipitem id="f6e24ca6-15d4-4255-b8cd-2897b080171f" premiereChannelType="stereo">
    <masterclipid>masterclip-1</masterclipid>
    <name>S01E45.Jiggles.mkv</name>
    <enabled>TRUE</enabled>
    <duration>17218</duration>
    <rate>
        <timebase>23.976</timebase>
        <ntsc>FALSE</ntsc>
    </rate>
    <start>13350</start>
    <end>13362</end>
    <in>13761</in>
    <out>13773</out>
    <file id="file-5"/>
    
    <labels>
        <label2>Iris</label2>
    </labels>
</clipitem>
<clipitem id="93a12b46-5e19-4c4f-87c4-78ce026aeeca" premiereChannelType="stereo">
    <masterclipid>masterclip-1</masterclipid>
    <name>S01E45.Jiggles.mkv</name>
    <enabled>TRUE</enabled>
    <duration>17218</duration>
    <rate>
        <timebase>23.976</timebase>
        <ntsc>FALSE</ntsc>
    </rate>
    <start>13362</start>
    <end>13387</end>
    <in>13773</in>
    <out>13798</out>
    <file id="file-5"/>
    
    <labels>
        <label2>Iris</label2>
    </labels>
</clipitem>
<clipitem id="306ef412-5559-44a0-9bb0-3c78a3feb26f" premiereChannelType="stereo">
    <masterclipid>masterclip-1</masterclipid>
    <name>S01E45.Jiggles.mkv</name>
    <enabled>TRUE</enabled>
    <duration>17218</duration>
    <rate>
        <timebase>23.976</timebase>
        <ntsc>FALSE</ntsc>
    </rate>
    <start>13387</start>
    <end>13431</end>
    <in>13798</in>
    <out>13842</out>
    <file id="file-5"/>
    
    <labels>
        <label2>Iris</label2>
    </labels>
</clipitem>
<clipitem id="4dde5e10-4199-4171-b33c-65737ee2f44f" premiereChannelType="stereo">
    <masterclipid>masterclip-1</masterclipid>
    <name>S01E45.Jiggles.mkv</name>
    <enabled>TRUE</enabled>
    <duration>17218</duration>
    <rate>
        <timebase>23.976</timebase>
        <ntsc>FALSE</ntsc>
    </rate>
    <start>13431</start>
    <end>13451</end>
    <in>13842</in>
    <out>13862</out>
    <file id="file-5"/>
    
    <labels>
        <label2>Iris</label2>
    </labels>
</clipitem>
<clipitem id="f414cc0b-a515-454b-81c3-bd03416b74fd" premiereChannelType="stereo">
    <masterclipid>masterclip-1</masterclipid>
    <name>S01E45.Jiggles.mkv</name>
    <enabled>TRUE</enabled>
    <duration>17218</duration>
    <rate>
        <timebase>23.976</timebase>
        <ntsc>FALSE</ntsc>
    </rate>
    <start>13451</start>
    <end>13462</end>
    <in>13862</in>
    <out>13873</out>
    <file id="file-5"/>
    
    <labels>
        <label2>Iris</label2>
    </labels>
</clipitem>
<clipitem id="07245be7-b322-4797-8e96-1fc3870864e5" premiereChannelType="stereo">
    <masterclipid>masterclip-1</masterclipid>
    <name>S01E45.Jiggles.mkv</name>
    <enabled>TRUE</enabled>
    <duration>17218</duration>
    <rate>
        <timebase>23.976</timebase>
        <ntsc>FALSE</ntsc>
    </rate>
    <start>13462</start>
    <end>13516</end>
    <in>13873</in>
    <out>13927</out>
    <file id="file-5"/>
    
    <labels>
        <label2>Iris</label2>
    </labels>
</clipitem>
<clipitem id="f79d4388-793f-493e-8bce-68df58d1b07a" premiereChannelType="stereo">
    <masterclipid>masterclip-1</masterclipid>
    <name>S01E45.Jiggles.mkv</name>
    <enabled>TRUE</enabled>
    <duration>17218</duration>
    <rate>
        <timebase>23.976</timebase>
        <ntsc>FALSE</ntsc>
    </rate>
    <start>13516</start>
    <end>13531</end>
    <in>13927</in>
    <out>13942</out>
    <file id="file-5"/>
    
    <labels>
        <label2>Iris</label2>
    </labels>
</clipitem>
<clipitem id="703c6366-baa4-49ce-a663-459b34e17019" premiereChannelType="stereo">
    <masterclipid>masterclip-1</masterclipid>
    <name>S01E45.Jiggles.mkv</name>
    <enabled>TRUE</enabled>
    <duration>17218</duration>
    <rate>
        <timebase>23.976</timebase>
        <ntsc>FALSE</ntsc>
    </rate>
    <start>13531</start>
    <end>13559</end>
    <in>13942</in>
    <out>13970</out>
    <file id="file-5"/>
    
    <labels>
        <label2>Iris</label2>
    </labels>
</clipitem>
<clipitem id="abe89983-82d4-4083-b78a-0bf638ee3b1d" premiereChannelType="stereo">
    <masterclipid>masterclip-1</masterclipid>
    <name>S01E45.Jiggles.mkv</name>
    <enabled>TRUE</enabled>
    <duration>17218</duration>
    <rate>
        <timebase>23.976</timebase>
        <ntsc>FALSE</ntsc>
    </rate>
    <start>13559</start>
    <end>13589</end>
    <in>13970</in>
    <out>14000</out>
    <file id="file-5"/>
    
    <labels>
        <label2>Iris</label2>
    </labels>
</clipitem>
<clipitem id="b1cf331a-71ab-4fde-b9d4-2fed17375d02" premiereChannelType="stereo">
    <masterclipid>masterclip-1</masterclipid>
    <name>S01E45.Jiggles.mkv</name>
    <enabled>TRUE</enabled>
    <duration>17218</duration>
    <rate>
        <timebase>23.976</timebase>
        <ntsc>FALSE</ntsc>
    </rate>
    <start>13589</start>
    <end>13621</end>
    <in>14000</in>
    <out>14032</out>
    <file id="file-5"/>
    
    <labels>
        <label2>Iris</label2>
    </labels>
</clipitem>
<clipitem id="a15b52b1-3fbf-43f4-84bb-2f0571726d29" premiereChannelType="stereo">
    <masterclipid>masterclip-1</masterclipid>
    <name>S01E45.Jiggles.mkv</name>
    <enabled>TRUE</enabled>
    <duration>17218</duration>
    <rate>
        <timebase>23.976</timebase>
        <ntsc>FALSE</ntsc>
    </rate>
    <start>13621</start>
    <end>13632</end>
    <in>14032</in>
    <out>14043</out>
    <file id="file-5"/>
    
    <labels>
        <label2>Iris</label2>
    </labels>
</clipitem>
<clipitem id="10cf328e-9574-4b14-8dec-8cd464a3e1e0" premiereChannelType="stereo">
    <masterclipid>masterclip-1</masterclipid>
    <name>S01E45.Jiggles.mkv</name>
    <enabled>TRUE</enabled>
    <duration>17218</duration>
    <rate>
        <timebase>23.976</timebase>
        <ntsc>FALSE</ntsc>
    </rate>
    <start>13632</start>
    <end>13653</end>
    <in>14043</in>
    <out>14064</out>
    <file id="file-5"/>
    
    <labels>
        <label2>Iris</label2>
    </labels>
</clipitem>
<clipitem id="9d2fd086-edfa-49ed-a1a2-cdd338653cee" premiereChannelType="stereo">
    <masterclipid>masterclip-1</masterclipid>
    <name>S01E45.Jiggles.mkv</name>
    <enabled>TRUE</enabled>
    <duration>17218</duration>
    <rate>
        <timebase>23.976</timebase>
        <ntsc>FALSE</ntsc>
    </rate>
    <start>13653</start>
    <end>13664</end>
    <in>14064</in>
    <out>14075</out>
    <file id="file-5"/>
    
    <labels>
        <label2>Iris</label2>
    </labels>
</clipitem>
<clipitem id="951ad6f2-bef6-47d9-929b-3683a01444f1" premiereChannelType="stereo">
    <masterclipid>masterclip-1</masterclipid>
    <name>S01E45.Jiggles.mkv</name>
    <enabled>TRUE</enabled>
    <duration>17218</duration>
    <rate>
        <timebase>23.976</timebase>
        <ntsc>FALSE</ntsc>
    </rate>
    <start>13664</start>
    <end>13675</end>
    <in>14075</in>
    <out>14086</out>
    <file id="file-5"/>
    
    <labels>
        <label2>Iris</label2>
    </labels>
</clipitem>
<clipitem id="60846e81-5241-46d5-8305-812782fc21f2" premiereChannelType="stereo">
    <masterclipid>masterclip-1</masterclipid>
    <name>S01E45.Jiggles.mkv</name>
    <enabled>TRUE</enabled>
    <duration>17218</duration>
    <rate>
        <timebase>23.976</timebase>
        <ntsc>FALSE</ntsc>
    </rate>
    <start>13675</start>
    <end>13687</end>
    <in>14086</in>
    <out>14098</out>
    <file id="file-5"/>
    
    <labels>
        <label2>Iris</label2>
    </labels>
</clipitem>
<clipitem id="fd6a2ad2-b4fe-48df-8c2d-d17548c8d35b" premiereChannelType="stereo">
    <masterclipid>masterclip-1</masterclipid>
    <name>S01E45.Jiggles.mkv</name>
    <enabled>TRUE</enabled>
    <duration>17218</duration>
    <rate>
        <timebase>23.976</timebase>
        <ntsc>FALSE</ntsc>
    </rate>
    <start>13687</start>
    <end>13699</end>
    <in>14098</in>
    <out>14110</out>
    <file id="file-5"/>
    
    <labels>
        <label2>Iris</label2>
    </labels>
</clipitem>
<clipitem id="7d1c0f02-217d-4379-af88-23790c954ab4" premiereChannelType="stereo">
    <masterclipid>masterclip-1</masterclipid>
    <name>S01E45.Jiggles.mkv</name>
    <enabled>TRUE</enabled>
    <duration>17218</duration>
    <rate>
        <timebase>23.976</timebase>
        <ntsc>FALSE</ntsc>
    </rate>
    <start>13699</start>
    <end>13745</end>
    <in>14109</in>
    <out>14155</out>
    <file id="file-5"/>
    
    <labels>
        <label2>Iris</label2>
    </labels>
</clipitem>
<clipitem id="48a6bc62-4668-4599-835a-78a1d2ce0e81" premiereChannelType="stereo">
    <masterclipid>masterclip-1</masterclipid>
    <name>S01E45.Jiggles.mkv</name>
    <enabled>TRUE</enabled>
    <duration>17218</duration>
    <rate>
        <timebase>23.976</timebase>
        <ntsc>FALSE</ntsc>
    </rate>
    <start>13745</start>
    <end>13796</end>
    <in>14156</in>
    <out>14207</out>
    <file id="file-5"/>
    
    <labels>
        <label2>Iris</label2>
    </labels>
</clipitem>
<clipitem id="cea56d83-468c-4003-8256-586f5adbf7d3" premiereChannelType="stereo">
    <masterclipid>masterclip-1</masterclipid>
    <name>S01E45.Jiggles.mkv</name>
    <enabled>TRUE</enabled>
    <duration>17218</duration>
    <rate>
        <timebase>23.976</timebase>
        <ntsc>FALSE</ntsc>
    </rate>
    <start>13796</start>
    <end>13860</end>
    <in>14207</in>
    <out>14271</out>
    <file id="file-5"/>
    
    <labels>
        <label2>Iris</label2>
    </labels>
</clipitem>
<clipitem id="0a1c20d9-0a56-4254-a16c-ae9e0a064a96" premiereChannelType="stereo">
    <masterclipid>masterclip-1</masterclipid>
    <name>S01E45.Jiggles.mkv</name>
    <enabled>TRUE</enabled>
    <duration>17218</duration>
    <rate>
        <timebase>23.976</timebase>
        <ntsc>FALSE</ntsc>
    </rate>
    <start>13860</start>
    <end>13871</end>
    <in>14271</in>
    <out>14282</out>
    <file id="file-5"/>
    
    <labels>
        <label2>Iris</label2>
    </labels>
</clipitem>
<clipitem id="4296688c-2230-4358-9fed-fba3a0ee8d77" premiereChannelType="stereo">
    <masterclipid>masterclip-1</masterclipid>
    <name>S01E45.Jiggles.mkv</name>
    <enabled>TRUE</enabled>
    <duration>17218</duration>
    <rate>
        <timebase>23.976</timebase>
        <ntsc>FALSE</ntsc>
    </rate>
    <start>13871</start>
    <end>13887</end>
    <in>14282</in>
    <out>14298</out>
    <file id="file-5"/>
    
    <labels>
        <label2>Iris</label2>
    </labels>
</clipitem>
<clipitem id="7d2be369-7db9-4a05-afc4-3687fd886c8b" premiereChannelType="stereo">
    <masterclipid>masterclip-1</masterclipid>
    <name>S01E45.Jiggles.mkv</name>
    <enabled>TRUE</enabled>
    <duration>17218</duration>
    <rate>
        <timebase>23.976</timebase>
        <ntsc>FALSE</ntsc>
    </rate>
    <start>13887</start>
    <end>13905</end>
    <in>14298</in>
    <out>14316</out>
    <file id="file-5"/>
    
    <labels>
        <label2>Iris</label2>
    </labels>
</clipitem>
<clipitem id="f06e7e3a-a16d-4cc2-9da5-8305976ecf0d" premiereChannelType="stereo">
    <masterclipid>masterclip-1</masterclipid>
    <name>S01E45.Jiggles.mkv</name>
    <enabled>TRUE</enabled>
    <duration>17218</duration>
    <rate>
        <timebase>23.976</timebase>
        <ntsc>FALSE</ntsc>
    </rate>
    <start>13905</start>
    <end>13916</end>
    <in>14316</in>
    <out>14327</out>
    <file id="file-5"/>
    
    <labels>
        <label2>Iris</label2>
    </labels>
</clipitem>
<clipitem id="2112fda3-9f0d-4b78-a0fb-cedc886da17a" premiereChannelType="stereo">
    <masterclipid>masterclip-1</masterclipid>
    <name>S01E45.Jiggles.mkv</name>
    <enabled>TRUE</enabled>
    <duration>17218</duration>
    <rate>
        <timebase>23.976</timebase>
        <ntsc>FALSE</ntsc>
    </rate>
    <start>13916</start>
    <end>13927</end>
    <in>14327</in>
    <out>14338</out>
    <file id="file-5"/>
    
    <labels>
        <label2>Iris</label2>
    </labels>
</clipitem>
<clipitem id="2fb809e5-a4d6-4896-a504-9654794754d9" premiereChannelType="stereo">
    <masterclipid>masterclip-1</masterclipid>
    <name>S01E45.Jiggles.mkv</name>
    <enabled>TRUE</enabled>
    <duration>17218</duration>
    <rate>
        <timebase>23.976</timebase>
        <ntsc>FALSE</ntsc>
    </rate>
    <start>13927</start>
    <end>13944</end>
    <in>14338</in>
    <out>14355</out>
    <file id="file-5"/>
    
    <labels>
        <label2>Iris</label2>
    </labels>
</clipitem>
<clipitem id="343d22cf-647c-4c05-8fa8-7cecc5dcad11" premiereChannelType="stereo">
    <masterclipid>masterclip-1</masterclipid>
    <name>S01E45.Jiggles.mkv</name>
    <enabled>TRUE</enabled>
    <duration>17218</duration>
    <rate>
        <timebase>23.976</timebase>
        <ntsc>FALSE</ntsc>
    </rate>
    <start>13944</start>
    <end>13965</end>
    <in>14355</in>
    <out>14376</out>
    <file id="file-5"/>
    
    <labels>
        <label2>Iris</label2>
    </labels>
</clipitem>
<clipitem id="11cb08fe-25c4-429a-9436-043787f1e1e3" premiereChannelType="stereo">
    <masterclipid>masterclip-1</masterclipid>
    <name>S01E45.Jiggles.mkv</name>
    <enabled>TRUE</enabled>
    <duration>17218</duration>
    <rate>
        <timebase>23.976</timebase>
        <ntsc>FALSE</ntsc>
    </rate>
    <start>13965</start>
    <end>13980</end>
    <in>14376</in>
    <out>14391</out>
    <file id="file-5"/>
    
    <labels>
        <label2>Iris</label2>
    </labels>
</clipitem>
<clipitem id="a113e6b0-a43d-46d2-99e2-dadafb2ac943" premiereChannelType="stereo">
    <masterclipid>masterclip-1</masterclipid>
    <name>S01E45.Jiggles.mkv</name>
    <enabled>TRUE</enabled>
    <duration>17218</duration>
    <rate>
        <timebase>23.976</timebase>
        <ntsc>FALSE</ntsc>
    </rate>
    <start>13980</start>
    <end>13993</end>
    <in>14391</in>
    <out>14404</out>
    <file id="file-5"/>
    
    <labels>
        <label2>Iris</label2>
    </labels>
</clipitem>
<clipitem id="502da2c9-2b75-4750-ad38-41387073a769" premiereChannelType="stereo">
    <masterclipid>masterclip-1</masterclipid>
    <name>S01E45.Jiggles.mkv</name>
    <enabled>TRUE</enabled>
    <duration>17218</duration>
    <rate>
        <timebase>23.976</timebase>
        <ntsc>FALSE</ntsc>
    </rate>
    <start>13993</start>
    <end>14004</end>
    <in>14404</in>
    <out>14415</out>
    <file id="file-5"/>
    
    <labels>
        <label2>Iris</label2>
    </labels>
</clipitem>
<clipitem id="f682e7ab-655a-4d45-a942-d198dc059fb6" premiereChannelType="stereo">
    <masterclipid>masterclip-1</masterclipid>
    <name>S01E45.Jiggles.mkv</name>
    <enabled>TRUE</enabled>
    <duration>17218</duration>
    <rate>
        <timebase>23.976</timebase>
        <ntsc>FALSE</ntsc>
    </rate>
    <start>14004</start>
    <end>14019</end>
    <in>14415</in>
    <out>14430</out>
    <file id="file-5"/>
    
    <labels>
        <label2>Iris</label2>
    </labels>
</clipitem>
<clipitem id="fa08db53-dffe-4669-85ab-ed6dae20f83f" premiereChannelType="stereo">
    <masterclipid>masterclip-1</masterclipid>
    <name>S01E45.Jiggles.mkv</name>
    <enabled>TRUE</enabled>
    <duration>17218</duration>
    <rate>
        <timebase>23.976</timebase>
        <ntsc>FALSE</ntsc>
    </rate>
    <start>14019</start>
    <end>14046</end>
    <in>14430</in>
    <out>14457</out>
    <file id="file-5"/>
    
    <labels>
        <label2>Iris</label2>
    </labels>
</clipitem>
<clipitem id="24ab2dd7-a53c-47a3-be82-e0b6ad0591ea" premiereChannelType="stereo">
    <masterclipid>masterclip-1</masterclipid>
    <name>S01E45.Jiggles.mkv</name>
    <enabled>TRUE</enabled>
    <duration>17218</duration>
    <rate>
        <timebase>23.976</timebase>
        <ntsc>FALSE</ntsc>
    </rate>
    <start>14046</start>
    <end>14224</end>
    <in>14457</in>
    <out>14635</out>
    <file id="file-5"/>
    
    <labels>
        <label2>Iris</label2>
    </labels>
</clipitem>
<clipitem id="b5b0c0a7-4220-400d-b4a7-3604ad67478f" premiereChannelType="stereo">
    <masterclipid>masterclip-1</masterclipid>
    <name>S01E45.Jiggles.mkv</name>
    <enabled>TRUE</enabled>
    <duration>17218</duration>
    <rate>
        <timebase>23.976</timebase>
        <ntsc>FALSE</ntsc>
    </rate>
    <start>14224</start>
    <end>14282</end>
    <in>14635</in>
    <out>14693</out>
    <file id="file-5"/>
    
    <labels>
        <label2>Iris</label2>
    </labels>
</clipitem>
<clipitem id="8c65c86d-5ddf-443c-9a0a-e2e1d20cb718" premiereChannelType="stereo">
    <masterclipid>masterclip-1</masterclipid>
    <name>S01E45.Jiggles.mkv</name>
    <enabled>TRUE</enabled>
    <duration>17218</duration>
    <rate>
        <timebase>23.976</timebase>
        <ntsc>FALSE</ntsc>
    </rate>
    <start>14282</start>
    <end>14387</end>
    <in>14692</in>
    <out>14797</out>
    <file id="file-5"/>
    
    <labels>
        <label2>Iris</label2>
    </labels>
</clipitem>
<clipitem id="0c2d50ec-e1d6-4a17-a875-c1a94e6cf4c1" premiereChannelType="stereo">
    <masterclipid>masterclip-1</masterclipid>
    <name>S01E45.Jiggles.mkv</name>
    <enabled>TRUE</enabled>
    <duration>17218</duration>
    <rate>
        <timebase>23.976</timebase>
        <ntsc>FALSE</ntsc>
    </rate>
    <start>14387</start>
    <end>14399</end>
    <in>14799</in>
    <out>14811</out>
    <file id="file-5"/>
    
    <labels>
        <label2>Iris</label2>
    </labels>
</clipitem>
<clipitem id="8d0f50bc-25d8-4989-b296-e21fdd35fab7" premiereChannelType="stereo">
    <masterclipid>masterclip-1</masterclipid>
    <name>S01E45.Jiggles.mkv</name>
    <enabled>TRUE</enabled>
    <duration>17218</duration>
    <rate>
        <timebase>23.976</timebase>
        <ntsc>FALSE</ntsc>
    </rate>
    <start>14399</start>
    <end>14410</end>
    <in>14811</in>
    <out>14822</out>
    <file id="file-5"/>
    
    <labels>
        <label2>Iris</label2>
    </labels>
</clipitem>
<clipitem id="07c35d22-0fe9-4433-8fce-aac093568908" premiereChannelType="stereo">
    <masterclipid>masterclip-1</masterclipid>
    <name>S01E45.Jiggles.mkv</name>
    <enabled>TRUE</enabled>
    <duration>17218</duration>
    <rate>
        <timebase>23.976</timebase>
        <ntsc>FALSE</ntsc>
    </rate>
    <start>14410</start>
    <end>14490</end>
    <in>14822</in>
    <out>14902</out>
    <file id="file-5"/>
    
    <labels>
        <label2>Iris</label2>
    </labels>
</clipitem>
<clipitem id="71f9b9c9-b074-4278-af11-69b5643ff8c4" premiereChannelType="stereo">
    <masterclipid>masterclip-1</masterclipid>
    <name>S01E45.Jiggles.mkv</name>
    <enabled>TRUE</enabled>
    <duration>17218</duration>
    <rate>
        <timebase>23.976</timebase>
        <ntsc>FALSE</ntsc>
    </rate>
    <start>14490</start>
    <end>14614</end>
    <in>14901</in>
    <out>15025</out>
    <file id="file-5"/>
    
    <labels>
        <label2>Iris</label2>
    </labels>
</clipitem>
<clipitem id="f0b4d07f-3afb-4db4-a272-0820ebc0ae95" premiereChannelType="stereo">
    <masterclipid>masterclip-1</masterclipid>
    <name>S01E45.Jiggles.mkv</name>
    <enabled>TRUE</enabled>
    <duration>17218</duration>
    <rate>
        <timebase>23.976</timebase>
        <ntsc>FALSE</ntsc>
    </rate>
    <start>14614</start>
    <end>14645</end>
    <in>15025</in>
    <out>15056</out>
    <file id="file-5"/>
    
    <labels>
        <label2>Iris</label2>
    </labels>
</clipitem>
<clipitem id="0c58c40e-6731-4f99-ab63-29e9fd0e7c32" premiereChannelType="stereo">
    <masterclipid>masterclip-1</masterclipid>
    <name>S01E45.Jiggles.mkv</name>
    <enabled>TRUE</enabled>
    <duration>17218</duration>
    <rate>
        <timebase>23.976</timebase>
        <ntsc>FALSE</ntsc>
    </rate>
    <start>14645</start>
    <end>14661</end>
    <in>15056</in>
    <out>15072</out>
    <file id="file-5"/>
    
    <labels>
        <label2>Iris</label2>
    </labels>
</clipitem>
<clipitem id="d4248e29-156c-4889-b704-bf91248fbfc7" premiereChannelType="stereo">
    <masterclipid>masterclip-1</masterclipid>
    <name>S01E45.Jiggles.mkv</name>
    <enabled>TRUE</enabled>
    <duration>17218</duration>
    <rate>
        <timebase>23.976</timebase>
        <ntsc>FALSE</ntsc>
    </rate>
    <start>14661</start>
    <end>14672</end>
    <in>15072</in>
    <out>15083</out>
    <file id="file-5"/>
    
    <labels>
        <label2>Iris</label2>
    </labels>
</clipitem>
<clipitem id="2dc6cfb0-c3b3-4e3c-aa2c-5f904216ada9" premiereChannelType="stereo">
    <masterclipid>masterclip-1</masterclipid>
    <name>S01E45.Jiggles.mkv</name>
    <enabled>TRUE</enabled>
    <duration>17218</duration>
    <rate>
        <timebase>23.976</timebase>
        <ntsc>FALSE</ntsc>
    </rate>
    <start>14672</start>
    <end>14684</end>
    <in>15083</in>
    <out>15095</out>
    <file id="file-5"/>
    
    <labels>
        <label2>Iris</label2>
    </labels>
</clipitem>
<clipitem id="e9fcd717-7f20-4952-bbcf-eb698dbb2ad9" premiereChannelType="stereo">
    <masterclipid>masterclip-1</masterclipid>
    <name>S01E45.Jiggles.mkv</name>
    <enabled>TRUE</enabled>
    <duration>17218</duration>
    <rate>
        <timebase>23.976</timebase>
        <ntsc>FALSE</ntsc>
    </rate>
    <start>14684</start>
    <end>14695</end>
    <in>15095</in>
    <out>15106</out>
    <file id="file-5"/>
    
    <labels>
        <label2>Iris</label2>
    </labels>
</clipitem>
<clipitem id="08b1fe6e-4c97-4392-a723-6a7ca0608f34" premiereChannelType="stereo">
    <masterclipid>masterclip-1</masterclipid>
    <name>S01E45.Jiggles.mkv</name>
    <enabled>TRUE</enabled>
    <duration>17218</duration>
    <rate>
        <timebase>23.976</timebase>
        <ntsc>FALSE</ntsc>
    </rate>
    <start>14695</start>
    <end>14712</end>
    <in>15106</in>
    <out>15123</out>
    <file id="file-5"/>
    
    <labels>
        <label2>Iris</label2>
    </labels>
</clipitem>
<clipitem id="2ab1df16-7d27-4477-9842-eaaf2cedfaee" premiereChannelType="stereo">
    <masterclipid>masterclip-1</masterclipid>
    <name>S01E45.Jiggles.mkv</name>
    <enabled>TRUE</enabled>
    <duration>17218</duration>
    <rate>
        <timebase>23.976</timebase>
        <ntsc>FALSE</ntsc>
    </rate>
    <start>14712</start>
    <end>14753</end>
    <in>15124</in>
    <out>15165</out>
    <file id="file-5"/>
    
    <labels>
        <label2>Iris</label2>
    </labels>
</clipitem>
<clipitem id="3883e628-2fcb-4ea3-915b-cafeca28c682" premiereChannelType="stereo">
    <masterclipid>masterclip-1</masterclipid>
    <name>S01E45.Jiggles.mkv</name>
    <enabled>TRUE</enabled>
    <duration>17218</duration>
    <rate>
        <timebase>23.976</timebase>
        <ntsc>FALSE</ntsc>
    </rate>
    <start>14753</start>
    <end>14764</end>
    <in>15164</in>
    <out>15175</out>
    <file id="file-5"/>
    
    <labels>
        <label2>Iris</label2>
    </labels>
</clipitem>
<clipitem id="84983454-ed5d-40d4-9860-73bb58cb6cfa" premiereChannelType="stereo">
    <masterclipid>masterclip-1</masterclipid>
    <name>S01E45.Jiggles.mkv</name>
    <enabled>TRUE</enabled>
    <duration>17218</duration>
    <rate>
        <timebase>23.976</timebase>
        <ntsc>FALSE</ntsc>
    </rate>
    <start>14764</start>
    <end>14806</end>
    <in>15175</in>
    <out>15217</out>
    <file id="file-5"/>
    
    <labels>
        <label2>Iris</label2>
    </labels>
</clipitem>
<clipitem id="2f08728f-59c1-43a1-b2f8-1adcdd3e3eab" premiereChannelType="stereo">
    <masterclipid>masterclip-1</masterclipid>
    <name>S01E45.Jiggles.mkv</name>
    <enabled>TRUE</enabled>
    <duration>17218</duration>
    <rate>
        <timebase>23.976</timebase>
        <ntsc>FALSE</ntsc>
    </rate>
    <start>14806</start>
    <end>14842</end>
    <in>15217</in>
    <out>15253</out>
    <file id="file-5"/>
    
    <labels>
        <label2>Iris</label2>
    </labels>
</clipitem>
<clipitem id="0b2b78a4-c2c0-4fee-b8a0-0fa7d1803476" premiereChannelType="stereo">
    <masterclipid>masterclip-1</masterclipid>
    <name>S01E45.Jiggles.mkv</name>
    <enabled>TRUE</enabled>
    <duration>17218</duration>
    <rate>
        <timebase>23.976</timebase>
        <ntsc>FALSE</ntsc>
    </rate>
    <start>14842</start>
    <end>14889</end>
    <in>15253</in>
    <out>15300</out>
    <file id="file-5"/>
    
    <labels>
        <label2>Iris</label2>
    </labels>
</clipitem>
<clipitem id="0b8c8d6c-c03c-47df-a8b5-5585ea933034" premiereChannelType="stereo">
    <masterclipid>masterclip-1</masterclipid>
    <name>S01E45.Jiggles.mkv</name>
    <enabled>TRUE</enabled>
    <duration>17218</duration>
    <rate>
        <timebase>23.976</timebase>
        <ntsc>FALSE</ntsc>
    </rate>
    <start>14889</start>
    <end>14901</end>
    <in>15299</in>
    <out>15311</out>
    <file id="file-5"/>
    
    <labels>
        <label2>Iris</label2>
    </labels>
</clipitem>
<clipitem id="97fa9b1d-0f32-4d61-acf0-9d970131a5e1" premiereChannelType="stereo">
    <masterclipid>masterclip-1</masterclipid>
    <name>S01E45.Jiggles.mkv</name>
    <enabled>TRUE</enabled>
    <duration>17218</duration>
    <rate>
        <timebase>23.976</timebase>
        <ntsc>FALSE</ntsc>
    </rate>
    <start>14901</start>
    <end>14914</end>
    <in>15312</in>
    <out>15325</out>
    <file id="file-5"/>
    
    <labels>
        <label2>Iris</label2>
    </labels>
</clipitem>
<clipitem id="e40623aa-9b65-49a4-bc4e-cd3edec15361" premiereChannelType="stereo">
    <masterclipid>masterclip-1</masterclipid>
    <name>S01E45.Jiggles.mkv</name>
    <enabled>TRUE</enabled>
    <duration>17218</duration>
    <rate>
        <timebase>23.976</timebase>
        <ntsc>FALSE</ntsc>
    </rate>
    <start>14914</start>
    <end>14925</end>
    <in>15325</in>
    <out>15336</out>
    <file id="file-5"/>
    
    <labels>
        <label2>Iris</label2>
    </labels>
</clipitem>
<clipitem id="16e68a0f-343e-437a-9e16-61e64c5cb9c0" premiereChannelType="stereo">
    <masterclipid>masterclip-1</masterclipid>
    <name>S01E45.Jiggles.mkv</name>
    <enabled>TRUE</enabled>
    <duration>17218</duration>
    <rate>
        <timebase>23.976</timebase>
        <ntsc>FALSE</ntsc>
    </rate>
    <start>14925</start>
    <end>14949</end>
    <in>15336</in>
    <out>15360</out>
    <file id="file-5"/>
    
    <labels>
        <label2>Iris</label2>
    </labels>
</clipitem>
<clipitem id="065057ac-e535-4e28-ae16-f23709659fbb" premiereChannelType="stereo">
    <masterclipid>masterclip-1</masterclipid>
    <name>S01E45.Jiggles.mkv</name>
    <enabled>TRUE</enabled>
    <duration>17218</duration>
    <rate>
        <timebase>23.976</timebase>
        <ntsc>FALSE</ntsc>
    </rate>
    <start>14949</start>
    <end>15016</end>
    <in>15359</in>
    <out>15426</out>
    <file id="file-5"/>
    
    <labels>
        <label2>Iris</label2>
    </labels>
</clipitem>
<clipitem id="2198047f-277e-4642-8d74-90ff4ab9b421" premiereChannelType="stereo">
    <masterclipid>masterclip-1</masterclipid>
    <name>S01E45.Jiggles.mkv</name>
    <enabled>TRUE</enabled>
    <duration>17218</duration>
    <rate>
        <timebase>23.976</timebase>
        <ntsc>FALSE</ntsc>
    </rate>
    <start>15016</start>
    <end>15055</end>
    <in>15427</in>
    <out>15466</out>
    <file id="file-5"/>
    
    <labels>
        <label2>Iris</label2>
    </labels>
</clipitem>
<clipitem id="917fd54a-d6d7-4602-b181-d645ef3ba777" premiereChannelType="stereo">
    <masterclipid>masterclip-1</masterclipid>
    <name>S01E45.Jiggles.mkv</name>
    <enabled>TRUE</enabled>
    <duration>17218</duration>
    <rate>
        <timebase>23.976</timebase>
        <ntsc>FALSE</ntsc>
    </rate>
    <start>15055</start>
    <end>15067</end>
    <in>15466</in>
    <out>15478</out>
    <file id="file-5"/>
    
    <labels>
        <label2>Iris</label2>
    </labels>
</clipitem>
<clipitem id="ae03c7ac-76fa-4741-88af-f4584de3b1fc" premiereChannelType="stereo">
    <masterclipid>masterclip-1</masterclipid>
    <name>S01E45.Jiggles.mkv</name>
    <enabled>TRUE</enabled>
    <duration>17218</duration>
    <rate>
        <timebase>23.976</timebase>
        <ntsc>FALSE</ntsc>
    </rate>
    <start>15067</start>
    <end>15102</end>
    <in>15478</in>
    <out>15513</out>
    <file id="file-5"/>
    
    <labels>
        <label2>Iris</label2>
    </labels>
</clipitem>
<clipitem id="99ce78fa-32c6-4dac-91aa-c2de18f92bb5" premiereChannelType="stereo">
    <masterclipid>masterclip-1</masterclipid>
    <name>S01E45.Jiggles.mkv</name>
    <enabled>TRUE</enabled>
    <duration>17218</duration>
    <rate>
        <timebase>23.976</timebase>
        <ntsc>FALSE</ntsc>
    </rate>
    <start>15102</start>
    <end>15114</end>
    <in>15513</in>
    <out>15525</out>
    <file id="file-5"/>
    
    <labels>
        <label2>Iris</label2>
    </labels>
</clipitem>
<clipitem id="0ef428e0-7e40-4a6d-9aaf-dc39cb57d87d" premiereChannelType="stereo">
    <masterclipid>masterclip-1</masterclipid>
    <name>S01E45.Jiggles.mkv</name>
    <enabled>TRUE</enabled>
    <duration>17218</duration>
    <rate>
        <timebase>23.976</timebase>
        <ntsc>FALSE</ntsc>
    </rate>
    <start>15114</start>
    <end>15131</end>
    <in>15525</in>
    <out>15542</out>
    <file id="file-5"/>
    
    <labels>
        <label2>Iris</label2>
    </labels>
</clipitem>
<clipitem id="4dac2193-fe2d-42ab-9f15-bf9406b14e0d" premiereChannelType="stereo">
    <masterclipid>masterclip-1</masterclipid>
    <name>S01E45.Jiggles.mkv</name>
    <enabled>TRUE</enabled>
    <duration>17218</duration>
    <rate>
        <timebase>23.976</timebase>
        <ntsc>FALSE</ntsc>
    </rate>
    <start>15131</start>
    <end>15143</end>
    <in>15547</in>
    <out>15559</out>
    <file id="file-5"/>
    
    <labels>
        <label2>Iris</label2>
    </labels>
</clipitem>
<clipitem id="0cba2dd9-ee2a-4d75-b54d-3f010da42c00" premiereChannelType="stereo">
    <masterclipid>masterclip-1</masterclipid>
    <name>S01E45.Jiggles.mkv</name>
    <enabled>TRUE</enabled>
    <duration>17218</duration>
    <rate>
        <timebase>23.976</timebase>
        <ntsc>FALSE</ntsc>
    </rate>
    <start>15143</start>
    <end>15157</end>
    <in>15554</in>
    <out>15568</out>
    <file id="file-5"/>
    
    <labels>
        <label2>Iris</label2>
    </labels>
</clipitem>
<clipitem id="3d19e8ba-1361-44c9-aab7-ad553120cc10" premiereChannelType="stereo">
    <masterclipid>masterclip-1</masterclipid>
    <name>S01E45.Jiggles.mkv</name>
    <enabled>TRUE</enabled>
    <duration>17218</duration>
    <rate>
        <timebase>23.976</timebase>
        <ntsc>FALSE</ntsc>
    </rate>
    <start>15157</start>
    <end>15314</end>
    <in>15568</in>
    <out>15725</out>
    <file id="file-5"/>
    
    <labels>
        <label2>Iris</label2>
    </labels>
</clipitem>
<clipitem id="e135fdf7-8c37-4152-9e5f-7a2206bc7e33" premiereChannelType="stereo">
    <masterclipid>masterclip-1</masterclipid>
    <name>S01E45.Jiggles.mkv</name>
    <enabled>TRUE</enabled>
    <duration>17218</duration>
    <rate>
        <timebase>23.976</timebase>
        <ntsc>FALSE</ntsc>
    </rate>
    <start>15314</start>
    <end>15325</end>
    <in>15725</in>
    <out>15736</out>
    <file id="file-5"/>
    
    <labels>
        <label2>Iris</label2>
    </labels>
</clipitem>
<clipitem id="32766e11-a29b-4b7f-bd95-c0e603774e74" premiereChannelType="stereo">
    <masterclipid>masterclip-1</masterclipid>
    <name>S01E45.Jiggles.mkv</name>
    <enabled>TRUE</enabled>
    <duration>17218</duration>
    <rate>
        <timebase>23.976</timebase>
        <ntsc>FALSE</ntsc>
    </rate>
    <start>15325</start>
    <end>15356</end>
    <in>15736</in>
    <out>15767</out>
    <file id="file-5"/>
    
    <labels>
        <label2>Iris</label2>
    </labels>
</clipitem>
<clipitem id="6d5ad6fc-4cc0-4b6c-96e7-13b89242ddab" premiereChannelType="stereo">
    <masterclipid>masterclip-1</masterclipid>
    <name>S01E45.Jiggles.mkv</name>
    <enabled>TRUE</enabled>
    <duration>17218</duration>
    <rate>
        <timebase>23.976</timebase>
        <ntsc>FALSE</ntsc>
    </rate>
    <start>15356</start>
    <end>15423</end>
    <in>15769</in>
    <out>15836</out>
    <file id="file-5"/>
    
    <labels>
        <label2>Iris</label2>
    </labels>
</clipitem>
<clipitem id="e06913f6-0d2c-4af6-af01-503ad4e88c50" premiereChannelType="stereo">
    <masterclipid>masterclip-1</masterclipid>
    <name>S01E45.Jiggles.mkv</name>
    <enabled>TRUE</enabled>
    <duration>17218</duration>
    <rate>
        <timebase>23.976</timebase>
        <ntsc>FALSE</ntsc>
    </rate>
    <start>15423</start>
    <end>15435</end>
    <in>15834</in>
    <out>15846</out>
    <file id="file-5"/>
    
    <labels>
        <label2>Iris</label2>
    </labels>
</clipitem>
<clipitem id="f055bcc7-1c28-4a30-a09d-64fb5e3a5f00" premiereChannelType="stereo">
    <masterclipid>masterclip-1</masterclipid>
    <name>S01E45.Jiggles.mkv</name>
    <enabled>TRUE</enabled>
    <duration>17218</duration>
    <rate>
        <timebase>23.976</timebase>
        <ntsc>FALSE</ntsc>
    </rate>
    <start>15435</start>
    <end>15450</end>
    <in>15847</in>
    <out>15862</out>
    <file id="file-5"/>
    
    <labels>
        <label2>Iris</label2>
    </labels>
</clipitem>
<clipitem id="3a84bcdb-dc5b-4582-8344-fe58d377f1d9" premiereChannelType="stereo">
    <masterclipid>masterclip-1</masterclipid>
    <name>S01E45.Jiggles.mkv</name>
    <enabled>TRUE</enabled>
    <duration>17218</duration>
    <rate>
        <timebase>23.976</timebase>
        <ntsc>FALSE</ntsc>
    </rate>
    <start>15450</start>
    <end>15467</end>
    <in>15861</in>
    <out>15878</out>
    <file id="file-5"/>
    
    <labels>
        <label2>Iris</label2>
    </labels>
</clipitem>
<clipitem id="9bb6a597-778a-4a35-8ec3-5aa3ca974b90" premiereChannelType="stereo">
    <masterclipid>masterclip-1</masterclipid>
    <name>S01E45.Jiggles.mkv</name>
    <enabled>TRUE</enabled>
    <duration>17218</duration>
    <rate>
        <timebase>23.976</timebase>
        <ntsc>FALSE</ntsc>
    </rate>
    <start>15467</start>
    <end>15478</end>
    <in>15878</in>
    <out>15889</out>
    <file id="file-5"/>
    
    <labels>
        <label2>Iris</label2>
    </labels>
</clipitem>
<clipitem id="e66bfe8d-380b-45f1-8229-c7b05ec72cf5" premiereChannelType="stereo">
    <masterclipid>masterclip-1</masterclipid>
    <name>S01E45.Jiggles.mkv</name>
    <enabled>TRUE</enabled>
    <duration>17218</duration>
    <rate>
        <timebase>23.976</timebase>
        <ntsc>FALSE</ntsc>
    </rate>
    <start>15478</start>
    <end>15505</end>
    <in>15889</in>
    <out>15916</out>
    <file id="file-5"/>
    
    <labels>
        <label2>Iris</label2>
    </labels>
</clipitem>
<clipitem id="2ae4ecaf-0b8a-4aa4-be7c-7bb2291e2fc9" premiereChannelType="stereo">
    <masterclipid>masterclip-1</masterclipid>
    <name>S01E45.Jiggles.mkv</name>
    <enabled>TRUE</enabled>
    <duration>17218</duration>
    <rate>
        <timebase>23.976</timebase>
        <ntsc>FALSE</ntsc>
    </rate>
    <start>15505</start>
    <end>15516</end>
    <in>15916</in>
    <out>15927</out>
    <file id="file-5"/>
    
    <labels>
        <label2>Iris</label2>
    </labels>
</clipitem>
<clipitem id="56ee8aaf-6506-4fc9-b8a2-6818d75cd997" premiereChannelType="stereo">
    <masterclipid>masterclip-1</masterclipid>
    <name>S01E45.Jiggles.mkv</name>
    <enabled>TRUE</enabled>
    <duration>17218</duration>
    <rate>
        <timebase>23.976</timebase>
        <ntsc>FALSE</ntsc>
    </rate>
    <start>15516</start>
    <end>15527</end>
    <in>15927</in>
    <out>15938</out>
    <file id="file-5"/>
    
    <labels>
        <label2>Iris</label2>
    </labels>
</clipitem>
<clipitem id="abd5d02d-f460-47cb-82be-bf862fe2486a" premiereChannelType="stereo">
    <masterclipid>masterclip-1</masterclipid>
    <name>S01E45.Jiggles.mkv</name>
    <enabled>TRUE</enabled>
    <duration>17218</duration>
    <rate>
        <timebase>23.976</timebase>
        <ntsc>FALSE</ntsc>
    </rate>
    <start>15527</start>
    <end>15539</end>
    <in>15938</in>
    <out>15950</out>
    <file id="file-5"/>
    
    <labels>
        <label2>Iris</label2>
    </labels>
</clipitem>
<clipitem id="15b4f6dc-3a80-47b4-a6d8-731cb4ddb6f3" premiereChannelType="stereo">
    <masterclipid>masterclip-1</masterclipid>
    <name>S01E45.Jiggles.mkv</name>
    <enabled>TRUE</enabled>
    <duration>17218</duration>
    <rate>
        <timebase>23.976</timebase>
        <ntsc>FALSE</ntsc>
    </rate>
    <start>15539</start>
    <end>15556</end>
    <in>15949</in>
    <out>15966</out>
    <file id="file-5"/>
    
    <labels>
        <label2>Iris</label2>
    </labels>
</clipitem>
<clipitem id="8575104d-092e-4f61-a4f7-9786be15ccf2" premiereChannelType="stereo">
    <masterclipid>masterclip-1</masterclipid>
    <name>S01E45.Jiggles.mkv</name>
    <enabled>TRUE</enabled>
    <duration>17218</duration>
    <rate>
        <timebase>23.976</timebase>
        <ntsc>FALSE</ntsc>
    </rate>
    <start>15556</start>
    <end>15577</end>
    <in>15967</in>
    <out>15988</out>
    <file id="file-5"/>
    
    <labels>
        <label2>Iris</label2>
    </labels>
</clipitem>
<clipitem id="5a224364-1b7b-4bc8-8db2-bded7e409069" premiereChannelType="stereo">
    <masterclipid>masterclip-1</masterclipid>
    <name>S01E45.Jiggles.mkv</name>
    <enabled>TRUE</enabled>
    <duration>17218</duration>
    <rate>
        <timebase>23.976</timebase>
        <ntsc>FALSE</ntsc>
    </rate>
    <start>15577</start>
    <end>15592</end>
    <in>15988</in>
    <out>16003</out>
    <file id="file-5"/>
    
    <labels>
        <label2>Iris</label2>
    </labels>
</clipitem>
<clipitem id="871cff9b-063e-4bc8-b232-ed1556215060" premiereChannelType="stereo">
    <masterclipid>masterclip-1</masterclipid>
    <name>S01E45.Jiggles.mkv</name>
    <enabled>TRUE</enabled>
    <duration>17218</duration>
    <rate>
        <timebase>23.976</timebase>
        <ntsc>FALSE</ntsc>
    </rate>
    <start>15592</start>
    <end>15626</end>
    <in>16027</in>
    <out>16061</out>
    <file id="file-5"/>
    
    <labels>
        <label2>Iris</label2>
    </labels>
</clipitem>
<clipitem id="f92bfe3a-8cb1-44f2-b149-506d662747d1" premiereChannelType="stereo">
    <masterclipid>masterclip-1</masterclipid>
    <name>S01E45.Jiggles.mkv</name>
    <enabled>TRUE</enabled>
    <duration>17218</duration>
    <rate>
        <timebase>23.976</timebase>
        <ntsc>FALSE</ntsc>
    </rate>
    <start>15626</start>
    <end>15670</end>
    <in>16008</in>
    <out>16052</out>
    <file id="file-5"/>
    
    <labels>
        <label2>Iris</label2>
    </labels>
</clipitem>
<clipitem id="ea74536f-7479-45c0-ae40-19c82bcf1728" premiereChannelType="stereo">
    <masterclipid>masterclip-1</masterclipid>
    <name>S01E45.Jiggles.mkv</name>
    <enabled>TRUE</enabled>
    <duration>17218</duration>
    <rate>
        <timebase>23.976</timebase>
        <ntsc>FALSE</ntsc>
    </rate>
    <start>15670</start>
    <end>15688</end>
    <in>16081</in>
    <out>16099</out>
    <file id="file-5"/>
    
    <labels>
        <label2>Iris</label2>
    </labels>
</clipitem>
<clipitem id="4627382d-5efa-4f0f-98cf-d20e03c05d19" premiereChannelType="stereo">
    <masterclipid>masterclip-1</masterclipid>
    <name>S01E45.Jiggles.mkv</name>
    <enabled>TRUE</enabled>
    <duration>17218</duration>
    <rate>
        <timebase>23.976</timebase>
        <ntsc>FALSE</ntsc>
    </rate>
    <start>15688</start>
    <end>15750</end>
    <in>16099</in>
    <out>16161</out>
    <file id="file-5"/>
    
    <labels>
        <label2>Iris</label2>
    </labels>
</clipitem>
<clipitem id="eacee977-9644-4b8c-a7ee-23c93be35244" premiereChannelType="stereo">
    <masterclipid>masterclip-1</masterclipid>
    <name>S01E45.Jiggles.mkv</name>
    <enabled>TRUE</enabled>
    <duration>17218</duration>
    <rate>
        <timebase>23.976</timebase>
        <ntsc>FALSE</ntsc>
    </rate>
    <start>15750</start>
    <end>15889</end>
    <in>16161</in>
    <out>16300</out>
    <file id="file-5"/>
    
    <labels>
        <label2>Iris</label2>
    </labels>
</clipitem>
<clipitem id="95fa7688-8d9b-4851-b4e7-0a581a0040ea" premiereChannelType="stereo">
    <masterclipid>masterclip-1</masterclipid>
    <name>S01E45.Jiggles.mkv</name>
    <enabled>TRUE</enabled>
    <duration>17218</duration>
    <rate>
        <timebase>23.976</timebase>
        <ntsc>FALSE</ntsc>
    </rate>
    <start>15889</start>
    <end>16056</end>
    <in>16299</in>
    <out>16466</out>
    <file id="file-5"/>
    
    <labels>
        <label2>Iris</label2>
    </labels>
</clipitem>
<clipitem id="a53da5ba-16f4-448b-8f33-169855e4057a" premiereChannelType="stereo">
    <masterclipid>masterclip-1</masterclipid>
    <name>S01E45.Jiggles.mkv</name>
    <enabled>TRUE</enabled>
    <duration>17218</duration>
    <rate>
        <timebase>23.976</timebase>
        <ntsc>FALSE</ntsc>
    </rate>
    <start>16056</start>
    <end>16067</end>
    <in>16467</in>
    <out>16478</out>
    <file id="file-5"/>
    
    <labels>
        <label2>Iris</label2>
    </labels>
</clipitem>
<clipitem id="ab7d04e3-f913-46e7-a53c-637d72a5da4c" premiereChannelType="stereo">
    <masterclipid>masterclip-1</masterclipid>
    <name>S01E45.Jiggles.mkv</name>
    <enabled>TRUE</enabled>
    <duration>17218</duration>
    <rate>
        <timebase>23.976</timebase>
        <ntsc>FALSE</ntsc>
    </rate>
    <start>16067</start>
    <end>16097</end>
    <in>16478</in>
    <out>16508</out>
    <file id="file-5"/>
    
    <labels>
        <label2>Iris</label2>
    </labels>
</clipitem>
<clipitem id="8bc5791f-faed-4e24-9061-e882c622fcb3" premiereChannelType="stereo">
    <masterclipid>masterclip-1</masterclipid>
    <name>S01E45.Jiggles.mkv</name>
    <enabled>TRUE</enabled>
    <duration>17218</duration>
    <rate>
        <timebase>23.976</timebase>
        <ntsc>FALSE</ntsc>
    </rate>
    <start>16097</start>
    <end>16128</end>
    <in>16508</in>
    <out>16539</out>
    <file id="file-5"/>
    
    <labels>
        <label2>Iris</label2>
    </labels>
</clipitem>
<clipitem id="874d011e-e6b7-4006-90f8-349656d450f2" premiereChannelType="stereo">
    <masterclipid>masterclip-1</masterclipid>
    <name>S01E45.Jiggles.mkv</name>
    <enabled>TRUE</enabled>
    <duration>17218</duration>
    <rate>
        <timebase>23.976</timebase>
        <ntsc>FALSE</ntsc>
    </rate>
    <start>16128</start>
    <end>16160</end>
    <in>16539</in>
    <out>16571</out>
    <file id="file-5"/>
    
    <labels>
        <label2>Iris</label2>
    </labels>
</clipitem>
<clipitem id="ec6bface-71f8-49b3-a021-ed68391fb2c8" premiereChannelType="stereo">
    <masterclipid>masterclip-1</masterclipid>
    <name>S01E45.Jiggles.mkv</name>
    <enabled>TRUE</enabled>
    <duration>17218</duration>
    <rate>
        <timebase>23.976</timebase>
        <ntsc>FALSE</ntsc>
    </rate>
    <start>16160</start>
    <end>16175</end>
    <in>16571</in>
    <out>16586</out>
    <file id="file-5"/>
    
    <labels>
        <label2>Iris</label2>
    </labels>
</clipitem>
<clipitem id="24ba2d9c-db22-4df3-92be-57e90b4d284d" premiereChannelType="stereo">
    <masterclipid>masterclip-1</masterclipid>
    <name>S01E45.Jiggles.mkv</name>
    <enabled>TRUE</enabled>
    <duration>17218</duration>
    <rate>
        <timebase>23.976</timebase>
        <ntsc>FALSE</ntsc>
    </rate>
    <start>16175</start>
    <end>16189</end>
    <in>16586</in>
    <out>16600</out>
    <file id="file-5"/>
    
    <labels>
        <label2>Iris</label2>
    </labels>
</clipitem>
<clipitem id="f03d919b-6b4b-4c49-b200-5e703810e8d6" premiereChannelType="stereo">
    <masterclipid>masterclip-1</masterclipid>
    <name>S01E45.Jiggles.mkv</name>
    <enabled>TRUE</enabled>
    <duration>17218</duration>
    <rate>
        <timebase>23.976</timebase>
        <ntsc>FALSE</ntsc>
    </rate>
    <start>16189</start>
    <end>16228</end>
    <in>16600</in>
    <out>16639</out>
    <file id="file-5"/>
    
    <labels>
        <label2>Iris</label2>
    </labels>
</clipitem>
<clipitem id="9f5dc425-caf9-4fb6-8f29-fc04705f12e1" premiereChannelType="stereo">
    <masterclipid>masterclip-1</masterclipid>
    <name>S01E45.Jiggles.mkv</name>
    <enabled>TRUE</enabled>
    <duration>17218</duration>
    <rate>
        <timebase>23.976</timebase>
        <ntsc>FALSE</ntsc>
    </rate>
    <start>16228</start>
    <end>16371</end>
    <in>16639</in>
    <out>16782</out>
    <file id="file-5"/>
    
    <labels>
        <label2>Iris</label2>
    </labels>
</clipitem>
<clipitem id="455e19fe-68a5-4309-8a49-e0993406cead" premiereChannelType="stereo">
    <masterclipid>masterclip-1</masterclipid>
    <name>S01E45.Jiggles.mkv</name>
    <enabled>TRUE</enabled>
    <duration>17218</duration>
    <rate>
        <timebase>23.976</timebase>
        <ntsc>FALSE</ntsc>
    </rate>
    <start>16371</start>
    <end>16757</end>
    <in>16781</in>
    <out>17167</out>
    <file id="file-5"/>
    
    <labels>
        <label2>Iris</label2>
    </labels>
</clipitem>
<clipitem id="e9a41272-58d8-4844-8b71-e33f33693513" premiereChannelType="stereo">
    <masterclipid>masterclip-1</masterclipid>
    <name>S01E45.Jiggles.mkv</name>
    <enabled>TRUE</enabled>
    <duration>17218</duration>
    <rate>
        <timebase>23.976</timebase>
        <ntsc>FALSE</ntsc>
    </rate>
    <start>16757</start>
    <end>16761</end>
    <in>17132</in>
    <out>17136</out>
    <file id="file-5"/>
    
    <labels>
        <label2>Iris</label2>
    </labels>
</clipitem>
                </track>
                <track TL.SQTrackShy="0" TL.SQTrackExpandedHeight="25" TL.SQTrackExpanded="0" MZ.TrackTargeted="0">
                    <enabled>TRUE</enabled>
                    <locked>FALSE</locked>
                </track>
                <track TL.SQTrackShy="0" TL.SQTrackExpandedHeight="25" TL.SQTrackExpanded="0" MZ.TrackTargeted="0">
                    <enabled>TRUE</enabled>
                    <locked>FALSE</locked>
                </track>
            </video>
            <audio>
                <numOutputChannels>2</numOutputChannels>
                <format>
                    <samplecharacteristics>
                        <depth>16</depth>
                        <samplerate>44100</samplerate>
                    </samplecharacteristics>
                </format>
                <outputs>
                    <group>
                        <index>1</index>
                        <numchannels>1</numchannels>
                        <downmix>0</downmix>
                        <channel>
                            <index>1</index>
                        </channel>
                    </group>
                    <group>
                        <index>2</index>
                        <numchannels>1</numchannels>
                        <downmix>0</downmix>
                        <channel>
                            <index>2</index>
                        </channel>
                    </group>
                </outputs>
                <track TL.SQTrackAudioKeyframeStyle="0" TL.SQTrackShy="0" TL.SQTrackExpandedHeight="25"
                       TL.SQTrackExpanded="0" MZ.TrackTargeted="1" PannerCurrentValue="0.5" PannerIsInverted="true"
                       PannerStartKeyframe="-91445760000000000,0.5,0,0,0,0,0,0" PannerName="平衡"
                       currentExplodedTrackIndex="0" totalExplodedTrackCount="2" premiereTrackType="Stereo">

                    <clipitem id="5857f368-d346-4fa3-9b87-a9df55dc74ec" premiereChannelType="stereo">
    <masterclipid>masterclip-1</masterclipid>
    <name>S01E45.Jiggles.mkv</name>
    <enabled>TRUE</enabled>
    <duration>17218</duration>
    <rate>
        <timebase>23.976</timebase>
        <ntsc>FALSE</ntsc>
    </rate>
    <start>1</start>
    <end>12</end>
    <in>374</in>
    <out>385</out>
    <file id="file-5">
    <name>S01E45.Jiggles.mkv</name>
    <pathurl>file://localhost/F%3A/xunleiyunpan/S01E45.Jiggles.mkv</pathurl>
    <rate>
        <timebase>23.976</timebase>
        <ntsc>FALSE</ntsc>
    </rate>
    <duration>17218</duration>
    <timecode>
        <rate>
            <timebase>23.976</timebase>
            <ntsc>FALSE</ntsc>
        </rate>
        <string>00:00:00:00</string>
        <frame>0</frame>
        <displayformat>NDF</displayformat>
    </timecode>
    <media>
        <video>
            <samplecharacteristics>
                <rate>
                    <timebase>23.976</timebase>
                    <ntsc>FALSE</ntsc>
                </rate>
                <width>1912</width>
                <height>1072</height>
                <anamorphic>FALSE</anamorphic>
                <pixelaspectratio>square</pixelaspectratio>
                <fielddominance>none</fielddominance>
            </samplecharacteristics>
        </video>
        <audio>
            <samplecharacteristics>
                <depth>16</depth>
                <samplerate>48000</samplerate>
            </samplecharacteristics>
            <channelcount>2</channelcount>
        </audio>
    </media>
</file>
    <sourcetrack>
    <mediatype>audio</mediatype>
    <trackindex>1</trackindex>
</sourcetrack>
    <labels>
        <label2>Iris</label2>
    </labels>
</clipitem>
<clipitem id="df2e360f-384c-40a4-bc77-d5f1ad7ad1fe" premiereChannelType="stereo">
    <masterclipid>masterclip-1</masterclipid>
    <name>S01E45.Jiggles.mkv</name>
    <enabled>TRUE</enabled>
    <duration>17218</duration>
    <rate>
        <timebase>23.976</timebase>
        <ntsc>FALSE</ntsc>
    </rate>
    <start>12</start>
    <end>23</end>
    <in>385</in>
    <out>396</out>
    <file id="file-5"/>
    <sourcetrack>
    <mediatype>audio</mediatype>
    <trackindex>1</trackindex>
</sourcetrack>
    <labels>
        <label2>Iris</label2>
    </labels>
</clipitem>
<clipitem id="ebf26dea-7609-46e8-ad14-5a566fcc6d6b" premiereChannelType="stereo">
    <masterclipid>masterclip-1</masterclipid>
    <name>S01E45.Jiggles.mkv</name>
    <enabled>TRUE</enabled>
    <duration>17218</duration>
    <rate>
        <timebase>23.976</timebase>
        <ntsc>FALSE</ntsc>
    </rate>
    <start>23</start>
    <end>34</end>
    <in>396</in>
    <out>407</out>
    <file id="file-5"/>
    <sourcetrack>
    <mediatype>audio</mediatype>
    <trackindex>1</trackindex>
</sourcetrack>
    <labels>
        <label2>Iris</label2>
    </labels>
</clipitem>
<clipitem id="3395b9da-39f5-4a26-ae3a-cef96bb621c2" premiereChannelType="stereo">
    <masterclipid>masterclip-1</masterclipid>
    <name>S01E45.Jiggles.mkv</name>
    <enabled>TRUE</enabled>
    <duration>17218</duration>
    <rate>
        <timebase>23.976</timebase>
        <ntsc>FALSE</ntsc>
    </rate>
    <start>35</start>
    <end>46</end>
    <in>408</in>
    <out>419</out>
    <file id="file-5"/>
    <sourcetrack>
    <mediatype>audio</mediatype>
    <trackindex>1</trackindex>
</sourcetrack>
    <labels>
        <label2>Iris</label2>
    </labels>
</clipitem>
<clipitem id="c078e253-e2bb-482a-9174-67724727ad1a" premiereChannelType="stereo">
    <masterclipid>masterclip-1</masterclipid>
    <name>S01E45.Jiggles.mkv</name>
    <enabled>TRUE</enabled>
    <duration>17218</duration>
    <rate>
        <timebase>23.976</timebase>
        <ntsc>FALSE</ntsc>
    </rate>
    <start>51</start>
    <end>62</end>
    <in>424</in>
    <out>435</out>
    <file id="file-5"/>
    <sourcetrack>
    <mediatype>audio</mediatype>
    <trackindex>1</trackindex>
</sourcetrack>
    <labels>
        <label2>Iris</label2>
    </labels>
</clipitem>
<clipitem id="ffe19d75-d9f5-4d28-89af-9c73f6ce3eb4" premiereChannelType="stereo">
    <masterclipid>masterclip-1</masterclipid>
    <name>S01E45.Jiggles.mkv</name>
    <enabled>TRUE</enabled>
    <duration>17218</duration>
    <rate>
        <timebase>23.976</timebase>
        <ntsc>FALSE</ntsc>
    </rate>
    <start>62</start>
    <end>73</end>
    <in>435</in>
    <out>446</out>
    <file id="file-5"/>
    <sourcetrack>
    <mediatype>audio</mediatype>
    <trackindex>1</trackindex>
</sourcetrack>
    <labels>
        <label2>Iris</label2>
    </labels>
</clipitem>
<clipitem id="d463ae64-c515-46db-b9b3-50cd197a34ec" premiereChannelType="stereo">
    <masterclipid>masterclip-1</masterclipid>
    <name>S01E45.Jiggles.mkv</name>
    <enabled>TRUE</enabled>
    <duration>17218</duration>
    <rate>
        <timebase>23.976</timebase>
        <ntsc>FALSE</ntsc>
    </rate>
    <start>73</start>
    <end>86</end>
    <in>446</in>
    <out>459</out>
    <file id="file-5"/>
    <sourcetrack>
    <mediatype>audio</mediatype>
    <trackindex>1</trackindex>
</sourcetrack>
    <labels>
        <label2>Iris</label2>
    </labels>
</clipitem>
<clipitem id="61f123ed-0138-4bd0-9d2d-f1ed1f3b55e0" premiereChannelType="stereo">
    <masterclipid>masterclip-1</masterclipid>
    <name>S01E45.Jiggles.mkv</name>
    <enabled>TRUE</enabled>
    <duration>17218</duration>
    <rate>
        <timebase>23.976</timebase>
        <ntsc>FALSE</ntsc>
    </rate>
    <start>86</start>
    <end>97</end>
    <in>459</in>
    <out>470</out>
    <file id="file-5"/>
    <sourcetrack>
    <mediatype>audio</mediatype>
    <trackindex>1</trackindex>
</sourcetrack>
    <labels>
        <label2>Iris</label2>
    </labels>
</clipitem>
<clipitem id="b1bb9fa8-68ee-4bef-9ba3-48303d6f373d" premiereChannelType="stereo">
    <masterclipid>masterclip-1</masterclipid>
    <name>S01E45.Jiggles.mkv</name>
    <enabled>TRUE</enabled>
    <duration>17218</duration>
    <rate>
        <timebase>23.976</timebase>
        <ntsc>FALSE</ntsc>
    </rate>
    <start>97</start>
    <end>108</end>
    <in>470</in>
    <out>481</out>
    <file id="file-5"/>
    <sourcetrack>
    <mediatype>audio</mediatype>
    <trackindex>1</trackindex>
</sourcetrack>
    <labels>
        <label2>Iris</label2>
    </labels>
</clipitem>
<clipitem id="9d249349-5f7a-452e-9f3e-e49bfbb259f6" premiereChannelType="stereo">
    <masterclipid>masterclip-1</masterclipid>
    <name>S01E45.Jiggles.mkv</name>
    <enabled>TRUE</enabled>
    <duration>17218</duration>
    <rate>
        <timebase>23.976</timebase>
        <ntsc>FALSE</ntsc>
    </rate>
    <start>108</start>
    <end>119</end>
    <in>481</in>
    <out>492</out>
    <file id="file-5"/>
    <sourcetrack>
    <mediatype>audio</mediatype>
    <trackindex>1</trackindex>
</sourcetrack>
    <labels>
        <label2>Iris</label2>
    </labels>
</clipitem>
<clipitem id="5759e87a-40b0-4b39-96a3-249086b3ec26" premiereChannelType="stereo">
    <masterclipid>masterclip-1</masterclipid>
    <name>S01E45.Jiggles.mkv</name>
    <enabled>TRUE</enabled>
    <duration>17218</duration>
    <rate>
        <timebase>23.976</timebase>
        <ntsc>FALSE</ntsc>
    </rate>
    <start>119</start>
    <end>130</end>
    <in>492</in>
    <out>503</out>
    <file id="file-5"/>
    <sourcetrack>
    <mediatype>audio</mediatype>
    <trackindex>1</trackindex>
</sourcetrack>
    <labels>
        <label2>Iris</label2>
    </labels>
</clipitem>
<clipitem id="1d4d8a4a-bb6c-4d9a-aa7d-0087c87a557f" premiereChannelType="stereo">
    <masterclipid>masterclip-1</masterclipid>
    <name>S01E45.Jiggles.mkv</name>
    <enabled>TRUE</enabled>
    <duration>17218</duration>
    <rate>
        <timebase>23.976</timebase>
        <ntsc>FALSE</ntsc>
    </rate>
    <start>130</start>
    <end>142</end>
    <in>503</in>
    <out>515</out>
    <file id="file-5"/>
    <sourcetrack>
    <mediatype>audio</mediatype>
    <trackindex>1</trackindex>
</sourcetrack>
    <labels>
        <label2>Iris</label2>
    </labels>
</clipitem>
<clipitem id="eb058cc5-136e-45df-935d-a235bd031e76" premiereChannelType="stereo">
    <masterclipid>masterclip-1</masterclipid>
    <name>S01E45.Jiggles.mkv</name>
    <enabled>TRUE</enabled>
    <duration>17218</duration>
    <rate>
        <timebase>23.976</timebase>
        <ntsc>FALSE</ntsc>
    </rate>
    <start>142</start>
    <end>156</end>
    <in>516</in>
    <out>530</out>
    <file id="file-5"/>
    <sourcetrack>
    <mediatype>audio</mediatype>
    <trackindex>1</trackindex>
</sourcetrack>
    <labels>
        <label2>Iris</label2>
    </labels>
</clipitem>
<clipitem id="2ee2b513-f6a5-4007-9da8-877aab0c4710" premiereChannelType="stereo">
    <masterclipid>masterclip-1</masterclipid>
    <name>S01E45.Jiggles.mkv</name>
    <enabled>TRUE</enabled>
    <duration>17218</duration>
    <rate>
        <timebase>23.976</timebase>
        <ntsc>FALSE</ntsc>
    </rate>
    <start>156</start>
    <end>167</end>
    <in>530</in>
    <out>541</out>
    <file id="file-5"/>
    <sourcetrack>
    <mediatype>audio</mediatype>
    <trackindex>1</trackindex>
</sourcetrack>
    <labels>
        <label2>Iris</label2>
    </labels>
</clipitem>
<clipitem id="c1175df1-5258-4cf3-9c31-bda8471be9a5" premiereChannelType="stereo">
    <masterclipid>masterclip-1</masterclipid>
    <name>S01E45.Jiggles.mkv</name>
    <enabled>TRUE</enabled>
    <duration>17218</duration>
    <rate>
        <timebase>23.976</timebase>
        <ntsc>FALSE</ntsc>
    </rate>
    <start>167</start>
    <end>181</end>
    <in>541</in>
    <out>555</out>
    <file id="file-5"/>
    <sourcetrack>
    <mediatype>audio</mediatype>
    <trackindex>1</trackindex>
</sourcetrack>
    <labels>
        <label2>Iris</label2>
    </labels>
</clipitem>
<clipitem id="7474f29c-c453-44ee-b326-111b1cdf5006" premiereChannelType="stereo">
    <masterclipid>masterclip-1</masterclipid>
    <name>S01E45.Jiggles.mkv</name>
    <enabled>TRUE</enabled>
    <duration>17218</duration>
    <rate>
        <timebase>23.976</timebase>
        <ntsc>FALSE</ntsc>
    </rate>
    <start>181</start>
    <end>195</end>
    <in>555</in>
    <out>569</out>
    <file id="file-5"/>
    <sourcetrack>
    <mediatype>audio</mediatype>
    <trackindex>1</trackindex>
</sourcetrack>
    <labels>
        <label2>Iris</label2>
    </labels>
</clipitem>
<clipitem id="86c75dce-99b5-4658-a15b-1fb4a3fc52dc" premiereChannelType="stereo">
    <masterclipid>masterclip-1</masterclipid>
    <name>S01E45.Jiggles.mkv</name>
    <enabled>TRUE</enabled>
    <duration>17218</duration>
    <rate>
        <timebase>23.976</timebase>
        <ntsc>FALSE</ntsc>
    </rate>
    <start>195</start>
    <end>212</end>
    <in>569</in>
    <out>586</out>
    <file id="file-5"/>
    <sourcetrack>
    <mediatype>audio</mediatype>
    <trackindex>1</trackindex>
</sourcetrack>
    <labels>
        <label2>Iris</label2>
    </labels>
</clipitem>
<clipitem id="c329e62e-136d-451a-85c8-d8368665b568" premiereChannelType="stereo">
    <masterclipid>masterclip-1</masterclipid>
    <name>S01E45.Jiggles.mkv</name>
    <enabled>TRUE</enabled>
    <duration>17218</duration>
    <rate>
        <timebase>23.976</timebase>
        <ntsc>FALSE</ntsc>
    </rate>
    <start>212</start>
    <end>361</end>
    <in>585</in>
    <out>734</out>
    <file id="file-5"/>
    <sourcetrack>
    <mediatype>audio</mediatype>
    <trackindex>1</trackindex>
</sourcetrack>
    <labels>
        <label2>Iris</label2>
    </labels>
</clipitem>
<clipitem id="989d3df9-f168-4645-bcf6-9f5d5a1a4f6a" premiereChannelType="stereo">
    <masterclipid>masterclip-1</masterclipid>
    <name>S01E45.Jiggles.mkv</name>
    <enabled>TRUE</enabled>
    <duration>17218</duration>
    <rate>
        <timebase>23.976</timebase>
        <ntsc>FALSE</ntsc>
    </rate>
    <start>361</start>
    <end>372</end>
    <in>735</in>
    <out>746</out>
    <file id="file-5"/>
    <sourcetrack>
    <mediatype>audio</mediatype>
    <trackindex>1</trackindex>
</sourcetrack>
    <labels>
        <label2>Iris</label2>
    </labels>
</clipitem>
<clipitem id="c70173a2-4029-49fd-bca6-b631642c97f2" premiereChannelType="stereo">
    <masterclipid>masterclip-1</masterclipid>
    <name>S01E45.Jiggles.mkv</name>
    <enabled>TRUE</enabled>
    <duration>17218</duration>
    <rate>
        <timebase>23.976</timebase>
        <ntsc>FALSE</ntsc>
    </rate>
    <start>372</start>
    <end>383</end>
    <in>746</in>
    <out>757</out>
    <file id="file-5"/>
    <sourcetrack>
    <mediatype>audio</mediatype>
    <trackindex>1</trackindex>
</sourcetrack>
    <labels>
        <label2>Iris</label2>
    </labels>
</clipitem>
<clipitem id="ebe84082-616d-4f0e-ba40-467b2b50ecf0" premiereChannelType="stereo">
    <masterclipid>masterclip-1</masterclipid>
    <name>S01E45.Jiggles.mkv</name>
    <enabled>TRUE</enabled>
    <duration>17218</duration>
    <rate>
        <timebase>23.976</timebase>
        <ntsc>FALSE</ntsc>
    </rate>
    <start>383</start>
    <end>404</end>
    <in>757</in>
    <out>778</out>
    <file id="file-5"/>
    <sourcetrack>
    <mediatype>audio</mediatype>
    <trackindex>1</trackindex>
</sourcetrack>
    <labels>
        <label2>Iris</label2>
    </labels>
</clipitem>
<clipitem id="af424df6-8a01-4baa-90c6-48d7475dfc8a" premiereChannelType="stereo">
    <masterclipid>masterclip-1</masterclipid>
    <name>S01E45.Jiggles.mkv</name>
    <enabled>TRUE</enabled>
    <duration>17218</duration>
    <rate>
        <timebase>23.976</timebase>
        <ntsc>FALSE</ntsc>
    </rate>
    <start>404</start>
    <end>415</end>
    <in>778</in>
    <out>789</out>
    <file id="file-5"/>
    <sourcetrack>
    <mediatype>audio</mediatype>
    <trackindex>1</trackindex>
</sourcetrack>
    <labels>
        <label2>Iris</label2>
    </labels>
</clipitem>
<clipitem id="ab669368-7525-4a58-aada-2a34f1a9812d" premiereChannelType="stereo">
    <masterclipid>masterclip-1</masterclipid>
    <name>S01E45.Jiggles.mkv</name>
    <enabled>TRUE</enabled>
    <duration>17218</duration>
    <rate>
        <timebase>23.976</timebase>
        <ntsc>FALSE</ntsc>
    </rate>
    <start>415</start>
    <end>432</end>
    <in>789</in>
    <out>806</out>
    <file id="file-5"/>
    <sourcetrack>
    <mediatype>audio</mediatype>
    <trackindex>1</trackindex>
</sourcetrack>
    <labels>
        <label2>Iris</label2>
    </labels>
</clipitem>
<clipitem id="4e0bcd16-5d34-4237-91db-50d980a04b78" premiereChannelType="stereo">
    <masterclipid>masterclip-1</masterclipid>
    <name>S01E45.Jiggles.mkv</name>
    <enabled>TRUE</enabled>
    <duration>17218</duration>
    <rate>
        <timebase>23.976</timebase>
        <ntsc>FALSE</ntsc>
    </rate>
    <start>432</start>
    <end>443</end>
    <in>806</in>
    <out>817</out>
    <file id="file-5"/>
    <sourcetrack>
    <mediatype>audio</mediatype>
    <trackindex>1</trackindex>
</sourcetrack>
    <labels>
        <label2>Iris</label2>
    </labels>
</clipitem>
<clipitem id="df2fa492-7406-4492-89db-63f92fb84405" premiereChannelType="stereo">
    <masterclipid>masterclip-1</masterclipid>
    <name>S01E45.Jiggles.mkv</name>
    <enabled>TRUE</enabled>
    <duration>17218</duration>
    <rate>
        <timebase>23.976</timebase>
        <ntsc>FALSE</ntsc>
    </rate>
    <start>443</start>
    <end>455</end>
    <in>817</in>
    <out>829</out>
    <file id="file-5"/>
    <sourcetrack>
    <mediatype>audio</mediatype>
    <trackindex>1</trackindex>
</sourcetrack>
    <labels>
        <label2>Iris</label2>
    </labels>
</clipitem>
<clipitem id="e3b63144-6f84-4cb1-84ae-0ffbf4291012" premiereChannelType="stereo">
    <masterclipid>masterclip-1</masterclipid>
    <name>S01E45.Jiggles.mkv</name>
    <enabled>TRUE</enabled>
    <duration>17218</duration>
    <rate>
        <timebase>23.976</timebase>
        <ntsc>FALSE</ntsc>
    </rate>
    <start>455</start>
    <end>467</end>
    <in>828</in>
    <out>840</out>
    <file id="file-5"/>
    <sourcetrack>
    <mediatype>audio</mediatype>
    <trackindex>1</trackindex>
</sourcetrack>
    <labels>
        <label2>Iris</label2>
    </labels>
</clipitem>
<clipitem id="15551f50-5d2b-415b-b5c9-de424fa8f75f" premiereChannelType="stereo">
    <masterclipid>masterclip-1</masterclipid>
    <name>S01E45.Jiggles.mkv</name>
    <enabled>TRUE</enabled>
    <duration>17218</duration>
    <rate>
        <timebase>23.976</timebase>
        <ntsc>FALSE</ntsc>
    </rate>
    <start>467</start>
    <end>481</end>
    <in>841</in>
    <out>855</out>
    <file id="file-5"/>
    <sourcetrack>
    <mediatype>audio</mediatype>
    <trackindex>1</trackindex>
</sourcetrack>
    <labels>
        <label2>Iris</label2>
    </labels>
</clipitem>
<clipitem id="135a26e4-cc89-49ed-9f9e-d2035160b2c3" premiereChannelType="stereo">
    <masterclipid>masterclip-1</masterclipid>
    <name>S01E45.Jiggles.mkv</name>
    <enabled>TRUE</enabled>
    <duration>17218</duration>
    <rate>
        <timebase>23.976</timebase>
        <ntsc>FALSE</ntsc>
    </rate>
    <start>481</start>
    <end>494</end>
    <in>855</in>
    <out>868</out>
    <file id="file-5"/>
    <sourcetrack>
    <mediatype>audio</mediatype>
    <trackindex>1</trackindex>
</sourcetrack>
    <labels>
        <label2>Iris</label2>
    </labels>
</clipitem>
<clipitem id="cad85e09-e5b4-491e-beaf-65d1625cc4ff" premiereChannelType="stereo">
    <masterclipid>masterclip-1</masterclipid>
    <name>S01E45.Jiggles.mkv</name>
    <enabled>TRUE</enabled>
    <duration>17218</duration>
    <rate>
        <timebase>23.976</timebase>
        <ntsc>FALSE</ntsc>
    </rate>
    <start>494</start>
    <end>506</end>
    <in>868</in>
    <out>880</out>
    <file id="file-5"/>
    <sourcetrack>
    <mediatype>audio</mediatype>
    <trackindex>1</trackindex>
</sourcetrack>
    <labels>
        <label2>Iris</label2>
    </labels>
</clipitem>
<clipitem id="520f0a29-22fc-4628-960e-62461237e2f3" premiereChannelType="stereo">
    <masterclipid>masterclip-1</masterclipid>
    <name>S01E45.Jiggles.mkv</name>
    <enabled>TRUE</enabled>
    <duration>17218</duration>
    <rate>
        <timebase>23.976</timebase>
        <ntsc>FALSE</ntsc>
    </rate>
    <start>506</start>
    <end>520</end>
    <in>879</in>
    <out>893</out>
    <file id="file-5"/>
    <sourcetrack>
    <mediatype>audio</mediatype>
    <trackindex>1</trackindex>
</sourcetrack>
    <labels>
        <label2>Iris</label2>
    </labels>
</clipitem>
<clipitem id="86781b86-e8a2-4304-861f-be71f4f302ea" premiereChannelType="stereo">
    <masterclipid>masterclip-1</masterclipid>
    <name>S01E45.Jiggles.mkv</name>
    <enabled>TRUE</enabled>
    <duration>17218</duration>
    <rate>
        <timebase>23.976</timebase>
        <ntsc>FALSE</ntsc>
    </rate>
    <start>520</start>
    <end>533</end>
    <in>894</in>
    <out>907</out>
    <file id="file-5"/>
    <sourcetrack>
    <mediatype>audio</mediatype>
    <trackindex>1</trackindex>
</sourcetrack>
    <labels>
        <label2>Iris</label2>
    </labels>
</clipitem>
<clipitem id="dcbb11e0-5008-4b25-b41b-77caadacafd2" premiereChannelType="stereo">
    <masterclipid>masterclip-1</masterclipid>
    <name>S01E45.Jiggles.mkv</name>
    <enabled>TRUE</enabled>
    <duration>17218</duration>
    <rate>
        <timebase>23.976</timebase>
        <ntsc>FALSE</ntsc>
    </rate>
    <start>533</start>
    <end>558</end>
    <in>907</in>
    <out>932</out>
    <file id="file-5"/>
    <sourcetrack>
    <mediatype>audio</mediatype>
    <trackindex>1</trackindex>
</sourcetrack>
    <labels>
        <label2>Iris</label2>
    </labels>
</clipitem>
<clipitem id="d143a79d-c7a4-40ac-9550-132b8788c67f" premiereChannelType="stereo">
    <masterclipid>masterclip-1</masterclipid>
    <name>S01E45.Jiggles.mkv</name>
    <enabled>TRUE</enabled>
    <duration>17218</duration>
    <rate>
        <timebase>23.976</timebase>
        <ntsc>FALSE</ntsc>
    </rate>
    <start>558</start>
    <end>569</end>
    <in>932</in>
    <out>943</out>
    <file id="file-5"/>
    <sourcetrack>
    <mediatype>audio</mediatype>
    <trackindex>1</trackindex>
</sourcetrack>
    <labels>
        <label2>Iris</label2>
    </labels>
</clipitem>
<clipitem id="72fb8e57-64ec-40d3-a4d9-c97b6e9ce471" premiereChannelType="stereo">
    <masterclipid>masterclip-1</masterclipid>
    <name>S01E45.Jiggles.mkv</name>
    <enabled>TRUE</enabled>
    <duration>17218</duration>
    <rate>
        <timebase>23.976</timebase>
        <ntsc>FALSE</ntsc>
    </rate>
    <start>569</start>
    <end>580</end>
    <in>943</in>
    <out>954</out>
    <file id="file-5"/>
    <sourcetrack>
    <mediatype>audio</mediatype>
    <trackindex>1</trackindex>
</sourcetrack>
    <labels>
        <label2>Iris</label2>
    </labels>
</clipitem>
<clipitem id="f2bd5599-6257-4673-adab-2ef22b8c74ca" premiereChannelType="stereo">
    <masterclipid>masterclip-1</masterclipid>
    <name>S01E45.Jiggles.mkv</name>
    <enabled>TRUE</enabled>
    <duration>17218</duration>
    <rate>
        <timebase>23.976</timebase>
        <ntsc>FALSE</ntsc>
    </rate>
    <start>580</start>
    <end>591</end>
    <in>954</in>
    <out>965</out>
    <file id="file-5"/>
    <sourcetrack>
    <mediatype>audio</mediatype>
    <trackindex>1</trackindex>
</sourcetrack>
    <labels>
        <label2>Iris</label2>
    </labels>
</clipitem>
<clipitem id="abc6e039-1d0d-445f-aba7-2deb7d76e6a5" premiereChannelType="stereo">
    <masterclipid>masterclip-1</masterclipid>
    <name>S01E45.Jiggles.mkv</name>
    <enabled>TRUE</enabled>
    <duration>17218</duration>
    <rate>
        <timebase>23.976</timebase>
        <ntsc>FALSE</ntsc>
    </rate>
    <start>591</start>
    <end>602</end>
    <in>965</in>
    <out>976</out>
    <file id="file-5"/>
    <sourcetrack>
    <mediatype>audio</mediatype>
    <trackindex>1</trackindex>
</sourcetrack>
    <labels>
        <label2>Iris</label2>
    </labels>
</clipitem>
<clipitem id="202386fb-f096-4ad0-8a65-96f33c8f54b3" premiereChannelType="stereo">
    <masterclipid>masterclip-1</masterclipid>
    <name>S01E45.Jiggles.mkv</name>
    <enabled>TRUE</enabled>
    <duration>17218</duration>
    <rate>
        <timebase>23.976</timebase>
        <ntsc>FALSE</ntsc>
    </rate>
    <start>602</start>
    <end>613</end>
    <in>976</in>
    <out>987</out>
    <file id="file-5"/>
    <sourcetrack>
    <mediatype>audio</mediatype>
    <trackindex>1</trackindex>
</sourcetrack>
    <labels>
        <label2>Iris</label2>
    </labels>
</clipitem>
<clipitem id="a9423e5c-0bf7-4792-a237-fc432b5b15ea" premiereChannelType="stereo">
    <masterclipid>masterclip-1</masterclipid>
    <name>S01E45.Jiggles.mkv</name>
    <enabled>TRUE</enabled>
    <duration>17218</duration>
    <rate>
        <timebase>23.976</timebase>
        <ntsc>FALSE</ntsc>
    </rate>
    <start>613</start>
    <end>624</end>
    <in>987</in>
    <out>998</out>
    <file id="file-5"/>
    <sourcetrack>
    <mediatype>audio</mediatype>
    <trackindex>1</trackindex>
</sourcetrack>
    <labels>
        <label2>Iris</label2>
    </labels>
</clipitem>
<clipitem id="c31916f2-9653-413f-b412-8ee66d27cfec" premiereChannelType="stereo">
    <masterclipid>masterclip-1</masterclipid>
    <name>S01E45.Jiggles.mkv</name>
    <enabled>TRUE</enabled>
    <duration>17218</duration>
    <rate>
        <timebase>23.976</timebase>
        <ntsc>FALSE</ntsc>
    </rate>
    <start>624</start>
    <end>636</end>
    <in>998</in>
    <out>1010</out>
    <file id="file-5"/>
    <sourcetrack>
    <mediatype>audio</mediatype>
    <trackindex>1</trackindex>
</sourcetrack>
    <labels>
        <label2>Iris</label2>
    </labels>
</clipitem>
<clipitem id="829677ad-db18-4be8-b8b0-7138c1187a84" premiereChannelType="stereo">
    <masterclipid>masterclip-1</masterclipid>
    <name>S01E45.Jiggles.mkv</name>
    <enabled>TRUE</enabled>
    <duration>17218</duration>
    <rate>
        <timebase>23.976</timebase>
        <ntsc>FALSE</ntsc>
    </rate>
    <start>636</start>
    <end>647</end>
    <in>1010</in>
    <out>1021</out>
    <file id="file-5"/>
    <sourcetrack>
    <mediatype>audio</mediatype>
    <trackindex>1</trackindex>
</sourcetrack>
    <labels>
        <label2>Iris</label2>
    </labels>
</clipitem>
<clipitem id="b4cc24c1-e27c-4630-b5f4-55606f4a614b" premiereChannelType="stereo">
    <masterclipid>masterclip-1</masterclipid>
    <name>S01E45.Jiggles.mkv</name>
    <enabled>TRUE</enabled>
    <duration>17218</duration>
    <rate>
        <timebase>23.976</timebase>
        <ntsc>FALSE</ntsc>
    </rate>
    <start>647</start>
    <end>663</end>
    <in>1021</in>
    <out>1037</out>
    <file id="file-5"/>
    <sourcetrack>
    <mediatype>audio</mediatype>
    <trackindex>1</trackindex>
</sourcetrack>
    <labels>
        <label2>Iris</label2>
    </labels>
</clipitem>
<clipitem id="13b7567d-ff5c-4920-a419-7b96f7fecbe2" premiereChannelType="stereo">
    <masterclipid>masterclip-1</masterclipid>
    <name>S01E45.Jiggles.mkv</name>
    <enabled>TRUE</enabled>
    <duration>17218</duration>
    <rate>
        <timebase>23.976</timebase>
        <ntsc>FALSE</ntsc>
    </rate>
    <start>663</start>
    <end>679</end>
    <in>1038</in>
    <out>1054</out>
    <file id="file-5"/>
    <sourcetrack>
    <mediatype>audio</mediatype>
    <trackindex>1</trackindex>
</sourcetrack>
    <labels>
        <label2>Iris</label2>
    </labels>
</clipitem>
<clipitem id="0bf0abcb-bbf4-4c54-bb71-0339039b78a6" premiereChannelType="stereo">
    <masterclipid>masterclip-1</masterclipid>
    <name>S01E45.Jiggles.mkv</name>
    <enabled>TRUE</enabled>
    <duration>17218</duration>
    <rate>
        <timebase>23.976</timebase>
        <ntsc>FALSE</ntsc>
    </rate>
    <start>679</start>
    <end>690</end>
    <in>1053</in>
    <out>1064</out>
    <file id="file-5"/>
    <sourcetrack>
    <mediatype>audio</mediatype>
    <trackindex>1</trackindex>
</sourcetrack>
    <labels>
        <label2>Iris</label2>
    </labels>
</clipitem>
<clipitem id="1df3772a-9b62-42e1-8366-41f5ae86eb33" premiereChannelType="stereo">
    <masterclipid>masterclip-1</masterclipid>
    <name>S01E45.Jiggles.mkv</name>
    <enabled>TRUE</enabled>
    <duration>17218</duration>
    <rate>
        <timebase>23.976</timebase>
        <ntsc>FALSE</ntsc>
    </rate>
    <start>690</start>
    <end>701</end>
    <in>1064</in>
    <out>1075</out>
    <file id="file-5"/>
    <sourcetrack>
    <mediatype>audio</mediatype>
    <trackindex>1</trackindex>
</sourcetrack>
    <labels>
        <label2>Iris</label2>
    </labels>
</clipitem>
<clipitem id="d1450c96-fdc1-44e5-84b7-df22ec0680ea" premiereChannelType="stereo">
    <masterclipid>masterclip-1</masterclipid>
    <name>S01E45.Jiggles.mkv</name>
    <enabled>TRUE</enabled>
    <duration>17218</duration>
    <rate>
        <timebase>23.976</timebase>
        <ntsc>FALSE</ntsc>
    </rate>
    <start>701</start>
    <end>714</end>
    <in>1075</in>
    <out>1088</out>
    <file id="file-5"/>
    <sourcetrack>
    <mediatype>audio</mediatype>
    <trackindex>1</trackindex>
</sourcetrack>
    <labels>
        <label2>Iris</label2>
    </labels>
</clipitem>
<clipitem id="d6709c53-c9e2-4bb1-9575-77645d40733d" premiereChannelType="stereo">
    <masterclipid>masterclip-1</masterclipid>
    <name>S01E45.Jiggles.mkv</name>
    <enabled>TRUE</enabled>
    <duration>17218</duration>
    <rate>
        <timebase>23.976</timebase>
        <ntsc>FALSE</ntsc>
    </rate>
    <start>714</start>
    <end>726</end>
    <in>1088</in>
    <out>1100</out>
    <file id="file-5"/>
    <sourcetrack>
    <mediatype>audio</mediatype>
    <trackindex>1</trackindex>
</sourcetrack>
    <labels>
        <label2>Iris</label2>
    </labels>
</clipitem>
<clipitem id="c84a8612-f1ca-445f-ade7-f1bf8a44d07a" premiereChannelType="stereo">
    <masterclipid>masterclip-1</masterclipid>
    <name>S01E45.Jiggles.mkv</name>
    <enabled>TRUE</enabled>
    <duration>17218</duration>
    <rate>
        <timebase>23.976</timebase>
        <ntsc>FALSE</ntsc>
    </rate>
    <start>726</start>
    <end>745</end>
    <in>1100</in>
    <out>1119</out>
    <file id="file-5"/>
    <sourcetrack>
    <mediatype>audio</mediatype>
    <trackindex>1</trackindex>
</sourcetrack>
    <labels>
        <label2>Iris</label2>
    </labels>
</clipitem>
<clipitem id="1a7e2e2a-c38d-414e-83d7-595e67c2f0c3" premiereChannelType="stereo">
    <masterclipid>masterclip-1</masterclipid>
    <name>S01E45.Jiggles.mkv</name>
    <enabled>TRUE</enabled>
    <duration>17218</duration>
    <rate>
        <timebase>23.976</timebase>
        <ntsc>FALSE</ntsc>
    </rate>
    <start>745</start>
    <end>756</end>
    <in>1132</in>
    <out>1143</out>
    <file id="file-5"/>
    <sourcetrack>
    <mediatype>audio</mediatype>
    <trackindex>1</trackindex>
</sourcetrack>
    <labels>
        <label2>Iris</label2>
    </labels>
</clipitem>
<clipitem id="c5a0e273-3fb0-49ab-861c-1b99d12cc2a3" premiereChannelType="stereo">
    <masterclipid>masterclip-1</masterclipid>
    <name>S01E45.Jiggles.mkv</name>
    <enabled>TRUE</enabled>
    <duration>17218</duration>
    <rate>
        <timebase>23.976</timebase>
        <ntsc>FALSE</ntsc>
    </rate>
    <start>756</start>
    <end>772</end>
    <in>1130</in>
    <out>1146</out>
    <file id="file-5"/>
    <sourcetrack>
    <mediatype>audio</mediatype>
    <trackindex>1</trackindex>
</sourcetrack>
    <labels>
        <label2>Iris</label2>
    </labels>
</clipitem>
<clipitem id="7db2c1c7-c025-4260-97fc-e24adfc7a6c3" premiereChannelType="stereo">
    <masterclipid>masterclip-1</masterclipid>
    <name>S01E45.Jiggles.mkv</name>
    <enabled>TRUE</enabled>
    <duration>17218</duration>
    <rate>
        <timebase>23.976</timebase>
        <ntsc>FALSE</ntsc>
    </rate>
    <start>772</start>
    <end>791</end>
    <in>1146</in>
    <out>1165</out>
    <file id="file-5"/>
    <sourcetrack>
    <mediatype>audio</mediatype>
    <trackindex>1</trackindex>
</sourcetrack>
    <labels>
        <label2>Iris</label2>
    </labels>
</clipitem>
<clipitem id="1db93a19-9cee-443a-82cd-f572e0b6db80" premiereChannelType="stereo">
    <masterclipid>masterclip-1</masterclipid>
    <name>S01E45.Jiggles.mkv</name>
    <enabled>TRUE</enabled>
    <duration>17218</duration>
    <rate>
        <timebase>23.976</timebase>
        <ntsc>FALSE</ntsc>
    </rate>
    <start>791</start>
    <end>831</end>
    <in>1165</in>
    <out>1205</out>
    <file id="file-5"/>
    <sourcetrack>
    <mediatype>audio</mediatype>
    <trackindex>1</trackindex>
</sourcetrack>
    <labels>
        <label2>Iris</label2>
    </labels>
</clipitem>
<clipitem id="3c61784e-87ab-4b39-9635-6fb70e6a498f" premiereChannelType="stereo">
    <masterclipid>masterclip-1</masterclipid>
    <name>S01E45.Jiggles.mkv</name>
    <enabled>TRUE</enabled>
    <duration>17218</duration>
    <rate>
        <timebase>23.976</timebase>
        <ntsc>FALSE</ntsc>
    </rate>
    <start>831</start>
    <end>842</end>
    <in>1207</in>
    <out>1218</out>
    <file id="file-5"/>
    <sourcetrack>
    <mediatype>audio</mediatype>
    <trackindex>1</trackindex>
</sourcetrack>
    <labels>
        <label2>Iris</label2>
    </labels>
</clipitem>
<clipitem id="59af14fe-7351-4483-a8fd-367a15f7bfe3" premiereChannelType="stereo">
    <masterclipid>masterclip-1</masterclipid>
    <name>S01E45.Jiggles.mkv</name>
    <enabled>TRUE</enabled>
    <duration>17218</duration>
    <rate>
        <timebase>23.976</timebase>
        <ntsc>FALSE</ntsc>
    </rate>
    <start>842</start>
    <end>875</end>
    <in>1216</in>
    <out>1249</out>
    <file id="file-5"/>
    <sourcetrack>
    <mediatype>audio</mediatype>
    <trackindex>1</trackindex>
</sourcetrack>
    <labels>
        <label2>Iris</label2>
    </labels>
</clipitem>
<clipitem id="ebf14b08-d242-45a8-9084-b336b7f40aae" premiereChannelType="stereo">
    <masterclipid>masterclip-1</masterclipid>
    <name>S01E45.Jiggles.mkv</name>
    <enabled>TRUE</enabled>
    <duration>17218</duration>
    <rate>
        <timebase>23.976</timebase>
        <ntsc>FALSE</ntsc>
    </rate>
    <start>875</start>
    <end>893</end>
    <in>1249</in>
    <out>1267</out>
    <file id="file-5"/>
    <sourcetrack>
    <mediatype>audio</mediatype>
    <trackindex>1</trackindex>
</sourcetrack>
    <labels>
        <label2>Iris</label2>
    </labels>
</clipitem>
<clipitem id="eeeb2b83-507e-4e8f-8fa8-6b18dedf0175" premiereChannelType="stereo">
    <masterclipid>masterclip-1</masterclipid>
    <name>S01E45.Jiggles.mkv</name>
    <enabled>TRUE</enabled>
    <duration>17218</duration>
    <rate>
        <timebase>23.976</timebase>
        <ntsc>FALSE</ntsc>
    </rate>
    <start>893</start>
    <end>906</end>
    <in>1267</in>
    <out>1280</out>
    <file id="file-5"/>
    <sourcetrack>
    <mediatype>audio</mediatype>
    <trackindex>1</trackindex>
</sourcetrack>
    <labels>
        <label2>Iris</label2>
    </labels>
</clipitem>
<clipitem id="8817ccc6-4125-4882-afde-1ba75106a15b" premiereChannelType="stereo">
    <masterclipid>masterclip-1</masterclipid>
    <name>S01E45.Jiggles.mkv</name>
    <enabled>TRUE</enabled>
    <duration>17218</duration>
    <rate>
        <timebase>23.976</timebase>
        <ntsc>FALSE</ntsc>
    </rate>
    <start>945</start>
    <end>998</end>
    <in>1356</in>
    <out>1409</out>
    <file id="file-5"/>
    <sourcetrack>
    <mediatype>audio</mediatype>
    <trackindex>1</trackindex>
</sourcetrack>
    <labels>
        <label2>Iris</label2>
    </labels>
</clipitem>
<clipitem id="251582f8-fa1e-4ad3-a94c-d6cb3ef47980" premiereChannelType="stereo">
    <masterclipid>masterclip-1</masterclipid>
    <name>S01E45.Jiggles.mkv</name>
    <enabled>TRUE</enabled>
    <duration>17218</duration>
    <rate>
        <timebase>23.976</timebase>
        <ntsc>FALSE</ntsc>
    </rate>
    <start>998</start>
    <end>1058</end>
    <in>1414</in>
    <out>1474</out>
    <file id="file-5"/>
    <sourcetrack>
    <mediatype>audio</mediatype>
    <trackindex>1</trackindex>
</sourcetrack>
    <labels>
        <label2>Iris</label2>
    </labels>
</clipitem>
<clipitem id="3c93f7d7-bac0-4710-a265-6799652fda15" premiereChannelType="stereo">
    <masterclipid>masterclip-1</masterclipid>
    <name>S01E45.Jiggles.mkv</name>
    <enabled>TRUE</enabled>
    <duration>17218</duration>
    <rate>
        <timebase>23.976</timebase>
        <ntsc>FALSE</ntsc>
    </rate>
    <start>1058</start>
    <end>1118</end>
    <in>1474</in>
    <out>1534</out>
    <file id="file-5"/>
    <sourcetrack>
    <mediatype>audio</mediatype>
    <trackindex>1</trackindex>
</sourcetrack>
    <labels>
        <label2>Iris</label2>
    </labels>
</clipitem>
<clipitem id="6ce4b837-996d-4430-867e-b0c9b7dd13e7" premiereChannelType="stereo">
    <masterclipid>masterclip-1</masterclipid>
    <name>S01E45.Jiggles.mkv</name>
    <enabled>TRUE</enabled>
    <duration>17218</duration>
    <rate>
        <timebase>23.976</timebase>
        <ntsc>FALSE</ntsc>
    </rate>
    <start>1118</start>
    <end>1172</end>
    <in>1538</in>
    <out>1592</out>
    <file id="file-5"/>
    <sourcetrack>
    <mediatype>audio</mediatype>
    <trackindex>1</trackindex>
</sourcetrack>
    <labels>
        <label2>Iris</label2>
    </labels>
</clipitem>
<clipitem id="4e9a7caa-9c29-41ec-b407-c5617c1f3798" premiereChannelType="stereo">
    <masterclipid>masterclip-1</masterclipid>
    <name>S01E45.Jiggles.mkv</name>
    <enabled>TRUE</enabled>
    <duration>17218</duration>
    <rate>
        <timebase>23.976</timebase>
        <ntsc>FALSE</ntsc>
    </rate>
    <start>1172</start>
    <end>1184</end>
    <in>1590</in>
    <out>1602</out>
    <file id="file-5"/>
    <sourcetrack>
    <mediatype>audio</mediatype>
    <trackindex>1</trackindex>
</sourcetrack>
    <labels>
        <label2>Iris</label2>
    </labels>
</clipitem>
<clipitem id="ce351a98-4f14-4aea-b674-696b8f941d56" premiereChannelType="stereo">
    <masterclipid>masterclip-1</masterclipid>
    <name>S01E45.Jiggles.mkv</name>
    <enabled>TRUE</enabled>
    <duration>17218</duration>
    <rate>
        <timebase>23.976</timebase>
        <ntsc>FALSE</ntsc>
    </rate>
    <start>1184</start>
    <end>1195</end>
    <in>0</in>
    <out>11</out>
    <file id="file-5"/>
    <sourcetrack>
    <mediatype>audio</mediatype>
    <trackindex>1</trackindex>
</sourcetrack>
    <labels>
        <label2>Iris</label2>
    </labels>
</clipitem>
<clipitem id="8af17740-faad-4bbe-ae34-80d69d198cc6" premiereChannelType="stereo">
    <masterclipid>masterclip-1</masterclipid>
    <name>S01E45.Jiggles.mkv</name>
    <enabled>TRUE</enabled>
    <duration>17218</duration>
    <rate>
        <timebase>23.976</timebase>
        <ntsc>FALSE</ntsc>
    </rate>
    <start>1195</start>
    <end>1215</end>
    <in>1609</in>
    <out>1629</out>
    <file id="file-5"/>
    <sourcetrack>
    <mediatype>audio</mediatype>
    <trackindex>1</trackindex>
</sourcetrack>
    <labels>
        <label2>Iris</label2>
    </labels>
</clipitem>
<clipitem id="b60a225c-f29b-4bce-941b-c1e467546976" premiereChannelType="stereo">
    <masterclipid>masterclip-1</masterclipid>
    <name>S01E45.Jiggles.mkv</name>
    <enabled>TRUE</enabled>
    <duration>17218</duration>
    <rate>
        <timebase>23.976</timebase>
        <ntsc>FALSE</ntsc>
    </rate>
    <start>1215</start>
    <end>1226</end>
    <in>1633</in>
    <out>1644</out>
    <file id="file-5"/>
    <sourcetrack>
    <mediatype>audio</mediatype>
    <trackindex>1</trackindex>
</sourcetrack>
    <labels>
        <label2>Iris</label2>
    </labels>
</clipitem>
<clipitem id="3d4406f6-8565-4a02-a13f-39837e22a969" premiereChannelType="stereo">
    <masterclipid>masterclip-1</masterclipid>
    <name>S01E45.Jiggles.mkv</name>
    <enabled>TRUE</enabled>
    <duration>17218</duration>
    <rate>
        <timebase>23.976</timebase>
        <ntsc>FALSE</ntsc>
    </rate>
    <start>1226</start>
    <end>1237</end>
    <in>1644</in>
    <out>1655</out>
    <file id="file-5"/>
    <sourcetrack>
    <mediatype>audio</mediatype>
    <trackindex>1</trackindex>
</sourcetrack>
    <labels>
        <label2>Iris</label2>
    </labels>
</clipitem>
<clipitem id="b67fd92e-c63a-46b9-bf3e-c7f937251ac2" premiereChannelType="stereo">
    <masterclipid>masterclip-1</masterclipid>
    <name>S01E45.Jiggles.mkv</name>
    <enabled>TRUE</enabled>
    <duration>17218</duration>
    <rate>
        <timebase>23.976</timebase>
        <ntsc>FALSE</ntsc>
    </rate>
    <start>1237</start>
    <end>1248</end>
    <in>1655</in>
    <out>1666</out>
    <file id="file-5"/>
    <sourcetrack>
    <mediatype>audio</mediatype>
    <trackindex>1</trackindex>
</sourcetrack>
    <labels>
        <label2>Iris</label2>
    </labels>
</clipitem>
<clipitem id="17ec93d5-b13c-408a-8157-03c7a66e2809" premiereChannelType="stereo">
    <masterclipid>masterclip-1</masterclipid>
    <name>S01E45.Jiggles.mkv</name>
    <enabled>TRUE</enabled>
    <duration>17218</duration>
    <rate>
        <timebase>23.976</timebase>
        <ntsc>FALSE</ntsc>
    </rate>
    <start>1248</start>
    <end>1259</end>
    <in>1666</in>
    <out>1677</out>
    <file id="file-5"/>
    <sourcetrack>
    <mediatype>audio</mediatype>
    <trackindex>1</trackindex>
</sourcetrack>
    <labels>
        <label2>Iris</label2>
    </labels>
</clipitem>
<clipitem id="aa1bde03-bf12-41cd-a8d4-4348f6d0f0e2" premiereChannelType="stereo">
    <masterclipid>masterclip-1</masterclipid>
    <name>S01E45.Jiggles.mkv</name>
    <enabled>TRUE</enabled>
    <duration>17218</duration>
    <rate>
        <timebase>23.976</timebase>
        <ntsc>FALSE</ntsc>
    </rate>
    <start>1259</start>
    <end>1294</end>
    <in>1677</in>
    <out>1712</out>
    <file id="file-5"/>
    <sourcetrack>
    <mediatype>audio</mediatype>
    <trackindex>1</trackindex>
</sourcetrack>
    <labels>
        <label2>Iris</label2>
    </labels>
</clipitem>
<clipitem id="40e62f9f-f0f2-477e-a267-a1dea331a846" premiereChannelType="stereo">
    <masterclipid>masterclip-1</masterclipid>
    <name>S01E45.Jiggles.mkv</name>
    <enabled>TRUE</enabled>
    <duration>17218</duration>
    <rate>
        <timebase>23.976</timebase>
        <ntsc>FALSE</ntsc>
    </rate>
    <start>1294</start>
    <end>1320</end>
    <in>1712</in>
    <out>1738</out>
    <file id="file-5"/>
    <sourcetrack>
    <mediatype>audio</mediatype>
    <trackindex>1</trackindex>
</sourcetrack>
    <labels>
        <label2>Iris</label2>
    </labels>
</clipitem>
<clipitem id="6836e6bb-9b62-4a4e-9485-f88dff8d4193" premiereChannelType="stereo">
    <masterclipid>masterclip-1</masterclipid>
    <name>S01E45.Jiggles.mkv</name>
    <enabled>TRUE</enabled>
    <duration>17218</duration>
    <rate>
        <timebase>23.976</timebase>
        <ntsc>FALSE</ntsc>
    </rate>
    <start>1320</start>
    <end>1331</end>
    <in>1738</in>
    <out>1749</out>
    <file id="file-5"/>
    <sourcetrack>
    <mediatype>audio</mediatype>
    <trackindex>1</trackindex>
</sourcetrack>
    <labels>
        <label2>Iris</label2>
    </labels>
</clipitem>
<clipitem id="0d025e56-ecc6-4d48-916d-916f4ad0968f" premiereChannelType="stereo">
    <masterclipid>masterclip-1</masterclipid>
    <name>S01E45.Jiggles.mkv</name>
    <enabled>TRUE</enabled>
    <duration>17218</duration>
    <rate>
        <timebase>23.976</timebase>
        <ntsc>FALSE</ntsc>
    </rate>
    <start>1331</start>
    <end>1371</end>
    <in>1749</in>
    <out>1789</out>
    <file id="file-5"/>
    <sourcetrack>
    <mediatype>audio</mediatype>
    <trackindex>1</trackindex>
</sourcetrack>
    <labels>
        <label2>Iris</label2>
    </labels>
</clipitem>
<clipitem id="749d223d-e64c-496e-bb0d-44e72a4eb40f" premiereChannelType="stereo">
    <masterclipid>masterclip-1</masterclipid>
    <name>S01E45.Jiggles.mkv</name>
    <enabled>TRUE</enabled>
    <duration>17218</duration>
    <rate>
        <timebase>23.976</timebase>
        <ntsc>FALSE</ntsc>
    </rate>
    <start>1371</start>
    <end>1385</end>
    <in>1789</in>
    <out>1803</out>
    <file id="file-5"/>
    <sourcetrack>
    <mediatype>audio</mediatype>
    <trackindex>1</trackindex>
</sourcetrack>
    <labels>
        <label2>Iris</label2>
    </labels>
</clipitem>
<clipitem id="4a0a7548-02e9-4476-8eea-f53912a5ff3a" premiereChannelType="stereo">
    <masterclipid>masterclip-1</masterclipid>
    <name>S01E45.Jiggles.mkv</name>
    <enabled>TRUE</enabled>
    <duration>17218</duration>
    <rate>
        <timebase>23.976</timebase>
        <ntsc>FALSE</ntsc>
    </rate>
    <start>1385</start>
    <end>1396</end>
    <in>1803</in>
    <out>1814</out>
    <file id="file-5"/>
    <sourcetrack>
    <mediatype>audio</mediatype>
    <trackindex>1</trackindex>
</sourcetrack>
    <labels>
        <label2>Iris</label2>
    </labels>
</clipitem>
<clipitem id="a4bd56bf-0c50-4bdf-b54d-3230c64afa89" premiereChannelType="stereo">
    <masterclipid>masterclip-1</masterclipid>
    <name>S01E45.Jiggles.mkv</name>
    <enabled>TRUE</enabled>
    <duration>17218</duration>
    <rate>
        <timebase>23.976</timebase>
        <ntsc>FALSE</ntsc>
    </rate>
    <start>1396</start>
    <end>1407</end>
    <in>1814</in>
    <out>1825</out>
    <file id="file-5"/>
    <sourcetrack>
    <mediatype>audio</mediatype>
    <trackindex>1</trackindex>
</sourcetrack>
    <labels>
        <label2>Iris</label2>
    </labels>
</clipitem>
<clipitem id="e56c7263-840d-4fa0-88bf-60e06eeecd94" premiereChannelType="stereo">
    <masterclipid>masterclip-1</masterclipid>
    <name>S01E45.Jiggles.mkv</name>
    <enabled>TRUE</enabled>
    <duration>17218</duration>
    <rate>
        <timebase>23.976</timebase>
        <ntsc>FALSE</ntsc>
    </rate>
    <start>1407</start>
    <end>1433</end>
    <in>1825</in>
    <out>1851</out>
    <file id="file-5"/>
    <sourcetrack>
    <mediatype>audio</mediatype>
    <trackindex>1</trackindex>
</sourcetrack>
    <labels>
        <label2>Iris</label2>
    </labels>
</clipitem>
<clipitem id="80cdb404-f710-4f0e-9e74-cf946dd675c0" premiereChannelType="stereo">
    <masterclipid>masterclip-1</masterclipid>
    <name>S01E45.Jiggles.mkv</name>
    <enabled>TRUE</enabled>
    <duration>17218</duration>
    <rate>
        <timebase>23.976</timebase>
        <ntsc>FALSE</ntsc>
    </rate>
    <start>1433</start>
    <end>2410</end>
    <in>1850</in>
    <out>2827</out>
    <file id="file-5"/>
    <sourcetrack>
    <mediatype>audio</mediatype>
    <trackindex>1</trackindex>
</sourcetrack>
    <labels>
        <label2>Iris</label2>
    </labels>
</clipitem>
<clipitem id="78cbfae3-824a-4afb-b855-6c793332585d" premiereChannelType="stereo">
    <masterclipid>masterclip-1</masterclipid>
    <name>S01E45.Jiggles.mkv</name>
    <enabled>TRUE</enabled>
    <duration>17218</duration>
    <rate>
        <timebase>23.976</timebase>
        <ntsc>FALSE</ntsc>
    </rate>
    <start>2410</start>
    <end>2421</end>
    <in>2827</in>
    <out>2838</out>
    <file id="file-5"/>
    <sourcetrack>
    <mediatype>audio</mediatype>
    <trackindex>1</trackindex>
</sourcetrack>
    <labels>
        <label2>Iris</label2>
    </labels>
</clipitem>
<clipitem id="419c1b6d-87d4-4520-871a-884de5eb9a4b" premiereChannelType="stereo">
    <masterclipid>masterclip-1</masterclipid>
    <name>S01E45.Jiggles.mkv</name>
    <enabled>TRUE</enabled>
    <duration>17218</duration>
    <rate>
        <timebase>23.976</timebase>
        <ntsc>FALSE</ntsc>
    </rate>
    <start>2421</start>
    <end>2432</end>
    <in>2838</in>
    <out>2849</out>
    <file id="file-5"/>
    <sourcetrack>
    <mediatype>audio</mediatype>
    <trackindex>1</trackindex>
</sourcetrack>
    <labels>
        <label2>Iris</label2>
    </labels>
</clipitem>
<clipitem id="95e79c28-b87d-478f-b147-9c3092507684" premiereChannelType="stereo">
    <masterclipid>masterclip-1</masterclipid>
    <name>S01E45.Jiggles.mkv</name>
    <enabled>TRUE</enabled>
    <duration>17218</duration>
    <rate>
        <timebase>23.976</timebase>
        <ntsc>FALSE</ntsc>
    </rate>
    <start>2432</start>
    <end>2443</end>
    <in>2849</in>
    <out>2860</out>
    <file id="file-5"/>
    <sourcetrack>
    <mediatype>audio</mediatype>
    <trackindex>1</trackindex>
</sourcetrack>
    <labels>
        <label2>Iris</label2>
    </labels>
</clipitem>
<clipitem id="8be886a0-ea2c-4f91-bd92-202ee648e049" premiereChannelType="stereo">
    <masterclipid>masterclip-1</masterclipid>
    <name>S01E45.Jiggles.mkv</name>
    <enabled>TRUE</enabled>
    <duration>17218</duration>
    <rate>
        <timebase>23.976</timebase>
        <ntsc>FALSE</ntsc>
    </rate>
    <start>2443</start>
    <end>2454</end>
    <in>2860</in>
    <out>2871</out>
    <file id="file-5"/>
    <sourcetrack>
    <mediatype>audio</mediatype>
    <trackindex>1</trackindex>
</sourcetrack>
    <labels>
        <label2>Iris</label2>
    </labels>
</clipitem>
<clipitem id="ed6d08d3-d1e5-4866-b79a-3a37d1305767" premiereChannelType="stereo">
    <masterclipid>masterclip-1</masterclipid>
    <name>S01E45.Jiggles.mkv</name>
    <enabled>TRUE</enabled>
    <duration>17218</duration>
    <rate>
        <timebase>23.976</timebase>
        <ntsc>FALSE</ntsc>
    </rate>
    <start>2454</start>
    <end>2472</end>
    <in>2871</in>
    <out>2889</out>
    <file id="file-5"/>
    <sourcetrack>
    <mediatype>audio</mediatype>
    <trackindex>1</trackindex>
</sourcetrack>
    <labels>
        <label2>Iris</label2>
    </labels>
</clipitem>
<clipitem id="59ec5079-5e6b-4f85-97d7-f8471961111c" premiereChannelType="stereo">
    <masterclipid>masterclip-1</masterclipid>
    <name>S01E45.Jiggles.mkv</name>
    <enabled>TRUE</enabled>
    <duration>17218</duration>
    <rate>
        <timebase>23.976</timebase>
        <ntsc>FALSE</ntsc>
    </rate>
    <start>2472</start>
    <end>2570</end>
    <in>2888</in>
    <out>2986</out>
    <file id="file-5"/>
    <sourcetrack>
    <mediatype>audio</mediatype>
    <trackindex>1</trackindex>
</sourcetrack>
    <labels>
        <label2>Iris</label2>
    </labels>
</clipitem>
<clipitem id="43d71e15-3cd2-4826-8458-aab7428dac3d" premiereChannelType="stereo">
    <masterclipid>masterclip-1</masterclipid>
    <name>S01E45.Jiggles.mkv</name>
    <enabled>TRUE</enabled>
    <duration>17218</duration>
    <rate>
        <timebase>23.976</timebase>
        <ntsc>FALSE</ntsc>
    </rate>
    <start>2573</start>
    <end>2584</end>
    <in>2990</in>
    <out>3001</out>
    <file id="file-5"/>
    <sourcetrack>
    <mediatype>audio</mediatype>
    <trackindex>1</trackindex>
</sourcetrack>
    <labels>
        <label2>Iris</label2>
    </labels>
</clipitem>
<clipitem id="60a85f61-02aa-45a5-aa97-df4977b05c33" premiereChannelType="stereo">
    <masterclipid>masterclip-1</masterclipid>
    <name>S01E45.Jiggles.mkv</name>
    <enabled>TRUE</enabled>
    <duration>17218</duration>
    <rate>
        <timebase>23.976</timebase>
        <ntsc>FALSE</ntsc>
    </rate>
    <start>2603</start>
    <end>2618</end>
    <in>3020</in>
    <out>3035</out>
    <file id="file-5"/>
    <sourcetrack>
    <mediatype>audio</mediatype>
    <trackindex>1</trackindex>
</sourcetrack>
    <labels>
        <label2>Iris</label2>
    </labels>
</clipitem>
<clipitem id="fadf12fa-596f-4307-94ee-d177563dfac5" premiereChannelType="stereo">
    <masterclipid>masterclip-1</masterclipid>
    <name>S01E45.Jiggles.mkv</name>
    <enabled>TRUE</enabled>
    <duration>17218</duration>
    <rate>
        <timebase>23.976</timebase>
        <ntsc>FALSE</ntsc>
    </rate>
    <start>2618</start>
    <end>2634</end>
    <in>3035</in>
    <out>3051</out>
    <file id="file-5"/>
    <sourcetrack>
    <mediatype>audio</mediatype>
    <trackindex>1</trackindex>
</sourcetrack>
    <labels>
        <label2>Iris</label2>
    </labels>
</clipitem>
<clipitem id="da245e3b-5d93-467e-bf4e-4617901832f2" premiereChannelType="stereo">
    <masterclipid>masterclip-1</masterclipid>
    <name>S01E45.Jiggles.mkv</name>
    <enabled>TRUE</enabled>
    <duration>17218</duration>
    <rate>
        <timebase>23.976</timebase>
        <ntsc>FALSE</ntsc>
    </rate>
    <start>2634</start>
    <end>2665</end>
    <in>3051</in>
    <out>3082</out>
    <file id="file-5"/>
    <sourcetrack>
    <mediatype>audio</mediatype>
    <trackindex>1</trackindex>
</sourcetrack>
    <labels>
        <label2>Iris</label2>
    </labels>
</clipitem>
<clipitem id="48bae365-4db3-4b66-a8cc-98d07bc9d927" premiereChannelType="stereo">
    <masterclipid>masterclip-1</masterclipid>
    <name>S01E45.Jiggles.mkv</name>
    <enabled>TRUE</enabled>
    <duration>17218</duration>
    <rate>
        <timebase>23.976</timebase>
        <ntsc>FALSE</ntsc>
    </rate>
    <start>2665</start>
    <end>2676</end>
    <in>3082</in>
    <out>3093</out>
    <file id="file-5"/>
    <sourcetrack>
    <mediatype>audio</mediatype>
    <trackindex>1</trackindex>
</sourcetrack>
    <labels>
        <label2>Iris</label2>
    </labels>
</clipitem>
<clipitem id="839b438b-bb12-44ec-b362-f4114e9efd64" premiereChannelType="stereo">
    <masterclipid>masterclip-1</masterclipid>
    <name>S01E45.Jiggles.mkv</name>
    <enabled>TRUE</enabled>
    <duration>17218</duration>
    <rate>
        <timebase>23.976</timebase>
        <ntsc>FALSE</ntsc>
    </rate>
    <start>2676</start>
    <end>2687</end>
    <in>3093</in>
    <out>3104</out>
    <file id="file-5"/>
    <sourcetrack>
    <mediatype>audio</mediatype>
    <trackindex>1</trackindex>
</sourcetrack>
    <labels>
        <label2>Iris</label2>
    </labels>
</clipitem>
<clipitem id="3a506afe-4427-46b8-9c5e-13c24218d632" premiereChannelType="stereo">
    <masterclipid>masterclip-1</masterclipid>
    <name>S01E45.Jiggles.mkv</name>
    <enabled>TRUE</enabled>
    <duration>17218</duration>
    <rate>
        <timebase>23.976</timebase>
        <ntsc>FALSE</ntsc>
    </rate>
    <start>2687</start>
    <end>2726</end>
    <in>3104</in>
    <out>3143</out>
    <file id="file-5"/>
    <sourcetrack>
    <mediatype>audio</mediatype>
    <trackindex>1</trackindex>
</sourcetrack>
    <labels>
        <label2>Iris</label2>
    </labels>
</clipitem>
<clipitem id="64b9aa8f-0733-4741-9cda-197a85d68609" premiereChannelType="stereo">
    <masterclipid>masterclip-1</masterclipid>
    <name>S01E45.Jiggles.mkv</name>
    <enabled>TRUE</enabled>
    <duration>17218</duration>
    <rate>
        <timebase>23.976</timebase>
        <ntsc>FALSE</ntsc>
    </rate>
    <start>2726</start>
    <end>2822</end>
    <in>3142</in>
    <out>3238</out>
    <file id="file-5"/>
    <sourcetrack>
    <mediatype>audio</mediatype>
    <trackindex>1</trackindex>
</sourcetrack>
    <labels>
        <label2>Iris</label2>
    </labels>
</clipitem>
<clipitem id="781ed535-1325-489a-922d-a3ae93702206" premiereChannelType="stereo">
    <masterclipid>masterclip-1</masterclipid>
    <name>S01E45.Jiggles.mkv</name>
    <enabled>TRUE</enabled>
    <duration>17218</duration>
    <rate>
        <timebase>23.976</timebase>
        <ntsc>FALSE</ntsc>
    </rate>
    <start>2822</start>
    <end>2835</end>
    <in>3239</in>
    <out>3252</out>
    <file id="file-5"/>
    <sourcetrack>
    <mediatype>audio</mediatype>
    <trackindex>1</trackindex>
</sourcetrack>
    <labels>
        <label2>Iris</label2>
    </labels>
</clipitem>
<clipitem id="8ad5667f-4ccf-4d8f-9a83-f76611cf6f41" premiereChannelType="stereo">
    <masterclipid>masterclip-1</masterclipid>
    <name>S01E45.Jiggles.mkv</name>
    <enabled>TRUE</enabled>
    <duration>17218</duration>
    <rate>
        <timebase>23.976</timebase>
        <ntsc>FALSE</ntsc>
    </rate>
    <start>2835</start>
    <end>2858</end>
    <in>3253</in>
    <out>3276</out>
    <file id="file-5"/>
    <sourcetrack>
    <mediatype>audio</mediatype>
    <trackindex>1</trackindex>
</sourcetrack>
    <labels>
        <label2>Iris</label2>
    </labels>
</clipitem>
<clipitem id="72c5d9bb-3f52-4f86-a599-6daa4e638ac0" premiereChannelType="stereo">
    <masterclipid>masterclip-1</masterclipid>
    <name>S01E45.Jiggles.mkv</name>
    <enabled>TRUE</enabled>
    <duration>17218</duration>
    <rate>
        <timebase>23.976</timebase>
        <ntsc>FALSE</ntsc>
    </rate>
    <start>2858</start>
    <end>2876</end>
    <in>3276</in>
    <out>3294</out>
    <file id="file-5"/>
    <sourcetrack>
    <mediatype>audio</mediatype>
    <trackindex>1</trackindex>
</sourcetrack>
    <labels>
        <label2>Iris</label2>
    </labels>
</clipitem>
<clipitem id="ebbfa4a6-d9e7-4fda-8b90-fabf3fec657e" premiereChannelType="stereo">
    <masterclipid>masterclip-1</masterclipid>
    <name>S01E45.Jiggles.mkv</name>
    <enabled>TRUE</enabled>
    <duration>17218</duration>
    <rate>
        <timebase>23.976</timebase>
        <ntsc>FALSE</ntsc>
    </rate>
    <start>2876</start>
    <end>2904</end>
    <in>3294</in>
    <out>3322</out>
    <file id="file-5"/>
    <sourcetrack>
    <mediatype>audio</mediatype>
    <trackindex>1</trackindex>
</sourcetrack>
    <labels>
        <label2>Iris</label2>
    </labels>
</clipitem>
<clipitem id="45178a6c-d668-4bce-bdc4-a388321f452b" premiereChannelType="stereo">
    <masterclipid>masterclip-1</masterclipid>
    <name>S01E45.Jiggles.mkv</name>
    <enabled>TRUE</enabled>
    <duration>17218</duration>
    <rate>
        <timebase>23.976</timebase>
        <ntsc>FALSE</ntsc>
    </rate>
    <start>2904</start>
    <end>2926</end>
    <in>3322</in>
    <out>3344</out>
    <file id="file-5"/>
    <sourcetrack>
    <mediatype>audio</mediatype>
    <trackindex>1</trackindex>
</sourcetrack>
    <labels>
        <label2>Iris</label2>
    </labels>
</clipitem>
<clipitem id="95806053-1a62-43ad-a5cc-84fc8f323414" premiereChannelType="stereo">
    <masterclipid>masterclip-1</masterclipid>
    <name>S01E45.Jiggles.mkv</name>
    <enabled>TRUE</enabled>
    <duration>17218</duration>
    <rate>
        <timebase>23.976</timebase>
        <ntsc>FALSE</ntsc>
    </rate>
    <start>2926</start>
    <end>2937</end>
    <in>3348</in>
    <out>3359</out>
    <file id="file-5"/>
    <sourcetrack>
    <mediatype>audio</mediatype>
    <trackindex>1</trackindex>
</sourcetrack>
    <labels>
        <label2>Iris</label2>
    </labels>
</clipitem>
<clipitem id="13865150-71bb-4144-9b87-3d39001f142e" premiereChannelType="stereo">
    <masterclipid>masterclip-1</masterclipid>
    <name>S01E45.Jiggles.mkv</name>
    <enabled>TRUE</enabled>
    <duration>17218</duration>
    <rate>
        <timebase>23.976</timebase>
        <ntsc>FALSE</ntsc>
    </rate>
    <start>2937</start>
    <end>2948</end>
    <in>3355</in>
    <out>3366</out>
    <file id="file-5"/>
    <sourcetrack>
    <mediatype>audio</mediatype>
    <trackindex>1</trackindex>
</sourcetrack>
    <labels>
        <label2>Iris</label2>
    </labels>
</clipitem>
<clipitem id="526f1d59-d93d-46a3-9a40-f8bf50075808" premiereChannelType="stereo">
    <masterclipid>masterclip-1</masterclipid>
    <name>S01E45.Jiggles.mkv</name>
    <enabled>TRUE</enabled>
    <duration>17218</duration>
    <rate>
        <timebase>23.976</timebase>
        <ntsc>FALSE</ntsc>
    </rate>
    <start>2948</start>
    <end>2971</end>
    <in>3366</in>
    <out>3389</out>
    <file id="file-5"/>
    <sourcetrack>
    <mediatype>audio</mediatype>
    <trackindex>1</trackindex>
</sourcetrack>
    <labels>
        <label2>Iris</label2>
    </labels>
</clipitem>
<clipitem id="48b1fef6-7b8d-45f4-a4e6-22c26db658c9" premiereChannelType="stereo">
    <masterclipid>masterclip-1</masterclipid>
    <name>S01E45.Jiggles.mkv</name>
    <enabled>TRUE</enabled>
    <duration>17218</duration>
    <rate>
        <timebase>23.976</timebase>
        <ntsc>FALSE</ntsc>
    </rate>
    <start>2971</start>
    <end>2982</end>
    <in>3389</in>
    <out>3400</out>
    <file id="file-5"/>
    <sourcetrack>
    <mediatype>audio</mediatype>
    <trackindex>1</trackindex>
</sourcetrack>
    <labels>
        <label2>Iris</label2>
    </labels>
</clipitem>
<clipitem id="2a3c2e94-66d9-4112-85b5-c99a5f55d62e" premiereChannelType="stereo">
    <masterclipid>masterclip-1</masterclipid>
    <name>S01E45.Jiggles.mkv</name>
    <enabled>TRUE</enabled>
    <duration>17218</duration>
    <rate>
        <timebase>23.976</timebase>
        <ntsc>FALSE</ntsc>
    </rate>
    <start>2982</start>
    <end>2996</end>
    <in>3399</in>
    <out>3413</out>
    <file id="file-5"/>
    <sourcetrack>
    <mediatype>audio</mediatype>
    <trackindex>1</trackindex>
</sourcetrack>
    <labels>
        <label2>Iris</label2>
    </labels>
</clipitem>
<clipitem id="ec424285-5c2f-4f43-9be5-e02552db55f0" premiereChannelType="stereo">
    <masterclipid>masterclip-1</masterclipid>
    <name>S01E45.Jiggles.mkv</name>
    <enabled>TRUE</enabled>
    <duration>17218</duration>
    <rate>
        <timebase>23.976</timebase>
        <ntsc>FALSE</ntsc>
    </rate>
    <start>2996</start>
    <end>3028</end>
    <in>3414</in>
    <out>3446</out>
    <file id="file-5"/>
    <sourcetrack>
    <mediatype>audio</mediatype>
    <trackindex>1</trackindex>
</sourcetrack>
    <labels>
        <label2>Iris</label2>
    </labels>
</clipitem>
<clipitem id="513a7069-9762-4095-b191-3b9ad7f12fb4" premiereChannelType="stereo">
    <masterclipid>masterclip-1</masterclipid>
    <name>S01E45.Jiggles.mkv</name>
    <enabled>TRUE</enabled>
    <duration>17218</duration>
    <rate>
        <timebase>23.976</timebase>
        <ntsc>FALSE</ntsc>
    </rate>
    <start>3028</start>
    <end>3039</end>
    <in>3446</in>
    <out>3457</out>
    <file id="file-5"/>
    <sourcetrack>
    <mediatype>audio</mediatype>
    <trackindex>1</trackindex>
</sourcetrack>
    <labels>
        <label2>Iris</label2>
    </labels>
</clipitem>
<clipitem id="d493b589-dee4-4890-a570-852a269d5f2d" premiereChannelType="stereo">
    <masterclipid>masterclip-1</masterclipid>
    <name>S01E45.Jiggles.mkv</name>
    <enabled>TRUE</enabled>
    <duration>17218</duration>
    <rate>
        <timebase>23.976</timebase>
        <ntsc>FALSE</ntsc>
    </rate>
    <start>3039</start>
    <end>3051</end>
    <in>3457</in>
    <out>3469</out>
    <file id="file-5"/>
    <sourcetrack>
    <mediatype>audio</mediatype>
    <trackindex>1</trackindex>
</sourcetrack>
    <labels>
        <label2>Iris</label2>
    </labels>
</clipitem>
<clipitem id="37074154-5c5c-40c1-9b0f-f03fb2c83c77" premiereChannelType="stereo">
    <masterclipid>masterclip-1</masterclipid>
    <name>S01E45.Jiggles.mkv</name>
    <enabled>TRUE</enabled>
    <duration>17218</duration>
    <rate>
        <timebase>23.976</timebase>
        <ntsc>FALSE</ntsc>
    </rate>
    <start>3051</start>
    <end>3067</end>
    <in>3469</in>
    <out>3485</out>
    <file id="file-5"/>
    <sourcetrack>
    <mediatype>audio</mediatype>
    <trackindex>1</trackindex>
</sourcetrack>
    <labels>
        <label2>Iris</label2>
    </labels>
</clipitem>
<clipitem id="a4d39274-d90f-4fd3-b9f1-ad160863f9e0" premiereChannelType="stereo">
    <masterclipid>masterclip-1</masterclipid>
    <name>S01E45.Jiggles.mkv</name>
    <enabled>TRUE</enabled>
    <duration>17218</duration>
    <rate>
        <timebase>23.976</timebase>
        <ntsc>FALSE</ntsc>
    </rate>
    <start>3067</start>
    <end>3078</end>
    <in>3485</in>
    <out>3496</out>
    <file id="file-5"/>
    <sourcetrack>
    <mediatype>audio</mediatype>
    <trackindex>1</trackindex>
</sourcetrack>
    <labels>
        <label2>Iris</label2>
    </labels>
</clipitem>
<clipitem id="6395d34a-be1e-4a79-98fd-56a3b77590a4" premiereChannelType="stereo">
    <masterclipid>masterclip-1</masterclipid>
    <name>S01E45.Jiggles.mkv</name>
    <enabled>TRUE</enabled>
    <duration>17218</duration>
    <rate>
        <timebase>23.976</timebase>
        <ntsc>FALSE</ntsc>
    </rate>
    <start>3078</start>
    <end>3113</end>
    <in>3496</in>
    <out>3531</out>
    <file id="file-5"/>
    <sourcetrack>
    <mediatype>audio</mediatype>
    <trackindex>1</trackindex>
</sourcetrack>
    <labels>
        <label2>Iris</label2>
    </labels>
</clipitem>
<clipitem id="9bcdcb43-49e0-4858-ad65-fd05d73e37bb" premiereChannelType="stereo">
    <masterclipid>masterclip-1</masterclipid>
    <name>S01E45.Jiggles.mkv</name>
    <enabled>TRUE</enabled>
    <duration>17218</duration>
    <rate>
        <timebase>23.976</timebase>
        <ntsc>FALSE</ntsc>
    </rate>
    <start>3113</start>
    <end>3124</end>
    <in>3531</in>
    <out>3542</out>
    <file id="file-5"/>
    <sourcetrack>
    <mediatype>audio</mediatype>
    <trackindex>1</trackindex>
</sourcetrack>
    <labels>
        <label2>Iris</label2>
    </labels>
</clipitem>
<clipitem id="6d808f6f-03b1-472e-8375-a065d959b942" premiereChannelType="stereo">
    <masterclipid>masterclip-1</masterclipid>
    <name>S01E45.Jiggles.mkv</name>
    <enabled>TRUE</enabled>
    <duration>17218</duration>
    <rate>
        <timebase>23.976</timebase>
        <ntsc>FALSE</ntsc>
    </rate>
    <start>3124</start>
    <end>3141</end>
    <in>3553</in>
    <out>3570</out>
    <file id="file-5"/>
    <sourcetrack>
    <mediatype>audio</mediatype>
    <trackindex>1</trackindex>
</sourcetrack>
    <labels>
        <label2>Iris</label2>
    </labels>
</clipitem>
<clipitem id="100ac44a-1c51-4557-a54f-2b95436822a5" premiereChannelType="stereo">
    <masterclipid>masterclip-1</masterclipid>
    <name>S01E45.Jiggles.mkv</name>
    <enabled>TRUE</enabled>
    <duration>17218</duration>
    <rate>
        <timebase>23.976</timebase>
        <ntsc>FALSE</ntsc>
    </rate>
    <start>3141</start>
    <end>3152</end>
    <in>3559</in>
    <out>3570</out>
    <file id="file-5"/>
    <sourcetrack>
    <mediatype>audio</mediatype>
    <trackindex>1</trackindex>
</sourcetrack>
    <labels>
        <label2>Iris</label2>
    </labels>
</clipitem>
<clipitem id="ebf35a92-5e1d-4557-ab43-09ac185a38f9" premiereChannelType="stereo">
    <masterclipid>masterclip-1</masterclipid>
    <name>S01E45.Jiggles.mkv</name>
    <enabled>TRUE</enabled>
    <duration>17218</duration>
    <rate>
        <timebase>23.976</timebase>
        <ntsc>FALSE</ntsc>
    </rate>
    <start>3152</start>
    <end>3164</end>
    <in>3546</in>
    <out>3558</out>
    <file id="file-5"/>
    <sourcetrack>
    <mediatype>audio</mediatype>
    <trackindex>1</trackindex>
</sourcetrack>
    <labels>
        <label2>Iris</label2>
    </labels>
</clipitem>
<clipitem id="0e388bce-6ea4-4f3d-837f-0c1874281001" premiereChannelType="stereo">
    <masterclipid>masterclip-1</masterclipid>
    <name>S01E45.Jiggles.mkv</name>
    <enabled>TRUE</enabled>
    <duration>17218</duration>
    <rate>
        <timebase>23.976</timebase>
        <ntsc>FALSE</ntsc>
    </rate>
    <start>3164</start>
    <end>3178</end>
    <in>3545</in>
    <out>3559</out>
    <file id="file-5"/>
    <sourcetrack>
    <mediatype>audio</mediatype>
    <trackindex>1</trackindex>
</sourcetrack>
    <labels>
        <label2>Iris</label2>
    </labels>
</clipitem>
<clipitem id="b6c8d66f-9b6a-4ff2-a200-5c3d0b939c94" premiereChannelType="stereo">
    <masterclipid>masterclip-1</masterclipid>
    <name>S01E45.Jiggles.mkv</name>
    <enabled>TRUE</enabled>
    <duration>17218</duration>
    <rate>
        <timebase>23.976</timebase>
        <ntsc>FALSE</ntsc>
    </rate>
    <start>3178</start>
    <end>3190</end>
    <in>3596</in>
    <out>3608</out>
    <file id="file-5"/>
    <sourcetrack>
    <mediatype>audio</mediatype>
    <trackindex>1</trackindex>
</sourcetrack>
    <labels>
        <label2>Iris</label2>
    </labels>
</clipitem>
<clipitem id="708397f1-d113-485b-955d-4f544a3aa30c" premiereChannelType="stereo">
    <masterclipid>masterclip-1</masterclipid>
    <name>S01E45.Jiggles.mkv</name>
    <enabled>TRUE</enabled>
    <duration>17218</duration>
    <rate>
        <timebase>23.976</timebase>
        <ntsc>FALSE</ntsc>
    </rate>
    <start>3190</start>
    <end>3201</end>
    <in>3608</in>
    <out>3619</out>
    <file id="file-5"/>
    <sourcetrack>
    <mediatype>audio</mediatype>
    <trackindex>1</trackindex>
</sourcetrack>
    <labels>
        <label2>Iris</label2>
    </labels>
</clipitem>
<clipitem id="87e31c8f-8009-4a2d-b6c9-b4bea94ac507" premiereChannelType="stereo">
    <masterclipid>masterclip-1</masterclipid>
    <name>S01E45.Jiggles.mkv</name>
    <enabled>TRUE</enabled>
    <duration>17218</duration>
    <rate>
        <timebase>23.976</timebase>
        <ntsc>FALSE</ntsc>
    </rate>
    <start>3201</start>
    <end>3213</end>
    <in>3619</in>
    <out>3631</out>
    <file id="file-5"/>
    <sourcetrack>
    <mediatype>audio</mediatype>
    <trackindex>1</trackindex>
</sourcetrack>
    <labels>
        <label2>Iris</label2>
    </labels>
</clipitem>
<clipitem id="3d144ac0-00a6-4667-b450-722112d7c6ff" premiereChannelType="stereo">
    <masterclipid>masterclip-1</masterclipid>
    <name>S01E45.Jiggles.mkv</name>
    <enabled>TRUE</enabled>
    <duration>17218</duration>
    <rate>
        <timebase>23.976</timebase>
        <ntsc>FALSE</ntsc>
    </rate>
    <start>3213</start>
    <end>3225</end>
    <in>3631</in>
    <out>3643</out>
    <file id="file-5"/>
    <sourcetrack>
    <mediatype>audio</mediatype>
    <trackindex>1</trackindex>
</sourcetrack>
    <labels>
        <label2>Iris</label2>
    </labels>
</clipitem>
<clipitem id="ab2ba964-83be-46de-9ea4-88199c03bce5" premiereChannelType="stereo">
    <masterclipid>masterclip-1</masterclipid>
    <name>S01E45.Jiggles.mkv</name>
    <enabled>TRUE</enabled>
    <duration>17218</duration>
    <rate>
        <timebase>23.976</timebase>
        <ntsc>FALSE</ntsc>
    </rate>
    <start>3225</start>
    <end>3241</end>
    <in>3643</in>
    <out>3659</out>
    <file id="file-5"/>
    <sourcetrack>
    <mediatype>audio</mediatype>
    <trackindex>1</trackindex>
</sourcetrack>
    <labels>
        <label2>Iris</label2>
    </labels>
</clipitem>
<clipitem id="5fb8f020-1cf3-45cf-86b5-943ab2b72975" premiereChannelType="stereo">
    <masterclipid>masterclip-1</masterclipid>
    <name>S01E45.Jiggles.mkv</name>
    <enabled>TRUE</enabled>
    <duration>17218</duration>
    <rate>
        <timebase>23.976</timebase>
        <ntsc>FALSE</ntsc>
    </rate>
    <start>3241</start>
    <end>3256</end>
    <in>3659</in>
    <out>3674</out>
    <file id="file-5"/>
    <sourcetrack>
    <mediatype>audio</mediatype>
    <trackindex>1</trackindex>
</sourcetrack>
    <labels>
        <label2>Iris</label2>
    </labels>
</clipitem>
<clipitem id="ba1718e4-8b1c-4395-b8de-4564be61d5f9" premiereChannelType="stereo">
    <masterclipid>masterclip-1</masterclipid>
    <name>S01E45.Jiggles.mkv</name>
    <enabled>TRUE</enabled>
    <duration>17218</duration>
    <rate>
        <timebase>23.976</timebase>
        <ntsc>FALSE</ntsc>
    </rate>
    <start>3256</start>
    <end>3273</end>
    <in>3674</in>
    <out>3691</out>
    <file id="file-5"/>
    <sourcetrack>
    <mediatype>audio</mediatype>
    <trackindex>1</trackindex>
</sourcetrack>
    <labels>
        <label2>Iris</label2>
    </labels>
</clipitem>
<clipitem id="e967c09a-3c77-4f66-82fc-9ab60a87eec4" premiereChannelType="stereo">
    <masterclipid>masterclip-1</masterclipid>
    <name>S01E45.Jiggles.mkv</name>
    <enabled>TRUE</enabled>
    <duration>17218</duration>
    <rate>
        <timebase>23.976</timebase>
        <ntsc>FALSE</ntsc>
    </rate>
    <start>3273</start>
    <end>3299</end>
    <in>3691</in>
    <out>3717</out>
    <file id="file-5"/>
    <sourcetrack>
    <mediatype>audio</mediatype>
    <trackindex>1</trackindex>
</sourcetrack>
    <labels>
        <label2>Iris</label2>
    </labels>
</clipitem>
<clipitem id="eb77108a-2b49-43e1-b67f-31dc350cc928" premiereChannelType="stereo">
    <masterclipid>masterclip-1</masterclipid>
    <name>S01E45.Jiggles.mkv</name>
    <enabled>TRUE</enabled>
    <duration>17218</duration>
    <rate>
        <timebase>23.976</timebase>
        <ntsc>FALSE</ntsc>
    </rate>
    <start>3299</start>
    <end>3340</end>
    <in>3717</in>
    <out>3758</out>
    <file id="file-5"/>
    <sourcetrack>
    <mediatype>audio</mediatype>
    <trackindex>1</trackindex>
</sourcetrack>
    <labels>
        <label2>Iris</label2>
    </labels>
</clipitem>
<clipitem id="d63ff434-d939-48f6-8413-1570edda8946" premiereChannelType="stereo">
    <masterclipid>masterclip-1</masterclipid>
    <name>S01E45.Jiggles.mkv</name>
    <enabled>TRUE</enabled>
    <duration>17218</duration>
    <rate>
        <timebase>23.976</timebase>
        <ntsc>FALSE</ntsc>
    </rate>
    <start>3340</start>
    <end>3389</end>
    <in>3758</in>
    <out>3807</out>
    <file id="file-5"/>
    <sourcetrack>
    <mediatype>audio</mediatype>
    <trackindex>1</trackindex>
</sourcetrack>
    <labels>
        <label2>Iris</label2>
    </labels>
</clipitem>
<clipitem id="a85dccf2-426f-4095-8b26-9ff78e700830" premiereChannelType="stereo">
    <masterclipid>masterclip-1</masterclipid>
    <name>S01E45.Jiggles.mkv</name>
    <enabled>TRUE</enabled>
    <duration>17218</duration>
    <rate>
        <timebase>23.976</timebase>
        <ntsc>FALSE</ntsc>
    </rate>
    <start>3389</start>
    <end>3530</end>
    <in>3807</in>
    <out>3948</out>
    <file id="file-5"/>
    <sourcetrack>
    <mediatype>audio</mediatype>
    <trackindex>1</trackindex>
</sourcetrack>
    <labels>
        <label2>Iris</label2>
    </labels>
</clipitem>
<clipitem id="05f564bb-dc65-4737-97f1-b80471af01a2" premiereChannelType="stereo">
    <masterclipid>masterclip-1</masterclipid>
    <name>S01E45.Jiggles.mkv</name>
    <enabled>TRUE</enabled>
    <duration>17218</duration>
    <rate>
        <timebase>23.976</timebase>
        <ntsc>FALSE</ntsc>
    </rate>
    <start>3530</start>
    <end>3591</end>
    <in>3948</in>
    <out>4009</out>
    <file id="file-5"/>
    <sourcetrack>
    <mediatype>audio</mediatype>
    <trackindex>1</trackindex>
</sourcetrack>
    <labels>
        <label2>Iris</label2>
    </labels>
</clipitem>
<clipitem id="d25771a2-3006-4e2c-860b-5287ecb03148" premiereChannelType="stereo">
    <masterclipid>masterclip-1</masterclipid>
    <name>S01E45.Jiggles.mkv</name>
    <enabled>TRUE</enabled>
    <duration>17218</duration>
    <rate>
        <timebase>23.976</timebase>
        <ntsc>FALSE</ntsc>
    </rate>
    <start>3591</start>
    <end>3614</end>
    <in>4009</in>
    <out>4032</out>
    <file id="file-5"/>
    <sourcetrack>
    <mediatype>audio</mediatype>
    <trackindex>1</trackindex>
</sourcetrack>
    <labels>
        <label2>Iris</label2>
    </labels>
</clipitem>
<clipitem id="ddc0bd86-f026-4acf-ad2c-9cb50c7b0f82" premiereChannelType="stereo">
    <masterclipid>masterclip-1</masterclipid>
    <name>S01E45.Jiggles.mkv</name>
    <enabled>TRUE</enabled>
    <duration>17218</duration>
    <rate>
        <timebase>23.976</timebase>
        <ntsc>FALSE</ntsc>
    </rate>
    <start>3614</start>
    <end>3772</end>
    <in>4032</in>
    <out>4190</out>
    <file id="file-5"/>
    <sourcetrack>
    <mediatype>audio</mediatype>
    <trackindex>1</trackindex>
</sourcetrack>
    <labels>
        <label2>Iris</label2>
    </labels>
</clipitem>
<clipitem id="ef0cd33a-e632-46a2-81ba-af0be540bc8d" premiereChannelType="stereo">
    <masterclipid>masterclip-1</masterclipid>
    <name>S01E45.Jiggles.mkv</name>
    <enabled>TRUE</enabled>
    <duration>17218</duration>
    <rate>
        <timebase>23.976</timebase>
        <ntsc>FALSE</ntsc>
    </rate>
    <start>3772</start>
    <end>3783</end>
    <in>4190</in>
    <out>4201</out>
    <file id="file-5"/>
    <sourcetrack>
    <mediatype>audio</mediatype>
    <trackindex>1</trackindex>
</sourcetrack>
    <labels>
        <label2>Iris</label2>
    </labels>
</clipitem>
<clipitem id="5b2e3885-1f65-457f-81a4-daaef3f94dcf" premiereChannelType="stereo">
    <masterclipid>masterclip-1</masterclipid>
    <name>S01E45.Jiggles.mkv</name>
    <enabled>TRUE</enabled>
    <duration>17218</duration>
    <rate>
        <timebase>23.976</timebase>
        <ntsc>FALSE</ntsc>
    </rate>
    <start>3783</start>
    <end>3819</end>
    <in>4201</in>
    <out>4237</out>
    <file id="file-5"/>
    <sourcetrack>
    <mediatype>audio</mediatype>
    <trackindex>1</trackindex>
</sourcetrack>
    <labels>
        <label2>Iris</label2>
    </labels>
</clipitem>
<clipitem id="8624182e-812d-4b92-99b1-461809b48471" premiereChannelType="stereo">
    <masterclipid>masterclip-1</masterclipid>
    <name>S01E45.Jiggles.mkv</name>
    <enabled>TRUE</enabled>
    <duration>17218</duration>
    <rate>
        <timebase>23.976</timebase>
        <ntsc>FALSE</ntsc>
    </rate>
    <start>3819</start>
    <end>3865</end>
    <in>4237</in>
    <out>4283</out>
    <file id="file-5"/>
    <sourcetrack>
    <mediatype>audio</mediatype>
    <trackindex>1</trackindex>
</sourcetrack>
    <labels>
        <label2>Iris</label2>
    </labels>
</clipitem>
<clipitem id="82113957-db4d-4a03-824c-b4e020990a4a" premiereChannelType="stereo">
    <masterclipid>masterclip-1</masterclipid>
    <name>S01E45.Jiggles.mkv</name>
    <enabled>TRUE</enabled>
    <duration>17218</duration>
    <rate>
        <timebase>23.976</timebase>
        <ntsc>FALSE</ntsc>
    </rate>
    <start>3865</start>
    <end>3891</end>
    <in>4283</in>
    <out>4309</out>
    <file id="file-5"/>
    <sourcetrack>
    <mediatype>audio</mediatype>
    <trackindex>1</trackindex>
</sourcetrack>
    <labels>
        <label2>Iris</label2>
    </labels>
</clipitem>
<clipitem id="8e72c490-bc47-4b2c-9524-9c1b435daae3" premiereChannelType="stereo">
    <masterclipid>masterclip-1</masterclipid>
    <name>S01E45.Jiggles.mkv</name>
    <enabled>TRUE</enabled>
    <duration>17218</duration>
    <rate>
        <timebase>23.976</timebase>
        <ntsc>FALSE</ntsc>
    </rate>
    <start>3891</start>
    <end>3932</end>
    <in>4309</in>
    <out>4350</out>
    <file id="file-5"/>
    <sourcetrack>
    <mediatype>audio</mediatype>
    <trackindex>1</trackindex>
</sourcetrack>
    <labels>
        <label2>Iris</label2>
    </labels>
</clipitem>
<clipitem id="b903dd48-e0e9-4399-b227-6d3d478d233f" premiereChannelType="stereo">
    <masterclipid>masterclip-1</masterclipid>
    <name>S01E45.Jiggles.mkv</name>
    <enabled>TRUE</enabled>
    <duration>17218</duration>
    <rate>
        <timebase>23.976</timebase>
        <ntsc>FALSE</ntsc>
    </rate>
    <start>3932</start>
    <end>3988</end>
    <in>4349</in>
    <out>4405</out>
    <file id="file-5"/>
    <sourcetrack>
    <mediatype>audio</mediatype>
    <trackindex>1</trackindex>
</sourcetrack>
    <labels>
        <label2>Iris</label2>
    </labels>
</clipitem>
<clipitem id="1b7824d4-5c3c-42ef-a2ad-4c1a7354089b" premiereChannelType="stereo">
    <masterclipid>masterclip-1</masterclipid>
    <name>S01E45.Jiggles.mkv</name>
    <enabled>TRUE</enabled>
    <duration>17218</duration>
    <rate>
        <timebase>23.976</timebase>
        <ntsc>FALSE</ntsc>
    </rate>
    <start>3988</start>
    <end>4013</end>
    <in>4406</in>
    <out>4431</out>
    <file id="file-5"/>
    <sourcetrack>
    <mediatype>audio</mediatype>
    <trackindex>1</trackindex>
</sourcetrack>
    <labels>
        <label2>Iris</label2>
    </labels>
</clipitem>
<clipitem id="778b37aa-464d-43db-8dfb-fe0b6097cbe1" premiereChannelType="stereo">
    <masterclipid>masterclip-1</masterclipid>
    <name>S01E45.Jiggles.mkv</name>
    <enabled>TRUE</enabled>
    <duration>17218</duration>
    <rate>
        <timebase>23.976</timebase>
        <ntsc>FALSE</ntsc>
    </rate>
    <start>4013</start>
    <end>4081</end>
    <in>4431</in>
    <out>4499</out>
    <file id="file-5"/>
    <sourcetrack>
    <mediatype>audio</mediatype>
    <trackindex>1</trackindex>
</sourcetrack>
    <labels>
        <label2>Iris</label2>
    </labels>
</clipitem>
<clipitem id="db427cf3-9396-48e4-80ac-e7343c90d59d" premiereChannelType="stereo">
    <masterclipid>masterclip-1</masterclipid>
    <name>S01E45.Jiggles.mkv</name>
    <enabled>TRUE</enabled>
    <duration>17218</duration>
    <rate>
        <timebase>23.976</timebase>
        <ntsc>FALSE</ntsc>
    </rate>
    <start>4081</start>
    <end>4184</end>
    <in>4499</in>
    <out>4602</out>
    <file id="file-5"/>
    <sourcetrack>
    <mediatype>audio</mediatype>
    <trackindex>1</trackindex>
</sourcetrack>
    <labels>
        <label2>Iris</label2>
    </labels>
</clipitem>
<clipitem id="c4fadbc1-3794-4bbd-8572-a6575e710ad9" premiereChannelType="stereo">
    <masterclipid>masterclip-1</masterclipid>
    <name>S01E45.Jiggles.mkv</name>
    <enabled>TRUE</enabled>
    <duration>17218</duration>
    <rate>
        <timebase>23.976</timebase>
        <ntsc>FALSE</ntsc>
    </rate>
    <start>4184</start>
    <end>4221</end>
    <in>4602</in>
    <out>4639</out>
    <file id="file-5"/>
    <sourcetrack>
    <mediatype>audio</mediatype>
    <trackindex>1</trackindex>
</sourcetrack>
    <labels>
        <label2>Iris</label2>
    </labels>
</clipitem>
<clipitem id="11b85815-cdbf-4b96-937d-7ffe42c49e7c" premiereChannelType="stereo">
    <masterclipid>masterclip-1</masterclipid>
    <name>S01E45.Jiggles.mkv</name>
    <enabled>TRUE</enabled>
    <duration>17218</duration>
    <rate>
        <timebase>23.976</timebase>
        <ntsc>FALSE</ntsc>
    </rate>
    <start>4221</start>
    <end>4233</end>
    <in>4638</in>
    <out>4650</out>
    <file id="file-5"/>
    <sourcetrack>
    <mediatype>audio</mediatype>
    <trackindex>1</trackindex>
</sourcetrack>
    <labels>
        <label2>Iris</label2>
    </labels>
</clipitem>
<clipitem id="cd1dd1cd-2730-41d2-a34f-c43ab6cf8a2d" premiereChannelType="stereo">
    <masterclipid>masterclip-1</masterclipid>
    <name>S01E45.Jiggles.mkv</name>
    <enabled>TRUE</enabled>
    <duration>17218</duration>
    <rate>
        <timebase>23.976</timebase>
        <ntsc>FALSE</ntsc>
    </rate>
    <start>4233</start>
    <end>4244</end>
    <in>4651</in>
    <out>4662</out>
    <file id="file-5"/>
    <sourcetrack>
    <mediatype>audio</mediatype>
    <trackindex>1</trackindex>
</sourcetrack>
    <labels>
        <label2>Iris</label2>
    </labels>
</clipitem>
<clipitem id="009e7299-4226-42d1-af1b-ccd3b9f42ddd" premiereChannelType="stereo">
    <masterclipid>masterclip-1</masterclipid>
    <name>S01E45.Jiggles.mkv</name>
    <enabled>TRUE</enabled>
    <duration>17218</duration>
    <rate>
        <timebase>23.976</timebase>
        <ntsc>FALSE</ntsc>
    </rate>
    <start>4244</start>
    <end>4267</end>
    <in>4662</in>
    <out>4685</out>
    <file id="file-5"/>
    <sourcetrack>
    <mediatype>audio</mediatype>
    <trackindex>1</trackindex>
</sourcetrack>
    <labels>
        <label2>Iris</label2>
    </labels>
</clipitem>
<clipitem id="f8a8ea5f-189c-45df-9f57-730321f02476" premiereChannelType="stereo">
    <masterclipid>masterclip-1</masterclipid>
    <name>S01E45.Jiggles.mkv</name>
    <enabled>TRUE</enabled>
    <duration>17218</duration>
    <rate>
        <timebase>23.976</timebase>
        <ntsc>FALSE</ntsc>
    </rate>
    <start>4267</start>
    <end>4278</end>
    <in>4685</in>
    <out>4696</out>
    <file id="file-5"/>
    <sourcetrack>
    <mediatype>audio</mediatype>
    <trackindex>1</trackindex>
</sourcetrack>
    <labels>
        <label2>Iris</label2>
    </labels>
</clipitem>
<clipitem id="e5bf927c-40df-40d9-a1a5-f1adcb5de8fd" premiereChannelType="stereo">
    <masterclipid>masterclip-1</masterclipid>
    <name>S01E45.Jiggles.mkv</name>
    <enabled>TRUE</enabled>
    <duration>17218</duration>
    <rate>
        <timebase>23.976</timebase>
        <ntsc>FALSE</ntsc>
    </rate>
    <start>4278</start>
    <end>4289</end>
    <in>4696</in>
    <out>4707</out>
    <file id="file-5"/>
    <sourcetrack>
    <mediatype>audio</mediatype>
    <trackindex>1</trackindex>
</sourcetrack>
    <labels>
        <label2>Iris</label2>
    </labels>
</clipitem>
<clipitem id="ff0a9e31-4137-454d-8cc0-1e0df4cc6420" premiereChannelType="stereo">
    <masterclipid>masterclip-1</masterclipid>
    <name>S01E45.Jiggles.mkv</name>
    <enabled>TRUE</enabled>
    <duration>17218</duration>
    <rate>
        <timebase>23.976</timebase>
        <ntsc>FALSE</ntsc>
    </rate>
    <start>4289</start>
    <end>4302</end>
    <in>4707</in>
    <out>4720</out>
    <file id="file-5"/>
    <sourcetrack>
    <mediatype>audio</mediatype>
    <trackindex>1</trackindex>
</sourcetrack>
    <labels>
        <label2>Iris</label2>
    </labels>
</clipitem>
<clipitem id="8cc57c50-0634-42bd-9fed-e0f26b042da3" premiereChannelType="stereo">
    <masterclipid>masterclip-1</masterclipid>
    <name>S01E45.Jiggles.mkv</name>
    <enabled>TRUE</enabled>
    <duration>17218</duration>
    <rate>
        <timebase>23.976</timebase>
        <ntsc>FALSE</ntsc>
    </rate>
    <start>4302</start>
    <end>4319</end>
    <in>4720</in>
    <out>4737</out>
    <file id="file-5"/>
    <sourcetrack>
    <mediatype>audio</mediatype>
    <trackindex>1</trackindex>
</sourcetrack>
    <labels>
        <label2>Iris</label2>
    </labels>
</clipitem>
<clipitem id="f634bd13-a653-4833-9cf2-0d777d20840c" premiereChannelType="stereo">
    <masterclipid>masterclip-1</masterclipid>
    <name>S01E45.Jiggles.mkv</name>
    <enabled>TRUE</enabled>
    <duration>17218</duration>
    <rate>
        <timebase>23.976</timebase>
        <ntsc>FALSE</ntsc>
    </rate>
    <start>4319</start>
    <end>4337</end>
    <in>4737</in>
    <out>4755</out>
    <file id="file-5"/>
    <sourcetrack>
    <mediatype>audio</mediatype>
    <trackindex>1</trackindex>
</sourcetrack>
    <labels>
        <label2>Iris</label2>
    </labels>
</clipitem>
<clipitem id="582f04a9-f7e8-4587-87e5-fe8232f57b0f" premiereChannelType="stereo">
    <masterclipid>masterclip-1</masterclipid>
    <name>S01E45.Jiggles.mkv</name>
    <enabled>TRUE</enabled>
    <duration>17218</duration>
    <rate>
        <timebase>23.976</timebase>
        <ntsc>FALSE</ntsc>
    </rate>
    <start>4337</start>
    <end>4357</end>
    <in>4755</in>
    <out>4775</out>
    <file id="file-5"/>
    <sourcetrack>
    <mediatype>audio</mediatype>
    <trackindex>1</trackindex>
</sourcetrack>
    <labels>
        <label2>Iris</label2>
    </labels>
</clipitem>
<clipitem id="e112d4c1-ec4c-4e41-bbf9-02fc8acd5f87" premiereChannelType="stereo">
    <masterclipid>masterclip-1</masterclipid>
    <name>S01E45.Jiggles.mkv</name>
    <enabled>TRUE</enabled>
    <duration>17218</duration>
    <rate>
        <timebase>23.976</timebase>
        <ntsc>FALSE</ntsc>
    </rate>
    <start>4357</start>
    <end>4368</end>
    <in>4775</in>
    <out>4786</out>
    <file id="file-5"/>
    <sourcetrack>
    <mediatype>audio</mediatype>
    <trackindex>1</trackindex>
</sourcetrack>
    <labels>
        <label2>Iris</label2>
    </labels>
</clipitem>
<clipitem id="fe946f42-d628-4c9f-b2fc-f22f5dd7ae55" premiereChannelType="stereo">
    <masterclipid>masterclip-1</masterclipid>
    <name>S01E45.Jiggles.mkv</name>
    <enabled>TRUE</enabled>
    <duration>17218</duration>
    <rate>
        <timebase>23.976</timebase>
        <ntsc>FALSE</ntsc>
    </rate>
    <start>4368</start>
    <end>4381</end>
    <in>4786</in>
    <out>4799</out>
    <file id="file-5"/>
    <sourcetrack>
    <mediatype>audio</mediatype>
    <trackindex>1</trackindex>
</sourcetrack>
    <labels>
        <label2>Iris</label2>
    </labels>
</clipitem>
<clipitem id="e2d79753-6073-4f86-86ff-ed7bb1987489" premiereChannelType="stereo">
    <masterclipid>masterclip-1</masterclipid>
    <name>S01E45.Jiggles.mkv</name>
    <enabled>TRUE</enabled>
    <duration>17218</duration>
    <rate>
        <timebase>23.976</timebase>
        <ntsc>FALSE</ntsc>
    </rate>
    <start>4381</start>
    <end>4429</end>
    <in>4799</in>
    <out>4847</out>
    <file id="file-5"/>
    <sourcetrack>
    <mediatype>audio</mediatype>
    <trackindex>1</trackindex>
</sourcetrack>
    <labels>
        <label2>Iris</label2>
    </labels>
</clipitem>
<clipitem id="1d8e3233-23a4-4dda-b5a2-4042b62d5e1e" premiereChannelType="stereo">
    <masterclipid>masterclip-1</masterclipid>
    <name>S01E45.Jiggles.mkv</name>
    <enabled>TRUE</enabled>
    <duration>17218</duration>
    <rate>
        <timebase>23.976</timebase>
        <ntsc>FALSE</ntsc>
    </rate>
    <start>4429</start>
    <end>4445</end>
    <in>4847</in>
    <out>4863</out>
    <file id="file-5"/>
    <sourcetrack>
    <mediatype>audio</mediatype>
    <trackindex>1</trackindex>
</sourcetrack>
    <labels>
        <label2>Iris</label2>
    </labels>
</clipitem>
<clipitem id="2b87d234-e0bf-4b5a-8a53-ed3d29a4a84e" premiereChannelType="stereo">
    <masterclipid>masterclip-1</masterclipid>
    <name>S01E45.Jiggles.mkv</name>
    <enabled>TRUE</enabled>
    <duration>17218</duration>
    <rate>
        <timebase>23.976</timebase>
        <ntsc>FALSE</ntsc>
    </rate>
    <start>4445</start>
    <end>4456</end>
    <in>4863</in>
    <out>4874</out>
    <file id="file-5"/>
    <sourcetrack>
    <mediatype>audio</mediatype>
    <trackindex>1</trackindex>
</sourcetrack>
    <labels>
        <label2>Iris</label2>
    </labels>
</clipitem>
<clipitem id="f9b8af9c-6cab-4233-afb4-32b297447133" premiereChannelType="stereo">
    <masterclipid>masterclip-1</masterclipid>
    <name>S01E45.Jiggles.mkv</name>
    <enabled>TRUE</enabled>
    <duration>17218</duration>
    <rate>
        <timebase>23.976</timebase>
        <ntsc>FALSE</ntsc>
    </rate>
    <start>4456</start>
    <end>4468</end>
    <in>4874</in>
    <out>4886</out>
    <file id="file-5"/>
    <sourcetrack>
    <mediatype>audio</mediatype>
    <trackindex>1</trackindex>
</sourcetrack>
    <labels>
        <label2>Iris</label2>
    </labels>
</clipitem>
<clipitem id="3e8ea2cc-7e3d-488d-961d-385d43639499" premiereChannelType="stereo">
    <masterclipid>masterclip-1</masterclipid>
    <name>S01E45.Jiggles.mkv</name>
    <enabled>TRUE</enabled>
    <duration>17218</duration>
    <rate>
        <timebase>23.976</timebase>
        <ntsc>FALSE</ntsc>
    </rate>
    <start>4468</start>
    <end>4480</end>
    <in>4886</in>
    <out>4898</out>
    <file id="file-5"/>
    <sourcetrack>
    <mediatype>audio</mediatype>
    <trackindex>1</trackindex>
</sourcetrack>
    <labels>
        <label2>Iris</label2>
    </labels>
</clipitem>
<clipitem id="1d6b0704-067f-4a99-936f-f7ae918c1046" premiereChannelType="stereo">
    <masterclipid>masterclip-1</masterclipid>
    <name>S01E45.Jiggles.mkv</name>
    <enabled>TRUE</enabled>
    <duration>17218</duration>
    <rate>
        <timebase>23.976</timebase>
        <ntsc>FALSE</ntsc>
    </rate>
    <start>4480</start>
    <end>4491</end>
    <in>4904</in>
    <out>4915</out>
    <file id="file-5"/>
    <sourcetrack>
    <mediatype>audio</mediatype>
    <trackindex>1</trackindex>
</sourcetrack>
    <labels>
        <label2>Iris</label2>
    </labels>
</clipitem>
<clipitem id="50626b14-057f-44dc-a27c-c7c3933a7953" premiereChannelType="stereo">
    <masterclipid>masterclip-1</masterclipid>
    <name>S01E45.Jiggles.mkv</name>
    <enabled>TRUE</enabled>
    <duration>17218</duration>
    <rate>
        <timebase>23.976</timebase>
        <ntsc>FALSE</ntsc>
    </rate>
    <start>4491</start>
    <end>4563</end>
    <in>4909</in>
    <out>4981</out>
    <file id="file-5"/>
    <sourcetrack>
    <mediatype>audio</mediatype>
    <trackindex>1</trackindex>
</sourcetrack>
    <labels>
        <label2>Iris</label2>
    </labels>
</clipitem>
<clipitem id="325e3b00-4274-4ef1-96f3-e9ec45f94833" premiereChannelType="stereo">
    <masterclipid>masterclip-1</masterclipid>
    <name>S01E45.Jiggles.mkv</name>
    <enabled>TRUE</enabled>
    <duration>17218</duration>
    <rate>
        <timebase>23.976</timebase>
        <ntsc>FALSE</ntsc>
    </rate>
    <start>4563</start>
    <end>4575</end>
    <in>4981</in>
    <out>4993</out>
    <file id="file-5"/>
    <sourcetrack>
    <mediatype>audio</mediatype>
    <trackindex>1</trackindex>
</sourcetrack>
    <labels>
        <label2>Iris</label2>
    </labels>
</clipitem>
<clipitem id="d9d3e5e1-b8a6-4da6-b1cd-e61d1ade37f9" premiereChannelType="stereo">
    <masterclipid>masterclip-1</masterclipid>
    <name>S01E45.Jiggles.mkv</name>
    <enabled>TRUE</enabled>
    <duration>17218</duration>
    <rate>
        <timebase>23.976</timebase>
        <ntsc>FALSE</ntsc>
    </rate>
    <start>4575</start>
    <end>4587</end>
    <in>4993</in>
    <out>5005</out>
    <file id="file-5"/>
    <sourcetrack>
    <mediatype>audio</mediatype>
    <trackindex>1</trackindex>
</sourcetrack>
    <labels>
        <label2>Iris</label2>
    </labels>
</clipitem>
<clipitem id="9d231c99-10da-40e4-9c45-6514cbce8a0c" premiereChannelType="stereo">
    <masterclipid>masterclip-1</masterclipid>
    <name>S01E45.Jiggles.mkv</name>
    <enabled>TRUE</enabled>
    <duration>17218</duration>
    <rate>
        <timebase>23.976</timebase>
        <ntsc>FALSE</ntsc>
    </rate>
    <start>4587</start>
    <end>4607</end>
    <in>5005</in>
    <out>5025</out>
    <file id="file-5"/>
    <sourcetrack>
    <mediatype>audio</mediatype>
    <trackindex>1</trackindex>
</sourcetrack>
    <labels>
        <label2>Iris</label2>
    </labels>
</clipitem>
<clipitem id="09dd310c-351b-4d03-b15c-3c6c219c67bf" premiereChannelType="stereo">
    <masterclipid>masterclip-1</masterclipid>
    <name>S01E45.Jiggles.mkv</name>
    <enabled>TRUE</enabled>
    <duration>17218</duration>
    <rate>
        <timebase>23.976</timebase>
        <ntsc>FALSE</ntsc>
    </rate>
    <start>4607</start>
    <end>4639</end>
    <in>5025</in>
    <out>5057</out>
    <file id="file-5"/>
    <sourcetrack>
    <mediatype>audio</mediatype>
    <trackindex>1</trackindex>
</sourcetrack>
    <labels>
        <label2>Iris</label2>
    </labels>
</clipitem>
<clipitem id="b0feba38-2b6e-4ef9-a787-abb1f0d1469b" premiereChannelType="stereo">
    <masterclipid>masterclip-1</masterclipid>
    <name>S01E45.Jiggles.mkv</name>
    <enabled>TRUE</enabled>
    <duration>17218</duration>
    <rate>
        <timebase>23.976</timebase>
        <ntsc>FALSE</ntsc>
    </rate>
    <start>4639</start>
    <end>4650</end>
    <in>5057</in>
    <out>5068</out>
    <file id="file-5"/>
    <sourcetrack>
    <mediatype>audio</mediatype>
    <trackindex>1</trackindex>
</sourcetrack>
    <labels>
        <label2>Iris</label2>
    </labels>
</clipitem>
<clipitem id="9a24b83c-2cfe-419e-8044-6acf8e1ede1e" premiereChannelType="stereo">
    <masterclipid>masterclip-1</masterclipid>
    <name>S01E45.Jiggles.mkv</name>
    <enabled>TRUE</enabled>
    <duration>17218</duration>
    <rate>
        <timebase>23.976</timebase>
        <ntsc>FALSE</ntsc>
    </rate>
    <start>4650</start>
    <end>4673</end>
    <in>5068</in>
    <out>5091</out>
    <file id="file-5"/>
    <sourcetrack>
    <mediatype>audio</mediatype>
    <trackindex>1</trackindex>
</sourcetrack>
    <labels>
        <label2>Iris</label2>
    </labels>
</clipitem>
<clipitem id="b155544d-32a3-412e-8443-5b31619ab185" premiereChannelType="stereo">
    <masterclipid>masterclip-1</masterclipid>
    <name>S01E45.Jiggles.mkv</name>
    <enabled>TRUE</enabled>
    <duration>17218</duration>
    <rate>
        <timebase>23.976</timebase>
        <ntsc>FALSE</ntsc>
    </rate>
    <start>4673</start>
    <end>4703</end>
    <in>5096</in>
    <out>5126</out>
    <file id="file-5"/>
    <sourcetrack>
    <mediatype>audio</mediatype>
    <trackindex>1</trackindex>
</sourcetrack>
    <labels>
        <label2>Iris</label2>
    </labels>
</clipitem>
<clipitem id="36905288-806a-4ccc-8dc4-783b3432fcc3" premiereChannelType="stereo">
    <masterclipid>masterclip-1</masterclipid>
    <name>S01E45.Jiggles.mkv</name>
    <enabled>TRUE</enabled>
    <duration>17218</duration>
    <rate>
        <timebase>23.976</timebase>
        <ntsc>FALSE</ntsc>
    </rate>
    <start>4703</start>
    <end>4772</end>
    <in>5117</in>
    <out>5186</out>
    <file id="file-5"/>
    <sourcetrack>
    <mediatype>audio</mediatype>
    <trackindex>1</trackindex>
</sourcetrack>
    <labels>
        <label2>Iris</label2>
    </labels>
</clipitem>
<clipitem id="4e933e9a-14f0-4d53-b306-ab519f1ef21c" premiereChannelType="stereo">
    <masterclipid>masterclip-1</masterclipid>
    <name>S01E45.Jiggles.mkv</name>
    <enabled>TRUE</enabled>
    <duration>17218</duration>
    <rate>
        <timebase>23.976</timebase>
        <ntsc>FALSE</ntsc>
    </rate>
    <start>4772</start>
    <end>4787</end>
    <in>5189</in>
    <out>5204</out>
    <file id="file-5"/>
    <sourcetrack>
    <mediatype>audio</mediatype>
    <trackindex>1</trackindex>
</sourcetrack>
    <labels>
        <label2>Iris</label2>
    </labels>
</clipitem>
<clipitem id="82de1df5-c715-4d78-9989-30d17d34be22" premiereChannelType="stereo">
    <masterclipid>masterclip-1</masterclipid>
    <name>S01E45.Jiggles.mkv</name>
    <enabled>TRUE</enabled>
    <duration>17218</duration>
    <rate>
        <timebase>23.976</timebase>
        <ntsc>FALSE</ntsc>
    </rate>
    <start>4787</start>
    <end>4805</end>
    <in>5205</in>
    <out>5223</out>
    <file id="file-5"/>
    <sourcetrack>
    <mediatype>audio</mediatype>
    <trackindex>1</trackindex>
</sourcetrack>
    <labels>
        <label2>Iris</label2>
    </labels>
</clipitem>
<clipitem id="a7f73b55-480a-4aad-98cf-84159662ead4" premiereChannelType="stereo">
    <masterclipid>masterclip-1</masterclipid>
    <name>S01E45.Jiggles.mkv</name>
    <enabled>TRUE</enabled>
    <duration>17218</duration>
    <rate>
        <timebase>23.976</timebase>
        <ntsc>FALSE</ntsc>
    </rate>
    <start>4805</start>
    <end>4842</end>
    <in>5223</in>
    <out>5260</out>
    <file id="file-5"/>
    <sourcetrack>
    <mediatype>audio</mediatype>
    <trackindex>1</trackindex>
</sourcetrack>
    <labels>
        <label2>Iris</label2>
    </labels>
</clipitem>
<clipitem id="2c417aef-89b2-4d9c-853d-68b299afe6c2" premiereChannelType="stereo">
    <masterclipid>masterclip-1</masterclipid>
    <name>S01E45.Jiggles.mkv</name>
    <enabled>TRUE</enabled>
    <duration>17218</duration>
    <rate>
        <timebase>23.976</timebase>
        <ntsc>FALSE</ntsc>
    </rate>
    <start>4842</start>
    <end>4856</end>
    <in>5259</in>
    <out>5273</out>
    <file id="file-5"/>
    <sourcetrack>
    <mediatype>audio</mediatype>
    <trackindex>1</trackindex>
</sourcetrack>
    <labels>
        <label2>Iris</label2>
    </labels>
</clipitem>
<clipitem id="41d28d11-f903-482c-b937-ad6fabffb3f4" premiereChannelType="stereo">
    <masterclipid>masterclip-1</masterclipid>
    <name>S01E45.Jiggles.mkv</name>
    <enabled>TRUE</enabled>
    <duration>17218</duration>
    <rate>
        <timebase>23.976</timebase>
        <ntsc>FALSE</ntsc>
    </rate>
    <start>4856</start>
    <end>4888</end>
    <in>5274</in>
    <out>5306</out>
    <file id="file-5"/>
    <sourcetrack>
    <mediatype>audio</mediatype>
    <trackindex>1</trackindex>
</sourcetrack>
    <labels>
        <label2>Iris</label2>
    </labels>
</clipitem>
<clipitem id="2bbdd02d-768a-4826-ab6e-f806b5d8568e" premiereChannelType="stereo">
    <masterclipid>masterclip-1</masterclipid>
    <name>S01E45.Jiggles.mkv</name>
    <enabled>TRUE</enabled>
    <duration>17218</duration>
    <rate>
        <timebase>23.976</timebase>
        <ntsc>FALSE</ntsc>
    </rate>
    <start>4888</start>
    <end>4919</end>
    <in>5306</in>
    <out>5337</out>
    <file id="file-5"/>
    <sourcetrack>
    <mediatype>audio</mediatype>
    <trackindex>1</trackindex>
</sourcetrack>
    <labels>
        <label2>Iris</label2>
    </labels>
</clipitem>
<clipitem id="ec6cc9bc-0b70-47f1-8ee5-b378541e39de" premiereChannelType="stereo">
    <masterclipid>masterclip-1</masterclipid>
    <name>S01E45.Jiggles.mkv</name>
    <enabled>TRUE</enabled>
    <duration>17218</duration>
    <rate>
        <timebase>23.976</timebase>
        <ntsc>FALSE</ntsc>
    </rate>
    <start>4919</start>
    <end>4935</end>
    <in>5337</in>
    <out>5353</out>
    <file id="file-5"/>
    <sourcetrack>
    <mediatype>audio</mediatype>
    <trackindex>1</trackindex>
</sourcetrack>
    <labels>
        <label2>Iris</label2>
    </labels>
</clipitem>
<clipitem id="e5a1f741-637a-42ba-b6bf-e2170c86a493" premiereChannelType="stereo">
    <masterclipid>masterclip-1</masterclipid>
    <name>S01E45.Jiggles.mkv</name>
    <enabled>TRUE</enabled>
    <duration>17218</duration>
    <rate>
        <timebase>23.976</timebase>
        <ntsc>FALSE</ntsc>
    </rate>
    <start>4935</start>
    <end>4965</end>
    <in>5353</in>
    <out>5383</out>
    <file id="file-5"/>
    <sourcetrack>
    <mediatype>audio</mediatype>
    <trackindex>1</trackindex>
</sourcetrack>
    <labels>
        <label2>Iris</label2>
    </labels>
</clipitem>
<clipitem id="e7139a14-1a04-41dc-9a48-29efbc13eb20" premiereChannelType="stereo">
    <masterclipid>masterclip-1</masterclipid>
    <name>S01E45.Jiggles.mkv</name>
    <enabled>TRUE</enabled>
    <duration>17218</duration>
    <rate>
        <timebase>23.976</timebase>
        <ntsc>FALSE</ntsc>
    </rate>
    <start>4965</start>
    <end>5008</end>
    <in>5383</in>
    <out>5426</out>
    <file id="file-5"/>
    <sourcetrack>
    <mediatype>audio</mediatype>
    <trackindex>1</trackindex>
</sourcetrack>
    <labels>
        <label2>Iris</label2>
    </labels>
</clipitem>
<clipitem id="d1851e8b-ed46-40be-887b-3ff0c6212a5c" premiereChannelType="stereo">
    <masterclipid>masterclip-1</masterclipid>
    <name>S01E45.Jiggles.mkv</name>
    <enabled>TRUE</enabled>
    <duration>17218</duration>
    <rate>
        <timebase>23.976</timebase>
        <ntsc>FALSE</ntsc>
    </rate>
    <start>5008</start>
    <end>5027</end>
    <in>5426</in>
    <out>5445</out>
    <file id="file-5"/>
    <sourcetrack>
    <mediatype>audio</mediatype>
    <trackindex>1</trackindex>
</sourcetrack>
    <labels>
        <label2>Iris</label2>
    </labels>
</clipitem>
<clipitem id="5b4f9e5d-fbb6-4137-a5de-389da4d0e47d" premiereChannelType="stereo">
    <masterclipid>masterclip-1</masterclipid>
    <name>S01E45.Jiggles.mkv</name>
    <enabled>TRUE</enabled>
    <duration>17218</duration>
    <rate>
        <timebase>23.976</timebase>
        <ntsc>FALSE</ntsc>
    </rate>
    <start>5027</start>
    <end>5069</end>
    <in>5445</in>
    <out>5487</out>
    <file id="file-5"/>
    <sourcetrack>
    <mediatype>audio</mediatype>
    <trackindex>1</trackindex>
</sourcetrack>
    <labels>
        <label2>Iris</label2>
    </labels>
</clipitem>
<clipitem id="30f99606-00b1-4aed-9f7e-3582bf246f9b" premiereChannelType="stereo">
    <masterclipid>masterclip-1</masterclipid>
    <name>S01E45.Jiggles.mkv</name>
    <enabled>TRUE</enabled>
    <duration>17218</duration>
    <rate>
        <timebase>23.976</timebase>
        <ntsc>FALSE</ntsc>
    </rate>
    <start>5069</start>
    <end>5080</end>
    <in>5487</in>
    <out>5498</out>
    <file id="file-5"/>
    <sourcetrack>
    <mediatype>audio</mediatype>
    <trackindex>1</trackindex>
</sourcetrack>
    <labels>
        <label2>Iris</label2>
    </labels>
</clipitem>
<clipitem id="42327997-9411-4b9b-9048-589fbacc3e91" premiereChannelType="stereo">
    <masterclipid>masterclip-1</masterclipid>
    <name>S01E45.Jiggles.mkv</name>
    <enabled>TRUE</enabled>
    <duration>17218</duration>
    <rate>
        <timebase>23.976</timebase>
        <ntsc>FALSE</ntsc>
    </rate>
    <start>5080</start>
    <end>5095</end>
    <in>5498</in>
    <out>5513</out>
    <file id="file-5"/>
    <sourcetrack>
    <mediatype>audio</mediatype>
    <trackindex>1</trackindex>
</sourcetrack>
    <labels>
        <label2>Iris</label2>
    </labels>
</clipitem>
<clipitem id="eec05691-b09b-4964-9fe8-8898826f9b6a" premiereChannelType="stereo">
    <masterclipid>masterclip-1</masterclipid>
    <name>S01E45.Jiggles.mkv</name>
    <enabled>TRUE</enabled>
    <duration>17218</duration>
    <rate>
        <timebase>23.976</timebase>
        <ntsc>FALSE</ntsc>
    </rate>
    <start>5095</start>
    <end>5111</end>
    <in>5513</in>
    <out>5529</out>
    <file id="file-5"/>
    <sourcetrack>
    <mediatype>audio</mediatype>
    <trackindex>1</trackindex>
</sourcetrack>
    <labels>
        <label2>Iris</label2>
    </labels>
</clipitem>
<clipitem id="d42ed3f7-5419-4873-ad5b-513e6d292496" premiereChannelType="stereo">
    <masterclipid>masterclip-1</masterclipid>
    <name>S01E45.Jiggles.mkv</name>
    <enabled>TRUE</enabled>
    <duration>17218</duration>
    <rate>
        <timebase>23.976</timebase>
        <ntsc>FALSE</ntsc>
    </rate>
    <start>5111</start>
    <end>5122</end>
    <in>5529</in>
    <out>5540</out>
    <file id="file-5"/>
    <sourcetrack>
    <mediatype>audio</mediatype>
    <trackindex>1</trackindex>
</sourcetrack>
    <labels>
        <label2>Iris</label2>
    </labels>
</clipitem>
<clipitem id="90713d64-781d-4318-b332-df067dee5c67" premiereChannelType="stereo">
    <masterclipid>masterclip-1</masterclipid>
    <name>S01E45.Jiggles.mkv</name>
    <enabled>TRUE</enabled>
    <duration>17218</duration>
    <rate>
        <timebase>23.976</timebase>
        <ntsc>FALSE</ntsc>
    </rate>
    <start>5122</start>
    <end>5134</end>
    <in>5539</in>
    <out>5551</out>
    <file id="file-5"/>
    <sourcetrack>
    <mediatype>audio</mediatype>
    <trackindex>1</trackindex>
</sourcetrack>
    <labels>
        <label2>Iris</label2>
    </labels>
</clipitem>
<clipitem id="15390da9-f614-4999-8ca2-3fbc3d4998fe" premiereChannelType="stereo">
    <masterclipid>masterclip-1</masterclipid>
    <name>S01E45.Jiggles.mkv</name>
    <enabled>TRUE</enabled>
    <duration>17218</duration>
    <rate>
        <timebase>23.976</timebase>
        <ntsc>FALSE</ntsc>
    </rate>
    <start>5134</start>
    <end>5145</end>
    <in>5552</in>
    <out>5563</out>
    <file id="file-5"/>
    <sourcetrack>
    <mediatype>audio</mediatype>
    <trackindex>1</trackindex>
</sourcetrack>
    <labels>
        <label2>Iris</label2>
    </labels>
</clipitem>
<clipitem id="637a88bb-d799-4aeb-9390-c7245820e32e" premiereChannelType="stereo">
    <masterclipid>masterclip-1</masterclipid>
    <name>S01E45.Jiggles.mkv</name>
    <enabled>TRUE</enabled>
    <duration>17218</duration>
    <rate>
        <timebase>23.976</timebase>
        <ntsc>FALSE</ntsc>
    </rate>
    <start>5145</start>
    <end>5156</end>
    <in>5563</in>
    <out>5574</out>
    <file id="file-5"/>
    <sourcetrack>
    <mediatype>audio</mediatype>
    <trackindex>1</trackindex>
</sourcetrack>
    <labels>
        <label2>Iris</label2>
    </labels>
</clipitem>
<clipitem id="6dc7f3e3-c939-43f2-b848-666507cfbd9d" premiereChannelType="stereo">
    <masterclipid>masterclip-1</masterclipid>
    <name>S01E45.Jiggles.mkv</name>
    <enabled>TRUE</enabled>
    <duration>17218</duration>
    <rate>
        <timebase>23.976</timebase>
        <ntsc>FALSE</ntsc>
    </rate>
    <start>5156</start>
    <end>5167</end>
    <in>5574</in>
    <out>5585</out>
    <file id="file-5"/>
    <sourcetrack>
    <mediatype>audio</mediatype>
    <trackindex>1</trackindex>
</sourcetrack>
    <labels>
        <label2>Iris</label2>
    </labels>
</clipitem>
<clipitem id="4ecf762f-bddc-45a7-ad6b-4b40be821ed6" premiereChannelType="stereo">
    <masterclipid>masterclip-1</masterclipid>
    <name>S01E45.Jiggles.mkv</name>
    <enabled>TRUE</enabled>
    <duration>17218</duration>
    <rate>
        <timebase>23.976</timebase>
        <ntsc>FALSE</ntsc>
    </rate>
    <start>5167</start>
    <end>5178</end>
    <in>5585</in>
    <out>5596</out>
    <file id="file-5"/>
    <sourcetrack>
    <mediatype>audio</mediatype>
    <trackindex>1</trackindex>
</sourcetrack>
    <labels>
        <label2>Iris</label2>
    </labels>
</clipitem>
<clipitem id="df4b7a03-f306-446a-aa6d-6b06cb95d668" premiereChannelType="stereo">
    <masterclipid>masterclip-1</masterclipid>
    <name>S01E45.Jiggles.mkv</name>
    <enabled>TRUE</enabled>
    <duration>17218</duration>
    <rate>
        <timebase>23.976</timebase>
        <ntsc>FALSE</ntsc>
    </rate>
    <start>5178</start>
    <end>5193</end>
    <in>5596</in>
    <out>5611</out>
    <file id="file-5"/>
    <sourcetrack>
    <mediatype>audio</mediatype>
    <trackindex>1</trackindex>
</sourcetrack>
    <labels>
        <label2>Iris</label2>
    </labels>
</clipitem>
<clipitem id="a3d156a0-6e78-4952-a8cc-72e7d97b095d" premiereChannelType="stereo">
    <masterclipid>masterclip-1</masterclipid>
    <name>S01E45.Jiggles.mkv</name>
    <enabled>TRUE</enabled>
    <duration>17218</duration>
    <rate>
        <timebase>23.976</timebase>
        <ntsc>FALSE</ntsc>
    </rate>
    <start>5193</start>
    <end>5207</end>
    <in>5611</in>
    <out>5625</out>
    <file id="file-5"/>
    <sourcetrack>
    <mediatype>audio</mediatype>
    <trackindex>1</trackindex>
</sourcetrack>
    <labels>
        <label2>Iris</label2>
    </labels>
</clipitem>
<clipitem id="256c170f-b27e-4f24-aa5d-20f85fdb10e9" premiereChannelType="stereo">
    <masterclipid>masterclip-1</masterclipid>
    <name>S01E45.Jiggles.mkv</name>
    <enabled>TRUE</enabled>
    <duration>17218</duration>
    <rate>
        <timebase>23.976</timebase>
        <ntsc>FALSE</ntsc>
    </rate>
    <start>5207</start>
    <end>5222</end>
    <in>5625</in>
    <out>5640</out>
    <file id="file-5"/>
    <sourcetrack>
    <mediatype>audio</mediatype>
    <trackindex>1</trackindex>
</sourcetrack>
    <labels>
        <label2>Iris</label2>
    </labels>
</clipitem>
<clipitem id="e4fce422-961c-4b0e-a8fc-2ff08e48b59b" premiereChannelType="stereo">
    <masterclipid>masterclip-1</masterclipid>
    <name>S01E45.Jiggles.mkv</name>
    <enabled>TRUE</enabled>
    <duration>17218</duration>
    <rate>
        <timebase>23.976</timebase>
        <ntsc>FALSE</ntsc>
    </rate>
    <start>5222</start>
    <end>5234</end>
    <in>5640</in>
    <out>5652</out>
    <file id="file-5"/>
    <sourcetrack>
    <mediatype>audio</mediatype>
    <trackindex>1</trackindex>
</sourcetrack>
    <labels>
        <label2>Iris</label2>
    </labels>
</clipitem>
<clipitem id="50f81753-3439-4283-9248-1c145230a434" premiereChannelType="stereo">
    <masterclipid>masterclip-1</masterclipid>
    <name>S01E45.Jiggles.mkv</name>
    <enabled>TRUE</enabled>
    <duration>17218</duration>
    <rate>
        <timebase>23.976</timebase>
        <ntsc>FALSE</ntsc>
    </rate>
    <start>5234</start>
    <end>5246</end>
    <in>5652</in>
    <out>5664</out>
    <file id="file-5"/>
    <sourcetrack>
    <mediatype>audio</mediatype>
    <trackindex>1</trackindex>
</sourcetrack>
    <labels>
        <label2>Iris</label2>
    </labels>
</clipitem>
<clipitem id="5c7c2174-ffb7-4f04-a284-feae7b78a7e6" premiereChannelType="stereo">
    <masterclipid>masterclip-1</masterclipid>
    <name>S01E45.Jiggles.mkv</name>
    <enabled>TRUE</enabled>
    <duration>17218</duration>
    <rate>
        <timebase>23.976</timebase>
        <ntsc>FALSE</ntsc>
    </rate>
    <start>5246</start>
    <end>5258</end>
    <in>5664</in>
    <out>5676</out>
    <file id="file-5"/>
    <sourcetrack>
    <mediatype>audio</mediatype>
    <trackindex>1</trackindex>
</sourcetrack>
    <labels>
        <label2>Iris</label2>
    </labels>
</clipitem>
<clipitem id="376367d1-8173-45d5-8c15-b46d3b912573" premiereChannelType="stereo">
    <masterclipid>masterclip-1</masterclipid>
    <name>S01E45.Jiggles.mkv</name>
    <enabled>TRUE</enabled>
    <duration>17218</duration>
    <rate>
        <timebase>23.976</timebase>
        <ntsc>FALSE</ntsc>
    </rate>
    <start>5258</start>
    <end>5322</end>
    <in>5676</in>
    <out>5740</out>
    <file id="file-5"/>
    <sourcetrack>
    <mediatype>audio</mediatype>
    <trackindex>1</trackindex>
</sourcetrack>
    <labels>
        <label2>Iris</label2>
    </labels>
</clipitem>
<clipitem id="735e692f-1be6-4ed2-b18c-c94a06120b8f" premiereChannelType="stereo">
    <masterclipid>masterclip-1</masterclipid>
    <name>S01E45.Jiggles.mkv</name>
    <enabled>TRUE</enabled>
    <duration>17218</duration>
    <rate>
        <timebase>23.976</timebase>
        <ntsc>FALSE</ntsc>
    </rate>
    <start>5322</start>
    <end>5333</end>
    <in>5740</in>
    <out>5751</out>
    <file id="file-5"/>
    <sourcetrack>
    <mediatype>audio</mediatype>
    <trackindex>1</trackindex>
</sourcetrack>
    <labels>
        <label2>Iris</label2>
    </labels>
</clipitem>
<clipitem id="24501a5e-15dd-4ca3-bfde-0a1c353430b6" premiereChannelType="stereo">
    <masterclipid>masterclip-1</masterclipid>
    <name>S01E45.Jiggles.mkv</name>
    <enabled>TRUE</enabled>
    <duration>17218</duration>
    <rate>
        <timebase>23.976</timebase>
        <ntsc>FALSE</ntsc>
    </rate>
    <start>5333</start>
    <end>5344</end>
    <in>5751</in>
    <out>5762</out>
    <file id="file-5"/>
    <sourcetrack>
    <mediatype>audio</mediatype>
    <trackindex>1</trackindex>
</sourcetrack>
    <labels>
        <label2>Iris</label2>
    </labels>
</clipitem>
<clipitem id="52e3ced6-cbb4-4172-b5a5-67e81f087c2d" premiereChannelType="stereo">
    <masterclipid>masterclip-1</masterclipid>
    <name>S01E45.Jiggles.mkv</name>
    <enabled>TRUE</enabled>
    <duration>17218</duration>
    <rate>
        <timebase>23.976</timebase>
        <ntsc>FALSE</ntsc>
    </rate>
    <start>5344</start>
    <end>5355</end>
    <in>5762</in>
    <out>5773</out>
    <file id="file-5"/>
    <sourcetrack>
    <mediatype>audio</mediatype>
    <trackindex>1</trackindex>
</sourcetrack>
    <labels>
        <label2>Iris</label2>
    </labels>
</clipitem>
<clipitem id="b4be5428-79d6-4eb2-a492-c89e6ce1678b" premiereChannelType="stereo">
    <masterclipid>masterclip-1</masterclipid>
    <name>S01E45.Jiggles.mkv</name>
    <enabled>TRUE</enabled>
    <duration>17218</duration>
    <rate>
        <timebase>23.976</timebase>
        <ntsc>FALSE</ntsc>
    </rate>
    <start>5355</start>
    <end>5376</end>
    <in>5773</in>
    <out>5794</out>
    <file id="file-5"/>
    <sourcetrack>
    <mediatype>audio</mediatype>
    <trackindex>1</trackindex>
</sourcetrack>
    <labels>
        <label2>Iris</label2>
    </labels>
</clipitem>
<clipitem id="b98e5c5a-e579-4da7-84ea-6a29a4be2ea1" premiereChannelType="stereo">
    <masterclipid>masterclip-1</masterclipid>
    <name>S01E45.Jiggles.mkv</name>
    <enabled>TRUE</enabled>
    <duration>17218</duration>
    <rate>
        <timebase>23.976</timebase>
        <ntsc>FALSE</ntsc>
    </rate>
    <start>5376</start>
    <end>5405</end>
    <in>5794</in>
    <out>5823</out>
    <file id="file-5"/>
    <sourcetrack>
    <mediatype>audio</mediatype>
    <trackindex>1</trackindex>
</sourcetrack>
    <labels>
        <label2>Iris</label2>
    </labels>
</clipitem>
<clipitem id="7af4a0c5-5c0b-40d7-95b8-e8ea09837933" premiereChannelType="stereo">
    <masterclipid>masterclip-1</masterclipid>
    <name>S01E45.Jiggles.mkv</name>
    <enabled>TRUE</enabled>
    <duration>17218</duration>
    <rate>
        <timebase>23.976</timebase>
        <ntsc>FALSE</ntsc>
    </rate>
    <start>5405</start>
    <end>5416</end>
    <in>5823</in>
    <out>5834</out>
    <file id="file-5"/>
    <sourcetrack>
    <mediatype>audio</mediatype>
    <trackindex>1</trackindex>
</sourcetrack>
    <labels>
        <label2>Iris</label2>
    </labels>
</clipitem>
<clipitem id="e945ea10-3994-4d4f-b06e-ee315f712b4f" premiereChannelType="stereo">
    <masterclipid>masterclip-1</masterclipid>
    <name>S01E45.Jiggles.mkv</name>
    <enabled>TRUE</enabled>
    <duration>17218</duration>
    <rate>
        <timebase>23.976</timebase>
        <ntsc>FALSE</ntsc>
    </rate>
    <start>5416</start>
    <end>5439</end>
    <in>5834</in>
    <out>5857</out>
    <file id="file-5"/>
    <sourcetrack>
    <mediatype>audio</mediatype>
    <trackindex>1</trackindex>
</sourcetrack>
    <labels>
        <label2>Iris</label2>
    </labels>
</clipitem>
<clipitem id="2d22aefb-f37e-4da3-a42e-a6161ec1deb2" premiereChannelType="stereo">
    <masterclipid>masterclip-1</masterclipid>
    <name>S01E45.Jiggles.mkv</name>
    <enabled>TRUE</enabled>
    <duration>17218</duration>
    <rate>
        <timebase>23.976</timebase>
        <ntsc>FALSE</ntsc>
    </rate>
    <start>5439</start>
    <end>5468</end>
    <in>5857</in>
    <out>5886</out>
    <file id="file-5"/>
    <sourcetrack>
    <mediatype>audio</mediatype>
    <trackindex>1</trackindex>
</sourcetrack>
    <labels>
        <label2>Iris</label2>
    </labels>
</clipitem>
<clipitem id="b4205397-6184-4b5e-88f7-b8bfc30b4755" premiereChannelType="stereo">
    <masterclipid>masterclip-1</masterclipid>
    <name>S01E45.Jiggles.mkv</name>
    <enabled>TRUE</enabled>
    <duration>17218</duration>
    <rate>
        <timebase>23.976</timebase>
        <ntsc>FALSE</ntsc>
    </rate>
    <start>5468</start>
    <end>5495</end>
    <in>5886</in>
    <out>5913</out>
    <file id="file-5"/>
    <sourcetrack>
    <mediatype>audio</mediatype>
    <trackindex>1</trackindex>
</sourcetrack>
    <labels>
        <label2>Iris</label2>
    </labels>
</clipitem>
<clipitem id="3594e4ba-2347-4fca-977d-45288a22e7ab" premiereChannelType="stereo">
    <masterclipid>masterclip-1</masterclipid>
    <name>S01E45.Jiggles.mkv</name>
    <enabled>TRUE</enabled>
    <duration>17218</duration>
    <rate>
        <timebase>23.976</timebase>
        <ntsc>FALSE</ntsc>
    </rate>
    <start>5495</start>
    <end>5541</end>
    <in>5913</in>
    <out>5959</out>
    <file id="file-5"/>
    <sourcetrack>
    <mediatype>audio</mediatype>
    <trackindex>1</trackindex>
</sourcetrack>
    <labels>
        <label2>Iris</label2>
    </labels>
</clipitem>
<clipitem id="1af885d2-d9cd-461d-a5c5-fb65aa3b2736" premiereChannelType="stereo">
    <masterclipid>masterclip-1</masterclipid>
    <name>S01E45.Jiggles.mkv</name>
    <enabled>TRUE</enabled>
    <duration>17218</duration>
    <rate>
        <timebase>23.976</timebase>
        <ntsc>FALSE</ntsc>
    </rate>
    <start>5541</start>
    <end>5565</end>
    <in>5959</in>
    <out>5983</out>
    <file id="file-5"/>
    <sourcetrack>
    <mediatype>audio</mediatype>
    <trackindex>1</trackindex>
</sourcetrack>
    <labels>
        <label2>Iris</label2>
    </labels>
</clipitem>
<clipitem id="39322daf-411e-4be0-9d5b-762364289a0a" premiereChannelType="stereo">
    <masterclipid>masterclip-1</masterclipid>
    <name>S01E45.Jiggles.mkv</name>
    <enabled>TRUE</enabled>
    <duration>17218</duration>
    <rate>
        <timebase>23.976</timebase>
        <ntsc>FALSE</ntsc>
    </rate>
    <start>5565</start>
    <end>5588</end>
    <in>5988</in>
    <out>6011</out>
    <file id="file-5"/>
    <sourcetrack>
    <mediatype>audio</mediatype>
    <trackindex>1</trackindex>
</sourcetrack>
    <labels>
        <label2>Iris</label2>
    </labels>
</clipitem>
<clipitem id="4276b34d-3f27-4651-b171-7fbfa61f0ace" premiereChannelType="stereo">
    <masterclipid>masterclip-1</masterclipid>
    <name>S01E45.Jiggles.mkv</name>
    <enabled>TRUE</enabled>
    <duration>17218</duration>
    <rate>
        <timebase>23.976</timebase>
        <ntsc>FALSE</ntsc>
    </rate>
    <start>5588</start>
    <end>7259</end>
    <in>6004</in>
    <out>7675</out>
    <file id="file-5"/>
    <sourcetrack>
    <mediatype>audio</mediatype>
    <trackindex>1</trackindex>
</sourcetrack>
    <labels>
        <label2>Iris</label2>
    </labels>
</clipitem>
<clipitem id="a11e9352-056c-4293-84b9-3d56880a4156" premiereChannelType="stereo">
    <masterclipid>masterclip-1</masterclipid>
    <name>S01E45.Jiggles.mkv</name>
    <enabled>TRUE</enabled>
    <duration>17218</duration>
    <rate>
        <timebase>23.976</timebase>
        <ntsc>FALSE</ntsc>
    </rate>
    <start>7259</start>
    <end>7317</end>
    <in>7677</in>
    <out>7735</out>
    <file id="file-5"/>
    <sourcetrack>
    <mediatype>audio</mediatype>
    <trackindex>1</trackindex>
</sourcetrack>
    <labels>
        <label2>Iris</label2>
    </labels>
</clipitem>
<clipitem id="b3433856-e662-47c5-8c85-3f54bba59317" premiereChannelType="stereo">
    <masterclipid>masterclip-1</masterclipid>
    <name>S01E45.Jiggles.mkv</name>
    <enabled>TRUE</enabled>
    <duration>17218</duration>
    <rate>
        <timebase>23.976</timebase>
        <ntsc>FALSE</ntsc>
    </rate>
    <start>7317</start>
    <end>7334</end>
    <in>7735</in>
    <out>7752</out>
    <file id="file-5"/>
    <sourcetrack>
    <mediatype>audio</mediatype>
    <trackindex>1</trackindex>
</sourcetrack>
    <labels>
        <label2>Iris</label2>
    </labels>
</clipitem>
<clipitem id="e5af49e1-1626-4023-93b9-fb7a2c2af4c1" premiereChannelType="stereo">
    <masterclipid>masterclip-1</masterclipid>
    <name>S01E45.Jiggles.mkv</name>
    <enabled>TRUE</enabled>
    <duration>17218</duration>
    <rate>
        <timebase>23.976</timebase>
        <ntsc>FALSE</ntsc>
    </rate>
    <start>7334</start>
    <end>7346</end>
    <in>7752</in>
    <out>7764</out>
    <file id="file-5"/>
    <sourcetrack>
    <mediatype>audio</mediatype>
    <trackindex>1</trackindex>
</sourcetrack>
    <labels>
        <label2>Iris</label2>
    </labels>
</clipitem>
<clipitem id="2f9aa7b4-99c3-4629-9f59-7b721f54b78c" premiereChannelType="stereo">
    <masterclipid>masterclip-1</masterclipid>
    <name>S01E45.Jiggles.mkv</name>
    <enabled>TRUE</enabled>
    <duration>17218</duration>
    <rate>
        <timebase>23.976</timebase>
        <ntsc>FALSE</ntsc>
    </rate>
    <start>7346</start>
    <end>7379</end>
    <in>7764</in>
    <out>7797</out>
    <file id="file-5"/>
    <sourcetrack>
    <mediatype>audio</mediatype>
    <trackindex>1</trackindex>
</sourcetrack>
    <labels>
        <label2>Iris</label2>
    </labels>
</clipitem>
<clipitem id="d9d35aaf-d498-45e1-86ec-5f7c5f2e9d6f" premiereChannelType="stereo">
    <masterclipid>masterclip-1</masterclipid>
    <name>S01E45.Jiggles.mkv</name>
    <enabled>TRUE</enabled>
    <duration>17218</duration>
    <rate>
        <timebase>23.976</timebase>
        <ntsc>FALSE</ntsc>
    </rate>
    <start>7379</start>
    <end>7397</end>
    <in>7797</in>
    <out>7815</out>
    <file id="file-5"/>
    <sourcetrack>
    <mediatype>audio</mediatype>
    <trackindex>1</trackindex>
</sourcetrack>
    <labels>
        <label2>Iris</label2>
    </labels>
</clipitem>
<clipitem id="acb2251f-352c-429d-8306-c846f8fa871c" premiereChannelType="stereo">
    <masterclipid>masterclip-1</masterclipid>
    <name>S01E45.Jiggles.mkv</name>
    <enabled>TRUE</enabled>
    <duration>17218</duration>
    <rate>
        <timebase>23.976</timebase>
        <ntsc>FALSE</ntsc>
    </rate>
    <start>7397</start>
    <end>7420</end>
    <in>7822</in>
    <out>7845</out>
    <file id="file-5"/>
    <sourcetrack>
    <mediatype>audio</mediatype>
    <trackindex>1</trackindex>
</sourcetrack>
    <labels>
        <label2>Iris</label2>
    </labels>
</clipitem>
<clipitem id="de8f0446-92d7-46a2-b315-8b1e2b2308b8" premiereChannelType="stereo">
    <masterclipid>masterclip-1</masterclipid>
    <name>S01E45.Jiggles.mkv</name>
    <enabled>TRUE</enabled>
    <duration>17218</duration>
    <rate>
        <timebase>23.976</timebase>
        <ntsc>FALSE</ntsc>
    </rate>
    <start>7420</start>
    <end>7451</end>
    <in>7825</in>
    <out>7856</out>
    <file id="file-5"/>
    <sourcetrack>
    <mediatype>audio</mediatype>
    <trackindex>1</trackindex>
</sourcetrack>
    <labels>
        <label2>Iris</label2>
    </labels>
</clipitem>
<clipitem id="73bd0e4b-a672-4d91-96b3-41526c08cfd3" premiereChannelType="stereo">
    <masterclipid>masterclip-1</masterclipid>
    <name>S01E45.Jiggles.mkv</name>
    <enabled>TRUE</enabled>
    <duration>17218</duration>
    <rate>
        <timebase>23.976</timebase>
        <ntsc>FALSE</ntsc>
    </rate>
    <start>7451</start>
    <end>7477</end>
    <in>7866</in>
    <out>7892</out>
    <file id="file-5"/>
    <sourcetrack>
    <mediatype>audio</mediatype>
    <trackindex>1</trackindex>
</sourcetrack>
    <labels>
        <label2>Iris</label2>
    </labels>
</clipitem>
<clipitem id="801cdb4e-bef5-4194-9b7a-aff90e9c50a2" premiereChannelType="stereo">
    <masterclipid>masterclip-1</masterclipid>
    <name>S01E45.Jiggles.mkv</name>
    <enabled>TRUE</enabled>
    <duration>17218</duration>
    <rate>
        <timebase>23.976</timebase>
        <ntsc>FALSE</ntsc>
    </rate>
    <start>7477</start>
    <end>7578</end>
    <in>7895</in>
    <out>7996</out>
    <file id="file-5"/>
    <sourcetrack>
    <mediatype>audio</mediatype>
    <trackindex>1</trackindex>
</sourcetrack>
    <labels>
        <label2>Iris</label2>
    </labels>
</clipitem>
<clipitem id="69abb2d5-783f-4afd-a83f-b35ad603dbbb" premiereChannelType="stereo">
    <masterclipid>masterclip-1</masterclipid>
    <name>S01E45.Jiggles.mkv</name>
    <enabled>TRUE</enabled>
    <duration>17218</duration>
    <rate>
        <timebase>23.976</timebase>
        <ntsc>FALSE</ntsc>
    </rate>
    <start>7578</start>
    <end>7589</end>
    <in>7996</in>
    <out>8007</out>
    <file id="file-5"/>
    <sourcetrack>
    <mediatype>audio</mediatype>
    <trackindex>1</trackindex>
</sourcetrack>
    <labels>
        <label2>Iris</label2>
    </labels>
</clipitem>
<clipitem id="06d76e42-8c20-4e0c-95cf-b97b59c20a73" premiereChannelType="stereo">
    <masterclipid>masterclip-1</masterclipid>
    <name>S01E45.Jiggles.mkv</name>
    <enabled>TRUE</enabled>
    <duration>17218</duration>
    <rate>
        <timebase>23.976</timebase>
        <ntsc>FALSE</ntsc>
    </rate>
    <start>7589</start>
    <end>7602</end>
    <in>8007</in>
    <out>8020</out>
    <file id="file-5"/>
    <sourcetrack>
    <mediatype>audio</mediatype>
    <trackindex>1</trackindex>
</sourcetrack>
    <labels>
        <label2>Iris</label2>
    </labels>
</clipitem>
<clipitem id="cdddb3c7-be09-434c-b215-8db1856afe50" premiereChannelType="stereo">
    <masterclipid>masterclip-1</masterclipid>
    <name>S01E45.Jiggles.mkv</name>
    <enabled>TRUE</enabled>
    <duration>17218</duration>
    <rate>
        <timebase>23.976</timebase>
        <ntsc>FALSE</ntsc>
    </rate>
    <start>7602</start>
    <end>7677</end>
    <in>8020</in>
    <out>8095</out>
    <file id="file-5"/>
    <sourcetrack>
    <mediatype>audio</mediatype>
    <trackindex>1</trackindex>
</sourcetrack>
    <labels>
        <label2>Iris</label2>
    </labels>
</clipitem>
<clipitem id="29dc6939-ec7f-4db1-87e7-9dc0b9c5c90d" premiereChannelType="stereo">
    <masterclipid>masterclip-1</masterclipid>
    <name>S01E45.Jiggles.mkv</name>
    <enabled>TRUE</enabled>
    <duration>17218</duration>
    <rate>
        <timebase>23.976</timebase>
        <ntsc>FALSE</ntsc>
    </rate>
    <start>7677</start>
    <end>8917</end>
    <in>8094</in>
    <out>9334</out>
    <file id="file-5"/>
    <sourcetrack>
    <mediatype>audio</mediatype>
    <trackindex>1</trackindex>
</sourcetrack>
    <labels>
        <label2>Iris</label2>
    </labels>
</clipitem>
<clipitem id="1a82f877-be31-4a8b-bb35-05d4603b3dd5" premiereChannelType="stereo">
    <masterclipid>masterclip-1</masterclipid>
    <name>S01E45.Jiggles.mkv</name>
    <enabled>TRUE</enabled>
    <duration>17218</duration>
    <rate>
        <timebase>23.976</timebase>
        <ntsc>FALSE</ntsc>
    </rate>
    <start>8917</start>
    <end>8962</end>
    <in>9334</in>
    <out>9379</out>
    <file id="file-5"/>
    <sourcetrack>
    <mediatype>audio</mediatype>
    <trackindex>1</trackindex>
</sourcetrack>
    <labels>
        <label2>Iris</label2>
    </labels>
</clipitem>
<clipitem id="8c6e9b73-35f0-4aba-82e7-d9480d10a420" premiereChannelType="stereo">
    <masterclipid>masterclip-1</masterclipid>
    <name>S01E45.Jiggles.mkv</name>
    <enabled>TRUE</enabled>
    <duration>17218</duration>
    <rate>
        <timebase>23.976</timebase>
        <ntsc>FALSE</ntsc>
    </rate>
    <start>8962</start>
    <end>8974</end>
    <in>9379</in>
    <out>9391</out>
    <file id="file-5"/>
    <sourcetrack>
    <mediatype>audio</mediatype>
    <trackindex>1</trackindex>
</sourcetrack>
    <labels>
        <label2>Iris</label2>
    </labels>
</clipitem>
<clipitem id="070d06b0-b52d-41a4-a265-d6bbb376a116" premiereChannelType="stereo">
    <masterclipid>masterclip-1</masterclipid>
    <name>S01E45.Jiggles.mkv</name>
    <enabled>TRUE</enabled>
    <duration>17218</duration>
    <rate>
        <timebase>23.976</timebase>
        <ntsc>FALSE</ntsc>
    </rate>
    <start>8974</start>
    <end>8985</end>
    <in>9391</in>
    <out>9402</out>
    <file id="file-5"/>
    <sourcetrack>
    <mediatype>audio</mediatype>
    <trackindex>1</trackindex>
</sourcetrack>
    <labels>
        <label2>Iris</label2>
    </labels>
</clipitem>
<clipitem id="f859f0b8-5cd7-4d6e-8c6d-250dd6127dda" premiereChannelType="stereo">
    <masterclipid>masterclip-1</masterclipid>
    <name>S01E45.Jiggles.mkv</name>
    <enabled>TRUE</enabled>
    <duration>17218</duration>
    <rate>
        <timebase>23.976</timebase>
        <ntsc>FALSE</ntsc>
    </rate>
    <start>8985</start>
    <end>8996</end>
    <in>9402</in>
    <out>9413</out>
    <file id="file-5"/>
    <sourcetrack>
    <mediatype>audio</mediatype>
    <trackindex>1</trackindex>
</sourcetrack>
    <labels>
        <label2>Iris</label2>
    </labels>
</clipitem>
<clipitem id="f9c24c4a-80e3-4fea-a91a-ae977fafaa09" premiereChannelType="stereo">
    <masterclipid>masterclip-1</masterclipid>
    <name>S01E45.Jiggles.mkv</name>
    <enabled>TRUE</enabled>
    <duration>17218</duration>
    <rate>
        <timebase>23.976</timebase>
        <ntsc>FALSE</ntsc>
    </rate>
    <start>8996</start>
    <end>9064</end>
    <in>9413</in>
    <out>9481</out>
    <file id="file-5"/>
    <sourcetrack>
    <mediatype>audio</mediatype>
    <trackindex>1</trackindex>
</sourcetrack>
    <labels>
        <label2>Iris</label2>
    </labels>
</clipitem>
<clipitem id="f60f7ed7-95e2-4eb1-b5d0-fb35c1be1334" premiereChannelType="stereo">
    <masterclipid>masterclip-1</masterclipid>
    <name>S01E45.Jiggles.mkv</name>
    <enabled>TRUE</enabled>
    <duration>17218</duration>
    <rate>
        <timebase>23.976</timebase>
        <ntsc>FALSE</ntsc>
    </rate>
    <start>9064</start>
    <end>9541</end>
    <in>9480</in>
    <out>9957</out>
    <file id="file-5"/>
    <sourcetrack>
    <mediatype>audio</mediatype>
    <trackindex>1</trackindex>
</sourcetrack>
    <labels>
        <label2>Iris</label2>
    </labels>
</clipitem>
<clipitem id="20aca2b1-564f-4b6b-a843-77b848693335" premiereChannelType="stereo">
    <masterclipid>masterclip-1</masterclipid>
    <name>S01E45.Jiggles.mkv</name>
    <enabled>TRUE</enabled>
    <duration>17218</duration>
    <rate>
        <timebase>23.976</timebase>
        <ntsc>FALSE</ntsc>
    </rate>
    <start>9541</start>
    <end>9581</end>
    <in>9958</in>
    <out>9998</out>
    <file id="file-5"/>
    <sourcetrack>
    <mediatype>audio</mediatype>
    <trackindex>1</trackindex>
</sourcetrack>
    <labels>
        <label2>Iris</label2>
    </labels>
</clipitem>
<clipitem id="1b27da2b-f4d6-40af-959d-cbcd0455d10f" premiereChannelType="stereo">
    <masterclipid>masterclip-1</masterclipid>
    <name>S01E45.Jiggles.mkv</name>
    <enabled>TRUE</enabled>
    <duration>17218</duration>
    <rate>
        <timebase>23.976</timebase>
        <ntsc>FALSE</ntsc>
    </rate>
    <start>9583</start>
    <end>9624</end>
    <in>10000</in>
    <out>10041</out>
    <file id="file-5"/>
    <sourcetrack>
    <mediatype>audio</mediatype>
    <trackindex>1</trackindex>
</sourcetrack>
    <labels>
        <label2>Iris</label2>
    </labels>
</clipitem>
<clipitem id="b0bdae8d-77f9-4503-a871-87d464bff5e4" premiereChannelType="stereo">
    <masterclipid>masterclip-1</masterclipid>
    <name>S01E45.Jiggles.mkv</name>
    <enabled>TRUE</enabled>
    <duration>17218</duration>
    <rate>
        <timebase>23.976</timebase>
        <ntsc>FALSE</ntsc>
    </rate>
    <start>9627</start>
    <end>9698</end>
    <in>10043</in>
    <out>10114</out>
    <file id="file-5"/>
    <sourcetrack>
    <mediatype>audio</mediatype>
    <trackindex>1</trackindex>
</sourcetrack>
    <labels>
        <label2>Iris</label2>
    </labels>
</clipitem>
<clipitem id="2abb061c-89ad-46d3-ad2c-ffb0585e91c2" premiereChannelType="stereo">
    <masterclipid>masterclip-1</masterclipid>
    <name>S01E45.Jiggles.mkv</name>
    <enabled>TRUE</enabled>
    <duration>17218</duration>
    <rate>
        <timebase>23.976</timebase>
        <ntsc>FALSE</ntsc>
    </rate>
    <start>9700</start>
    <end>9726</end>
    <in>10116</in>
    <out>10142</out>
    <file id="file-5"/>
    <sourcetrack>
    <mediatype>audio</mediatype>
    <trackindex>1</trackindex>
</sourcetrack>
    <labels>
        <label2>Iris</label2>
    </labels>
</clipitem>
<clipitem id="d38b1795-642e-4e01-995e-1ddd46511d52" premiereChannelType="stereo">
    <masterclipid>masterclip-1</masterclipid>
    <name>S01E45.Jiggles.mkv</name>
    <enabled>TRUE</enabled>
    <duration>17218</duration>
    <rate>
        <timebase>23.976</timebase>
        <ntsc>FALSE</ntsc>
    </rate>
    <start>9728</start>
    <end>9775</end>
    <in>10144</in>
    <out>10191</out>
    <file id="file-5"/>
    <sourcetrack>
    <mediatype>audio</mediatype>
    <trackindex>1</trackindex>
</sourcetrack>
    <labels>
        <label2>Iris</label2>
    </labels>
</clipitem>
<clipitem id="dae822dd-af49-4968-b06e-91c778ba061e" premiereChannelType="stereo">
    <masterclipid>masterclip-1</masterclipid>
    <name>S01E45.Jiggles.mkv</name>
    <enabled>TRUE</enabled>
    <duration>17218</duration>
    <rate>
        <timebase>23.976</timebase>
        <ntsc>FALSE</ntsc>
    </rate>
    <start>9776</start>
    <end>9909</end>
    <in>10192</in>
    <out>10325</out>
    <file id="file-5"/>
    <sourcetrack>
    <mediatype>audio</mediatype>
    <trackindex>1</trackindex>
</sourcetrack>
    <labels>
        <label2>Iris</label2>
    </labels>
</clipitem>
<clipitem id="2385a899-7eca-4275-9906-67e2d47bc452" premiereChannelType="stereo">
    <masterclipid>masterclip-1</masterclipid>
    <name>S01E45.Jiggles.mkv</name>
    <enabled>TRUE</enabled>
    <duration>17218</duration>
    <rate>
        <timebase>23.976</timebase>
        <ntsc>FALSE</ntsc>
    </rate>
    <start>9909</start>
    <end>9954</end>
    <in>10325</in>
    <out>10370</out>
    <file id="file-5"/>
    <sourcetrack>
    <mediatype>audio</mediatype>
    <trackindex>1</trackindex>
</sourcetrack>
    <labels>
        <label2>Iris</label2>
    </labels>
</clipitem>
<clipitem id="f65195e5-6d86-4cf4-821b-eb35591e0565" premiereChannelType="stereo">
    <masterclipid>masterclip-1</masterclipid>
    <name>S01E45.Jiggles.mkv</name>
    <enabled>TRUE</enabled>
    <duration>17218</duration>
    <rate>
        <timebase>23.976</timebase>
        <ntsc>FALSE</ntsc>
    </rate>
    <start>9954</start>
    <end>10018</end>
    <in>10369</in>
    <out>10433</out>
    <file id="file-5"/>
    <sourcetrack>
    <mediatype>audio</mediatype>
    <trackindex>1</trackindex>
</sourcetrack>
    <labels>
        <label2>Iris</label2>
    </labels>
</clipitem>
<clipitem id="7eacbd95-6e10-4300-96d8-4138799071dc" premiereChannelType="stereo">
    <masterclipid>masterclip-1</masterclipid>
    <name>S01E45.Jiggles.mkv</name>
    <enabled>TRUE</enabled>
    <duration>17218</duration>
    <rate>
        <timebase>23.976</timebase>
        <ntsc>FALSE</ntsc>
    </rate>
    <start>10018</start>
    <end>10037</end>
    <in>10434</in>
    <out>10453</out>
    <file id="file-5"/>
    <sourcetrack>
    <mediatype>audio</mediatype>
    <trackindex>1</trackindex>
</sourcetrack>
    <labels>
        <label2>Iris</label2>
    </labels>
</clipitem>
<clipitem id="e60dec49-94ca-40e2-9b61-e5edf1a169a6" premiereChannelType="stereo">
    <masterclipid>masterclip-1</masterclipid>
    <name>S01E45.Jiggles.mkv</name>
    <enabled>TRUE</enabled>
    <duration>17218</duration>
    <rate>
        <timebase>23.976</timebase>
        <ntsc>FALSE</ntsc>
    </rate>
    <start>10037</start>
    <end>10057</end>
    <in>10453</in>
    <out>10473</out>
    <file id="file-5"/>
    <sourcetrack>
    <mediatype>audio</mediatype>
    <trackindex>1</trackindex>
</sourcetrack>
    <labels>
        <label2>Iris</label2>
    </labels>
</clipitem>
<clipitem id="d6d01c3e-c0b5-4f3c-ab5b-132a1aca9ffb" premiereChannelType="stereo">
    <masterclipid>masterclip-1</masterclipid>
    <name>S01E45.Jiggles.mkv</name>
    <enabled>TRUE</enabled>
    <duration>17218</duration>
    <rate>
        <timebase>23.976</timebase>
        <ntsc>FALSE</ntsc>
    </rate>
    <start>10057</start>
    <end>10077</end>
    <in>10473</in>
    <out>10493</out>
    <file id="file-5"/>
    <sourcetrack>
    <mediatype>audio</mediatype>
    <trackindex>1</trackindex>
</sourcetrack>
    <labels>
        <label2>Iris</label2>
    </labels>
</clipitem>
<clipitem id="1c729305-0128-4e65-8e23-5f602068817f" premiereChannelType="stereo">
    <masterclipid>masterclip-1</masterclipid>
    <name>S01E45.Jiggles.mkv</name>
    <enabled>TRUE</enabled>
    <duration>17218</duration>
    <rate>
        <timebase>23.976</timebase>
        <ntsc>FALSE</ntsc>
    </rate>
    <start>10077</start>
    <end>10094</end>
    <in>10493</in>
    <out>10510</out>
    <file id="file-5"/>
    <sourcetrack>
    <mediatype>audio</mediatype>
    <trackindex>1</trackindex>
</sourcetrack>
    <labels>
        <label2>Iris</label2>
    </labels>
</clipitem>
<clipitem id="e399634a-008e-4c9b-bbd5-efa86ad6af39" premiereChannelType="stereo">
    <masterclipid>masterclip-1</masterclipid>
    <name>S01E45.Jiggles.mkv</name>
    <enabled>TRUE</enabled>
    <duration>17218</duration>
    <rate>
        <timebase>23.976</timebase>
        <ntsc>FALSE</ntsc>
    </rate>
    <start>10094</start>
    <end>10114</end>
    <in>10510</in>
    <out>10530</out>
    <file id="file-5"/>
    <sourcetrack>
    <mediatype>audio</mediatype>
    <trackindex>1</trackindex>
</sourcetrack>
    <labels>
        <label2>Iris</label2>
    </labels>
</clipitem>
<clipitem id="b4bc8edf-4e36-40b8-85bc-a0e6a1d8618a" premiereChannelType="stereo">
    <masterclipid>masterclip-1</masterclipid>
    <name>S01E45.Jiggles.mkv</name>
    <enabled>TRUE</enabled>
    <duration>17218</duration>
    <rate>
        <timebase>23.976</timebase>
        <ntsc>FALSE</ntsc>
    </rate>
    <start>10114</start>
    <end>10143</end>
    <in>10530</in>
    <out>10559</out>
    <file id="file-5"/>
    <sourcetrack>
    <mediatype>audio</mediatype>
    <trackindex>1</trackindex>
</sourcetrack>
    <labels>
        <label2>Iris</label2>
    </labels>
</clipitem>
<clipitem id="7c1a2aa8-1a11-4c1d-8180-af1a62c91412" premiereChannelType="stereo">
    <masterclipid>masterclip-1</masterclipid>
    <name>S01E45.Jiggles.mkv</name>
    <enabled>TRUE</enabled>
    <duration>17218</duration>
    <rate>
        <timebase>23.976</timebase>
        <ntsc>FALSE</ntsc>
    </rate>
    <start>10143</start>
    <end>10161</end>
    <in>10559</in>
    <out>10577</out>
    <file id="file-5"/>
    <sourcetrack>
    <mediatype>audio</mediatype>
    <trackindex>1</trackindex>
</sourcetrack>
    <labels>
        <label2>Iris</label2>
    </labels>
</clipitem>
<clipitem id="d3a17b8d-02c9-4872-9b14-6f42e5a7abdc" premiereChannelType="stereo">
    <masterclipid>masterclip-1</masterclipid>
    <name>S01E45.Jiggles.mkv</name>
    <enabled>TRUE</enabled>
    <duration>17218</duration>
    <rate>
        <timebase>23.976</timebase>
        <ntsc>FALSE</ntsc>
    </rate>
    <start>10161</start>
    <end>10181</end>
    <in>10577</in>
    <out>10597</out>
    <file id="file-5"/>
    <sourcetrack>
    <mediatype>audio</mediatype>
    <trackindex>1</trackindex>
</sourcetrack>
    <labels>
        <label2>Iris</label2>
    </labels>
</clipitem>
<clipitem id="7aa02607-975b-4a82-82f0-bb81b584b0e7" premiereChannelType="stereo">
    <masterclipid>masterclip-1</masterclipid>
    <name>S01E45.Jiggles.mkv</name>
    <enabled>TRUE</enabled>
    <duration>17218</duration>
    <rate>
        <timebase>23.976</timebase>
        <ntsc>FALSE</ntsc>
    </rate>
    <start>10181</start>
    <end>10597</end>
    <in>10596</in>
    <out>11012</out>
    <file id="file-5"/>
    <sourcetrack>
    <mediatype>audio</mediatype>
    <trackindex>1</trackindex>
</sourcetrack>
    <labels>
        <label2>Iris</label2>
    </labels>
</clipitem>
<clipitem id="48f7f4db-d54b-4931-9ef3-97e94a2d7ba0" premiereChannelType="stereo">
    <masterclipid>masterclip-1</masterclipid>
    <name>S01E45.Jiggles.mkv</name>
    <enabled>TRUE</enabled>
    <duration>17218</duration>
    <rate>
        <timebase>23.976</timebase>
        <ntsc>FALSE</ntsc>
    </rate>
    <start>10597</start>
    <end>10629</end>
    <in>11014</in>
    <out>11046</out>
    <file id="file-5"/>
    <sourcetrack>
    <mediatype>audio</mediatype>
    <trackindex>1</trackindex>
</sourcetrack>
    <labels>
        <label2>Iris</label2>
    </labels>
</clipitem>
<clipitem id="bcd539fb-d518-49b3-88ab-5b8d54e41e06" premiereChannelType="stereo">
    <masterclipid>masterclip-1</masterclipid>
    <name>S01E45.Jiggles.mkv</name>
    <enabled>TRUE</enabled>
    <duration>17218</duration>
    <rate>
        <timebase>23.976</timebase>
        <ntsc>FALSE</ntsc>
    </rate>
    <start>10629</start>
    <end>11004</end>
    <in>11045</in>
    <out>11420</out>
    <file id="file-5"/>
    <sourcetrack>
    <mediatype>audio</mediatype>
    <trackindex>1</trackindex>
</sourcetrack>
    <labels>
        <label2>Iris</label2>
    </labels>
</clipitem>
<clipitem id="4461eab2-fa97-4123-8274-dce284237730" premiereChannelType="stereo">
    <masterclipid>masterclip-1</masterclipid>
    <name>S01E45.Jiggles.mkv</name>
    <enabled>TRUE</enabled>
    <duration>17218</duration>
    <rate>
        <timebase>23.976</timebase>
        <ntsc>FALSE</ntsc>
    </rate>
    <start>11004</start>
    <end>11036</end>
    <in>11422</in>
    <out>11454</out>
    <file id="file-5"/>
    <sourcetrack>
    <mediatype>audio</mediatype>
    <trackindex>1</trackindex>
</sourcetrack>
    <labels>
        <label2>Iris</label2>
    </labels>
</clipitem>
<clipitem id="0720bdac-04e8-45cf-a830-d7b9e29a758f" premiereChannelType="stereo">
    <masterclipid>masterclip-1</masterclipid>
    <name>S01E45.Jiggles.mkv</name>
    <enabled>TRUE</enabled>
    <duration>17218</duration>
    <rate>
        <timebase>23.976</timebase>
        <ntsc>FALSE</ntsc>
    </rate>
    <start>11036</start>
    <end>11064</end>
    <in>11454</in>
    <out>11482</out>
    <file id="file-5"/>
    <sourcetrack>
    <mediatype>audio</mediatype>
    <trackindex>1</trackindex>
</sourcetrack>
    <labels>
        <label2>Iris</label2>
    </labels>
</clipitem>
<clipitem id="4ea41493-c01d-45a9-91c7-260f3406fe2c" premiereChannelType="stereo">
    <masterclipid>masterclip-1</masterclipid>
    <name>S01E45.Jiggles.mkv</name>
    <enabled>TRUE</enabled>
    <duration>17218</duration>
    <rate>
        <timebase>23.976</timebase>
        <ntsc>FALSE</ntsc>
    </rate>
    <start>11064</start>
    <end>11117</end>
    <in>11482</in>
    <out>11535</out>
    <file id="file-5"/>
    <sourcetrack>
    <mediatype>audio</mediatype>
    <trackindex>1</trackindex>
</sourcetrack>
    <labels>
        <label2>Iris</label2>
    </labels>
</clipitem>
<clipitem id="d52a85a3-7ec5-4eee-bea1-886462f06465" premiereChannelType="stereo">
    <masterclipid>masterclip-1</masterclipid>
    <name>S01E45.Jiggles.mkv</name>
    <enabled>TRUE</enabled>
    <duration>17218</duration>
    <rate>
        <timebase>23.976</timebase>
        <ntsc>FALSE</ntsc>
    </rate>
    <start>11117</start>
    <end>11165</end>
    <in>11535</in>
    <out>11583</out>
    <file id="file-5"/>
    <sourcetrack>
    <mediatype>audio</mediatype>
    <trackindex>1</trackindex>
</sourcetrack>
    <labels>
        <label2>Iris</label2>
    </labels>
</clipitem>
<clipitem id="5e0366ad-673e-4963-bb11-746f132d3af2" premiereChannelType="stereo">
    <masterclipid>masterclip-1</masterclipid>
    <name>S01E45.Jiggles.mkv</name>
    <enabled>TRUE</enabled>
    <duration>17218</duration>
    <rate>
        <timebase>23.976</timebase>
        <ntsc>FALSE</ntsc>
    </rate>
    <start>11165</start>
    <end>11324</end>
    <in>11584</in>
    <out>11743</out>
    <file id="file-5"/>
    <sourcetrack>
    <mediatype>audio</mediatype>
    <trackindex>1</trackindex>
</sourcetrack>
    <labels>
        <label2>Iris</label2>
    </labels>
</clipitem>
<clipitem id="0528fab9-4cb7-4db6-8073-bb79f816b617" premiereChannelType="stereo">
    <masterclipid>masterclip-1</masterclipid>
    <name>S01E45.Jiggles.mkv</name>
    <enabled>TRUE</enabled>
    <duration>17218</duration>
    <rate>
        <timebase>23.976</timebase>
        <ntsc>FALSE</ntsc>
    </rate>
    <start>11324</start>
    <end>11339</end>
    <in>11742</in>
    <out>11757</out>
    <file id="file-5"/>
    <sourcetrack>
    <mediatype>audio</mediatype>
    <trackindex>1</trackindex>
</sourcetrack>
    <labels>
        <label2>Iris</label2>
    </labels>
</clipitem>
<clipitem id="a35b9a9a-eed5-4c2b-ad08-ab26602ce7d0" premiereChannelType="stereo">
    <masterclipid>masterclip-1</masterclipid>
    <name>S01E45.Jiggles.mkv</name>
    <enabled>TRUE</enabled>
    <duration>17218</duration>
    <rate>
        <timebase>23.976</timebase>
        <ntsc>FALSE</ntsc>
    </rate>
    <start>11339</start>
    <end>11350</end>
    <in>11757</in>
    <out>11768</out>
    <file id="file-5"/>
    <sourcetrack>
    <mediatype>audio</mediatype>
    <trackindex>1</trackindex>
</sourcetrack>
    <labels>
        <label2>Iris</label2>
    </labels>
</clipitem>
<clipitem id="a871914d-14c8-4bd0-aea8-4db7903252f4" premiereChannelType="stereo">
    <masterclipid>masterclip-1</masterclipid>
    <name>S01E45.Jiggles.mkv</name>
    <enabled>TRUE</enabled>
    <duration>17218</duration>
    <rate>
        <timebase>23.976</timebase>
        <ntsc>FALSE</ntsc>
    </rate>
    <start>11350</start>
    <end>11376</end>
    <in>11768</in>
    <out>11794</out>
    <file id="file-5"/>
    <sourcetrack>
    <mediatype>audio</mediatype>
    <trackindex>1</trackindex>
</sourcetrack>
    <labels>
        <label2>Iris</label2>
    </labels>
</clipitem>
<clipitem id="5072a1e4-b652-46a3-9deb-32ac618b0f30" premiereChannelType="stereo">
    <masterclipid>masterclip-1</masterclipid>
    <name>S01E45.Jiggles.mkv</name>
    <enabled>TRUE</enabled>
    <duration>17218</duration>
    <rate>
        <timebase>23.976</timebase>
        <ntsc>FALSE</ntsc>
    </rate>
    <start>11376</start>
    <end>11387</end>
    <in>11794</in>
    <out>11805</out>
    <file id="file-5"/>
    <sourcetrack>
    <mediatype>audio</mediatype>
    <trackindex>1</trackindex>
</sourcetrack>
    <labels>
        <label2>Iris</label2>
    </labels>
</clipitem>
<clipitem id="f186f927-8616-48a6-86d6-94229cff5ead" premiereChannelType="stereo">
    <masterclipid>masterclip-1</masterclipid>
    <name>S01E45.Jiggles.mkv</name>
    <enabled>TRUE</enabled>
    <duration>17218</duration>
    <rate>
        <timebase>23.976</timebase>
        <ntsc>FALSE</ntsc>
    </rate>
    <start>11387</start>
    <end>11403</end>
    <in>11805</in>
    <out>11821</out>
    <file id="file-5"/>
    <sourcetrack>
    <mediatype>audio</mediatype>
    <trackindex>1</trackindex>
</sourcetrack>
    <labels>
        <label2>Iris</label2>
    </labels>
</clipitem>
<clipitem id="0c61c922-81ec-4d4f-bbb3-de1a32d07d40" premiereChannelType="stereo">
    <masterclipid>masterclip-1</masterclipid>
    <name>S01E45.Jiggles.mkv</name>
    <enabled>TRUE</enabled>
    <duration>17218</duration>
    <rate>
        <timebase>23.976</timebase>
        <ntsc>FALSE</ntsc>
    </rate>
    <start>11403</start>
    <end>11435</end>
    <in>11821</in>
    <out>11853</out>
    <file id="file-5"/>
    <sourcetrack>
    <mediatype>audio</mediatype>
    <trackindex>1</trackindex>
</sourcetrack>
    <labels>
        <label2>Iris</label2>
    </labels>
</clipitem>
<clipitem id="8cbcd544-3740-4bab-a0d4-715ecdd896ca" premiereChannelType="stereo">
    <masterclipid>masterclip-1</masterclipid>
    <name>S01E45.Jiggles.mkv</name>
    <enabled>TRUE</enabled>
    <duration>17218</duration>
    <rate>
        <timebase>23.976</timebase>
        <ntsc>FALSE</ntsc>
    </rate>
    <start>11435</start>
    <end>11463</end>
    <in>11853</in>
    <out>11881</out>
    <file id="file-5"/>
    <sourcetrack>
    <mediatype>audio</mediatype>
    <trackindex>1</trackindex>
</sourcetrack>
    <labels>
        <label2>Iris</label2>
    </labels>
</clipitem>
<clipitem id="d082ff0a-fdb6-4303-a851-066330b17425" premiereChannelType="stereo">
    <masterclipid>masterclip-1</masterclipid>
    <name>S01E45.Jiggles.mkv</name>
    <enabled>TRUE</enabled>
    <duration>17218</duration>
    <rate>
        <timebase>23.976</timebase>
        <ntsc>FALSE</ntsc>
    </rate>
    <start>11463</start>
    <end>11478</end>
    <in>11881</in>
    <out>11896</out>
    <file id="file-5"/>
    <sourcetrack>
    <mediatype>audio</mediatype>
    <trackindex>1</trackindex>
</sourcetrack>
    <labels>
        <label2>Iris</label2>
    </labels>
</clipitem>
<clipitem id="36e404b9-bafd-4ae3-9b19-5e2a2ee319c9" premiereChannelType="stereo">
    <masterclipid>masterclip-1</masterclipid>
    <name>S01E45.Jiggles.mkv</name>
    <enabled>TRUE</enabled>
    <duration>17218</duration>
    <rate>
        <timebase>23.976</timebase>
        <ntsc>FALSE</ntsc>
    </rate>
    <start>11478</start>
    <end>11489</end>
    <in>11896</in>
    <out>11907</out>
    <file id="file-5"/>
    <sourcetrack>
    <mediatype>audio</mediatype>
    <trackindex>1</trackindex>
</sourcetrack>
    <labels>
        <label2>Iris</label2>
    </labels>
</clipitem>
<clipitem id="d1d4d244-411f-4ff4-ac8f-51b38d000742" premiereChannelType="stereo">
    <masterclipid>masterclip-1</masterclipid>
    <name>S01E45.Jiggles.mkv</name>
    <enabled>TRUE</enabled>
    <duration>17218</duration>
    <rate>
        <timebase>23.976</timebase>
        <ntsc>FALSE</ntsc>
    </rate>
    <start>11489</start>
    <end>11507</end>
    <in>11907</in>
    <out>11925</out>
    <file id="file-5"/>
    <sourcetrack>
    <mediatype>audio</mediatype>
    <trackindex>1</trackindex>
</sourcetrack>
    <labels>
        <label2>Iris</label2>
    </labels>
</clipitem>
<clipitem id="c1fa0984-7d53-49e2-92fa-929c0850058b" premiereChannelType="stereo">
    <masterclipid>masterclip-1</masterclipid>
    <name>S01E45.Jiggles.mkv</name>
    <enabled>TRUE</enabled>
    <duration>17218</duration>
    <rate>
        <timebase>23.976</timebase>
        <ntsc>FALSE</ntsc>
    </rate>
    <start>11507</start>
    <end>11519</end>
    <in>11927</in>
    <out>11939</out>
    <file id="file-5"/>
    <sourcetrack>
    <mediatype>audio</mediatype>
    <trackindex>1</trackindex>
</sourcetrack>
    <labels>
        <label2>Iris</label2>
    </labels>
</clipitem>
<clipitem id="95547f6d-4b15-482d-9169-c2b31624c385" premiereChannelType="stereo">
    <masterclipid>masterclip-1</masterclipid>
    <name>S01E45.Jiggles.mkv</name>
    <enabled>TRUE</enabled>
    <duration>17218</duration>
    <rate>
        <timebase>23.976</timebase>
        <ntsc>FALSE</ntsc>
    </rate>
    <start>11519</start>
    <end>11532</end>
    <in>11937</in>
    <out>11950</out>
    <file id="file-5"/>
    <sourcetrack>
    <mediatype>audio</mediatype>
    <trackindex>1</trackindex>
</sourcetrack>
    <labels>
        <label2>Iris</label2>
    </labels>
</clipitem>
<clipitem id="ca54b5ef-1945-4746-8945-22a086e62b53" premiereChannelType="stereo">
    <masterclipid>masterclip-1</masterclipid>
    <name>S01E45.Jiggles.mkv</name>
    <enabled>TRUE</enabled>
    <duration>17218</duration>
    <rate>
        <timebase>23.976</timebase>
        <ntsc>FALSE</ntsc>
    </rate>
    <start>11532</start>
    <end>11590</end>
    <in>11950</in>
    <out>12008</out>
    <file id="file-5"/>
    <sourcetrack>
    <mediatype>audio</mediatype>
    <trackindex>1</trackindex>
</sourcetrack>
    <labels>
        <label2>Iris</label2>
    </labels>
</clipitem>
<clipitem id="3604d903-abba-4612-aae3-18656a8f6830" premiereChannelType="stereo">
    <masterclipid>masterclip-1</masterclipid>
    <name>S01E45.Jiggles.mkv</name>
    <enabled>TRUE</enabled>
    <duration>17218</duration>
    <rate>
        <timebase>23.976</timebase>
        <ntsc>FALSE</ntsc>
    </rate>
    <start>11590</start>
    <end>11632</end>
    <in>12008</in>
    <out>12050</out>
    <file id="file-5"/>
    <sourcetrack>
    <mediatype>audio</mediatype>
    <trackindex>1</trackindex>
</sourcetrack>
    <labels>
        <label2>Iris</label2>
    </labels>
</clipitem>
<clipitem id="a411b40d-7310-496b-8db7-1962373b7e50" premiereChannelType="stereo">
    <masterclipid>masterclip-1</masterclipid>
    <name>S01E45.Jiggles.mkv</name>
    <enabled>TRUE</enabled>
    <duration>17218</duration>
    <rate>
        <timebase>23.976</timebase>
        <ntsc>FALSE</ntsc>
    </rate>
    <start>11632</start>
    <end>11656</end>
    <in>12050</in>
    <out>12074</out>
    <file id="file-5"/>
    <sourcetrack>
    <mediatype>audio</mediatype>
    <trackindex>1</trackindex>
</sourcetrack>
    <labels>
        <label2>Iris</label2>
    </labels>
</clipitem>
<clipitem id="d98a2542-07d2-4820-8742-b510d56dd4ea" premiereChannelType="stereo">
    <masterclipid>masterclip-1</masterclipid>
    <name>S01E45.Jiggles.mkv</name>
    <enabled>TRUE</enabled>
    <duration>17218</duration>
    <rate>
        <timebase>23.976</timebase>
        <ntsc>FALSE</ntsc>
    </rate>
    <start>11656</start>
    <end>11667</end>
    <in>12074</in>
    <out>12085</out>
    <file id="file-5"/>
    <sourcetrack>
    <mediatype>audio</mediatype>
    <trackindex>1</trackindex>
</sourcetrack>
    <labels>
        <label2>Iris</label2>
    </labels>
</clipitem>
<clipitem id="21ee3310-5373-4953-ac78-9a60689e65ce" premiereChannelType="stereo">
    <masterclipid>masterclip-1</masterclipid>
    <name>S01E45.Jiggles.mkv</name>
    <enabled>TRUE</enabled>
    <duration>17218</duration>
    <rate>
        <timebase>23.976</timebase>
        <ntsc>FALSE</ntsc>
    </rate>
    <start>11667</start>
    <end>11714</end>
    <in>12085</in>
    <out>12132</out>
    <file id="file-5"/>
    <sourcetrack>
    <mediatype>audio</mediatype>
    <trackindex>1</trackindex>
</sourcetrack>
    <labels>
        <label2>Iris</label2>
    </labels>
</clipitem>
<clipitem id="2c01db3d-b94b-4730-bd12-815456a53756" premiereChannelType="stereo">
    <masterclipid>masterclip-1</masterclipid>
    <name>S01E45.Jiggles.mkv</name>
    <enabled>TRUE</enabled>
    <duration>17218</duration>
    <rate>
        <timebase>23.976</timebase>
        <ntsc>FALSE</ntsc>
    </rate>
    <start>11714</start>
    <end>11753</end>
    <in>12132</in>
    <out>12171</out>
    <file id="file-5"/>
    <sourcetrack>
    <mediatype>audio</mediatype>
    <trackindex>1</trackindex>
</sourcetrack>
    <labels>
        <label2>Iris</label2>
    </labels>
</clipitem>
<clipitem id="23745d29-11a0-4722-89cc-f7be156c9cbe" premiereChannelType="stereo">
    <masterclipid>masterclip-1</masterclipid>
    <name>S01E45.Jiggles.mkv</name>
    <enabled>TRUE</enabled>
    <duration>17218</duration>
    <rate>
        <timebase>23.976</timebase>
        <ntsc>FALSE</ntsc>
    </rate>
    <start>11753</start>
    <end>11771</end>
    <in>12171</in>
    <out>12189</out>
    <file id="file-5"/>
    <sourcetrack>
    <mediatype>audio</mediatype>
    <trackindex>1</trackindex>
</sourcetrack>
    <labels>
        <label2>Iris</label2>
    </labels>
</clipitem>
<clipitem id="e052e21f-88c9-4595-9516-2c4ccb986586" premiereChannelType="stereo">
    <masterclipid>masterclip-1</masterclipid>
    <name>S01E45.Jiggles.mkv</name>
    <enabled>TRUE</enabled>
    <duration>17218</duration>
    <rate>
        <timebase>23.976</timebase>
        <ntsc>FALSE</ntsc>
    </rate>
    <start>11771</start>
    <end>11785</end>
    <in>12189</in>
    <out>12203</out>
    <file id="file-5"/>
    <sourcetrack>
    <mediatype>audio</mediatype>
    <trackindex>1</trackindex>
</sourcetrack>
    <labels>
        <label2>Iris</label2>
    </labels>
</clipitem>
<clipitem id="8684f428-3012-4367-a96b-6d54544ca979" premiereChannelType="stereo">
    <masterclipid>masterclip-1</masterclipid>
    <name>S01E45.Jiggles.mkv</name>
    <enabled>TRUE</enabled>
    <duration>17218</duration>
    <rate>
        <timebase>23.976</timebase>
        <ntsc>FALSE</ntsc>
    </rate>
    <start>11785</start>
    <end>11823</end>
    <in>12203</in>
    <out>12241</out>
    <file id="file-5"/>
    <sourcetrack>
    <mediatype>audio</mediatype>
    <trackindex>1</trackindex>
</sourcetrack>
    <labels>
        <label2>Iris</label2>
    </labels>
</clipitem>
<clipitem id="4b4f9cfd-9405-4523-a792-0caf1e4b50ac" premiereChannelType="stereo">
    <masterclipid>masterclip-1</masterclipid>
    <name>S01E45.Jiggles.mkv</name>
    <enabled>TRUE</enabled>
    <duration>17218</duration>
    <rate>
        <timebase>23.976</timebase>
        <ntsc>FALSE</ntsc>
    </rate>
    <start>11823</start>
    <end>11840</end>
    <in>12241</in>
    <out>12258</out>
    <file id="file-5"/>
    <sourcetrack>
    <mediatype>audio</mediatype>
    <trackindex>1</trackindex>
</sourcetrack>
    <labels>
        <label2>Iris</label2>
    </labels>
</clipitem>
<clipitem id="0348e760-b185-49e5-a3d1-6ec3900347f2" premiereChannelType="stereo">
    <masterclipid>masterclip-1</masterclipid>
    <name>S01E45.Jiggles.mkv</name>
    <enabled>TRUE</enabled>
    <duration>17218</duration>
    <rate>
        <timebase>23.976</timebase>
        <ntsc>FALSE</ntsc>
    </rate>
    <start>11840</start>
    <end>11852</end>
    <in>12258</in>
    <out>12270</out>
    <file id="file-5"/>
    <sourcetrack>
    <mediatype>audio</mediatype>
    <trackindex>1</trackindex>
</sourcetrack>
    <labels>
        <label2>Iris</label2>
    </labels>
</clipitem>
<clipitem id="ea1a26c6-5478-4ad2-b5f7-7825c3cc0bb9" premiereChannelType="stereo">
    <masterclipid>masterclip-1</masterclipid>
    <name>S01E45.Jiggles.mkv</name>
    <enabled>TRUE</enabled>
    <duration>17218</duration>
    <rate>
        <timebase>23.976</timebase>
        <ntsc>FALSE</ntsc>
    </rate>
    <start>11852</start>
    <end>11870</end>
    <in>12270</in>
    <out>12288</out>
    <file id="file-5"/>
    <sourcetrack>
    <mediatype>audio</mediatype>
    <trackindex>1</trackindex>
</sourcetrack>
    <labels>
        <label2>Iris</label2>
    </labels>
</clipitem>
<clipitem id="11c840d9-3878-4782-a90b-9f63d6e7ecd3" premiereChannelType="stereo">
    <masterclipid>masterclip-1</masterclipid>
    <name>S01E45.Jiggles.mkv</name>
    <enabled>TRUE</enabled>
    <duration>17218</duration>
    <rate>
        <timebase>23.976</timebase>
        <ntsc>FALSE</ntsc>
    </rate>
    <start>11870</start>
    <end>11881</end>
    <in>12288</in>
    <out>12299</out>
    <file id="file-5"/>
    <sourcetrack>
    <mediatype>audio</mediatype>
    <trackindex>1</trackindex>
</sourcetrack>
    <labels>
        <label2>Iris</label2>
    </labels>
</clipitem>
<clipitem id="30a998d2-9314-4c9d-92e6-9d93f978b5d7" premiereChannelType="stereo">
    <masterclipid>masterclip-1</masterclipid>
    <name>S01E45.Jiggles.mkv</name>
    <enabled>TRUE</enabled>
    <duration>17218</duration>
    <rate>
        <timebase>23.976</timebase>
        <ntsc>FALSE</ntsc>
    </rate>
    <start>11881</start>
    <end>11893</end>
    <in>12299</in>
    <out>12311</out>
    <file id="file-5"/>
    <sourcetrack>
    <mediatype>audio</mediatype>
    <trackindex>1</trackindex>
</sourcetrack>
    <labels>
        <label2>Iris</label2>
    </labels>
</clipitem>
<clipitem id="068bac8e-a906-4afd-a003-5dc5db1418e8" premiereChannelType="stereo">
    <masterclipid>masterclip-1</masterclipid>
    <name>S01E45.Jiggles.mkv</name>
    <enabled>TRUE</enabled>
    <duration>17218</duration>
    <rate>
        <timebase>23.976</timebase>
        <ntsc>FALSE</ntsc>
    </rate>
    <start>11893</start>
    <end>11917</end>
    <in>12311</in>
    <out>12335</out>
    <file id="file-5"/>
    <sourcetrack>
    <mediatype>audio</mediatype>
    <trackindex>1</trackindex>
</sourcetrack>
    <labels>
        <label2>Iris</label2>
    </labels>
</clipitem>
<clipitem id="67d77b7a-834a-4f84-9187-786f46fec47b" premiereChannelType="stereo">
    <masterclipid>masterclip-1</masterclipid>
    <name>S01E45.Jiggles.mkv</name>
    <enabled>TRUE</enabled>
    <duration>17218</duration>
    <rate>
        <timebase>23.976</timebase>
        <ntsc>FALSE</ntsc>
    </rate>
    <start>11917</start>
    <end>11928</end>
    <in>12335</in>
    <out>12346</out>
    <file id="file-5"/>
    <sourcetrack>
    <mediatype>audio</mediatype>
    <trackindex>1</trackindex>
</sourcetrack>
    <labels>
        <label2>Iris</label2>
    </labels>
</clipitem>
<clipitem id="291c44a3-2ae7-4739-9553-46d5017a0e76" premiereChannelType="stereo">
    <masterclipid>masterclip-1</masterclipid>
    <name>S01E45.Jiggles.mkv</name>
    <enabled>TRUE</enabled>
    <duration>17218</duration>
    <rate>
        <timebase>23.976</timebase>
        <ntsc>FALSE</ntsc>
    </rate>
    <start>11930</start>
    <end>11941</end>
    <in>12348</in>
    <out>12359</out>
    <file id="file-5"/>
    <sourcetrack>
    <mediatype>audio</mediatype>
    <trackindex>1</trackindex>
</sourcetrack>
    <labels>
        <label2>Iris</label2>
    </labels>
</clipitem>
<clipitem id="03c28f69-44c5-4a7c-a30c-1ca351c90771" premiereChannelType="stereo">
    <masterclipid>masterclip-1</masterclipid>
    <name>S01E45.Jiggles.mkv</name>
    <enabled>TRUE</enabled>
    <duration>17218</duration>
    <rate>
        <timebase>23.976</timebase>
        <ntsc>FALSE</ntsc>
    </rate>
    <start>11941</start>
    <end>11975</end>
    <in>12359</in>
    <out>12393</out>
    <file id="file-5"/>
    <sourcetrack>
    <mediatype>audio</mediatype>
    <trackindex>1</trackindex>
</sourcetrack>
    <labels>
        <label2>Iris</label2>
    </labels>
</clipitem>
<clipitem id="d87f683c-fe13-41c5-81d8-d177c9923632" premiereChannelType="stereo">
    <masterclipid>masterclip-1</masterclipid>
    <name>S01E45.Jiggles.mkv</name>
    <enabled>TRUE</enabled>
    <duration>17218</duration>
    <rate>
        <timebase>23.976</timebase>
        <ntsc>FALSE</ntsc>
    </rate>
    <start>11975</start>
    <end>11998</end>
    <in>12393</in>
    <out>12416</out>
    <file id="file-5"/>
    <sourcetrack>
    <mediatype>audio</mediatype>
    <trackindex>1</trackindex>
</sourcetrack>
    <labels>
        <label2>Iris</label2>
    </labels>
</clipitem>
<clipitem id="676dfd08-803c-460d-9a14-8b97f84135ed" premiereChannelType="stereo">
    <masterclipid>masterclip-1</masterclipid>
    <name>S01E45.Jiggles.mkv</name>
    <enabled>TRUE</enabled>
    <duration>17218</duration>
    <rate>
        <timebase>23.976</timebase>
        <ntsc>FALSE</ntsc>
    </rate>
    <start>11998</start>
    <end>12107</end>
    <in>12419</in>
    <out>12528</out>
    <file id="file-5"/>
    <sourcetrack>
    <mediatype>audio</mediatype>
    <trackindex>1</trackindex>
</sourcetrack>
    <labels>
        <label2>Iris</label2>
    </labels>
</clipitem>
<clipitem id="6a89e79a-9a16-4ecc-af9c-f7cda57439bc" premiereChannelType="stereo">
    <masterclipid>masterclip-1</masterclipid>
    <name>S01E45.Jiggles.mkv</name>
    <enabled>TRUE</enabled>
    <duration>17218</duration>
    <rate>
        <timebase>23.976</timebase>
        <ntsc>FALSE</ntsc>
    </rate>
    <start>12120</start>
    <end>12164</end>
    <in>12529</in>
    <out>12573</out>
    <file id="file-5"/>
    <sourcetrack>
    <mediatype>audio</mediatype>
    <trackindex>1</trackindex>
</sourcetrack>
    <labels>
        <label2>Iris</label2>
    </labels>
</clipitem>
<clipitem id="ce657189-b4f3-4386-8ded-3beb65b4022c" premiereChannelType="stereo">
    <masterclipid>masterclip-1</masterclipid>
    <name>S01E45.Jiggles.mkv</name>
    <enabled>TRUE</enabled>
    <duration>17218</duration>
    <rate>
        <timebase>23.976</timebase>
        <ntsc>FALSE</ntsc>
    </rate>
    <start>12164</start>
    <end>12175</end>
    <in>12576</in>
    <out>12587</out>
    <file id="file-5"/>
    <sourcetrack>
    <mediatype>audio</mediatype>
    <trackindex>1</trackindex>
</sourcetrack>
    <labels>
        <label2>Iris</label2>
    </labels>
</clipitem>
<clipitem id="d1ec5df8-41a3-4c5c-9ab4-be573d5b2252" premiereChannelType="stereo">
    <masterclipid>masterclip-1</masterclipid>
    <name>S01E45.Jiggles.mkv</name>
    <enabled>TRUE</enabled>
    <duration>17218</duration>
    <rate>
        <timebase>23.976</timebase>
        <ntsc>FALSE</ntsc>
    </rate>
    <start>12175</start>
    <end>12186</end>
    <in>12587</in>
    <out>12598</out>
    <file id="file-5"/>
    <sourcetrack>
    <mediatype>audio</mediatype>
    <trackindex>1</trackindex>
</sourcetrack>
    <labels>
        <label2>Iris</label2>
    </labels>
</clipitem>
<clipitem id="eabf7fbc-2eab-4167-a664-7993e609b4d9" premiereChannelType="stereo">
    <masterclipid>masterclip-1</masterclipid>
    <name>S01E45.Jiggles.mkv</name>
    <enabled>TRUE</enabled>
    <duration>17218</duration>
    <rate>
        <timebase>23.976</timebase>
        <ntsc>FALSE</ntsc>
    </rate>
    <start>12186</start>
    <end>12199</end>
    <in>12623</in>
    <out>12636</out>
    <file id="file-5"/>
    <sourcetrack>
    <mediatype>audio</mediatype>
    <trackindex>1</trackindex>
</sourcetrack>
    <labels>
        <label2>Iris</label2>
    </labels>
</clipitem>
<clipitem id="d206284f-1f44-4c48-913b-3af70b9d91f2" premiereChannelType="stereo">
    <masterclipid>masterclip-1</masterclipid>
    <name>S01E45.Jiggles.mkv</name>
    <enabled>TRUE</enabled>
    <duration>17218</duration>
    <rate>
        <timebase>23.976</timebase>
        <ntsc>FALSE</ntsc>
    </rate>
    <start>12199</start>
    <end>12211</end>
    <in>12611</in>
    <out>12623</out>
    <file id="file-5"/>
    <sourcetrack>
    <mediatype>audio</mediatype>
    <trackindex>1</trackindex>
</sourcetrack>
    <labels>
        <label2>Iris</label2>
    </labels>
</clipitem>
<clipitem id="96d52614-c116-4996-8db9-c27014cb3024" premiereChannelType="stereo">
    <masterclipid>masterclip-1</masterclipid>
    <name>S01E45.Jiggles.mkv</name>
    <enabled>TRUE</enabled>
    <duration>17218</duration>
    <rate>
        <timebase>23.976</timebase>
        <ntsc>FALSE</ntsc>
    </rate>
    <start>12211</start>
    <end>12226</end>
    <in>12623</in>
    <out>12638</out>
    <file id="file-5"/>
    <sourcetrack>
    <mediatype>audio</mediatype>
    <trackindex>1</trackindex>
</sourcetrack>
    <labels>
        <label2>Iris</label2>
    </labels>
</clipitem>
<clipitem id="3b508cde-08d9-414a-999a-a2606ce62c0e" premiereChannelType="stereo">
    <masterclipid>masterclip-1</masterclipid>
    <name>S01E45.Jiggles.mkv</name>
    <enabled>TRUE</enabled>
    <duration>17218</duration>
    <rate>
        <timebase>23.976</timebase>
        <ntsc>FALSE</ntsc>
    </rate>
    <start>12226</start>
    <end>12246</end>
    <in>12638</in>
    <out>12658</out>
    <file id="file-5"/>
    <sourcetrack>
    <mediatype>audio</mediatype>
    <trackindex>1</trackindex>
</sourcetrack>
    <labels>
        <label2>Iris</label2>
    </labels>
</clipitem>
<clipitem id="518718cf-875c-40da-b977-8535fb7008d0" premiereChannelType="stereo">
    <masterclipid>masterclip-1</masterclipid>
    <name>S01E45.Jiggles.mkv</name>
    <enabled>TRUE</enabled>
    <duration>17218</duration>
    <rate>
        <timebase>23.976</timebase>
        <ntsc>FALSE</ntsc>
    </rate>
    <start>12246</start>
    <end>12279</end>
    <in>12658</in>
    <out>12691</out>
    <file id="file-5"/>
    <sourcetrack>
    <mediatype>audio</mediatype>
    <trackindex>1</trackindex>
</sourcetrack>
    <labels>
        <label2>Iris</label2>
    </labels>
</clipitem>
<clipitem id="4c9d63ce-91a7-4ee1-8820-e0c83797c819" premiereChannelType="stereo">
    <masterclipid>masterclip-1</masterclipid>
    <name>S01E45.Jiggles.mkv</name>
    <enabled>TRUE</enabled>
    <duration>17218</duration>
    <rate>
        <timebase>23.976</timebase>
        <ntsc>FALSE</ntsc>
    </rate>
    <start>12279</start>
    <end>12297</end>
    <in>12691</in>
    <out>12709</out>
    <file id="file-5"/>
    <sourcetrack>
    <mediatype>audio</mediatype>
    <trackindex>1</trackindex>
</sourcetrack>
    <labels>
        <label2>Iris</label2>
    </labels>
</clipitem>
<clipitem id="880ccfd0-3c0a-460d-b5a5-2ce46d0a3180" premiereChannelType="stereo">
    <masterclipid>masterclip-1</masterclipid>
    <name>S01E45.Jiggles.mkv</name>
    <enabled>TRUE</enabled>
    <duration>17218</duration>
    <rate>
        <timebase>23.976</timebase>
        <ntsc>FALSE</ntsc>
    </rate>
    <start>12297</start>
    <end>12347</end>
    <in>12709</in>
    <out>12759</out>
    <file id="file-5"/>
    <sourcetrack>
    <mediatype>audio</mediatype>
    <trackindex>1</trackindex>
</sourcetrack>
    <labels>
        <label2>Iris</label2>
    </labels>
</clipitem>
<clipitem id="4bb762f1-afd3-4a08-9a1e-9512cb385370" premiereChannelType="stereo">
    <masterclipid>masterclip-1</masterclipid>
    <name>S01E45.Jiggles.mkv</name>
    <enabled>TRUE</enabled>
    <duration>17218</duration>
    <rate>
        <timebase>23.976</timebase>
        <ntsc>FALSE</ntsc>
    </rate>
    <start>12347</start>
    <end>12398</end>
    <in>12759</in>
    <out>12810</out>
    <file id="file-5"/>
    <sourcetrack>
    <mediatype>audio</mediatype>
    <trackindex>1</trackindex>
</sourcetrack>
    <labels>
        <label2>Iris</label2>
    </labels>
</clipitem>
<clipitem id="e7d211f8-3d28-461a-b1a1-654469267040" premiereChannelType="stereo">
    <masterclipid>masterclip-1</masterclipid>
    <name>S01E45.Jiggles.mkv</name>
    <enabled>TRUE</enabled>
    <duration>17218</duration>
    <rate>
        <timebase>23.976</timebase>
        <ntsc>FALSE</ntsc>
    </rate>
    <start>12398</start>
    <end>12466</end>
    <in>12809</in>
    <out>12877</out>
    <file id="file-5"/>
    <sourcetrack>
    <mediatype>audio</mediatype>
    <trackindex>1</trackindex>
</sourcetrack>
    <labels>
        <label2>Iris</label2>
    </labels>
</clipitem>
<clipitem id="1fa2c55c-6173-4f04-b25c-71eac313613d" premiereChannelType="stereo">
    <masterclipid>masterclip-1</masterclipid>
    <name>S01E45.Jiggles.mkv</name>
    <enabled>TRUE</enabled>
    <duration>17218</duration>
    <rate>
        <timebase>23.976</timebase>
        <ntsc>FALSE</ntsc>
    </rate>
    <start>12466</start>
    <end>12478</end>
    <in>12878</in>
    <out>12890</out>
    <file id="file-5"/>
    <sourcetrack>
    <mediatype>audio</mediatype>
    <trackindex>1</trackindex>
</sourcetrack>
    <labels>
        <label2>Iris</label2>
    </labels>
</clipitem>
<clipitem id="5934b260-0332-4c4b-aeb6-3028abeba79e" premiereChannelType="stereo">
    <masterclipid>masterclip-1</masterclipid>
    <name>S01E45.Jiggles.mkv</name>
    <enabled>TRUE</enabled>
    <duration>17218</duration>
    <rate>
        <timebase>23.976</timebase>
        <ntsc>FALSE</ntsc>
    </rate>
    <start>12478</start>
    <end>12497</end>
    <in>12890</in>
    <out>12909</out>
    <file id="file-5"/>
    <sourcetrack>
    <mediatype>audio</mediatype>
    <trackindex>1</trackindex>
</sourcetrack>
    <labels>
        <label2>Iris</label2>
    </labels>
</clipitem>
<clipitem id="46ac5717-33f6-4fe4-b3ad-99c0dfc34c56" premiereChannelType="stereo">
    <masterclipid>masterclip-1</masterclipid>
    <name>S01E45.Jiggles.mkv</name>
    <enabled>TRUE</enabled>
    <duration>17218</duration>
    <rate>
        <timebase>23.976</timebase>
        <ntsc>FALSE</ntsc>
    </rate>
    <start>12497</start>
    <end>12511</end>
    <in>12909</in>
    <out>12923</out>
    <file id="file-5"/>
    <sourcetrack>
    <mediatype>audio</mediatype>
    <trackindex>1</trackindex>
</sourcetrack>
    <labels>
        <label2>Iris</label2>
    </labels>
</clipitem>
<clipitem id="c098b3ad-4405-46e3-bb93-ba328f91080d" premiereChannelType="stereo">
    <masterclipid>masterclip-1</masterclipid>
    <name>S01E45.Jiggles.mkv</name>
    <enabled>TRUE</enabled>
    <duration>17218</duration>
    <rate>
        <timebase>23.976</timebase>
        <ntsc>FALSE</ntsc>
    </rate>
    <start>12511</start>
    <end>12523</end>
    <in>12923</in>
    <out>12935</out>
    <file id="file-5"/>
    <sourcetrack>
    <mediatype>audio</mediatype>
    <trackindex>1</trackindex>
</sourcetrack>
    <labels>
        <label2>Iris</label2>
    </labels>
</clipitem>
<clipitem id="b7963bb1-3717-45e0-aee4-c35b72bb0e34" premiereChannelType="stereo">
    <masterclipid>masterclip-1</masterclipid>
    <name>S01E45.Jiggles.mkv</name>
    <enabled>TRUE</enabled>
    <duration>17218</duration>
    <rate>
        <timebase>23.976</timebase>
        <ntsc>FALSE</ntsc>
    </rate>
    <start>12523</start>
    <end>12537</end>
    <in>12935</in>
    <out>12949</out>
    <file id="file-5"/>
    <sourcetrack>
    <mediatype>audio</mediatype>
    <trackindex>1</trackindex>
</sourcetrack>
    <labels>
        <label2>Iris</label2>
    </labels>
</clipitem>
<clipitem id="568126c9-369d-4f4c-bbd8-99f690013dea" premiereChannelType="stereo">
    <masterclipid>masterclip-1</masterclipid>
    <name>S01E45.Jiggles.mkv</name>
    <enabled>TRUE</enabled>
    <duration>17218</duration>
    <rate>
        <timebase>23.976</timebase>
        <ntsc>FALSE</ntsc>
    </rate>
    <start>12537</start>
    <end>12552</end>
    <in>12949</in>
    <out>12964</out>
    <file id="file-5"/>
    <sourcetrack>
    <mediatype>audio</mediatype>
    <trackindex>1</trackindex>
</sourcetrack>
    <labels>
        <label2>Iris</label2>
    </labels>
</clipitem>
<clipitem id="cd899757-f8cf-4890-b761-d332fb4be352" premiereChannelType="stereo">
    <masterclipid>masterclip-1</masterclipid>
    <name>S01E45.Jiggles.mkv</name>
    <enabled>TRUE</enabled>
    <duration>17218</duration>
    <rate>
        <timebase>23.976</timebase>
        <ntsc>FALSE</ntsc>
    </rate>
    <start>12552</start>
    <end>12569</end>
    <in>12964</in>
    <out>12981</out>
    <file id="file-5"/>
    <sourcetrack>
    <mediatype>audio</mediatype>
    <trackindex>1</trackindex>
</sourcetrack>
    <labels>
        <label2>Iris</label2>
    </labels>
</clipitem>
<clipitem id="5bfa7c8a-d70f-4abe-bdf7-d07b2231001d" premiereChannelType="stereo">
    <masterclipid>masterclip-1</masterclipid>
    <name>S01E45.Jiggles.mkv</name>
    <enabled>TRUE</enabled>
    <duration>17218</duration>
    <rate>
        <timebase>23.976</timebase>
        <ntsc>FALSE</ntsc>
    </rate>
    <start>12569</start>
    <end>12584</end>
    <in>12981</in>
    <out>12996</out>
    <file id="file-5"/>
    <sourcetrack>
    <mediatype>audio</mediatype>
    <trackindex>1</trackindex>
</sourcetrack>
    <labels>
        <label2>Iris</label2>
    </labels>
</clipitem>
<clipitem id="25612983-fe1d-41e9-b261-a89343161f0c" premiereChannelType="stereo">
    <masterclipid>masterclip-1</masterclipid>
    <name>S01E45.Jiggles.mkv</name>
    <enabled>TRUE</enabled>
    <duration>17218</duration>
    <rate>
        <timebase>23.976</timebase>
        <ntsc>FALSE</ntsc>
    </rate>
    <start>12584</start>
    <end>12596</end>
    <in>12996</in>
    <out>13008</out>
    <file id="file-5"/>
    <sourcetrack>
    <mediatype>audio</mediatype>
    <trackindex>1</trackindex>
</sourcetrack>
    <labels>
        <label2>Iris</label2>
    </labels>
</clipitem>
<clipitem id="4e9d0e1a-fbd6-469f-aee0-856d4d31de61" premiereChannelType="stereo">
    <masterclipid>masterclip-1</masterclipid>
    <name>S01E45.Jiggles.mkv</name>
    <enabled>TRUE</enabled>
    <duration>17218</duration>
    <rate>
        <timebase>23.976</timebase>
        <ntsc>FALSE</ntsc>
    </rate>
    <start>12596</start>
    <end>12607</end>
    <in>13013</in>
    <out>13024</out>
    <file id="file-5"/>
    <sourcetrack>
    <mediatype>audio</mediatype>
    <trackindex>1</trackindex>
</sourcetrack>
    <labels>
        <label2>Iris</label2>
    </labels>
</clipitem>
<clipitem id="42f4b29d-b142-4c0e-bb9c-44d4f9230db8" premiereChannelType="stereo">
    <masterclipid>masterclip-1</masterclipid>
    <name>S01E45.Jiggles.mkv</name>
    <enabled>TRUE</enabled>
    <duration>17218</duration>
    <rate>
        <timebase>23.976</timebase>
        <ntsc>FALSE</ntsc>
    </rate>
    <start>12607</start>
    <end>12618</end>
    <in>13018</in>
    <out>13029</out>
    <file id="file-5"/>
    <sourcetrack>
    <mediatype>audio</mediatype>
    <trackindex>1</trackindex>
</sourcetrack>
    <labels>
        <label2>Iris</label2>
    </labels>
</clipitem>
<clipitem id="2457b3ed-4628-4703-983e-61720ea9e7b7" premiereChannelType="stereo">
    <masterclipid>masterclip-1</masterclipid>
    <name>S01E45.Jiggles.mkv</name>
    <enabled>TRUE</enabled>
    <duration>17218</duration>
    <rate>
        <timebase>23.976</timebase>
        <ntsc>FALSE</ntsc>
    </rate>
    <start>12618</start>
    <end>12648</end>
    <in>13029</in>
    <out>13059</out>
    <file id="file-5"/>
    <sourcetrack>
    <mediatype>audio</mediatype>
    <trackindex>1</trackindex>
</sourcetrack>
    <labels>
        <label2>Iris</label2>
    </labels>
</clipitem>
<clipitem id="9d9c8955-44f4-4b82-afda-0a22adb6a25f" premiereChannelType="stereo">
    <masterclipid>masterclip-1</masterclipid>
    <name>S01E45.Jiggles.mkv</name>
    <enabled>TRUE</enabled>
    <duration>17218</duration>
    <rate>
        <timebase>23.976</timebase>
        <ntsc>FALSE</ntsc>
    </rate>
    <start>12648</start>
    <end>12663</end>
    <in>13059</in>
    <out>13074</out>
    <file id="file-5"/>
    <sourcetrack>
    <mediatype>audio</mediatype>
    <trackindex>1</trackindex>
</sourcetrack>
    <labels>
        <label2>Iris</label2>
    </labels>
</clipitem>
<clipitem id="054a6081-b2bc-4aaa-9b78-367ee4038793" premiereChannelType="stereo">
    <masterclipid>masterclip-1</masterclipid>
    <name>S01E45.Jiggles.mkv</name>
    <enabled>TRUE</enabled>
    <duration>17218</duration>
    <rate>
        <timebase>23.976</timebase>
        <ntsc>FALSE</ntsc>
    </rate>
    <start>12663</start>
    <end>12686</end>
    <in>13074</in>
    <out>13097</out>
    <file id="file-5"/>
    <sourcetrack>
    <mediatype>audio</mediatype>
    <trackindex>1</trackindex>
</sourcetrack>
    <labels>
        <label2>Iris</label2>
    </labels>
</clipitem>
<clipitem id="1dd59db3-af1a-4895-aabb-cc1fd9bccfbd" premiereChannelType="stereo">
    <masterclipid>masterclip-1</masterclipid>
    <name>S01E45.Jiggles.mkv</name>
    <enabled>TRUE</enabled>
    <duration>17218</duration>
    <rate>
        <timebase>23.976</timebase>
        <ntsc>FALSE</ntsc>
    </rate>
    <start>12686</start>
    <end>12699</end>
    <in>13097</in>
    <out>13110</out>
    <file id="file-5"/>
    <sourcetrack>
    <mediatype>audio</mediatype>
    <trackindex>1</trackindex>
</sourcetrack>
    <labels>
        <label2>Iris</label2>
    </labels>
</clipitem>
<clipitem id="d861f605-3890-486a-8659-3c3b48e4d1ee" premiereChannelType="stereo">
    <masterclipid>masterclip-1</masterclipid>
    <name>S01E45.Jiggles.mkv</name>
    <enabled>TRUE</enabled>
    <duration>17218</duration>
    <rate>
        <timebase>23.976</timebase>
        <ntsc>FALSE</ntsc>
    </rate>
    <start>12699</start>
    <end>12710</end>
    <in>13110</in>
    <out>13121</out>
    <file id="file-5"/>
    <sourcetrack>
    <mediatype>audio</mediatype>
    <trackindex>1</trackindex>
</sourcetrack>
    <labels>
        <label2>Iris</label2>
    </labels>
</clipitem>
<clipitem id="0f14ebac-8d28-4611-a085-a289c9e03d76" premiereChannelType="stereo">
    <masterclipid>masterclip-1</masterclipid>
    <name>S01E45.Jiggles.mkv</name>
    <enabled>TRUE</enabled>
    <duration>17218</duration>
    <rate>
        <timebase>23.976</timebase>
        <ntsc>FALSE</ntsc>
    </rate>
    <start>12710</start>
    <end>12721</end>
    <in>13121</in>
    <out>13132</out>
    <file id="file-5"/>
    <sourcetrack>
    <mediatype>audio</mediatype>
    <trackindex>1</trackindex>
</sourcetrack>
    <labels>
        <label2>Iris</label2>
    </labels>
</clipitem>
<clipitem id="197d3b9a-8509-4767-97e6-563259b9605c" premiereChannelType="stereo">
    <masterclipid>masterclip-1</masterclipid>
    <name>S01E45.Jiggles.mkv</name>
    <enabled>TRUE</enabled>
    <duration>17218</duration>
    <rate>
        <timebase>23.976</timebase>
        <ntsc>FALSE</ntsc>
    </rate>
    <start>12721</start>
    <end>12732</end>
    <in>13132</in>
    <out>13143</out>
    <file id="file-5"/>
    <sourcetrack>
    <mediatype>audio</mediatype>
    <trackindex>1</trackindex>
</sourcetrack>
    <labels>
        <label2>Iris</label2>
    </labels>
</clipitem>
<clipitem id="e6741d51-9861-450d-8307-d4877211f759" premiereChannelType="stereo">
    <masterclipid>masterclip-1</masterclipid>
    <name>S01E45.Jiggles.mkv</name>
    <enabled>TRUE</enabled>
    <duration>17218</duration>
    <rate>
        <timebase>23.976</timebase>
        <ntsc>FALSE</ntsc>
    </rate>
    <start>12732</start>
    <end>12763</end>
    <in>13143</in>
    <out>13174</out>
    <file id="file-5"/>
    <sourcetrack>
    <mediatype>audio</mediatype>
    <trackindex>1</trackindex>
</sourcetrack>
    <labels>
        <label2>Iris</label2>
    </labels>
</clipitem>
<clipitem id="56f53502-0967-4322-990c-2adada21f6e0" premiereChannelType="stereo">
    <masterclipid>masterclip-1</masterclipid>
    <name>S01E45.Jiggles.mkv</name>
    <enabled>TRUE</enabled>
    <duration>17218</duration>
    <rate>
        <timebase>23.976</timebase>
        <ntsc>FALSE</ntsc>
    </rate>
    <start>12763</start>
    <end>12777</end>
    <in>13174</in>
    <out>13188</out>
    <file id="file-5"/>
    <sourcetrack>
    <mediatype>audio</mediatype>
    <trackindex>1</trackindex>
</sourcetrack>
    <labels>
        <label2>Iris</label2>
    </labels>
</clipitem>
<clipitem id="f23be9f4-f4c4-4c56-9901-a4610f2e5091" premiereChannelType="stereo">
    <masterclipid>masterclip-1</masterclipid>
    <name>S01E45.Jiggles.mkv</name>
    <enabled>TRUE</enabled>
    <duration>17218</duration>
    <rate>
        <timebase>23.976</timebase>
        <ntsc>FALSE</ntsc>
    </rate>
    <start>12777</start>
    <end>12788</end>
    <in>13188</in>
    <out>13199</out>
    <file id="file-5"/>
    <sourcetrack>
    <mediatype>audio</mediatype>
    <trackindex>1</trackindex>
</sourcetrack>
    <labels>
        <label2>Iris</label2>
    </labels>
</clipitem>
<clipitem id="7361baa9-704c-4e09-bd45-d767333e2066" premiereChannelType="stereo">
    <masterclipid>masterclip-1</masterclipid>
    <name>S01E45.Jiggles.mkv</name>
    <enabled>TRUE</enabled>
    <duration>17218</duration>
    <rate>
        <timebase>23.976</timebase>
        <ntsc>FALSE</ntsc>
    </rate>
    <start>12788</start>
    <end>12799</end>
    <in>13199</in>
    <out>13210</out>
    <file id="file-5"/>
    <sourcetrack>
    <mediatype>audio</mediatype>
    <trackindex>1</trackindex>
</sourcetrack>
    <labels>
        <label2>Iris</label2>
    </labels>
</clipitem>
<clipitem id="852a6e8f-9341-4476-bbef-1af6151ab575" premiereChannelType="stereo">
    <masterclipid>masterclip-1</masterclipid>
    <name>S01E45.Jiggles.mkv</name>
    <enabled>TRUE</enabled>
    <duration>17218</duration>
    <rate>
        <timebase>23.976</timebase>
        <ntsc>FALSE</ntsc>
    </rate>
    <start>12799</start>
    <end>12811</end>
    <in>13209</in>
    <out>13221</out>
    <file id="file-5"/>
    <sourcetrack>
    <mediatype>audio</mediatype>
    <trackindex>1</trackindex>
</sourcetrack>
    <labels>
        <label2>Iris</label2>
    </labels>
</clipitem>
<clipitem id="fc0ecc05-6696-4dd4-9132-e427d38ba9a2" premiereChannelType="stereo">
    <masterclipid>masterclip-1</masterclipid>
    <name>S01E45.Jiggles.mkv</name>
    <enabled>TRUE</enabled>
    <duration>17218</duration>
    <rate>
        <timebase>23.976</timebase>
        <ntsc>FALSE</ntsc>
    </rate>
    <start>12811</start>
    <end>12868</end>
    <in>13222</in>
    <out>13279</out>
    <file id="file-5"/>
    <sourcetrack>
    <mediatype>audio</mediatype>
    <trackindex>1</trackindex>
</sourcetrack>
    <labels>
        <label2>Iris</label2>
    </labels>
</clipitem>
<clipitem id="40f43541-bc71-4c64-a2eb-5d6095350ecb" premiereChannelType="stereo">
    <masterclipid>masterclip-1</masterclipid>
    <name>S01E45.Jiggles.mkv</name>
    <enabled>TRUE</enabled>
    <duration>17218</duration>
    <rate>
        <timebase>23.976</timebase>
        <ntsc>FALSE</ntsc>
    </rate>
    <start>12868</start>
    <end>12879</end>
    <in>13279</in>
    <out>13290</out>
    <file id="file-5"/>
    <sourcetrack>
    <mediatype>audio</mediatype>
    <trackindex>1</trackindex>
</sourcetrack>
    <labels>
        <label2>Iris</label2>
    </labels>
</clipitem>
<clipitem id="1d2abb70-9af4-4a77-9dd1-ce01d13c4202" premiereChannelType="stereo">
    <masterclipid>masterclip-1</masterclipid>
    <name>S01E45.Jiggles.mkv</name>
    <enabled>TRUE</enabled>
    <duration>17218</duration>
    <rate>
        <timebase>23.976</timebase>
        <ntsc>FALSE</ntsc>
    </rate>
    <start>12879</start>
    <end>12905</end>
    <in>13290</in>
    <out>13316</out>
    <file id="file-5"/>
    <sourcetrack>
    <mediatype>audio</mediatype>
    <trackindex>1</trackindex>
</sourcetrack>
    <labels>
        <label2>Iris</label2>
    </labels>
</clipitem>
<clipitem id="98090572-27d4-494a-9709-5eff21a717fe" premiereChannelType="stereo">
    <masterclipid>masterclip-1</masterclipid>
    <name>S01E45.Jiggles.mkv</name>
    <enabled>TRUE</enabled>
    <duration>17218</duration>
    <rate>
        <timebase>23.976</timebase>
        <ntsc>FALSE</ntsc>
    </rate>
    <start>12905</start>
    <end>12929</end>
    <in>13316</in>
    <out>13340</out>
    <file id="file-5"/>
    <sourcetrack>
    <mediatype>audio</mediatype>
    <trackindex>1</trackindex>
</sourcetrack>
    <labels>
        <label2>Iris</label2>
    </labels>
</clipitem>
<clipitem id="89aa23bf-2ba4-44be-8756-af430e50daf9" premiereChannelType="stereo">
    <masterclipid>masterclip-1</masterclipid>
    <name>S01E45.Jiggles.mkv</name>
    <enabled>TRUE</enabled>
    <duration>17218</duration>
    <rate>
        <timebase>23.976</timebase>
        <ntsc>FALSE</ntsc>
    </rate>
    <start>12929</start>
    <end>12949</end>
    <in>13340</in>
    <out>13360</out>
    <file id="file-5"/>
    <sourcetrack>
    <mediatype>audio</mediatype>
    <trackindex>1</trackindex>
</sourcetrack>
    <labels>
        <label2>Iris</label2>
    </labels>
</clipitem>
<clipitem id="a31215ce-7e51-4b30-a5d2-ed05bb889557" premiereChannelType="stereo">
    <masterclipid>masterclip-1</masterclipid>
    <name>S01E45.Jiggles.mkv</name>
    <enabled>TRUE</enabled>
    <duration>17218</duration>
    <rate>
        <timebase>23.976</timebase>
        <ntsc>FALSE</ntsc>
    </rate>
    <start>12949</start>
    <end>12961</end>
    <in>13360</in>
    <out>13372</out>
    <file id="file-5"/>
    <sourcetrack>
    <mediatype>audio</mediatype>
    <trackindex>1</trackindex>
</sourcetrack>
    <labels>
        <label2>Iris</label2>
    </labels>
</clipitem>
<clipitem id="a48c4808-4966-4494-9b6f-9dbef36d4c6b" premiereChannelType="stereo">
    <masterclipid>masterclip-1</masterclipid>
    <name>S01E45.Jiggles.mkv</name>
    <enabled>TRUE</enabled>
    <duration>17218</duration>
    <rate>
        <timebase>23.976</timebase>
        <ntsc>FALSE</ntsc>
    </rate>
    <start>12961</start>
    <end>12986</end>
    <in>13372</in>
    <out>13397</out>
    <file id="file-5"/>
    <sourcetrack>
    <mediatype>audio</mediatype>
    <trackindex>1</trackindex>
</sourcetrack>
    <labels>
        <label2>Iris</label2>
    </labels>
</clipitem>
<clipitem id="12c3d3e9-2c3c-41be-938c-42c723f51062" premiereChannelType="stereo">
    <masterclipid>masterclip-1</masterclipid>
    <name>S01E45.Jiggles.mkv</name>
    <enabled>TRUE</enabled>
    <duration>17218</duration>
    <rate>
        <timebase>23.976</timebase>
        <ntsc>FALSE</ntsc>
    </rate>
    <start>12986</start>
    <end>13030</end>
    <in>13397</in>
    <out>13441</out>
    <file id="file-5"/>
    <sourcetrack>
    <mediatype>audio</mediatype>
    <trackindex>1</trackindex>
</sourcetrack>
    <labels>
        <label2>Iris</label2>
    </labels>
</clipitem>
<clipitem id="c5e0acf8-dae8-4cc1-a074-3f957466922b" premiereChannelType="stereo">
    <masterclipid>masterclip-1</masterclipid>
    <name>S01E45.Jiggles.mkv</name>
    <enabled>TRUE</enabled>
    <duration>17218</duration>
    <rate>
        <timebase>23.976</timebase>
        <ntsc>FALSE</ntsc>
    </rate>
    <start>13030</start>
    <end>13050</end>
    <in>13441</in>
    <out>13461</out>
    <file id="file-5"/>
    <sourcetrack>
    <mediatype>audio</mediatype>
    <trackindex>1</trackindex>
</sourcetrack>
    <labels>
        <label2>Iris</label2>
    </labels>
</clipitem>
<clipitem id="ad9c8aef-71c2-4cc3-b566-7904d8610f75" premiereChannelType="stereo">
    <masterclipid>masterclip-1</masterclipid>
    <name>S01E45.Jiggles.mkv</name>
    <enabled>TRUE</enabled>
    <duration>17218</duration>
    <rate>
        <timebase>23.976</timebase>
        <ntsc>FALSE</ntsc>
    </rate>
    <start>13050</start>
    <end>13061</end>
    <in>13461</in>
    <out>13472</out>
    <file id="file-5"/>
    <sourcetrack>
    <mediatype>audio</mediatype>
    <trackindex>1</trackindex>
</sourcetrack>
    <labels>
        <label2>Iris</label2>
    </labels>
</clipitem>
<clipitem id="c7cf392d-6670-4218-a6c9-08e94954bf35" premiereChannelType="stereo">
    <masterclipid>masterclip-1</masterclipid>
    <name>S01E45.Jiggles.mkv</name>
    <enabled>TRUE</enabled>
    <duration>17218</duration>
    <rate>
        <timebase>23.976</timebase>
        <ntsc>FALSE</ntsc>
    </rate>
    <start>13061</start>
    <end>13082</end>
    <in>13472</in>
    <out>13493</out>
    <file id="file-5"/>
    <sourcetrack>
    <mediatype>audio</mediatype>
    <trackindex>1</trackindex>
</sourcetrack>
    <labels>
        <label2>Iris</label2>
    </labels>
</clipitem>
<clipitem id="c58efe75-0dcf-460a-9595-8ff60204d3ef" premiereChannelType="stereo">
    <masterclipid>masterclip-1</masterclipid>
    <name>S01E45.Jiggles.mkv</name>
    <enabled>TRUE</enabled>
    <duration>17218</duration>
    <rate>
        <timebase>23.976</timebase>
        <ntsc>FALSE</ntsc>
    </rate>
    <start>13082</start>
    <end>13093</end>
    <in>13493</in>
    <out>13504</out>
    <file id="file-5"/>
    <sourcetrack>
    <mediatype>audio</mediatype>
    <trackindex>1</trackindex>
</sourcetrack>
    <labels>
        <label2>Iris</label2>
    </labels>
</clipitem>
<clipitem id="595d8fd1-16f8-4fac-893d-9adcc51d285f" premiereChannelType="stereo">
    <masterclipid>masterclip-1</masterclipid>
    <name>S01E45.Jiggles.mkv</name>
    <enabled>TRUE</enabled>
    <duration>17218</duration>
    <rate>
        <timebase>23.976</timebase>
        <ntsc>FALSE</ntsc>
    </rate>
    <start>13093</start>
    <end>13104</end>
    <in>13504</in>
    <out>13515</out>
    <file id="file-5"/>
    <sourcetrack>
    <mediatype>audio</mediatype>
    <trackindex>1</trackindex>
</sourcetrack>
    <labels>
        <label2>Iris</label2>
    </labels>
</clipitem>
<clipitem id="603963c2-461d-4053-805e-dbdec70a778c" premiereChannelType="stereo">
    <masterclipid>masterclip-1</masterclipid>
    <name>S01E45.Jiggles.mkv</name>
    <enabled>TRUE</enabled>
    <duration>17218</duration>
    <rate>
        <timebase>23.976</timebase>
        <ntsc>FALSE</ntsc>
    </rate>
    <start>13104</start>
    <end>13156</end>
    <in>13515</in>
    <out>13567</out>
    <file id="file-5"/>
    <sourcetrack>
    <mediatype>audio</mediatype>
    <trackindex>1</trackindex>
</sourcetrack>
    <labels>
        <label2>Iris</label2>
    </labels>
</clipitem>
<clipitem id="80c65fcf-f8a0-4d9c-a38b-1e94687a35e5" premiereChannelType="stereo">
    <masterclipid>masterclip-1</masterclipid>
    <name>S01E45.Jiggles.mkv</name>
    <enabled>TRUE</enabled>
    <duration>17218</duration>
    <rate>
        <timebase>23.976</timebase>
        <ntsc>FALSE</ntsc>
    </rate>
    <start>13156</start>
    <end>13167</end>
    <in>13567</in>
    <out>13578</out>
    <file id="file-5"/>
    <sourcetrack>
    <mediatype>audio</mediatype>
    <trackindex>1</trackindex>
</sourcetrack>
    <labels>
        <label2>Iris</label2>
    </labels>
</clipitem>
<clipitem id="d63858f1-f6c4-4705-b26e-7f270a558262" premiereChannelType="stereo">
    <masterclipid>masterclip-1</masterclipid>
    <name>S01E45.Jiggles.mkv</name>
    <enabled>TRUE</enabled>
    <duration>17218</duration>
    <rate>
        <timebase>23.976</timebase>
        <ntsc>FALSE</ntsc>
    </rate>
    <start>13167</start>
    <end>13196</end>
    <in>13578</in>
    <out>13607</out>
    <file id="file-5"/>
    <sourcetrack>
    <mediatype>audio</mediatype>
    <trackindex>1</trackindex>
</sourcetrack>
    <labels>
        <label2>Iris</label2>
    </labels>
</clipitem>
<clipitem id="a3075e58-f8a4-47f9-85ee-e5f57ddb67f4" premiereChannelType="stereo">
    <masterclipid>masterclip-1</masterclipid>
    <name>S01E45.Jiggles.mkv</name>
    <enabled>TRUE</enabled>
    <duration>17218</duration>
    <rate>
        <timebase>23.976</timebase>
        <ntsc>FALSE</ntsc>
    </rate>
    <start>13196</start>
    <end>13207</end>
    <in>13607</in>
    <out>13618</out>
    <file id="file-5"/>
    <sourcetrack>
    <mediatype>audio</mediatype>
    <trackindex>1</trackindex>
</sourcetrack>
    <labels>
        <label2>Iris</label2>
    </labels>
</clipitem>
<clipitem id="637e9623-7c23-4e83-a93c-ac27d17bb2ad" premiereChannelType="stereo">
    <masterclipid>masterclip-1</masterclipid>
    <name>S01E45.Jiggles.mkv</name>
    <enabled>TRUE</enabled>
    <duration>17218</duration>
    <rate>
        <timebase>23.976</timebase>
        <ntsc>FALSE</ntsc>
    </rate>
    <start>13207</start>
    <end>13221</end>
    <in>13618</in>
    <out>13632</out>
    <file id="file-5"/>
    <sourcetrack>
    <mediatype>audio</mediatype>
    <trackindex>1</trackindex>
</sourcetrack>
    <labels>
        <label2>Iris</label2>
    </labels>
</clipitem>
<clipitem id="932dfff8-0a1b-44c9-8e9b-e1fe59f3d549" premiereChannelType="stereo">
    <masterclipid>masterclip-1</masterclipid>
    <name>S01E45.Jiggles.mkv</name>
    <enabled>TRUE</enabled>
    <duration>17218</duration>
    <rate>
        <timebase>23.976</timebase>
        <ntsc>FALSE</ntsc>
    </rate>
    <start>13221</start>
    <end>13238</end>
    <in>13632</in>
    <out>13649</out>
    <file id="file-5"/>
    <sourcetrack>
    <mediatype>audio</mediatype>
    <trackindex>1</trackindex>
</sourcetrack>
    <labels>
        <label2>Iris</label2>
    </labels>
</clipitem>
<clipitem id="cd3b0736-929b-4a61-bc13-f9d071cf6e24" premiereChannelType="stereo">
    <masterclipid>masterclip-1</masterclipid>
    <name>S01E45.Jiggles.mkv</name>
    <enabled>TRUE</enabled>
    <duration>17218</duration>
    <rate>
        <timebase>23.976</timebase>
        <ntsc>FALSE</ntsc>
    </rate>
    <start>13238</start>
    <end>13249</end>
    <in>13649</in>
    <out>13660</out>
    <file id="file-5"/>
    <sourcetrack>
    <mediatype>audio</mediatype>
    <trackindex>1</trackindex>
</sourcetrack>
    <labels>
        <label2>Iris</label2>
    </labels>
</clipitem>
<clipitem id="618b0703-b9a0-48a6-972e-83258d05b06a" premiereChannelType="stereo">
    <masterclipid>masterclip-1</masterclipid>
    <name>S01E45.Jiggles.mkv</name>
    <enabled>TRUE</enabled>
    <duration>17218</duration>
    <rate>
        <timebase>23.976</timebase>
        <ntsc>FALSE</ntsc>
    </rate>
    <start>13249</start>
    <end>13261</end>
    <in>13659</in>
    <out>13671</out>
    <file id="file-5"/>
    <sourcetrack>
    <mediatype>audio</mediatype>
    <trackindex>1</trackindex>
</sourcetrack>
    <labels>
        <label2>Iris</label2>
    </labels>
</clipitem>
<clipitem id="c8bd2781-8dbe-4ddf-9c8e-7e103b794873" premiereChannelType="stereo">
    <masterclipid>masterclip-1</masterclipid>
    <name>S01E45.Jiggles.mkv</name>
    <enabled>TRUE</enabled>
    <duration>17218</duration>
    <rate>
        <timebase>23.976</timebase>
        <ntsc>FALSE</ntsc>
    </rate>
    <start>13261</start>
    <end>13272</end>
    <in>13672</in>
    <out>13683</out>
    <file id="file-5"/>
    <sourcetrack>
    <mediatype>audio</mediatype>
    <trackindex>1</trackindex>
</sourcetrack>
    <labels>
        <label2>Iris</label2>
    </labels>
</clipitem>
<clipitem id="593c6561-acca-4830-b78b-5c29a72691e6" premiereChannelType="stereo">
    <masterclipid>masterclip-1</masterclipid>
    <name>S01E45.Jiggles.mkv</name>
    <enabled>TRUE</enabled>
    <duration>17218</duration>
    <rate>
        <timebase>23.976</timebase>
        <ntsc>FALSE</ntsc>
    </rate>
    <start>13272</start>
    <end>13319</end>
    <in>13683</in>
    <out>13730</out>
    <file id="file-5"/>
    <sourcetrack>
    <mediatype>audio</mediatype>
    <trackindex>1</trackindex>
</sourcetrack>
    <labels>
        <label2>Iris</label2>
    </labels>
</clipitem>
<clipitem id="5f33feba-33cc-405b-8829-5e30ab4c4c28" premiereChannelType="stereo">
    <masterclipid>masterclip-1</masterclipid>
    <name>S01E45.Jiggles.mkv</name>
    <enabled>TRUE</enabled>
    <duration>17218</duration>
    <rate>
        <timebase>23.976</timebase>
        <ntsc>FALSE</ntsc>
    </rate>
    <start>13319</start>
    <end>13334</end>
    <in>13730</in>
    <out>13745</out>
    <file id="file-5"/>
    <sourcetrack>
    <mediatype>audio</mediatype>
    <trackindex>1</trackindex>
</sourcetrack>
    <labels>
        <label2>Iris</label2>
    </labels>
</clipitem>
<clipitem id="acbc7c5e-7f40-43ac-bcf6-603819db8957" premiereChannelType="stereo">
    <masterclipid>masterclip-1</masterclipid>
    <name>S01E45.Jiggles.mkv</name>
    <enabled>TRUE</enabled>
    <duration>17218</duration>
    <rate>
        <timebase>23.976</timebase>
        <ntsc>FALSE</ntsc>
    </rate>
    <start>13334</start>
    <end>13350</end>
    <in>13745</in>
    <out>13761</out>
    <file id="file-5"/>
    <sourcetrack>
    <mediatype>audio</mediatype>
    <trackindex>1</trackindex>
</sourcetrack>
    <labels>
        <label2>Iris</label2>
    </labels>
</clipitem>
<clipitem id="30801e6b-a84f-4113-be48-cadd816adbce" premiereChannelType="stereo">
    <masterclipid>masterclip-1</masterclipid>
    <name>S01E45.Jiggles.mkv</name>
    <enabled>TRUE</enabled>
    <duration>17218</duration>
    <rate>
        <timebase>23.976</timebase>
        <ntsc>FALSE</ntsc>
    </rate>
    <start>13350</start>
    <end>13362</end>
    <in>13761</in>
    <out>13773</out>
    <file id="file-5"/>
    <sourcetrack>
    <mediatype>audio</mediatype>
    <trackindex>1</trackindex>
</sourcetrack>
    <labels>
        <label2>Iris</label2>
    </labels>
</clipitem>
<clipitem id="51932b7f-c68d-480f-8f1e-02c1ceea5b5b" premiereChannelType="stereo">
    <masterclipid>masterclip-1</masterclipid>
    <name>S01E45.Jiggles.mkv</name>
    <enabled>TRUE</enabled>
    <duration>17218</duration>
    <rate>
        <timebase>23.976</timebase>
        <ntsc>FALSE</ntsc>
    </rate>
    <start>13362</start>
    <end>13387</end>
    <in>13773</in>
    <out>13798</out>
    <file id="file-5"/>
    <sourcetrack>
    <mediatype>audio</mediatype>
    <trackindex>1</trackindex>
</sourcetrack>
    <labels>
        <label2>Iris</label2>
    </labels>
</clipitem>
<clipitem id="06dce23e-00d7-4974-a301-712a0725db1c" premiereChannelType="stereo">
    <masterclipid>masterclip-1</masterclipid>
    <name>S01E45.Jiggles.mkv</name>
    <enabled>TRUE</enabled>
    <duration>17218</duration>
    <rate>
        <timebase>23.976</timebase>
        <ntsc>FALSE</ntsc>
    </rate>
    <start>13387</start>
    <end>13431</end>
    <in>13798</in>
    <out>13842</out>
    <file id="file-5"/>
    <sourcetrack>
    <mediatype>audio</mediatype>
    <trackindex>1</trackindex>
</sourcetrack>
    <labels>
        <label2>Iris</label2>
    </labels>
</clipitem>
<clipitem id="2e1c29d9-038f-4705-bec4-26e52fb57878" premiereChannelType="stereo">
    <masterclipid>masterclip-1</masterclipid>
    <name>S01E45.Jiggles.mkv</name>
    <enabled>TRUE</enabled>
    <duration>17218</duration>
    <rate>
        <timebase>23.976</timebase>
        <ntsc>FALSE</ntsc>
    </rate>
    <start>13431</start>
    <end>13451</end>
    <in>13842</in>
    <out>13862</out>
    <file id="file-5"/>
    <sourcetrack>
    <mediatype>audio</mediatype>
    <trackindex>1</trackindex>
</sourcetrack>
    <labels>
        <label2>Iris</label2>
    </labels>
</clipitem>
<clipitem id="96bd55c3-8149-4520-b433-c4d3b4612733" premiereChannelType="stereo">
    <masterclipid>masterclip-1</masterclipid>
    <name>S01E45.Jiggles.mkv</name>
    <enabled>TRUE</enabled>
    <duration>17218</duration>
    <rate>
        <timebase>23.976</timebase>
        <ntsc>FALSE</ntsc>
    </rate>
    <start>13451</start>
    <end>13462</end>
    <in>13862</in>
    <out>13873</out>
    <file id="file-5"/>
    <sourcetrack>
    <mediatype>audio</mediatype>
    <trackindex>1</trackindex>
</sourcetrack>
    <labels>
        <label2>Iris</label2>
    </labels>
</clipitem>
<clipitem id="82466001-0e0e-4eaa-ad40-ac86991856b8" premiereChannelType="stereo">
    <masterclipid>masterclip-1</masterclipid>
    <name>S01E45.Jiggles.mkv</name>
    <enabled>TRUE</enabled>
    <duration>17218</duration>
    <rate>
        <timebase>23.976</timebase>
        <ntsc>FALSE</ntsc>
    </rate>
    <start>13462</start>
    <end>13516</end>
    <in>13873</in>
    <out>13927</out>
    <file id="file-5"/>
    <sourcetrack>
    <mediatype>audio</mediatype>
    <trackindex>1</trackindex>
</sourcetrack>
    <labels>
        <label2>Iris</label2>
    </labels>
</clipitem>
<clipitem id="49410d8b-6d5a-4f6a-a1c0-177df6ab8f07" premiereChannelType="stereo">
    <masterclipid>masterclip-1</masterclipid>
    <name>S01E45.Jiggles.mkv</name>
    <enabled>TRUE</enabled>
    <duration>17218</duration>
    <rate>
        <timebase>23.976</timebase>
        <ntsc>FALSE</ntsc>
    </rate>
    <start>13516</start>
    <end>13531</end>
    <in>13927</in>
    <out>13942</out>
    <file id="file-5"/>
    <sourcetrack>
    <mediatype>audio</mediatype>
    <trackindex>1</trackindex>
</sourcetrack>
    <labels>
        <label2>Iris</label2>
    </labels>
</clipitem>
<clipitem id="2db4863e-0594-4eb4-b9a0-31d72c0c6c2c" premiereChannelType="stereo">
    <masterclipid>masterclip-1</masterclipid>
    <name>S01E45.Jiggles.mkv</name>
    <enabled>TRUE</enabled>
    <duration>17218</duration>
    <rate>
        <timebase>23.976</timebase>
        <ntsc>FALSE</ntsc>
    </rate>
    <start>13531</start>
    <end>13559</end>
    <in>13942</in>
    <out>13970</out>
    <file id="file-5"/>
    <sourcetrack>
    <mediatype>audio</mediatype>
    <trackindex>1</trackindex>
</sourcetrack>
    <labels>
        <label2>Iris</label2>
    </labels>
</clipitem>
<clipitem id="bb7c939b-286b-4074-8d8b-b24fd347cdb8" premiereChannelType="stereo">
    <masterclipid>masterclip-1</masterclipid>
    <name>S01E45.Jiggles.mkv</name>
    <enabled>TRUE</enabled>
    <duration>17218</duration>
    <rate>
        <timebase>23.976</timebase>
        <ntsc>FALSE</ntsc>
    </rate>
    <start>13559</start>
    <end>13589</end>
    <in>13970</in>
    <out>14000</out>
    <file id="file-5"/>
    <sourcetrack>
    <mediatype>audio</mediatype>
    <trackindex>1</trackindex>
</sourcetrack>
    <labels>
        <label2>Iris</label2>
    </labels>
</clipitem>
<clipitem id="2b058419-a069-4768-9615-d9c3783861a6" premiereChannelType="stereo">
    <masterclipid>masterclip-1</masterclipid>
    <name>S01E45.Jiggles.mkv</name>
    <enabled>TRUE</enabled>
    <duration>17218</duration>
    <rate>
        <timebase>23.976</timebase>
        <ntsc>FALSE</ntsc>
    </rate>
    <start>13589</start>
    <end>13621</end>
    <in>14000</in>
    <out>14032</out>
    <file id="file-5"/>
    <sourcetrack>
    <mediatype>audio</mediatype>
    <trackindex>1</trackindex>
</sourcetrack>
    <labels>
        <label2>Iris</label2>
    </labels>
</clipitem>
<clipitem id="313a6c89-cd91-44c3-863f-37748e845c8d" premiereChannelType="stereo">
    <masterclipid>masterclip-1</masterclipid>
    <name>S01E45.Jiggles.mkv</name>
    <enabled>TRUE</enabled>
    <duration>17218</duration>
    <rate>
        <timebase>23.976</timebase>
        <ntsc>FALSE</ntsc>
    </rate>
    <start>13621</start>
    <end>13632</end>
    <in>14032</in>
    <out>14043</out>
    <file id="file-5"/>
    <sourcetrack>
    <mediatype>audio</mediatype>
    <trackindex>1</trackindex>
</sourcetrack>
    <labels>
        <label2>Iris</label2>
    </labels>
</clipitem>
<clipitem id="439be3e7-4559-4d3b-9cc5-2864d471c2f0" premiereChannelType="stereo">
    <masterclipid>masterclip-1</masterclipid>
    <name>S01E45.Jiggles.mkv</name>
    <enabled>TRUE</enabled>
    <duration>17218</duration>
    <rate>
        <timebase>23.976</timebase>
        <ntsc>FALSE</ntsc>
    </rate>
    <start>13632</start>
    <end>13653</end>
    <in>14043</in>
    <out>14064</out>
    <file id="file-5"/>
    <sourcetrack>
    <mediatype>audio</mediatype>
    <trackindex>1</trackindex>
</sourcetrack>
    <labels>
        <label2>Iris</label2>
    </labels>
</clipitem>
<clipitem id="a31f4a26-9555-435f-9a41-830de482c7fd" premiereChannelType="stereo">
    <masterclipid>masterclip-1</masterclipid>
    <name>S01E45.Jiggles.mkv</name>
    <enabled>TRUE</enabled>
    <duration>17218</duration>
    <rate>
        <timebase>23.976</timebase>
        <ntsc>FALSE</ntsc>
    </rate>
    <start>13653</start>
    <end>13664</end>
    <in>14064</in>
    <out>14075</out>
    <file id="file-5"/>
    <sourcetrack>
    <mediatype>audio</mediatype>
    <trackindex>1</trackindex>
</sourcetrack>
    <labels>
        <label2>Iris</label2>
    </labels>
</clipitem>
<clipitem id="f9ff7b4f-e7b4-4c09-932d-fdd53f4d716f" premiereChannelType="stereo">
    <masterclipid>masterclip-1</masterclipid>
    <name>S01E45.Jiggles.mkv</name>
    <enabled>TRUE</enabled>
    <duration>17218</duration>
    <rate>
        <timebase>23.976</timebase>
        <ntsc>FALSE</ntsc>
    </rate>
    <start>13664</start>
    <end>13675</end>
    <in>14075</in>
    <out>14086</out>
    <file id="file-5"/>
    <sourcetrack>
    <mediatype>audio</mediatype>
    <trackindex>1</trackindex>
</sourcetrack>
    <labels>
        <label2>Iris</label2>
    </labels>
</clipitem>
<clipitem id="7c5d1cc0-b877-400e-8947-14e8350dda31" premiereChannelType="stereo">
    <masterclipid>masterclip-1</masterclipid>
    <name>S01E45.Jiggles.mkv</name>
    <enabled>TRUE</enabled>
    <duration>17218</duration>
    <rate>
        <timebase>23.976</timebase>
        <ntsc>FALSE</ntsc>
    </rate>
    <start>13675</start>
    <end>13687</end>
    <in>14086</in>
    <out>14098</out>
    <file id="file-5"/>
    <sourcetrack>
    <mediatype>audio</mediatype>
    <trackindex>1</trackindex>
</sourcetrack>
    <labels>
        <label2>Iris</label2>
    </labels>
</clipitem>
<clipitem id="35314964-2e4a-4608-b4ff-8e2c647695e8" premiereChannelType="stereo">
    <masterclipid>masterclip-1</masterclipid>
    <name>S01E45.Jiggles.mkv</name>
    <enabled>TRUE</enabled>
    <duration>17218</duration>
    <rate>
        <timebase>23.976</timebase>
        <ntsc>FALSE</ntsc>
    </rate>
    <start>13687</start>
    <end>13699</end>
    <in>14098</in>
    <out>14110</out>
    <file id="file-5"/>
    <sourcetrack>
    <mediatype>audio</mediatype>
    <trackindex>1</trackindex>
</sourcetrack>
    <labels>
        <label2>Iris</label2>
    </labels>
</clipitem>
<clipitem id="b8aadfd5-c746-41f4-b505-e4011a5245e6" premiereChannelType="stereo">
    <masterclipid>masterclip-1</masterclipid>
    <name>S01E45.Jiggles.mkv</name>
    <enabled>TRUE</enabled>
    <duration>17218</duration>
    <rate>
        <timebase>23.976</timebase>
        <ntsc>FALSE</ntsc>
    </rate>
    <start>13699</start>
    <end>13745</end>
    <in>14109</in>
    <out>14155</out>
    <file id="file-5"/>
    <sourcetrack>
    <mediatype>audio</mediatype>
    <trackindex>1</trackindex>
</sourcetrack>
    <labels>
        <label2>Iris</label2>
    </labels>
</clipitem>
<clipitem id="37e1c380-f2be-4661-befd-3142a8a803dc" premiereChannelType="stereo">
    <masterclipid>masterclip-1</masterclipid>
    <name>S01E45.Jiggles.mkv</name>
    <enabled>TRUE</enabled>
    <duration>17218</duration>
    <rate>
        <timebase>23.976</timebase>
        <ntsc>FALSE</ntsc>
    </rate>
    <start>13745</start>
    <end>13796</end>
    <in>14156</in>
    <out>14207</out>
    <file id="file-5"/>
    <sourcetrack>
    <mediatype>audio</mediatype>
    <trackindex>1</trackindex>
</sourcetrack>
    <labels>
        <label2>Iris</label2>
    </labels>
</clipitem>
<clipitem id="2e812726-b074-4c37-9632-d843c9f51de8" premiereChannelType="stereo">
    <masterclipid>masterclip-1</masterclipid>
    <name>S01E45.Jiggles.mkv</name>
    <enabled>TRUE</enabled>
    <duration>17218</duration>
    <rate>
        <timebase>23.976</timebase>
        <ntsc>FALSE</ntsc>
    </rate>
    <start>13796</start>
    <end>13860</end>
    <in>14207</in>
    <out>14271</out>
    <file id="file-5"/>
    <sourcetrack>
    <mediatype>audio</mediatype>
    <trackindex>1</trackindex>
</sourcetrack>
    <labels>
        <label2>Iris</label2>
    </labels>
</clipitem>
<clipitem id="be8f9a14-d834-404a-bec2-7f72e499222c" premiereChannelType="stereo">
    <masterclipid>masterclip-1</masterclipid>
    <name>S01E45.Jiggles.mkv</name>
    <enabled>TRUE</enabled>
    <duration>17218</duration>
    <rate>
        <timebase>23.976</timebase>
        <ntsc>FALSE</ntsc>
    </rate>
    <start>13860</start>
    <end>13871</end>
    <in>14271</in>
    <out>14282</out>
    <file id="file-5"/>
    <sourcetrack>
    <mediatype>audio</mediatype>
    <trackindex>1</trackindex>
</sourcetrack>
    <labels>
        <label2>Iris</label2>
    </labels>
</clipitem>
<clipitem id="58c3a596-e6b0-4c71-ab32-17497f49a581" premiereChannelType="stereo">
    <masterclipid>masterclip-1</masterclipid>
    <name>S01E45.Jiggles.mkv</name>
    <enabled>TRUE</enabled>
    <duration>17218</duration>
    <rate>
        <timebase>23.976</timebase>
        <ntsc>FALSE</ntsc>
    </rate>
    <start>13871</start>
    <end>13887</end>
    <in>14282</in>
    <out>14298</out>
    <file id="file-5"/>
    <sourcetrack>
    <mediatype>audio</mediatype>
    <trackindex>1</trackindex>
</sourcetrack>
    <labels>
        <label2>Iris</label2>
    </labels>
</clipitem>
<clipitem id="c46989c2-501f-4495-a18b-a11a29fbfe23" premiereChannelType="stereo">
    <masterclipid>masterclip-1</masterclipid>
    <name>S01E45.Jiggles.mkv</name>
    <enabled>TRUE</enabled>
    <duration>17218</duration>
    <rate>
        <timebase>23.976</timebase>
        <ntsc>FALSE</ntsc>
    </rate>
    <start>13887</start>
    <end>13905</end>
    <in>14298</in>
    <out>14316</out>
    <file id="file-5"/>
    <sourcetrack>
    <mediatype>audio</mediatype>
    <trackindex>1</trackindex>
</sourcetrack>
    <labels>
        <label2>Iris</label2>
    </labels>
</clipitem>
<clipitem id="19efe694-99dc-46ce-a817-25c128b9f919" premiereChannelType="stereo">
    <masterclipid>masterclip-1</masterclipid>
    <name>S01E45.Jiggles.mkv</name>
    <enabled>TRUE</enabled>
    <duration>17218</duration>
    <rate>
        <timebase>23.976</timebase>
        <ntsc>FALSE</ntsc>
    </rate>
    <start>13905</start>
    <end>13916</end>
    <in>14316</in>
    <out>14327</out>
    <file id="file-5"/>
    <sourcetrack>
    <mediatype>audio</mediatype>
    <trackindex>1</trackindex>
</sourcetrack>
    <labels>
        <label2>Iris</label2>
    </labels>
</clipitem>
<clipitem id="1545034d-c55b-4c44-82c7-18dd61674a4b" premiereChannelType="stereo">
    <masterclipid>masterclip-1</masterclipid>
    <name>S01E45.Jiggles.mkv</name>
    <enabled>TRUE</enabled>
    <duration>17218</duration>
    <rate>
        <timebase>23.976</timebase>
        <ntsc>FALSE</ntsc>
    </rate>
    <start>13916</start>
    <end>13927</end>
    <in>14327</in>
    <out>14338</out>
    <file id="file-5"/>
    <sourcetrack>
    <mediatype>audio</mediatype>
    <trackindex>1</trackindex>
</sourcetrack>
    <labels>
        <label2>Iris</label2>
    </labels>
</clipitem>
<clipitem id="32f7cc31-dd73-4216-912b-3aee2a691e30" premiereChannelType="stereo">
    <masterclipid>masterclip-1</masterclipid>
    <name>S01E45.Jiggles.mkv</name>
    <enabled>TRUE</enabled>
    <duration>17218</duration>
    <rate>
        <timebase>23.976</timebase>
        <ntsc>FALSE</ntsc>
    </rate>
    <start>13927</start>
    <end>13944</end>
    <in>14338</in>
    <out>14355</out>
    <file id="file-5"/>
    <sourcetrack>
    <mediatype>audio</mediatype>
    <trackindex>1</trackindex>
</sourcetrack>
    <labels>
        <label2>Iris</label2>
    </labels>
</clipitem>
<clipitem id="11a3a4d3-4a83-4630-893d-2747801bc010" premiereChannelType="stereo">
    <masterclipid>masterclip-1</masterclipid>
    <name>S01E45.Jiggles.mkv</name>
    <enabled>TRUE</enabled>
    <duration>17218</duration>
    <rate>
        <timebase>23.976</timebase>
        <ntsc>FALSE</ntsc>
    </rate>
    <start>13944</start>
    <end>13965</end>
    <in>14355</in>
    <out>14376</out>
    <file id="file-5"/>
    <sourcetrack>
    <mediatype>audio</mediatype>
    <trackindex>1</trackindex>
</sourcetrack>
    <labels>
        <label2>Iris</label2>
    </labels>
</clipitem>
<clipitem id="6994cab7-6173-4d7e-8b2c-448f72f15bcc" premiereChannelType="stereo">
    <masterclipid>masterclip-1</masterclipid>
    <name>S01E45.Jiggles.mkv</name>
    <enabled>TRUE</enabled>
    <duration>17218</duration>
    <rate>
        <timebase>23.976</timebase>
        <ntsc>FALSE</ntsc>
    </rate>
    <start>13965</start>
    <end>13980</end>
    <in>14376</in>
    <out>14391</out>
    <file id="file-5"/>
    <sourcetrack>
    <mediatype>audio</mediatype>
    <trackindex>1</trackindex>
</sourcetrack>
    <labels>
        <label2>Iris</label2>
    </labels>
</clipitem>
<clipitem id="83636def-e2d4-4c49-86ca-741eda8c2a1f" premiereChannelType="stereo">
    <masterclipid>masterclip-1</masterclipid>
    <name>S01E45.Jiggles.mkv</name>
    <enabled>TRUE</enabled>
    <duration>17218</duration>
    <rate>
        <timebase>23.976</timebase>
        <ntsc>FALSE</ntsc>
    </rate>
    <start>13980</start>
    <end>13993</end>
    <in>14391</in>
    <out>14404</out>
    <file id="file-5"/>
    <sourcetrack>
    <mediatype>audio</mediatype>
    <trackindex>1</trackindex>
</sourcetrack>
    <labels>
        <label2>Iris</label2>
    </labels>
</clipitem>
<clipitem id="b35db7e7-51cf-490a-99d7-c223a211677b" premiereChannelType="stereo">
    <masterclipid>masterclip-1</masterclipid>
    <name>S01E45.Jiggles.mkv</name>
    <enabled>TRUE</enabled>
    <duration>17218</duration>
    <rate>
        <timebase>23.976</timebase>
        <ntsc>FALSE</ntsc>
    </rate>
    <start>13993</start>
    <end>14004</end>
    <in>14404</in>
    <out>14415</out>
    <file id="file-5"/>
    <sourcetrack>
    <mediatype>audio</mediatype>
    <trackindex>1</trackindex>
</sourcetrack>
    <labels>
        <label2>Iris</label2>
    </labels>
</clipitem>
<clipitem id="20423360-c60a-4970-aa1c-9c7539ece88e" premiereChannelType="stereo">
    <masterclipid>masterclip-1</masterclipid>
    <name>S01E45.Jiggles.mkv</name>
    <enabled>TRUE</enabled>
    <duration>17218</duration>
    <rate>
        <timebase>23.976</timebase>
        <ntsc>FALSE</ntsc>
    </rate>
    <start>14004</start>
    <end>14019</end>
    <in>14415</in>
    <out>14430</out>
    <file id="file-5"/>
    <sourcetrack>
    <mediatype>audio</mediatype>
    <trackindex>1</trackindex>
</sourcetrack>
    <labels>
        <label2>Iris</label2>
    </labels>
</clipitem>
<clipitem id="d9cf3cfd-8844-409b-8050-17df3cee2d0a" premiereChannelType="stereo">
    <masterclipid>masterclip-1</masterclipid>
    <name>S01E45.Jiggles.mkv</name>
    <enabled>TRUE</enabled>
    <duration>17218</duration>
    <rate>
        <timebase>23.976</timebase>
        <ntsc>FALSE</ntsc>
    </rate>
    <start>14019</start>
    <end>14046</end>
    <in>14430</in>
    <out>14457</out>
    <file id="file-5"/>
    <sourcetrack>
    <mediatype>audio</mediatype>
    <trackindex>1</trackindex>
</sourcetrack>
    <labels>
        <label2>Iris</label2>
    </labels>
</clipitem>
<clipitem id="fcb9f5dd-4d65-4d3b-9726-811f83f735ab" premiereChannelType="stereo">
    <masterclipid>masterclip-1</masterclipid>
    <name>S01E45.Jiggles.mkv</name>
    <enabled>TRUE</enabled>
    <duration>17218</duration>
    <rate>
        <timebase>23.976</timebase>
        <ntsc>FALSE</ntsc>
    </rate>
    <start>14046</start>
    <end>14224</end>
    <in>14457</in>
    <out>14635</out>
    <file id="file-5"/>
    <sourcetrack>
    <mediatype>audio</mediatype>
    <trackindex>1</trackindex>
</sourcetrack>
    <labels>
        <label2>Iris</label2>
    </labels>
</clipitem>
<clipitem id="7d1eb62b-436f-4aa6-b484-6339a1b498b2" premiereChannelType="stereo">
    <masterclipid>masterclip-1</masterclipid>
    <name>S01E45.Jiggles.mkv</name>
    <enabled>TRUE</enabled>
    <duration>17218</duration>
    <rate>
        <timebase>23.976</timebase>
        <ntsc>FALSE</ntsc>
    </rate>
    <start>14224</start>
    <end>14282</end>
    <in>14635</in>
    <out>14693</out>
    <file id="file-5"/>
    <sourcetrack>
    <mediatype>audio</mediatype>
    <trackindex>1</trackindex>
</sourcetrack>
    <labels>
        <label2>Iris</label2>
    </labels>
</clipitem>
<clipitem id="12af8783-a0f0-4b50-9b3c-e6002d67e984" premiereChannelType="stereo">
    <masterclipid>masterclip-1</masterclipid>
    <name>S01E45.Jiggles.mkv</name>
    <enabled>TRUE</enabled>
    <duration>17218</duration>
    <rate>
        <timebase>23.976</timebase>
        <ntsc>FALSE</ntsc>
    </rate>
    <start>14282</start>
    <end>14387</end>
    <in>14692</in>
    <out>14797</out>
    <file id="file-5"/>
    <sourcetrack>
    <mediatype>audio</mediatype>
    <trackindex>1</trackindex>
</sourcetrack>
    <labels>
        <label2>Iris</label2>
    </labels>
</clipitem>
<clipitem id="c7d9340d-73b2-409b-bd08-b0e74f07d7ed" premiereChannelType="stereo">
    <masterclipid>masterclip-1</masterclipid>
    <name>S01E45.Jiggles.mkv</name>
    <enabled>TRUE</enabled>
    <duration>17218</duration>
    <rate>
        <timebase>23.976</timebase>
        <ntsc>FALSE</ntsc>
    </rate>
    <start>14387</start>
    <end>14399</end>
    <in>14799</in>
    <out>14811</out>
    <file id="file-5"/>
    <sourcetrack>
    <mediatype>audio</mediatype>
    <trackindex>1</trackindex>
</sourcetrack>
    <labels>
        <label2>Iris</label2>
    </labels>
</clipitem>
<clipitem id="464de8bb-9203-4627-8a2c-d2550d984500" premiereChannelType="stereo">
    <masterclipid>masterclip-1</masterclipid>
    <name>S01E45.Jiggles.mkv</name>
    <enabled>TRUE</enabled>
    <duration>17218</duration>
    <rate>
        <timebase>23.976</timebase>
        <ntsc>FALSE</ntsc>
    </rate>
    <start>14399</start>
    <end>14410</end>
    <in>14811</in>
    <out>14822</out>
    <file id="file-5"/>
    <sourcetrack>
    <mediatype>audio</mediatype>
    <trackindex>1</trackindex>
</sourcetrack>
    <labels>
        <label2>Iris</label2>
    </labels>
</clipitem>
<clipitem id="f7b3d642-144b-4433-8e16-6d6410fe4fd9" premiereChannelType="stereo">
    <masterclipid>masterclip-1</masterclipid>
    <name>S01E45.Jiggles.mkv</name>
    <enabled>TRUE</enabled>
    <duration>17218</duration>
    <rate>
        <timebase>23.976</timebase>
        <ntsc>FALSE</ntsc>
    </rate>
    <start>14410</start>
    <end>14490</end>
    <in>14822</in>
    <out>14902</out>
    <file id="file-5"/>
    <sourcetrack>
    <mediatype>audio</mediatype>
    <trackindex>1</trackindex>
</sourcetrack>
    <labels>
        <label2>Iris</label2>
    </labels>
</clipitem>
<clipitem id="120663ef-a06a-4c22-bb7b-b317d06f53c0" premiereChannelType="stereo">
    <masterclipid>masterclip-1</masterclipid>
    <name>S01E45.Jiggles.mkv</name>
    <enabled>TRUE</enabled>
    <duration>17218</duration>
    <rate>
        <timebase>23.976</timebase>
        <ntsc>FALSE</ntsc>
    </rate>
    <start>14490</start>
    <end>14614</end>
    <in>14901</in>
    <out>15025</out>
    <file id="file-5"/>
    <sourcetrack>
    <mediatype>audio</mediatype>
    <trackindex>1</trackindex>
</sourcetrack>
    <labels>
        <label2>Iris</label2>
    </labels>
</clipitem>
<clipitem id="5bee724c-50d1-4902-b4d9-0a8b1a3d9e7d" premiereChannelType="stereo">
    <masterclipid>masterclip-1</masterclipid>
    <name>S01E45.Jiggles.mkv</name>
    <enabled>TRUE</enabled>
    <duration>17218</duration>
    <rate>
        <timebase>23.976</timebase>
        <ntsc>FALSE</ntsc>
    </rate>
    <start>14614</start>
    <end>14645</end>
    <in>15025</in>
    <out>15056</out>
    <file id="file-5"/>
    <sourcetrack>
    <mediatype>audio</mediatype>
    <trackindex>1</trackindex>
</sourcetrack>
    <labels>
        <label2>Iris</label2>
    </labels>
</clipitem>
<clipitem id="a643ace8-305f-4b93-92f6-e98e92063ec0" premiereChannelType="stereo">
    <masterclipid>masterclip-1</masterclipid>
    <name>S01E45.Jiggles.mkv</name>
    <enabled>TRUE</enabled>
    <duration>17218</duration>
    <rate>
        <timebase>23.976</timebase>
        <ntsc>FALSE</ntsc>
    </rate>
    <start>14645</start>
    <end>14661</end>
    <in>15056</in>
    <out>15072</out>
    <file id="file-5"/>
    <sourcetrack>
    <mediatype>audio</mediatype>
    <trackindex>1</trackindex>
</sourcetrack>
    <labels>
        <label2>Iris</label2>
    </labels>
</clipitem>
<clipitem id="aa3ba0e2-5948-42b7-9d85-d6b296ab5783" premiereChannelType="stereo">
    <masterclipid>masterclip-1</masterclipid>
    <name>S01E45.Jiggles.mkv</name>
    <enabled>TRUE</enabled>
    <duration>17218</duration>
    <rate>
        <timebase>23.976</timebase>
        <ntsc>FALSE</ntsc>
    </rate>
    <start>14661</start>
    <end>14672</end>
    <in>15072</in>
    <out>15083</out>
    <file id="file-5"/>
    <sourcetrack>
    <mediatype>audio</mediatype>
    <trackindex>1</trackindex>
</sourcetrack>
    <labels>
        <label2>Iris</label2>
    </labels>
</clipitem>
<clipitem id="335c19bb-8a11-4a95-b34e-7e47ccf4ff06" premiereChannelType="stereo">
    <masterclipid>masterclip-1</masterclipid>
    <name>S01E45.Jiggles.mkv</name>
    <enabled>TRUE</enabled>
    <duration>17218</duration>
    <rate>
        <timebase>23.976</timebase>
        <ntsc>FALSE</ntsc>
    </rate>
    <start>14672</start>
    <end>14684</end>
    <in>15083</in>
    <out>15095</out>
    <file id="file-5"/>
    <sourcetrack>
    <mediatype>audio</mediatype>
    <trackindex>1</trackindex>
</sourcetrack>
    <labels>
        <label2>Iris</label2>
    </labels>
</clipitem>
<clipitem id="4aecf419-4ded-4b00-b3d4-356bc1f14916" premiereChannelType="stereo">
    <masterclipid>masterclip-1</masterclipid>
    <name>S01E45.Jiggles.mkv</name>
    <enabled>TRUE</enabled>
    <duration>17218</duration>
    <rate>
        <timebase>23.976</timebase>
        <ntsc>FALSE</ntsc>
    </rate>
    <start>14684</start>
    <end>14695</end>
    <in>15095</in>
    <out>15106</out>
    <file id="file-5"/>
    <sourcetrack>
    <mediatype>audio</mediatype>
    <trackindex>1</trackindex>
</sourcetrack>
    <labels>
        <label2>Iris</label2>
    </labels>
</clipitem>
<clipitem id="8db485c1-f172-488c-a769-cda50daae63d" premiereChannelType="stereo">
    <masterclipid>masterclip-1</masterclipid>
    <name>S01E45.Jiggles.mkv</name>
    <enabled>TRUE</enabled>
    <duration>17218</duration>
    <rate>
        <timebase>23.976</timebase>
        <ntsc>FALSE</ntsc>
    </rate>
    <start>14695</start>
    <end>14712</end>
    <in>15106</in>
    <out>15123</out>
    <file id="file-5"/>
    <sourcetrack>
    <mediatype>audio</mediatype>
    <trackindex>1</trackindex>
</sourcetrack>
    <labels>
        <label2>Iris</label2>
    </labels>
</clipitem>
<clipitem id="1331abcf-0565-40b2-91ce-d30ea09af910" premiereChannelType="stereo">
    <masterclipid>masterclip-1</masterclipid>
    <name>S01E45.Jiggles.mkv</name>
    <enabled>TRUE</enabled>
    <duration>17218</duration>
    <rate>
        <timebase>23.976</timebase>
        <ntsc>FALSE</ntsc>
    </rate>
    <start>14712</start>
    <end>14753</end>
    <in>15124</in>
    <out>15165</out>
    <file id="file-5"/>
    <sourcetrack>
    <mediatype>audio</mediatype>
    <trackindex>1</trackindex>
</sourcetrack>
    <labels>
        <label2>Iris</label2>
    </labels>
</clipitem>
<clipitem id="5d6e10ac-20ec-4cf4-a48c-67909478efd7" premiereChannelType="stereo">
    <masterclipid>masterclip-1</masterclipid>
    <name>S01E45.Jiggles.mkv</name>
    <enabled>TRUE</enabled>
    <duration>17218</duration>
    <rate>
        <timebase>23.976</timebase>
        <ntsc>FALSE</ntsc>
    </rate>
    <start>14753</start>
    <end>14764</end>
    <in>15164</in>
    <out>15175</out>
    <file id="file-5"/>
    <sourcetrack>
    <mediatype>audio</mediatype>
    <trackindex>1</trackindex>
</sourcetrack>
    <labels>
        <label2>Iris</label2>
    </labels>
</clipitem>
<clipitem id="3bdb5c49-980d-48ae-a161-d348d79e5fc3" premiereChannelType="stereo">
    <masterclipid>masterclip-1</masterclipid>
    <name>S01E45.Jiggles.mkv</name>
    <enabled>TRUE</enabled>
    <duration>17218</duration>
    <rate>
        <timebase>23.976</timebase>
        <ntsc>FALSE</ntsc>
    </rate>
    <start>14764</start>
    <end>14806</end>
    <in>15175</in>
    <out>15217</out>
    <file id="file-5"/>
    <sourcetrack>
    <mediatype>audio</mediatype>
    <trackindex>1</trackindex>
</sourcetrack>
    <labels>
        <label2>Iris</label2>
    </labels>
</clipitem>
<clipitem id="7938dbd9-45d9-4951-9235-73deef6cd19a" premiereChannelType="stereo">
    <masterclipid>masterclip-1</masterclipid>
    <name>S01E45.Jiggles.mkv</name>
    <enabled>TRUE</enabled>
    <duration>17218</duration>
    <rate>
        <timebase>23.976</timebase>
        <ntsc>FALSE</ntsc>
    </rate>
    <start>14806</start>
    <end>14842</end>
    <in>15217</in>
    <out>15253</out>
    <file id="file-5"/>
    <sourcetrack>
    <mediatype>audio</mediatype>
    <trackindex>1</trackindex>
</sourcetrack>
    <labels>
        <label2>Iris</label2>
    </labels>
</clipitem>
<clipitem id="cdd2b0e5-83fb-4c80-86db-76a4192afe04" premiereChannelType="stereo">
    <masterclipid>masterclip-1</masterclipid>
    <name>S01E45.Jiggles.mkv</name>
    <enabled>TRUE</enabled>
    <duration>17218</duration>
    <rate>
        <timebase>23.976</timebase>
        <ntsc>FALSE</ntsc>
    </rate>
    <start>14842</start>
    <end>14889</end>
    <in>15253</in>
    <out>15300</out>
    <file id="file-5"/>
    <sourcetrack>
    <mediatype>audio</mediatype>
    <trackindex>1</trackindex>
</sourcetrack>
    <labels>
        <label2>Iris</label2>
    </labels>
</clipitem>
<clipitem id="d706145f-7e90-4dd9-916a-71cf9e57bbca" premiereChannelType="stereo">
    <masterclipid>masterclip-1</masterclipid>
    <name>S01E45.Jiggles.mkv</name>
    <enabled>TRUE</enabled>
    <duration>17218</duration>
    <rate>
        <timebase>23.976</timebase>
        <ntsc>FALSE</ntsc>
    </rate>
    <start>14889</start>
    <end>14901</end>
    <in>15299</in>
    <out>15311</out>
    <file id="file-5"/>
    <sourcetrack>
    <mediatype>audio</mediatype>
    <trackindex>1</trackindex>
</sourcetrack>
    <labels>
        <label2>Iris</label2>
    </labels>
</clipitem>
<clipitem id="f31bfdf1-5b23-4c49-86b6-823f93eb0aef" premiereChannelType="stereo">
    <masterclipid>masterclip-1</masterclipid>
    <name>S01E45.Jiggles.mkv</name>
    <enabled>TRUE</enabled>
    <duration>17218</duration>
    <rate>
        <timebase>23.976</timebase>
        <ntsc>FALSE</ntsc>
    </rate>
    <start>14901</start>
    <end>14914</end>
    <in>15312</in>
    <out>15325</out>
    <file id="file-5"/>
    <sourcetrack>
    <mediatype>audio</mediatype>
    <trackindex>1</trackindex>
</sourcetrack>
    <labels>
        <label2>Iris</label2>
    </labels>
</clipitem>
<clipitem id="7e07e757-a7ff-4e53-8aca-4740789092ff" premiereChannelType="stereo">
    <masterclipid>masterclip-1</masterclipid>
    <name>S01E45.Jiggles.mkv</name>
    <enabled>TRUE</enabled>
    <duration>17218</duration>
    <rate>
        <timebase>23.976</timebase>
        <ntsc>FALSE</ntsc>
    </rate>
    <start>14914</start>
    <end>14925</end>
    <in>15325</in>
    <out>15336</out>
    <file id="file-5"/>
    <sourcetrack>
    <mediatype>audio</mediatype>
    <trackindex>1</trackindex>
</sourcetrack>
    <labels>
        <label2>Iris</label2>
    </labels>
</clipitem>
<clipitem id="847fef9c-7fa0-4c8c-876a-90020e0a6505" premiereChannelType="stereo">
    <masterclipid>masterclip-1</masterclipid>
    <name>S01E45.Jiggles.mkv</name>
    <enabled>TRUE</enabled>
    <duration>17218</duration>
    <rate>
        <timebase>23.976</timebase>
        <ntsc>FALSE</ntsc>
    </rate>
    <start>14925</start>
    <end>14949</end>
    <in>15336</in>
    <out>15360</out>
    <file id="file-5"/>
    <sourcetrack>
    <mediatype>audio</mediatype>
    <trackindex>1</trackindex>
</sourcetrack>
    <labels>
        <label2>Iris</label2>
    </labels>
</clipitem>
<clipitem id="cf16e7d1-88b8-419c-a2a3-75467fa58127" premiereChannelType="stereo">
    <masterclipid>masterclip-1</masterclipid>
    <name>S01E45.Jiggles.mkv</name>
    <enabled>TRUE</enabled>
    <duration>17218</duration>
    <rate>
        <timebase>23.976</timebase>
        <ntsc>FALSE</ntsc>
    </rate>
    <start>14949</start>
    <end>15016</end>
    <in>15359</in>
    <out>15426</out>
    <file id="file-5"/>
    <sourcetrack>
    <mediatype>audio</mediatype>
    <trackindex>1</trackindex>
</sourcetrack>
    <labels>
        <label2>Iris</label2>
    </labels>
</clipitem>
<clipitem id="855159cf-27de-4a03-ab78-c65217564bec" premiereChannelType="stereo">
    <masterclipid>masterclip-1</masterclipid>
    <name>S01E45.Jiggles.mkv</name>
    <enabled>TRUE</enabled>
    <duration>17218</duration>
    <rate>
        <timebase>23.976</timebase>
        <ntsc>FALSE</ntsc>
    </rate>
    <start>15016</start>
    <end>15055</end>
    <in>15427</in>
    <out>15466</out>
    <file id="file-5"/>
    <sourcetrack>
    <mediatype>audio</mediatype>
    <trackindex>1</trackindex>
</sourcetrack>
    <labels>
        <label2>Iris</label2>
    </labels>
</clipitem>
<clipitem id="0bbed0b7-f07e-4294-a09e-cc4e61a2ce0d" premiereChannelType="stereo">
    <masterclipid>masterclip-1</masterclipid>
    <name>S01E45.Jiggles.mkv</name>
    <enabled>TRUE</enabled>
    <duration>17218</duration>
    <rate>
        <timebase>23.976</timebase>
        <ntsc>FALSE</ntsc>
    </rate>
    <start>15055</start>
    <end>15067</end>
    <in>15466</in>
    <out>15478</out>
    <file id="file-5"/>
    <sourcetrack>
    <mediatype>audio</mediatype>
    <trackindex>1</trackindex>
</sourcetrack>
    <labels>
        <label2>Iris</label2>
    </labels>
</clipitem>
<clipitem id="f24cc955-4585-4ca0-a00f-cc9c87b285ce" premiereChannelType="stereo">
    <masterclipid>masterclip-1</masterclipid>
    <name>S01E45.Jiggles.mkv</name>
    <enabled>TRUE</enabled>
    <duration>17218</duration>
    <rate>
        <timebase>23.976</timebase>
        <ntsc>FALSE</ntsc>
    </rate>
    <start>15067</start>
    <end>15102</end>
    <in>15478</in>
    <out>15513</out>
    <file id="file-5"/>
    <sourcetrack>
    <mediatype>audio</mediatype>
    <trackindex>1</trackindex>
</sourcetrack>
    <labels>
        <label2>Iris</label2>
    </labels>
</clipitem>
<clipitem id="c1760712-4cba-47eb-be95-321fe2779a29" premiereChannelType="stereo">
    <masterclipid>masterclip-1</masterclipid>
    <name>S01E45.Jiggles.mkv</name>
    <enabled>TRUE</enabled>
    <duration>17218</duration>
    <rate>
        <timebase>23.976</timebase>
        <ntsc>FALSE</ntsc>
    </rate>
    <start>15102</start>
    <end>15114</end>
    <in>15513</in>
    <out>15525</out>
    <file id="file-5"/>
    <sourcetrack>
    <mediatype>audio</mediatype>
    <trackindex>1</trackindex>
</sourcetrack>
    <labels>
        <label2>Iris</label2>
    </labels>
</clipitem>
<clipitem id="a2f44b32-c510-456a-92fb-3e7c7ba43df8" premiereChannelType="stereo">
    <masterclipid>masterclip-1</masterclipid>
    <name>S01E45.Jiggles.mkv</name>
    <enabled>TRUE</enabled>
    <duration>17218</duration>
    <rate>
        <timebase>23.976</timebase>
        <ntsc>FALSE</ntsc>
    </rate>
    <start>15114</start>
    <end>15131</end>
    <in>15525</in>
    <out>15542</out>
    <file id="file-5"/>
    <sourcetrack>
    <mediatype>audio</mediatype>
    <trackindex>1</trackindex>
</sourcetrack>
    <labels>
        <label2>Iris</label2>
    </labels>
</clipitem>
<clipitem id="ace6d8c7-6278-4c30-83d8-43871138cc55" premiereChannelType="stereo">
    <masterclipid>masterclip-1</masterclipid>
    <name>S01E45.Jiggles.mkv</name>
    <enabled>TRUE</enabled>
    <duration>17218</duration>
    <rate>
        <timebase>23.976</timebase>
        <ntsc>FALSE</ntsc>
    </rate>
    <start>15131</start>
    <end>15143</end>
    <in>15547</in>
    <out>15559</out>
    <file id="file-5"/>
    <sourcetrack>
    <mediatype>audio</mediatype>
    <trackindex>1</trackindex>
</sourcetrack>
    <labels>
        <label2>Iris</label2>
    </labels>
</clipitem>
<clipitem id="1bb5a07e-6360-4d95-b616-ae10b3b80b60" premiereChannelType="stereo">
    <masterclipid>masterclip-1</masterclipid>
    <name>S01E45.Jiggles.mkv</name>
    <enabled>TRUE</enabled>
    <duration>17218</duration>
    <rate>
        <timebase>23.976</timebase>
        <ntsc>FALSE</ntsc>
    </rate>
    <start>15143</start>
    <end>15157</end>
    <in>15554</in>
    <out>15568</out>
    <file id="file-5"/>
    <sourcetrack>
    <mediatype>audio</mediatype>
    <trackindex>1</trackindex>
</sourcetrack>
    <labels>
        <label2>Iris</label2>
    </labels>
</clipitem>
<clipitem id="ca28a1e1-f9c7-462c-b813-db52449455a1" premiereChannelType="stereo">
    <masterclipid>masterclip-1</masterclipid>
    <name>S01E45.Jiggles.mkv</name>
    <enabled>TRUE</enabled>
    <duration>17218</duration>
    <rate>
        <timebase>23.976</timebase>
        <ntsc>FALSE</ntsc>
    </rate>
    <start>15157</start>
    <end>15314</end>
    <in>15568</in>
    <out>15725</out>
    <file id="file-5"/>
    <sourcetrack>
    <mediatype>audio</mediatype>
    <trackindex>1</trackindex>
</sourcetrack>
    <labels>
        <label2>Iris</label2>
    </labels>
</clipitem>
<clipitem id="2942630a-2f80-46bd-bac4-3aec8f1a37cc" premiereChannelType="stereo">
    <masterclipid>masterclip-1</masterclipid>
    <name>S01E45.Jiggles.mkv</name>
    <enabled>TRUE</enabled>
    <duration>17218</duration>
    <rate>
        <timebase>23.976</timebase>
        <ntsc>FALSE</ntsc>
    </rate>
    <start>15314</start>
    <end>15325</end>
    <in>15725</in>
    <out>15736</out>
    <file id="file-5"/>
    <sourcetrack>
    <mediatype>audio</mediatype>
    <trackindex>1</trackindex>
</sourcetrack>
    <labels>
        <label2>Iris</label2>
    </labels>
</clipitem>
<clipitem id="5040d81c-b89a-4005-8fba-05dbd2b57565" premiereChannelType="stereo">
    <masterclipid>masterclip-1</masterclipid>
    <name>S01E45.Jiggles.mkv</name>
    <enabled>TRUE</enabled>
    <duration>17218</duration>
    <rate>
        <timebase>23.976</timebase>
        <ntsc>FALSE</ntsc>
    </rate>
    <start>15325</start>
    <end>15356</end>
    <in>15736</in>
    <out>15767</out>
    <file id="file-5"/>
    <sourcetrack>
    <mediatype>audio</mediatype>
    <trackindex>1</trackindex>
</sourcetrack>
    <labels>
        <label2>Iris</label2>
    </labels>
</clipitem>
<clipitem id="f0b2c3a7-c912-4f19-a97e-831462d0557c" premiereChannelType="stereo">
    <masterclipid>masterclip-1</masterclipid>
    <name>S01E45.Jiggles.mkv</name>
    <enabled>TRUE</enabled>
    <duration>17218</duration>
    <rate>
        <timebase>23.976</timebase>
        <ntsc>FALSE</ntsc>
    </rate>
    <start>15356</start>
    <end>15423</end>
    <in>15769</in>
    <out>15836</out>
    <file id="file-5"/>
    <sourcetrack>
    <mediatype>audio</mediatype>
    <trackindex>1</trackindex>
</sourcetrack>
    <labels>
        <label2>Iris</label2>
    </labels>
</clipitem>
<clipitem id="8d4aefca-50dd-4844-882f-b87fa35869da" premiereChannelType="stereo">
    <masterclipid>masterclip-1</masterclipid>
    <name>S01E45.Jiggles.mkv</name>
    <enabled>TRUE</enabled>
    <duration>17218</duration>
    <rate>
        <timebase>23.976</timebase>
        <ntsc>FALSE</ntsc>
    </rate>
    <start>15423</start>
    <end>15435</end>
    <in>15834</in>
    <out>15846</out>
    <file id="file-5"/>
    <sourcetrack>
    <mediatype>audio</mediatype>
    <trackindex>1</trackindex>
</sourcetrack>
    <labels>
        <label2>Iris</label2>
    </labels>
</clipitem>
<clipitem id="d7d0d8eb-b588-4fe3-9744-0f7c5b536d7c" premiereChannelType="stereo">
    <masterclipid>masterclip-1</masterclipid>
    <name>S01E45.Jiggles.mkv</name>
    <enabled>TRUE</enabled>
    <duration>17218</duration>
    <rate>
        <timebase>23.976</timebase>
        <ntsc>FALSE</ntsc>
    </rate>
    <start>15435</start>
    <end>15450</end>
    <in>15847</in>
    <out>15862</out>
    <file id="file-5"/>
    <sourcetrack>
    <mediatype>audio</mediatype>
    <trackindex>1</trackindex>
</sourcetrack>
    <labels>
        <label2>Iris</label2>
    </labels>
</clipitem>
<clipitem id="8342577b-836a-4e62-8a0a-883466e0fbe5" premiereChannelType="stereo">
    <masterclipid>masterclip-1</masterclipid>
    <name>S01E45.Jiggles.mkv</name>
    <enabled>TRUE</enabled>
    <duration>17218</duration>
    <rate>
        <timebase>23.976</timebase>
        <ntsc>FALSE</ntsc>
    </rate>
    <start>15450</start>
    <end>15467</end>
    <in>15861</in>
    <out>15878</out>
    <file id="file-5"/>
    <sourcetrack>
    <mediatype>audio</mediatype>
    <trackindex>1</trackindex>
</sourcetrack>
    <labels>
        <label2>Iris</label2>
    </labels>
</clipitem>
<clipitem id="57dbcbf3-992f-477a-9764-f15e1f283ffe" premiereChannelType="stereo">
    <masterclipid>masterclip-1</masterclipid>
    <name>S01E45.Jiggles.mkv</name>
    <enabled>TRUE</enabled>
    <duration>17218</duration>
    <rate>
        <timebase>23.976</timebase>
        <ntsc>FALSE</ntsc>
    </rate>
    <start>15467</start>
    <end>15478</end>
    <in>15878</in>
    <out>15889</out>
    <file id="file-5"/>
    <sourcetrack>
    <mediatype>audio</mediatype>
    <trackindex>1</trackindex>
</sourcetrack>
    <labels>
        <label2>Iris</label2>
    </labels>
</clipitem>
<clipitem id="66eb172b-effc-4e76-88d9-ea2909b5b17a" premiereChannelType="stereo">
    <masterclipid>masterclip-1</masterclipid>
    <name>S01E45.Jiggles.mkv</name>
    <enabled>TRUE</enabled>
    <duration>17218</duration>
    <rate>
        <timebase>23.976</timebase>
        <ntsc>FALSE</ntsc>
    </rate>
    <start>15478</start>
    <end>15505</end>
    <in>15889</in>
    <out>15916</out>
    <file id="file-5"/>
    <sourcetrack>
    <mediatype>audio</mediatype>
    <trackindex>1</trackindex>
</sourcetrack>
    <labels>
        <label2>Iris</label2>
    </labels>
</clipitem>
<clipitem id="3cccb546-1aa4-4dc9-8872-63aa472e5603" premiereChannelType="stereo">
    <masterclipid>masterclip-1</masterclipid>
    <name>S01E45.Jiggles.mkv</name>
    <enabled>TRUE</enabled>
    <duration>17218</duration>
    <rate>
        <timebase>23.976</timebase>
        <ntsc>FALSE</ntsc>
    </rate>
    <start>15505</start>
    <end>15516</end>
    <in>15916</in>
    <out>15927</out>
    <file id="file-5"/>
    <sourcetrack>
    <mediatype>audio</mediatype>
    <trackindex>1</trackindex>
</sourcetrack>
    <labels>
        <label2>Iris</label2>
    </labels>
</clipitem>
<clipitem id="60f27524-be13-420f-ab5a-e12ddf4a7bb3" premiereChannelType="stereo">
    <masterclipid>masterclip-1</masterclipid>
    <name>S01E45.Jiggles.mkv</name>
    <enabled>TRUE</enabled>
    <duration>17218</duration>
    <rate>
        <timebase>23.976</timebase>
        <ntsc>FALSE</ntsc>
    </rate>
    <start>15516</start>
    <end>15527</end>
    <in>15927</in>
    <out>15938</out>
    <file id="file-5"/>
    <sourcetrack>
    <mediatype>audio</mediatype>
    <trackindex>1</trackindex>
</sourcetrack>
    <labels>
        <label2>Iris</label2>
    </labels>
</clipitem>
<clipitem id="6459951e-8361-489b-85cf-63cf17216fb2" premiereChannelType="stereo">
    <masterclipid>masterclip-1</masterclipid>
    <name>S01E45.Jiggles.mkv</name>
    <enabled>TRUE</enabled>
    <duration>17218</duration>
    <rate>
        <timebase>23.976</timebase>
        <ntsc>FALSE</ntsc>
    </rate>
    <start>15527</start>
    <end>15539</end>
    <in>15938</in>
    <out>15950</out>
    <file id="file-5"/>
    <sourcetrack>
    <mediatype>audio</mediatype>
    <trackindex>1</trackindex>
</sourcetrack>
    <labels>
        <label2>Iris</label2>
    </labels>
</clipitem>
<clipitem id="85ac71f1-7201-4cb4-a13f-7cafb0e6e818" premiereChannelType="stereo">
    <masterclipid>masterclip-1</masterclipid>
    <name>S01E45.Jiggles.mkv</name>
    <enabled>TRUE</enabled>
    <duration>17218</duration>
    <rate>
        <timebase>23.976</timebase>
        <ntsc>FALSE</ntsc>
    </rate>
    <start>15539</start>
    <end>15556</end>
    <in>15949</in>
    <out>15966</out>
    <file id="file-5"/>
    <sourcetrack>
    <mediatype>audio</mediatype>
    <trackindex>1</trackindex>
</sourcetrack>
    <labels>
        <label2>Iris</label2>
    </labels>
</clipitem>
<clipitem id="8ddc4a98-92f0-46f4-905b-87ef487fe040" premiereChannelType="stereo">
    <masterclipid>masterclip-1</masterclipid>
    <name>S01E45.Jiggles.mkv</name>
    <enabled>TRUE</enabled>
    <duration>17218</duration>
    <rate>
        <timebase>23.976</timebase>
        <ntsc>FALSE</ntsc>
    </rate>
    <start>15556</start>
    <end>15577</end>
    <in>15967</in>
    <out>15988</out>
    <file id="file-5"/>
    <sourcetrack>
    <mediatype>audio</mediatype>
    <trackindex>1</trackindex>
</sourcetrack>
    <labels>
        <label2>Iris</label2>
    </labels>
</clipitem>
<clipitem id="ff0b2eb1-ce52-44f1-84b8-a773d9aa68f2" premiereChannelType="stereo">
    <masterclipid>masterclip-1</masterclipid>
    <name>S01E45.Jiggles.mkv</name>
    <enabled>TRUE</enabled>
    <duration>17218</duration>
    <rate>
        <timebase>23.976</timebase>
        <ntsc>FALSE</ntsc>
    </rate>
    <start>15577</start>
    <end>15592</end>
    <in>15988</in>
    <out>16003</out>
    <file id="file-5"/>
    <sourcetrack>
    <mediatype>audio</mediatype>
    <trackindex>1</trackindex>
</sourcetrack>
    <labels>
        <label2>Iris</label2>
    </labels>
</clipitem>
<clipitem id="64cb158f-7c6e-4d46-a75a-e68782c4dd40" premiereChannelType="stereo">
    <masterclipid>masterclip-1</masterclipid>
    <name>S01E45.Jiggles.mkv</name>
    <enabled>TRUE</enabled>
    <duration>17218</duration>
    <rate>
        <timebase>23.976</timebase>
        <ntsc>FALSE</ntsc>
    </rate>
    <start>15592</start>
    <end>15626</end>
    <in>16027</in>
    <out>16061</out>
    <file id="file-5"/>
    <sourcetrack>
    <mediatype>audio</mediatype>
    <trackindex>1</trackindex>
</sourcetrack>
    <labels>
        <label2>Iris</label2>
    </labels>
</clipitem>
<clipitem id="6184a0f3-0111-4b3b-8526-fc58beba106d" premiereChannelType="stereo">
    <masterclipid>masterclip-1</masterclipid>
    <name>S01E45.Jiggles.mkv</name>
    <enabled>TRUE</enabled>
    <duration>17218</duration>
    <rate>
        <timebase>23.976</timebase>
        <ntsc>FALSE</ntsc>
    </rate>
    <start>15626</start>
    <end>15670</end>
    <in>16008</in>
    <out>16052</out>
    <file id="file-5"/>
    <sourcetrack>
    <mediatype>audio</mediatype>
    <trackindex>1</trackindex>
</sourcetrack>
    <labels>
        <label2>Iris</label2>
    </labels>
</clipitem>
<clipitem id="17d3af01-941a-4fae-bd90-a89bddb4c14a" premiereChannelType="stereo">
    <masterclipid>masterclip-1</masterclipid>
    <name>S01E45.Jiggles.mkv</name>
    <enabled>TRUE</enabled>
    <duration>17218</duration>
    <rate>
        <timebase>23.976</timebase>
        <ntsc>FALSE</ntsc>
    </rate>
    <start>15670</start>
    <end>15688</end>
    <in>16081</in>
    <out>16099</out>
    <file id="file-5"/>
    <sourcetrack>
    <mediatype>audio</mediatype>
    <trackindex>1</trackindex>
</sourcetrack>
    <labels>
        <label2>Iris</label2>
    </labels>
</clipitem>
<clipitem id="4b444253-f1f5-40c1-aa75-bd6e1373492e" premiereChannelType="stereo">
    <masterclipid>masterclip-1</masterclipid>
    <name>S01E45.Jiggles.mkv</name>
    <enabled>TRUE</enabled>
    <duration>17218</duration>
    <rate>
        <timebase>23.976</timebase>
        <ntsc>FALSE</ntsc>
    </rate>
    <start>15688</start>
    <end>15750</end>
    <in>16099</in>
    <out>16161</out>
    <file id="file-5"/>
    <sourcetrack>
    <mediatype>audio</mediatype>
    <trackindex>1</trackindex>
</sourcetrack>
    <labels>
        <label2>Iris</label2>
    </labels>
</clipitem>
<clipitem id="f9bbbd60-74ed-4fcb-a2af-4c2834f722a0" premiereChannelType="stereo">
    <masterclipid>masterclip-1</masterclipid>
    <name>S01E45.Jiggles.mkv</name>
    <enabled>TRUE</enabled>
    <duration>17218</duration>
    <rate>
        <timebase>23.976</timebase>
        <ntsc>FALSE</ntsc>
    </rate>
    <start>15750</start>
    <end>15889</end>
    <in>16161</in>
    <out>16300</out>
    <file id="file-5"/>
    <sourcetrack>
    <mediatype>audio</mediatype>
    <trackindex>1</trackindex>
</sourcetrack>
    <labels>
        <label2>Iris</label2>
    </labels>
</clipitem>
<clipitem id="2949e718-13be-4cae-ab02-6da19abd7b40" premiereChannelType="stereo">
    <masterclipid>masterclip-1</masterclipid>
    <name>S01E45.Jiggles.mkv</name>
    <enabled>TRUE</enabled>
    <duration>17218</duration>
    <rate>
        <timebase>23.976</timebase>
        <ntsc>FALSE</ntsc>
    </rate>
    <start>15889</start>
    <end>16056</end>
    <in>16299</in>
    <out>16466</out>
    <file id="file-5"/>
    <sourcetrack>
    <mediatype>audio</mediatype>
    <trackindex>1</trackindex>
</sourcetrack>
    <labels>
        <label2>Iris</label2>
    </labels>
</clipitem>
<clipitem id="e8ba3a8d-a637-4d61-95ec-ac086e2f467c" premiereChannelType="stereo">
    <masterclipid>masterclip-1</masterclipid>
    <name>S01E45.Jiggles.mkv</name>
    <enabled>TRUE</enabled>
    <duration>17218</duration>
    <rate>
        <timebase>23.976</timebase>
        <ntsc>FALSE</ntsc>
    </rate>
    <start>16056</start>
    <end>16067</end>
    <in>16467</in>
    <out>16478</out>
    <file id="file-5"/>
    <sourcetrack>
    <mediatype>audio</mediatype>
    <trackindex>1</trackindex>
</sourcetrack>
    <labels>
        <label2>Iris</label2>
    </labels>
</clipitem>
<clipitem id="54dbd9ab-c484-42d9-adfd-0a9d3bbe9c67" premiereChannelType="stereo">
    <masterclipid>masterclip-1</masterclipid>
    <name>S01E45.Jiggles.mkv</name>
    <enabled>TRUE</enabled>
    <duration>17218</duration>
    <rate>
        <timebase>23.976</timebase>
        <ntsc>FALSE</ntsc>
    </rate>
    <start>16067</start>
    <end>16097</end>
    <in>16478</in>
    <out>16508</out>
    <file id="file-5"/>
    <sourcetrack>
    <mediatype>audio</mediatype>
    <trackindex>1</trackindex>
</sourcetrack>
    <labels>
        <label2>Iris</label2>
    </labels>
</clipitem>
<clipitem id="fdae28c7-a402-485d-92f1-7ee3c47ae204" premiereChannelType="stereo">
    <masterclipid>masterclip-1</masterclipid>
    <name>S01E45.Jiggles.mkv</name>
    <enabled>TRUE</enabled>
    <duration>17218</duration>
    <rate>
        <timebase>23.976</timebase>
        <ntsc>FALSE</ntsc>
    </rate>
    <start>16097</start>
    <end>16128</end>
    <in>16508</in>
    <out>16539</out>
    <file id="file-5"/>
    <sourcetrack>
    <mediatype>audio</mediatype>
    <trackindex>1</trackindex>
</sourcetrack>
    <labels>
        <label2>Iris</label2>
    </labels>
</clipitem>
<clipitem id="523e0e54-eec8-4fec-8f6d-aec53efd6844" premiereChannelType="stereo">
    <masterclipid>masterclip-1</masterclipid>
    <name>S01E45.Jiggles.mkv</name>
    <enabled>TRUE</enabled>
    <duration>17218</duration>
    <rate>
        <timebase>23.976</timebase>
        <ntsc>FALSE</ntsc>
    </rate>
    <start>16128</start>
    <end>16160</end>
    <in>16539</in>
    <out>16571</out>
    <file id="file-5"/>
    <sourcetrack>
    <mediatype>audio</mediatype>
    <trackindex>1</trackindex>
</sourcetrack>
    <labels>
        <label2>Iris</label2>
    </labels>
</clipitem>
<clipitem id="8e505099-9902-40fb-ac33-0b4fcf2f6f7f" premiereChannelType="stereo">
    <masterclipid>masterclip-1</masterclipid>
    <name>S01E45.Jiggles.mkv</name>
    <enabled>TRUE</enabled>
    <duration>17218</duration>
    <rate>
        <timebase>23.976</timebase>
        <ntsc>FALSE</ntsc>
    </rate>
    <start>16160</start>
    <end>16175</end>
    <in>16571</in>
    <out>16586</out>
    <file id="file-5"/>
    <sourcetrack>
    <mediatype>audio</mediatype>
    <trackindex>1</trackindex>
</sourcetrack>
    <labels>
        <label2>Iris</label2>
    </labels>
</clipitem>
<clipitem id="413a2e35-7e05-4c56-9c15-85367e40592a" premiereChannelType="stereo">
    <masterclipid>masterclip-1</masterclipid>
    <name>S01E45.Jiggles.mkv</name>
    <enabled>TRUE</enabled>
    <duration>17218</duration>
    <rate>
        <timebase>23.976</timebase>
        <ntsc>FALSE</ntsc>
    </rate>
    <start>16175</start>
    <end>16189</end>
    <in>16586</in>
    <out>16600</out>
    <file id="file-5"/>
    <sourcetrack>
    <mediatype>audio</mediatype>
    <trackindex>1</trackindex>
</sourcetrack>
    <labels>
        <label2>Iris</label2>
    </labels>
</clipitem>
<clipitem id="ab215ce3-6634-4080-ac7f-f482423caa70" premiereChannelType="stereo">
    <masterclipid>masterclip-1</masterclipid>
    <name>S01E45.Jiggles.mkv</name>
    <enabled>TRUE</enabled>
    <duration>17218</duration>
    <rate>
        <timebase>23.976</timebase>
        <ntsc>FALSE</ntsc>
    </rate>
    <start>16189</start>
    <end>16228</end>
    <in>16600</in>
    <out>16639</out>
    <file id="file-5"/>
    <sourcetrack>
    <mediatype>audio</mediatype>
    <trackindex>1</trackindex>
</sourcetrack>
    <labels>
        <label2>Iris</label2>
    </labels>
</clipitem>
<clipitem id="0694fa76-4319-4cf1-a1c5-3d25baed0924" premiereChannelType="stereo">
    <masterclipid>masterclip-1</masterclipid>
    <name>S01E45.Jiggles.mkv</name>
    <enabled>TRUE</enabled>
    <duration>17218</duration>
    <rate>
        <timebase>23.976</timebase>
        <ntsc>FALSE</ntsc>
    </rate>
    <start>16228</start>
    <end>16371</end>
    <in>16639</in>
    <out>16782</out>
    <file id="file-5"/>
    <sourcetrack>
    <mediatype>audio</mediatype>
    <trackindex>1</trackindex>
</sourcetrack>
    <labels>
        <label2>Iris</label2>
    </labels>
</clipitem>
<clipitem id="15903dd5-6037-4547-bd3f-bb1cf2d03192" premiereChannelType="stereo">
    <masterclipid>masterclip-1</masterclipid>
    <name>S01E45.Jiggles.mkv</name>
    <enabled>TRUE</enabled>
    <duration>17218</duration>
    <rate>
        <timebase>23.976</timebase>
        <ntsc>FALSE</ntsc>
    </rate>
    <start>16371</start>
    <end>16757</end>
    <in>16781</in>
    <out>17167</out>
    <file id="file-5"/>
    <sourcetrack>
    <mediatype>audio</mediatype>
    <trackindex>1</trackindex>
</sourcetrack>
    <labels>
        <label2>Iris</label2>
    </labels>
</clipitem>
<clipitem id="cc5f2d7a-c8ce-4a29-afc6-c4aa42bebcef" premiereChannelType="stereo">
    <masterclipid>masterclip-1</masterclipid>
    <name>S01E45.Jiggles.mkv</name>
    <enabled>TRUE</enabled>
    <duration>17218</duration>
    <rate>
        <timebase>23.976</timebase>
        <ntsc>FALSE</ntsc>
    </rate>
    <start>16757</start>
    <end>16761</end>
    <in>17132</in>
    <out>17136</out>
    <file id="file-5"/>
    <sourcetrack>
    <mediatype>audio</mediatype>
    <trackindex>1</trackindex>
</sourcetrack>
    <labels>
        <label2>Iris</label2>
    </labels>
</clipitem>

                    <enabled>TRUE</enabled>
                    <locked>FALSE</locked>
                    <outputchannelindex>1</outputchannelindex>
                </track>
                <track TL.SQTrackAudioKeyframeStyle="0" TL.SQTrackShy="0" TL.SQTrackExpandedHeight="25"
                       TL.SQTrackExpanded="0" MZ.TrackTargeted="1" PannerCurrentValue="0.5" PannerIsInverted="true"
                       PannerStartKeyframe="-91445760000000000,0.5,0,0,0,0,0,0" PannerName="平衡"
                       currentExplodedTrackIndex="0" totalExplodedTrackCount="2" premiereTrackType="Stereo">

                    <clipitem id="43d1eef1-2c19-4bce-8471-f6e5da33e270" premiereChannelType="stereo">
    <masterclipid>masterclip-1</masterclipid>
    <name>S01E45.Jiggles.mkv</name>
    <enabled>TRUE</enabled>
    <duration>17218</duration>
    <rate>
        <timebase>23.976</timebase>
        <ntsc>FALSE</ntsc>
    </rate>
    <start>1</start>
    <end>12</end>
    <in>374</in>
    <out>385</out>
    <file id="file-5">
    <name>S01E45.Jiggles.mkv</name>
    <pathurl>file://localhost/F%3A/xunleiyunpan/S01E45.Jiggles.mkv</pathurl>
    <rate>
        <timebase>23.976</timebase>
        <ntsc>FALSE</ntsc>
    </rate>
    <duration>17218</duration>
    <timecode>
        <rate>
            <timebase>23.976</timebase>
            <ntsc>FALSE</ntsc>
        </rate>
        <string>00:00:00:00</string>
        <frame>0</frame>
        <displayformat>NDF</displayformat>
    </timecode>
    <media>
        <video>
            <samplecharacteristics>
                <rate>
                    <timebase>23.976</timebase>
                    <ntsc>FALSE</ntsc>
                </rate>
                <width>1912</width>
                <height>1072</height>
                <anamorphic>FALSE</anamorphic>
                <pixelaspectratio>square</pixelaspectratio>
                <fielddominance>none</fielddominance>
            </samplecharacteristics>
        </video>
        <audio>
            <samplecharacteristics>
                <depth>16</depth>
                <samplerate>48000</samplerate>
            </samplecharacteristics>
            <channelcount>2</channelcount>
        </audio>
    </media>
</file>
    <sourcetrack>
   <mediatype>audio</mediatype>
   <trackindex>2</trackindex>
</sourcetrack>
    <labels>
        <label2>Iris</label2>
    </labels>
</clipitem>
<clipitem id="3084d5c7-43c2-4737-bb2a-8b41e2c725e1" premiereChannelType="stereo">
    <masterclipid>masterclip-1</masterclipid>
    <name>S01E45.Jiggles.mkv</name>
    <enabled>TRUE</enabled>
    <duration>17218</duration>
    <rate>
        <timebase>23.976</timebase>
        <ntsc>FALSE</ntsc>
    </rate>
    <start>12</start>
    <end>23</end>
    <in>385</in>
    <out>396</out>
    <file id="file-5"/>
    <sourcetrack>
   <mediatype>audio</mediatype>
   <trackindex>2</trackindex>
</sourcetrack>
    <labels>
        <label2>Iris</label2>
    </labels>
</clipitem>
<clipitem id="047dbc3f-c255-450f-8625-9f76a9b6f0cf" premiereChannelType="stereo">
    <masterclipid>masterclip-1</masterclipid>
    <name>S01E45.Jiggles.mkv</name>
    <enabled>TRUE</enabled>
    <duration>17218</duration>
    <rate>
        <timebase>23.976</timebase>
        <ntsc>FALSE</ntsc>
    </rate>
    <start>23</start>
    <end>34</end>
    <in>396</in>
    <out>407</out>
    <file id="file-5"/>
    <sourcetrack>
   <mediatype>audio</mediatype>
   <trackindex>2</trackindex>
</sourcetrack>
    <labels>
        <label2>Iris</label2>
    </labels>
</clipitem>
<clipitem id="1e972b7b-4313-4a48-8044-2fb76f5db671" premiereChannelType="stereo">
    <masterclipid>masterclip-1</masterclipid>
    <name>S01E45.Jiggles.mkv</name>
    <enabled>TRUE</enabled>
    <duration>17218</duration>
    <rate>
        <timebase>23.976</timebase>
        <ntsc>FALSE</ntsc>
    </rate>
    <start>35</start>
    <end>46</end>
    <in>408</in>
    <out>419</out>
    <file id="file-5"/>
    <sourcetrack>
   <mediatype>audio</mediatype>
   <trackindex>2</trackindex>
</sourcetrack>
    <labels>
        <label2>Iris</label2>
    </labels>
</clipitem>
<clipitem id="a20895ef-d0ea-4ac2-ad5c-3382e00902d0" premiereChannelType="stereo">
    <masterclipid>masterclip-1</masterclipid>
    <name>S01E45.Jiggles.mkv</name>
    <enabled>TRUE</enabled>
    <duration>17218</duration>
    <rate>
        <timebase>23.976</timebase>
        <ntsc>FALSE</ntsc>
    </rate>
    <start>51</start>
    <end>62</end>
    <in>424</in>
    <out>435</out>
    <file id="file-5"/>
    <sourcetrack>
   <mediatype>audio</mediatype>
   <trackindex>2</trackindex>
</sourcetrack>
    <labels>
        <label2>Iris</label2>
    </labels>
</clipitem>
<clipitem id="1239c923-9a5c-423a-96a3-602cdd1b7f62" premiereChannelType="stereo">
    <masterclipid>masterclip-1</masterclipid>
    <name>S01E45.Jiggles.mkv</name>
    <enabled>TRUE</enabled>
    <duration>17218</duration>
    <rate>
        <timebase>23.976</timebase>
        <ntsc>FALSE</ntsc>
    </rate>
    <start>62</start>
    <end>73</end>
    <in>435</in>
    <out>446</out>
    <file id="file-5"/>
    <sourcetrack>
   <mediatype>audio</mediatype>
   <trackindex>2</trackindex>
</sourcetrack>
    <labels>
        <label2>Iris</label2>
    </labels>
</clipitem>
<clipitem id="df17038d-c3fc-4076-80b6-4065b1995d5b" premiereChannelType="stereo">
    <masterclipid>masterclip-1</masterclipid>
    <name>S01E45.Jiggles.mkv</name>
    <enabled>TRUE</enabled>
    <duration>17218</duration>
    <rate>
        <timebase>23.976</timebase>
        <ntsc>FALSE</ntsc>
    </rate>
    <start>73</start>
    <end>86</end>
    <in>446</in>
    <out>459</out>
    <file id="file-5"/>
    <sourcetrack>
   <mediatype>audio</mediatype>
   <trackindex>2</trackindex>
</sourcetrack>
    <labels>
        <label2>Iris</label2>
    </labels>
</clipitem>
<clipitem id="2335eff3-f28a-46f7-9c18-b68e91e04516" premiereChannelType="stereo">
    <masterclipid>masterclip-1</masterclipid>
    <name>S01E45.Jiggles.mkv</name>
    <enabled>TRUE</enabled>
    <duration>17218</duration>
    <rate>
        <timebase>23.976</timebase>
        <ntsc>FALSE</ntsc>
    </rate>
    <start>86</start>
    <end>97</end>
    <in>459</in>
    <out>470</out>
    <file id="file-5"/>
    <sourcetrack>
   <mediatype>audio</mediatype>
   <trackindex>2</trackindex>
</sourcetrack>
    <labels>
        <label2>Iris</label2>
    </labels>
</clipitem>
<clipitem id="04d575a4-5700-410d-9e38-2ad6478e59ae" premiereChannelType="stereo">
    <masterclipid>masterclip-1</masterclipid>
    <name>S01E45.Jiggles.mkv</name>
    <enabled>TRUE</enabled>
    <duration>17218</duration>
    <rate>
        <timebase>23.976</timebase>
        <ntsc>FALSE</ntsc>
    </rate>
    <start>97</start>
    <end>108</end>
    <in>470</in>
    <out>481</out>
    <file id="file-5"/>
    <sourcetrack>
   <mediatype>audio</mediatype>
   <trackindex>2</trackindex>
</sourcetrack>
    <labels>
        <label2>Iris</label2>
    </labels>
</clipitem>
<clipitem id="f3d53ee9-dcd4-44b8-a4c5-4164a407b903" premiereChannelType="stereo">
    <masterclipid>masterclip-1</masterclipid>
    <name>S01E45.Jiggles.mkv</name>
    <enabled>TRUE</enabled>
    <duration>17218</duration>
    <rate>
        <timebase>23.976</timebase>
        <ntsc>FALSE</ntsc>
    </rate>
    <start>108</start>
    <end>119</end>
    <in>481</in>
    <out>492</out>
    <file id="file-5"/>
    <sourcetrack>
   <mediatype>audio</mediatype>
   <trackindex>2</trackindex>
</sourcetrack>
    <labels>
        <label2>Iris</label2>
    </labels>
</clipitem>
<clipitem id="e1073c4d-7530-4547-bbbd-f9e91d024fab" premiereChannelType="stereo">
    <masterclipid>masterclip-1</masterclipid>
    <name>S01E45.Jiggles.mkv</name>
    <enabled>TRUE</enabled>
    <duration>17218</duration>
    <rate>
        <timebase>23.976</timebase>
        <ntsc>FALSE</ntsc>
    </rate>
    <start>119</start>
    <end>130</end>
    <in>492</in>
    <out>503</out>
    <file id="file-5"/>
    <sourcetrack>
   <mediatype>audio</mediatype>
   <trackindex>2</trackindex>
</sourcetrack>
    <labels>
        <label2>Iris</label2>
    </labels>
</clipitem>
<clipitem id="4cb80a01-bf14-40c8-b85e-bbe0f3e84a01" premiereChannelType="stereo">
    <masterclipid>masterclip-1</masterclipid>
    <name>S01E45.Jiggles.mkv</name>
    <enabled>TRUE</enabled>
    <duration>17218</duration>
    <rate>
        <timebase>23.976</timebase>
        <ntsc>FALSE</ntsc>
    </rate>
    <start>130</start>
    <end>142</end>
    <in>503</in>
    <out>515</out>
    <file id="file-5"/>
    <sourcetrack>
   <mediatype>audio</mediatype>
   <trackindex>2</trackindex>
</sourcetrack>
    <labels>
        <label2>Iris</label2>
    </labels>
</clipitem>
<clipitem id="904f6726-9db9-4ca8-a991-78d714c2c7bc" premiereChannelType="stereo">
    <masterclipid>masterclip-1</masterclipid>
    <name>S01E45.Jiggles.mkv</name>
    <enabled>TRUE</enabled>
    <duration>17218</duration>
    <rate>
        <timebase>23.976</timebase>
        <ntsc>FALSE</ntsc>
    </rate>
    <start>142</start>
    <end>156</end>
    <in>516</in>
    <out>530</out>
    <file id="file-5"/>
    <sourcetrack>
   <mediatype>audio</mediatype>
   <trackindex>2</trackindex>
</sourcetrack>
    <labels>
        <label2>Iris</label2>
    </labels>
</clipitem>
<clipitem id="996bd706-f153-4588-9006-d5cf6957a277" premiereChannelType="stereo">
    <masterclipid>masterclip-1</masterclipid>
    <name>S01E45.Jiggles.mkv</name>
    <enabled>TRUE</enabled>
    <duration>17218</duration>
    <rate>
        <timebase>23.976</timebase>
        <ntsc>FALSE</ntsc>
    </rate>
    <start>156</start>
    <end>167</end>
    <in>530</in>
    <out>541</out>
    <file id="file-5"/>
    <sourcetrack>
   <mediatype>audio</mediatype>
   <trackindex>2</trackindex>
</sourcetrack>
    <labels>
        <label2>Iris</label2>
    </labels>
</clipitem>
<clipitem id="0c68f809-bb7b-450e-a8cb-5b6460c498c5" premiereChannelType="stereo">
    <masterclipid>masterclip-1</masterclipid>
    <name>S01E45.Jiggles.mkv</name>
    <enabled>TRUE</enabled>
    <duration>17218</duration>
    <rate>
        <timebase>23.976</timebase>
        <ntsc>FALSE</ntsc>
    </rate>
    <start>167</start>
    <end>181</end>
    <in>541</in>
    <out>555</out>
    <file id="file-5"/>
    <sourcetrack>
   <mediatype>audio</mediatype>
   <trackindex>2</trackindex>
</sourcetrack>
    <labels>
        <label2>Iris</label2>
    </labels>
</clipitem>
<clipitem id="b3f1ac36-79a9-4566-9177-a931982f49b9" premiereChannelType="stereo">
    <masterclipid>masterclip-1</masterclipid>
    <name>S01E45.Jiggles.mkv</name>
    <enabled>TRUE</enabled>
    <duration>17218</duration>
    <rate>
        <timebase>23.976</timebase>
        <ntsc>FALSE</ntsc>
    </rate>
    <start>181</start>
    <end>195</end>
    <in>555</in>
    <out>569</out>
    <file id="file-5"/>
    <sourcetrack>
   <mediatype>audio</mediatype>
   <trackindex>2</trackindex>
</sourcetrack>
    <labels>
        <label2>Iris</label2>
    </labels>
</clipitem>
<clipitem id="b1be842f-8174-4d28-b908-733bbaf57fa6" premiereChannelType="stereo">
    <masterclipid>masterclip-1</masterclipid>
    <name>S01E45.Jiggles.mkv</name>
    <enabled>TRUE</enabled>
    <duration>17218</duration>
    <rate>
        <timebase>23.976</timebase>
        <ntsc>FALSE</ntsc>
    </rate>
    <start>195</start>
    <end>212</end>
    <in>569</in>
    <out>586</out>
    <file id="file-5"/>
    <sourcetrack>
   <mediatype>audio</mediatype>
   <trackindex>2</trackindex>
</sourcetrack>
    <labels>
        <label2>Iris</label2>
    </labels>
</clipitem>
<clipitem id="c9eddef9-4229-4f36-a5a0-4a18d0e75abf" premiereChannelType="stereo">
    <masterclipid>masterclip-1</masterclipid>
    <name>S01E45.Jiggles.mkv</name>
    <enabled>TRUE</enabled>
    <duration>17218</duration>
    <rate>
        <timebase>23.976</timebase>
        <ntsc>FALSE</ntsc>
    </rate>
    <start>212</start>
    <end>361</end>
    <in>585</in>
    <out>734</out>
    <file id="file-5"/>
    <sourcetrack>
   <mediatype>audio</mediatype>
   <trackindex>2</trackindex>
</sourcetrack>
    <labels>
        <label2>Iris</label2>
    </labels>
</clipitem>
<clipitem id="74795be7-13f6-43ff-a006-788d0d182e7e" premiereChannelType="stereo">
    <masterclipid>masterclip-1</masterclipid>
    <name>S01E45.Jiggles.mkv</name>
    <enabled>TRUE</enabled>
    <duration>17218</duration>
    <rate>
        <timebase>23.976</timebase>
        <ntsc>FALSE</ntsc>
    </rate>
    <start>361</start>
    <end>372</end>
    <in>735</in>
    <out>746</out>
    <file id="file-5"/>
    <sourcetrack>
   <mediatype>audio</mediatype>
   <trackindex>2</trackindex>
</sourcetrack>
    <labels>
        <label2>Iris</label2>
    </labels>
</clipitem>
<clipitem id="96db3100-1135-49d0-8e1f-b6e8426bbb87" premiereChannelType="stereo">
    <masterclipid>masterclip-1</masterclipid>
    <name>S01E45.Jiggles.mkv</name>
    <enabled>TRUE</enabled>
    <duration>17218</duration>
    <rate>
        <timebase>23.976</timebase>
        <ntsc>FALSE</ntsc>
    </rate>
    <start>372</start>
    <end>383</end>
    <in>746</in>
    <out>757</out>
    <file id="file-5"/>
    <sourcetrack>
   <mediatype>audio</mediatype>
   <trackindex>2</trackindex>
</sourcetrack>
    <labels>
        <label2>Iris</label2>
    </labels>
</clipitem>
<clipitem id="d5841334-d718-4287-8291-43f37ec8b9c6" premiereChannelType="stereo">
    <masterclipid>masterclip-1</masterclipid>
    <name>S01E45.Jiggles.mkv</name>
    <enabled>TRUE</enabled>
    <duration>17218</duration>
    <rate>
        <timebase>23.976</timebase>
        <ntsc>FALSE</ntsc>
    </rate>
    <start>383</start>
    <end>404</end>
    <in>757</in>
    <out>778</out>
    <file id="file-5"/>
    <sourcetrack>
   <mediatype>audio</mediatype>
   <trackindex>2</trackindex>
</sourcetrack>
    <labels>
        <label2>Iris</label2>
    </labels>
</clipitem>
<clipitem id="a4968b16-36aa-414a-874f-e788ab0218f0" premiereChannelType="stereo">
    <masterclipid>masterclip-1</masterclipid>
    <name>S01E45.Jiggles.mkv</name>
    <enabled>TRUE</enabled>
    <duration>17218</duration>
    <rate>
        <timebase>23.976</timebase>
        <ntsc>FALSE</ntsc>
    </rate>
    <start>404</start>
    <end>415</end>
    <in>778</in>
    <out>789</out>
    <file id="file-5"/>
    <sourcetrack>
   <mediatype>audio</mediatype>
   <trackindex>2</trackindex>
</sourcetrack>
    <labels>
        <label2>Iris</label2>
    </labels>
</clipitem>
<clipitem id="2f755d38-8ecb-446b-8f9b-3aa22476baa1" premiereChannelType="stereo">
    <masterclipid>masterclip-1</masterclipid>
    <name>S01E45.Jiggles.mkv</name>
    <enabled>TRUE</enabled>
    <duration>17218</duration>
    <rate>
        <timebase>23.976</timebase>
        <ntsc>FALSE</ntsc>
    </rate>
    <start>415</start>
    <end>432</end>
    <in>789</in>
    <out>806</out>
    <file id="file-5"/>
    <sourcetrack>
   <mediatype>audio</mediatype>
   <trackindex>2</trackindex>
</sourcetrack>
    <labels>
        <label2>Iris</label2>
    </labels>
</clipitem>
<clipitem id="b5e69395-589d-4630-8abc-9413bd649280" premiereChannelType="stereo">
    <masterclipid>masterclip-1</masterclipid>
    <name>S01E45.Jiggles.mkv</name>
    <enabled>TRUE</enabled>
    <duration>17218</duration>
    <rate>
        <timebase>23.976</timebase>
        <ntsc>FALSE</ntsc>
    </rate>
    <start>432</start>
    <end>443</end>
    <in>806</in>
    <out>817</out>
    <file id="file-5"/>
    <sourcetrack>
   <mediatype>audio</mediatype>
   <trackindex>2</trackindex>
</sourcetrack>
    <labels>
        <label2>Iris</label2>
    </labels>
</clipitem>
<clipitem id="6f8e7775-06de-4c08-87b5-5f7a78aaa860" premiereChannelType="stereo">
    <masterclipid>masterclip-1</masterclipid>
    <name>S01E45.Jiggles.mkv</name>
    <enabled>TRUE</enabled>
    <duration>17218</duration>
    <rate>
        <timebase>23.976</timebase>
        <ntsc>FALSE</ntsc>
    </rate>
    <start>443</start>
    <end>455</end>
    <in>817</in>
    <out>829</out>
    <file id="file-5"/>
    <sourcetrack>
   <mediatype>audio</mediatype>
   <trackindex>2</trackindex>
</sourcetrack>
    <labels>
        <label2>Iris</label2>
    </labels>
</clipitem>
<clipitem id="019df078-d240-4a58-a09b-d4745badf6fe" premiereChannelType="stereo">
    <masterclipid>masterclip-1</masterclipid>
    <name>S01E45.Jiggles.mkv</name>
    <enabled>TRUE</enabled>
    <duration>17218</duration>
    <rate>
        <timebase>23.976</timebase>
        <ntsc>FALSE</ntsc>
    </rate>
    <start>455</start>
    <end>467</end>
    <in>828</in>
    <out>840</out>
    <file id="file-5"/>
    <sourcetrack>
   <mediatype>audio</mediatype>
   <trackindex>2</trackindex>
</sourcetrack>
    <labels>
        <label2>Iris</label2>
    </labels>
</clipitem>
<clipitem id="bfa71081-abe9-4cdb-a1ea-5965f6d7c5e8" premiereChannelType="stereo">
    <masterclipid>masterclip-1</masterclipid>
    <name>S01E45.Jiggles.mkv</name>
    <enabled>TRUE</enabled>
    <duration>17218</duration>
    <rate>
        <timebase>23.976</timebase>
        <ntsc>FALSE</ntsc>
    </rate>
    <start>467</start>
    <end>481</end>
    <in>841</in>
    <out>855</out>
    <file id="file-5"/>
    <sourcetrack>
   <mediatype>audio</mediatype>
   <trackindex>2</trackindex>
</sourcetrack>
    <labels>
        <label2>Iris</label2>
    </labels>
</clipitem>
<clipitem id="a3f86cd1-4f7c-4c10-8d20-ef65f2ab8e64" premiereChannelType="stereo">
    <masterclipid>masterclip-1</masterclipid>
    <name>S01E45.Jiggles.mkv</name>
    <enabled>TRUE</enabled>
    <duration>17218</duration>
    <rate>
        <timebase>23.976</timebase>
        <ntsc>FALSE</ntsc>
    </rate>
    <start>481</start>
    <end>494</end>
    <in>855</in>
    <out>868</out>
    <file id="file-5"/>
    <sourcetrack>
   <mediatype>audio</mediatype>
   <trackindex>2</trackindex>
</sourcetrack>
    <labels>
        <label2>Iris</label2>
    </labels>
</clipitem>
<clipitem id="340d9e27-4a6d-47f0-8d96-7758f0d91434" premiereChannelType="stereo">
    <masterclipid>masterclip-1</masterclipid>
    <name>S01E45.Jiggles.mkv</name>
    <enabled>TRUE</enabled>
    <duration>17218</duration>
    <rate>
        <timebase>23.976</timebase>
        <ntsc>FALSE</ntsc>
    </rate>
    <start>494</start>
    <end>506</end>
    <in>868</in>
    <out>880</out>
    <file id="file-5"/>
    <sourcetrack>
   <mediatype>audio</mediatype>
   <trackindex>2</trackindex>
</sourcetrack>
    <labels>
        <label2>Iris</label2>
    </labels>
</clipitem>
<clipitem id="56e576ad-8e75-4eeb-9e3a-bc8166baa758" premiereChannelType="stereo">
    <masterclipid>masterclip-1</masterclipid>
    <name>S01E45.Jiggles.mkv</name>
    <enabled>TRUE</enabled>
    <duration>17218</duration>
    <rate>
        <timebase>23.976</timebase>
        <ntsc>FALSE</ntsc>
    </rate>
    <start>506</start>
    <end>520</end>
    <in>879</in>
    <out>893</out>
    <file id="file-5"/>
    <sourcetrack>
   <mediatype>audio</mediatype>
   <trackindex>2</trackindex>
</sourcetrack>
    <labels>
        <label2>Iris</label2>
    </labels>
</clipitem>
<clipitem id="68044e5e-43d9-4589-835d-9ab32001c619" premiereChannelType="stereo">
    <masterclipid>masterclip-1</masterclipid>
    <name>S01E45.Jiggles.mkv</name>
    <enabled>TRUE</enabled>
    <duration>17218</duration>
    <rate>
        <timebase>23.976</timebase>
        <ntsc>FALSE</ntsc>
    </rate>
    <start>520</start>
    <end>533</end>
    <in>894</in>
    <out>907</out>
    <file id="file-5"/>
    <sourcetrack>
   <mediatype>audio</mediatype>
   <trackindex>2</trackindex>
</sourcetrack>
    <labels>
        <label2>Iris</label2>
    </labels>
</clipitem>
<clipitem id="61603283-17a7-43ad-8e54-4681e5f8ce33" premiereChannelType="stereo">
    <masterclipid>masterclip-1</masterclipid>
    <name>S01E45.Jiggles.mkv</name>
    <enabled>TRUE</enabled>
    <duration>17218</duration>
    <rate>
        <timebase>23.976</timebase>
        <ntsc>FALSE</ntsc>
    </rate>
    <start>533</start>
    <end>558</end>
    <in>907</in>
    <out>932</out>
    <file id="file-5"/>
    <sourcetrack>
   <mediatype>audio</mediatype>
   <trackindex>2</trackindex>
</sourcetrack>
    <labels>
        <label2>Iris</label2>
    </labels>
</clipitem>
<clipitem id="011333ab-6845-4a00-9185-909d3b573689" premiereChannelType="stereo">
    <masterclipid>masterclip-1</masterclipid>
    <name>S01E45.Jiggles.mkv</name>
    <enabled>TRUE</enabled>
    <duration>17218</duration>
    <rate>
        <timebase>23.976</timebase>
        <ntsc>FALSE</ntsc>
    </rate>
    <start>558</start>
    <end>569</end>
    <in>932</in>
    <out>943</out>
    <file id="file-5"/>
    <sourcetrack>
   <mediatype>audio</mediatype>
   <trackindex>2</trackindex>
</sourcetrack>
    <labels>
        <label2>Iris</label2>
    </labels>
</clipitem>
<clipitem id="5ea2fd93-335f-49a8-8cb4-0cf2120ee133" premiereChannelType="stereo">
    <masterclipid>masterclip-1</masterclipid>
    <name>S01E45.Jiggles.mkv</name>
    <enabled>TRUE</enabled>
    <duration>17218</duration>
    <rate>
        <timebase>23.976</timebase>
        <ntsc>FALSE</ntsc>
    </rate>
    <start>569</start>
    <end>580</end>
    <in>943</in>
    <out>954</out>
    <file id="file-5"/>
    <sourcetrack>
   <mediatype>audio</mediatype>
   <trackindex>2</trackindex>
</sourcetrack>
    <labels>
        <label2>Iris</label2>
    </labels>
</clipitem>
<clipitem id="884338f2-703d-49fa-9e59-68a13d765a78" premiereChannelType="stereo">
    <masterclipid>masterclip-1</masterclipid>
    <name>S01E45.Jiggles.mkv</name>
    <enabled>TRUE</enabled>
    <duration>17218</duration>
    <rate>
        <timebase>23.976</timebase>
        <ntsc>FALSE</ntsc>
    </rate>
    <start>580</start>
    <end>591</end>
    <in>954</in>
    <out>965</out>
    <file id="file-5"/>
    <sourcetrack>
   <mediatype>audio</mediatype>
   <trackindex>2</trackindex>
</sourcetrack>
    <labels>
        <label2>Iris</label2>
    </labels>
</clipitem>
<clipitem id="fb3e6ec1-d2db-4da2-8e97-bf4faf00bfcd" premiereChannelType="stereo">
    <masterclipid>masterclip-1</masterclipid>
    <name>S01E45.Jiggles.mkv</name>
    <enabled>TRUE</enabled>
    <duration>17218</duration>
    <rate>
        <timebase>23.976</timebase>
        <ntsc>FALSE</ntsc>
    </rate>
    <start>591</start>
    <end>602</end>
    <in>965</in>
    <out>976</out>
    <file id="file-5"/>
    <sourcetrack>
   <mediatype>audio</mediatype>
   <trackindex>2</trackindex>
</sourcetrack>
    <labels>
        <label2>Iris</label2>
    </labels>
</clipitem>
<clipitem id="6e753df6-4d80-4db8-9474-816e6d7bdfd9" premiereChannelType="stereo">
    <masterclipid>masterclip-1</masterclipid>
    <name>S01E45.Jiggles.mkv</name>
    <enabled>TRUE</enabled>
    <duration>17218</duration>
    <rate>
        <timebase>23.976</timebase>
        <ntsc>FALSE</ntsc>
    </rate>
    <start>602</start>
    <end>613</end>
    <in>976</in>
    <out>987</out>
    <file id="file-5"/>
    <sourcetrack>
   <mediatype>audio</mediatype>
   <trackindex>2</trackindex>
</sourcetrack>
    <labels>
        <label2>Iris</label2>
    </labels>
</clipitem>
<clipitem id="b2c2c263-c905-4bc8-836d-524e800e8c36" premiereChannelType="stereo">
    <masterclipid>masterclip-1</masterclipid>
    <name>S01E45.Jiggles.mkv</name>
    <enabled>TRUE</enabled>
    <duration>17218</duration>
    <rate>
        <timebase>23.976</timebase>
        <ntsc>FALSE</ntsc>
    </rate>
    <start>613</start>
    <end>624</end>
    <in>987</in>
    <out>998</out>
    <file id="file-5"/>
    <sourcetrack>
   <mediatype>audio</mediatype>
   <trackindex>2</trackindex>
</sourcetrack>
    <labels>
        <label2>Iris</label2>
    </labels>
</clipitem>
<clipitem id="ff5c131e-b640-4598-a9a4-b1ca529ba2b6" premiereChannelType="stereo">
    <masterclipid>masterclip-1</masterclipid>
    <name>S01E45.Jiggles.mkv</name>
    <enabled>TRUE</enabled>
    <duration>17218</duration>
    <rate>
        <timebase>23.976</timebase>
        <ntsc>FALSE</ntsc>
    </rate>
    <start>624</start>
    <end>636</end>
    <in>998</in>
    <out>1010</out>
    <file id="file-5"/>
    <sourcetrack>
   <mediatype>audio</mediatype>
   <trackindex>2</trackindex>
</sourcetrack>
    <labels>
        <label2>Iris</label2>
    </labels>
</clipitem>
<clipitem id="c8d3ca4e-025c-418d-8406-968f1f683b5e" premiereChannelType="stereo">
    <masterclipid>masterclip-1</masterclipid>
    <name>S01E45.Jiggles.mkv</name>
    <enabled>TRUE</enabled>
    <duration>17218</duration>
    <rate>
        <timebase>23.976</timebase>
        <ntsc>FALSE</ntsc>
    </rate>
    <start>636</start>
    <end>647</end>
    <in>1010</in>
    <out>1021</out>
    <file id="file-5"/>
    <sourcetrack>
   <mediatype>audio</mediatype>
   <trackindex>2</trackindex>
</sourcetrack>
    <labels>
        <label2>Iris</label2>
    </labels>
</clipitem>
<clipitem id="7fd68094-0ef4-4060-b592-ba0e0a74f296" premiereChannelType="stereo">
    <masterclipid>masterclip-1</masterclipid>
    <name>S01E45.Jiggles.mkv</name>
    <enabled>TRUE</enabled>
    <duration>17218</duration>
    <rate>
        <timebase>23.976</timebase>
        <ntsc>FALSE</ntsc>
    </rate>
    <start>647</start>
    <end>663</end>
    <in>1021</in>
    <out>1037</out>
    <file id="file-5"/>
    <sourcetrack>
   <mediatype>audio</mediatype>
   <trackindex>2</trackindex>
</sourcetrack>
    <labels>
        <label2>Iris</label2>
    </labels>
</clipitem>
<clipitem id="5083c37a-c6ee-4f76-89c0-ee7d55cd8c0f" premiereChannelType="stereo">
    <masterclipid>masterclip-1</masterclipid>
    <name>S01E45.Jiggles.mkv</name>
    <enabled>TRUE</enabled>
    <duration>17218</duration>
    <rate>
        <timebase>23.976</timebase>
        <ntsc>FALSE</ntsc>
    </rate>
    <start>663</start>
    <end>679</end>
    <in>1038</in>
    <out>1054</out>
    <file id="file-5"/>
    <sourcetrack>
   <mediatype>audio</mediatype>
   <trackindex>2</trackindex>
</sourcetrack>
    <labels>
        <label2>Iris</label2>
    </labels>
</clipitem>
<clipitem id="9b7d7fb7-f016-4eb0-a9cd-ac35599de4cf" premiereChannelType="stereo">
    <masterclipid>masterclip-1</masterclipid>
    <name>S01E45.Jiggles.mkv</name>
    <enabled>TRUE</enabled>
    <duration>17218</duration>
    <rate>
        <timebase>23.976</timebase>
        <ntsc>FALSE</ntsc>
    </rate>
    <start>679</start>
    <end>690</end>
    <in>1053</in>
    <out>1064</out>
    <file id="file-5"/>
    <sourcetrack>
   <mediatype>audio</mediatype>
   <trackindex>2</trackindex>
</sourcetrack>
    <labels>
        <label2>Iris</label2>
    </labels>
</clipitem>
<clipitem id="9c674ec0-bbe0-4388-a654-4537df77ac87" premiereChannelType="stereo">
    <masterclipid>masterclip-1</masterclipid>
    <name>S01E45.Jiggles.mkv</name>
    <enabled>TRUE</enabled>
    <duration>17218</duration>
    <rate>
        <timebase>23.976</timebase>
        <ntsc>FALSE</ntsc>
    </rate>
    <start>690</start>
    <end>701</end>
    <in>1064</in>
    <out>1075</out>
    <file id="file-5"/>
    <sourcetrack>
   <mediatype>audio</mediatype>
   <trackindex>2</trackindex>
</sourcetrack>
    <labels>
        <label2>Iris</label2>
    </labels>
</clipitem>
<clipitem id="55823e10-63d0-42db-8f2f-cc9772780db8" premiereChannelType="stereo">
    <masterclipid>masterclip-1</masterclipid>
    <name>S01E45.Jiggles.mkv</name>
    <enabled>TRUE</enabled>
    <duration>17218</duration>
    <rate>
        <timebase>23.976</timebase>
        <ntsc>FALSE</ntsc>
    </rate>
    <start>701</start>
    <end>714</end>
    <in>1075</in>
    <out>1088</out>
    <file id="file-5"/>
    <sourcetrack>
   <mediatype>audio</mediatype>
   <trackindex>2</trackindex>
</sourcetrack>
    <labels>
        <label2>Iris</label2>
    </labels>
</clipitem>
<clipitem id="be2d3b61-5095-4ba7-a7dd-c595e406e3e6" premiereChannelType="stereo">
    <masterclipid>masterclip-1</masterclipid>
    <name>S01E45.Jiggles.mkv</name>
    <enabled>TRUE</enabled>
    <duration>17218</duration>
    <rate>
        <timebase>23.976</timebase>
        <ntsc>FALSE</ntsc>
    </rate>
    <start>714</start>
    <end>726</end>
    <in>1088</in>
    <out>1100</out>
    <file id="file-5"/>
    <sourcetrack>
   <mediatype>audio</mediatype>
   <trackindex>2</trackindex>
</sourcetrack>
    <labels>
        <label2>Iris</label2>
    </labels>
</clipitem>
<clipitem id="c54e29be-af1e-4dae-b0f7-1a175b311100" premiereChannelType="stereo">
    <masterclipid>masterclip-1</masterclipid>
    <name>S01E45.Jiggles.mkv</name>
    <enabled>TRUE</enabled>
    <duration>17218</duration>
    <rate>
        <timebase>23.976</timebase>
        <ntsc>FALSE</ntsc>
    </rate>
    <start>726</start>
    <end>745</end>
    <in>1100</in>
    <out>1119</out>
    <file id="file-5"/>
    <sourcetrack>
   <mediatype>audio</mediatype>
   <trackindex>2</trackindex>
</sourcetrack>
    <labels>
        <label2>Iris</label2>
    </labels>
</clipitem>
<clipitem id="5e00bbd9-9fbf-4822-b810-82ad0f13cd41" premiereChannelType="stereo">
    <masterclipid>masterclip-1</masterclipid>
    <name>S01E45.Jiggles.mkv</name>
    <enabled>TRUE</enabled>
    <duration>17218</duration>
    <rate>
        <timebase>23.976</timebase>
        <ntsc>FALSE</ntsc>
    </rate>
    <start>745</start>
    <end>756</end>
    <in>1132</in>
    <out>1143</out>
    <file id="file-5"/>
    <sourcetrack>
   <mediatype>audio</mediatype>
   <trackindex>2</trackindex>
</sourcetrack>
    <labels>
        <label2>Iris</label2>
    </labels>
</clipitem>
<clipitem id="2c7e0cbb-3419-4a91-93f7-c6f989fb4b1f" premiereChannelType="stereo">
    <masterclipid>masterclip-1</masterclipid>
    <name>S01E45.Jiggles.mkv</name>
    <enabled>TRUE</enabled>
    <duration>17218</duration>
    <rate>
        <timebase>23.976</timebase>
        <ntsc>FALSE</ntsc>
    </rate>
    <start>756</start>
    <end>772</end>
    <in>1130</in>
    <out>1146</out>
    <file id="file-5"/>
    <sourcetrack>
   <mediatype>audio</mediatype>
   <trackindex>2</trackindex>
</sourcetrack>
    <labels>
        <label2>Iris</label2>
    </labels>
</clipitem>
<clipitem id="caed640d-d6cb-4e95-bc45-fedd7e0890e9" premiereChannelType="stereo">
    <masterclipid>masterclip-1</masterclipid>
    <name>S01E45.Jiggles.mkv</name>
    <enabled>TRUE</enabled>
    <duration>17218</duration>
    <rate>
        <timebase>23.976</timebase>
        <ntsc>FALSE</ntsc>
    </rate>
    <start>772</start>
    <end>791</end>
    <in>1146</in>
    <out>1165</out>
    <file id="file-5"/>
    <sourcetrack>
   <mediatype>audio</mediatype>
   <trackindex>2</trackindex>
</sourcetrack>
    <labels>
        <label2>Iris</label2>
    </labels>
</clipitem>
<clipitem id="f141ad05-b974-402c-b48b-a74dd36e741a" premiereChannelType="stereo">
    <masterclipid>masterclip-1</masterclipid>
    <name>S01E45.Jiggles.mkv</name>
    <enabled>TRUE</enabled>
    <duration>17218</duration>
    <rate>
        <timebase>23.976</timebase>
        <ntsc>FALSE</ntsc>
    </rate>
    <start>791</start>
    <end>831</end>
    <in>1165</in>
    <out>1205</out>
    <file id="file-5"/>
    <sourcetrack>
   <mediatype>audio</mediatype>
   <trackindex>2</trackindex>
</sourcetrack>
    <labels>
        <label2>Iris</label2>
    </labels>
</clipitem>
<clipitem id="1c9e2d9f-71b6-46bc-ad6b-4e931123bd28" premiereChannelType="stereo">
    <masterclipid>masterclip-1</masterclipid>
    <name>S01E45.Jiggles.mkv</name>
    <enabled>TRUE</enabled>
    <duration>17218</duration>
    <rate>
        <timebase>23.976</timebase>
        <ntsc>FALSE</ntsc>
    </rate>
    <start>831</start>
    <end>842</end>
    <in>1207</in>
    <out>1218</out>
    <file id="file-5"/>
    <sourcetrack>
   <mediatype>audio</mediatype>
   <trackindex>2</trackindex>
</sourcetrack>
    <labels>
        <label2>Iris</label2>
    </labels>
</clipitem>
<clipitem id="b94664fc-98ca-48a1-bc52-1dd013708f89" premiereChannelType="stereo">
    <masterclipid>masterclip-1</masterclipid>
    <name>S01E45.Jiggles.mkv</name>
    <enabled>TRUE</enabled>
    <duration>17218</duration>
    <rate>
        <timebase>23.976</timebase>
        <ntsc>FALSE</ntsc>
    </rate>
    <start>842</start>
    <end>875</end>
    <in>1216</in>
    <out>1249</out>
    <file id="file-5"/>
    <sourcetrack>
   <mediatype>audio</mediatype>
   <trackindex>2</trackindex>
</sourcetrack>
    <labels>
        <label2>Iris</label2>
    </labels>
</clipitem>
<clipitem id="ba326324-f30f-4d14-88b7-6b2ee886257c" premiereChannelType="stereo">
    <masterclipid>masterclip-1</masterclipid>
    <name>S01E45.Jiggles.mkv</name>
    <enabled>TRUE</enabled>
    <duration>17218</duration>
    <rate>
        <timebase>23.976</timebase>
        <ntsc>FALSE</ntsc>
    </rate>
    <start>875</start>
    <end>893</end>
    <in>1249</in>
    <out>1267</out>
    <file id="file-5"/>
    <sourcetrack>
   <mediatype>audio</mediatype>
   <trackindex>2</trackindex>
</sourcetrack>
    <labels>
        <label2>Iris</label2>
    </labels>
</clipitem>
<clipitem id="63005270-6402-4c08-9110-35b3f3294d19" premiereChannelType="stereo">
    <masterclipid>masterclip-1</masterclipid>
    <name>S01E45.Jiggles.mkv</name>
    <enabled>TRUE</enabled>
    <duration>17218</duration>
    <rate>
        <timebase>23.976</timebase>
        <ntsc>FALSE</ntsc>
    </rate>
    <start>893</start>
    <end>906</end>
    <in>1267</in>
    <out>1280</out>
    <file id="file-5"/>
    <sourcetrack>
   <mediatype>audio</mediatype>
   <trackindex>2</trackindex>
</sourcetrack>
    <labels>
        <label2>Iris</label2>
    </labels>
</clipitem>
<clipitem id="a8a7f57a-d2e0-4b75-bc0e-bddf9e4400ef" premiereChannelType="stereo">
    <masterclipid>masterclip-1</masterclipid>
    <name>S01E45.Jiggles.mkv</name>
    <enabled>TRUE</enabled>
    <duration>17218</duration>
    <rate>
        <timebase>23.976</timebase>
        <ntsc>FALSE</ntsc>
    </rate>
    <start>945</start>
    <end>998</end>
    <in>1356</in>
    <out>1409</out>
    <file id="file-5"/>
    <sourcetrack>
   <mediatype>audio</mediatype>
   <trackindex>2</trackindex>
</sourcetrack>
    <labels>
        <label2>Iris</label2>
    </labels>
</clipitem>
<clipitem id="4b429643-a702-4f05-b260-45b5e6037e2f" premiereChannelType="stereo">
    <masterclipid>masterclip-1</masterclipid>
    <name>S01E45.Jiggles.mkv</name>
    <enabled>TRUE</enabled>
    <duration>17218</duration>
    <rate>
        <timebase>23.976</timebase>
        <ntsc>FALSE</ntsc>
    </rate>
    <start>998</start>
    <end>1058</end>
    <in>1414</in>
    <out>1474</out>
    <file id="file-5"/>
    <sourcetrack>
   <mediatype>audio</mediatype>
   <trackindex>2</trackindex>
</sourcetrack>
    <labels>
        <label2>Iris</label2>
    </labels>
</clipitem>
<clipitem id="95da4e28-711a-48a7-8595-28cbde6aa942" premiereChannelType="stereo">
    <masterclipid>masterclip-1</masterclipid>
    <name>S01E45.Jiggles.mkv</name>
    <enabled>TRUE</enabled>
    <duration>17218</duration>
    <rate>
        <timebase>23.976</timebase>
        <ntsc>FALSE</ntsc>
    </rate>
    <start>1058</start>
    <end>1118</end>
    <in>1474</in>
    <out>1534</out>
    <file id="file-5"/>
    <sourcetrack>
   <mediatype>audio</mediatype>
   <trackindex>2</trackindex>
</sourcetrack>
    <labels>
        <label2>Iris</label2>
    </labels>
</clipitem>
<clipitem id="73bd7a27-f2da-44e3-9b8a-039c8b149110" premiereChannelType="stereo">
    <masterclipid>masterclip-1</masterclipid>
    <name>S01E45.Jiggles.mkv</name>
    <enabled>TRUE</enabled>
    <duration>17218</duration>
    <rate>
        <timebase>23.976</timebase>
        <ntsc>FALSE</ntsc>
    </rate>
    <start>1118</start>
    <end>1172</end>
    <in>1538</in>
    <out>1592</out>
    <file id="file-5"/>
    <sourcetrack>
   <mediatype>audio</mediatype>
   <trackindex>2</trackindex>
</sourcetrack>
    <labels>
        <label2>Iris</label2>
    </labels>
</clipitem>
<clipitem id="3d5b5bae-200e-4ed6-8610-84918244a943" premiereChannelType="stereo">
    <masterclipid>masterclip-1</masterclipid>
    <name>S01E45.Jiggles.mkv</name>
    <enabled>TRUE</enabled>
    <duration>17218</duration>
    <rate>
        <timebase>23.976</timebase>
        <ntsc>FALSE</ntsc>
    </rate>
    <start>1172</start>
    <end>1184</end>
    <in>1590</in>
    <out>1602</out>
    <file id="file-5"/>
    <sourcetrack>
   <mediatype>audio</mediatype>
   <trackindex>2</trackindex>
</sourcetrack>
    <labels>
        <label2>Iris</label2>
    </labels>
</clipitem>
<clipitem id="ea94a94d-c82e-483f-b099-e0f91fddc5b8" premiereChannelType="stereo">
    <masterclipid>masterclip-1</masterclipid>
    <name>S01E45.Jiggles.mkv</name>
    <enabled>TRUE</enabled>
    <duration>17218</duration>
    <rate>
        <timebase>23.976</timebase>
        <ntsc>FALSE</ntsc>
    </rate>
    <start>1184</start>
    <end>1195</end>
    <in>0</in>
    <out>11</out>
    <file id="file-5"/>
    <sourcetrack>
   <mediatype>audio</mediatype>
   <trackindex>2</trackindex>
</sourcetrack>
    <labels>
        <label2>Iris</label2>
    </labels>
</clipitem>
<clipitem id="882d44e6-2e22-4738-8623-34d773bd0462" premiereChannelType="stereo">
    <masterclipid>masterclip-1</masterclipid>
    <name>S01E45.Jiggles.mkv</name>
    <enabled>TRUE</enabled>
    <duration>17218</duration>
    <rate>
        <timebase>23.976</timebase>
        <ntsc>FALSE</ntsc>
    </rate>
    <start>1195</start>
    <end>1215</end>
    <in>1609</in>
    <out>1629</out>
    <file id="file-5"/>
    <sourcetrack>
   <mediatype>audio</mediatype>
   <trackindex>2</trackindex>
</sourcetrack>
    <labels>
        <label2>Iris</label2>
    </labels>
</clipitem>
<clipitem id="8ea1dfcd-94c8-4a0d-b384-6e87afef9ec1" premiereChannelType="stereo">
    <masterclipid>masterclip-1</masterclipid>
    <name>S01E45.Jiggles.mkv</name>
    <enabled>TRUE</enabled>
    <duration>17218</duration>
    <rate>
        <timebase>23.976</timebase>
        <ntsc>FALSE</ntsc>
    </rate>
    <start>1215</start>
    <end>1226</end>
    <in>1633</in>
    <out>1644</out>
    <file id="file-5"/>
    <sourcetrack>
   <mediatype>audio</mediatype>
   <trackindex>2</trackindex>
</sourcetrack>
    <labels>
        <label2>Iris</label2>
    </labels>
</clipitem>
<clipitem id="f6d21bca-72e2-47cb-9233-e6a3ee71611a" premiereChannelType="stereo">
    <masterclipid>masterclip-1</masterclipid>
    <name>S01E45.Jiggles.mkv</name>
    <enabled>TRUE</enabled>
    <duration>17218</duration>
    <rate>
        <timebase>23.976</timebase>
        <ntsc>FALSE</ntsc>
    </rate>
    <start>1226</start>
    <end>1237</end>
    <in>1644</in>
    <out>1655</out>
    <file id="file-5"/>
    <sourcetrack>
   <mediatype>audio</mediatype>
   <trackindex>2</trackindex>
</sourcetrack>
    <labels>
        <label2>Iris</label2>
    </labels>
</clipitem>
<clipitem id="14b57d7f-6634-4c6c-9dbd-5d3183ba3d32" premiereChannelType="stereo">
    <masterclipid>masterclip-1</masterclipid>
    <name>S01E45.Jiggles.mkv</name>
    <enabled>TRUE</enabled>
    <duration>17218</duration>
    <rate>
        <timebase>23.976</timebase>
        <ntsc>FALSE</ntsc>
    </rate>
    <start>1237</start>
    <end>1248</end>
    <in>1655</in>
    <out>1666</out>
    <file id="file-5"/>
    <sourcetrack>
   <mediatype>audio</mediatype>
   <trackindex>2</trackindex>
</sourcetrack>
    <labels>
        <label2>Iris</label2>
    </labels>
</clipitem>
<clipitem id="1d4a63dd-40b5-4667-b46d-072e48fb2f66" premiereChannelType="stereo">
    <masterclipid>masterclip-1</masterclipid>
    <name>S01E45.Jiggles.mkv</name>
    <enabled>TRUE</enabled>
    <duration>17218</duration>
    <rate>
        <timebase>23.976</timebase>
        <ntsc>FALSE</ntsc>
    </rate>
    <start>1248</start>
    <end>1259</end>
    <in>1666</in>
    <out>1677</out>
    <file id="file-5"/>
    <sourcetrack>
   <mediatype>audio</mediatype>
   <trackindex>2</trackindex>
</sourcetrack>
    <labels>
        <label2>Iris</label2>
    </labels>
</clipitem>
<clipitem id="f88c9113-89c0-4731-b5a2-33feb612c3a1" premiereChannelType="stereo">
    <masterclipid>masterclip-1</masterclipid>
    <name>S01E45.Jiggles.mkv</name>
    <enabled>TRUE</enabled>
    <duration>17218</duration>
    <rate>
        <timebase>23.976</timebase>
        <ntsc>FALSE</ntsc>
    </rate>
    <start>1259</start>
    <end>1294</end>
    <in>1677</in>
    <out>1712</out>
    <file id="file-5"/>
    <sourcetrack>
   <mediatype>audio</mediatype>
   <trackindex>2</trackindex>
</sourcetrack>
    <labels>
        <label2>Iris</label2>
    </labels>
</clipitem>
<clipitem id="f36e3ccf-f17a-4b32-81a6-b79f2b565f4a" premiereChannelType="stereo">
    <masterclipid>masterclip-1</masterclipid>
    <name>S01E45.Jiggles.mkv</name>
    <enabled>TRUE</enabled>
    <duration>17218</duration>
    <rate>
        <timebase>23.976</timebase>
        <ntsc>FALSE</ntsc>
    </rate>
    <start>1294</start>
    <end>1320</end>
    <in>1712</in>
    <out>1738</out>
    <file id="file-5"/>
    <sourcetrack>
   <mediatype>audio</mediatype>
   <trackindex>2</trackindex>
</sourcetrack>
    <labels>
        <label2>Iris</label2>
    </labels>
</clipitem>
<clipitem id="46b2075e-2331-4204-b5d1-a3f7c819527c" premiereChannelType="stereo">
    <masterclipid>masterclip-1</masterclipid>
    <name>S01E45.Jiggles.mkv</name>
    <enabled>TRUE</enabled>
    <duration>17218</duration>
    <rate>
        <timebase>23.976</timebase>
        <ntsc>FALSE</ntsc>
    </rate>
    <start>1320</start>
    <end>1331</end>
    <in>1738</in>
    <out>1749</out>
    <file id="file-5"/>
    <sourcetrack>
   <mediatype>audio</mediatype>
   <trackindex>2</trackindex>
</sourcetrack>
    <labels>
        <label2>Iris</label2>
    </labels>
</clipitem>
<clipitem id="0594c155-64ed-4772-a0f4-24177f19dc4b" premiereChannelType="stereo">
    <masterclipid>masterclip-1</masterclipid>
    <name>S01E45.Jiggles.mkv</name>
    <enabled>TRUE</enabled>
    <duration>17218</duration>
    <rate>
        <timebase>23.976</timebase>
        <ntsc>FALSE</ntsc>
    </rate>
    <start>1331</start>
    <end>1371</end>
    <in>1749</in>
    <out>1789</out>
    <file id="file-5"/>
    <sourcetrack>
   <mediatype>audio</mediatype>
   <trackindex>2</trackindex>
</sourcetrack>
    <labels>
        <label2>Iris</label2>
    </labels>
</clipitem>
<clipitem id="c1e28993-2970-454d-847b-ebd6556d57c6" premiereChannelType="stereo">
    <masterclipid>masterclip-1</masterclipid>
    <name>S01E45.Jiggles.mkv</name>
    <enabled>TRUE</enabled>
    <duration>17218</duration>
    <rate>
        <timebase>23.976</timebase>
        <ntsc>FALSE</ntsc>
    </rate>
    <start>1371</start>
    <end>1385</end>
    <in>1789</in>
    <out>1803</out>
    <file id="file-5"/>
    <sourcetrack>
   <mediatype>audio</mediatype>
   <trackindex>2</trackindex>
</sourcetrack>
    <labels>
        <label2>Iris</label2>
    </labels>
</clipitem>
<clipitem id="3e5ba683-01d3-4802-9ebc-08fc82f964ed" premiereChannelType="stereo">
    <masterclipid>masterclip-1</masterclipid>
    <name>S01E45.Jiggles.mkv</name>
    <enabled>TRUE</enabled>
    <duration>17218</duration>
    <rate>
        <timebase>23.976</timebase>
        <ntsc>FALSE</ntsc>
    </rate>
    <start>1385</start>
    <end>1396</end>
    <in>1803</in>
    <out>1814</out>
    <file id="file-5"/>
    <sourcetrack>
   <mediatype>audio</mediatype>
   <trackindex>2</trackindex>
</sourcetrack>
    <labels>
        <label2>Iris</label2>
    </labels>
</clipitem>
<clipitem id="cc2681f0-546c-4b6c-b0ec-7f41be403d9c" premiereChannelType="stereo">
    <masterclipid>masterclip-1</masterclipid>
    <name>S01E45.Jiggles.mkv</name>
    <enabled>TRUE</enabled>
    <duration>17218</duration>
    <rate>
        <timebase>23.976</timebase>
        <ntsc>FALSE</ntsc>
    </rate>
    <start>1396</start>
    <end>1407</end>
    <in>1814</in>
    <out>1825</out>
    <file id="file-5"/>
    <sourcetrack>
   <mediatype>audio</mediatype>
   <trackindex>2</trackindex>
</sourcetrack>
    <labels>
        <label2>Iris</label2>
    </labels>
</clipitem>
<clipitem id="6f13d225-d60e-484f-a367-8f4c19a6eb6f" premiereChannelType="stereo">
    <masterclipid>masterclip-1</masterclipid>
    <name>S01E45.Jiggles.mkv</name>
    <enabled>TRUE</enabled>
    <duration>17218</duration>
    <rate>
        <timebase>23.976</timebase>
        <ntsc>FALSE</ntsc>
    </rate>
    <start>1407</start>
    <end>1433</end>
    <in>1825</in>
    <out>1851</out>
    <file id="file-5"/>
    <sourcetrack>
   <mediatype>audio</mediatype>
   <trackindex>2</trackindex>
</sourcetrack>
    <labels>
        <label2>Iris</label2>
    </labels>
</clipitem>
<clipitem id="90bc72de-9f8b-4724-b7c0-c704170cbe93" premiereChannelType="stereo">
    <masterclipid>masterclip-1</masterclipid>
    <name>S01E45.Jiggles.mkv</name>
    <enabled>TRUE</enabled>
    <duration>17218</duration>
    <rate>
        <timebase>23.976</timebase>
        <ntsc>FALSE</ntsc>
    </rate>
    <start>1433</start>
    <end>2410</end>
    <in>1850</in>
    <out>2827</out>
    <file id="file-5"/>
    <sourcetrack>
   <mediatype>audio</mediatype>
   <trackindex>2</trackindex>
</sourcetrack>
    <labels>
        <label2>Iris</label2>
    </labels>
</clipitem>
<clipitem id="3856c878-f75c-491c-9e21-504766ff2b8d" premiereChannelType="stereo">
    <masterclipid>masterclip-1</masterclipid>
    <name>S01E45.Jiggles.mkv</name>
    <enabled>TRUE</enabled>
    <duration>17218</duration>
    <rate>
        <timebase>23.976</timebase>
        <ntsc>FALSE</ntsc>
    </rate>
    <start>2410</start>
    <end>2421</end>
    <in>2827</in>
    <out>2838</out>
    <file id="file-5"/>
    <sourcetrack>
   <mediatype>audio</mediatype>
   <trackindex>2</trackindex>
</sourcetrack>
    <labels>
        <label2>Iris</label2>
    </labels>
</clipitem>
<clipitem id="2f3186b9-dfcc-4e58-9681-64fb6248b805" premiereChannelType="stereo">
    <masterclipid>masterclip-1</masterclipid>
    <name>S01E45.Jiggles.mkv</name>
    <enabled>TRUE</enabled>
    <duration>17218</duration>
    <rate>
        <timebase>23.976</timebase>
        <ntsc>FALSE</ntsc>
    </rate>
    <start>2421</start>
    <end>2432</end>
    <in>2838</in>
    <out>2849</out>
    <file id="file-5"/>
    <sourcetrack>
   <mediatype>audio</mediatype>
   <trackindex>2</trackindex>
</sourcetrack>
    <labels>
        <label2>Iris</label2>
    </labels>
</clipitem>
<clipitem id="99656886-9dd6-497f-b1d4-023995d64d19" premiereChannelType="stereo">
    <masterclipid>masterclip-1</masterclipid>
    <name>S01E45.Jiggles.mkv</name>
    <enabled>TRUE</enabled>
    <duration>17218</duration>
    <rate>
        <timebase>23.976</timebase>
        <ntsc>FALSE</ntsc>
    </rate>
    <start>2432</start>
    <end>2443</end>
    <in>2849</in>
    <out>2860</out>
    <file id="file-5"/>
    <sourcetrack>
   <mediatype>audio</mediatype>
   <trackindex>2</trackindex>
</sourcetrack>
    <labels>
        <label2>Iris</label2>
    </labels>
</clipitem>
<clipitem id="96661b1a-42df-4cda-8a51-9307fb5e7af3" premiereChannelType="stereo">
    <masterclipid>masterclip-1</masterclipid>
    <name>S01E45.Jiggles.mkv</name>
    <enabled>TRUE</enabled>
    <duration>17218</duration>
    <rate>
        <timebase>23.976</timebase>
        <ntsc>FALSE</ntsc>
    </rate>
    <start>2443</start>
    <end>2454</end>
    <in>2860</in>
    <out>2871</out>
    <file id="file-5"/>
    <sourcetrack>
   <mediatype>audio</mediatype>
   <trackindex>2</trackindex>
</sourcetrack>
    <labels>
        <label2>Iris</label2>
    </labels>
</clipitem>
<clipitem id="87731583-1585-42b5-8964-2c813206b7b7" premiereChannelType="stereo">
    <masterclipid>masterclip-1</masterclipid>
    <name>S01E45.Jiggles.mkv</name>
    <enabled>TRUE</enabled>
    <duration>17218</duration>
    <rate>
        <timebase>23.976</timebase>
        <ntsc>FALSE</ntsc>
    </rate>
    <start>2454</start>
    <end>2472</end>
    <in>2871</in>
    <out>2889</out>
    <file id="file-5"/>
    <sourcetrack>
   <mediatype>audio</mediatype>
   <trackindex>2</trackindex>
</sourcetrack>
    <labels>
        <label2>Iris</label2>
    </labels>
</clipitem>
<clipitem id="2b765216-9e00-4b2d-8a98-ed70cab22c65" premiereChannelType="stereo">
    <masterclipid>masterclip-1</masterclipid>
    <name>S01E45.Jiggles.mkv</name>
    <enabled>TRUE</enabled>
    <duration>17218</duration>
    <rate>
        <timebase>23.976</timebase>
        <ntsc>FALSE</ntsc>
    </rate>
    <start>2472</start>
    <end>2570</end>
    <in>2888</in>
    <out>2986</out>
    <file id="file-5"/>
    <sourcetrack>
   <mediatype>audio</mediatype>
   <trackindex>2</trackindex>
</sourcetrack>
    <labels>
        <label2>Iris</label2>
    </labels>
</clipitem>
<clipitem id="c351e6c5-f518-4192-9521-cef14d44f39e" premiereChannelType="stereo">
    <masterclipid>masterclip-1</masterclipid>
    <name>S01E45.Jiggles.mkv</name>
    <enabled>TRUE</enabled>
    <duration>17218</duration>
    <rate>
        <timebase>23.976</timebase>
        <ntsc>FALSE</ntsc>
    </rate>
    <start>2573</start>
    <end>2584</end>
    <in>2990</in>
    <out>3001</out>
    <file id="file-5"/>
    <sourcetrack>
   <mediatype>audio</mediatype>
   <trackindex>2</trackindex>
</sourcetrack>
    <labels>
        <label2>Iris</label2>
    </labels>
</clipitem>
<clipitem id="7a7e6c18-8430-4b01-9836-364be8ffb096" premiereChannelType="stereo">
    <masterclipid>masterclip-1</masterclipid>
    <name>S01E45.Jiggles.mkv</name>
    <enabled>TRUE</enabled>
    <duration>17218</duration>
    <rate>
        <timebase>23.976</timebase>
        <ntsc>FALSE</ntsc>
    </rate>
    <start>2603</start>
    <end>2618</end>
    <in>3020</in>
    <out>3035</out>
    <file id="file-5"/>
    <sourcetrack>
   <mediatype>audio</mediatype>
   <trackindex>2</trackindex>
</sourcetrack>
    <labels>
        <label2>Iris</label2>
    </labels>
</clipitem>
<clipitem id="f4780744-944a-4b81-82ea-231f1789282a" premiereChannelType="stereo">
    <masterclipid>masterclip-1</masterclipid>
    <name>S01E45.Jiggles.mkv</name>
    <enabled>TRUE</enabled>
    <duration>17218</duration>
    <rate>
        <timebase>23.976</timebase>
        <ntsc>FALSE</ntsc>
    </rate>
    <start>2618</start>
    <end>2634</end>
    <in>3035</in>
    <out>3051</out>
    <file id="file-5"/>
    <sourcetrack>
   <mediatype>audio</mediatype>
   <trackindex>2</trackindex>
</sourcetrack>
    <labels>
        <label2>Iris</label2>
    </labels>
</clipitem>
<clipitem id="343032e9-02c1-413a-9202-e7114fe63d0d" premiereChannelType="stereo">
    <masterclipid>masterclip-1</masterclipid>
    <name>S01E45.Jiggles.mkv</name>
    <enabled>TRUE</enabled>
    <duration>17218</duration>
    <rate>
        <timebase>23.976</timebase>
        <ntsc>FALSE</ntsc>
    </rate>
    <start>2634</start>
    <end>2665</end>
    <in>3051</in>
    <out>3082</out>
    <file id="file-5"/>
    <sourcetrack>
   <mediatype>audio</mediatype>
   <trackindex>2</trackindex>
</sourcetrack>
    <labels>
        <label2>Iris</label2>
    </labels>
</clipitem>
<clipitem id="e9b30041-23c4-45c7-a6a7-5d5d3dc1c740" premiereChannelType="stereo">
    <masterclipid>masterclip-1</masterclipid>
    <name>S01E45.Jiggles.mkv</name>
    <enabled>TRUE</enabled>
    <duration>17218</duration>
    <rate>
        <timebase>23.976</timebase>
        <ntsc>FALSE</ntsc>
    </rate>
    <start>2665</start>
    <end>2676</end>
    <in>3082</in>
    <out>3093</out>
    <file id="file-5"/>
    <sourcetrack>
   <mediatype>audio</mediatype>
   <trackindex>2</trackindex>
</sourcetrack>
    <labels>
        <label2>Iris</label2>
    </labels>
</clipitem>
<clipitem id="895efa45-caa4-46d9-adf1-863184aa60a2" premiereChannelType="stereo">
    <masterclipid>masterclip-1</masterclipid>
    <name>S01E45.Jiggles.mkv</name>
    <enabled>TRUE</enabled>
    <duration>17218</duration>
    <rate>
        <timebase>23.976</timebase>
        <ntsc>FALSE</ntsc>
    </rate>
    <start>2676</start>
    <end>2687</end>
    <in>3093</in>
    <out>3104</out>
    <file id="file-5"/>
    <sourcetrack>
   <mediatype>audio</mediatype>
   <trackindex>2</trackindex>
</sourcetrack>
    <labels>
        <label2>Iris</label2>
    </labels>
</clipitem>
<clipitem id="4bec47ae-9ed9-4ec3-a4c6-48daf3e87f6b" premiereChannelType="stereo">
    <masterclipid>masterclip-1</masterclipid>
    <name>S01E45.Jiggles.mkv</name>
    <enabled>TRUE</enabled>
    <duration>17218</duration>
    <rate>
        <timebase>23.976</timebase>
        <ntsc>FALSE</ntsc>
    </rate>
    <start>2687</start>
    <end>2726</end>
    <in>3104</in>
    <out>3143</out>
    <file id="file-5"/>
    <sourcetrack>
   <mediatype>audio</mediatype>
   <trackindex>2</trackindex>
</sourcetrack>
    <labels>
        <label2>Iris</label2>
    </labels>
</clipitem>
<clipitem id="4adf4ffe-a463-4677-b220-ec098400b210" premiereChannelType="stereo">
    <masterclipid>masterclip-1</masterclipid>
    <name>S01E45.Jiggles.mkv</name>
    <enabled>TRUE</enabled>
    <duration>17218</duration>
    <rate>
        <timebase>23.976</timebase>
        <ntsc>FALSE</ntsc>
    </rate>
    <start>2726</start>
    <end>2822</end>
    <in>3142</in>
    <out>3238</out>
    <file id="file-5"/>
    <sourcetrack>
   <mediatype>audio</mediatype>
   <trackindex>2</trackindex>
</sourcetrack>
    <labels>
        <label2>Iris</label2>
    </labels>
</clipitem>
<clipitem id="4c0ad730-3930-47ad-903e-2c395ee12c50" premiereChannelType="stereo">
    <masterclipid>masterclip-1</masterclipid>
    <name>S01E45.Jiggles.mkv</name>
    <enabled>TRUE</enabled>
    <duration>17218</duration>
    <rate>
        <timebase>23.976</timebase>
        <ntsc>FALSE</ntsc>
    </rate>
    <start>2822</start>
    <end>2835</end>
    <in>3239</in>
    <out>3252</out>
    <file id="file-5"/>
    <sourcetrack>
   <mediatype>audio</mediatype>
   <trackindex>2</trackindex>
</sourcetrack>
    <labels>
        <label2>Iris</label2>
    </labels>
</clipitem>
<clipitem id="fa69d4f4-2f89-454d-8412-eba39dccb280" premiereChannelType="stereo">
    <masterclipid>masterclip-1</masterclipid>
    <name>S01E45.Jiggles.mkv</name>
    <enabled>TRUE</enabled>
    <duration>17218</duration>
    <rate>
        <timebase>23.976</timebase>
        <ntsc>FALSE</ntsc>
    </rate>
    <start>2835</start>
    <end>2858</end>
    <in>3253</in>
    <out>3276</out>
    <file id="file-5"/>
    <sourcetrack>
   <mediatype>audio</mediatype>
   <trackindex>2</trackindex>
</sourcetrack>
    <labels>
        <label2>Iris</label2>
    </labels>
</clipitem>
<clipitem id="cdf01612-9bba-4a67-8303-25283b764db8" premiereChannelType="stereo">
    <masterclipid>masterclip-1</masterclipid>
    <name>S01E45.Jiggles.mkv</name>
    <enabled>TRUE</enabled>
    <duration>17218</duration>
    <rate>
        <timebase>23.976</timebase>
        <ntsc>FALSE</ntsc>
    </rate>
    <start>2858</start>
    <end>2876</end>
    <in>3276</in>
    <out>3294</out>
    <file id="file-5"/>
    <sourcetrack>
   <mediatype>audio</mediatype>
   <trackindex>2</trackindex>
</sourcetrack>
    <labels>
        <label2>Iris</label2>
    </labels>
</clipitem>
<clipitem id="8fbc7070-d4d8-4760-86b8-21d0290886c8" premiereChannelType="stereo">
    <masterclipid>masterclip-1</masterclipid>
    <name>S01E45.Jiggles.mkv</name>
    <enabled>TRUE</enabled>
    <duration>17218</duration>
    <rate>
        <timebase>23.976</timebase>
        <ntsc>FALSE</ntsc>
    </rate>
    <start>2876</start>
    <end>2904</end>
    <in>3294</in>
    <out>3322</out>
    <file id="file-5"/>
    <sourcetrack>
   <mediatype>audio</mediatype>
   <trackindex>2</trackindex>
</sourcetrack>
    <labels>
        <label2>Iris</label2>
    </labels>
</clipitem>
<clipitem id="580ecb36-2c91-4261-9cb4-038d71b8686b" premiereChannelType="stereo">
    <masterclipid>masterclip-1</masterclipid>
    <name>S01E45.Jiggles.mkv</name>
    <enabled>TRUE</enabled>
    <duration>17218</duration>
    <rate>
        <timebase>23.976</timebase>
        <ntsc>FALSE</ntsc>
    </rate>
    <start>2904</start>
    <end>2926</end>
    <in>3322</in>
    <out>3344</out>
    <file id="file-5"/>
    <sourcetrack>
   <mediatype>audio</mediatype>
   <trackindex>2</trackindex>
</sourcetrack>
    <labels>
        <label2>Iris</label2>
    </labels>
</clipitem>
<clipitem id="748333b9-9b03-4272-9278-da7feeb79e9b" premiereChannelType="stereo">
    <masterclipid>masterclip-1</masterclipid>
    <name>S01E45.Jiggles.mkv</name>
    <enabled>TRUE</enabled>
    <duration>17218</duration>
    <rate>
        <timebase>23.976</timebase>
        <ntsc>FALSE</ntsc>
    </rate>
    <start>2926</start>
    <end>2937</end>
    <in>3348</in>
    <out>3359</out>
    <file id="file-5"/>
    <sourcetrack>
   <mediatype>audio</mediatype>
   <trackindex>2</trackindex>
</sourcetrack>
    <labels>
        <label2>Iris</label2>
    </labels>
</clipitem>
<clipitem id="46bea09c-1e20-4af5-a6e9-021ed287e763" premiereChannelType="stereo">
    <masterclipid>masterclip-1</masterclipid>
    <name>S01E45.Jiggles.mkv</name>
    <enabled>TRUE</enabled>
    <duration>17218</duration>
    <rate>
        <timebase>23.976</timebase>
        <ntsc>FALSE</ntsc>
    </rate>
    <start>2937</start>
    <end>2948</end>
    <in>3355</in>
    <out>3366</out>
    <file id="file-5"/>
    <sourcetrack>
   <mediatype>audio</mediatype>
   <trackindex>2</trackindex>
</sourcetrack>
    <labels>
        <label2>Iris</label2>
    </labels>
</clipitem>
<clipitem id="5a43f605-1c92-462a-af10-307db983d4fb" premiereChannelType="stereo">
    <masterclipid>masterclip-1</masterclipid>
    <name>S01E45.Jiggles.mkv</name>
    <enabled>TRUE</enabled>
    <duration>17218</duration>
    <rate>
        <timebase>23.976</timebase>
        <ntsc>FALSE</ntsc>
    </rate>
    <start>2948</start>
    <end>2971</end>
    <in>3366</in>
    <out>3389</out>
    <file id="file-5"/>
    <sourcetrack>
   <mediatype>audio</mediatype>
   <trackindex>2</trackindex>
</sourcetrack>
    <labels>
        <label2>Iris</label2>
    </labels>
</clipitem>
<clipitem id="4368fee4-0636-479b-99a5-b95048837bfe" premiereChannelType="stereo">
    <masterclipid>masterclip-1</masterclipid>
    <name>S01E45.Jiggles.mkv</name>
    <enabled>TRUE</enabled>
    <duration>17218</duration>
    <rate>
        <timebase>23.976</timebase>
        <ntsc>FALSE</ntsc>
    </rate>
    <start>2971</start>
    <end>2982</end>
    <in>3389</in>
    <out>3400</out>
    <file id="file-5"/>
    <sourcetrack>
   <mediatype>audio</mediatype>
   <trackindex>2</trackindex>
</sourcetrack>
    <labels>
        <label2>Iris</label2>
    </labels>
</clipitem>
<clipitem id="a1512a71-6f84-4e90-b852-6f28a1999c44" premiereChannelType="stereo">
    <masterclipid>masterclip-1</masterclipid>
    <name>S01E45.Jiggles.mkv</name>
    <enabled>TRUE</enabled>
    <duration>17218</duration>
    <rate>
        <timebase>23.976</timebase>
        <ntsc>FALSE</ntsc>
    </rate>
    <start>2982</start>
    <end>2996</end>
    <in>3399</in>
    <out>3413</out>
    <file id="file-5"/>
    <sourcetrack>
   <mediatype>audio</mediatype>
   <trackindex>2</trackindex>
</sourcetrack>
    <labels>
        <label2>Iris</label2>
    </labels>
</clipitem>
<clipitem id="7c68565f-f9b1-4ee5-a9ce-f211f80fee61" premiereChannelType="stereo">
    <masterclipid>masterclip-1</masterclipid>
    <name>S01E45.Jiggles.mkv</name>
    <enabled>TRUE</enabled>
    <duration>17218</duration>
    <rate>
        <timebase>23.976</timebase>
        <ntsc>FALSE</ntsc>
    </rate>
    <start>2996</start>
    <end>3028</end>
    <in>3414</in>
    <out>3446</out>
    <file id="file-5"/>
    <sourcetrack>
   <mediatype>audio</mediatype>
   <trackindex>2</trackindex>
</sourcetrack>
    <labels>
        <label2>Iris</label2>
    </labels>
</clipitem>
<clipitem id="13d3d54a-9c3d-43e9-a82b-377a1e88f228" premiereChannelType="stereo">
    <masterclipid>masterclip-1</masterclipid>
    <name>S01E45.Jiggles.mkv</name>
    <enabled>TRUE</enabled>
    <duration>17218</duration>
    <rate>
        <timebase>23.976</timebase>
        <ntsc>FALSE</ntsc>
    </rate>
    <start>3028</start>
    <end>3039</end>
    <in>3446</in>
    <out>3457</out>
    <file id="file-5"/>
    <sourcetrack>
   <mediatype>audio</mediatype>
   <trackindex>2</trackindex>
</sourcetrack>
    <labels>
        <label2>Iris</label2>
    </labels>
</clipitem>
<clipitem id="ff763886-c7ce-4947-a0e3-839aadda6eae" premiereChannelType="stereo">
    <masterclipid>masterclip-1</masterclipid>
    <name>S01E45.Jiggles.mkv</name>
    <enabled>TRUE</enabled>
    <duration>17218</duration>
    <rate>
        <timebase>23.976</timebase>
        <ntsc>FALSE</ntsc>
    </rate>
    <start>3039</start>
    <end>3051</end>
    <in>3457</in>
    <out>3469</out>
    <file id="file-5"/>
    <sourcetrack>
   <mediatype>audio</mediatype>
   <trackindex>2</trackindex>
</sourcetrack>
    <labels>
        <label2>Iris</label2>
    </labels>
</clipitem>
<clipitem id="775a5e84-2f18-4026-8820-496e93e98aed" premiereChannelType="stereo">
    <masterclipid>masterclip-1</masterclipid>
    <name>S01E45.Jiggles.mkv</name>
    <enabled>TRUE</enabled>
    <duration>17218</duration>
    <rate>
        <timebase>23.976</timebase>
        <ntsc>FALSE</ntsc>
    </rate>
    <start>3051</start>
    <end>3067</end>
    <in>3469</in>
    <out>3485</out>
    <file id="file-5"/>
    <sourcetrack>
   <mediatype>audio</mediatype>
   <trackindex>2</trackindex>
</sourcetrack>
    <labels>
        <label2>Iris</label2>
    </labels>
</clipitem>
<clipitem id="75adab78-5656-4a37-9946-c87804f9eb56" premiereChannelType="stereo">
    <masterclipid>masterclip-1</masterclipid>
    <name>S01E45.Jiggles.mkv</name>
    <enabled>TRUE</enabled>
    <duration>17218</duration>
    <rate>
        <timebase>23.976</timebase>
        <ntsc>FALSE</ntsc>
    </rate>
    <start>3067</start>
    <end>3078</end>
    <in>3485</in>
    <out>3496</out>
    <file id="file-5"/>
    <sourcetrack>
   <mediatype>audio</mediatype>
   <trackindex>2</trackindex>
</sourcetrack>
    <labels>
        <label2>Iris</label2>
    </labels>
</clipitem>
<clipitem id="8532629d-fe21-4483-9894-a04a2069972a" premiereChannelType="stereo">
    <masterclipid>masterclip-1</masterclipid>
    <name>S01E45.Jiggles.mkv</name>
    <enabled>TRUE</enabled>
    <duration>17218</duration>
    <rate>
        <timebase>23.976</timebase>
        <ntsc>FALSE</ntsc>
    </rate>
    <start>3078</start>
    <end>3113</end>
    <in>3496</in>
    <out>3531</out>
    <file id="file-5"/>
    <sourcetrack>
   <mediatype>audio</mediatype>
   <trackindex>2</trackindex>
</sourcetrack>
    <labels>
        <label2>Iris</label2>
    </labels>
</clipitem>
<clipitem id="fd382834-ad01-474d-bdb6-ffbab8959cfb" premiereChannelType="stereo">
    <masterclipid>masterclip-1</masterclipid>
    <name>S01E45.Jiggles.mkv</name>
    <enabled>TRUE</enabled>
    <duration>17218</duration>
    <rate>
        <timebase>23.976</timebase>
        <ntsc>FALSE</ntsc>
    </rate>
    <start>3113</start>
    <end>3124</end>
    <in>3531</in>
    <out>3542</out>
    <file id="file-5"/>
    <sourcetrack>
   <mediatype>audio</mediatype>
   <trackindex>2</trackindex>
</sourcetrack>
    <labels>
        <label2>Iris</label2>
    </labels>
</clipitem>
<clipitem id="66b8d53f-1f99-475c-b153-21355af076fe" premiereChannelType="stereo">
    <masterclipid>masterclip-1</masterclipid>
    <name>S01E45.Jiggles.mkv</name>
    <enabled>TRUE</enabled>
    <duration>17218</duration>
    <rate>
        <timebase>23.976</timebase>
        <ntsc>FALSE</ntsc>
    </rate>
    <start>3124</start>
    <end>3141</end>
    <in>3553</in>
    <out>3570</out>
    <file id="file-5"/>
    <sourcetrack>
   <mediatype>audio</mediatype>
   <trackindex>2</trackindex>
</sourcetrack>
    <labels>
        <label2>Iris</label2>
    </labels>
</clipitem>
<clipitem id="a10c80b0-4eab-4e5e-8d26-a5dac9d39323" premiereChannelType="stereo">
    <masterclipid>masterclip-1</masterclipid>
    <name>S01E45.Jiggles.mkv</name>
    <enabled>TRUE</enabled>
    <duration>17218</duration>
    <rate>
        <timebase>23.976</timebase>
        <ntsc>FALSE</ntsc>
    </rate>
    <start>3141</start>
    <end>3152</end>
    <in>3559</in>
    <out>3570</out>
    <file id="file-5"/>
    <sourcetrack>
   <mediatype>audio</mediatype>
   <trackindex>2</trackindex>
</sourcetrack>
    <labels>
        <label2>Iris</label2>
    </labels>
</clipitem>
<clipitem id="77a06ad6-9eda-497a-bf14-9591329a7230" premiereChannelType="stereo">
    <masterclipid>masterclip-1</masterclipid>
    <name>S01E45.Jiggles.mkv</name>
    <enabled>TRUE</enabled>
    <duration>17218</duration>
    <rate>
        <timebase>23.976</timebase>
        <ntsc>FALSE</ntsc>
    </rate>
    <start>3152</start>
    <end>3164</end>
    <in>3546</in>
    <out>3558</out>
    <file id="file-5"/>
    <sourcetrack>
   <mediatype>audio</mediatype>
   <trackindex>2</trackindex>
</sourcetrack>
    <labels>
        <label2>Iris</label2>
    </labels>
</clipitem>
<clipitem id="8c02a4fe-fec4-47e4-9e11-f257bdf43336" premiereChannelType="stereo">
    <masterclipid>masterclip-1</masterclipid>
    <name>S01E45.Jiggles.mkv</name>
    <enabled>TRUE</enabled>
    <duration>17218</duration>
    <rate>
        <timebase>23.976</timebase>
        <ntsc>FALSE</ntsc>
    </rate>
    <start>3164</start>
    <end>3178</end>
    <in>3545</in>
    <out>3559</out>
    <file id="file-5"/>
    <sourcetrack>
   <mediatype>audio</mediatype>
   <trackindex>2</trackindex>
</sourcetrack>
    <labels>
        <label2>Iris</label2>
    </labels>
</clipitem>
<clipitem id="fbc7f0dd-28e3-4e7e-b541-f5c5e9959e46" premiereChannelType="stereo">
    <masterclipid>masterclip-1</masterclipid>
    <name>S01E45.Jiggles.mkv</name>
    <enabled>TRUE</enabled>
    <duration>17218</duration>
    <rate>
        <timebase>23.976</timebase>
        <ntsc>FALSE</ntsc>
    </rate>
    <start>3178</start>
    <end>3190</end>
    <in>3596</in>
    <out>3608</out>
    <file id="file-5"/>
    <sourcetrack>
   <mediatype>audio</mediatype>
   <trackindex>2</trackindex>
</sourcetrack>
    <labels>
        <label2>Iris</label2>
    </labels>
</clipitem>
<clipitem id="b9e83053-af49-4a32-bb11-35c9b48f70d5" premiereChannelType="stereo">
    <masterclipid>masterclip-1</masterclipid>
    <name>S01E45.Jiggles.mkv</name>
    <enabled>TRUE</enabled>
    <duration>17218</duration>
    <rate>
        <timebase>23.976</timebase>
        <ntsc>FALSE</ntsc>
    </rate>
    <start>3190</start>
    <end>3201</end>
    <in>3608</in>
    <out>3619</out>
    <file id="file-5"/>
    <sourcetrack>
   <mediatype>audio</mediatype>
   <trackindex>2</trackindex>
</sourcetrack>
    <labels>
        <label2>Iris</label2>
    </labels>
</clipitem>
<clipitem id="22d66c6d-9035-4360-836a-00d750f3685f" premiereChannelType="stereo">
    <masterclipid>masterclip-1</masterclipid>
    <name>S01E45.Jiggles.mkv</name>
    <enabled>TRUE</enabled>
    <duration>17218</duration>
    <rate>
        <timebase>23.976</timebase>
        <ntsc>FALSE</ntsc>
    </rate>
    <start>3201</start>
    <end>3213</end>
    <in>3619</in>
    <out>3631</out>
    <file id="file-5"/>
    <sourcetrack>
   <mediatype>audio</mediatype>
   <trackindex>2</trackindex>
</sourcetrack>
    <labels>
        <label2>Iris</label2>
    </labels>
</clipitem>
<clipitem id="890d10a6-6d94-432c-8709-6e7245888110" premiereChannelType="stereo">
    <masterclipid>masterclip-1</masterclipid>
    <name>S01E45.Jiggles.mkv</name>
    <enabled>TRUE</enabled>
    <duration>17218</duration>
    <rate>
        <timebase>23.976</timebase>
        <ntsc>FALSE</ntsc>
    </rate>
    <start>3213</start>
    <end>3225</end>
    <in>3631</in>
    <out>3643</out>
    <file id="file-5"/>
    <sourcetrack>
   <mediatype>audio</mediatype>
   <trackindex>2</trackindex>
</sourcetrack>
    <labels>
        <label2>Iris</label2>
    </labels>
</clipitem>
<clipitem id="082ade74-e806-46be-960b-281a22a948cd" premiereChannelType="stereo">
    <masterclipid>masterclip-1</masterclipid>
    <name>S01E45.Jiggles.mkv</name>
    <enabled>TRUE</enabled>
    <duration>17218</duration>
    <rate>
        <timebase>23.976</timebase>
        <ntsc>FALSE</ntsc>
    </rate>
    <start>3225</start>
    <end>3241</end>
    <in>3643</in>
    <out>3659</out>
    <file id="file-5"/>
    <sourcetrack>
   <mediatype>audio</mediatype>
   <trackindex>2</trackindex>
</sourcetrack>
    <labels>
        <label2>Iris</label2>
    </labels>
</clipitem>
<clipitem id="e8928f52-5953-4a7b-ad72-280f056022af" premiereChannelType="stereo">
    <masterclipid>masterclip-1</masterclipid>
    <name>S01E45.Jiggles.mkv</name>
    <enabled>TRUE</enabled>
    <duration>17218</duration>
    <rate>
        <timebase>23.976</timebase>
        <ntsc>FALSE</ntsc>
    </rate>
    <start>3241</start>
    <end>3256</end>
    <in>3659</in>
    <out>3674</out>
    <file id="file-5"/>
    <sourcetrack>
   <mediatype>audio</mediatype>
   <trackindex>2</trackindex>
</sourcetrack>
    <labels>
        <label2>Iris</label2>
    </labels>
</clipitem>
<clipitem id="dc7227cb-0843-45b2-a2d6-2a09f268306e" premiereChannelType="stereo">
    <masterclipid>masterclip-1</masterclipid>
    <name>S01E45.Jiggles.mkv</name>
    <enabled>TRUE</enabled>
    <duration>17218</duration>
    <rate>
        <timebase>23.976</timebase>
        <ntsc>FALSE</ntsc>
    </rate>
    <start>3256</start>
    <end>3273</end>
    <in>3674</in>
    <out>3691</out>
    <file id="file-5"/>
    <sourcetrack>
   <mediatype>audio</mediatype>
   <trackindex>2</trackindex>
</sourcetrack>
    <labels>
        <label2>Iris</label2>
    </labels>
</clipitem>
<clipitem id="6f1d3d7c-d033-4f42-af8f-7c06d6024484" premiereChannelType="stereo">
    <masterclipid>masterclip-1</masterclipid>
    <name>S01E45.Jiggles.mkv</name>
    <enabled>TRUE</enabled>
    <duration>17218</duration>
    <rate>
        <timebase>23.976</timebase>
        <ntsc>FALSE</ntsc>
    </rate>
    <start>3273</start>
    <end>3299</end>
    <in>3691</in>
    <out>3717</out>
    <file id="file-5"/>
    <sourcetrack>
   <mediatype>audio</mediatype>
   <trackindex>2</trackindex>
</sourcetrack>
    <labels>
        <label2>Iris</label2>
    </labels>
</clipitem>
<clipitem id="b175f628-40c6-4a6e-9ddb-7e894b7290ac" premiereChannelType="stereo">
    <masterclipid>masterclip-1</masterclipid>
    <name>S01E45.Jiggles.mkv</name>
    <enabled>TRUE</enabled>
    <duration>17218</duration>
    <rate>
        <timebase>23.976</timebase>
        <ntsc>FALSE</ntsc>
    </rate>
    <start>3299</start>
    <end>3340</end>
    <in>3717</in>
    <out>3758</out>
    <file id="file-5"/>
    <sourcetrack>
   <mediatype>audio</mediatype>
   <trackindex>2</trackindex>
</sourcetrack>
    <labels>
        <label2>Iris</label2>
    </labels>
</clipitem>
<clipitem id="b7283b1b-0443-4ee8-b2ee-c4deea9d7d89" premiereChannelType="stereo">
    <masterclipid>masterclip-1</masterclipid>
    <name>S01E45.Jiggles.mkv</name>
    <enabled>TRUE</enabled>
    <duration>17218</duration>
    <rate>
        <timebase>23.976</timebase>
        <ntsc>FALSE</ntsc>
    </rate>
    <start>3340</start>
    <end>3389</end>
    <in>3758</in>
    <out>3807</out>
    <file id="file-5"/>
    <sourcetrack>
   <mediatype>audio</mediatype>
   <trackindex>2</trackindex>
</sourcetrack>
    <labels>
        <label2>Iris</label2>
    </labels>
</clipitem>
<clipitem id="455fb84e-548b-45cc-bcc7-e689da6aba25" premiereChannelType="stereo">
    <masterclipid>masterclip-1</masterclipid>
    <name>S01E45.Jiggles.mkv</name>
    <enabled>TRUE</enabled>
    <duration>17218</duration>
    <rate>
        <timebase>23.976</timebase>
        <ntsc>FALSE</ntsc>
    </rate>
    <start>3389</start>
    <end>3530</end>
    <in>3807</in>
    <out>3948</out>
    <file id="file-5"/>
    <sourcetrack>
   <mediatype>audio</mediatype>
   <trackindex>2</trackindex>
</sourcetrack>
    <labels>
        <label2>Iris</label2>
    </labels>
</clipitem>
<clipitem id="33698689-b9db-40b0-9549-fe87205954ba" premiereChannelType="stereo">
    <masterclipid>masterclip-1</masterclipid>
    <name>S01E45.Jiggles.mkv</name>
    <enabled>TRUE</enabled>
    <duration>17218</duration>
    <rate>
        <timebase>23.976</timebase>
        <ntsc>FALSE</ntsc>
    </rate>
    <start>3530</start>
    <end>3591</end>
    <in>3948</in>
    <out>4009</out>
    <file id="file-5"/>
    <sourcetrack>
   <mediatype>audio</mediatype>
   <trackindex>2</trackindex>
</sourcetrack>
    <labels>
        <label2>Iris</label2>
    </labels>
</clipitem>
<clipitem id="7643b795-d4d3-4364-beeb-bf9b5075e573" premiereChannelType="stereo">
    <masterclipid>masterclip-1</masterclipid>
    <name>S01E45.Jiggles.mkv</name>
    <enabled>TRUE</enabled>
    <duration>17218</duration>
    <rate>
        <timebase>23.976</timebase>
        <ntsc>FALSE</ntsc>
    </rate>
    <start>3591</start>
    <end>3614</end>
    <in>4009</in>
    <out>4032</out>
    <file id="file-5"/>
    <sourcetrack>
   <mediatype>audio</mediatype>
   <trackindex>2</trackindex>
</sourcetrack>
    <labels>
        <label2>Iris</label2>
    </labels>
</clipitem>
<clipitem id="ee64b588-14c9-4bd9-a145-2b1c38a72774" premiereChannelType="stereo">
    <masterclipid>masterclip-1</masterclipid>
    <name>S01E45.Jiggles.mkv</name>
    <enabled>TRUE</enabled>
    <duration>17218</duration>
    <rate>
        <timebase>23.976</timebase>
        <ntsc>FALSE</ntsc>
    </rate>
    <start>3614</start>
    <end>3772</end>
    <in>4032</in>
    <out>4190</out>
    <file id="file-5"/>
    <sourcetrack>
   <mediatype>audio</mediatype>
   <trackindex>2</trackindex>
</sourcetrack>
    <labels>
        <label2>Iris</label2>
    </labels>
</clipitem>
<clipitem id="6a52b441-790a-4e13-b096-25f4e9977930" premiereChannelType="stereo">
    <masterclipid>masterclip-1</masterclipid>
    <name>S01E45.Jiggles.mkv</name>
    <enabled>TRUE</enabled>
    <duration>17218</duration>
    <rate>
        <timebase>23.976</timebase>
        <ntsc>FALSE</ntsc>
    </rate>
    <start>3772</start>
    <end>3783</end>
    <in>4190</in>
    <out>4201</out>
    <file id="file-5"/>
    <sourcetrack>
   <mediatype>audio</mediatype>
   <trackindex>2</trackindex>
</sourcetrack>
    <labels>
        <label2>Iris</label2>
    </labels>
</clipitem>
<clipitem id="a664fe84-e8a7-431e-be27-cca5d65be3a0" premiereChannelType="stereo">
    <masterclipid>masterclip-1</masterclipid>
    <name>S01E45.Jiggles.mkv</name>
    <enabled>TRUE</enabled>
    <duration>17218</duration>
    <rate>
        <timebase>23.976</timebase>
        <ntsc>FALSE</ntsc>
    </rate>
    <start>3783</start>
    <end>3819</end>
    <in>4201</in>
    <out>4237</out>
    <file id="file-5"/>
    <sourcetrack>
   <mediatype>audio</mediatype>
   <trackindex>2</trackindex>
</sourcetrack>
    <labels>
        <label2>Iris</label2>
    </labels>
</clipitem>
<clipitem id="4395cb2c-a4a4-44ff-94be-98d0d7ae3b19" premiereChannelType="stereo">
    <masterclipid>masterclip-1</masterclipid>
    <name>S01E45.Jiggles.mkv</name>
    <enabled>TRUE</enabled>
    <duration>17218</duration>
    <rate>
        <timebase>23.976</timebase>
        <ntsc>FALSE</ntsc>
    </rate>
    <start>3819</start>
    <end>3865</end>
    <in>4237</in>
    <out>4283</out>
    <file id="file-5"/>
    <sourcetrack>
   <mediatype>audio</mediatype>
   <trackindex>2</trackindex>
</sourcetrack>
    <labels>
        <label2>Iris</label2>
    </labels>
</clipitem>
<clipitem id="7ccc26ff-b80f-45ed-a8a3-2dff70a5e7ff" premiereChannelType="stereo">
    <masterclipid>masterclip-1</masterclipid>
    <name>S01E45.Jiggles.mkv</name>
    <enabled>TRUE</enabled>
    <duration>17218</duration>
    <rate>
        <timebase>23.976</timebase>
        <ntsc>FALSE</ntsc>
    </rate>
    <start>3865</start>
    <end>3891</end>
    <in>4283</in>
    <out>4309</out>
    <file id="file-5"/>
    <sourcetrack>
   <mediatype>audio</mediatype>
   <trackindex>2</trackindex>
</sourcetrack>
    <labels>
        <label2>Iris</label2>
    </labels>
</clipitem>
<clipitem id="28df69a5-6514-4687-a477-3530f1a19ded" premiereChannelType="stereo">
    <masterclipid>masterclip-1</masterclipid>
    <name>S01E45.Jiggles.mkv</name>
    <enabled>TRUE</enabled>
    <duration>17218</duration>
    <rate>
        <timebase>23.976</timebase>
        <ntsc>FALSE</ntsc>
    </rate>
    <start>3891</start>
    <end>3932</end>
    <in>4309</in>
    <out>4350</out>
    <file id="file-5"/>
    <sourcetrack>
   <mediatype>audio</mediatype>
   <trackindex>2</trackindex>
</sourcetrack>
    <labels>
        <label2>Iris</label2>
    </labels>
</clipitem>
<clipitem id="4800c589-7123-43ee-b012-c5757700f9a0" premiereChannelType="stereo">
    <masterclipid>masterclip-1</masterclipid>
    <name>S01E45.Jiggles.mkv</name>
    <enabled>TRUE</enabled>
    <duration>17218</duration>
    <rate>
        <timebase>23.976</timebase>
        <ntsc>FALSE</ntsc>
    </rate>
    <start>3932</start>
    <end>3988</end>
    <in>4349</in>
    <out>4405</out>
    <file id="file-5"/>
    <sourcetrack>
   <mediatype>audio</mediatype>
   <trackindex>2</trackindex>
</sourcetrack>
    <labels>
        <label2>Iris</label2>
    </labels>
</clipitem>
<clipitem id="13d03981-d7fb-4316-8286-2e458c9cbc11" premiereChannelType="stereo">
    <masterclipid>masterclip-1</masterclipid>
    <name>S01E45.Jiggles.mkv</name>
    <enabled>TRUE</enabled>
    <duration>17218</duration>
    <rate>
        <timebase>23.976</timebase>
        <ntsc>FALSE</ntsc>
    </rate>
    <start>3988</start>
    <end>4013</end>
    <in>4406</in>
    <out>4431</out>
    <file id="file-5"/>
    <sourcetrack>
   <mediatype>audio</mediatype>
   <trackindex>2</trackindex>
</sourcetrack>
    <labels>
        <label2>Iris</label2>
    </labels>
</clipitem>
<clipitem id="b681f535-36fa-4cbf-94ed-7d29620caeae" premiereChannelType="stereo">
    <masterclipid>masterclip-1</masterclipid>
    <name>S01E45.Jiggles.mkv</name>
    <enabled>TRUE</enabled>
    <duration>17218</duration>
    <rate>
        <timebase>23.976</timebase>
        <ntsc>FALSE</ntsc>
    </rate>
    <start>4013</start>
    <end>4081</end>
    <in>4431</in>
    <out>4499</out>
    <file id="file-5"/>
    <sourcetrack>
   <mediatype>audio</mediatype>
   <trackindex>2</trackindex>
</sourcetrack>
    <labels>
        <label2>Iris</label2>
    </labels>
</clipitem>
<clipitem id="467a1def-a3fb-4056-bd5d-7fe06bb06f64" premiereChannelType="stereo">
    <masterclipid>masterclip-1</masterclipid>
    <name>S01E45.Jiggles.mkv</name>
    <enabled>TRUE</enabled>
    <duration>17218</duration>
    <rate>
        <timebase>23.976</timebase>
        <ntsc>FALSE</ntsc>
    </rate>
    <start>4081</start>
    <end>4184</end>
    <in>4499</in>
    <out>4602</out>
    <file id="file-5"/>
    <sourcetrack>
   <mediatype>audio</mediatype>
   <trackindex>2</trackindex>
</sourcetrack>
    <labels>
        <label2>Iris</label2>
    </labels>
</clipitem>
<clipitem id="b48fa5f4-d55f-4538-9837-9d4e96765e67" premiereChannelType="stereo">
    <masterclipid>masterclip-1</masterclipid>
    <name>S01E45.Jiggles.mkv</name>
    <enabled>TRUE</enabled>
    <duration>17218</duration>
    <rate>
        <timebase>23.976</timebase>
        <ntsc>FALSE</ntsc>
    </rate>
    <start>4184</start>
    <end>4221</end>
    <in>4602</in>
    <out>4639</out>
    <file id="file-5"/>
    <sourcetrack>
   <mediatype>audio</mediatype>
   <trackindex>2</trackindex>
</sourcetrack>
    <labels>
        <label2>Iris</label2>
    </labels>
</clipitem>
<clipitem id="180bf3fd-9832-4d15-8220-b045400dae1e" premiereChannelType="stereo">
    <masterclipid>masterclip-1</masterclipid>
    <name>S01E45.Jiggles.mkv</name>
    <enabled>TRUE</enabled>
    <duration>17218</duration>
    <rate>
        <timebase>23.976</timebase>
        <ntsc>FALSE</ntsc>
    </rate>
    <start>4221</start>
    <end>4233</end>
    <in>4638</in>
    <out>4650</out>
    <file id="file-5"/>
    <sourcetrack>
   <mediatype>audio</mediatype>
   <trackindex>2</trackindex>
</sourcetrack>
    <labels>
        <label2>Iris</label2>
    </labels>
</clipitem>
<clipitem id="fc5c8fa3-0b6b-4b10-8b7b-ebb93162128c" premiereChannelType="stereo">
    <masterclipid>masterclip-1</masterclipid>
    <name>S01E45.Jiggles.mkv</name>
    <enabled>TRUE</enabled>
    <duration>17218</duration>
    <rate>
        <timebase>23.976</timebase>
        <ntsc>FALSE</ntsc>
    </rate>
    <start>4233</start>
    <end>4244</end>
    <in>4651</in>
    <out>4662</out>
    <file id="file-5"/>
    <sourcetrack>
   <mediatype>audio</mediatype>
   <trackindex>2</trackindex>
</sourcetrack>
    <labels>
        <label2>Iris</label2>
    </labels>
</clipitem>
<clipitem id="f9deed6b-d42c-42f8-98d5-65226d72df7c" premiereChannelType="stereo">
    <masterclipid>masterclip-1</masterclipid>
    <name>S01E45.Jiggles.mkv</name>
    <enabled>TRUE</enabled>
    <duration>17218</duration>
    <rate>
        <timebase>23.976</timebase>
        <ntsc>FALSE</ntsc>
    </rate>
    <start>4244</start>
    <end>4267</end>
    <in>4662</in>
    <out>4685</out>
    <file id="file-5"/>
    <sourcetrack>
   <mediatype>audio</mediatype>
   <trackindex>2</trackindex>
</sourcetrack>
    <labels>
        <label2>Iris</label2>
    </labels>
</clipitem>
<clipitem id="bf0cc022-3b74-47b1-a632-1070e5ac2c06" premiereChannelType="stereo">
    <masterclipid>masterclip-1</masterclipid>
    <name>S01E45.Jiggles.mkv</name>
    <enabled>TRUE</enabled>
    <duration>17218</duration>
    <rate>
        <timebase>23.976</timebase>
        <ntsc>FALSE</ntsc>
    </rate>
    <start>4267</start>
    <end>4278</end>
    <in>4685</in>
    <out>4696</out>
    <file id="file-5"/>
    <sourcetrack>
   <mediatype>audio</mediatype>
   <trackindex>2</trackindex>
</sourcetrack>
    <labels>
        <label2>Iris</label2>
    </labels>
</clipitem>
<clipitem id="a4182d92-3616-4476-b289-3dcb309e6d85" premiereChannelType="stereo">
    <masterclipid>masterclip-1</masterclipid>
    <name>S01E45.Jiggles.mkv</name>
    <enabled>TRUE</enabled>
    <duration>17218</duration>
    <rate>
        <timebase>23.976</timebase>
        <ntsc>FALSE</ntsc>
    </rate>
    <start>4278</start>
    <end>4289</end>
    <in>4696</in>
    <out>4707</out>
    <file id="file-5"/>
    <sourcetrack>
   <mediatype>audio</mediatype>
   <trackindex>2</trackindex>
</sourcetrack>
    <labels>
        <label2>Iris</label2>
    </labels>
</clipitem>
<clipitem id="9bd55537-865a-49fb-86de-84fda720bf89" premiereChannelType="stereo">
    <masterclipid>masterclip-1</masterclipid>
    <name>S01E45.Jiggles.mkv</name>
    <enabled>TRUE</enabled>
    <duration>17218</duration>
    <rate>
        <timebase>23.976</timebase>
        <ntsc>FALSE</ntsc>
    </rate>
    <start>4289</start>
    <end>4302</end>
    <in>4707</in>
    <out>4720</out>
    <file id="file-5"/>
    <sourcetrack>
   <mediatype>audio</mediatype>
   <trackindex>2</trackindex>
</sourcetrack>
    <labels>
        <label2>Iris</label2>
    </labels>
</clipitem>
<clipitem id="1dac2114-5e50-4096-9043-aaa87fa0a8e8" premiereChannelType="stereo">
    <masterclipid>masterclip-1</masterclipid>
    <name>S01E45.Jiggles.mkv</name>
    <enabled>TRUE</enabled>
    <duration>17218</duration>
    <rate>
        <timebase>23.976</timebase>
        <ntsc>FALSE</ntsc>
    </rate>
    <start>4302</start>
    <end>4319</end>
    <in>4720</in>
    <out>4737</out>
    <file id="file-5"/>
    <sourcetrack>
   <mediatype>audio</mediatype>
   <trackindex>2</trackindex>
</sourcetrack>
    <labels>
        <label2>Iris</label2>
    </labels>
</clipitem>
<clipitem id="7d077883-ce4e-43a8-9dda-45f3203f3e20" premiereChannelType="stereo">
    <masterclipid>masterclip-1</masterclipid>
    <name>S01E45.Jiggles.mkv</name>
    <enabled>TRUE</enabled>
    <duration>17218</duration>
    <rate>
        <timebase>23.976</timebase>
        <ntsc>FALSE</ntsc>
    </rate>
    <start>4319</start>
    <end>4337</end>
    <in>4737</in>
    <out>4755</out>
    <file id="file-5"/>
    <sourcetrack>
   <mediatype>audio</mediatype>
   <trackindex>2</trackindex>
</sourcetrack>
    <labels>
        <label2>Iris</label2>
    </labels>
</clipitem>
<clipitem id="71781b55-3c0b-4c5f-b31e-de534eb21d7d" premiereChannelType="stereo">
    <masterclipid>masterclip-1</masterclipid>
    <name>S01E45.Jiggles.mkv</name>
    <enabled>TRUE</enabled>
    <duration>17218</duration>
    <rate>
        <timebase>23.976</timebase>
        <ntsc>FALSE</ntsc>
    </rate>
    <start>4337</start>
    <end>4357</end>
    <in>4755</in>
    <out>4775</out>
    <file id="file-5"/>
    <sourcetrack>
   <mediatype>audio</mediatype>
   <trackindex>2</trackindex>
</sourcetrack>
    <labels>
        <label2>Iris</label2>
    </labels>
</clipitem>
<clipitem id="2414f7a9-ce57-485c-aea4-95b8aac36149" premiereChannelType="stereo">
    <masterclipid>masterclip-1</masterclipid>
    <name>S01E45.Jiggles.mkv</name>
    <enabled>TRUE</enabled>
    <duration>17218</duration>
    <rate>
        <timebase>23.976</timebase>
        <ntsc>FALSE</ntsc>
    </rate>
    <start>4357</start>
    <end>4368</end>
    <in>4775</in>
    <out>4786</out>
    <file id="file-5"/>
    <sourcetrack>
   <mediatype>audio</mediatype>
   <trackindex>2</trackindex>
</sourcetrack>
    <labels>
        <label2>Iris</label2>
    </labels>
</clipitem>
<clipitem id="f4c63cf1-4664-4822-a199-ff799b54cba6" premiereChannelType="stereo">
    <masterclipid>masterclip-1</masterclipid>
    <name>S01E45.Jiggles.mkv</name>
    <enabled>TRUE</enabled>
    <duration>17218</duration>
    <rate>
        <timebase>23.976</timebase>
        <ntsc>FALSE</ntsc>
    </rate>
    <start>4368</start>
    <end>4381</end>
    <in>4786</in>
    <out>4799</out>
    <file id="file-5"/>
    <sourcetrack>
   <mediatype>audio</mediatype>
   <trackindex>2</trackindex>
</sourcetrack>
    <labels>
        <label2>Iris</label2>
    </labels>
</clipitem>
<clipitem id="6619471b-0be0-4eec-829a-4d2bc68c7efe" premiereChannelType="stereo">
    <masterclipid>masterclip-1</masterclipid>
    <name>S01E45.Jiggles.mkv</name>
    <enabled>TRUE</enabled>
    <duration>17218</duration>
    <rate>
        <timebase>23.976</timebase>
        <ntsc>FALSE</ntsc>
    </rate>
    <start>4381</start>
    <end>4429</end>
    <in>4799</in>
    <out>4847</out>
    <file id="file-5"/>
    <sourcetrack>
   <mediatype>audio</mediatype>
   <trackindex>2</trackindex>
</sourcetrack>
    <labels>
        <label2>Iris</label2>
    </labels>
</clipitem>
<clipitem id="9defbb75-5c75-458c-86b1-b7ebfe459c45" premiereChannelType="stereo">
    <masterclipid>masterclip-1</masterclipid>
    <name>S01E45.Jiggles.mkv</name>
    <enabled>TRUE</enabled>
    <duration>17218</duration>
    <rate>
        <timebase>23.976</timebase>
        <ntsc>FALSE</ntsc>
    </rate>
    <start>4429</start>
    <end>4445</end>
    <in>4847</in>
    <out>4863</out>
    <file id="file-5"/>
    <sourcetrack>
   <mediatype>audio</mediatype>
   <trackindex>2</trackindex>
</sourcetrack>
    <labels>
        <label2>Iris</label2>
    </labels>
</clipitem>
<clipitem id="4e1fb268-237d-4864-8004-81faf16d5da6" premiereChannelType="stereo">
    <masterclipid>masterclip-1</masterclipid>
    <name>S01E45.Jiggles.mkv</name>
    <enabled>TRUE</enabled>
    <duration>17218</duration>
    <rate>
        <timebase>23.976</timebase>
        <ntsc>FALSE</ntsc>
    </rate>
    <start>4445</start>
    <end>4456</end>
    <in>4863</in>
    <out>4874</out>
    <file id="file-5"/>
    <sourcetrack>
   <mediatype>audio</mediatype>
   <trackindex>2</trackindex>
</sourcetrack>
    <labels>
        <label2>Iris</label2>
    </labels>
</clipitem>
<clipitem id="d539a3eb-7ae6-4958-af2a-866bf2cec36b" premiereChannelType="stereo">
    <masterclipid>masterclip-1</masterclipid>
    <name>S01E45.Jiggles.mkv</name>
    <enabled>TRUE</enabled>
    <duration>17218</duration>
    <rate>
        <timebase>23.976</timebase>
        <ntsc>FALSE</ntsc>
    </rate>
    <start>4456</start>
    <end>4468</end>
    <in>4874</in>
    <out>4886</out>
    <file id="file-5"/>
    <sourcetrack>
   <mediatype>audio</mediatype>
   <trackindex>2</trackindex>
</sourcetrack>
    <labels>
        <label2>Iris</label2>
    </labels>
</clipitem>
<clipitem id="7e872803-a469-4c46-8c27-a52f7ab1737f" premiereChannelType="stereo">
    <masterclipid>masterclip-1</masterclipid>
    <name>S01E45.Jiggles.mkv</name>
    <enabled>TRUE</enabled>
    <duration>17218</duration>
    <rate>
        <timebase>23.976</timebase>
        <ntsc>FALSE</ntsc>
    </rate>
    <start>4468</start>
    <end>4480</end>
    <in>4886</in>
    <out>4898</out>
    <file id="file-5"/>
    <sourcetrack>
   <mediatype>audio</mediatype>
   <trackindex>2</trackindex>
</sourcetrack>
    <labels>
        <label2>Iris</label2>
    </labels>
</clipitem>
<clipitem id="727e8199-7e63-4441-976e-f00ad3dd2838" premiereChannelType="stereo">
    <masterclipid>masterclip-1</masterclipid>
    <name>S01E45.Jiggles.mkv</name>
    <enabled>TRUE</enabled>
    <duration>17218</duration>
    <rate>
        <timebase>23.976</timebase>
        <ntsc>FALSE</ntsc>
    </rate>
    <start>4480</start>
    <end>4491</end>
    <in>4904</in>
    <out>4915</out>
    <file id="file-5"/>
    <sourcetrack>
   <mediatype>audio</mediatype>
   <trackindex>2</trackindex>
</sourcetrack>
    <labels>
        <label2>Iris</label2>
    </labels>
</clipitem>
<clipitem id="b42ac7a1-cc25-49bb-8ddf-1ff023caa513" premiereChannelType="stereo">
    <masterclipid>masterclip-1</masterclipid>
    <name>S01E45.Jiggles.mkv</name>
    <enabled>TRUE</enabled>
    <duration>17218</duration>
    <rate>
        <timebase>23.976</timebase>
        <ntsc>FALSE</ntsc>
    </rate>
    <start>4491</start>
    <end>4563</end>
    <in>4909</in>
    <out>4981</out>
    <file id="file-5"/>
    <sourcetrack>
   <mediatype>audio</mediatype>
   <trackindex>2</trackindex>
</sourcetrack>
    <labels>
        <label2>Iris</label2>
    </labels>
</clipitem>
<clipitem id="47640473-d63d-459c-9b80-176764d7b536" premiereChannelType="stereo">
    <masterclipid>masterclip-1</masterclipid>
    <name>S01E45.Jiggles.mkv</name>
    <enabled>TRUE</enabled>
    <duration>17218</duration>
    <rate>
        <timebase>23.976</timebase>
        <ntsc>FALSE</ntsc>
    </rate>
    <start>4563</start>
    <end>4575</end>
    <in>4981</in>
    <out>4993</out>
    <file id="file-5"/>
    <sourcetrack>
   <mediatype>audio</mediatype>
   <trackindex>2</trackindex>
</sourcetrack>
    <labels>
        <label2>Iris</label2>
    </labels>
</clipitem>
<clipitem id="6f88dfb6-7348-4eb1-a08c-55c7f13d5fc7" premiereChannelType="stereo">
    <masterclipid>masterclip-1</masterclipid>
    <name>S01E45.Jiggles.mkv</name>
    <enabled>TRUE</enabled>
    <duration>17218</duration>
    <rate>
        <timebase>23.976</timebase>
        <ntsc>FALSE</ntsc>
    </rate>
    <start>4575</start>
    <end>4587</end>
    <in>4993</in>
    <out>5005</out>
    <file id="file-5"/>
    <sourcetrack>
   <mediatype>audio</mediatype>
   <trackindex>2</trackindex>
</sourcetrack>
    <labels>
        <label2>Iris</label2>
    </labels>
</clipitem>
<clipitem id="4dac495d-0106-4732-9e7d-1f3fbe25e513" premiereChannelType="stereo">
    <masterclipid>masterclip-1</masterclipid>
    <name>S01E45.Jiggles.mkv</name>
    <enabled>TRUE</enabled>
    <duration>17218</duration>
    <rate>
        <timebase>23.976</timebase>
        <ntsc>FALSE</ntsc>
    </rate>
    <start>4587</start>
    <end>4607</end>
    <in>5005</in>
    <out>5025</out>
    <file id="file-5"/>
    <sourcetrack>
   <mediatype>audio</mediatype>
   <trackindex>2</trackindex>
</sourcetrack>
    <labels>
        <label2>Iris</label2>
    </labels>
</clipitem>
<clipitem id="0179c76f-e811-4a72-af08-636c2f84a1f2" premiereChannelType="stereo">
    <masterclipid>masterclip-1</masterclipid>
    <name>S01E45.Jiggles.mkv</name>
    <enabled>TRUE</enabled>
    <duration>17218</duration>
    <rate>
        <timebase>23.976</timebase>
        <ntsc>FALSE</ntsc>
    </rate>
    <start>4607</start>
    <end>4639</end>
    <in>5025</in>
    <out>5057</out>
    <file id="file-5"/>
    <sourcetrack>
   <mediatype>audio</mediatype>
   <trackindex>2</trackindex>
</sourcetrack>
    <labels>
        <label2>Iris</label2>
    </labels>
</clipitem>
<clipitem id="f31dad1c-6f27-457b-95c5-3238c5bf167d" premiereChannelType="stereo">
    <masterclipid>masterclip-1</masterclipid>
    <name>S01E45.Jiggles.mkv</name>
    <enabled>TRUE</enabled>
    <duration>17218</duration>
    <rate>
        <timebase>23.976</timebase>
        <ntsc>FALSE</ntsc>
    </rate>
    <start>4639</start>
    <end>4650</end>
    <in>5057</in>
    <out>5068</out>
    <file id="file-5"/>
    <sourcetrack>
   <mediatype>audio</mediatype>
   <trackindex>2</trackindex>
</sourcetrack>
    <labels>
        <label2>Iris</label2>
    </labels>
</clipitem>
<clipitem id="e888a81b-4f91-4d4d-a5dc-08a5bff0db12" premiereChannelType="stereo">
    <masterclipid>masterclip-1</masterclipid>
    <name>S01E45.Jiggles.mkv</name>
    <enabled>TRUE</enabled>
    <duration>17218</duration>
    <rate>
        <timebase>23.976</timebase>
        <ntsc>FALSE</ntsc>
    </rate>
    <start>4650</start>
    <end>4673</end>
    <in>5068</in>
    <out>5091</out>
    <file id="file-5"/>
    <sourcetrack>
   <mediatype>audio</mediatype>
   <trackindex>2</trackindex>
</sourcetrack>
    <labels>
        <label2>Iris</label2>
    </labels>
</clipitem>
<clipitem id="f407a856-f29e-4426-8eb8-0402433794c9" premiereChannelType="stereo">
    <masterclipid>masterclip-1</masterclipid>
    <name>S01E45.Jiggles.mkv</name>
    <enabled>TRUE</enabled>
    <duration>17218</duration>
    <rate>
        <timebase>23.976</timebase>
        <ntsc>FALSE</ntsc>
    </rate>
    <start>4673</start>
    <end>4703</end>
    <in>5096</in>
    <out>5126</out>
    <file id="file-5"/>
    <sourcetrack>
   <mediatype>audio</mediatype>
   <trackindex>2</trackindex>
</sourcetrack>
    <labels>
        <label2>Iris</label2>
    </labels>
</clipitem>
<clipitem id="92b2d8c2-a872-451b-a669-a7ba0afab8b3" premiereChannelType="stereo">
    <masterclipid>masterclip-1</masterclipid>
    <name>S01E45.Jiggles.mkv</name>
    <enabled>TRUE</enabled>
    <duration>17218</duration>
    <rate>
        <timebase>23.976</timebase>
        <ntsc>FALSE</ntsc>
    </rate>
    <start>4703</start>
    <end>4772</end>
    <in>5117</in>
    <out>5186</out>
    <file id="file-5"/>
    <sourcetrack>
   <mediatype>audio</mediatype>
   <trackindex>2</trackindex>
</sourcetrack>
    <labels>
        <label2>Iris</label2>
    </labels>
</clipitem>
<clipitem id="ef65acfc-8ff4-4784-ab4c-9b1789dbdd66" premiereChannelType="stereo">
    <masterclipid>masterclip-1</masterclipid>
    <name>S01E45.Jiggles.mkv</name>
    <enabled>TRUE</enabled>
    <duration>17218</duration>
    <rate>
        <timebase>23.976</timebase>
        <ntsc>FALSE</ntsc>
    </rate>
    <start>4772</start>
    <end>4787</end>
    <in>5189</in>
    <out>5204</out>
    <file id="file-5"/>
    <sourcetrack>
   <mediatype>audio</mediatype>
   <trackindex>2</trackindex>
</sourcetrack>
    <labels>
        <label2>Iris</label2>
    </labels>
</clipitem>
<clipitem id="339568af-102a-45ce-b480-446867286915" premiereChannelType="stereo">
    <masterclipid>masterclip-1</masterclipid>
    <name>S01E45.Jiggles.mkv</name>
    <enabled>TRUE</enabled>
    <duration>17218</duration>
    <rate>
        <timebase>23.976</timebase>
        <ntsc>FALSE</ntsc>
    </rate>
    <start>4787</start>
    <end>4805</end>
    <in>5205</in>
    <out>5223</out>
    <file id="file-5"/>
    <sourcetrack>
   <mediatype>audio</mediatype>
   <trackindex>2</trackindex>
</sourcetrack>
    <labels>
        <label2>Iris</label2>
    </labels>
</clipitem>
<clipitem id="f40232a4-a4e8-4c06-8a89-d6e6bb03170e" premiereChannelType="stereo">
    <masterclipid>masterclip-1</masterclipid>
    <name>S01E45.Jiggles.mkv</name>
    <enabled>TRUE</enabled>
    <duration>17218</duration>
    <rate>
        <timebase>23.976</timebase>
        <ntsc>FALSE</ntsc>
    </rate>
    <start>4805</start>
    <end>4842</end>
    <in>5223</in>
    <out>5260</out>
    <file id="file-5"/>
    <sourcetrack>
   <mediatype>audio</mediatype>
   <trackindex>2</trackindex>
</sourcetrack>
    <labels>
        <label2>Iris</label2>
    </labels>
</clipitem>
<clipitem id="20ea6577-251f-4e0b-9b19-0805e81567ae" premiereChannelType="stereo">
    <masterclipid>masterclip-1</masterclipid>
    <name>S01E45.Jiggles.mkv</name>
    <enabled>TRUE</enabled>
    <duration>17218</duration>
    <rate>
        <timebase>23.976</timebase>
        <ntsc>FALSE</ntsc>
    </rate>
    <start>4842</start>
    <end>4856</end>
    <in>5259</in>
    <out>5273</out>
    <file id="file-5"/>
    <sourcetrack>
   <mediatype>audio</mediatype>
   <trackindex>2</trackindex>
</sourcetrack>
    <labels>
        <label2>Iris</label2>
    </labels>
</clipitem>
<clipitem id="3f057d07-c5d5-48ab-a587-76d979257d28" premiereChannelType="stereo">
    <masterclipid>masterclip-1</masterclipid>
    <name>S01E45.Jiggles.mkv</name>
    <enabled>TRUE</enabled>
    <duration>17218</duration>
    <rate>
        <timebase>23.976</timebase>
        <ntsc>FALSE</ntsc>
    </rate>
    <start>4856</start>
    <end>4888</end>
    <in>5274</in>
    <out>5306</out>
    <file id="file-5"/>
    <sourcetrack>
   <mediatype>audio</mediatype>
   <trackindex>2</trackindex>
</sourcetrack>
    <labels>
        <label2>Iris</label2>
    </labels>
</clipitem>
<clipitem id="8048e19c-6e00-41c5-92be-9e5c6a5a3177" premiereChannelType="stereo">
    <masterclipid>masterclip-1</masterclipid>
    <name>S01E45.Jiggles.mkv</name>
    <enabled>TRUE</enabled>
    <duration>17218</duration>
    <rate>
        <timebase>23.976</timebase>
        <ntsc>FALSE</ntsc>
    </rate>
    <start>4888</start>
    <end>4919</end>
    <in>5306</in>
    <out>5337</out>
    <file id="file-5"/>
    <sourcetrack>
   <mediatype>audio</mediatype>
   <trackindex>2</trackindex>
</sourcetrack>
    <labels>
        <label2>Iris</label2>
    </labels>
</clipitem>
<clipitem id="dbd9b297-cc59-4851-97e1-1d6a8bb568a9" premiereChannelType="stereo">
    <masterclipid>masterclip-1</masterclipid>
    <name>S01E45.Jiggles.mkv</name>
    <enabled>TRUE</enabled>
    <duration>17218</duration>
    <rate>
        <timebase>23.976</timebase>
        <ntsc>FALSE</ntsc>
    </rate>
    <start>4919</start>
    <end>4935</end>
    <in>5337</in>
    <out>5353</out>
    <file id="file-5"/>
    <sourcetrack>
   <mediatype>audio</mediatype>
   <trackindex>2</trackindex>
</sourcetrack>
    <labels>
        <label2>Iris</label2>
    </labels>
</clipitem>
<clipitem id="758756e5-821a-422e-b6ae-1b20826a4744" premiereChannelType="stereo">
    <masterclipid>masterclip-1</masterclipid>
    <name>S01E45.Jiggles.mkv</name>
    <enabled>TRUE</enabled>
    <duration>17218</duration>
    <rate>
        <timebase>23.976</timebase>
        <ntsc>FALSE</ntsc>
    </rate>
    <start>4935</start>
    <end>4965</end>
    <in>5353</in>
    <out>5383</out>
    <file id="file-5"/>
    <sourcetrack>
   <mediatype>audio</mediatype>
   <trackindex>2</trackindex>
</sourcetrack>
    <labels>
        <label2>Iris</label2>
    </labels>
</clipitem>
<clipitem id="a6f4e88a-9f4b-414a-bac9-540982bc6e95" premiereChannelType="stereo">
    <masterclipid>masterclip-1</masterclipid>
    <name>S01E45.Jiggles.mkv</name>
    <enabled>TRUE</enabled>
    <duration>17218</duration>
    <rate>
        <timebase>23.976</timebase>
        <ntsc>FALSE</ntsc>
    </rate>
    <start>4965</start>
    <end>5008</end>
    <in>5383</in>
    <out>5426</out>
    <file id="file-5"/>
    <sourcetrack>
   <mediatype>audio</mediatype>
   <trackindex>2</trackindex>
</sourcetrack>
    <labels>
        <label2>Iris</label2>
    </labels>
</clipitem>
<clipitem id="59395624-1d93-4459-a90e-4e0aca24a494" premiereChannelType="stereo">
    <masterclipid>masterclip-1</masterclipid>
    <name>S01E45.Jiggles.mkv</name>
    <enabled>TRUE</enabled>
    <duration>17218</duration>
    <rate>
        <timebase>23.976</timebase>
        <ntsc>FALSE</ntsc>
    </rate>
    <start>5008</start>
    <end>5027</end>
    <in>5426</in>
    <out>5445</out>
    <file id="file-5"/>
    <sourcetrack>
   <mediatype>audio</mediatype>
   <trackindex>2</trackindex>
</sourcetrack>
    <labels>
        <label2>Iris</label2>
    </labels>
</clipitem>
<clipitem id="96084394-c4eb-4362-a3f4-2ea46197d093" premiereChannelType="stereo">
    <masterclipid>masterclip-1</masterclipid>
    <name>S01E45.Jiggles.mkv</name>
    <enabled>TRUE</enabled>
    <duration>17218</duration>
    <rate>
        <timebase>23.976</timebase>
        <ntsc>FALSE</ntsc>
    </rate>
    <start>5027</start>
    <end>5069</end>
    <in>5445</in>
    <out>5487</out>
    <file id="file-5"/>
    <sourcetrack>
   <mediatype>audio</mediatype>
   <trackindex>2</trackindex>
</sourcetrack>
    <labels>
        <label2>Iris</label2>
    </labels>
</clipitem>
<clipitem id="312eb55b-4988-43bd-8238-2ab4fde080db" premiereChannelType="stereo">
    <masterclipid>masterclip-1</masterclipid>
    <name>S01E45.Jiggles.mkv</name>
    <enabled>TRUE</enabled>
    <duration>17218</duration>
    <rate>
        <timebase>23.976</timebase>
        <ntsc>FALSE</ntsc>
    </rate>
    <start>5069</start>
    <end>5080</end>
    <in>5487</in>
    <out>5498</out>
    <file id="file-5"/>
    <sourcetrack>
   <mediatype>audio</mediatype>
   <trackindex>2</trackindex>
</sourcetrack>
    <labels>
        <label2>Iris</label2>
    </labels>
</clipitem>
<clipitem id="7114f3d9-b65e-42f1-872b-b553df3c1aa2" premiereChannelType="stereo">
    <masterclipid>masterclip-1</masterclipid>
    <name>S01E45.Jiggles.mkv</name>
    <enabled>TRUE</enabled>
    <duration>17218</duration>
    <rate>
        <timebase>23.976</timebase>
        <ntsc>FALSE</ntsc>
    </rate>
    <start>5080</start>
    <end>5095</end>
    <in>5498</in>
    <out>5513</out>
    <file id="file-5"/>
    <sourcetrack>
   <mediatype>audio</mediatype>
   <trackindex>2</trackindex>
</sourcetrack>
    <labels>
        <label2>Iris</label2>
    </labels>
</clipitem>
<clipitem id="937e9705-9b66-4748-8028-beebbdf6ace7" premiereChannelType="stereo">
    <masterclipid>masterclip-1</masterclipid>
    <name>S01E45.Jiggles.mkv</name>
    <enabled>TRUE</enabled>
    <duration>17218</duration>
    <rate>
        <timebase>23.976</timebase>
        <ntsc>FALSE</ntsc>
    </rate>
    <start>5095</start>
    <end>5111</end>
    <in>5513</in>
    <out>5529</out>
    <file id="file-5"/>
    <sourcetrack>
   <mediatype>audio</mediatype>
   <trackindex>2</trackindex>
</sourcetrack>
    <labels>
        <label2>Iris</label2>
    </labels>
</clipitem>
<clipitem id="2192b0db-e9de-4101-a56c-3e85a33411c0" premiereChannelType="stereo">
    <masterclipid>masterclip-1</masterclipid>
    <name>S01E45.Jiggles.mkv</name>
    <enabled>TRUE</enabled>
    <duration>17218</duration>
    <rate>
        <timebase>23.976</timebase>
        <ntsc>FALSE</ntsc>
    </rate>
    <start>5111</start>
    <end>5122</end>
    <in>5529</in>
    <out>5540</out>
    <file id="file-5"/>
    <sourcetrack>
   <mediatype>audio</mediatype>
   <trackindex>2</trackindex>
</sourcetrack>
    <labels>
        <label2>Iris</label2>
    </labels>
</clipitem>
<clipitem id="836874b7-ae33-49b7-b122-dfb438fcb210" premiereChannelType="stereo">
    <masterclipid>masterclip-1</masterclipid>
    <name>S01E45.Jiggles.mkv</name>
    <enabled>TRUE</enabled>
    <duration>17218</duration>
    <rate>
        <timebase>23.976</timebase>
        <ntsc>FALSE</ntsc>
    </rate>
    <start>5122</start>
    <end>5134</end>
    <in>5539</in>
    <out>5551</out>
    <file id="file-5"/>
    <sourcetrack>
   <mediatype>audio</mediatype>
   <trackindex>2</trackindex>
</sourcetrack>
    <labels>
        <label2>Iris</label2>
    </labels>
</clipitem>
<clipitem id="d0933f51-af47-4579-a6b0-79fbf77d8247" premiereChannelType="stereo">
    <masterclipid>masterclip-1</masterclipid>
    <name>S01E45.Jiggles.mkv</name>
    <enabled>TRUE</enabled>
    <duration>17218</duration>
    <rate>
        <timebase>23.976</timebase>
        <ntsc>FALSE</ntsc>
    </rate>
    <start>5134</start>
    <end>5145</end>
    <in>5552</in>
    <out>5563</out>
    <file id="file-5"/>
    <sourcetrack>
   <mediatype>audio</mediatype>
   <trackindex>2</trackindex>
</sourcetrack>
    <labels>
        <label2>Iris</label2>
    </labels>
</clipitem>
<clipitem id="80ad89b7-2a82-4a7b-b9de-983afeaa1e20" premiereChannelType="stereo">
    <masterclipid>masterclip-1</masterclipid>
    <name>S01E45.Jiggles.mkv</name>
    <enabled>TRUE</enabled>
    <duration>17218</duration>
    <rate>
        <timebase>23.976</timebase>
        <ntsc>FALSE</ntsc>
    </rate>
    <start>5145</start>
    <end>5156</end>
    <in>5563</in>
    <out>5574</out>
    <file id="file-5"/>
    <sourcetrack>
   <mediatype>audio</mediatype>
   <trackindex>2</trackindex>
</sourcetrack>
    <labels>
        <label2>Iris</label2>
    </labels>
</clipitem>
<clipitem id="97a1b349-a9e6-4203-8f74-717d50ae0ae0" premiereChannelType="stereo">
    <masterclipid>masterclip-1</masterclipid>
    <name>S01E45.Jiggles.mkv</name>
    <enabled>TRUE</enabled>
    <duration>17218</duration>
    <rate>
        <timebase>23.976</timebase>
        <ntsc>FALSE</ntsc>
    </rate>
    <start>5156</start>
    <end>5167</end>
    <in>5574</in>
    <out>5585</out>
    <file id="file-5"/>
    <sourcetrack>
   <mediatype>audio</mediatype>
   <trackindex>2</trackindex>
</sourcetrack>
    <labels>
        <label2>Iris</label2>
    </labels>
</clipitem>
<clipitem id="bd2ac2a2-2a82-497f-872d-ca0c969bed09" premiereChannelType="stereo">
    <masterclipid>masterclip-1</masterclipid>
    <name>S01E45.Jiggles.mkv</name>
    <enabled>TRUE</enabled>
    <duration>17218</duration>
    <rate>
        <timebase>23.976</timebase>
        <ntsc>FALSE</ntsc>
    </rate>
    <start>5167</start>
    <end>5178</end>
    <in>5585</in>
    <out>5596</out>
    <file id="file-5"/>
    <sourcetrack>
   <mediatype>audio</mediatype>
   <trackindex>2</trackindex>
</sourcetrack>
    <labels>
        <label2>Iris</label2>
    </labels>
</clipitem>
<clipitem id="c0d8764f-86be-44a9-b233-970357a812e7" premiereChannelType="stereo">
    <masterclipid>masterclip-1</masterclipid>
    <name>S01E45.Jiggles.mkv</name>
    <enabled>TRUE</enabled>
    <duration>17218</duration>
    <rate>
        <timebase>23.976</timebase>
        <ntsc>FALSE</ntsc>
    </rate>
    <start>5178</start>
    <end>5193</end>
    <in>5596</in>
    <out>5611</out>
    <file id="file-5"/>
    <sourcetrack>
   <mediatype>audio</mediatype>
   <trackindex>2</trackindex>
</sourcetrack>
    <labels>
        <label2>Iris</label2>
    </labels>
</clipitem>
<clipitem id="639064cb-084f-432e-9527-2443c5e99199" premiereChannelType="stereo">
    <masterclipid>masterclip-1</masterclipid>
    <name>S01E45.Jiggles.mkv</name>
    <enabled>TRUE</enabled>
    <duration>17218</duration>
    <rate>
        <timebase>23.976</timebase>
        <ntsc>FALSE</ntsc>
    </rate>
    <start>5193</start>
    <end>5207</end>
    <in>5611</in>
    <out>5625</out>
    <file id="file-5"/>
    <sourcetrack>
   <mediatype>audio</mediatype>
   <trackindex>2</trackindex>
</sourcetrack>
    <labels>
        <label2>Iris</label2>
    </labels>
</clipitem>
<clipitem id="c835a661-570e-4f2a-b28c-86f5431c0df0" premiereChannelType="stereo">
    <masterclipid>masterclip-1</masterclipid>
    <name>S01E45.Jiggles.mkv</name>
    <enabled>TRUE</enabled>
    <duration>17218</duration>
    <rate>
        <timebase>23.976</timebase>
        <ntsc>FALSE</ntsc>
    </rate>
    <start>5207</start>
    <end>5222</end>
    <in>5625</in>
    <out>5640</out>
    <file id="file-5"/>
    <sourcetrack>
   <mediatype>audio</mediatype>
   <trackindex>2</trackindex>
</sourcetrack>
    <labels>
        <label2>Iris</label2>
    </labels>
</clipitem>
<clipitem id="b38fd19a-7a84-4932-8f1b-132aae4a9c50" premiereChannelType="stereo">
    <masterclipid>masterclip-1</masterclipid>
    <name>S01E45.Jiggles.mkv</name>
    <enabled>TRUE</enabled>
    <duration>17218</duration>
    <rate>
        <timebase>23.976</timebase>
        <ntsc>FALSE</ntsc>
    </rate>
    <start>5222</start>
    <end>5234</end>
    <in>5640</in>
    <out>5652</out>
    <file id="file-5"/>
    <sourcetrack>
   <mediatype>audio</mediatype>
   <trackindex>2</trackindex>
</sourcetrack>
    <labels>
        <label2>Iris</label2>
    </labels>
</clipitem>
<clipitem id="794f067d-3d1f-4900-aa14-6cd9c9a7f067" premiereChannelType="stereo">
    <masterclipid>masterclip-1</masterclipid>
    <name>S01E45.Jiggles.mkv</name>
    <enabled>TRUE</enabled>
    <duration>17218</duration>
    <rate>
        <timebase>23.976</timebase>
        <ntsc>FALSE</ntsc>
    </rate>
    <start>5234</start>
    <end>5246</end>
    <in>5652</in>
    <out>5664</out>
    <file id="file-5"/>
    <sourcetrack>
   <mediatype>audio</mediatype>
   <trackindex>2</trackindex>
</sourcetrack>
    <labels>
        <label2>Iris</label2>
    </labels>
</clipitem>
<clipitem id="22e34780-715c-400f-8292-334a03e78aee" premiereChannelType="stereo">
    <masterclipid>masterclip-1</masterclipid>
    <name>S01E45.Jiggles.mkv</name>
    <enabled>TRUE</enabled>
    <duration>17218</duration>
    <rate>
        <timebase>23.976</timebase>
        <ntsc>FALSE</ntsc>
    </rate>
    <start>5246</start>
    <end>5258</end>
    <in>5664</in>
    <out>5676</out>
    <file id="file-5"/>
    <sourcetrack>
   <mediatype>audio</mediatype>
   <trackindex>2</trackindex>
</sourcetrack>
    <labels>
        <label2>Iris</label2>
    </labels>
</clipitem>
<clipitem id="7726d0f8-562b-4769-b91e-4a792d428ac7" premiereChannelType="stereo">
    <masterclipid>masterclip-1</masterclipid>
    <name>S01E45.Jiggles.mkv</name>
    <enabled>TRUE</enabled>
    <duration>17218</duration>
    <rate>
        <timebase>23.976</timebase>
        <ntsc>FALSE</ntsc>
    </rate>
    <start>5258</start>
    <end>5322</end>
    <in>5676</in>
    <out>5740</out>
    <file id="file-5"/>
    <sourcetrack>
   <mediatype>audio</mediatype>
   <trackindex>2</trackindex>
</sourcetrack>
    <labels>
        <label2>Iris</label2>
    </labels>
</clipitem>
<clipitem id="3002a3a6-79a1-4687-ae61-ca42b32e13a2" premiereChannelType="stereo">
    <masterclipid>masterclip-1</masterclipid>
    <name>S01E45.Jiggles.mkv</name>
    <enabled>TRUE</enabled>
    <duration>17218</duration>
    <rate>
        <timebase>23.976</timebase>
        <ntsc>FALSE</ntsc>
    </rate>
    <start>5322</start>
    <end>5333</end>
    <in>5740</in>
    <out>5751</out>
    <file id="file-5"/>
    <sourcetrack>
   <mediatype>audio</mediatype>
   <trackindex>2</trackindex>
</sourcetrack>
    <labels>
        <label2>Iris</label2>
    </labels>
</clipitem>
<clipitem id="2346ed73-cf35-43ad-b208-dcf88164a977" premiereChannelType="stereo">
    <masterclipid>masterclip-1</masterclipid>
    <name>S01E45.Jiggles.mkv</name>
    <enabled>TRUE</enabled>
    <duration>17218</duration>
    <rate>
        <timebase>23.976</timebase>
        <ntsc>FALSE</ntsc>
    </rate>
    <start>5333</start>
    <end>5344</end>
    <in>5751</in>
    <out>5762</out>
    <file id="file-5"/>
    <sourcetrack>
   <mediatype>audio</mediatype>
   <trackindex>2</trackindex>
</sourcetrack>
    <labels>
        <label2>Iris</label2>
    </labels>
</clipitem>
<clipitem id="ceb00598-3902-44c8-9308-75db25fbdbee" premiereChannelType="stereo">
    <masterclipid>masterclip-1</masterclipid>
    <name>S01E45.Jiggles.mkv</name>
    <enabled>TRUE</enabled>
    <duration>17218</duration>
    <rate>
        <timebase>23.976</timebase>
        <ntsc>FALSE</ntsc>
    </rate>
    <start>5344</start>
    <end>5355</end>
    <in>5762</in>
    <out>5773</out>
    <file id="file-5"/>
    <sourcetrack>
   <mediatype>audio</mediatype>
   <trackindex>2</trackindex>
</sourcetrack>
    <labels>
        <label2>Iris</label2>
    </labels>
</clipitem>
<clipitem id="d68b6abc-e681-4c63-897c-04868585b85a" premiereChannelType="stereo">
    <masterclipid>masterclip-1</masterclipid>
    <name>S01E45.Jiggles.mkv</name>
    <enabled>TRUE</enabled>
    <duration>17218</duration>
    <rate>
        <timebase>23.976</timebase>
        <ntsc>FALSE</ntsc>
    </rate>
    <start>5355</start>
    <end>5376</end>
    <in>5773</in>
    <out>5794</out>
    <file id="file-5"/>
    <sourcetrack>
   <mediatype>audio</mediatype>
   <trackindex>2</trackindex>
</sourcetrack>
    <labels>
        <label2>Iris</label2>
    </labels>
</clipitem>
<clipitem id="c73f2ab6-eeb7-4cf3-a94d-c8f7186e5512" premiereChannelType="stereo">
    <masterclipid>masterclip-1</masterclipid>
    <name>S01E45.Jiggles.mkv</name>
    <enabled>TRUE</enabled>
    <duration>17218</duration>
    <rate>
        <timebase>23.976</timebase>
        <ntsc>FALSE</ntsc>
    </rate>
    <start>5376</start>
    <end>5405</end>
    <in>5794</in>
    <out>5823</out>
    <file id="file-5"/>
    <sourcetrack>
   <mediatype>audio</mediatype>
   <trackindex>2</trackindex>
</sourcetrack>
    <labels>
        <label2>Iris</label2>
    </labels>
</clipitem>
<clipitem id="879400d6-290f-41cf-a2f9-970a0309787e" premiereChannelType="stereo">
    <masterclipid>masterclip-1</masterclipid>
    <name>S01E45.Jiggles.mkv</name>
    <enabled>TRUE</enabled>
    <duration>17218</duration>
    <rate>
        <timebase>23.976</timebase>
        <ntsc>FALSE</ntsc>
    </rate>
    <start>5405</start>
    <end>5416</end>
    <in>5823</in>
    <out>5834</out>
    <file id="file-5"/>
    <sourcetrack>
   <mediatype>audio</mediatype>
   <trackindex>2</trackindex>
</sourcetrack>
    <labels>
        <label2>Iris</label2>
    </labels>
</clipitem>
<clipitem id="72f963a2-7cff-4e31-bb7f-3982fa3b1bca" premiereChannelType="stereo">
    <masterclipid>masterclip-1</masterclipid>
    <name>S01E45.Jiggles.mkv</name>
    <enabled>TRUE</enabled>
    <duration>17218</duration>
    <rate>
        <timebase>23.976</timebase>
        <ntsc>FALSE</ntsc>
    </rate>
    <start>5416</start>
    <end>5439</end>
    <in>5834</in>
    <out>5857</out>
    <file id="file-5"/>
    <sourcetrack>
   <mediatype>audio</mediatype>
   <trackindex>2</trackindex>
</sourcetrack>
    <labels>
        <label2>Iris</label2>
    </labels>
</clipitem>
<clipitem id="80918442-dc5f-4cd6-9ce5-ff8f0889f340" premiereChannelType="stereo">
    <masterclipid>masterclip-1</masterclipid>
    <name>S01E45.Jiggles.mkv</name>
    <enabled>TRUE</enabled>
    <duration>17218</duration>
    <rate>
        <timebase>23.976</timebase>
        <ntsc>FALSE</ntsc>
    </rate>
    <start>5439</start>
    <end>5468</end>
    <in>5857</in>
    <out>5886</out>
    <file id="file-5"/>
    <sourcetrack>
   <mediatype>audio</mediatype>
   <trackindex>2</trackindex>
</sourcetrack>
    <labels>
        <label2>Iris</label2>
    </labels>
</clipitem>
<clipitem id="49865473-da62-40da-9455-ee7d1b826bf5" premiereChannelType="stereo">
    <masterclipid>masterclip-1</masterclipid>
    <name>S01E45.Jiggles.mkv</name>
    <enabled>TRUE</enabled>
    <duration>17218</duration>
    <rate>
        <timebase>23.976</timebase>
        <ntsc>FALSE</ntsc>
    </rate>
    <start>5468</start>
    <end>5495</end>
    <in>5886</in>
    <out>5913</out>
    <file id="file-5"/>
    <sourcetrack>
   <mediatype>audio</mediatype>
   <trackindex>2</trackindex>
</sourcetrack>
    <labels>
        <label2>Iris</label2>
    </labels>
</clipitem>
<clipitem id="c4f622a7-fd34-4ffd-9966-6428ee84888c" premiereChannelType="stereo">
    <masterclipid>masterclip-1</masterclipid>
    <name>S01E45.Jiggles.mkv</name>
    <enabled>TRUE</enabled>
    <duration>17218</duration>
    <rate>
        <timebase>23.976</timebase>
        <ntsc>FALSE</ntsc>
    </rate>
    <start>5495</start>
    <end>5541</end>
    <in>5913</in>
    <out>5959</out>
    <file id="file-5"/>
    <sourcetrack>
   <mediatype>audio</mediatype>
   <trackindex>2</trackindex>
</sourcetrack>
    <labels>
        <label2>Iris</label2>
    </labels>
</clipitem>
<clipitem id="1791e289-1fa9-4ede-8d5e-56b9a6f7869f" premiereChannelType="stereo">
    <masterclipid>masterclip-1</masterclipid>
    <name>S01E45.Jiggles.mkv</name>
    <enabled>TRUE</enabled>
    <duration>17218</duration>
    <rate>
        <timebase>23.976</timebase>
        <ntsc>FALSE</ntsc>
    </rate>
    <start>5541</start>
    <end>5565</end>
    <in>5959</in>
    <out>5983</out>
    <file id="file-5"/>
    <sourcetrack>
   <mediatype>audio</mediatype>
   <trackindex>2</trackindex>
</sourcetrack>
    <labels>
        <label2>Iris</label2>
    </labels>
</clipitem>
<clipitem id="4000fd73-78d9-4a61-8e37-263b8e3c7e39" premiereChannelType="stereo">
    <masterclipid>masterclip-1</masterclipid>
    <name>S01E45.Jiggles.mkv</name>
    <enabled>TRUE</enabled>
    <duration>17218</duration>
    <rate>
        <timebase>23.976</timebase>
        <ntsc>FALSE</ntsc>
    </rate>
    <start>5565</start>
    <end>5588</end>
    <in>5988</in>
    <out>6011</out>
    <file id="file-5"/>
    <sourcetrack>
   <mediatype>audio</mediatype>
   <trackindex>2</trackindex>
</sourcetrack>
    <labels>
        <label2>Iris</label2>
    </labels>
</clipitem>
<clipitem id="ac153917-f650-4872-8dcf-ef97c3f94275" premiereChannelType="stereo">
    <masterclipid>masterclip-1</masterclipid>
    <name>S01E45.Jiggles.mkv</name>
    <enabled>TRUE</enabled>
    <duration>17218</duration>
    <rate>
        <timebase>23.976</timebase>
        <ntsc>FALSE</ntsc>
    </rate>
    <start>5588</start>
    <end>7259</end>
    <in>6004</in>
    <out>7675</out>
    <file id="file-5"/>
    <sourcetrack>
   <mediatype>audio</mediatype>
   <trackindex>2</trackindex>
</sourcetrack>
    <labels>
        <label2>Iris</label2>
    </labels>
</clipitem>
<clipitem id="c0833d7c-eb0b-4a48-a01c-b28c0dc1350d" premiereChannelType="stereo">
    <masterclipid>masterclip-1</masterclipid>
    <name>S01E45.Jiggles.mkv</name>
    <enabled>TRUE</enabled>
    <duration>17218</duration>
    <rate>
        <timebase>23.976</timebase>
        <ntsc>FALSE</ntsc>
    </rate>
    <start>7259</start>
    <end>7317</end>
    <in>7677</in>
    <out>7735</out>
    <file id="file-5"/>
    <sourcetrack>
   <mediatype>audio</mediatype>
   <trackindex>2</trackindex>
</sourcetrack>
    <labels>
        <label2>Iris</label2>
    </labels>
</clipitem>
<clipitem id="afc6f9b9-fac2-4189-80c1-1f5baceb58ed" premiereChannelType="stereo">
    <masterclipid>masterclip-1</masterclipid>
    <name>S01E45.Jiggles.mkv</name>
    <enabled>TRUE</enabled>
    <duration>17218</duration>
    <rate>
        <timebase>23.976</timebase>
        <ntsc>FALSE</ntsc>
    </rate>
    <start>7317</start>
    <end>7334</end>
    <in>7735</in>
    <out>7752</out>
    <file id="file-5"/>
    <sourcetrack>
   <mediatype>audio</mediatype>
   <trackindex>2</trackindex>
</sourcetrack>
    <labels>
        <label2>Iris</label2>
    </labels>
</clipitem>
<clipitem id="ec40bfa6-b026-40cf-8092-01812257cea4" premiereChannelType="stereo">
    <masterclipid>masterclip-1</masterclipid>
    <name>S01E45.Jiggles.mkv</name>
    <enabled>TRUE</enabled>
    <duration>17218</duration>
    <rate>
        <timebase>23.976</timebase>
        <ntsc>FALSE</ntsc>
    </rate>
    <start>7334</start>
    <end>7346</end>
    <in>7752</in>
    <out>7764</out>
    <file id="file-5"/>
    <sourcetrack>
   <mediatype>audio</mediatype>
   <trackindex>2</trackindex>
</sourcetrack>
    <labels>
        <label2>Iris</label2>
    </labels>
</clipitem>
<clipitem id="5aa7a334-39a7-4018-8f56-9177ee13af01" premiereChannelType="stereo">
    <masterclipid>masterclip-1</masterclipid>
    <name>S01E45.Jiggles.mkv</name>
    <enabled>TRUE</enabled>
    <duration>17218</duration>
    <rate>
        <timebase>23.976</timebase>
        <ntsc>FALSE</ntsc>
    </rate>
    <start>7346</start>
    <end>7379</end>
    <in>7764</in>
    <out>7797</out>
    <file id="file-5"/>
    <sourcetrack>
   <mediatype>audio</mediatype>
   <trackindex>2</trackindex>
</sourcetrack>
    <labels>
        <label2>Iris</label2>
    </labels>
</clipitem>
<clipitem id="4d73b2ff-4f09-44cb-84fc-83f8de93e86e" premiereChannelType="stereo">
    <masterclipid>masterclip-1</masterclipid>
    <name>S01E45.Jiggles.mkv</name>
    <enabled>TRUE</enabled>
    <duration>17218</duration>
    <rate>
        <timebase>23.976</timebase>
        <ntsc>FALSE</ntsc>
    </rate>
    <start>7379</start>
    <end>7397</end>
    <in>7797</in>
    <out>7815</out>
    <file id="file-5"/>
    <sourcetrack>
   <mediatype>audio</mediatype>
   <trackindex>2</trackindex>
</sourcetrack>
    <labels>
        <label2>Iris</label2>
    </labels>
</clipitem>
<clipitem id="bbfc5569-aa08-4089-bb61-3280b29962cb" premiereChannelType="stereo">
    <masterclipid>masterclip-1</masterclipid>
    <name>S01E45.Jiggles.mkv</name>
    <enabled>TRUE</enabled>
    <duration>17218</duration>
    <rate>
        <timebase>23.976</timebase>
        <ntsc>FALSE</ntsc>
    </rate>
    <start>7397</start>
    <end>7420</end>
    <in>7822</in>
    <out>7845</out>
    <file id="file-5"/>
    <sourcetrack>
   <mediatype>audio</mediatype>
   <trackindex>2</trackindex>
</sourcetrack>
    <labels>
        <label2>Iris</label2>
    </labels>
</clipitem>
<clipitem id="cbf0db98-ce63-45f8-b36f-a78830b70b8c" premiereChannelType="stereo">
    <masterclipid>masterclip-1</masterclipid>
    <name>S01E45.Jiggles.mkv</name>
    <enabled>TRUE</enabled>
    <duration>17218</duration>
    <rate>
        <timebase>23.976</timebase>
        <ntsc>FALSE</ntsc>
    </rate>
    <start>7420</start>
    <end>7451</end>
    <in>7825</in>
    <out>7856</out>
    <file id="file-5"/>
    <sourcetrack>
   <mediatype>audio</mediatype>
   <trackindex>2</trackindex>
</sourcetrack>
    <labels>
        <label2>Iris</label2>
    </labels>
</clipitem>
<clipitem id="8b6409f9-6e4c-4646-a0dd-0aea319002b6" premiereChannelType="stereo">
    <masterclipid>masterclip-1</masterclipid>
    <name>S01E45.Jiggles.mkv</name>
    <enabled>TRUE</enabled>
    <duration>17218</duration>
    <rate>
        <timebase>23.976</timebase>
        <ntsc>FALSE</ntsc>
    </rate>
    <start>7451</start>
    <end>7477</end>
    <in>7866</in>
    <out>7892</out>
    <file id="file-5"/>
    <sourcetrack>
   <mediatype>audio</mediatype>
   <trackindex>2</trackindex>
</sourcetrack>
    <labels>
        <label2>Iris</label2>
    </labels>
</clipitem>
<clipitem id="4e8ced8c-c935-4d09-9db5-fa1bf248fe22" premiereChannelType="stereo">
    <masterclipid>masterclip-1</masterclipid>
    <name>S01E45.Jiggles.mkv</name>
    <enabled>TRUE</enabled>
    <duration>17218</duration>
    <rate>
        <timebase>23.976</timebase>
        <ntsc>FALSE</ntsc>
    </rate>
    <start>7477</start>
    <end>7578</end>
    <in>7895</in>
    <out>7996</out>
    <file id="file-5"/>
    <sourcetrack>
   <mediatype>audio</mediatype>
   <trackindex>2</trackindex>
</sourcetrack>
    <labels>
        <label2>Iris</label2>
    </labels>
</clipitem>
<clipitem id="654d2eab-0d71-445c-81ae-568b4ee6728f" premiereChannelType="stereo">
    <masterclipid>masterclip-1</masterclipid>
    <name>S01E45.Jiggles.mkv</name>
    <enabled>TRUE</enabled>
    <duration>17218</duration>
    <rate>
        <timebase>23.976</timebase>
        <ntsc>FALSE</ntsc>
    </rate>
    <start>7578</start>
    <end>7589</end>
    <in>7996</in>
    <out>8007</out>
    <file id="file-5"/>
    <sourcetrack>
   <mediatype>audio</mediatype>
   <trackindex>2</trackindex>
</sourcetrack>
    <labels>
        <label2>Iris</label2>
    </labels>
</clipitem>
<clipitem id="95058788-efc3-4e16-b7f8-cdbea82d6b44" premiereChannelType="stereo">
    <masterclipid>masterclip-1</masterclipid>
    <name>S01E45.Jiggles.mkv</name>
    <enabled>TRUE</enabled>
    <duration>17218</duration>
    <rate>
        <timebase>23.976</timebase>
        <ntsc>FALSE</ntsc>
    </rate>
    <start>7589</start>
    <end>7602</end>
    <in>8007</in>
    <out>8020</out>
    <file id="file-5"/>
    <sourcetrack>
   <mediatype>audio</mediatype>
   <trackindex>2</trackindex>
</sourcetrack>
    <labels>
        <label2>Iris</label2>
    </labels>
</clipitem>
<clipitem id="9d9bd6ef-59ab-4443-8cc5-be43fd4aeb3f" premiereChannelType="stereo">
    <masterclipid>masterclip-1</masterclipid>
    <name>S01E45.Jiggles.mkv</name>
    <enabled>TRUE</enabled>
    <duration>17218</duration>
    <rate>
        <timebase>23.976</timebase>
        <ntsc>FALSE</ntsc>
    </rate>
    <start>7602</start>
    <end>7677</end>
    <in>8020</in>
    <out>8095</out>
    <file id="file-5"/>
    <sourcetrack>
   <mediatype>audio</mediatype>
   <trackindex>2</trackindex>
</sourcetrack>
    <labels>
        <label2>Iris</label2>
    </labels>
</clipitem>
<clipitem id="815bc805-7713-4cac-9871-96b67c2af0ce" premiereChannelType="stereo">
    <masterclipid>masterclip-1</masterclipid>
    <name>S01E45.Jiggles.mkv</name>
    <enabled>TRUE</enabled>
    <duration>17218</duration>
    <rate>
        <timebase>23.976</timebase>
        <ntsc>FALSE</ntsc>
    </rate>
    <start>7677</start>
    <end>8917</end>
    <in>8094</in>
    <out>9334</out>
    <file id="file-5"/>
    <sourcetrack>
   <mediatype>audio</mediatype>
   <trackindex>2</trackindex>
</sourcetrack>
    <labels>
        <label2>Iris</label2>
    </labels>
</clipitem>
<clipitem id="70d037f4-f1f5-4dd9-905d-9ea214a7d59e" premiereChannelType="stereo">
    <masterclipid>masterclip-1</masterclipid>
    <name>S01E45.Jiggles.mkv</name>
    <enabled>TRUE</enabled>
    <duration>17218</duration>
    <rate>
        <timebase>23.976</timebase>
        <ntsc>FALSE</ntsc>
    </rate>
    <start>8917</start>
    <end>8962</end>
    <in>9334</in>
    <out>9379</out>
    <file id="file-5"/>
    <sourcetrack>
   <mediatype>audio</mediatype>
   <trackindex>2</trackindex>
</sourcetrack>
    <labels>
        <label2>Iris</label2>
    </labels>
</clipitem>
<clipitem id="f9332cde-fc0a-4c54-a45f-7571f7fcacde" premiereChannelType="stereo">
    <masterclipid>masterclip-1</masterclipid>
    <name>S01E45.Jiggles.mkv</name>
    <enabled>TRUE</enabled>
    <duration>17218</duration>
    <rate>
        <timebase>23.976</timebase>
        <ntsc>FALSE</ntsc>
    </rate>
    <start>8962</start>
    <end>8974</end>
    <in>9379</in>
    <out>9391</out>
    <file id="file-5"/>
    <sourcetrack>
   <mediatype>audio</mediatype>
   <trackindex>2</trackindex>
</sourcetrack>
    <labels>
        <label2>Iris</label2>
    </labels>
</clipitem>
<clipitem id="953bef79-3b16-4968-8178-3af66ae82d64" premiereChannelType="stereo">
    <masterclipid>masterclip-1</masterclipid>
    <name>S01E45.Jiggles.mkv</name>
    <enabled>TRUE</enabled>
    <duration>17218</duration>
    <rate>
        <timebase>23.976</timebase>
        <ntsc>FALSE</ntsc>
    </rate>
    <start>8974</start>
    <end>8985</end>
    <in>9391</in>
    <out>9402</out>
    <file id="file-5"/>
    <sourcetrack>
   <mediatype>audio</mediatype>
   <trackindex>2</trackindex>
</sourcetrack>
    <labels>
        <label2>Iris</label2>
    </labels>
</clipitem>
<clipitem id="1bd3c1d2-7aeb-44f7-9aaf-fcbc004119b9" premiereChannelType="stereo">
    <masterclipid>masterclip-1</masterclipid>
    <name>S01E45.Jiggles.mkv</name>
    <enabled>TRUE</enabled>
    <duration>17218</duration>
    <rate>
        <timebase>23.976</timebase>
        <ntsc>FALSE</ntsc>
    </rate>
    <start>8985</start>
    <end>8996</end>
    <in>9402</in>
    <out>9413</out>
    <file id="file-5"/>
    <sourcetrack>
   <mediatype>audio</mediatype>
   <trackindex>2</trackindex>
</sourcetrack>
    <labels>
        <label2>Iris</label2>
    </labels>
</clipitem>
<clipitem id="a5dcf8f0-e217-4c52-a7f6-fe8ffee89a37" premiereChannelType="stereo">
    <masterclipid>masterclip-1</masterclipid>
    <name>S01E45.Jiggles.mkv</name>
    <enabled>TRUE</enabled>
    <duration>17218</duration>
    <rate>
        <timebase>23.976</timebase>
        <ntsc>FALSE</ntsc>
    </rate>
    <start>8996</start>
    <end>9064</end>
    <in>9413</in>
    <out>9481</out>
    <file id="file-5"/>
    <sourcetrack>
   <mediatype>audio</mediatype>
   <trackindex>2</trackindex>
</sourcetrack>
    <labels>
        <label2>Iris</label2>
    </labels>
</clipitem>
<clipitem id="ef37d4c1-1c50-42ca-8487-407e834da1f8" premiereChannelType="stereo">
    <masterclipid>masterclip-1</masterclipid>
    <name>S01E45.Jiggles.mkv</name>
    <enabled>TRUE</enabled>
    <duration>17218</duration>
    <rate>
        <timebase>23.976</timebase>
        <ntsc>FALSE</ntsc>
    </rate>
    <start>9064</start>
    <end>9541</end>
    <in>9480</in>
    <out>9957</out>
    <file id="file-5"/>
    <sourcetrack>
   <mediatype>audio</mediatype>
   <trackindex>2</trackindex>
</sourcetrack>
    <labels>
        <label2>Iris</label2>
    </labels>
</clipitem>
<clipitem id="fb47eb69-3855-4262-82eb-846242264b1c" premiereChannelType="stereo">
    <masterclipid>masterclip-1</masterclipid>
    <name>S01E45.Jiggles.mkv</name>
    <enabled>TRUE</enabled>
    <duration>17218</duration>
    <rate>
        <timebase>23.976</timebase>
        <ntsc>FALSE</ntsc>
    </rate>
    <start>9541</start>
    <end>9581</end>
    <in>9958</in>
    <out>9998</out>
    <file id="file-5"/>
    <sourcetrack>
   <mediatype>audio</mediatype>
   <trackindex>2</trackindex>
</sourcetrack>
    <labels>
        <label2>Iris</label2>
    </labels>
</clipitem>
<clipitem id="bf64bef8-356f-4ca2-b583-f33053432c8a" premiereChannelType="stereo">
    <masterclipid>masterclip-1</masterclipid>
    <name>S01E45.Jiggles.mkv</name>
    <enabled>TRUE</enabled>
    <duration>17218</duration>
    <rate>
        <timebase>23.976</timebase>
        <ntsc>FALSE</ntsc>
    </rate>
    <start>9583</start>
    <end>9624</end>
    <in>10000</in>
    <out>10041</out>
    <file id="file-5"/>
    <sourcetrack>
   <mediatype>audio</mediatype>
   <trackindex>2</trackindex>
</sourcetrack>
    <labels>
        <label2>Iris</label2>
    </labels>
</clipitem>
<clipitem id="5d0acc2c-f428-46df-b21c-655ede07f360" premiereChannelType="stereo">
    <masterclipid>masterclip-1</masterclipid>
    <name>S01E45.Jiggles.mkv</name>
    <enabled>TRUE</enabled>
    <duration>17218</duration>
    <rate>
        <timebase>23.976</timebase>
        <ntsc>FALSE</ntsc>
    </rate>
    <start>9627</start>
    <end>9698</end>
    <in>10043</in>
    <out>10114</out>
    <file id="file-5"/>
    <sourcetrack>
   <mediatype>audio</mediatype>
   <trackindex>2</trackindex>
</sourcetrack>
    <labels>
        <label2>Iris</label2>
    </labels>
</clipitem>
<clipitem id="25e4836a-17d4-4fed-b6a9-3c46a8b20bd9" premiereChannelType="stereo">
    <masterclipid>masterclip-1</masterclipid>
    <name>S01E45.Jiggles.mkv</name>
    <enabled>TRUE</enabled>
    <duration>17218</duration>
    <rate>
        <timebase>23.976</timebase>
        <ntsc>FALSE</ntsc>
    </rate>
    <start>9700</start>
    <end>9726</end>
    <in>10116</in>
    <out>10142</out>
    <file id="file-5"/>
    <sourcetrack>
   <mediatype>audio</mediatype>
   <trackindex>2</trackindex>
</sourcetrack>
    <labels>
        <label2>Iris</label2>
    </labels>
</clipitem>
<clipitem id="e6cece45-d270-4d5b-9648-eb9adf3332cb" premiereChannelType="stereo">
    <masterclipid>masterclip-1</masterclipid>
    <name>S01E45.Jiggles.mkv</name>
    <enabled>TRUE</enabled>
    <duration>17218</duration>
    <rate>
        <timebase>23.976</timebase>
        <ntsc>FALSE</ntsc>
    </rate>
    <start>9728</start>
    <end>9775</end>
    <in>10144</in>
    <out>10191</out>
    <file id="file-5"/>
    <sourcetrack>
   <mediatype>audio</mediatype>
   <trackindex>2</trackindex>
</sourcetrack>
    <labels>
        <label2>Iris</label2>
    </labels>
</clipitem>
<clipitem id="7b1f53fc-906c-4c9a-bd47-c06d4cf05e22" premiereChannelType="stereo">
    <masterclipid>masterclip-1</masterclipid>
    <name>S01E45.Jiggles.mkv</name>
    <enabled>TRUE</enabled>
    <duration>17218</duration>
    <rate>
        <timebase>23.976</timebase>
        <ntsc>FALSE</ntsc>
    </rate>
    <start>9776</start>
    <end>9909</end>
    <in>10192</in>
    <out>10325</out>
    <file id="file-5"/>
    <sourcetrack>
   <mediatype>audio</mediatype>
   <trackindex>2</trackindex>
</sourcetrack>
    <labels>
        <label2>Iris</label2>
    </labels>
</clipitem>
<clipitem id="a3df739d-72f6-4e55-add3-a5a2b777e81c" premiereChannelType="stereo">
    <masterclipid>masterclip-1</masterclipid>
    <name>S01E45.Jiggles.mkv</name>
    <enabled>TRUE</enabled>
    <duration>17218</duration>
    <rate>
        <timebase>23.976</timebase>
        <ntsc>FALSE</ntsc>
    </rate>
    <start>9909</start>
    <end>9954</end>
    <in>10325</in>
    <out>10370</out>
    <file id="file-5"/>
    <sourcetrack>
   <mediatype>audio</mediatype>
   <trackindex>2</trackindex>
</sourcetrack>
    <labels>
        <label2>Iris</label2>
    </labels>
</clipitem>
<clipitem id="993902c6-7772-4b50-a3a2-b22e0733dd8b" premiereChannelType="stereo">
    <masterclipid>masterclip-1</masterclipid>
    <name>S01E45.Jiggles.mkv</name>
    <enabled>TRUE</enabled>
    <duration>17218</duration>
    <rate>
        <timebase>23.976</timebase>
        <ntsc>FALSE</ntsc>
    </rate>
    <start>9954</start>
    <end>10018</end>
    <in>10369</in>
    <out>10433</out>
    <file id="file-5"/>
    <sourcetrack>
   <mediatype>audio</mediatype>
   <trackindex>2</trackindex>
</sourcetrack>
    <labels>
        <label2>Iris</label2>
    </labels>
</clipitem>
<clipitem id="4a8757f7-7684-4ab1-8e47-6a4a7d0266b5" premiereChannelType="stereo">
    <masterclipid>masterclip-1</masterclipid>
    <name>S01E45.Jiggles.mkv</name>
    <enabled>TRUE</enabled>
    <duration>17218</duration>
    <rate>
        <timebase>23.976</timebase>
        <ntsc>FALSE</ntsc>
    </rate>
    <start>10018</start>
    <end>10037</end>
    <in>10434</in>
    <out>10453</out>
    <file id="file-5"/>
    <sourcetrack>
   <mediatype>audio</mediatype>
   <trackindex>2</trackindex>
</sourcetrack>
    <labels>
        <label2>Iris</label2>
    </labels>
</clipitem>
<clipitem id="cf849dff-ed70-4724-9425-5491fc45d9b0" premiereChannelType="stereo">
    <masterclipid>masterclip-1</masterclipid>
    <name>S01E45.Jiggles.mkv</name>
    <enabled>TRUE</enabled>
    <duration>17218</duration>
    <rate>
        <timebase>23.976</timebase>
        <ntsc>FALSE</ntsc>
    </rate>
    <start>10037</start>
    <end>10057</end>
    <in>10453</in>
    <out>10473</out>
    <file id="file-5"/>
    <sourcetrack>
   <mediatype>audio</mediatype>
   <trackindex>2</trackindex>
</sourcetrack>
    <labels>
        <label2>Iris</label2>
    </labels>
</clipitem>
<clipitem id="05f9fde5-94b2-47b3-9533-b39fc630ca98" premiereChannelType="stereo">
    <masterclipid>masterclip-1</masterclipid>
    <name>S01E45.Jiggles.mkv</name>
    <enabled>TRUE</enabled>
    <duration>17218</duration>
    <rate>
        <timebase>23.976</timebase>
        <ntsc>FALSE</ntsc>
    </rate>
    <start>10057</start>
    <end>10077</end>
    <in>10473</in>
    <out>10493</out>
    <file id="file-5"/>
    <sourcetrack>
   <mediatype>audio</mediatype>
   <trackindex>2</trackindex>
</sourcetrack>
    <labels>
        <label2>Iris</label2>
    </labels>
</clipitem>
<clipitem id="c1b0034d-cc20-436b-b008-7bd30fc58e47" premiereChannelType="stereo">
    <masterclipid>masterclip-1</masterclipid>
    <name>S01E45.Jiggles.mkv</name>
    <enabled>TRUE</enabled>
    <duration>17218</duration>
    <rate>
        <timebase>23.976</timebase>
        <ntsc>FALSE</ntsc>
    </rate>
    <start>10077</start>
    <end>10094</end>
    <in>10493</in>
    <out>10510</out>
    <file id="file-5"/>
    <sourcetrack>
   <mediatype>audio</mediatype>
   <trackindex>2</trackindex>
</sourcetrack>
    <labels>
        <label2>Iris</label2>
    </labels>
</clipitem>
<clipitem id="63689c91-5cec-4110-a744-d5ed6fc7657b" premiereChannelType="stereo">
    <masterclipid>masterclip-1</masterclipid>
    <name>S01E45.Jiggles.mkv</name>
    <enabled>TRUE</enabled>
    <duration>17218</duration>
    <rate>
        <timebase>23.976</timebase>
        <ntsc>FALSE</ntsc>
    </rate>
    <start>10094</start>
    <end>10114</end>
    <in>10510</in>
    <out>10530</out>
    <file id="file-5"/>
    <sourcetrack>
   <mediatype>audio</mediatype>
   <trackindex>2</trackindex>
</sourcetrack>
    <labels>
        <label2>Iris</label2>
    </labels>
</clipitem>
<clipitem id="cbd9d683-2376-4217-b6ba-7298cc63a02a" premiereChannelType="stereo">
    <masterclipid>masterclip-1</masterclipid>
    <name>S01E45.Jiggles.mkv</name>
    <enabled>TRUE</enabled>
    <duration>17218</duration>
    <rate>
        <timebase>23.976</timebase>
        <ntsc>FALSE</ntsc>
    </rate>
    <start>10114</start>
    <end>10143</end>
    <in>10530</in>
    <out>10559</out>
    <file id="file-5"/>
    <sourcetrack>
   <mediatype>audio</mediatype>
   <trackindex>2</trackindex>
</sourcetrack>
    <labels>
        <label2>Iris</label2>
    </labels>
</clipitem>
<clipitem id="574da92d-b436-4b7a-a462-ad8a735ac9e3" premiereChannelType="stereo">
    <masterclipid>masterclip-1</masterclipid>
    <name>S01E45.Jiggles.mkv</name>
    <enabled>TRUE</enabled>
    <duration>17218</duration>
    <rate>
        <timebase>23.976</timebase>
        <ntsc>FALSE</ntsc>
    </rate>
    <start>10143</start>
    <end>10161</end>
    <in>10559</in>
    <out>10577</out>
    <file id="file-5"/>
    <sourcetrack>
   <mediatype>audio</mediatype>
   <trackindex>2</trackindex>
</sourcetrack>
    <labels>
        <label2>Iris</label2>
    </labels>
</clipitem>
<clipitem id="bbcc7a25-2a13-4460-b75f-d8acdbffabf7" premiereChannelType="stereo">
    <masterclipid>masterclip-1</masterclipid>
    <name>S01E45.Jiggles.mkv</name>
    <enabled>TRUE</enabled>
    <duration>17218</duration>
    <rate>
        <timebase>23.976</timebase>
        <ntsc>FALSE</ntsc>
    </rate>
    <start>10161</start>
    <end>10181</end>
    <in>10577</in>
    <out>10597</out>
    <file id="file-5"/>
    <sourcetrack>
   <mediatype>audio</mediatype>
   <trackindex>2</trackindex>
</sourcetrack>
    <labels>
        <label2>Iris</label2>
    </labels>
</clipitem>
<clipitem id="bb091b6b-3057-4907-a5f9-c61d3b07e1cd" premiereChannelType="stereo">
    <masterclipid>masterclip-1</masterclipid>
    <name>S01E45.Jiggles.mkv</name>
    <enabled>TRUE</enabled>
    <duration>17218</duration>
    <rate>
        <timebase>23.976</timebase>
        <ntsc>FALSE</ntsc>
    </rate>
    <start>10181</start>
    <end>10597</end>
    <in>10596</in>
    <out>11012</out>
    <file id="file-5"/>
    <sourcetrack>
   <mediatype>audio</mediatype>
   <trackindex>2</trackindex>
</sourcetrack>
    <labels>
        <label2>Iris</label2>
    </labels>
</clipitem>
<clipitem id="b924de48-1bd8-4bbe-85ef-174b121c3894" premiereChannelType="stereo">
    <masterclipid>masterclip-1</masterclipid>
    <name>S01E45.Jiggles.mkv</name>
    <enabled>TRUE</enabled>
    <duration>17218</duration>
    <rate>
        <timebase>23.976</timebase>
        <ntsc>FALSE</ntsc>
    </rate>
    <start>10597</start>
    <end>10629</end>
    <in>11014</in>
    <out>11046</out>
    <file id="file-5"/>
    <sourcetrack>
   <mediatype>audio</mediatype>
   <trackindex>2</trackindex>
</sourcetrack>
    <labels>
        <label2>Iris</label2>
    </labels>
</clipitem>
<clipitem id="951f5660-99f1-4b48-8a5b-4b149bfb112d" premiereChannelType="stereo">
    <masterclipid>masterclip-1</masterclipid>
    <name>S01E45.Jiggles.mkv</name>
    <enabled>TRUE</enabled>
    <duration>17218</duration>
    <rate>
        <timebase>23.976</timebase>
        <ntsc>FALSE</ntsc>
    </rate>
    <start>10629</start>
    <end>11004</end>
    <in>11045</in>
    <out>11420</out>
    <file id="file-5"/>
    <sourcetrack>
   <mediatype>audio</mediatype>
   <trackindex>2</trackindex>
</sourcetrack>
    <labels>
        <label2>Iris</label2>
    </labels>
</clipitem>
<clipitem id="a5fea9e8-c722-4472-acfc-7541b05c2e7e" premiereChannelType="stereo">
    <masterclipid>masterclip-1</masterclipid>
    <name>S01E45.Jiggles.mkv</name>
    <enabled>TRUE</enabled>
    <duration>17218</duration>
    <rate>
        <timebase>23.976</timebase>
        <ntsc>FALSE</ntsc>
    </rate>
    <start>11004</start>
    <end>11036</end>
    <in>11422</in>
    <out>11454</out>
    <file id="file-5"/>
    <sourcetrack>
   <mediatype>audio</mediatype>
   <trackindex>2</trackindex>
</sourcetrack>
    <labels>
        <label2>Iris</label2>
    </labels>
</clipitem>
<clipitem id="54837c68-d0b4-40a3-a338-025ca96a5774" premiereChannelType="stereo">
    <masterclipid>masterclip-1</masterclipid>
    <name>S01E45.Jiggles.mkv</name>
    <enabled>TRUE</enabled>
    <duration>17218</duration>
    <rate>
        <timebase>23.976</timebase>
        <ntsc>FALSE</ntsc>
    </rate>
    <start>11036</start>
    <end>11064</end>
    <in>11454</in>
    <out>11482</out>
    <file id="file-5"/>
    <sourcetrack>
   <mediatype>audio</mediatype>
   <trackindex>2</trackindex>
</sourcetrack>
    <labels>
        <label2>Iris</label2>
    </labels>
</clipitem>
<clipitem id="b119e888-cbb9-46ce-8ba9-e177dd640c34" premiereChannelType="stereo">
    <masterclipid>masterclip-1</masterclipid>
    <name>S01E45.Jiggles.mkv</name>
    <enabled>TRUE</enabled>
    <duration>17218</duration>
    <rate>
        <timebase>23.976</timebase>
        <ntsc>FALSE</ntsc>
    </rate>
    <start>11064</start>
    <end>11117</end>
    <in>11482</in>
    <out>11535</out>
    <file id="file-5"/>
    <sourcetrack>
   <mediatype>audio</mediatype>
   <trackindex>2</trackindex>
</sourcetrack>
    <labels>
        <label2>Iris</label2>
    </labels>
</clipitem>
<clipitem id="82480fa8-df75-4003-a2bb-c99fa3a05f2e" premiereChannelType="stereo">
    <masterclipid>masterclip-1</masterclipid>
    <name>S01E45.Jiggles.mkv</name>
    <enabled>TRUE</enabled>
    <duration>17218</duration>
    <rate>
        <timebase>23.976</timebase>
        <ntsc>FALSE</ntsc>
    </rate>
    <start>11117</start>
    <end>11165</end>
    <in>11535</in>
    <out>11583</out>
    <file id="file-5"/>
    <sourcetrack>
   <mediatype>audio</mediatype>
   <trackindex>2</trackindex>
</sourcetrack>
    <labels>
        <label2>Iris</label2>
    </labels>
</clipitem>
<clipitem id="56e17ce8-4589-45ab-aae1-fc8b32858d7e" premiereChannelType="stereo">
    <masterclipid>masterclip-1</masterclipid>
    <name>S01E45.Jiggles.mkv</name>
    <enabled>TRUE</enabled>
    <duration>17218</duration>
    <rate>
        <timebase>23.976</timebase>
        <ntsc>FALSE</ntsc>
    </rate>
    <start>11165</start>
    <end>11324</end>
    <in>11584</in>
    <out>11743</out>
    <file id="file-5"/>
    <sourcetrack>
   <mediatype>audio</mediatype>
   <trackindex>2</trackindex>
</sourcetrack>
    <labels>
        <label2>Iris</label2>
    </labels>
</clipitem>
<clipitem id="1d9a771b-7eae-46d6-bbee-6e92cc0d380f" premiereChannelType="stereo">
    <masterclipid>masterclip-1</masterclipid>
    <name>S01E45.Jiggles.mkv</name>
    <enabled>TRUE</enabled>
    <duration>17218</duration>
    <rate>
        <timebase>23.976</timebase>
        <ntsc>FALSE</ntsc>
    </rate>
    <start>11324</start>
    <end>11339</end>
    <in>11742</in>
    <out>11757</out>
    <file id="file-5"/>
    <sourcetrack>
   <mediatype>audio</mediatype>
   <trackindex>2</trackindex>
</sourcetrack>
    <labels>
        <label2>Iris</label2>
    </labels>
</clipitem>
<clipitem id="079df416-02e0-40aa-897b-152125b31e38" premiereChannelType="stereo">
    <masterclipid>masterclip-1</masterclipid>
    <name>S01E45.Jiggles.mkv</name>
    <enabled>TRUE</enabled>
    <duration>17218</duration>
    <rate>
        <timebase>23.976</timebase>
        <ntsc>FALSE</ntsc>
    </rate>
    <start>11339</start>
    <end>11350</end>
    <in>11757</in>
    <out>11768</out>
    <file id="file-5"/>
    <sourcetrack>
   <mediatype>audio</mediatype>
   <trackindex>2</trackindex>
</sourcetrack>
    <labels>
        <label2>Iris</label2>
    </labels>
</clipitem>
<clipitem id="ba659bee-93c1-4479-a4df-bbf14ff76224" premiereChannelType="stereo">
    <masterclipid>masterclip-1</masterclipid>
    <name>S01E45.Jiggles.mkv</name>
    <enabled>TRUE</enabled>
    <duration>17218</duration>
    <rate>
        <timebase>23.976</timebase>
        <ntsc>FALSE</ntsc>
    </rate>
    <start>11350</start>
    <end>11376</end>
    <in>11768</in>
    <out>11794</out>
    <file id="file-5"/>
    <sourcetrack>
   <mediatype>audio</mediatype>
   <trackindex>2</trackindex>
</sourcetrack>
    <labels>
        <label2>Iris</label2>
    </labels>
</clipitem>
<clipitem id="1039db0f-35b9-4b53-be0a-055fdf115022" premiereChannelType="stereo">
    <masterclipid>masterclip-1</masterclipid>
    <name>S01E45.Jiggles.mkv</name>
    <enabled>TRUE</enabled>
    <duration>17218</duration>
    <rate>
        <timebase>23.976</timebase>
        <ntsc>FALSE</ntsc>
    </rate>
    <start>11376</start>
    <end>11387</end>
    <in>11794</in>
    <out>11805</out>
    <file id="file-5"/>
    <sourcetrack>
   <mediatype>audio</mediatype>
   <trackindex>2</trackindex>
</sourcetrack>
    <labels>
        <label2>Iris</label2>
    </labels>
</clipitem>
<clipitem id="4c4ed8f3-94af-4b0a-a1c3-33ee6260d03d" premiereChannelType="stereo">
    <masterclipid>masterclip-1</masterclipid>
    <name>S01E45.Jiggles.mkv</name>
    <enabled>TRUE</enabled>
    <duration>17218</duration>
    <rate>
        <timebase>23.976</timebase>
        <ntsc>FALSE</ntsc>
    </rate>
    <start>11387</start>
    <end>11403</end>
    <in>11805</in>
    <out>11821</out>
    <file id="file-5"/>
    <sourcetrack>
   <mediatype>audio</mediatype>
   <trackindex>2</trackindex>
</sourcetrack>
    <labels>
        <label2>Iris</label2>
    </labels>
</clipitem>
<clipitem id="03f296a1-b843-4c53-a81a-96549df7ba1e" premiereChannelType="stereo">
    <masterclipid>masterclip-1</masterclipid>
    <name>S01E45.Jiggles.mkv</name>
    <enabled>TRUE</enabled>
    <duration>17218</duration>
    <rate>
        <timebase>23.976</timebase>
        <ntsc>FALSE</ntsc>
    </rate>
    <start>11403</start>
    <end>11435</end>
    <in>11821</in>
    <out>11853</out>
    <file id="file-5"/>
    <sourcetrack>
   <mediatype>audio</mediatype>
   <trackindex>2</trackindex>
</sourcetrack>
    <labels>
        <label2>Iris</label2>
    </labels>
</clipitem>
<clipitem id="7e039a18-4a79-483f-9773-07bf8eebfc86" premiereChannelType="stereo">
    <masterclipid>masterclip-1</masterclipid>
    <name>S01E45.Jiggles.mkv</name>
    <enabled>TRUE</enabled>
    <duration>17218</duration>
    <rate>
        <timebase>23.976</timebase>
        <ntsc>FALSE</ntsc>
    </rate>
    <start>11435</start>
    <end>11463</end>
    <in>11853</in>
    <out>11881</out>
    <file id="file-5"/>
    <sourcetrack>
   <mediatype>audio</mediatype>
   <trackindex>2</trackindex>
</sourcetrack>
    <labels>
        <label2>Iris</label2>
    </labels>
</clipitem>
<clipitem id="9f35546f-8e95-47cb-8146-d77e90530f1a" premiereChannelType="stereo">
    <masterclipid>masterclip-1</masterclipid>
    <name>S01E45.Jiggles.mkv</name>
    <enabled>TRUE</enabled>
    <duration>17218</duration>
    <rate>
        <timebase>23.976</timebase>
        <ntsc>FALSE</ntsc>
    </rate>
    <start>11463</start>
    <end>11478</end>
    <in>11881</in>
    <out>11896</out>
    <file id="file-5"/>
    <sourcetrack>
   <mediatype>audio</mediatype>
   <trackindex>2</trackindex>
</sourcetrack>
    <labels>
        <label2>Iris</label2>
    </labels>
</clipitem>
<clipitem id="05129da7-3788-41ca-a9af-6a5efcd2c8c4" premiereChannelType="stereo">
    <masterclipid>masterclip-1</masterclipid>
    <name>S01E45.Jiggles.mkv</name>
    <enabled>TRUE</enabled>
    <duration>17218</duration>
    <rate>
        <timebase>23.976</timebase>
        <ntsc>FALSE</ntsc>
    </rate>
    <start>11478</start>
    <end>11489</end>
    <in>11896</in>
    <out>11907</out>
    <file id="file-5"/>
    <sourcetrack>
   <mediatype>audio</mediatype>
   <trackindex>2</trackindex>
</sourcetrack>
    <labels>
        <label2>Iris</label2>
    </labels>
</clipitem>
<clipitem id="f8918e68-dba6-4bf1-8b81-318e839dee4c" premiereChannelType="stereo">
    <masterclipid>masterclip-1</masterclipid>
    <name>S01E45.Jiggles.mkv</name>
    <enabled>TRUE</enabled>
    <duration>17218</duration>
    <rate>
        <timebase>23.976</timebase>
        <ntsc>FALSE</ntsc>
    </rate>
    <start>11489</start>
    <end>11507</end>
    <in>11907</in>
    <out>11925</out>
    <file id="file-5"/>
    <sourcetrack>
   <mediatype>audio</mediatype>
   <trackindex>2</trackindex>
</sourcetrack>
    <labels>
        <label2>Iris</label2>
    </labels>
</clipitem>
<clipitem id="65e305b4-f296-4822-b30f-02117cd419be" premiereChannelType="stereo">
    <masterclipid>masterclip-1</masterclipid>
    <name>S01E45.Jiggles.mkv</name>
    <enabled>TRUE</enabled>
    <duration>17218</duration>
    <rate>
        <timebase>23.976</timebase>
        <ntsc>FALSE</ntsc>
    </rate>
    <start>11507</start>
    <end>11519</end>
    <in>11927</in>
    <out>11939</out>
    <file id="file-5"/>
    <sourcetrack>
   <mediatype>audio</mediatype>
   <trackindex>2</trackindex>
</sourcetrack>
    <labels>
        <label2>Iris</label2>
    </labels>
</clipitem>
<clipitem id="26fa3f74-6684-46ea-9620-cbff55b31444" premiereChannelType="stereo">
    <masterclipid>masterclip-1</masterclipid>
    <name>S01E45.Jiggles.mkv</name>
    <enabled>TRUE</enabled>
    <duration>17218</duration>
    <rate>
        <timebase>23.976</timebase>
        <ntsc>FALSE</ntsc>
    </rate>
    <start>11519</start>
    <end>11532</end>
    <in>11937</in>
    <out>11950</out>
    <file id="file-5"/>
    <sourcetrack>
   <mediatype>audio</mediatype>
   <trackindex>2</trackindex>
</sourcetrack>
    <labels>
        <label2>Iris</label2>
    </labels>
</clipitem>
<clipitem id="e4b9aed4-adbc-4689-97a5-fd50da7a5d3a" premiereChannelType="stereo">
    <masterclipid>masterclip-1</masterclipid>
    <name>S01E45.Jiggles.mkv</name>
    <enabled>TRUE</enabled>
    <duration>17218</duration>
    <rate>
        <timebase>23.976</timebase>
        <ntsc>FALSE</ntsc>
    </rate>
    <start>11532</start>
    <end>11590</end>
    <in>11950</in>
    <out>12008</out>
    <file id="file-5"/>
    <sourcetrack>
   <mediatype>audio</mediatype>
   <trackindex>2</trackindex>
</sourcetrack>
    <labels>
        <label2>Iris</label2>
    </labels>
</clipitem>
<clipitem id="2240bfd6-400e-4714-bfed-882704b0b6af" premiereChannelType="stereo">
    <masterclipid>masterclip-1</masterclipid>
    <name>S01E45.Jiggles.mkv</name>
    <enabled>TRUE</enabled>
    <duration>17218</duration>
    <rate>
        <timebase>23.976</timebase>
        <ntsc>FALSE</ntsc>
    </rate>
    <start>11590</start>
    <end>11632</end>
    <in>12008</in>
    <out>12050</out>
    <file id="file-5"/>
    <sourcetrack>
   <mediatype>audio</mediatype>
   <trackindex>2</trackindex>
</sourcetrack>
    <labels>
        <label2>Iris</label2>
    </labels>
</clipitem>
<clipitem id="01493e07-9bf6-4c4e-936d-d882b15ea3c3" premiereChannelType="stereo">
    <masterclipid>masterclip-1</masterclipid>
    <name>S01E45.Jiggles.mkv</name>
    <enabled>TRUE</enabled>
    <duration>17218</duration>
    <rate>
        <timebase>23.976</timebase>
        <ntsc>FALSE</ntsc>
    </rate>
    <start>11632</start>
    <end>11656</end>
    <in>12050</in>
    <out>12074</out>
    <file id="file-5"/>
    <sourcetrack>
   <mediatype>audio</mediatype>
   <trackindex>2</trackindex>
</sourcetrack>
    <labels>
        <label2>Iris</label2>
    </labels>
</clipitem>
<clipitem id="6fb62236-0f51-4ea8-a1a6-cde5a8c02cc4" premiereChannelType="stereo">
    <masterclipid>masterclip-1</masterclipid>
    <name>S01E45.Jiggles.mkv</name>
    <enabled>TRUE</enabled>
    <duration>17218</duration>
    <rate>
        <timebase>23.976</timebase>
        <ntsc>FALSE</ntsc>
    </rate>
    <start>11656</start>
    <end>11667</end>
    <in>12074</in>
    <out>12085</out>
    <file id="file-5"/>
    <sourcetrack>
   <mediatype>audio</mediatype>
   <trackindex>2</trackindex>
</sourcetrack>
    <labels>
        <label2>Iris</label2>
    </labels>
</clipitem>
<clipitem id="ae7bf876-d9f9-4b5c-a272-84a43d2d075b" premiereChannelType="stereo">
    <masterclipid>masterclip-1</masterclipid>
    <name>S01E45.Jiggles.mkv</name>
    <enabled>TRUE</enabled>
    <duration>17218</duration>
    <rate>
        <timebase>23.976</timebase>
        <ntsc>FALSE</ntsc>
    </rate>
    <start>11667</start>
    <end>11714</end>
    <in>12085</in>
    <out>12132</out>
    <file id="file-5"/>
    <sourcetrack>
   <mediatype>audio</mediatype>
   <trackindex>2</trackindex>
</sourcetrack>
    <labels>
        <label2>Iris</label2>
    </labels>
</clipitem>
<clipitem id="6638cb17-74b8-4f51-b92a-7fb14f0c7d94" premiereChannelType="stereo">
    <masterclipid>masterclip-1</masterclipid>
    <name>S01E45.Jiggles.mkv</name>
    <enabled>TRUE</enabled>
    <duration>17218</duration>
    <rate>
        <timebase>23.976</timebase>
        <ntsc>FALSE</ntsc>
    </rate>
    <start>11714</start>
    <end>11753</end>
    <in>12132</in>
    <out>12171</out>
    <file id="file-5"/>
    <sourcetrack>
   <mediatype>audio</mediatype>
   <trackindex>2</trackindex>
</sourcetrack>
    <labels>
        <label2>Iris</label2>
    </labels>
</clipitem>
<clipitem id="e3504ff5-caac-42dd-a427-8c6142decedc" premiereChannelType="stereo">
    <masterclipid>masterclip-1</masterclipid>
    <name>S01E45.Jiggles.mkv</name>
    <enabled>TRUE</enabled>
    <duration>17218</duration>
    <rate>
        <timebase>23.976</timebase>
        <ntsc>FALSE</ntsc>
    </rate>
    <start>11753</start>
    <end>11771</end>
    <in>12171</in>
    <out>12189</out>
    <file id="file-5"/>
    <sourcetrack>
   <mediatype>audio</mediatype>
   <trackindex>2</trackindex>
</sourcetrack>
    <labels>
        <label2>Iris</label2>
    </labels>
</clipitem>
<clipitem id="b5762346-60fa-4adf-b3c4-70581ad5f07a" premiereChannelType="stereo">
    <masterclipid>masterclip-1</masterclipid>
    <name>S01E45.Jiggles.mkv</name>
    <enabled>TRUE</enabled>
    <duration>17218</duration>
    <rate>
        <timebase>23.976</timebase>
        <ntsc>FALSE</ntsc>
    </rate>
    <start>11771</start>
    <end>11785</end>
    <in>12189</in>
    <out>12203</out>
    <file id="file-5"/>
    <sourcetrack>
   <mediatype>audio</mediatype>
   <trackindex>2</trackindex>
</sourcetrack>
    <labels>
        <label2>Iris</label2>
    </labels>
</clipitem>
<clipitem id="847259c9-fa00-460e-9bd6-6f40b7e2961e" premiereChannelType="stereo">
    <masterclipid>masterclip-1</masterclipid>
    <name>S01E45.Jiggles.mkv</name>
    <enabled>TRUE</enabled>
    <duration>17218</duration>
    <rate>
        <timebase>23.976</timebase>
        <ntsc>FALSE</ntsc>
    </rate>
    <start>11785</start>
    <end>11823</end>
    <in>12203</in>
    <out>12241</out>
    <file id="file-5"/>
    <sourcetrack>
   <mediatype>audio</mediatype>
   <trackindex>2</trackindex>
</sourcetrack>
    <labels>
        <label2>Iris</label2>
    </labels>
</clipitem>
<clipitem id="2c6cd853-6d28-40e8-bbff-0041ac2fcf0a" premiereChannelType="stereo">
    <masterclipid>masterclip-1</masterclipid>
    <name>S01E45.Jiggles.mkv</name>
    <enabled>TRUE</enabled>
    <duration>17218</duration>
    <rate>
        <timebase>23.976</timebase>
        <ntsc>FALSE</ntsc>
    </rate>
    <start>11823</start>
    <end>11840</end>
    <in>12241</in>
    <out>12258</out>
    <file id="file-5"/>
    <sourcetrack>
   <mediatype>audio</mediatype>
   <trackindex>2</trackindex>
</sourcetrack>
    <labels>
        <label2>Iris</label2>
    </labels>
</clipitem>
<clipitem id="79be1b49-d39f-496b-b4f9-2b1f214ef378" premiereChannelType="stereo">
    <masterclipid>masterclip-1</masterclipid>
    <name>S01E45.Jiggles.mkv</name>
    <enabled>TRUE</enabled>
    <duration>17218</duration>
    <rate>
        <timebase>23.976</timebase>
        <ntsc>FALSE</ntsc>
    </rate>
    <start>11840</start>
    <end>11852</end>
    <in>12258</in>
    <out>12270</out>
    <file id="file-5"/>
    <sourcetrack>
   <mediatype>audio</mediatype>
   <trackindex>2</trackindex>
</sourcetrack>
    <labels>
        <label2>Iris</label2>
    </labels>
</clipitem>
<clipitem id="8594a4b4-9bee-438a-9301-861bd7932e2c" premiereChannelType="stereo">
    <masterclipid>masterclip-1</masterclipid>
    <name>S01E45.Jiggles.mkv</name>
    <enabled>TRUE</enabled>
    <duration>17218</duration>
    <rate>
        <timebase>23.976</timebase>
        <ntsc>FALSE</ntsc>
    </rate>
    <start>11852</start>
    <end>11870</end>
    <in>12270</in>
    <out>12288</out>
    <file id="file-5"/>
    <sourcetrack>
   <mediatype>audio</mediatype>
   <trackindex>2</trackindex>
</sourcetrack>
    <labels>
        <label2>Iris</label2>
    </labels>
</clipitem>
<clipitem id="5b376265-6e5f-4a1a-8588-7d1dd8232c11" premiereChannelType="stereo">
    <masterclipid>masterclip-1</masterclipid>
    <name>S01E45.Jiggles.mkv</name>
    <enabled>TRUE</enabled>
    <duration>17218</duration>
    <rate>
        <timebase>23.976</timebase>
        <ntsc>FALSE</ntsc>
    </rate>
    <start>11870</start>
    <end>11881</end>
    <in>12288</in>
    <out>12299</out>
    <file id="file-5"/>
    <sourcetrack>
   <mediatype>audio</mediatype>
   <trackindex>2</trackindex>
</sourcetrack>
    <labels>
        <label2>Iris</label2>
    </labels>
</clipitem>
<clipitem id="4a38e429-0872-4ee2-98b7-9528d2267396" premiereChannelType="stereo">
    <masterclipid>masterclip-1</masterclipid>
    <name>S01E45.Jiggles.mkv</name>
    <enabled>TRUE</enabled>
    <duration>17218</duration>
    <rate>
        <timebase>23.976</timebase>
        <ntsc>FALSE</ntsc>
    </rate>
    <start>11881</start>
    <end>11893</end>
    <in>12299</in>
    <out>12311</out>
    <file id="file-5"/>
    <sourcetrack>
   <mediatype>audio</mediatype>
   <trackindex>2</trackindex>
</sourcetrack>
    <labels>
        <label2>Iris</label2>
    </labels>
</clipitem>
<clipitem id="ffe2c251-2439-4070-af7a-d304ae5a8cbe" premiereChannelType="stereo">
    <masterclipid>masterclip-1</masterclipid>
    <name>S01E45.Jiggles.mkv</name>
    <enabled>TRUE</enabled>
    <duration>17218</duration>
    <rate>
        <timebase>23.976</timebase>
        <ntsc>FALSE</ntsc>
    </rate>
    <start>11893</start>
    <end>11917</end>
    <in>12311</in>
    <out>12335</out>
    <file id="file-5"/>
    <sourcetrack>
   <mediatype>audio</mediatype>
   <trackindex>2</trackindex>
</sourcetrack>
    <labels>
        <label2>Iris</label2>
    </labels>
</clipitem>
<clipitem id="688ce1d6-e189-4eea-954a-ad289f3b6f59" premiereChannelType="stereo">
    <masterclipid>masterclip-1</masterclipid>
    <name>S01E45.Jiggles.mkv</name>
    <enabled>TRUE</enabled>
    <duration>17218</duration>
    <rate>
        <timebase>23.976</timebase>
        <ntsc>FALSE</ntsc>
    </rate>
    <start>11917</start>
    <end>11928</end>
    <in>12335</in>
    <out>12346</out>
    <file id="file-5"/>
    <sourcetrack>
   <mediatype>audio</mediatype>
   <trackindex>2</trackindex>
</sourcetrack>
    <labels>
        <label2>Iris</label2>
    </labels>
</clipitem>
<clipitem id="33954a6b-d79d-46cc-914f-b822dc380529" premiereChannelType="stereo">
    <masterclipid>masterclip-1</masterclipid>
    <name>S01E45.Jiggles.mkv</name>
    <enabled>TRUE</enabled>
    <duration>17218</duration>
    <rate>
        <timebase>23.976</timebase>
        <ntsc>FALSE</ntsc>
    </rate>
    <start>11930</start>
    <end>11941</end>
    <in>12348</in>
    <out>12359</out>
    <file id="file-5"/>
    <sourcetrack>
   <mediatype>audio</mediatype>
   <trackindex>2</trackindex>
</sourcetrack>
    <labels>
        <label2>Iris</label2>
    </labels>
</clipitem>
<clipitem id="212661d3-6f2a-4188-adff-1c9d57abd1a9" premiereChannelType="stereo">
    <masterclipid>masterclip-1</masterclipid>
    <name>S01E45.Jiggles.mkv</name>
    <enabled>TRUE</enabled>
    <duration>17218</duration>
    <rate>
        <timebase>23.976</timebase>
        <ntsc>FALSE</ntsc>
    </rate>
    <start>11941</start>
    <end>11975</end>
    <in>12359</in>
    <out>12393</out>
    <file id="file-5"/>
    <sourcetrack>
   <mediatype>audio</mediatype>
   <trackindex>2</trackindex>
</sourcetrack>
    <labels>
        <label2>Iris</label2>
    </labels>
</clipitem>
<clipitem id="f57f5d95-d94c-4751-9010-f9fbd336c0d8" premiereChannelType="stereo">
    <masterclipid>masterclip-1</masterclipid>
    <name>S01E45.Jiggles.mkv</name>
    <enabled>TRUE</enabled>
    <duration>17218</duration>
    <rate>
        <timebase>23.976</timebase>
        <ntsc>FALSE</ntsc>
    </rate>
    <start>11975</start>
    <end>11998</end>
    <in>12393</in>
    <out>12416</out>
    <file id="file-5"/>
    <sourcetrack>
   <mediatype>audio</mediatype>
   <trackindex>2</trackindex>
</sourcetrack>
    <labels>
        <label2>Iris</label2>
    </labels>
</clipitem>
<clipitem id="95c9984c-2800-43b8-848f-ff05a9df34f2" premiereChannelType="stereo">
    <masterclipid>masterclip-1</masterclipid>
    <name>S01E45.Jiggles.mkv</name>
    <enabled>TRUE</enabled>
    <duration>17218</duration>
    <rate>
        <timebase>23.976</timebase>
        <ntsc>FALSE</ntsc>
    </rate>
    <start>11998</start>
    <end>12107</end>
    <in>12419</in>
    <out>12528</out>
    <file id="file-5"/>
    <sourcetrack>
   <mediatype>audio</mediatype>
   <trackindex>2</trackindex>
</sourcetrack>
    <labels>
        <label2>Iris</label2>
    </labels>
</clipitem>
<clipitem id="4d0fc437-7e09-4d8b-ba97-b256b779a0ab" premiereChannelType="stereo">
    <masterclipid>masterclip-1</masterclipid>
    <name>S01E45.Jiggles.mkv</name>
    <enabled>TRUE</enabled>
    <duration>17218</duration>
    <rate>
        <timebase>23.976</timebase>
        <ntsc>FALSE</ntsc>
    </rate>
    <start>12120</start>
    <end>12164</end>
    <in>12529</in>
    <out>12573</out>
    <file id="file-5"/>
    <sourcetrack>
   <mediatype>audio</mediatype>
   <trackindex>2</trackindex>
</sourcetrack>
    <labels>
        <label2>Iris</label2>
    </labels>
</clipitem>
<clipitem id="1decf08b-4cbc-47b6-ad28-f53073a2c060" premiereChannelType="stereo">
    <masterclipid>masterclip-1</masterclipid>
    <name>S01E45.Jiggles.mkv</name>
    <enabled>TRUE</enabled>
    <duration>17218</duration>
    <rate>
        <timebase>23.976</timebase>
        <ntsc>FALSE</ntsc>
    </rate>
    <start>12164</start>
    <end>12175</end>
    <in>12576</in>
    <out>12587</out>
    <file id="file-5"/>
    <sourcetrack>
   <mediatype>audio</mediatype>
   <trackindex>2</trackindex>
</sourcetrack>
    <labels>
        <label2>Iris</label2>
    </labels>
</clipitem>
<clipitem id="9b8af0a9-d51b-427d-833d-d9a4072eeeda" premiereChannelType="stereo">
    <masterclipid>masterclip-1</masterclipid>
    <name>S01E45.Jiggles.mkv</name>
    <enabled>TRUE</enabled>
    <duration>17218</duration>
    <rate>
        <timebase>23.976</timebase>
        <ntsc>FALSE</ntsc>
    </rate>
    <start>12175</start>
    <end>12186</end>
    <in>12587</in>
    <out>12598</out>
    <file id="file-5"/>
    <sourcetrack>
   <mediatype>audio</mediatype>
   <trackindex>2</trackindex>
</sourcetrack>
    <labels>
        <label2>Iris</label2>
    </labels>
</clipitem>
<clipitem id="922c8056-0f05-43fe-a3d8-c86f204ec05f" premiereChannelType="stereo">
    <masterclipid>masterclip-1</masterclipid>
    <name>S01E45.Jiggles.mkv</name>
    <enabled>TRUE</enabled>
    <duration>17218</duration>
    <rate>
        <timebase>23.976</timebase>
        <ntsc>FALSE</ntsc>
    </rate>
    <start>12186</start>
    <end>12199</end>
    <in>12623</in>
    <out>12636</out>
    <file id="file-5"/>
    <sourcetrack>
   <mediatype>audio</mediatype>
   <trackindex>2</trackindex>
</sourcetrack>
    <labels>
        <label2>Iris</label2>
    </labels>
</clipitem>
<clipitem id="a2daae65-be67-4489-b15c-762e4d722400" premiereChannelType="stereo">
    <masterclipid>masterclip-1</masterclipid>
    <name>S01E45.Jiggles.mkv</name>
    <enabled>TRUE</enabled>
    <duration>17218</duration>
    <rate>
        <timebase>23.976</timebase>
        <ntsc>FALSE</ntsc>
    </rate>
    <start>12199</start>
    <end>12211</end>
    <in>12611</in>
    <out>12623</out>
    <file id="file-5"/>
    <sourcetrack>
   <mediatype>audio</mediatype>
   <trackindex>2</trackindex>
</sourcetrack>
    <labels>
        <label2>Iris</label2>
    </labels>
</clipitem>
<clipitem id="e1ffbb32-bc5d-4927-b36a-781ddd698419" premiereChannelType="stereo">
    <masterclipid>masterclip-1</masterclipid>
    <name>S01E45.Jiggles.mkv</name>
    <enabled>TRUE</enabled>
    <duration>17218</duration>
    <rate>
        <timebase>23.976</timebase>
        <ntsc>FALSE</ntsc>
    </rate>
    <start>12211</start>
    <end>12226</end>
    <in>12623</in>
    <out>12638</out>
    <file id="file-5"/>
    <sourcetrack>
   <mediatype>audio</mediatype>
   <trackindex>2</trackindex>
</sourcetrack>
    <labels>
        <label2>Iris</label2>
    </labels>
</clipitem>
<clipitem id="7ad33c59-7549-4664-9b9f-0141f9918e07" premiereChannelType="stereo">
    <masterclipid>masterclip-1</masterclipid>
    <name>S01E45.Jiggles.mkv</name>
    <enabled>TRUE</enabled>
    <duration>17218</duration>
    <rate>
        <timebase>23.976</timebase>
        <ntsc>FALSE</ntsc>
    </rate>
    <start>12226</start>
    <end>12246</end>
    <in>12638</in>
    <out>12658</out>
    <file id="file-5"/>
    <sourcetrack>
   <mediatype>audio</mediatype>
   <trackindex>2</trackindex>
</sourcetrack>
    <labels>
        <label2>Iris</label2>
    </labels>
</clipitem>
<clipitem id="dcdc2f15-72f2-4c73-b623-d556903fd9ac" premiereChannelType="stereo">
    <masterclipid>masterclip-1</masterclipid>
    <name>S01E45.Jiggles.mkv</name>
    <enabled>TRUE</enabled>
    <duration>17218</duration>
    <rate>
        <timebase>23.976</timebase>
        <ntsc>FALSE</ntsc>
    </rate>
    <start>12246</start>
    <end>12279</end>
    <in>12658</in>
    <out>12691</out>
    <file id="file-5"/>
    <sourcetrack>
   <mediatype>audio</mediatype>
   <trackindex>2</trackindex>
</sourcetrack>
    <labels>
        <label2>Iris</label2>
    </labels>
</clipitem>
<clipitem id="41517907-40f0-4a8d-abcc-c670fba0e000" premiereChannelType="stereo">
    <masterclipid>masterclip-1</masterclipid>
    <name>S01E45.Jiggles.mkv</name>
    <enabled>TRUE</enabled>
    <duration>17218</duration>
    <rate>
        <timebase>23.976</timebase>
        <ntsc>FALSE</ntsc>
    </rate>
    <start>12279</start>
    <end>12297</end>
    <in>12691</in>
    <out>12709</out>
    <file id="file-5"/>
    <sourcetrack>
   <mediatype>audio</mediatype>
   <trackindex>2</trackindex>
</sourcetrack>
    <labels>
        <label2>Iris</label2>
    </labels>
</clipitem>
<clipitem id="2b193380-196b-4529-8fe6-95cf73b23f0a" premiereChannelType="stereo">
    <masterclipid>masterclip-1</masterclipid>
    <name>S01E45.Jiggles.mkv</name>
    <enabled>TRUE</enabled>
    <duration>17218</duration>
    <rate>
        <timebase>23.976</timebase>
        <ntsc>FALSE</ntsc>
    </rate>
    <start>12297</start>
    <end>12347</end>
    <in>12709</in>
    <out>12759</out>
    <file id="file-5"/>
    <sourcetrack>
   <mediatype>audio</mediatype>
   <trackindex>2</trackindex>
</sourcetrack>
    <labels>
        <label2>Iris</label2>
    </labels>
</clipitem>
<clipitem id="aa95a176-19b7-44c4-bda0-7b2406ea18e8" premiereChannelType="stereo">
    <masterclipid>masterclip-1</masterclipid>
    <name>S01E45.Jiggles.mkv</name>
    <enabled>TRUE</enabled>
    <duration>17218</duration>
    <rate>
        <timebase>23.976</timebase>
        <ntsc>FALSE</ntsc>
    </rate>
    <start>12347</start>
    <end>12398</end>
    <in>12759</in>
    <out>12810</out>
    <file id="file-5"/>
    <sourcetrack>
   <mediatype>audio</mediatype>
   <trackindex>2</trackindex>
</sourcetrack>
    <labels>
        <label2>Iris</label2>
    </labels>
</clipitem>
<clipitem id="1eab8179-7801-4888-b0fd-5664319a3e26" premiereChannelType="stereo">
    <masterclipid>masterclip-1</masterclipid>
    <name>S01E45.Jiggles.mkv</name>
    <enabled>TRUE</enabled>
    <duration>17218</duration>
    <rate>
        <timebase>23.976</timebase>
        <ntsc>FALSE</ntsc>
    </rate>
    <start>12398</start>
    <end>12466</end>
    <in>12809</in>
    <out>12877</out>
    <file id="file-5"/>
    <sourcetrack>
   <mediatype>audio</mediatype>
   <trackindex>2</trackindex>
</sourcetrack>
    <labels>
        <label2>Iris</label2>
    </labels>
</clipitem>
<clipitem id="b7a599b6-8814-423e-9df0-def6293a8110" premiereChannelType="stereo">
    <masterclipid>masterclip-1</masterclipid>
    <name>S01E45.Jiggles.mkv</name>
    <enabled>TRUE</enabled>
    <duration>17218</duration>
    <rate>
        <timebase>23.976</timebase>
        <ntsc>FALSE</ntsc>
    </rate>
    <start>12466</start>
    <end>12478</end>
    <in>12878</in>
    <out>12890</out>
    <file id="file-5"/>
    <sourcetrack>
   <mediatype>audio</mediatype>
   <trackindex>2</trackindex>
</sourcetrack>
    <labels>
        <label2>Iris</label2>
    </labels>
</clipitem>
<clipitem id="30e7875c-e7ff-41ef-b7e0-3c0de15003b4" premiereChannelType="stereo">
    <masterclipid>masterclip-1</masterclipid>
    <name>S01E45.Jiggles.mkv</name>
    <enabled>TRUE</enabled>
    <duration>17218</duration>
    <rate>
        <timebase>23.976</timebase>
        <ntsc>FALSE</ntsc>
    </rate>
    <start>12478</start>
    <end>12497</end>
    <in>12890</in>
    <out>12909</out>
    <file id="file-5"/>
    <sourcetrack>
   <mediatype>audio</mediatype>
   <trackindex>2</trackindex>
</sourcetrack>
    <labels>
        <label2>Iris</label2>
    </labels>
</clipitem>
<clipitem id="e0be67e8-3a9f-4e9b-82e0-b620119449df" premiereChannelType="stereo">
    <masterclipid>masterclip-1</masterclipid>
    <name>S01E45.Jiggles.mkv</name>
    <enabled>TRUE</enabled>
    <duration>17218</duration>
    <rate>
        <timebase>23.976</timebase>
        <ntsc>FALSE</ntsc>
    </rate>
    <start>12497</start>
    <end>12511</end>
    <in>12909</in>
    <out>12923</out>
    <file id="file-5"/>
    <sourcetrack>
   <mediatype>audio</mediatype>
   <trackindex>2</trackindex>
</sourcetrack>
    <labels>
        <label2>Iris</label2>
    </labels>
</clipitem>
<clipitem id="d8f910de-7109-4a38-b58c-d43077ac21b4" premiereChannelType="stereo">
    <masterclipid>masterclip-1</masterclipid>
    <name>S01E45.Jiggles.mkv</name>
    <enabled>TRUE</enabled>
    <duration>17218</duration>
    <rate>
        <timebase>23.976</timebase>
        <ntsc>FALSE</ntsc>
    </rate>
    <start>12511</start>
    <end>12523</end>
    <in>12923</in>
    <out>12935</out>
    <file id="file-5"/>
    <sourcetrack>
   <mediatype>audio</mediatype>
   <trackindex>2</trackindex>
</sourcetrack>
    <labels>
        <label2>Iris</label2>
    </labels>
</clipitem>
<clipitem id="18b7e570-3ffc-4dd8-a926-6f57b20cab97" premiereChannelType="stereo">
    <masterclipid>masterclip-1</masterclipid>
    <name>S01E45.Jiggles.mkv</name>
    <enabled>TRUE</enabled>
    <duration>17218</duration>
    <rate>
        <timebase>23.976</timebase>
        <ntsc>FALSE</ntsc>
    </rate>
    <start>12523</start>
    <end>12537</end>
    <in>12935</in>
    <out>12949</out>
    <file id="file-5"/>
    <sourcetrack>
   <mediatype>audio</mediatype>
   <trackindex>2</trackindex>
</sourcetrack>
    <labels>
        <label2>Iris</label2>
    </labels>
</clipitem>
<clipitem id="9a6cc2a4-9c53-40f4-b1b8-7bbb2869477a" premiereChannelType="stereo">
    <masterclipid>masterclip-1</masterclipid>
    <name>S01E45.Jiggles.mkv</name>
    <enabled>TRUE</enabled>
    <duration>17218</duration>
    <rate>
        <timebase>23.976</timebase>
        <ntsc>FALSE</ntsc>
    </rate>
    <start>12537</start>
    <end>12552</end>
    <in>12949</in>
    <out>12964</out>
    <file id="file-5"/>
    <sourcetrack>
   <mediatype>audio</mediatype>
   <trackindex>2</trackindex>
</sourcetrack>
    <labels>
        <label2>Iris</label2>
    </labels>
</clipitem>
<clipitem id="b180056a-5ca9-49f2-be55-b3bbe0c97ffe" premiereChannelType="stereo">
    <masterclipid>masterclip-1</masterclipid>
    <name>S01E45.Jiggles.mkv</name>
    <enabled>TRUE</enabled>
    <duration>17218</duration>
    <rate>
        <timebase>23.976</timebase>
        <ntsc>FALSE</ntsc>
    </rate>
    <start>12552</start>
    <end>12569</end>
    <in>12964</in>
    <out>12981</out>
    <file id="file-5"/>
    <sourcetrack>
   <mediatype>audio</mediatype>
   <trackindex>2</trackindex>
</sourcetrack>
    <labels>
        <label2>Iris</label2>
    </labels>
</clipitem>
<clipitem id="d9d98420-3dec-4bf9-bd02-bf16d60e742a" premiereChannelType="stereo">
    <masterclipid>masterclip-1</masterclipid>
    <name>S01E45.Jiggles.mkv</name>
    <enabled>TRUE</enabled>
    <duration>17218</duration>
    <rate>
        <timebase>23.976</timebase>
        <ntsc>FALSE</ntsc>
    </rate>
    <start>12569</start>
    <end>12584</end>
    <in>12981</in>
    <out>12996</out>
    <file id="file-5"/>
    <sourcetrack>
   <mediatype>audio</mediatype>
   <trackindex>2</trackindex>
</sourcetrack>
    <labels>
        <label2>Iris</label2>
    </labels>
</clipitem>
<clipitem id="b2bc78d8-ac33-46a3-b464-9a4c9afa0f1f" premiereChannelType="stereo">
    <masterclipid>masterclip-1</masterclipid>
    <name>S01E45.Jiggles.mkv</name>
    <enabled>TRUE</enabled>
    <duration>17218</duration>
    <rate>
        <timebase>23.976</timebase>
        <ntsc>FALSE</ntsc>
    </rate>
    <start>12584</start>
    <end>12596</end>
    <in>12996</in>
    <out>13008</out>
    <file id="file-5"/>
    <sourcetrack>
   <mediatype>audio</mediatype>
   <trackindex>2</trackindex>
</sourcetrack>
    <labels>
        <label2>Iris</label2>
    </labels>
</clipitem>
<clipitem id="ed7673a0-beb9-47cc-9444-2519d584ff8c" premiereChannelType="stereo">
    <masterclipid>masterclip-1</masterclipid>
    <name>S01E45.Jiggles.mkv</name>
    <enabled>TRUE</enabled>
    <duration>17218</duration>
    <rate>
        <timebase>23.976</timebase>
        <ntsc>FALSE</ntsc>
    </rate>
    <start>12596</start>
    <end>12607</end>
    <in>13013</in>
    <out>13024</out>
    <file id="file-5"/>
    <sourcetrack>
   <mediatype>audio</mediatype>
   <trackindex>2</trackindex>
</sourcetrack>
    <labels>
        <label2>Iris</label2>
    </labels>
</clipitem>
<clipitem id="6756aa1c-27b3-4b81-af04-e8c7d719f82a" premiereChannelType="stereo">
    <masterclipid>masterclip-1</masterclipid>
    <name>S01E45.Jiggles.mkv</name>
    <enabled>TRUE</enabled>
    <duration>17218</duration>
    <rate>
        <timebase>23.976</timebase>
        <ntsc>FALSE</ntsc>
    </rate>
    <start>12607</start>
    <end>12618</end>
    <in>13018</in>
    <out>13029</out>
    <file id="file-5"/>
    <sourcetrack>
   <mediatype>audio</mediatype>
   <trackindex>2</trackindex>
</sourcetrack>
    <labels>
        <label2>Iris</label2>
    </labels>
</clipitem>
<clipitem id="1b5763db-3c4c-44b6-b06b-213509c75953" premiereChannelType="stereo">
    <masterclipid>masterclip-1</masterclipid>
    <name>S01E45.Jiggles.mkv</name>
    <enabled>TRUE</enabled>
    <duration>17218</duration>
    <rate>
        <timebase>23.976</timebase>
        <ntsc>FALSE</ntsc>
    </rate>
    <start>12618</start>
    <end>12648</end>
    <in>13029</in>
    <out>13059</out>
    <file id="file-5"/>
    <sourcetrack>
   <mediatype>audio</mediatype>
   <trackindex>2</trackindex>
</sourcetrack>
    <labels>
        <label2>Iris</label2>
    </labels>
</clipitem>
<clipitem id="cb8662d8-1240-44be-8f14-856ab48d9e20" premiereChannelType="stereo">
    <masterclipid>masterclip-1</masterclipid>
    <name>S01E45.Jiggles.mkv</name>
    <enabled>TRUE</enabled>
    <duration>17218</duration>
    <rate>
        <timebase>23.976</timebase>
        <ntsc>FALSE</ntsc>
    </rate>
    <start>12648</start>
    <end>12663</end>
    <in>13059</in>
    <out>13074</out>
    <file id="file-5"/>
    <sourcetrack>
   <mediatype>audio</mediatype>
   <trackindex>2</trackindex>
</sourcetrack>
    <labels>
        <label2>Iris</label2>
    </labels>
</clipitem>
<clipitem id="6ce457d2-8495-4736-b037-db4f76c39e12" premiereChannelType="stereo">
    <masterclipid>masterclip-1</masterclipid>
    <name>S01E45.Jiggles.mkv</name>
    <enabled>TRUE</enabled>
    <duration>17218</duration>
    <rate>
        <timebase>23.976</timebase>
        <ntsc>FALSE</ntsc>
    </rate>
    <start>12663</start>
    <end>12686</end>
    <in>13074</in>
    <out>13097</out>
    <file id="file-5"/>
    <sourcetrack>
   <mediatype>audio</mediatype>
   <trackindex>2</trackindex>
</sourcetrack>
    <labels>
        <label2>Iris</label2>
    </labels>
</clipitem>
<clipitem id="412aa3f8-8755-4464-a9e7-85f3f45a6b17" premiereChannelType="stereo">
    <masterclipid>masterclip-1</masterclipid>
    <name>S01E45.Jiggles.mkv</name>
    <enabled>TRUE</enabled>
    <duration>17218</duration>
    <rate>
        <timebase>23.976</timebase>
        <ntsc>FALSE</ntsc>
    </rate>
    <start>12686</start>
    <end>12699</end>
    <in>13097</in>
    <out>13110</out>
    <file id="file-5"/>
    <sourcetrack>
   <mediatype>audio</mediatype>
   <trackindex>2</trackindex>
</sourcetrack>
    <labels>
        <label2>Iris</label2>
    </labels>
</clipitem>
<clipitem id="31528d72-31ee-4411-80d3-2a15c9736cc1" premiereChannelType="stereo">
    <masterclipid>masterclip-1</masterclipid>
    <name>S01E45.Jiggles.mkv</name>
    <enabled>TRUE</enabled>
    <duration>17218</duration>
    <rate>
        <timebase>23.976</timebase>
        <ntsc>FALSE</ntsc>
    </rate>
    <start>12699</start>
    <end>12710</end>
    <in>13110</in>
    <out>13121</out>
    <file id="file-5"/>
    <sourcetrack>
   <mediatype>audio</mediatype>
   <trackindex>2</trackindex>
</sourcetrack>
    <labels>
        <label2>Iris</label2>
    </labels>
</clipitem>
<clipitem id="60238b83-c928-4190-a611-c2f75c99d33b" premiereChannelType="stereo">
    <masterclipid>masterclip-1</masterclipid>
    <name>S01E45.Jiggles.mkv</name>
    <enabled>TRUE</enabled>
    <duration>17218</duration>
    <rate>
        <timebase>23.976</timebase>
        <ntsc>FALSE</ntsc>
    </rate>
    <start>12710</start>
    <end>12721</end>
    <in>13121</in>
    <out>13132</out>
    <file id="file-5"/>
    <sourcetrack>
   <mediatype>audio</mediatype>
   <trackindex>2</trackindex>
</sourcetrack>
    <labels>
        <label2>Iris</label2>
    </labels>
</clipitem>
<clipitem id="da3336e4-5363-4daa-bdeb-4a1efaa9424f" premiereChannelType="stereo">
    <masterclipid>masterclip-1</masterclipid>
    <name>S01E45.Jiggles.mkv</name>
    <enabled>TRUE</enabled>
    <duration>17218</duration>
    <rate>
        <timebase>23.976</timebase>
        <ntsc>FALSE</ntsc>
    </rate>
    <start>12721</start>
    <end>12732</end>
    <in>13132</in>
    <out>13143</out>
    <file id="file-5"/>
    <sourcetrack>
   <mediatype>audio</mediatype>
   <trackindex>2</trackindex>
</sourcetrack>
    <labels>
        <label2>Iris</label2>
    </labels>
</clipitem>
<clipitem id="9d65dee9-5582-4f82-b533-abe23912f9ef" premiereChannelType="stereo">
    <masterclipid>masterclip-1</masterclipid>
    <name>S01E45.Jiggles.mkv</name>
    <enabled>TRUE</enabled>
    <duration>17218</duration>
    <rate>
        <timebase>23.976</timebase>
        <ntsc>FALSE</ntsc>
    </rate>
    <start>12732</start>
    <end>12763</end>
    <in>13143</in>
    <out>13174</out>
    <file id="file-5"/>
    <sourcetrack>
   <mediatype>audio</mediatype>
   <trackindex>2</trackindex>
</sourcetrack>
    <labels>
        <label2>Iris</label2>
    </labels>
</clipitem>
<clipitem id="fbc319f5-88aa-4cc4-8c0c-6da8af235969" premiereChannelType="stereo">
    <masterclipid>masterclip-1</masterclipid>
    <name>S01E45.Jiggles.mkv</name>
    <enabled>TRUE</enabled>
    <duration>17218</duration>
    <rate>
        <timebase>23.976</timebase>
        <ntsc>FALSE</ntsc>
    </rate>
    <start>12763</start>
    <end>12777</end>
    <in>13174</in>
    <out>13188</out>
    <file id="file-5"/>
    <sourcetrack>
   <mediatype>audio</mediatype>
   <trackindex>2</trackindex>
</sourcetrack>
    <labels>
        <label2>Iris</label2>
    </labels>
</clipitem>
<clipitem id="15d06976-fb4b-45eb-8b85-20e67df3fb4b" premiereChannelType="stereo">
    <masterclipid>masterclip-1</masterclipid>
    <name>S01E45.Jiggles.mkv</name>
    <enabled>TRUE</enabled>
    <duration>17218</duration>
    <rate>
        <timebase>23.976</timebase>
        <ntsc>FALSE</ntsc>
    </rate>
    <start>12777</start>
    <end>12788</end>
    <in>13188</in>
    <out>13199</out>
    <file id="file-5"/>
    <sourcetrack>
   <mediatype>audio</mediatype>
   <trackindex>2</trackindex>
</sourcetrack>
    <labels>
        <label2>Iris</label2>
    </labels>
</clipitem>
<clipitem id="36e58e70-9049-4003-88aa-7733eaf40f83" premiereChannelType="stereo">
    <masterclipid>masterclip-1</masterclipid>
    <name>S01E45.Jiggles.mkv</name>
    <enabled>TRUE</enabled>
    <duration>17218</duration>
    <rate>
        <timebase>23.976</timebase>
        <ntsc>FALSE</ntsc>
    </rate>
    <start>12788</start>
    <end>12799</end>
    <in>13199</in>
    <out>13210</out>
    <file id="file-5"/>
    <sourcetrack>
   <mediatype>audio</mediatype>
   <trackindex>2</trackindex>
</sourcetrack>
    <labels>
        <label2>Iris</label2>
    </labels>
</clipitem>
<clipitem id="4f87504c-1070-4159-874c-c2089fc00dfd" premiereChannelType="stereo">
    <masterclipid>masterclip-1</masterclipid>
    <name>S01E45.Jiggles.mkv</name>
    <enabled>TRUE</enabled>
    <duration>17218</duration>
    <rate>
        <timebase>23.976</timebase>
        <ntsc>FALSE</ntsc>
    </rate>
    <start>12799</start>
    <end>12811</end>
    <in>13209</in>
    <out>13221</out>
    <file id="file-5"/>
    <sourcetrack>
   <mediatype>audio</mediatype>
   <trackindex>2</trackindex>
</sourcetrack>
    <labels>
        <label2>Iris</label2>
    </labels>
</clipitem>
<clipitem id="29dd537a-a1d0-420e-8f4e-ad9441b54c91" premiereChannelType="stereo">
    <masterclipid>masterclip-1</masterclipid>
    <name>S01E45.Jiggles.mkv</name>
    <enabled>TRUE</enabled>
    <duration>17218</duration>
    <rate>
        <timebase>23.976</timebase>
        <ntsc>FALSE</ntsc>
    </rate>
    <start>12811</start>
    <end>12868</end>
    <in>13222</in>
    <out>13279</out>
    <file id="file-5"/>
    <sourcetrack>
   <mediatype>audio</mediatype>
   <trackindex>2</trackindex>
</sourcetrack>
    <labels>
        <label2>Iris</label2>
    </labels>
</clipitem>
<clipitem id="bbbce5b3-8b2b-4058-a70a-93d5533c5dd2" premiereChannelType="stereo">
    <masterclipid>masterclip-1</masterclipid>
    <name>S01E45.Jiggles.mkv</name>
    <enabled>TRUE</enabled>
    <duration>17218</duration>
    <rate>
        <timebase>23.976</timebase>
        <ntsc>FALSE</ntsc>
    </rate>
    <start>12868</start>
    <end>12879</end>
    <in>13279</in>
    <out>13290</out>
    <file id="file-5"/>
    <sourcetrack>
   <mediatype>audio</mediatype>
   <trackindex>2</trackindex>
</sourcetrack>
    <labels>
        <label2>Iris</label2>
    </labels>
</clipitem>
<clipitem id="13a11b33-e4ed-4905-9690-b3b22867f954" premiereChannelType="stereo">
    <masterclipid>masterclip-1</masterclipid>
    <name>S01E45.Jiggles.mkv</name>
    <enabled>TRUE</enabled>
    <duration>17218</duration>
    <rate>
        <timebase>23.976</timebase>
        <ntsc>FALSE</ntsc>
    </rate>
    <start>12879</start>
    <end>12905</end>
    <in>13290</in>
    <out>13316</out>
    <file id="file-5"/>
    <sourcetrack>
   <mediatype>audio</mediatype>
   <trackindex>2</trackindex>
</sourcetrack>
    <labels>
        <label2>Iris</label2>
    </labels>
</clipitem>
<clipitem id="f2eb2cdd-8e66-42ac-aa2b-89fec66ac5b9" premiereChannelType="stereo">
    <masterclipid>masterclip-1</masterclipid>
    <name>S01E45.Jiggles.mkv</name>
    <enabled>TRUE</enabled>
    <duration>17218</duration>
    <rate>
        <timebase>23.976</timebase>
        <ntsc>FALSE</ntsc>
    </rate>
    <start>12905</start>
    <end>12929</end>
    <in>13316</in>
    <out>13340</out>
    <file id="file-5"/>
    <sourcetrack>
   <mediatype>audio</mediatype>
   <trackindex>2</trackindex>
</sourcetrack>
    <labels>
        <label2>Iris</label2>
    </labels>
</clipitem>
<clipitem id="38a73db4-9558-4b96-9b2c-6ed3babf94a1" premiereChannelType="stereo">
    <masterclipid>masterclip-1</masterclipid>
    <name>S01E45.Jiggles.mkv</name>
    <enabled>TRUE</enabled>
    <duration>17218</duration>
    <rate>
        <timebase>23.976</timebase>
        <ntsc>FALSE</ntsc>
    </rate>
    <start>12929</start>
    <end>12949</end>
    <in>13340</in>
    <out>13360</out>
    <file id="file-5"/>
    <sourcetrack>
   <mediatype>audio</mediatype>
   <trackindex>2</trackindex>
</sourcetrack>
    <labels>
        <label2>Iris</label2>
    </labels>
</clipitem>
<clipitem id="9e2b3e20-ee3a-424d-ac91-9283b231bc59" premiereChannelType="stereo">
    <masterclipid>masterclip-1</masterclipid>
    <name>S01E45.Jiggles.mkv</name>
    <enabled>TRUE</enabled>
    <duration>17218</duration>
    <rate>
        <timebase>23.976</timebase>
        <ntsc>FALSE</ntsc>
    </rate>
    <start>12949</start>
    <end>12961</end>
    <in>13360</in>
    <out>13372</out>
    <file id="file-5"/>
    <sourcetrack>
   <mediatype>audio</mediatype>
   <trackindex>2</trackindex>
</sourcetrack>
    <labels>
        <label2>Iris</label2>
    </labels>
</clipitem>
<clipitem id="9163f949-138f-4d62-8880-17d31f5e55ec" premiereChannelType="stereo">
    <masterclipid>masterclip-1</masterclipid>
    <name>S01E45.Jiggles.mkv</name>
    <enabled>TRUE</enabled>
    <duration>17218</duration>
    <rate>
        <timebase>23.976</timebase>
        <ntsc>FALSE</ntsc>
    </rate>
    <start>12961</start>
    <end>12986</end>
    <in>13372</in>
    <out>13397</out>
    <file id="file-5"/>
    <sourcetrack>
   <mediatype>audio</mediatype>
   <trackindex>2</trackindex>
</sourcetrack>
    <labels>
        <label2>Iris</label2>
    </labels>
</clipitem>
<clipitem id="ec2ffc19-38b0-4948-8b10-c5690f0e29ec" premiereChannelType="stereo">
    <masterclipid>masterclip-1</masterclipid>
    <name>S01E45.Jiggles.mkv</name>
    <enabled>TRUE</enabled>
    <duration>17218</duration>
    <rate>
        <timebase>23.976</timebase>
        <ntsc>FALSE</ntsc>
    </rate>
    <start>12986</start>
    <end>13030</end>
    <in>13397</in>
    <out>13441</out>
    <file id="file-5"/>
    <sourcetrack>
   <mediatype>audio</mediatype>
   <trackindex>2</trackindex>
</sourcetrack>
    <labels>
        <label2>Iris</label2>
    </labels>
</clipitem>
<clipitem id="9e694e25-9ff7-41eb-ac99-134f7dd4b8dd" premiereChannelType="stereo">
    <masterclipid>masterclip-1</masterclipid>
    <name>S01E45.Jiggles.mkv</name>
    <enabled>TRUE</enabled>
    <duration>17218</duration>
    <rate>
        <timebase>23.976</timebase>
        <ntsc>FALSE</ntsc>
    </rate>
    <start>13030</start>
    <end>13050</end>
    <in>13441</in>
    <out>13461</out>
    <file id="file-5"/>
    <sourcetrack>
   <mediatype>audio</mediatype>
   <trackindex>2</trackindex>
</sourcetrack>
    <labels>
        <label2>Iris</label2>
    </labels>
</clipitem>
<clipitem id="e82e63b6-96a0-493d-bb2f-31cee8525146" premiereChannelType="stereo">
    <masterclipid>masterclip-1</masterclipid>
    <name>S01E45.Jiggles.mkv</name>
    <enabled>TRUE</enabled>
    <duration>17218</duration>
    <rate>
        <timebase>23.976</timebase>
        <ntsc>FALSE</ntsc>
    </rate>
    <start>13050</start>
    <end>13061</end>
    <in>13461</in>
    <out>13472</out>
    <file id="file-5"/>
    <sourcetrack>
   <mediatype>audio</mediatype>
   <trackindex>2</trackindex>
</sourcetrack>
    <labels>
        <label2>Iris</label2>
    </labels>
</clipitem>
<clipitem id="19f0b785-97c4-4749-bf25-c95e827d3c89" premiereChannelType="stereo">
    <masterclipid>masterclip-1</masterclipid>
    <name>S01E45.Jiggles.mkv</name>
    <enabled>TRUE</enabled>
    <duration>17218</duration>
    <rate>
        <timebase>23.976</timebase>
        <ntsc>FALSE</ntsc>
    </rate>
    <start>13061</start>
    <end>13082</end>
    <in>13472</in>
    <out>13493</out>
    <file id="file-5"/>
    <sourcetrack>
   <mediatype>audio</mediatype>
   <trackindex>2</trackindex>
</sourcetrack>
    <labels>
        <label2>Iris</label2>
    </labels>
</clipitem>
<clipitem id="88998882-fecc-4513-8340-ed990c1320c7" premiereChannelType="stereo">
    <masterclipid>masterclip-1</masterclipid>
    <name>S01E45.Jiggles.mkv</name>
    <enabled>TRUE</enabled>
    <duration>17218</duration>
    <rate>
        <timebase>23.976</timebase>
        <ntsc>FALSE</ntsc>
    </rate>
    <start>13082</start>
    <end>13093</end>
    <in>13493</in>
    <out>13504</out>
    <file id="file-5"/>
    <sourcetrack>
   <mediatype>audio</mediatype>
   <trackindex>2</trackindex>
</sourcetrack>
    <labels>
        <label2>Iris</label2>
    </labels>
</clipitem>
<clipitem id="be9ee534-48b8-411b-9a20-7713b4a56e7d" premiereChannelType="stereo">
    <masterclipid>masterclip-1</masterclipid>
    <name>S01E45.Jiggles.mkv</name>
    <enabled>TRUE</enabled>
    <duration>17218</duration>
    <rate>
        <timebase>23.976</timebase>
        <ntsc>FALSE</ntsc>
    </rate>
    <start>13093</start>
    <end>13104</end>
    <in>13504</in>
    <out>13515</out>
    <file id="file-5"/>
    <sourcetrack>
   <mediatype>audio</mediatype>
   <trackindex>2</trackindex>
</sourcetrack>
    <labels>
        <label2>Iris</label2>
    </labels>
</clipitem>
<clipitem id="195739c0-ca89-449b-90aa-442f55cc1a8a" premiereChannelType="stereo">
    <masterclipid>masterclip-1</masterclipid>
    <name>S01E45.Jiggles.mkv</name>
    <enabled>TRUE</enabled>
    <duration>17218</duration>
    <rate>
        <timebase>23.976</timebase>
        <ntsc>FALSE</ntsc>
    </rate>
    <start>13104</start>
    <end>13156</end>
    <in>13515</in>
    <out>13567</out>
    <file id="file-5"/>
    <sourcetrack>
   <mediatype>audio</mediatype>
   <trackindex>2</trackindex>
</sourcetrack>
    <labels>
        <label2>Iris</label2>
    </labels>
</clipitem>
<clipitem id="aee75513-a0e1-4c63-b169-6691a266123d" premiereChannelType="stereo">
    <masterclipid>masterclip-1</masterclipid>
    <name>S01E45.Jiggles.mkv</name>
    <enabled>TRUE</enabled>
    <duration>17218</duration>
    <rate>
        <timebase>23.976</timebase>
        <ntsc>FALSE</ntsc>
    </rate>
    <start>13156</start>
    <end>13167</end>
    <in>13567</in>
    <out>13578</out>
    <file id="file-5"/>
    <sourcetrack>
   <mediatype>audio</mediatype>
   <trackindex>2</trackindex>
</sourcetrack>
    <labels>
        <label2>Iris</label2>
    </labels>
</clipitem>
<clipitem id="7988bf2a-a2dc-463c-bf07-20d57f68500e" premiereChannelType="stereo">
    <masterclipid>masterclip-1</masterclipid>
    <name>S01E45.Jiggles.mkv</name>
    <enabled>TRUE</enabled>
    <duration>17218</duration>
    <rate>
        <timebase>23.976</timebase>
        <ntsc>FALSE</ntsc>
    </rate>
    <start>13167</start>
    <end>13196</end>
    <in>13578</in>
    <out>13607</out>
    <file id="file-5"/>
    <sourcetrack>
   <mediatype>audio</mediatype>
   <trackindex>2</trackindex>
</sourcetrack>
    <labels>
        <label2>Iris</label2>
    </labels>
</clipitem>
<clipitem id="951cac13-a56a-4161-8cff-ffc647ea0e85" premiereChannelType="stereo">
    <masterclipid>masterclip-1</masterclipid>
    <name>S01E45.Jiggles.mkv</name>
    <enabled>TRUE</enabled>
    <duration>17218</duration>
    <rate>
        <timebase>23.976</timebase>
        <ntsc>FALSE</ntsc>
    </rate>
    <start>13196</start>
    <end>13207</end>
    <in>13607</in>
    <out>13618</out>
    <file id="file-5"/>
    <sourcetrack>
   <mediatype>audio</mediatype>
   <trackindex>2</trackindex>
</sourcetrack>
    <labels>
        <label2>Iris</label2>
    </labels>
</clipitem>
<clipitem id="d7f5c3a0-9c8c-4f34-95b4-11ec4f9b0fad" premiereChannelType="stereo">
    <masterclipid>masterclip-1</masterclipid>
    <name>S01E45.Jiggles.mkv</name>
    <enabled>TRUE</enabled>
    <duration>17218</duration>
    <rate>
        <timebase>23.976</timebase>
        <ntsc>FALSE</ntsc>
    </rate>
    <start>13207</start>
    <end>13221</end>
    <in>13618</in>
    <out>13632</out>
    <file id="file-5"/>
    <sourcetrack>
   <mediatype>audio</mediatype>
   <trackindex>2</trackindex>
</sourcetrack>
    <labels>
        <label2>Iris</label2>
    </labels>
</clipitem>
<clipitem id="6737bec2-df9f-4c68-b74d-d821c962e6a3" premiereChannelType="stereo">
    <masterclipid>masterclip-1</masterclipid>
    <name>S01E45.Jiggles.mkv</name>
    <enabled>TRUE</enabled>
    <duration>17218</duration>
    <rate>
        <timebase>23.976</timebase>
        <ntsc>FALSE</ntsc>
    </rate>
    <start>13221</start>
    <end>13238</end>
    <in>13632</in>
    <out>13649</out>
    <file id="file-5"/>
    <sourcetrack>
   <mediatype>audio</mediatype>
   <trackindex>2</trackindex>
</sourcetrack>
    <labels>
        <label2>Iris</label2>
    </labels>
</clipitem>
<clipitem id="c03357a8-9721-4929-a74e-831577024952" premiereChannelType="stereo">
    <masterclipid>masterclip-1</masterclipid>
    <name>S01E45.Jiggles.mkv</name>
    <enabled>TRUE</enabled>
    <duration>17218</duration>
    <rate>
        <timebase>23.976</timebase>
        <ntsc>FALSE</ntsc>
    </rate>
    <start>13238</start>
    <end>13249</end>
    <in>13649</in>
    <out>13660</out>
    <file id="file-5"/>
    <sourcetrack>
   <mediatype>audio</mediatype>
   <trackindex>2</trackindex>
</sourcetrack>
    <labels>
        <label2>Iris</label2>
    </labels>
</clipitem>
<clipitem id="169dc460-e711-41c7-9d5a-274328118ba0" premiereChannelType="stereo">
    <masterclipid>masterclip-1</masterclipid>
    <name>S01E45.Jiggles.mkv</name>
    <enabled>TRUE</enabled>
    <duration>17218</duration>
    <rate>
        <timebase>23.976</timebase>
        <ntsc>FALSE</ntsc>
    </rate>
    <start>13249</start>
    <end>13261</end>
    <in>13659</in>
    <out>13671</out>
    <file id="file-5"/>
    <sourcetrack>
   <mediatype>audio</mediatype>
   <trackindex>2</trackindex>
</sourcetrack>
    <labels>
        <label2>Iris</label2>
    </labels>
</clipitem>
<clipitem id="bf39f04f-a9b6-4d34-a5ec-23a74cf1dd1f" premiereChannelType="stereo">
    <masterclipid>masterclip-1</masterclipid>
    <name>S01E45.Jiggles.mkv</name>
    <enabled>TRUE</enabled>
    <duration>17218</duration>
    <rate>
        <timebase>23.976</timebase>
        <ntsc>FALSE</ntsc>
    </rate>
    <start>13261</start>
    <end>13272</end>
    <in>13672</in>
    <out>13683</out>
    <file id="file-5"/>
    <sourcetrack>
   <mediatype>audio</mediatype>
   <trackindex>2</trackindex>
</sourcetrack>
    <labels>
        <label2>Iris</label2>
    </labels>
</clipitem>
<clipitem id="a9754c59-64a7-4343-a375-5542a14312cf" premiereChannelType="stereo">
    <masterclipid>masterclip-1</masterclipid>
    <name>S01E45.Jiggles.mkv</name>
    <enabled>TRUE</enabled>
    <duration>17218</duration>
    <rate>
        <timebase>23.976</timebase>
        <ntsc>FALSE</ntsc>
    </rate>
    <start>13272</start>
    <end>13319</end>
    <in>13683</in>
    <out>13730</out>
    <file id="file-5"/>
    <sourcetrack>
   <mediatype>audio</mediatype>
   <trackindex>2</trackindex>
</sourcetrack>
    <labels>
        <label2>Iris</label2>
    </labels>
</clipitem>
<clipitem id="6861067a-3c7d-48d3-a954-708f2cebb0ed" premiereChannelType="stereo">
    <masterclipid>masterclip-1</masterclipid>
    <name>S01E45.Jiggles.mkv</name>
    <enabled>TRUE</enabled>
    <duration>17218</duration>
    <rate>
        <timebase>23.976</timebase>
        <ntsc>FALSE</ntsc>
    </rate>
    <start>13319</start>
    <end>13334</end>
    <in>13730</in>
    <out>13745</out>
    <file id="file-5"/>
    <sourcetrack>
   <mediatype>audio</mediatype>
   <trackindex>2</trackindex>
</sourcetrack>
    <labels>
        <label2>Iris</label2>
    </labels>
</clipitem>
<clipitem id="f085935b-79ec-4023-bab3-12bdcb330acf" premiereChannelType="stereo">
    <masterclipid>masterclip-1</masterclipid>
    <name>S01E45.Jiggles.mkv</name>
    <enabled>TRUE</enabled>
    <duration>17218</duration>
    <rate>
        <timebase>23.976</timebase>
        <ntsc>FALSE</ntsc>
    </rate>
    <start>13334</start>
    <end>13350</end>
    <in>13745</in>
    <out>13761</out>
    <file id="file-5"/>
    <sourcetrack>
   <mediatype>audio</mediatype>
   <trackindex>2</trackindex>
</sourcetrack>
    <labels>
        <label2>Iris</label2>
    </labels>
</clipitem>
<clipitem id="741fd6c6-affd-49c0-b9d2-4df99909b55a" premiereChannelType="stereo">
    <masterclipid>masterclip-1</masterclipid>
    <name>S01E45.Jiggles.mkv</name>
    <enabled>TRUE</enabled>
    <duration>17218</duration>
    <rate>
        <timebase>23.976</timebase>
        <ntsc>FALSE</ntsc>
    </rate>
    <start>13350</start>
    <end>13362</end>
    <in>13761</in>
    <out>13773</out>
    <file id="file-5"/>
    <sourcetrack>
   <mediatype>audio</mediatype>
   <trackindex>2</trackindex>
</sourcetrack>
    <labels>
        <label2>Iris</label2>
    </labels>
</clipitem>
<clipitem id="ebd987e4-c67e-4229-83ee-6cacec18a425" premiereChannelType="stereo">
    <masterclipid>masterclip-1</masterclipid>
    <name>S01E45.Jiggles.mkv</name>
    <enabled>TRUE</enabled>
    <duration>17218</duration>
    <rate>
        <timebase>23.976</timebase>
        <ntsc>FALSE</ntsc>
    </rate>
    <start>13362</start>
    <end>13387</end>
    <in>13773</in>
    <out>13798</out>
    <file id="file-5"/>
    <sourcetrack>
   <mediatype>audio</mediatype>
   <trackindex>2</trackindex>
</sourcetrack>
    <labels>
        <label2>Iris</label2>
    </labels>
</clipitem>
<clipitem id="3658499e-39d2-46ab-8bb1-a9c282043ce4" premiereChannelType="stereo">
    <masterclipid>masterclip-1</masterclipid>
    <name>S01E45.Jiggles.mkv</name>
    <enabled>TRUE</enabled>
    <duration>17218</duration>
    <rate>
        <timebase>23.976</timebase>
        <ntsc>FALSE</ntsc>
    </rate>
    <start>13387</start>
    <end>13431</end>
    <in>13798</in>
    <out>13842</out>
    <file id="file-5"/>
    <sourcetrack>
   <mediatype>audio</mediatype>
   <trackindex>2</trackindex>
</sourcetrack>
    <labels>
        <label2>Iris</label2>
    </labels>
</clipitem>
<clipitem id="db8c24ac-f71e-4952-b8fa-f2804b0876c6" premiereChannelType="stereo">
    <masterclipid>masterclip-1</masterclipid>
    <name>S01E45.Jiggles.mkv</name>
    <enabled>TRUE</enabled>
    <duration>17218</duration>
    <rate>
        <timebase>23.976</timebase>
        <ntsc>FALSE</ntsc>
    </rate>
    <start>13431</start>
    <end>13451</end>
    <in>13842</in>
    <out>13862</out>
    <file id="file-5"/>
    <sourcetrack>
   <mediatype>audio</mediatype>
   <trackindex>2</trackindex>
</sourcetrack>
    <labels>
        <label2>Iris</label2>
    </labels>
</clipitem>
<clipitem id="e8693c33-11e5-4596-a96c-bdc000e16a7f" premiereChannelType="stereo">
    <masterclipid>masterclip-1</masterclipid>
    <name>S01E45.Jiggles.mkv</name>
    <enabled>TRUE</enabled>
    <duration>17218</duration>
    <rate>
        <timebase>23.976</timebase>
        <ntsc>FALSE</ntsc>
    </rate>
    <start>13451</start>
    <end>13462</end>
    <in>13862</in>
    <out>13873</out>
    <file id="file-5"/>
    <sourcetrack>
   <mediatype>audio</mediatype>
   <trackindex>2</trackindex>
</sourcetrack>
    <labels>
        <label2>Iris</label2>
    </labels>
</clipitem>
<clipitem id="7a08ca4b-db89-4718-9f5e-75c18388032a" premiereChannelType="stereo">
    <masterclipid>masterclip-1</masterclipid>
    <name>S01E45.Jiggles.mkv</name>
    <enabled>TRUE</enabled>
    <duration>17218</duration>
    <rate>
        <timebase>23.976</timebase>
        <ntsc>FALSE</ntsc>
    </rate>
    <start>13462</start>
    <end>13516</end>
    <in>13873</in>
    <out>13927</out>
    <file id="file-5"/>
    <sourcetrack>
   <mediatype>audio</mediatype>
   <trackindex>2</trackindex>
</sourcetrack>
    <labels>
        <label2>Iris</label2>
    </labels>
</clipitem>
<clipitem id="1cb0b587-90c6-40ba-b882-71c04a61c94b" premiereChannelType="stereo">
    <masterclipid>masterclip-1</masterclipid>
    <name>S01E45.Jiggles.mkv</name>
    <enabled>TRUE</enabled>
    <duration>17218</duration>
    <rate>
        <timebase>23.976</timebase>
        <ntsc>FALSE</ntsc>
    </rate>
    <start>13516</start>
    <end>13531</end>
    <in>13927</in>
    <out>13942</out>
    <file id="file-5"/>
    <sourcetrack>
   <mediatype>audio</mediatype>
   <trackindex>2</trackindex>
</sourcetrack>
    <labels>
        <label2>Iris</label2>
    </labels>
</clipitem>
<clipitem id="7242ec35-badc-43c8-b98c-588e9afcd0fd" premiereChannelType="stereo">
    <masterclipid>masterclip-1</masterclipid>
    <name>S01E45.Jiggles.mkv</name>
    <enabled>TRUE</enabled>
    <duration>17218</duration>
    <rate>
        <timebase>23.976</timebase>
        <ntsc>FALSE</ntsc>
    </rate>
    <start>13531</start>
    <end>13559</end>
    <in>13942</in>
    <out>13970</out>
    <file id="file-5"/>
    <sourcetrack>
   <mediatype>audio</mediatype>
   <trackindex>2</trackindex>
</sourcetrack>
    <labels>
        <label2>Iris</label2>
    </labels>
</clipitem>
<clipitem id="aa4b2b62-2678-428f-a68e-d522ca6e89b7" premiereChannelType="stereo">
    <masterclipid>masterclip-1</masterclipid>
    <name>S01E45.Jiggles.mkv</name>
    <enabled>TRUE</enabled>
    <duration>17218</duration>
    <rate>
        <timebase>23.976</timebase>
        <ntsc>FALSE</ntsc>
    </rate>
    <start>13559</start>
    <end>13589</end>
    <in>13970</in>
    <out>14000</out>
    <file id="file-5"/>
    <sourcetrack>
   <mediatype>audio</mediatype>
   <trackindex>2</trackindex>
</sourcetrack>
    <labels>
        <label2>Iris</label2>
    </labels>
</clipitem>
<clipitem id="626a33f7-be8b-4ee7-831b-2058e33a4420" premiereChannelType="stereo">
    <masterclipid>masterclip-1</masterclipid>
    <name>S01E45.Jiggles.mkv</name>
    <enabled>TRUE</enabled>
    <duration>17218</duration>
    <rate>
        <timebase>23.976</timebase>
        <ntsc>FALSE</ntsc>
    </rate>
    <start>13589</start>
    <end>13621</end>
    <in>14000</in>
    <out>14032</out>
    <file id="file-5"/>
    <sourcetrack>
   <mediatype>audio</mediatype>
   <trackindex>2</trackindex>
</sourcetrack>
    <labels>
        <label2>Iris</label2>
    </labels>
</clipitem>
<clipitem id="ee5a5b57-ff25-495f-8000-51c96678766d" premiereChannelType="stereo">
    <masterclipid>masterclip-1</masterclipid>
    <name>S01E45.Jiggles.mkv</name>
    <enabled>TRUE</enabled>
    <duration>17218</duration>
    <rate>
        <timebase>23.976</timebase>
        <ntsc>FALSE</ntsc>
    </rate>
    <start>13621</start>
    <end>13632</end>
    <in>14032</in>
    <out>14043</out>
    <file id="file-5"/>
    <sourcetrack>
   <mediatype>audio</mediatype>
   <trackindex>2</trackindex>
</sourcetrack>
    <labels>
        <label2>Iris</label2>
    </labels>
</clipitem>
<clipitem id="0a4e51b9-31eb-4b2a-8d6b-3b963032df30" premiereChannelType="stereo">
    <masterclipid>masterclip-1</masterclipid>
    <name>S01E45.Jiggles.mkv</name>
    <enabled>TRUE</enabled>
    <duration>17218</duration>
    <rate>
        <timebase>23.976</timebase>
        <ntsc>FALSE</ntsc>
    </rate>
    <start>13632</start>
    <end>13653</end>
    <in>14043</in>
    <out>14064</out>
    <file id="file-5"/>
    <sourcetrack>
   <mediatype>audio</mediatype>
   <trackindex>2</trackindex>
</sourcetrack>
    <labels>
        <label2>Iris</label2>
    </labels>
</clipitem>
<clipitem id="f610eb89-ed70-418b-9089-1b59cb8539ec" premiereChannelType="stereo">
    <masterclipid>masterclip-1</masterclipid>
    <name>S01E45.Jiggles.mkv</name>
    <enabled>TRUE</enabled>
    <duration>17218</duration>
    <rate>
        <timebase>23.976</timebase>
        <ntsc>FALSE</ntsc>
    </rate>
    <start>13653</start>
    <end>13664</end>
    <in>14064</in>
    <out>14075</out>
    <file id="file-5"/>
    <sourcetrack>
   <mediatype>audio</mediatype>
   <trackindex>2</trackindex>
</sourcetrack>
    <labels>
        <label2>Iris</label2>
    </labels>
</clipitem>
<clipitem id="973e9518-21eb-451d-bbdd-4a9ddef12db0" premiereChannelType="stereo">
    <masterclipid>masterclip-1</masterclipid>
    <name>S01E45.Jiggles.mkv</name>
    <enabled>TRUE</enabled>
    <duration>17218</duration>
    <rate>
        <timebase>23.976</timebase>
        <ntsc>FALSE</ntsc>
    </rate>
    <start>13664</start>
    <end>13675</end>
    <in>14075</in>
    <out>14086</out>
    <file id="file-5"/>
    <sourcetrack>
   <mediatype>audio</mediatype>
   <trackindex>2</trackindex>
</sourcetrack>
    <labels>
        <label2>Iris</label2>
    </labels>
</clipitem>
<clipitem id="d8abed79-4e7f-47d6-9df2-0df3624b0088" premiereChannelType="stereo">
    <masterclipid>masterclip-1</masterclipid>
    <name>S01E45.Jiggles.mkv</name>
    <enabled>TRUE</enabled>
    <duration>17218</duration>
    <rate>
        <timebase>23.976</timebase>
        <ntsc>FALSE</ntsc>
    </rate>
    <start>13675</start>
    <end>13687</end>
    <in>14086</in>
    <out>14098</out>
    <file id="file-5"/>
    <sourcetrack>
   <mediatype>audio</mediatype>
   <trackindex>2</trackindex>
</sourcetrack>
    <labels>
        <label2>Iris</label2>
    </labels>
</clipitem>
<clipitem id="e8874098-7c79-4d9e-986b-fd6042ae1bd6" premiereChannelType="stereo">
    <masterclipid>masterclip-1</masterclipid>
    <name>S01E45.Jiggles.mkv</name>
    <enabled>TRUE</enabled>
    <duration>17218</duration>
    <rate>
        <timebase>23.976</timebase>
        <ntsc>FALSE</ntsc>
    </rate>
    <start>13687</start>
    <end>13699</end>
    <in>14098</in>
    <out>14110</out>
    <file id="file-5"/>
    <sourcetrack>
   <mediatype>audio</mediatype>
   <trackindex>2</trackindex>
</sourcetrack>
    <labels>
        <label2>Iris</label2>
    </labels>
</clipitem>
<clipitem id="b28817dc-ae04-4217-831e-ef597aa8b3c0" premiereChannelType="stereo">
    <masterclipid>masterclip-1</masterclipid>
    <name>S01E45.Jiggles.mkv</name>
    <enabled>TRUE</enabled>
    <duration>17218</duration>
    <rate>
        <timebase>23.976</timebase>
        <ntsc>FALSE</ntsc>
    </rate>
    <start>13699</start>
    <end>13745</end>
    <in>14109</in>
    <out>14155</out>
    <file id="file-5"/>
    <sourcetrack>
   <mediatype>audio</mediatype>
   <trackindex>2</trackindex>
</sourcetrack>
    <labels>
        <label2>Iris</label2>
    </labels>
</clipitem>
<clipitem id="f5326ee7-0c0a-494d-80ea-fe7d9ba4a93f" premiereChannelType="stereo">
    <masterclipid>masterclip-1</masterclipid>
    <name>S01E45.Jiggles.mkv</name>
    <enabled>TRUE</enabled>
    <duration>17218</duration>
    <rate>
        <timebase>23.976</timebase>
        <ntsc>FALSE</ntsc>
    </rate>
    <start>13745</start>
    <end>13796</end>
    <in>14156</in>
    <out>14207</out>
    <file id="file-5"/>
    <sourcetrack>
   <mediatype>audio</mediatype>
   <trackindex>2</trackindex>
</sourcetrack>
    <labels>
        <label2>Iris</label2>
    </labels>
</clipitem>
<clipitem id="456daf69-0db0-43a9-b36d-3df5b55b35a7" premiereChannelType="stereo">
    <masterclipid>masterclip-1</masterclipid>
    <name>S01E45.Jiggles.mkv</name>
    <enabled>TRUE</enabled>
    <duration>17218</duration>
    <rate>
        <timebase>23.976</timebase>
        <ntsc>FALSE</ntsc>
    </rate>
    <start>13796</start>
    <end>13860</end>
    <in>14207</in>
    <out>14271</out>
    <file id="file-5"/>
    <sourcetrack>
   <mediatype>audio</mediatype>
   <trackindex>2</trackindex>
</sourcetrack>
    <labels>
        <label2>Iris</label2>
    </labels>
</clipitem>
<clipitem id="6fa361e4-360f-49db-8447-e9e6586cfccc" premiereChannelType="stereo">
    <masterclipid>masterclip-1</masterclipid>
    <name>S01E45.Jiggles.mkv</name>
    <enabled>TRUE</enabled>
    <duration>17218</duration>
    <rate>
        <timebase>23.976</timebase>
        <ntsc>FALSE</ntsc>
    </rate>
    <start>13860</start>
    <end>13871</end>
    <in>14271</in>
    <out>14282</out>
    <file id="file-5"/>
    <sourcetrack>
   <mediatype>audio</mediatype>
   <trackindex>2</trackindex>
</sourcetrack>
    <labels>
        <label2>Iris</label2>
    </labels>
</clipitem>
<clipitem id="595129a8-affb-4f80-a875-38e99476eae0" premiereChannelType="stereo">
    <masterclipid>masterclip-1</masterclipid>
    <name>S01E45.Jiggles.mkv</name>
    <enabled>TRUE</enabled>
    <duration>17218</duration>
    <rate>
        <timebase>23.976</timebase>
        <ntsc>FALSE</ntsc>
    </rate>
    <start>13871</start>
    <end>13887</end>
    <in>14282</in>
    <out>14298</out>
    <file id="file-5"/>
    <sourcetrack>
   <mediatype>audio</mediatype>
   <trackindex>2</trackindex>
</sourcetrack>
    <labels>
        <label2>Iris</label2>
    </labels>
</clipitem>
<clipitem id="d7e90895-6721-4b73-b0a3-0317ed8b74f5" premiereChannelType="stereo">
    <masterclipid>masterclip-1</masterclipid>
    <name>S01E45.Jiggles.mkv</name>
    <enabled>TRUE</enabled>
    <duration>17218</duration>
    <rate>
        <timebase>23.976</timebase>
        <ntsc>FALSE</ntsc>
    </rate>
    <start>13887</start>
    <end>13905</end>
    <in>14298</in>
    <out>14316</out>
    <file id="file-5"/>
    <sourcetrack>
   <mediatype>audio</mediatype>
   <trackindex>2</trackindex>
</sourcetrack>
    <labels>
        <label2>Iris</label2>
    </labels>
</clipitem>
<clipitem id="5ba6abb3-f839-4137-9698-a9f65db5abf8" premiereChannelType="stereo">
    <masterclipid>masterclip-1</masterclipid>
    <name>S01E45.Jiggles.mkv</name>
    <enabled>TRUE</enabled>
    <duration>17218</duration>
    <rate>
        <timebase>23.976</timebase>
        <ntsc>FALSE</ntsc>
    </rate>
    <start>13905</start>
    <end>13916</end>
    <in>14316</in>
    <out>14327</out>
    <file id="file-5"/>
    <sourcetrack>
   <mediatype>audio</mediatype>
   <trackindex>2</trackindex>
</sourcetrack>
    <labels>
        <label2>Iris</label2>
    </labels>
</clipitem>
<clipitem id="7238708d-57d0-4b96-a893-46b5a16a1028" premiereChannelType="stereo">
    <masterclipid>masterclip-1</masterclipid>
    <name>S01E45.Jiggles.mkv</name>
    <enabled>TRUE</enabled>
    <duration>17218</duration>
    <rate>
        <timebase>23.976</timebase>
        <ntsc>FALSE</ntsc>
    </rate>
    <start>13916</start>
    <end>13927</end>
    <in>14327</in>
    <out>14338</out>
    <file id="file-5"/>
    <sourcetrack>
   <mediatype>audio</mediatype>
   <trackindex>2</trackindex>
</sourcetrack>
    <labels>
        <label2>Iris</label2>
    </labels>
</clipitem>
<clipitem id="1414e8ce-b269-4b72-ac26-38c28b3763d3" premiereChannelType="stereo">
    <masterclipid>masterclip-1</masterclipid>
    <name>S01E45.Jiggles.mkv</name>
    <enabled>TRUE</enabled>
    <duration>17218</duration>
    <rate>
        <timebase>23.976</timebase>
        <ntsc>FALSE</ntsc>
    </rate>
    <start>13927</start>
    <end>13944</end>
    <in>14338</in>
    <out>14355</out>
    <file id="file-5"/>
    <sourcetrack>
   <mediatype>audio</mediatype>
   <trackindex>2</trackindex>
</sourcetrack>
    <labels>
        <label2>Iris</label2>
    </labels>
</clipitem>
<clipitem id="cf6d748f-364a-41f6-8f24-10d227799eb9" premiereChannelType="stereo">
    <masterclipid>masterclip-1</masterclipid>
    <name>S01E45.Jiggles.mkv</name>
    <enabled>TRUE</enabled>
    <duration>17218</duration>
    <rate>
        <timebase>23.976</timebase>
        <ntsc>FALSE</ntsc>
    </rate>
    <start>13944</start>
    <end>13965</end>
    <in>14355</in>
    <out>14376</out>
    <file id="file-5"/>
    <sourcetrack>
   <mediatype>audio</mediatype>
   <trackindex>2</trackindex>
</sourcetrack>
    <labels>
        <label2>Iris</label2>
    </labels>
</clipitem>
<clipitem id="316132b7-a735-4f6c-ab8c-1191d1af3dc2" premiereChannelType="stereo">
    <masterclipid>masterclip-1</masterclipid>
    <name>S01E45.Jiggles.mkv</name>
    <enabled>TRUE</enabled>
    <duration>17218</duration>
    <rate>
        <timebase>23.976</timebase>
        <ntsc>FALSE</ntsc>
    </rate>
    <start>13965</start>
    <end>13980</end>
    <in>14376</in>
    <out>14391</out>
    <file id="file-5"/>
    <sourcetrack>
   <mediatype>audio</mediatype>
   <trackindex>2</trackindex>
</sourcetrack>
    <labels>
        <label2>Iris</label2>
    </labels>
</clipitem>
<clipitem id="d87c4f95-bfcd-4e2b-897e-1c82a4771934" premiereChannelType="stereo">
    <masterclipid>masterclip-1</masterclipid>
    <name>S01E45.Jiggles.mkv</name>
    <enabled>TRUE</enabled>
    <duration>17218</duration>
    <rate>
        <timebase>23.976</timebase>
        <ntsc>FALSE</ntsc>
    </rate>
    <start>13980</start>
    <end>13993</end>
    <in>14391</in>
    <out>14404</out>
    <file id="file-5"/>
    <sourcetrack>
   <mediatype>audio</mediatype>
   <trackindex>2</trackindex>
</sourcetrack>
    <labels>
        <label2>Iris</label2>
    </labels>
</clipitem>
<clipitem id="ad7da400-79d7-4b6c-85ef-c7d6e147f8c7" premiereChannelType="stereo">
    <masterclipid>masterclip-1</masterclipid>
    <name>S01E45.Jiggles.mkv</name>
    <enabled>TRUE</enabled>
    <duration>17218</duration>
    <rate>
        <timebase>23.976</timebase>
        <ntsc>FALSE</ntsc>
    </rate>
    <start>13993</start>
    <end>14004</end>
    <in>14404</in>
    <out>14415</out>
    <file id="file-5"/>
    <sourcetrack>
   <mediatype>audio</mediatype>
   <trackindex>2</trackindex>
</sourcetrack>
    <labels>
        <label2>Iris</label2>
    </labels>
</clipitem>
<clipitem id="3870390c-853d-45e9-ba1d-d99f178d3954" premiereChannelType="stereo">
    <masterclipid>masterclip-1</masterclipid>
    <name>S01E45.Jiggles.mkv</name>
    <enabled>TRUE</enabled>
    <duration>17218</duration>
    <rate>
        <timebase>23.976</timebase>
        <ntsc>FALSE</ntsc>
    </rate>
    <start>14004</start>
    <end>14019</end>
    <in>14415</in>
    <out>14430</out>
    <file id="file-5"/>
    <sourcetrack>
   <mediatype>audio</mediatype>
   <trackindex>2</trackindex>
</sourcetrack>
    <labels>
        <label2>Iris</label2>
    </labels>
</clipitem>
<clipitem id="a973bed1-b6e0-4bd5-884f-92efe5f00e06" premiereChannelType="stereo">
    <masterclipid>masterclip-1</masterclipid>
    <name>S01E45.Jiggles.mkv</name>
    <enabled>TRUE</enabled>
    <duration>17218</duration>
    <rate>
        <timebase>23.976</timebase>
        <ntsc>FALSE</ntsc>
    </rate>
    <start>14019</start>
    <end>14046</end>
    <in>14430</in>
    <out>14457</out>
    <file id="file-5"/>
    <sourcetrack>
   <mediatype>audio</mediatype>
   <trackindex>2</trackindex>
</sourcetrack>
    <labels>
        <label2>Iris</label2>
    </labels>
</clipitem>
<clipitem id="234ed60b-b5a8-4d20-abe0-c7e35494d3fa" premiereChannelType="stereo">
    <masterclipid>masterclip-1</masterclipid>
    <name>S01E45.Jiggles.mkv</name>
    <enabled>TRUE</enabled>
    <duration>17218</duration>
    <rate>
        <timebase>23.976</timebase>
        <ntsc>FALSE</ntsc>
    </rate>
    <start>14046</start>
    <end>14224</end>
    <in>14457</in>
    <out>14635</out>
    <file id="file-5"/>
    <sourcetrack>
   <mediatype>audio</mediatype>
   <trackindex>2</trackindex>
</sourcetrack>
    <labels>
        <label2>Iris</label2>
    </labels>
</clipitem>
<clipitem id="bf5345a5-4938-4be7-9bb5-84908bafdb87" premiereChannelType="stereo">
    <masterclipid>masterclip-1</masterclipid>
    <name>S01E45.Jiggles.mkv</name>
    <enabled>TRUE</enabled>
    <duration>17218</duration>
    <rate>
        <timebase>23.976</timebase>
        <ntsc>FALSE</ntsc>
    </rate>
    <start>14224</start>
    <end>14282</end>
    <in>14635</in>
    <out>14693</out>
    <file id="file-5"/>
    <sourcetrack>
   <mediatype>audio</mediatype>
   <trackindex>2</trackindex>
</sourcetrack>
    <labels>
        <label2>Iris</label2>
    </labels>
</clipitem>
<clipitem id="2c178f21-3511-4be4-b011-c9abb898bf4c" premiereChannelType="stereo">
    <masterclipid>masterclip-1</masterclipid>
    <name>S01E45.Jiggles.mkv</name>
    <enabled>TRUE</enabled>
    <duration>17218</duration>
    <rate>
        <timebase>23.976</timebase>
        <ntsc>FALSE</ntsc>
    </rate>
    <start>14282</start>
    <end>14387</end>
    <in>14692</in>
    <out>14797</out>
    <file id="file-5"/>
    <sourcetrack>
   <mediatype>audio</mediatype>
   <trackindex>2</trackindex>
</sourcetrack>
    <labels>
        <label2>Iris</label2>
    </labels>
</clipitem>
<clipitem id="c65c2956-dffc-4223-9497-e64cb901659d" premiereChannelType="stereo">
    <masterclipid>masterclip-1</masterclipid>
    <name>S01E45.Jiggles.mkv</name>
    <enabled>TRUE</enabled>
    <duration>17218</duration>
    <rate>
        <timebase>23.976</timebase>
        <ntsc>FALSE</ntsc>
    </rate>
    <start>14387</start>
    <end>14399</end>
    <in>14799</in>
    <out>14811</out>
    <file id="file-5"/>
    <sourcetrack>
   <mediatype>audio</mediatype>
   <trackindex>2</trackindex>
</sourcetrack>
    <labels>
        <label2>Iris</label2>
    </labels>
</clipitem>
<clipitem id="f2b8b67b-3447-461a-90d6-de1c2f5d7709" premiereChannelType="stereo">
    <masterclipid>masterclip-1</masterclipid>
    <name>S01E45.Jiggles.mkv</name>
    <enabled>TRUE</enabled>
    <duration>17218</duration>
    <rate>
        <timebase>23.976</timebase>
        <ntsc>FALSE</ntsc>
    </rate>
    <start>14399</start>
    <end>14410</end>
    <in>14811</in>
    <out>14822</out>
    <file id="file-5"/>
    <sourcetrack>
   <mediatype>audio</mediatype>
   <trackindex>2</trackindex>
</sourcetrack>
    <labels>
        <label2>Iris</label2>
    </labels>
</clipitem>
<clipitem id="c9d2fcf9-d988-4d89-9184-971d89cedc30" premiereChannelType="stereo">
    <masterclipid>masterclip-1</masterclipid>
    <name>S01E45.Jiggles.mkv</name>
    <enabled>TRUE</enabled>
    <duration>17218</duration>
    <rate>
        <timebase>23.976</timebase>
        <ntsc>FALSE</ntsc>
    </rate>
    <start>14410</start>
    <end>14490</end>
    <in>14822</in>
    <out>14902</out>
    <file id="file-5"/>
    <sourcetrack>
   <mediatype>audio</mediatype>
   <trackindex>2</trackindex>
</sourcetrack>
    <labels>
        <label2>Iris</label2>
    </labels>
</clipitem>
<clipitem id="0d92adcc-0638-40d1-bdc9-84a0eda4a5e6" premiereChannelType="stereo">
    <masterclipid>masterclip-1</masterclipid>
    <name>S01E45.Jiggles.mkv</name>
    <enabled>TRUE</enabled>
    <duration>17218</duration>
    <rate>
        <timebase>23.976</timebase>
        <ntsc>FALSE</ntsc>
    </rate>
    <start>14490</start>
    <end>14614</end>
    <in>14901</in>
    <out>15025</out>
    <file id="file-5"/>
    <sourcetrack>
   <mediatype>audio</mediatype>
   <trackindex>2</trackindex>
</sourcetrack>
    <labels>
        <label2>Iris</label2>
    </labels>
</clipitem>
<clipitem id="74ebb9fd-a8c1-4315-ac4e-8f4626066ceb" premiereChannelType="stereo">
    <masterclipid>masterclip-1</masterclipid>
    <name>S01E45.Jiggles.mkv</name>
    <enabled>TRUE</enabled>
    <duration>17218</duration>
    <rate>
        <timebase>23.976</timebase>
        <ntsc>FALSE</ntsc>
    </rate>
    <start>14614</start>
    <end>14645</end>
    <in>15025</in>
    <out>15056</out>
    <file id="file-5"/>
    <sourcetrack>
   <mediatype>audio</mediatype>
   <trackindex>2</trackindex>
</sourcetrack>
    <labels>
        <label2>Iris</label2>
    </labels>
</clipitem>
<clipitem id="59682f06-422c-4c85-983d-e5192e38b045" premiereChannelType="stereo">
    <masterclipid>masterclip-1</masterclipid>
    <name>S01E45.Jiggles.mkv</name>
    <enabled>TRUE</enabled>
    <duration>17218</duration>
    <rate>
        <timebase>23.976</timebase>
        <ntsc>FALSE</ntsc>
    </rate>
    <start>14645</start>
    <end>14661</end>
    <in>15056</in>
    <out>15072</out>
    <file id="file-5"/>
    <sourcetrack>
   <mediatype>audio</mediatype>
   <trackindex>2</trackindex>
</sourcetrack>
    <labels>
        <label2>Iris</label2>
    </labels>
</clipitem>
<clipitem id="e0cbcaf8-41dd-4970-a765-a2fab0e93061" premiereChannelType="stereo">
    <masterclipid>masterclip-1</masterclipid>
    <name>S01E45.Jiggles.mkv</name>
    <enabled>TRUE</enabled>
    <duration>17218</duration>
    <rate>
        <timebase>23.976</timebase>
        <ntsc>FALSE</ntsc>
    </rate>
    <start>14661</start>
    <end>14672</end>
    <in>15072</in>
    <out>15083</out>
    <file id="file-5"/>
    <sourcetrack>
   <mediatype>audio</mediatype>
   <trackindex>2</trackindex>
</sourcetrack>
    <labels>
        <label2>Iris</label2>
    </labels>
</clipitem>
<clipitem id="bca45029-6298-436f-b5e2-899ecafe2e2a" premiereChannelType="stereo">
    <masterclipid>masterclip-1</masterclipid>
    <name>S01E45.Jiggles.mkv</name>
    <enabled>TRUE</enabled>
    <duration>17218</duration>
    <rate>
        <timebase>23.976</timebase>
        <ntsc>FALSE</ntsc>
    </rate>
    <start>14672</start>
    <end>14684</end>
    <in>15083</in>
    <out>15095</out>
    <file id="file-5"/>
    <sourcetrack>
   <mediatype>audio</mediatype>
   <trackindex>2</trackindex>
</sourcetrack>
    <labels>
        <label2>Iris</label2>
    </labels>
</clipitem>
<clipitem id="39982e66-4539-4a26-8b98-a61994c39ab2" premiereChannelType="stereo">
    <masterclipid>masterclip-1</masterclipid>
    <name>S01E45.Jiggles.mkv</name>
    <enabled>TRUE</enabled>
    <duration>17218</duration>
    <rate>
        <timebase>23.976</timebase>
        <ntsc>FALSE</ntsc>
    </rate>
    <start>14684</start>
    <end>14695</end>
    <in>15095</in>
    <out>15106</out>
    <file id="file-5"/>
    <sourcetrack>
   <mediatype>audio</mediatype>
   <trackindex>2</trackindex>
</sourcetrack>
    <labels>
        <label2>Iris</label2>
    </labels>
</clipitem>
<clipitem id="51de6801-87fd-466e-b06c-8aaedee02b12" premiereChannelType="stereo">
    <masterclipid>masterclip-1</masterclipid>
    <name>S01E45.Jiggles.mkv</name>
    <enabled>TRUE</enabled>
    <duration>17218</duration>
    <rate>
        <timebase>23.976</timebase>
        <ntsc>FALSE</ntsc>
    </rate>
    <start>14695</start>
    <end>14712</end>
    <in>15106</in>
    <out>15123</out>
    <file id="file-5"/>
    <sourcetrack>
   <mediatype>audio</mediatype>
   <trackindex>2</trackindex>
</sourcetrack>
    <labels>
        <label2>Iris</label2>
    </labels>
</clipitem>
<clipitem id="3ab50525-a9b7-4201-960b-f67dffe34013" premiereChannelType="stereo">
    <masterclipid>masterclip-1</masterclipid>
    <name>S01E45.Jiggles.mkv</name>
    <enabled>TRUE</enabled>
    <duration>17218</duration>
    <rate>
        <timebase>23.976</timebase>
        <ntsc>FALSE</ntsc>
    </rate>
    <start>14712</start>
    <end>14753</end>
    <in>15124</in>
    <out>15165</out>
    <file id="file-5"/>
    <sourcetrack>
   <mediatype>audio</mediatype>
   <trackindex>2</trackindex>
</sourcetrack>
    <labels>
        <label2>Iris</label2>
    </labels>
</clipitem>
<clipitem id="5440a4ce-6d86-4e8c-b025-45635b1678fb" premiereChannelType="stereo">
    <masterclipid>masterclip-1</masterclipid>
    <name>S01E45.Jiggles.mkv</name>
    <enabled>TRUE</enabled>
    <duration>17218</duration>
    <rate>
        <timebase>23.976</timebase>
        <ntsc>FALSE</ntsc>
    </rate>
    <start>14753</start>
    <end>14764</end>
    <in>15164</in>
    <out>15175</out>
    <file id="file-5"/>
    <sourcetrack>
   <mediatype>audio</mediatype>
   <trackindex>2</trackindex>
</sourcetrack>
    <labels>
        <label2>Iris</label2>
    </labels>
</clipitem>
<clipitem id="74face53-c819-477c-9c44-0510958593d1" premiereChannelType="stereo">
    <masterclipid>masterclip-1</masterclipid>
    <name>S01E45.Jiggles.mkv</name>
    <enabled>TRUE</enabled>
    <duration>17218</duration>
    <rate>
        <timebase>23.976</timebase>
        <ntsc>FALSE</ntsc>
    </rate>
    <start>14764</start>
    <end>14806</end>
    <in>15175</in>
    <out>15217</out>
    <file id="file-5"/>
    <sourcetrack>
   <mediatype>audio</mediatype>
   <trackindex>2</trackindex>
</sourcetrack>
    <labels>
        <label2>Iris</label2>
    </labels>
</clipitem>
<clipitem id="5f03dae8-a640-40ef-ac32-90d9f83c1320" premiereChannelType="stereo">
    <masterclipid>masterclip-1</masterclipid>
    <name>S01E45.Jiggles.mkv</name>
    <enabled>TRUE</enabled>
    <duration>17218</duration>
    <rate>
        <timebase>23.976</timebase>
        <ntsc>FALSE</ntsc>
    </rate>
    <start>14806</start>
    <end>14842</end>
    <in>15217</in>
    <out>15253</out>
    <file id="file-5"/>
    <sourcetrack>
   <mediatype>audio</mediatype>
   <trackindex>2</trackindex>
</sourcetrack>
    <labels>
        <label2>Iris</label2>
    </labels>
</clipitem>
<clipitem id="5e405d52-0017-4ce6-b03a-62fdc3bb2ce4" premiereChannelType="stereo">
    <masterclipid>masterclip-1</masterclipid>
    <name>S01E45.Jiggles.mkv</name>
    <enabled>TRUE</enabled>
    <duration>17218</duration>
    <rate>
        <timebase>23.976</timebase>
        <ntsc>FALSE</ntsc>
    </rate>
    <start>14842</start>
    <end>14889</end>
    <in>15253</in>
    <out>15300</out>
    <file id="file-5"/>
    <sourcetrack>
   <mediatype>audio</mediatype>
   <trackindex>2</trackindex>
</sourcetrack>
    <labels>
        <label2>Iris</label2>
    </labels>
</clipitem>
<clipitem id="986d597b-146a-41a5-bae8-58578c0efe7e" premiereChannelType="stereo">
    <masterclipid>masterclip-1</masterclipid>
    <name>S01E45.Jiggles.mkv</name>
    <enabled>TRUE</enabled>
    <duration>17218</duration>
    <rate>
        <timebase>23.976</timebase>
        <ntsc>FALSE</ntsc>
    </rate>
    <start>14889</start>
    <end>14901</end>
    <in>15299</in>
    <out>15311</out>
    <file id="file-5"/>
    <sourcetrack>
   <mediatype>audio</mediatype>
   <trackindex>2</trackindex>
</sourcetrack>
    <labels>
        <label2>Iris</label2>
    </labels>
</clipitem>
<clipitem id="235592ed-cd5f-4e70-964c-a0b0022896a3" premiereChannelType="stereo">
    <masterclipid>masterclip-1</masterclipid>
    <name>S01E45.Jiggles.mkv</name>
    <enabled>TRUE</enabled>
    <duration>17218</duration>
    <rate>
        <timebase>23.976</timebase>
        <ntsc>FALSE</ntsc>
    </rate>
    <start>14901</start>
    <end>14914</end>
    <in>15312</in>
    <out>15325</out>
    <file id="file-5"/>
    <sourcetrack>
   <mediatype>audio</mediatype>
   <trackindex>2</trackindex>
</sourcetrack>
    <labels>
        <label2>Iris</label2>
    </labels>
</clipitem>
<clipitem id="7dc60dd0-1d14-435f-9c0e-a69c4b11edb0" premiereChannelType="stereo">
    <masterclipid>masterclip-1</masterclipid>
    <name>S01E45.Jiggles.mkv</name>
    <enabled>TRUE</enabled>
    <duration>17218</duration>
    <rate>
        <timebase>23.976</timebase>
        <ntsc>FALSE</ntsc>
    </rate>
    <start>14914</start>
    <end>14925</end>
    <in>15325</in>
    <out>15336</out>
    <file id="file-5"/>
    <sourcetrack>
   <mediatype>audio</mediatype>
   <trackindex>2</trackindex>
</sourcetrack>
    <labels>
        <label2>Iris</label2>
    </labels>
</clipitem>
<clipitem id="67208c16-8345-45ae-825e-0da52ea58514" premiereChannelType="stereo">
    <masterclipid>masterclip-1</masterclipid>
    <name>S01E45.Jiggles.mkv</name>
    <enabled>TRUE</enabled>
    <duration>17218</duration>
    <rate>
        <timebase>23.976</timebase>
        <ntsc>FALSE</ntsc>
    </rate>
    <start>14925</start>
    <end>14949</end>
    <in>15336</in>
    <out>15360</out>
    <file id="file-5"/>
    <sourcetrack>
   <mediatype>audio</mediatype>
   <trackindex>2</trackindex>
</sourcetrack>
    <labels>
        <label2>Iris</label2>
    </labels>
</clipitem>
<clipitem id="c23b6fd8-32c0-4d3b-91f3-3dc17d58d36c" premiereChannelType="stereo">
    <masterclipid>masterclip-1</masterclipid>
    <name>S01E45.Jiggles.mkv</name>
    <enabled>TRUE</enabled>
    <duration>17218</duration>
    <rate>
        <timebase>23.976</timebase>
        <ntsc>FALSE</ntsc>
    </rate>
    <start>14949</start>
    <end>15016</end>
    <in>15359</in>
    <out>15426</out>
    <file id="file-5"/>
    <sourcetrack>
   <mediatype>audio</mediatype>
   <trackindex>2</trackindex>
</sourcetrack>
    <labels>
        <label2>Iris</label2>
    </labels>
</clipitem>
<clipitem id="a14de23b-141b-4254-943e-d25b8415eb54" premiereChannelType="stereo">
    <masterclipid>masterclip-1</masterclipid>
    <name>S01E45.Jiggles.mkv</name>
    <enabled>TRUE</enabled>
    <duration>17218</duration>
    <rate>
        <timebase>23.976</timebase>
        <ntsc>FALSE</ntsc>
    </rate>
    <start>15016</start>
    <end>15055</end>
    <in>15427</in>
    <out>15466</out>
    <file id="file-5"/>
    <sourcetrack>
   <mediatype>audio</mediatype>
   <trackindex>2</trackindex>
</sourcetrack>
    <labels>
        <label2>Iris</label2>
    </labels>
</clipitem>
<clipitem id="3580eb4e-0fb8-42d4-9b87-ccf6f079d7bd" premiereChannelType="stereo">
    <masterclipid>masterclip-1</masterclipid>
    <name>S01E45.Jiggles.mkv</name>
    <enabled>TRUE</enabled>
    <duration>17218</duration>
    <rate>
        <timebase>23.976</timebase>
        <ntsc>FALSE</ntsc>
    </rate>
    <start>15055</start>
    <end>15067</end>
    <in>15466</in>
    <out>15478</out>
    <file id="file-5"/>
    <sourcetrack>
   <mediatype>audio</mediatype>
   <trackindex>2</trackindex>
</sourcetrack>
    <labels>
        <label2>Iris</label2>
    </labels>
</clipitem>
<clipitem id="38c22a9a-1045-4897-9e29-25efcccf844b" premiereChannelType="stereo">
    <masterclipid>masterclip-1</masterclipid>
    <name>S01E45.Jiggles.mkv</name>
    <enabled>TRUE</enabled>
    <duration>17218</duration>
    <rate>
        <timebase>23.976</timebase>
        <ntsc>FALSE</ntsc>
    </rate>
    <start>15067</start>
    <end>15102</end>
    <in>15478</in>
    <out>15513</out>
    <file id="file-5"/>
    <sourcetrack>
   <mediatype>audio</mediatype>
   <trackindex>2</trackindex>
</sourcetrack>
    <labels>
        <label2>Iris</label2>
    </labels>
</clipitem>
<clipitem id="88b630ab-790d-4b33-8416-d91ebcbf2b2e" premiereChannelType="stereo">
    <masterclipid>masterclip-1</masterclipid>
    <name>S01E45.Jiggles.mkv</name>
    <enabled>TRUE</enabled>
    <duration>17218</duration>
    <rate>
        <timebase>23.976</timebase>
        <ntsc>FALSE</ntsc>
    </rate>
    <start>15102</start>
    <end>15114</end>
    <in>15513</in>
    <out>15525</out>
    <file id="file-5"/>
    <sourcetrack>
   <mediatype>audio</mediatype>
   <trackindex>2</trackindex>
</sourcetrack>
    <labels>
        <label2>Iris</label2>
    </labels>
</clipitem>
<clipitem id="ba9d6728-f223-49cb-929a-c941dc1800a8" premiereChannelType="stereo">
    <masterclipid>masterclip-1</masterclipid>
    <name>S01E45.Jiggles.mkv</name>
    <enabled>TRUE</enabled>
    <duration>17218</duration>
    <rate>
        <timebase>23.976</timebase>
        <ntsc>FALSE</ntsc>
    </rate>
    <start>15114</start>
    <end>15131</end>
    <in>15525</in>
    <out>15542</out>
    <file id="file-5"/>
    <sourcetrack>
   <mediatype>audio</mediatype>
   <trackindex>2</trackindex>
</sourcetrack>
    <labels>
        <label2>Iris</label2>
    </labels>
</clipitem>
<clipitem id="ae36596b-5304-4e4a-b0cd-fc2ff7aafccf" premiereChannelType="stereo">
    <masterclipid>masterclip-1</masterclipid>
    <name>S01E45.Jiggles.mkv</name>
    <enabled>TRUE</enabled>
    <duration>17218</duration>
    <rate>
        <timebase>23.976</timebase>
        <ntsc>FALSE</ntsc>
    </rate>
    <start>15131</start>
    <end>15143</end>
    <in>15547</in>
    <out>15559</out>
    <file id="file-5"/>
    <sourcetrack>
   <mediatype>audio</mediatype>
   <trackindex>2</trackindex>
</sourcetrack>
    <labels>
        <label2>Iris</label2>
    </labels>
</clipitem>
<clipitem id="d8fb55c4-8fdd-4d1f-baef-69051168b0a5" premiereChannelType="stereo">
    <masterclipid>masterclip-1</masterclipid>
    <name>S01E45.Jiggles.mkv</name>
    <enabled>TRUE</enabled>
    <duration>17218</duration>
    <rate>
        <timebase>23.976</timebase>
        <ntsc>FALSE</ntsc>
    </rate>
    <start>15143</start>
    <end>15157</end>
    <in>15554</in>
    <out>15568</out>
    <file id="file-5"/>
    <sourcetrack>
   <mediatype>audio</mediatype>
   <trackindex>2</trackindex>
</sourcetrack>
    <labels>
        <label2>Iris</label2>
    </labels>
</clipitem>
<clipitem id="3183b6c3-491b-4f35-a729-f56f9a9cecbd" premiereChannelType="stereo">
    <masterclipid>masterclip-1</masterclipid>
    <name>S01E45.Jiggles.mkv</name>
    <enabled>TRUE</enabled>
    <duration>17218</duration>
    <rate>
        <timebase>23.976</timebase>
        <ntsc>FALSE</ntsc>
    </rate>
    <start>15157</start>
    <end>15314</end>
    <in>15568</in>
    <out>15725</out>
    <file id="file-5"/>
    <sourcetrack>
   <mediatype>audio</mediatype>
   <trackindex>2</trackindex>
</sourcetrack>
    <labels>
        <label2>Iris</label2>
    </labels>
</clipitem>
<clipitem id="ed11a806-d963-45d9-89ee-e6cce122ac27" premiereChannelType="stereo">
    <masterclipid>masterclip-1</masterclipid>
    <name>S01E45.Jiggles.mkv</name>
    <enabled>TRUE</enabled>
    <duration>17218</duration>
    <rate>
        <timebase>23.976</timebase>
        <ntsc>FALSE</ntsc>
    </rate>
    <start>15314</start>
    <end>15325</end>
    <in>15725</in>
    <out>15736</out>
    <file id="file-5"/>
    <sourcetrack>
   <mediatype>audio</mediatype>
   <trackindex>2</trackindex>
</sourcetrack>
    <labels>
        <label2>Iris</label2>
    </labels>
</clipitem>
<clipitem id="18663ae6-1d37-4962-a58b-f1fae847c1d7" premiereChannelType="stereo">
    <masterclipid>masterclip-1</masterclipid>
    <name>S01E45.Jiggles.mkv</name>
    <enabled>TRUE</enabled>
    <duration>17218</duration>
    <rate>
        <timebase>23.976</timebase>
        <ntsc>FALSE</ntsc>
    </rate>
    <start>15325</start>
    <end>15356</end>
    <in>15736</in>
    <out>15767</out>
    <file id="file-5"/>
    <sourcetrack>
   <mediatype>audio</mediatype>
   <trackindex>2</trackindex>
</sourcetrack>
    <labels>
        <label2>Iris</label2>
    </labels>
</clipitem>
<clipitem id="d48a8fc6-57ba-4c97-a1d9-2dab838e5ca6" premiereChannelType="stereo">
    <masterclipid>masterclip-1</masterclipid>
    <name>S01E45.Jiggles.mkv</name>
    <enabled>TRUE</enabled>
    <duration>17218</duration>
    <rate>
        <timebase>23.976</timebase>
        <ntsc>FALSE</ntsc>
    </rate>
    <start>15356</start>
    <end>15423</end>
    <in>15769</in>
    <out>15836</out>
    <file id="file-5"/>
    <sourcetrack>
   <mediatype>audio</mediatype>
   <trackindex>2</trackindex>
</sourcetrack>
    <labels>
        <label2>Iris</label2>
    </labels>
</clipitem>
<clipitem id="5e481db7-86b1-498b-84ea-b48484a6785d" premiereChannelType="stereo">
    <masterclipid>masterclip-1</masterclipid>
    <name>S01E45.Jiggles.mkv</name>
    <enabled>TRUE</enabled>
    <duration>17218</duration>
    <rate>
        <timebase>23.976</timebase>
        <ntsc>FALSE</ntsc>
    </rate>
    <start>15423</start>
    <end>15435</end>
    <in>15834</in>
    <out>15846</out>
    <file id="file-5"/>
    <sourcetrack>
   <mediatype>audio</mediatype>
   <trackindex>2</trackindex>
</sourcetrack>
    <labels>
        <label2>Iris</label2>
    </labels>
</clipitem>
<clipitem id="8e11205f-e9a3-4ea5-b881-201a30d258d1" premiereChannelType="stereo">
    <masterclipid>masterclip-1</masterclipid>
    <name>S01E45.Jiggles.mkv</name>
    <enabled>TRUE</enabled>
    <duration>17218</duration>
    <rate>
        <timebase>23.976</timebase>
        <ntsc>FALSE</ntsc>
    </rate>
    <start>15435</start>
    <end>15450</end>
    <in>15847</in>
    <out>15862</out>
    <file id="file-5"/>
    <sourcetrack>
   <mediatype>audio</mediatype>
   <trackindex>2</trackindex>
</sourcetrack>
    <labels>
        <label2>Iris</label2>
    </labels>
</clipitem>
<clipitem id="4d43c02f-8450-4dcc-a9bf-1444e003257e" premiereChannelType="stereo">
    <masterclipid>masterclip-1</masterclipid>
    <name>S01E45.Jiggles.mkv</name>
    <enabled>TRUE</enabled>
    <duration>17218</duration>
    <rate>
        <timebase>23.976</timebase>
        <ntsc>FALSE</ntsc>
    </rate>
    <start>15450</start>
    <end>15467</end>
    <in>15861</in>
    <out>15878</out>
    <file id="file-5"/>
    <sourcetrack>
   <mediatype>audio</mediatype>
   <trackindex>2</trackindex>
</sourcetrack>
    <labels>
        <label2>Iris</label2>
    </labels>
</clipitem>
<clipitem id="3b6fe094-f788-47a3-a48e-5541bcd95ee9" premiereChannelType="stereo">
    <masterclipid>masterclip-1</masterclipid>
    <name>S01E45.Jiggles.mkv</name>
    <enabled>TRUE</enabled>
    <duration>17218</duration>
    <rate>
        <timebase>23.976</timebase>
        <ntsc>FALSE</ntsc>
    </rate>
    <start>15467</start>
    <end>15478</end>
    <in>15878</in>
    <out>15889</out>
    <file id="file-5"/>
    <sourcetrack>
   <mediatype>audio</mediatype>
   <trackindex>2</trackindex>
</sourcetrack>
    <labels>
        <label2>Iris</label2>
    </labels>
</clipitem>
<clipitem id="40c5d87c-eb79-4e7b-9a61-49a0a90c3965" premiereChannelType="stereo">
    <masterclipid>masterclip-1</masterclipid>
    <name>S01E45.Jiggles.mkv</name>
    <enabled>TRUE</enabled>
    <duration>17218</duration>
    <rate>
        <timebase>23.976</timebase>
        <ntsc>FALSE</ntsc>
    </rate>
    <start>15478</start>
    <end>15505</end>
    <in>15889</in>
    <out>15916</out>
    <file id="file-5"/>
    <sourcetrack>
   <mediatype>audio</mediatype>
   <trackindex>2</trackindex>
</sourcetrack>
    <labels>
        <label2>Iris</label2>
    </labels>
</clipitem>
<clipitem id="34346ce1-615a-4a0a-88e0-0abbf2663f8f" premiereChannelType="stereo">
    <masterclipid>masterclip-1</masterclipid>
    <name>S01E45.Jiggles.mkv</name>
    <enabled>TRUE</enabled>
    <duration>17218</duration>
    <rate>
        <timebase>23.976</timebase>
        <ntsc>FALSE</ntsc>
    </rate>
    <start>15505</start>
    <end>15516</end>
    <in>15916</in>
    <out>15927</out>
    <file id="file-5"/>
    <sourcetrack>
   <mediatype>audio</mediatype>
   <trackindex>2</trackindex>
</sourcetrack>
    <labels>
        <label2>Iris</label2>
    </labels>
</clipitem>
<clipitem id="87f360a6-b759-48c9-bab7-58f03992b5f5" premiereChannelType="stereo">
    <masterclipid>masterclip-1</masterclipid>
    <name>S01E45.Jiggles.mkv</name>
    <enabled>TRUE</enabled>
    <duration>17218</duration>
    <rate>
        <timebase>23.976</timebase>
        <ntsc>FALSE</ntsc>
    </rate>
    <start>15516</start>
    <end>15527</end>
    <in>15927</in>
    <out>15938</out>
    <file id="file-5"/>
    <sourcetrack>
   <mediatype>audio</mediatype>
   <trackindex>2</trackindex>
</sourcetrack>
    <labels>
        <label2>Iris</label2>
    </labels>
</clipitem>
<clipitem id="991e6ca4-cc6e-4e8f-ac33-f5c43b8e1df8" premiereChannelType="stereo">
    <masterclipid>masterclip-1</masterclipid>
    <name>S01E45.Jiggles.mkv</name>
    <enabled>TRUE</enabled>
    <duration>17218</duration>
    <rate>
        <timebase>23.976</timebase>
        <ntsc>FALSE</ntsc>
    </rate>
    <start>15527</start>
    <end>15539</end>
    <in>15938</in>
    <out>15950</out>
    <file id="file-5"/>
    <sourcetrack>
   <mediatype>audio</mediatype>
   <trackindex>2</trackindex>
</sourcetrack>
    <labels>
        <label2>Iris</label2>
    </labels>
</clipitem>
<clipitem id="6a03d544-b134-4e8f-a057-d77b38bc7789" premiereChannelType="stereo">
    <masterclipid>masterclip-1</masterclipid>
    <name>S01E45.Jiggles.mkv</name>
    <enabled>TRUE</enabled>
    <duration>17218</duration>
    <rate>
        <timebase>23.976</timebase>
        <ntsc>FALSE</ntsc>
    </rate>
    <start>15539</start>
    <end>15556</end>
    <in>15949</in>
    <out>15966</out>
    <file id="file-5"/>
    <sourcetrack>
   <mediatype>audio</mediatype>
   <trackindex>2</trackindex>
</sourcetrack>
    <labels>
        <label2>Iris</label2>
    </labels>
</clipitem>
<clipitem id="bd02b981-547d-46cb-b71d-c2f4fa16d40a" premiereChannelType="stereo">
    <masterclipid>masterclip-1</masterclipid>
    <name>S01E45.Jiggles.mkv</name>
    <enabled>TRUE</enabled>
    <duration>17218</duration>
    <rate>
        <timebase>23.976</timebase>
        <ntsc>FALSE</ntsc>
    </rate>
    <start>15556</start>
    <end>15577</end>
    <in>15967</in>
    <out>15988</out>
    <file id="file-5"/>
    <sourcetrack>
   <mediatype>audio</mediatype>
   <trackindex>2</trackindex>
</sourcetrack>
    <labels>
        <label2>Iris</label2>
    </labels>
</clipitem>
<clipitem id="1c83d738-2212-4058-901f-1a34263707c9" premiereChannelType="stereo">
    <masterclipid>masterclip-1</masterclipid>
    <name>S01E45.Jiggles.mkv</name>
    <enabled>TRUE</enabled>
    <duration>17218</duration>
    <rate>
        <timebase>23.976</timebase>
        <ntsc>FALSE</ntsc>
    </rate>
    <start>15577</start>
    <end>15592</end>
    <in>15988</in>
    <out>16003</out>
    <file id="file-5"/>
    <sourcetrack>
   <mediatype>audio</mediatype>
   <trackindex>2</trackindex>
</sourcetrack>
    <labels>
        <label2>Iris</label2>
    </labels>
</clipitem>
<clipitem id="7e96a813-c733-478e-95bb-32d83f130864" premiereChannelType="stereo">
    <masterclipid>masterclip-1</masterclipid>
    <name>S01E45.Jiggles.mkv</name>
    <enabled>TRUE</enabled>
    <duration>17218</duration>
    <rate>
        <timebase>23.976</timebase>
        <ntsc>FALSE</ntsc>
    </rate>
    <start>15592</start>
    <end>15626</end>
    <in>16027</in>
    <out>16061</out>
    <file id="file-5"/>
    <sourcetrack>
   <mediatype>audio</mediatype>
   <trackindex>2</trackindex>
</sourcetrack>
    <labels>
        <label2>Iris</label2>
    </labels>
</clipitem>
<clipitem id="a0122212-39e6-46af-9f71-5a55c430f649" premiereChannelType="stereo">
    <masterclipid>masterclip-1</masterclipid>
    <name>S01E45.Jiggles.mkv</name>
    <enabled>TRUE</enabled>
    <duration>17218</duration>
    <rate>
        <timebase>23.976</timebase>
        <ntsc>FALSE</ntsc>
    </rate>
    <start>15626</start>
    <end>15670</end>
    <in>16008</in>
    <out>16052</out>
    <file id="file-5"/>
    <sourcetrack>
   <mediatype>audio</mediatype>
   <trackindex>2</trackindex>
</sourcetrack>
    <labels>
        <label2>Iris</label2>
    </labels>
</clipitem>
<clipitem id="d3b01fcf-16c7-46f8-9ecf-249325374fac" premiereChannelType="stereo">
    <masterclipid>masterclip-1</masterclipid>
    <name>S01E45.Jiggles.mkv</name>
    <enabled>TRUE</enabled>
    <duration>17218</duration>
    <rate>
        <timebase>23.976</timebase>
        <ntsc>FALSE</ntsc>
    </rate>
    <start>15670</start>
    <end>15688</end>
    <in>16081</in>
    <out>16099</out>
    <file id="file-5"/>
    <sourcetrack>
   <mediatype>audio</mediatype>
   <trackindex>2</trackindex>
</sourcetrack>
    <labels>
        <label2>Iris</label2>
    </labels>
</clipitem>
<clipitem id="5f268ac6-6466-4eb3-9dd4-7723d7acfd56" premiereChannelType="stereo">
    <masterclipid>masterclip-1</masterclipid>
    <name>S01E45.Jiggles.mkv</name>
    <enabled>TRUE</enabled>
    <duration>17218</duration>
    <rate>
        <timebase>23.976</timebase>
        <ntsc>FALSE</ntsc>
    </rate>
    <start>15688</start>
    <end>15750</end>
    <in>16099</in>
    <out>16161</out>
    <file id="file-5"/>
    <sourcetrack>
   <mediatype>audio</mediatype>
   <trackindex>2</trackindex>
</sourcetrack>
    <labels>
        <label2>Iris</label2>
    </labels>
</clipitem>
<clipitem id="835ddf87-36e6-4033-9877-a0f74ddeb2d7" premiereChannelType="stereo">
    <masterclipid>masterclip-1</masterclipid>
    <name>S01E45.Jiggles.mkv</name>
    <enabled>TRUE</enabled>
    <duration>17218</duration>
    <rate>
        <timebase>23.976</timebase>
        <ntsc>FALSE</ntsc>
    </rate>
    <start>15750</start>
    <end>15889</end>
    <in>16161</in>
    <out>16300</out>
    <file id="file-5"/>
    <sourcetrack>
   <mediatype>audio</mediatype>
   <trackindex>2</trackindex>
</sourcetrack>
    <labels>
        <label2>Iris</label2>
    </labels>
</clipitem>
<clipitem id="38aa1f7f-f677-4e05-85d9-75bc96826d80" premiereChannelType="stereo">
    <masterclipid>masterclip-1</masterclipid>
    <name>S01E45.Jiggles.mkv</name>
    <enabled>TRUE</enabled>
    <duration>17218</duration>
    <rate>
        <timebase>23.976</timebase>
        <ntsc>FALSE</ntsc>
    </rate>
    <start>15889</start>
    <end>16056</end>
    <in>16299</in>
    <out>16466</out>
    <file id="file-5"/>
    <sourcetrack>
   <mediatype>audio</mediatype>
   <trackindex>2</trackindex>
</sourcetrack>
    <labels>
        <label2>Iris</label2>
    </labels>
</clipitem>
<clipitem id="cd09ea2e-2421-42af-9694-a81a75347629" premiereChannelType="stereo">
    <masterclipid>masterclip-1</masterclipid>
    <name>S01E45.Jiggles.mkv</name>
    <enabled>TRUE</enabled>
    <duration>17218</duration>
    <rate>
        <timebase>23.976</timebase>
        <ntsc>FALSE</ntsc>
    </rate>
    <start>16056</start>
    <end>16067</end>
    <in>16467</in>
    <out>16478</out>
    <file id="file-5"/>
    <sourcetrack>
   <mediatype>audio</mediatype>
   <trackindex>2</trackindex>
</sourcetrack>
    <labels>
        <label2>Iris</label2>
    </labels>
</clipitem>
<clipitem id="cf1c30a3-d74d-44a9-af9d-06b0904ace68" premiereChannelType="stereo">
    <masterclipid>masterclip-1</masterclipid>
    <name>S01E45.Jiggles.mkv</name>
    <enabled>TRUE</enabled>
    <duration>17218</duration>
    <rate>
        <timebase>23.976</timebase>
        <ntsc>FALSE</ntsc>
    </rate>
    <start>16067</start>
    <end>16097</end>
    <in>16478</in>
    <out>16508</out>
    <file id="file-5"/>
    <sourcetrack>
   <mediatype>audio</mediatype>
   <trackindex>2</trackindex>
</sourcetrack>
    <labels>
        <label2>Iris</label2>
    </labels>
</clipitem>
<clipitem id="4407e63d-952c-476e-a966-bb00dade78aa" premiereChannelType="stereo">
    <masterclipid>masterclip-1</masterclipid>
    <name>S01E45.Jiggles.mkv</name>
    <enabled>TRUE</enabled>
    <duration>17218</duration>
    <rate>
        <timebase>23.976</timebase>
        <ntsc>FALSE</ntsc>
    </rate>
    <start>16097</start>
    <end>16128</end>
    <in>16508</in>
    <out>16539</out>
    <file id="file-5"/>
    <sourcetrack>
   <mediatype>audio</mediatype>
   <trackindex>2</trackindex>
</sourcetrack>
    <labels>
        <label2>Iris</label2>
    </labels>
</clipitem>
<clipitem id="f6cacb0b-c698-4df8-87bc-a1812ce12af4" premiereChannelType="stereo">
    <masterclipid>masterclip-1</masterclipid>
    <name>S01E45.Jiggles.mkv</name>
    <enabled>TRUE</enabled>
    <duration>17218</duration>
    <rate>
        <timebase>23.976</timebase>
        <ntsc>FALSE</ntsc>
    </rate>
    <start>16128</start>
    <end>16160</end>
    <in>16539</in>
    <out>16571</out>
    <file id="file-5"/>
    <sourcetrack>
   <mediatype>audio</mediatype>
   <trackindex>2</trackindex>
</sourcetrack>
    <labels>
        <label2>Iris</label2>
    </labels>
</clipitem>
<clipitem id="0324b6ec-f6bf-457e-b1a5-1ef2e9170e8d" premiereChannelType="stereo">
    <masterclipid>masterclip-1</masterclipid>
    <name>S01E45.Jiggles.mkv</name>
    <enabled>TRUE</enabled>
    <duration>17218</duration>
    <rate>
        <timebase>23.976</timebase>
        <ntsc>FALSE</ntsc>
    </rate>
    <start>16160</start>
    <end>16175</end>
    <in>16571</in>
    <out>16586</out>
    <file id="file-5"/>
    <sourcetrack>
   <mediatype>audio</mediatype>
   <trackindex>2</trackindex>
</sourcetrack>
    <labels>
        <label2>Iris</label2>
    </labels>
</clipitem>
<clipitem id="86b84f58-ab78-4867-b842-72d68d141e09" premiereChannelType="stereo">
    <masterclipid>masterclip-1</masterclipid>
    <name>S01E45.Jiggles.mkv</name>
    <enabled>TRUE</enabled>
    <duration>17218</duration>
    <rate>
        <timebase>23.976</timebase>
        <ntsc>FALSE</ntsc>
    </rate>
    <start>16175</start>
    <end>16189</end>
    <in>16586</in>
    <out>16600</out>
    <file id="file-5"/>
    <sourcetrack>
   <mediatype>audio</mediatype>
   <trackindex>2</trackindex>
</sourcetrack>
    <labels>
        <label2>Iris</label2>
    </labels>
</clipitem>
<clipitem id="fdbd0ba0-9ddc-4820-bce3-6c3f5f28b0c0" premiereChannelType="stereo">
    <masterclipid>masterclip-1</masterclipid>
    <name>S01E45.Jiggles.mkv</name>
    <enabled>TRUE</enabled>
    <duration>17218</duration>
    <rate>
        <timebase>23.976</timebase>
        <ntsc>FALSE</ntsc>
    </rate>
    <start>16189</start>
    <end>16228</end>
    <in>16600</in>
    <out>16639</out>
    <file id="file-5"/>
    <sourcetrack>
   <mediatype>audio</mediatype>
   <trackindex>2</trackindex>
</sourcetrack>
    <labels>
        <label2>Iris</label2>
    </labels>
</clipitem>
<clipitem id="d691112e-9096-4204-aa1c-c26644b299e4" premiereChannelType="stereo">
    <masterclipid>masterclip-1</masterclipid>
    <name>S01E45.Jiggles.mkv</name>
    <enabled>TRUE</enabled>
    <duration>17218</duration>
    <rate>
        <timebase>23.976</timebase>
        <ntsc>FALSE</ntsc>
    </rate>
    <start>16228</start>
    <end>16371</end>
    <in>16639</in>
    <out>16782</out>
    <file id="file-5"/>
    <sourcetrack>
   <mediatype>audio</mediatype>
   <trackindex>2</trackindex>
</sourcetrack>
    <labels>
        <label2>Iris</label2>
    </labels>
</clipitem>
<clipitem id="bcd60dc4-1acf-4b3b-8050-6655e38f3cab" premiereChannelType="stereo">
    <masterclipid>masterclip-1</masterclipid>
    <name>S01E45.Jiggles.mkv</name>
    <enabled>TRUE</enabled>
    <duration>17218</duration>
    <rate>
        <timebase>23.976</timebase>
        <ntsc>FALSE</ntsc>
    </rate>
    <start>16371</start>
    <end>16757</end>
    <in>16781</in>
    <out>17167</out>
    <file id="file-5"/>
    <sourcetrack>
   <mediatype>audio</mediatype>
   <trackindex>2</trackindex>
</sourcetrack>
    <labels>
        <label2>Iris</label2>
    </labels>
</clipitem>
<clipitem id="1dea04e1-0c69-48e5-ac36-857b75528f14" premiereChannelType="stereo">
    <masterclipid>masterclip-1</masterclipid>
    <name>S01E45.Jiggles.mkv</name>
    <enabled>TRUE</enabled>
    <duration>17218</duration>
    <rate>
        <timebase>23.976</timebase>
        <ntsc>FALSE</ntsc>
    </rate>
    <start>16757</start>
    <end>16761</end>
    <in>17132</in>
    <out>17136</out>
    <file id="file-5"/>
    <sourcetrack>
   <mediatype>audio</mediatype>
   <trackindex>2</trackindex>
</sourcetrack>
    <labels>
        <label2>Iris</label2>
    </labels>
</clipitem>

                    <enabled>TRUE</enabled>
                    <locked>FALSE</locked>
                    <outputchannelindex>2</outputchannelindex>
                </track>
                <track TL.SQTrackAudioKeyframeStyle="0" TL.SQTrackShy="0" TL.SQTrackExpandedHeight="25"
                       TL.SQTrackExpanded="0" MZ.TrackTargeted="1" PannerCurrentValue="0.5" PannerIsInverted="true"
                       PannerStartKeyframe="-91445760000000000,0.5,0,0,0,0,0,0" PannerName="平衡"
                       currentExplodedTrackIndex="0" totalExplodedTrackCount="2" premiereTrackType="Stereo">
                    <enabled>TRUE</enabled>
                    <locked>FALSE</locked>
                    <outputchannelindex>1</outputchannelindex>
                </track>
                <track TL.SQTrackAudioKeyframeStyle="0" TL.SQTrackShy="0" TL.SQTrackExpandedHeight="25"
                       TL.SQTrackExpanded="0" MZ.TrackTargeted="1" PannerCurrentValue="0.5" PannerIsInverted="true"
                       PannerStartKeyframe="-91445760000000000,0.5,0,0,0,0,0,0" PannerName="平衡"
                       currentExplodedTrackIndex="1" totalExplodedTrackCount="2" premiereTrackType="Stereo">
                    <enabled>TRUE</enabled>
                    <locked>FALSE</locked>
                    <outputchannelindex>2</outputchannelindex>
                </track>
                <track TL.SQTrackAudioKeyframeStyle="0" TL.SQTrackShy="0" TL.SQTrackExpandedHeight="25"
                       TL.SQTrackExpanded="0" MZ.TrackTargeted="1" PannerCurrentValue="0.5" PannerIsInverted="true"
                       PannerStartKeyframe="-91445760000000000,0.5,0,0,0,0,0,0" PannerName="平衡"
                       currentExplodedTrackIndex="0" totalExplodedTrackCount="2" premiereTrackType="Stereo">
                    <enabled>TRUE</enabled>
                    <locked>FALSE</locked>
                    <outputchannelindex>1</outputchannelindex>
                </track>
                <track TL.SQTrackAudioKeyframeStyle="0" TL.SQTrackShy="0" TL.SQTrackExpandedHeight="25"
                       TL.SQTrackExpanded="0" MZ.TrackTargeted="1" PannerCurrentValue="0.5" PannerIsInverted="true"
                       PannerStartKeyframe="-91445760000000000,0.5,0,0,0,0,0,0" PannerName="平衡"
                       currentExplodedTrackIndex="1" totalExplodedTrackCount="2" premiereTrackType="Stereo">
                    <enabled>TRUE</enabled>
                    <locked>FALSE</locked>
                    <outputchannelindex>2</outputchannelindex>
                </track>
            </audio>
        </media>
        <timecode>
            <rate>
                <timebase>23.976</timebase>
                <ntsc>FALSE</ntsc>
            </rate>
            <string>00:00:00:00</string>
            <frame>0</frame>
            <displayformat>NDF</displayformat>
        </timecode>
        <labels>
            <label2>Forest</label2>
        </labels>
    </sequence>
</xmeml>
